<svg xmlns="http://www.w3.org/2000/svg" xmlns:xlink="http://www.w3.org/1999/xlink" contentStyleType="text/css" data-diagram-type="CLASS" height="483px" preserveAspectRatio="none" style="width:831px;height:483px;background:#FFFFFF;" version="1.1" viewBox="0 0 831 483" width="831px" zoomAndPan="magnify"><defs/><g><!--cluster sdv--><g class="cluster" data-entity="sdv" data-source-line="8" data-uid="ent0004" id="cluster_sdv"><path d="M8.5,260 L33.624,260 A3.75,3.75 0 0 1 36.124,262.5 L43.124,283.6094 L449.5,283.6094 A2.5,2.5 0 0 1 452,286.1094 L452,427.5 A2.5,2.5 0 0 1 449.5,430 L8.5,430 A2.5,2.5 0 0 1 6,427.5 L6,262.5 A2.5,2.5 0 0 1 8.5,260" fill="none" style="stroke:#000000;stroke-width:1.5;"/><line style="stroke:#000000;stroke-width:1.5;" x1="6" x2="43.124" y1="283.6094" y2="283.6094"/><text fill="#000000" font-family="sans-serif" font-size="14" font-weight="bold" lengthAdjust="spacing" textLength="24.124" x="10" y="276.5332">sdv</text></g><!--cluster vss--><g class="cluster" data-entity="vss" data-source-line="16" data-uid="ent0006" id="cluster_vss"><path d="M478.5,154 L502.8584,154 A3.75,3.75 0 0 1 505.3584,156.5 L512.3584,177.6094 L821.5,177.6094 A2.5,2.5 0 0 1 824,180.1094 L824,473.5 A2.5,2.5 0 0 1 821.5,476 L478.5,476 A2.5,2.5 0 0 1 476,473.5 L476,156.5 A2.5,2.5 0 0 1 478.5,154" fill="none" style="stroke:#000000;stroke-width:1.5;"/><line style="stroke:#000000;stroke-width:1.5;" x1="476" x2="512.3584" y1="177.6094" y2="177.6094"/><text fill="#000000" font-family="sans-serif" font-size="14" font-weight="bold" lengthAdjust="spacing" textLength="23.3584" x="480" y="170.5332">vss</text></g><!--cluster Vehicle--><g class="cluster" data-entity="Vehicle" data-source-line="16" data-uid="ent0007" id="cluster_Vehicle"><path d="M502.5,198 L552.5273,198 A3.75,3.75 0 0 1 555.0273,200.5 L562.0273,221.6094 L797.5,221.6094 A2.5,2.5 0 0 1 800,224.1094 L800,449.5 A2.5,2.5 0 0 1 797.5,452 L502.5,452 A2.5,2.5 0 0 1 500,449.5 L500,200.5 A2.5,2.5 0 0 1 502.5,198" fill="none" style="stroke:#000000;stroke-width:1.5;"/><line style="stroke:#000000;stroke-width:1.5;" x1="500" x2="562.0273" y1="221.6094" y2="221.6094"/><text fill="#000000" font-family="sans-serif" font-size="14" font-weight="bold" lengthAdjust="spacing" textLength="49.0273" x="504" y="214.5332">Vehicle</text></g><!--cluster Body--><g class="cluster" data-entity="Body" data-source-line="16" data-uid="ent0008" id="cluster_Body"><path d="M526.5,242 L562.5,242 A3.75,3.75 0 0 1 565,244.5 L572,265.6094 L773.5,265.6094 A2.5,2.5 0 0 1 776,268.1094 L776,425.5 A2.5,2.5 0 0 1 773.5,428 L526.5,428 A2.5,2.5 0 0 1 524,425.5 L524,244.5 A2.5,2.5 0 0 1 526.5,242" fill="none" style="stroke:#000000;stroke-width:1.5;"/><line style="stroke:#000000;stroke-width:1.5;" x1="524" x2="572" y1="265.6094" y2="265.6094"/><text fill="#000000" font-family="sans-serif" font-size="14" font-weight="bold" lengthAdjust="spacing" textLength="35" x="528" y="258.5332">Body</text></g><!--cluster TrunkService--><g class="cluster" data-entity="TrunkService" data-source-line="16" data-uid="ent0009" id="cluster_TrunkService"><path d="M550.5,286 L640.21,286 A3.75,3.75 0 0 1 642.71,288.5 L649.71,309.6094 L749.5,309.6094 A2.5,2.5 0 0 1 752,312.1094 L752,401.5 A2.5,2.5 0 0 1 749.5,404 L550.5,404 A2.5,2.5 0 0 1 548,401.5 L548,288.5 A2.5,2.5 0 0 1 550.5,286" fill="none" style="stroke:#000000;stroke-width:1.5;"/><line style="stroke:#000000;stroke-width:1.5;" x1="548" x2="649.71" y1="309.6094" y2="309.6094"/><text fill="#000000" font-family="sans-serif" font-size="14" font-weight="bold" lengthAdjust="spacing" textLength="88.71" x="552" y="302.5332">TrunkService</text></g><!--class CSdvObject--><g class="entity" data-entity="CSdvObject" data-source-line="8" data-uid="ent0003" id="entity_CSdvObject"><rect fill="#F1F1F1" height="118.4375" rx="2.5" ry="2.5" style="stroke:#181818;stroke-width:0.5;" width="412.7705" x="22.5" y="296"/><ellipse cx="187.2871" cy="312" fill="#ADD1B2" rx="11" ry="11" style="stroke:#181818;stroke-width:1;"/><path d="M190.0527,307.875 Q190.209,307.6563 190.3965,307.5469 Q190.584,307.4375 190.8027,307.4375 Q191.1777,307.4375 191.4121,307.6953 Q191.6465,307.9531 191.6465,308.5625 L191.6465,310.0156 Q191.6465,310.625 191.4121,310.8906 Q191.1777,311.1563 190.8027,311.1563 Q190.459,311.1563 190.2559,310.9531 Q190.0527,310.7656 189.9434,310.25 Q189.8965,309.8906 189.709,309.7031 Q189.3809,309.3281 188.7715,309.1094 Q188.1621,308.8906 187.5371,308.8906 Q186.7715,308.8906 186.1387,309.2188 Q185.5059,309.5469 185.0137,310.2969 Q184.5215,311.0469 184.5215,312.0781 L184.5215,313.1719 Q184.5215,314.4063 185.4121,315.2266 Q186.3027,316.0469 187.8965,316.0469 Q188.834,316.0469 189.4902,315.7969 Q189.8809,315.6406 190.3027,315.2031 Q190.5684,314.9375 190.7168,314.8594 Q190.8652,314.7813 191.0684,314.7813 Q191.3965,314.7813 191.6543,315.0391 Q191.9121,315.2969 191.9121,315.6406 Q191.9121,315.9844 191.5684,316.3906 Q191.0684,316.9688 190.2715,317.2969 Q189.1934,317.75 187.8965,317.75 Q186.3809,317.75 185.1777,317.125 Q184.1934,316.625 183.5059,315.5547 Q182.8184,314.4844 182.8184,313.2031 L182.8184,312.0469 Q182.8184,310.7188 183.4355,309.5703 Q184.0527,308.4219 185.1465,307.8047 Q186.2402,307.1875 187.4746,307.1875 Q188.209,307.1875 188.8574,307.3516 Q189.5059,307.5156 190.0527,307.875 Z " fill="#000000"/><text fill="#000000" font-family="sans-serif" font-size="14" lengthAdjust="spacing" textLength="74.6963" x="207.7871" y="317.7285">CSdvObject</text><line style="stroke:#181818;stroke-width:0.5;" x1="23.5" x2="434.2705" y1="328" y2="328"/><line style="stroke:#181818;stroke-width:0.5;" x1="23.5" x2="434.2705" y1="336" y2="336"/><ellipse cx="33.5" cy="350.3047" fill="#84BE84" rx="3" ry="3" style="stroke:#038048;stroke-width:1;"/><text fill="#000000" font-family="sans-serif" font-size="14" lengthAdjust="spacing" text-decoration="underline" textLength="336.9365" x="42.5" y="354.5332">sdv::sequence&lt;sdv::u8string&gt; GetClassAliasesStatic()</text><ellipse cx="33.5" cy="367.9141" fill="#84BE84" rx="3" ry="3" style="stroke:#038048;stroke-width:1;"/><text fill="#000000" font-family="sans-serif" font-size="14" lengthAdjust="spacing" text-decoration="underline" textLength="272.3301" x="42.5" y="372.1426">sdv::u8string GetDefaultObjectNameStatic()</text><ellipse cx="33.5" cy="385.5234" fill="#84BE84" rx="3" ry="3" style="stroke:#038048;stroke-width:1;"/><text fill="#000000" font-family="sans-serif" font-size="14" lengthAdjust="spacing" text-decoration="underline" textLength="143.9648" x="42.5" y="389.752">bool IsSingletonStatic()</text><ellipse cx="33.5" cy="403.1328" fill="#84BE84" rx="3" ry="3" style="stroke:#038048;stroke-width:1;"/><text fill="#000000" font-family="sans-serif" font-size="14" lengthAdjust="spacing" text-decoration="underline" textLength="386.7705" x="42.5" y="407.3613">sdv::sequence&lt;sdv::u8string&gt; GetObjectDependenciesStatic()</text></g><!--class IVSS_SetOpen--><g class="entity" data-entity="IVSS_SetOpen" data-source-line="16" data-uid="ent0005" id="entity_IVSS_SetOpen"><rect fill="#F1F1F1" height="65.6094" rx="2.5" ry="2.5" style="stroke:#181818;stroke-width:0.5;" width="170.7715" x="564.5" y="322"/><ellipse cx="599.2191" cy="338" fill="#B4A7E5" rx="11" ry="11" style="stroke:#181818;stroke-width:1;"/><path d="M600.1723,334.6406 L600.1723,341.2969 L601.891,341.2969 Q602.5004,341.2969 602.766,341.5313 Q603.0316,341.7656 603.0316,342.1563 Q603.0316,342.5313 602.766,342.7656 Q602.5004,343 601.891,343 L596.7504,343 Q596.141,343 595.8754,342.7656 Q595.6098,342.5313 595.6098,342.1406 Q595.6098,341.7656 595.8754,341.5313 Q596.141,341.2969 596.7504,341.2969 L598.4691,341.2969 L598.4691,334.6406 L596.7504,334.6406 Q596.141,334.6406 595.8754,334.4063 Q595.6098,334.1719 595.6098,333.7813 Q595.6098,333.4063 595.8754,333.1719 Q596.141,332.9375 596.7504,332.9375 L601.891,332.9375 Q602.5004,332.9375 602.766,333.1719 Q603.0316,333.4063 603.0316,333.7813 Q603.0316,334.1719 602.766,334.4063 Q602.5004,334.6406 601.891,334.6406 L600.1723,334.6406 Z " fill="#000000"/><text fill="#000000" font-family="sans-serif" font-size="14" font-style="italic" lengthAdjust="spacing" textLength="94.9512" x="617.6012" y="343.7285">IVSS_SetOpen</text><line style="stroke:#181818;stroke-width:0.5;" x1="565.5" x2="734.2715" y1="354" y2="354"/><line style="stroke:#181818;stroke-width:0.5;" x1="565.5" x2="734.2715" y1="362" y2="362"/><text fill="#000000" font-family="sans-serif" font-size="14" font-style="italic" lengthAdjust="spacing" textLength="158.7715" x="570.5" y="380.5332">bool SetOpen(bool value)</text></g><!--class CBasicServiceVehicleTrunk--><g class="entity" data-entity="CBasicServiceVehicleTrunk" data-source-line="2" data-uid="ent0002" id="entity_CBasicServiceVehicleTrunk"><rect fill="#F1F1F1" height="83.2188" rx="2.5" ry="2.5" style="stroke:#181818;stroke-width:0.5;" width="420.4951" x="229" y="7"/><ellipse cx="348.6323" cy="23" fill="#ADD1B2" rx="11" ry="11" style="stroke:#181818;stroke-width:1;"/><path d="M351.3979,18.875 Q351.5542,18.6563 351.7417,18.5469 Q351.9292,18.4375 352.1479,18.4375 Q352.5229,18.4375 352.7573,18.6953 Q352.9917,18.9531 352.9917,19.5625 L352.9917,21.0156 Q352.9917,21.625 352.7573,21.8906 Q352.5229,22.1563 352.1479,22.1563 Q351.8042,22.1563 351.6011,21.9531 Q351.3979,21.7656 351.2886,21.25 Q351.2417,20.8906 351.0542,20.7031 Q350.7261,20.3281 350.1167,20.1094 Q349.5073,19.8906 348.8823,19.8906 Q348.1167,19.8906 347.4839,20.2188 Q346.8511,20.5469 346.3589,21.2969 Q345.8667,22.0469 345.8667,23.0781 L345.8667,24.1719 Q345.8667,25.4063 346.7573,26.2266 Q347.6479,27.0469 349.2417,27.0469 Q350.1792,27.0469 350.8354,26.7969 Q351.2261,26.6406 351.6479,26.2031 Q351.9136,25.9375 352.062,25.8594 Q352.2104,25.7813 352.4136,25.7813 Q352.7417,25.7813 352.9995,26.0391 Q353.2573,26.2969 353.2573,26.6406 Q353.2573,26.9844 352.9136,27.3906 Q352.4136,27.9688 351.6167,28.2969 Q350.5386,28.75 349.2417,28.75 Q347.7261,28.75 346.5229,28.125 Q345.5386,27.625 344.8511,26.5547 Q344.1636,25.4844 344.1636,24.2031 L344.1636,23.0469 Q344.1636,21.7188 344.7808,20.5703 Q345.3979,19.4219 346.4917,18.8047 Q347.5854,18.1875 348.8198,18.1875 Q349.5542,18.1875 350.2026,18.3516 Q350.8511,18.5156 351.3979,18.875 Z " fill="#000000"/><text fill="#000000" font-family="sans-serif" font-size="14" lengthAdjust="spacing" textLength="172.7305" x="369.1323" y="28.7285">CBasicServiceVehicleTrunk</text><line style="stroke:#181818;stroke-width:0.5;" x1="230" x2="648.4951" y1="39" y2="39"/><rect fill="none" height="6" style="stroke:#C82930;stroke-width:1;" width="6" x="237" y="50.3047"/><text fill="#000000" font-family="sans-serif" font-size="14" lengthAdjust="spacing" textLength="394.4951" x="249" y="57.5332">vss::Vehicle::Body::TrunkDevice::IVSS_WriteOpen* m_ptrOpen</text><line style="stroke:#181818;stroke-width:0.5;" x1="230" x2="648.4951" y1="64.6094" y2="64.6094"/><text fill="#000000" font-family="sans-serif" font-size="14" font-style="italic" lengthAdjust="spacing" textLength="158.7715" x="235" y="83.1426">bool SetOpen(bool value)</text></g><!--link CBasicServiceVehicleTrunk to CSdvObject--><g class="link" data-entity-1="CBasicServiceVehicleTrunk" data-entity-2="CSdvObject" data-source-line="21" data-uid="lnk10" id="link_CBasicServiceVehicleTrunk_CSdvObject"><path codeLine="21" d="M410.9,90.25 C374.46,143.08 320.899,220.7421 279.369,280.9621" fill="none" id="CBasicServiceVehicleTrunk-to-CSdvObject" style="stroke:#181818;stroke-width:1;"/><polygon fill="none" points="269.15,295.78,284.3083,284.3684,274.4297,277.5557,269.15,295.78" style="stroke:#181818;stroke-width:1;"/><text fill="#000000" font-family="sans-serif" font-size="13" lengthAdjust="spacing" textLength="42.6309" x="389" y="134.4951">Inherits</text></g><!--link CBasicServiceVehicleTrunk to IVSS_SetOpen--><g class="link" data-entity-1="CBasicServiceVehicleTrunk" data-entity-2="IVSS_SetOpen" data-source-line="22" data-uid="lnk11" id="link_CBasicServiceVehicleTrunk_IVSS_SetOpen"><path codeLine="22" d="M467.24,90.25 C509.69,151.51 578.8183,251.2746 617.4683,307.0546" fill="none" id="CBasicServiceVehicleTrunk-to-IVSS_SetOpen" style="stroke:#181818;stroke-width:1;stroke-dasharray:7,7;"/><polygon fill="none" points="627.72,321.85,622.4001,303.6374,612.5365,310.4719,627.72,321.85" style="stroke:#181818;stroke-width:1;"/><text fill="#000000" font-family="sans-serif" font-size="13" lengthAdjust="spacing" textLength="67.1899" x="496" y="134.4951">Implements</text></g><!--SRC=[dL9DImCn4BttLyonLTgp35AmMv1Ux25IZoNDJjjeDhjcPXT4-zzDTbUauXRqaW-Ozv7t0am2J9KEMie0Y2C0C4upGxRGR8sYq5X36pfQu-WnrFubZRod9UrwnnAqaHFiojA18bbNvCVjfT6kfaa_EMsO4NiUn4MPlo6sV4jA2eYhZLBRfs254iKL5DjAGZecXjFesndd3MAcycQzUoOZPtvOj5XpWkjsYEcr9c_ejhtLDz6hzOSvt9DaYUhEMSt4gWMD9x-JVC4IQabxNJlfX1zqGOFGDe4LgmXq9AM_h771QAUrf1X47aVikTqkbvKN2djj20PJxeliO-vx-aULdU3Wvu3fz6F-io70wF18iLg-39xD8lXlJqZSHUMe82_y2G00]--></g></svg>