<svg xmlns="http://www.w3.org/2000/svg" xmlns:xlink="http://www.w3.org/1999/xlink" contentStyleType="text/css" data-diagram-type="CLASS" height="659px" preserveAspectRatio="none" style="width:1548px;height:659px;background:#FFFFFF;" version="1.1" viewBox="0 0 1548 659" width="1548px" zoomAndPan="magnify"><defs/><g><!--cluster sdv--><g class="cluster" data-entity="sdv" data-source-line="17" data-uid="ent0004" id="cluster_sdv"><path d="M8.5,427.5 L33.624,427.5 A3.75,3.75 0 0 1 36.124,430 L43.124,451.1094 L810.5,451.1094 A2.5,2.5 0 0 1 813,453.6094 L813,595 A2.5,2.5 0 0 1 810.5,597.5 L8.5,597.5 A2.5,2.5 0 0 1 6,595 L6,430 A2.5,2.5 0 0 1 8.5,427.5" fill="none" style="stroke:#000000;stroke-width:1.5;"/><line style="stroke:#000000;stroke-width:1.5;" x1="6" x2="43.124" y1="451.1094" y2="451.1094"/><text fill="#000000" font-family="sans-serif" font-size="14" font-weight="bold" lengthAdjust="spacing" textLength="24.124" x="10" y="444.0332">sdv</text></g><!--cluster vss--><g class="cluster" data-entity="vss" data-source-line="33" data-uid="ent0007" id="cluster_vss"><path d="M839.5,313 L863.8584,313 A3.75,3.75 0 0 1 866.3584,315.5 L873.3584,336.6094 L1538.5,336.6094 A2.5,2.5 0 0 1 1541,339.1094 L1541,649.5 A2.5,2.5 0 0 1 1538.5,652 L839.5,652 A2.5,2.5 0 0 1 837,649.5 L837,315.5 A2.5,2.5 0 0 1 839.5,313" fill="none" style="stroke:#000000;stroke-width:1.5;"/><line style="stroke:#000000;stroke-width:1.5;" x1="837" x2="873.3584" y1="336.6094" y2="336.6094"/><text fill="#000000" font-family="sans-serif" font-size="14" font-weight="bold" lengthAdjust="spacing" textLength="23.3584" x="841" y="329.5332">vss</text></g><!--cluster Vehicle--><g class="cluster" data-entity="Vehicle" data-source-line="33" data-uid="ent0008" id="cluster_Vehicle"><path d="M863.5,357 L913.5273,357 A3.75,3.75 0 0 1 916.0273,359.5 L923.0273,380.6094 L1514.5,380.6094 A2.5,2.5 0 0 1 1517,383.1094 L1517,625.5 A2.5,2.5 0 0 1 1514.5,628 L863.5,628 A2.5,2.5 0 0 1 861,625.5 L861,359.5 A2.5,2.5 0 0 1 863.5,357" fill="none" style="stroke:#000000;stroke-width:1.5;"/><line style="stroke:#000000;stroke-width:1.5;" x1="861" x2="923.0273" y1="380.6094" y2="380.6094"/><text fill="#000000" font-family="sans-serif" font-size="14" font-weight="bold" lengthAdjust="spacing" textLength="49.0273" x="865" y="373.5332">Vehicle</text></g><!--cluster Position--><g class="cluster" data-entity="Position" data-source-line="33" data-uid="ent0009" id="cluster_Position"><path d="M887.5,401 L943.7207,401 A3.75,3.75 0 0 1 946.2207,403.5 L953.2207,424.6094 L1490.5,424.6094 A2.5,2.5 0 0 1 1493,427.1094 L1493,601.5 A2.5,2.5 0 0 1 1490.5,604 L887.5,604 A2.5,2.5 0 0 1 885,601.5 L885,403.5 A2.5,2.5 0 0 1 887.5,401" fill="none" style="stroke:#000000;stroke-width:1.5;"/><line style="stroke:#000000;stroke-width:1.5;" x1="885" x2="953.2207" y1="424.6094" y2="424.6094"/><text fill="#000000" font-family="sans-serif" font-size="14" font-weight="bold" lengthAdjust="spacing" textLength="55.2207" x="889" y="417.5332">Position</text></g><!--cluster CurrentLongitudeDevice--><g class="cluster" data-entity="CurrentLongitudeDevice" data-source-line="33" data-uid="ent0010" id="cluster_CurrentLongitudeDevice"><path d="M911.5,445 L1075.8516,445 A3.75,3.75 0 0 1 1078.3516,447.5 L1085.3516,468.6094 L1466.5,468.6094 A2.5,2.5 0 0 1 1469,471.1094 L1469,577.5 A2.5,2.5 0 0 1 1466.5,580 L911.5,580 A2.5,2.5 0 0 1 909,577.5 L909,447.5 A2.5,2.5 0 0 1 911.5,445" fill="none" style="stroke:#000000;stroke-width:1.5;"/><line style="stroke:#000000;stroke-width:1.5;" x1="909" x2="1085.3516" y1="468.6094" y2="468.6094"/><text fill="#000000" font-family="sans-serif" font-size="14" font-weight="bold" lengthAdjust="spacing" textLength="163.3516" x="913" y="461.5332">CurrentLongitudeDevice</text></g><!--class CSdvObject--><g class="entity" data-entity="CSdvObject" data-source-line="17" data-uid="ent0003" id="entity_CSdvObject"><rect fill="#F1F1F1" height="118.4375" rx="2.5" ry="2.5" style="stroke:#181818;stroke-width:0.5;" width="412.7705" x="22.5" y="463.5"/><ellipse cx="187.2871" cy="479.5" fill="#ADD1B2" rx="11" ry="11" style="stroke:#181818;stroke-width:1;"/><path d="M190.0527,475.375 Q190.209,475.1563 190.3965,475.0469 Q190.584,474.9375 190.8027,474.9375 Q191.1777,474.9375 191.4121,475.1953 Q191.6465,475.4531 191.6465,476.0625 L191.6465,477.5156 Q191.6465,478.125 191.4121,478.3906 Q191.1777,478.6563 190.8027,478.6563 Q190.459,478.6563 190.2559,478.4531 Q190.0527,478.2656 189.9434,477.75 Q189.8965,477.3906 189.709,477.2031 Q189.3809,476.8281 188.7715,476.6094 Q188.1621,476.3906 187.5371,476.3906 Q186.7715,476.3906 186.1387,476.7188 Q185.5059,477.0469 185.0137,477.7969 Q184.5215,478.5469 184.5215,479.5781 L184.5215,480.6719 Q184.5215,481.9063 185.4121,482.7266 Q186.3027,483.5469 187.8965,483.5469 Q188.834,483.5469 189.4902,483.2969 Q189.8809,483.1406 190.3027,482.7031 Q190.5684,482.4375 190.7168,482.3594 Q190.8652,482.2813 191.0684,482.2813 Q191.3965,482.2813 191.6543,482.5391 Q191.9121,482.7969 191.9121,483.1406 Q191.9121,483.4844 191.5684,483.8906 Q191.0684,484.4688 190.2715,484.7969 Q189.1934,485.25 187.8965,485.25 Q186.3809,485.25 185.1777,484.625 Q184.1934,484.125 183.5059,483.0547 Q182.8184,481.9844 182.8184,480.7031 L182.8184,479.5469 Q182.8184,478.2188 183.4355,477.0703 Q184.0527,475.9219 185.1465,475.3047 Q186.2402,474.6875 187.4746,474.6875 Q188.209,474.6875 188.8574,474.8516 Q189.5059,475.0156 190.0527,475.375 Z " fill="#000000"/><text fill="#000000" font-family="sans-serif" font-size="14" lengthAdjust="spacing" textLength="74.6963" x="207.7871" y="485.2285">CSdvObject</text><line style="stroke:#181818;stroke-width:0.5;" x1="23.5" x2="434.2705" y1="495.5" y2="495.5"/><line style="stroke:#181818;stroke-width:0.5;" x1="23.5" x2="434.2705" y1="503.5" y2="503.5"/><ellipse cx="33.5" cy="517.8047" fill="#84BE84" rx="3" ry="3" style="stroke:#038048;stroke-width:1;"/><text fill="#000000" font-family="sans-serif" font-size="14" lengthAdjust="spacing" text-decoration="underline" textLength="336.9365" x="42.5" y="522.0332">sdv::sequence&lt;sdv::u8string&gt; GetClassAliasesStatic()</text><ellipse cx="33.5" cy="535.4141" fill="#84BE84" rx="3" ry="3" style="stroke:#038048;stroke-width:1;"/><text fill="#000000" font-family="sans-serif" font-size="14" lengthAdjust="spacing" text-decoration="underline" textLength="272.3301" x="42.5" y="539.6426">sdv::u8string GetDefaultObjectNameStatic()</text><ellipse cx="33.5" cy="553.0234" fill="#84BE84" rx="3" ry="3" style="stroke:#038048;stroke-width:1;"/><text fill="#000000" font-family="sans-serif" font-size="14" lengthAdjust="spacing" text-decoration="underline" textLength="143.9648" x="42.5" y="557.252">bool IsSingletonStatic()</text><ellipse cx="33.5" cy="570.6328" fill="#84BE84" rx="3" ry="3" style="stroke:#038048;stroke-width:1;"/><text fill="#000000" font-family="sans-serif" font-size="14" lengthAdjust="spacing" text-decoration="underline" textLength="386.7705" x="42.5" y="574.8613">sdv::sequence&lt;sdv::u8string&gt; GetObjectDependenciesStatic()</text></g><!--class IObjectControl--><g class="entity" data-entity="IObjectControl" data-source-line="25" data-uid="ent0005" id="entity_IObjectControl"><rect fill="#F1F1F1" height="118.4375" rx="2.5" ry="2.5" style="stroke:#181818;stroke-width:0.5;" width="326.3574" x="471" y="463.5"/><ellipse cx="585.1875" cy="479.5" fill="#B4A7E5" rx="11" ry="11" style="stroke:#181818;stroke-width:1;"/><path d="M586.1406,476.1406 L586.1406,482.7969 L587.8594,482.7969 Q588.4688,482.7969 588.7344,483.0313 Q589,483.2656 589,483.6563 Q589,484.0313 588.7344,484.2656 Q588.4688,484.5 587.8594,484.5 L582.7188,484.5 Q582.1094,484.5 581.8438,484.2656 Q581.5781,484.0313 581.5781,483.6406 Q581.5781,483.2656 581.8438,483.0313 Q582.1094,482.7969 582.7188,482.7969 L584.4375,482.7969 L584.4375,476.1406 L582.7188,476.1406 Q582.1094,476.1406 581.8438,475.9063 Q581.5781,475.6719 581.5781,475.2813 Q581.5781,474.9063 581.8438,474.6719 Q582.1094,474.4375 582.7188,474.4375 L587.8594,474.4375 Q588.4688,474.4375 588.7344,474.6719 Q589,474.9063 589,475.2813 Q589,475.6719 588.7344,475.9063 Q588.4688,476.1406 587.8594,476.1406 L586.1406,476.1406 Z " fill="#000000"/><text fill="#000000" font-family="sans-serif" font-size="14" font-style="italic" lengthAdjust="spacing" textLength="89.4824" x="605.6875" y="485.2285">IObjectControl</text><line style="stroke:#181818;stroke-width:0.5;" x1="472" x2="796.3574" y1="495.5" y2="495.5"/><line style="stroke:#181818;stroke-width:0.5;" x1="472" x2="796.3574" y1="503.5" y2="503.5"/><text fill="#000000" font-family="sans-serif" font-size="14" font-style="italic" lengthAdjust="spacing" textLength="314.3574" x="477" y="522.0332">void Initialize(const sdv::u8string&amp; ssObjectConfig)</text><text fill="#000000" font-family="sans-serif" font-size="14" font-style="italic" lengthAdjust="spacing" textLength="202.3096" x="477" y="539.6426">EObjectStatus GetStatus() const</text><text fill="#000000" font-family="sans-serif" font-size="14" font-style="italic" lengthAdjust="spacing" textLength="308.9502" x="477" y="557.252">void SetOperationMode(EOperationMode eMode)</text><text fill="#000000" font-family="sans-serif" font-size="14" font-style="italic" lengthAdjust="spacing" textLength="101.165" x="477" y="574.8613">void Shutdown()</text></g><!--class IVSS_CurrentLongitude--><g class="entity" data-entity="IVSS_CurrentLongitude" data-source-line="33" data-uid="ent0006" id="entity_IVSS_CurrentLongitude"><rect fill="#F1F1F1" height="83.2188" rx="2.5" ry="2.5" style="stroke:#181818;stroke-width:0.5;" width="527.1699" x="925.5" y="481"/><ellipse cx="1110.8975" cy="497" fill="#B4A7E5" rx="11" ry="11" style="stroke:#181818;stroke-width:1;"/><path d="M1111.8506,493.6406 L1111.8506,500.2969 L1113.5693,500.2969 Q1114.1787,500.2969 1114.4443,500.5313 Q1114.71,500.7656 1114.71,501.1563 Q1114.71,501.5313 1114.4443,501.7656 Q1114.1787,502 1113.5693,502 L1108.4287,502 Q1107.8193,502 1107.5537,501.7656 Q1107.2881,501.5313 1107.2881,501.1406 Q1107.2881,500.7656 1107.5537,500.5313 Q1107.8193,500.2969 1108.4287,500.2969 L1110.1475,500.2969 L1110.1475,493.6406 L1108.4287,493.6406 Q1107.8193,493.6406 1107.5537,493.4063 Q1107.2881,493.1719 1107.2881,492.7813 Q1107.2881,492.4063 1107.5537,492.1719 Q1107.8193,491.9375 1108.4287,491.9375 L1113.5693,491.9375 Q1114.1787,491.9375 1114.4443,492.1719 Q1114.71,492.4063 1114.71,492.7813 Q1114.71,493.1719 1114.4443,493.4063 Q1114.1787,493.6406 1113.5693,493.6406 L1111.8506,493.6406 Z " fill="#000000"/><text fill="#000000" font-family="sans-serif" font-size="14" font-style="italic" lengthAdjust="spacing" textLength="147.875" x="1131.3975" y="502.7285">IVSS_CurrentLongitude</text><line style="stroke:#181818;stroke-width:0.5;" x1="926.5" x2="1451.6699" y1="513" y2="513"/><line style="stroke:#181818;stroke-width:0.5;" x1="926.5" x2="1451.6699" y1="521" y2="521"/><text fill="#000000" font-family="sans-serif" font-size="14" font-style="italic" lengthAdjust="spacing" textLength="502.7217" x="931.5" y="539.5332">void RegisterCurrentLongitudeEvent(IVSS_WriteCurrentLongitude_Event* event)</text><text fill="#000000" font-family="sans-serif" font-size="14" font-style="italic" lengthAdjust="spacing" textLength="515.1699" x="931.5" y="557.1426">void UnregisterCurrentLongitudeEvent(IVSS_WriteCurrentLongitude_Event* event)</text></g><!--class CVehicleDeviceCurrentLongitude--><g class="entity" data-entity="CVehicleDeviceCurrentLongitude" data-source-line="2" data-uid="ent0002" id="entity_CVehicleDeviceCurrentLongitude"><rect fill="#F1F1F1" height="241.7031" rx="2.5" ry="2.5" style="stroke:#181818;stroke-width:0.5;" width="839.9893" x="214" y="7"/><ellipse cx="526.2417" cy="23" fill="#ADD1B2" rx="11" ry="11" style="stroke:#181818;stroke-width:1;"/><path d="M529.0073,18.875 Q529.1636,18.6563 529.3511,18.5469 Q529.5386,18.4375 529.7573,18.4375 Q530.1323,18.4375 530.3667,18.6953 Q530.6011,18.9531 530.6011,19.5625 L530.6011,21.0156 Q530.6011,21.625 530.3667,21.8906 Q530.1323,22.1563 529.7573,22.1563 Q529.4136,22.1563 529.2104,21.9531 Q529.0073,21.7656 528.8979,21.25 Q528.8511,20.8906 528.6636,20.7031 Q528.3354,20.3281 527.7261,20.1094 Q527.1167,19.8906 526.4917,19.8906 Q525.7261,19.8906 525.0933,20.2188 Q524.4604,20.5469 523.9683,21.2969 Q523.4761,22.0469 523.4761,23.0781 L523.4761,24.1719 Q523.4761,25.4063 524.3667,26.2266 Q525.2573,27.0469 526.8511,27.0469 Q527.7886,27.0469 528.4448,26.7969 Q528.8354,26.6406 529.2573,26.2031 Q529.5229,25.9375 529.6714,25.8594 Q529.8198,25.7813 530.0229,25.7813 Q530.3511,25.7813 530.6089,26.0391 Q530.8667,26.2969 530.8667,26.6406 Q530.8667,26.9844 530.5229,27.3906 Q530.0229,27.9688 529.2261,28.2969 Q528.1479,28.75 526.8511,28.75 Q525.3354,28.75 524.1323,28.125 Q523.1479,27.625 522.4604,26.5547 Q521.7729,25.4844 521.7729,24.2031 L521.7729,23.0469 Q521.7729,21.7188 522.3901,20.5703 Q523.0073,19.4219 524.1011,18.8047 Q525.1948,18.1875 526.4292,18.1875 Q527.1636,18.1875 527.812,18.3516 Q528.4604,18.5156 529.0073,18.875 Z " fill="#000000"/><text fill="#000000" font-family="sans-serif" font-size="14" lengthAdjust="spacing" textLength="207.0059" x="546.7417" y="28.7285">CVehicleDeviceCurrentLongitude</text><line style="stroke:#181818;stroke-width:0.5;" x1="215" x2="1052.9893" y1="39" y2="39"/><rect fill="none" height="6" style="stroke:#C82930;stroke-width:1;" width="6" x="222" y="50.3047"/><text fill="#000000" font-family="sans-serif" font-size="14" lengthAdjust="spacing" textLength="287.9365" x="234" y="57.5332">sdv::core::CSignal m_fCurrentLongitudeSignal</text><rect fill="none" height="6" style="stroke:#C82930;stroke-width:1;" width="6" x="222" y="67.9141"/><text fill="#000000" font-family="sans-serif" font-size="14" lengthAdjust="spacing" textLength="352.502" x="234" y="75.1426">mutable std::mutex m_fCurrentLongitudeMutexCallbacks</text><rect fill="none" height="6" style="stroke:#C82930;stroke-width:1;" width="6" x="222" y="85.5234"/><text fill="#000000" font-family="sans-serif" font-size="14" lengthAdjust="spacing" textLength="785.9756" x="234" y="92.752">std::set&lt;vss::Vehicle::Position::CurrentLongitudeDevice::IVSS_WriteCurrentLongitude_Event*&gt; m_fCurrentLongitudeCallbacks</text><rect fill="none" height="6" style="stroke:#C82930;stroke-width:1;" width="6" x="222" y="103.1328"/><text fill="#000000" font-family="sans-serif" font-size="14" lengthAdjust="spacing" textLength="263.7852" x="234" y="110.3613">std::atomic&lt;sdv::EObjectStatus&gt; m_status</text><line style="stroke:#181818;stroke-width:0.5;" x1="215" x2="1052.9893" y1="117.4375" y2="117.4375"/><ellipse cx="225" cy="131.7422" fill="#84BE84" rx="3" ry="3" style="stroke:#038048;stroke-width:1;"/><text fill="#000000" font-family="sans-serif" font-size="14" lengthAdjust="spacing" textLength="297.2539" x="234" y="135.9707">void Initialize(const sdv::u8string&amp; objectConfig)</text><ellipse cx="225" cy="149.3516" fill="#84BE84" rx="3" ry="3" style="stroke:#038048;stroke-width:1;"/><text fill="#000000" font-family="sans-serif" font-size="14" lengthAdjust="spacing" textLength="231.875" x="234" y="153.5801">sdv::EObjectStatus GetStatus() const</text><ellipse cx="225" cy="166.9609" fill="#84BE84" rx="3" ry="3" style="stroke:#038048;stroke-width:1;"/><text fill="#000000" font-family="sans-serif" font-size="14" lengthAdjust="spacing" textLength="338.5156" x="234" y="171.1895">void SetOperationMode(sdv::EOperationMode eMode)</text><ellipse cx="225" cy="184.5703" fill="#84BE84" rx="3" ry="3" style="stroke:#038048;stroke-width:1;"/><text fill="#000000" font-family="sans-serif" font-size="14" lengthAdjust="spacing" textLength="101.165" x="234" y="188.7988">void Shutdown()</text><ellipse cx="225" cy="202.1797" fill="#84BE84" rx="3" ry="3" style="stroke:#038048;stroke-width:1;"/><text fill="#000000" font-family="sans-serif" font-size="14" lengthAdjust="spacing" textLength="801.541" x="234" y="206.4082">void RegisterCurrentLongitudeEvent(vss::Vehicle::Position::CurrentLongitudeDevice::IVSS_WriteCurrentLongitude_Event* event)</text><ellipse cx="225" cy="219.7891" fill="#84BE84" rx="3" ry="3" style="stroke:#038048;stroke-width:1;"/><text fill="#000000" font-family="sans-serif" font-size="14" lengthAdjust="spacing" textLength="813.9893" x="234" y="224.0176">void UnregisterCurrentLongitudeEvent(vss::Vehicle::Position::CurrentLongitudeDevice::IVSS_WriteCurrentLongitude_Event* event)</text><rect fill="#F24D5C" height="6" style="stroke:#C82930;stroke-width:1;" width="6" x="222" y="234.3984"/><text fill="#000000" font-family="sans-serif" font-size="14" lengthAdjust="spacing" textLength="406.1914" x="234" y="241.627">void ExecuteAllCallBacksForFCurrentLongitude(sdv::any_t value)</text></g><!--link CVehicleDeviceCurrentLongitude to CSdvObject--><g class="link" data-entity-1="CVehicleDeviceCurrentLongitude" data-entity-2="CSdvObject" data-source-line="39" data-uid="lnk11" id="link_CVehicleDeviceCurrentLongitude_CSdvObject"><path codeLine="39" d="M510.01,249.16 C436.63,320.28 359.9058,394.6331 301.9058,450.8431" fill="none" id="CVehicleDeviceCurrentLongitude-to-CSdvObject" style="stroke:#181818;stroke-width:1;"/><polygon fill="none" points="288.98,463.37,306.0815,455.1517,297.7302,446.5345,288.98,463.37" style="stroke:#181818;stroke-width:1;"/><text fill="#000000" font-family="sans-serif" font-size="13" lengthAdjust="spacing" textLength="42.6309" x="468" y="293.4951">Inherits</text></g><!--link CVehicleDeviceCurrentLongitude to IObjectControl--><g class="link" data-entity-1="CVehicleDeviceCurrentLongitude" data-entity-2="IObjectControl" data-source-line="40" data-uid="lnk12" id="link_CVehicleDeviceCurrentLongitude_IObjectControl"><path codeLine="40" d="M634,249.16 C634,320.28 634,389.16 634,445.37" fill="none" id="CVehicleDeviceCurrentLongitude-to-IObjectControl" style="stroke:#181818;stroke-width:1;stroke-dasharray:7,7;"/><polygon fill="none" points="634,463.37,640,445.37,628,445.37,634,463.37" style="stroke:#181818;stroke-width:1;"/><text fill="#000000" font-family="sans-serif" font-size="13" lengthAdjust="spacing" textLength="67.1899" x="635" y="293.4951">Implements</text></g><!--link CVehicleDeviceCurrentLongitude to IVSS_CurrentLongitude--><g class="link" data-entity-1="CVehicleDeviceCurrentLongitude" data-entity-2="IVSS_CurrentLongitude" data-source-line="41" data-uid="lnk13" id="link_CVehicleDeviceCurrentLongitude_IVSS_CurrentLongitude"><path codeLine="41" d="M803.91,249.16 C915.62,328.16 1040.154,416.2363 1116.874,470.4963" fill="none" id="CVehicleDeviceCurrentLongitude-to-IVSS_CurrentLongitude" style="stroke:#181818;stroke-width:1;stroke-dasharray:7,7;"/><polygon fill="none" points="1131.57,480.89,1120.3386,465.5977,1113.4095,475.395,1131.57,480.89" style="stroke:#181818;stroke-width:1;"/><text fill="#000000" font-family="sans-serif" font-size="13" lengthAdjust="spacing" textLength="67.1899" x="862" y="293.4951">Implements</text></g><!--SRC=[nLN1ZjCm4BttA-Q4Kb3tZAogqf9sKIIM8YAMO-KwqzRWsCMUX8Mb_uxjf29Dkzs2LkAInCwyzyOlCnDmIE1mooqdOu6n0GZ5dOFq3ZTIA9nYBGMcbRMewPtHQqbLWGDu6030gzh80Z8jIN8bVs8YZ7QUhwWPgruxibAlNu1PVa51gT4hkHv6M0oOpUD-Jfmg1s-nVKg645d-yET8yotw1ANHjwR0f8Ltzm33TTW1RIegp7UTTFO-ubewGji_pQpsgwHsZh7sr8nzC4u6SiRwqOqZZ6LtURxuR2KTkRE8X2y1mwsZ_qdR_vR1A6OmkqTH4LuhbNAbtd3nrTqOUzE7Dmvp_MD1K7DLDSQEugumrakdkLnhhg1ShFhWvaq4b1NnfK9mL33c5tX_2d0RNeHybY6VHYa0V6cEdzsIoQaCJeZxTYYb61zNQY1myMa0ky6-NM9ScXTr4zhsnqC8b6BNLhp3RnLgWUE31fc4say3oxMItA7B8wWft1x37XCWKrpnIb4Z-9wNU1gtD4P1vdAFKaX6ds4_ar-ZCiKjwiA7o6wMmOLC-wfUSO6D4zbyt_DaZTgxmPUUaGlQmKLpmxbvVt9qA2uO7tt1eq7ow0mvGdQcoU5n_wb07ncdVTNpy-flkh_F_DGakfmxk77-Nm6ZqQz9lq60UGytw1NSa_Yhgpt-iAm2HxbLMFhe2rcUvMiTwlu6]--></g></svg>