<svg xmlns="http://www.w3.org/2000/svg" xmlns:xlink="http://www.w3.org/1999/xlink" contentStyleType="text/css" data-diagram-type="CLASS" height="810px" preserveAspectRatio="none" style="width:1470px;height:810px;background:#F8FAFC;" version="1.1" viewBox="0 0 1470 810" width="1470px" zoomAndPan="magnify"><defs/><g><rect fill="#F8FAFC" height="810" style="stroke:none;stroke-width:1;" width="1470" x="0" y="0"/><!--cluster wiper--><g class="cluster" data-entity="wiper" data-source-line="28" data-uid="ent0002" id="cluster_wiper"><rect fill="#F0F9FF" height="181" rx="2.5" ry="2.5" style="stroke:#2563EB;stroke-width:1.5;" width="248" x="7" y="457.5"/><text fill="#111827" font-family="sans-serif" font-size="14" font-weight="bold" lengthAdjust="spacing" textLength="36.5654" x="112.7173" y="474.0332">wiper</text></g><!--cluster sdv--><g class="cluster" data-entity="sdv" data-source-line="38" data-uid="ent0006" id="cluster_sdv"><rect fill="#F0F9FF" height="403" rx="2.5" ry="2.5" style="stroke:#2563EB;stroke-width:1.5;" width="1100" x="279" y="401"/><text fill="#111827" font-family="sans-serif" font-size="14" font-weight="bold" lengthAdjust="spacing" textLength="24.124" x="816.938" y="417.5332">sdv</text></g><!--cluster app--><g class="cluster" data-entity="app" data-source-line="37" data-uid="ent0004" id="cluster_app"><rect fill="#F0F9FF" height="206" rx="2.5" ry="2.5" style="stroke:#2563EB;stroke-width:1.5;" width="514" x="303" y="445"/><text fill="#111827" font-family="sans-serif" font-size="14" font-weight="bold" lengthAdjust="spacing" textLength="24.8896" x="547.5552" y="461.5332">app</text></g><!--cluster core--><g class="cluster" data-entity="core" data-source-line="48" data-uid="ent0007" id="cluster_core"><rect fill="#F0F9FF" height="308.5" rx="2.5" ry="2.5" style="stroke:#2563EB;stroke-width:1.5;" width="514" x="841" y="471.5"/><text fill="#111827" font-family="sans-serif" font-size="14" font-weight="bold" lengthAdjust="spacing" textLength="29.5723" x="1083.2139" y="488.0332">core</text></g><!--class SignalIdentifiers--><g class="entity" data-entity="SignalIdentifiers" data-source-line="29" data-uid="ent0003" id="entity_SignalIdentifiers"><rect fill="#EFF6FF" height="129.1406" rx="2.5" ry="2.5" style="stroke:#2563EB;stroke-width:0.5;" width="214.6787" x="23.5" y="493.5"/><ellipse cx="76.7827" cy="514.8516" fill="#ADD1B2" rx="11" ry="11" style="stroke:#181818;stroke-width:1;"/><path d="M79.5483,510.7266 Q79.7046,510.5078 79.8921,510.3984 Q80.0796,510.2891 80.2983,510.2891 Q80.6733,510.2891 80.9077,510.5469 Q81.1421,510.8047 81.1421,511.4141 L81.1421,512.8672 Q81.1421,513.4766 80.9077,513.7422 Q80.6733,514.0078 80.2983,514.0078 Q79.9546,514.0078 79.7515,513.8047 Q79.5483,513.6172 79.439,513.1016 Q79.3921,512.7422 79.2046,512.5547 Q78.8765,512.1797 78.2671,511.9609 Q77.6577,511.7422 77.0327,511.7422 Q76.2671,511.7422 75.6343,512.0703 Q75.0015,512.3984 74.5093,513.1484 Q74.0171,513.8984 74.0171,514.9297 L74.0171,516.0234 Q74.0171,517.2578 74.9077,518.0781 Q75.7983,518.8984 77.3921,518.8984 Q78.3296,518.8984 78.9858,518.6484 Q79.3765,518.4922 79.7983,518.0547 Q80.064,517.7891 80.2124,517.7109 Q80.3608,517.6328 80.564,517.6328 Q80.8921,517.6328 81.1499,517.8906 Q81.4077,518.1484 81.4077,518.4922 Q81.4077,518.8359 81.064,519.2422 Q80.564,519.8203 79.7671,520.1484 Q78.689,520.6016 77.3921,520.6016 Q75.8765,520.6016 74.6733,519.9766 Q73.689,519.4766 73.0015,518.4063 Q72.314,517.3359 72.314,516.0547 L72.314,514.8984 Q72.314,513.5703 72.9312,512.4219 Q73.5483,511.2734 74.6421,510.6563 Q75.7358,510.0391 76.9702,510.0391 Q77.7046,510.0391 78.353,510.2031 Q79.0015,510.3672 79.5483,510.7266 Z " fill="#000000"/><text fill="#000000" font-family="sans-serif" font-size="12" font-style="italic" lengthAdjust="spacing" textLength="56.0391" x="119.0698" y="510.957">&#171;external&#187;</text><text fill="#111827" font-family="sans-serif" font-size="14" lengthAdjust="spacing" textLength="99.6133" x="97.2827" y="528.127">SignalIdentifiers</text><line style="stroke:#2563EB;stroke-width:0.5;" x1="24.5" x2="237.1787" y1="536.2031" y2="536.2031"/><text fill="#000000" font-family="sans-serif" font-size="14" lengthAdjust="spacing" textLength="180.1475" x="29.5" y="554.7363">+dsRainDetected : std::string</text><text fill="#000000" font-family="sans-serif" font-size="14" lengthAdjust="spacing" textLength="166.8994" x="29.5" y="572.3457">+dsWiperMode : std::string</text><text fill="#000000" font-family="sans-serif" font-size="14" lengthAdjust="spacing" textLength="202.6787" x="29.5" y="589.9551">+dsFrontWiperActive : std::string</text><text fill="#000000" font-family="sans-serif" font-size="14" lengthAdjust="spacing" textLength="200.3477" x="29.5" y="607.5645">+dsRearWiperActive : std::string</text><line style="stroke:#2563EB;stroke-width:0.5;" x1="24.5" x2="237.1787" y1="614.6406" y2="614.6406"/></g><!--class CAppControl--><g class="entity" data-entity="CAppControl" data-source-line="38" data-uid="ent0005" id="entity_CAppControl"><rect fill="#EFF6FF" height="153.6563" rx="2.5" ry="2.5" style="stroke:#2563EB;stroke-width:0.5;" width="482.3193" x="319" y="481"/><ellipse cx="515.834" cy="497" fill="#ADD1B2" rx="11" ry="11" style="stroke:#181818;stroke-width:1;"/><path d="M518.5996,492.875 Q518.7559,492.6563 518.9434,492.5469 Q519.1309,492.4375 519.3496,492.4375 Q519.7246,492.4375 519.959,492.6953 Q520.1934,492.9531 520.1934,493.5625 L520.1934,495.0156 Q520.1934,495.625 519.959,495.8906 Q519.7246,496.1563 519.3496,496.1563 Q519.0059,496.1563 518.8027,495.9531 Q518.5996,495.7656 518.4902,495.25 Q518.4434,494.8906 518.2559,494.7031 Q517.9277,494.3281 517.3184,494.1094 Q516.709,493.8906 516.084,493.8906 Q515.3184,493.8906 514.6855,494.2188 Q514.0527,494.5469 513.5605,495.2969 Q513.0684,496.0469 513.0684,497.0781 L513.0684,498.1719 Q513.0684,499.4063 513.959,500.2266 Q514.8496,501.0469 516.4434,501.0469 Q517.3809,501.0469 518.0371,500.7969 Q518.4277,500.6406 518.8496,500.2031 Q519.1152,499.9375 519.2637,499.8594 Q519.4121,499.7813 519.6152,499.7813 Q519.9434,499.7813 520.2012,500.0391 Q520.459,500.2969 520.459,500.6406 Q520.459,500.9844 520.1152,501.3906 Q519.6152,501.9688 518.8184,502.2969 Q517.7402,502.75 516.4434,502.75 Q514.9277,502.75 513.7246,502.125 Q512.7402,501.625 512.0527,500.5547 Q511.3652,499.4844 511.3652,498.2031 L511.3652,497.0469 Q511.3652,495.7188 511.9824,494.5703 Q512.5996,493.4219 513.6934,492.8047 Q514.7871,492.1875 516.0215,492.1875 Q516.7559,492.1875 517.4043,492.3516 Q518.0527,492.5156 518.5996,492.875 Z " fill="#000000"/><text fill="#111827" font-family="sans-serif" font-size="14" lengthAdjust="spacing" textLength="80.1514" x="536.334" y="502.7285">CAppControl</text><line style="stroke:#2563EB;stroke-width:0.5;" x1="320" x2="800.3193" y1="513" y2="513"/><line style="stroke:#2563EB;stroke-width:0.5;" x1="320" x2="800.3193" y1="521" y2="521"/><text fill="#000000" font-family="sans-serif" font-size="14" lengthAdjust="spacing" textLength="263.3955" x="325" y="539.5332">+bool Startup(const std::string&amp; rssConfig)</text><text fill="#000000" font-family="sans-serif" font-size="14" lengthAdjust="spacing" textLength="143.5752" x="325" y="557.1426">+void SetConfigMode()</text><text fill="#000000" font-family="sans-serif" font-size="14" lengthAdjust="spacing" textLength="155.2578" x="325" y="574.752">+void SetRunningMode()</text><text fill="#000000" font-family="sans-serif" font-size="14" lengthAdjust="spacing" textLength="109.3408" x="325" y="592.3613">+void Shutdown()</text><text fill="#000000" font-family="sans-serif" font-size="14" lengthAdjust="spacing" textLength="469.6084" x="325" y="609.9707">+core::EConfigProcessResult LoadConfig(const sdv::u8string&amp; ssFilename)</text><text fill="#000000" font-family="sans-serif" font-size="14" lengthAdjust="spacing" text-decoration="underline" textLength="470.3193" x="325" y="627.5801">+void SetFrameworkRuntimeDirectory(const std::filesystem::path&amp; rpathDir)</text></g><!--class CDispatchService--><g class="entity" data-entity="CDispatchService" data-source-line="49" data-uid="ent0008" id="entity_CDispatchService"><rect fill="#EFF6FF" height="100.8281" rx="2.5" ry="2.5" style="stroke:#2563EB;stroke-width:0.5;" width="481.5811" x="857" y="507.5"/><ellipse cx="1037.9097" cy="523.5" fill="#ADD1B2" rx="11" ry="11" style="stroke:#181818;stroke-width:1;"/><path d="M1040.6753,519.375 Q1040.8315,519.1563 1041.019,519.0469 Q1041.2065,518.9375 1041.4253,518.9375 Q1041.8003,518.9375 1042.0347,519.1953 Q1042.269,519.4531 1042.269,520.0625 L1042.269,521.5156 Q1042.269,522.125 1042.0347,522.3906 Q1041.8003,522.6563 1041.4253,522.6563 Q1041.0815,522.6563 1040.8784,522.4531 Q1040.6753,522.2656 1040.5659,521.75 Q1040.519,521.3906 1040.3315,521.2031 Q1040.0034,520.8281 1039.394,520.6094 Q1038.7847,520.3906 1038.1597,520.3906 Q1037.394,520.3906 1036.7612,520.7188 Q1036.1284,521.0469 1035.6362,521.7969 Q1035.144,522.5469 1035.144,523.5781 L1035.144,524.6719 Q1035.144,525.9063 1036.0347,526.7266 Q1036.9253,527.5469 1038.519,527.5469 Q1039.4565,527.5469 1040.1128,527.2969 Q1040.5034,527.1406 1040.9253,526.7031 Q1041.1909,526.4375 1041.3394,526.3594 Q1041.4878,526.2813 1041.6909,526.2813 Q1042.019,526.2813 1042.2769,526.5391 Q1042.5347,526.7969 1042.5347,527.1406 Q1042.5347,527.4844 1042.1909,527.8906 Q1041.6909,528.4688 1040.894,528.7969 Q1039.8159,529.25 1038.519,529.25 Q1037.0034,529.25 1035.8003,528.625 Q1034.8159,528.125 1034.1284,527.0547 Q1033.4409,525.9844 1033.4409,524.7031 L1033.4409,523.5469 Q1033.4409,522.2188 1034.0581,521.0703 Q1034.6753,519.9219 1035.769,519.3047 Q1036.8628,518.6875 1038.0972,518.6875 Q1038.8315,518.6875 1039.48,518.8516 Q1040.1284,519.0156 1040.6753,519.375 Z " fill="#000000"/><text fill="#111827" font-family="sans-serif" font-size="14" lengthAdjust="spacing" textLength="111.2617" x="1058.4097" y="529.2285">CDispatchService</text><line style="stroke:#2563EB;stroke-width:0.5;" x1="858" x2="1337.5811" y1="539.5" y2="539.5"/><line style="stroke:#2563EB;stroke-width:0.5;" x1="858" x2="1337.5811" y1="547.5" y2="547.5"/><text fill="#000000" font-family="sans-serif" font-size="14" lengthAdjust="spacing" textLength="373.8848" x="863" y="566.0332">+CSignal RegisterRxSignal(const u8string&amp; rssSignalName)</text><text fill="#000000" font-family="sans-serif" font-size="14" lengthAdjust="spacing" textLength="469.5811" x="863" y="583.6426">+CSignal RegisterTxSignal(const u8string&amp; rssSignalName, TType tDefVal)</text><text fill="#000000" font-family="sans-serif" font-size="14" lengthAdjust="spacing" textLength="394.9531" x="863" y="601.252">+sequence&lt;SSignalRegistration&gt; GetRegisteredSignals() const</text></g><!--class CSignal--><g class="entity" data-entity="CSignal" data-source-line="55" data-uid="ent0009" id="entity_CSignal"><rect fill="#EFF6FF" height="65.6094" rx="2.5" ry="2.5" style="stroke:#2563EB;stroke-width:0.5;" width="95.6445" x="1147" y="698"/><ellipse cx="1168.5777" cy="714" fill="#ADD1B2" rx="11" ry="11" style="stroke:#181818;stroke-width:1;"/><path d="M1171.3434,709.875 Q1171.4996,709.6563 1171.6871,709.5469 Q1171.8746,709.4375 1172.0934,709.4375 Q1172.4684,709.4375 1172.7027,709.6953 Q1172.9371,709.9531 1172.9371,710.5625 L1172.9371,712.0156 Q1172.9371,712.625 1172.7027,712.8906 Q1172.4684,713.1563 1172.0934,713.1563 Q1171.7496,713.1563 1171.5465,712.9531 Q1171.3434,712.7656 1171.234,712.25 Q1171.1871,711.8906 1170.9996,711.7031 Q1170.6715,711.3281 1170.0621,711.1094 Q1169.4527,710.8906 1168.8277,710.8906 Q1168.0621,710.8906 1167.4293,711.2188 Q1166.7965,711.5469 1166.3043,712.2969 Q1165.8121,713.0469 1165.8121,714.0781 L1165.8121,715.1719 Q1165.8121,716.4063 1166.7027,717.2266 Q1167.5934,718.0469 1169.1871,718.0469 Q1170.1246,718.0469 1170.7809,717.7969 Q1171.1715,717.6406 1171.5934,717.2031 Q1171.859,716.9375 1172.0074,716.8594 Q1172.1559,716.7813 1172.359,716.7813 Q1172.6871,716.7813 1172.9449,717.0391 Q1173.2027,717.2969 1173.2027,717.6406 Q1173.2027,717.9844 1172.859,718.3906 Q1172.359,718.9688 1171.5621,719.2969 Q1170.484,719.75 1169.1871,719.75 Q1167.6715,719.75 1166.4684,719.125 Q1165.484,718.625 1164.7965,717.5547 Q1164.109,716.4844 1164.109,715.2031 L1164.109,714.0469 Q1164.109,712.7188 1164.7262,711.5703 Q1165.3434,710.4219 1166.4371,709.8047 Q1167.5309,709.1875 1168.7652,709.1875 Q1169.4996,709.1875 1170.148,709.3516 Q1170.7965,709.5156 1171.3434,709.875 Z " fill="#000000"/><text fill="#111827" font-family="sans-serif" font-size="14" lengthAdjust="spacing" textLength="49.0273" x="1184.0395" y="719.7285">CSignal</text><line style="stroke:#2563EB;stroke-width:0.5;" x1="1148" x2="1241.6445" y1="730" y2="730"/><line style="stroke:#2563EB;stroke-width:0.5;" x1="1148" x2="1241.6445" y1="738" y2="738"/><text fill="#000000" font-family="sans-serif" font-size="14" lengthAdjust="spacing" textLength="83.6445" x="1153" y="756.5332">+void Reset()</text></g><!--class CWiperControl--><g class="entity" data-entity="CWiperControl" data-source-line="60" data-uid="ent0010" id="entity_CWiperControl"><rect fill="#EFF6FF" height="329.75" rx="2.5" ry="2.5" style="stroke:#2563EB;stroke-width:0.5;" width="534.9014" x="628.5" y="7"/><ellipse cx="845.8008" cy="23" fill="#ADD1B2" rx="11" ry="11" style="stroke:#181818;stroke-width:1;"/><path d="M848.5664,18.875 Q848.7227,18.6563 848.9102,18.5469 Q849.0977,18.4375 849.3164,18.4375 Q849.6914,18.4375 849.9258,18.6953 Q850.1602,18.9531 850.1602,19.5625 L850.1602,21.0156 Q850.1602,21.625 849.9258,21.8906 Q849.6914,22.1563 849.3164,22.1563 Q848.9727,22.1563 848.7695,21.9531 Q848.5664,21.7656 848.457,21.25 Q848.4102,20.8906 848.2227,20.7031 Q847.8945,20.3281 847.2852,20.1094 Q846.6758,19.8906 846.0508,19.8906 Q845.2852,19.8906 844.6523,20.2188 Q844.0195,20.5469 843.5273,21.2969 Q843.0352,22.0469 843.0352,23.0781 L843.0352,24.1719 Q843.0352,25.4063 843.9258,26.2266 Q844.8164,27.0469 846.4102,27.0469 Q847.3477,27.0469 848.0039,26.7969 Q848.3945,26.6406 848.8164,26.2031 Q849.082,25.9375 849.2305,25.8594 Q849.3789,25.7813 849.582,25.7813 Q849.9102,25.7813 850.168,26.0391 Q850.4258,26.2969 850.4258,26.6406 Q850.4258,26.9844 850.082,27.3906 Q849.582,27.9688 848.7852,28.2969 Q847.707,28.75 846.4102,28.75 Q844.8945,28.75 843.6914,28.125 Q842.707,27.625 842.0195,26.5547 Q841.332,25.4844 841.332,24.2031 L841.332,23.0469 Q841.332,21.7188 841.9492,20.5703 Q842.5664,19.4219 843.6602,18.8047 Q844.7539,18.1875 845.9883,18.1875 Q846.7227,18.1875 847.3711,18.3516 Q848.0195,18.5156 848.5664,18.875 Z " fill="#000000"/><text fill="#111827" font-family="sans-serif" font-size="14" lengthAdjust="spacing" textLength="91.7998" x="866.3008" y="28.7285">CWiperControl</text><line style="stroke:#2563EB;stroke-width:0.5;" x1="629.5" x2="1162.4014" y1="39" y2="39"/><text fill="#000000" font-family="sans-serif" font-size="14" lengthAdjust="spacing" textLength="234.2334" x="634.5" y="57.5332">-sdv::app::CAppControl m_appcontrol</text><text fill="#000000" font-family="sans-serif" font-size="14" lengthAdjust="spacing" textLength="255.9854" x="634.5" y="75.1426">-sdv::core::CDispatchService m_dispatch</text><text fill="#000000" font-family="sans-serif" font-size="14" lengthAdjust="spacing" textLength="120.6201" x="634.5" y="92.752">-bool m_bInitialized</text><text fill="#000000" font-family="sans-serif" font-size="14" lengthAdjust="spacing" textLength="263.0127" x="634.5" y="110.3613">-sdv::core::CSignal m_signalRainDetected</text><text fill="#000000" font-family="sans-serif" font-size="14" lengthAdjust="spacing" textLength="249.7646" x="634.5" y="127.9707">-sdv::core::CSignal m_signalWiperMode</text><text fill="#000000" font-family="sans-serif" font-size="14" lengthAdjust="spacing" textLength="285.5439" x="634.5" y="145.5801">-sdv::core::CSignal m_signalFrontWiperActive</text><text fill="#000000" font-family="sans-serif" font-size="14" lengthAdjust="spacing" textLength="283.2129" x="634.5" y="163.1895">-sdv::core::CSignal m_signalRearWiperActive</text><line style="stroke:#2563EB;stroke-width:0.5;" x1="629.5" x2="1162.4014" y1="170.2656" y2="170.2656"/><text fill="#000000" font-family="sans-serif" font-size="14" lengthAdjust="spacing" textLength="240.085" x="634.5" y="188.7988">+bool Initialize(uint32_t exampleMode)</text><text fill="#000000" font-family="sans-serif" font-size="14" lengthAdjust="spacing" textLength="155.2578" x="634.5" y="206.4082">+void SetRunningMode()</text><text fill="#000000" font-family="sans-serif" font-size="14" lengthAdjust="spacing" textLength="109.3408" x="634.5" y="224.0176">+void Shutdown()</text><text fill="#000000" font-family="sans-serif" font-size="14" lengthAdjust="spacing" textLength="278.9814" x="634.5" y="241.627">+void RunUntilBreak(uint32_t exampleMode)</text><text fill="#000000" font-family="sans-serif" font-size="14" lengthAdjust="spacing" textLength="253.6338" x="634.5" y="259.2363">-bool IsSDVFrameworkEnvironmentSet()</text><text fill="#000000" font-family="sans-serif" font-size="14" lengthAdjust="spacing" textLength="522.9014" x="634.5" y="276.8457">-bool LoadConfigFile(const std::string&amp; inputMsg, const std::string&amp; configFileName)</text><text fill="#000000" font-family="sans-serif" font-size="14" lengthAdjust="spacing" textLength="142.3926" x="634.5" y="294.4551">-bool RegisterSignals()</text><text fill="#000000" font-family="sans-serif" font-size="14" lengthAdjust="spacing" textLength="85.5791" x="634.5" y="312.0645">-bool KeyHit()</text><text fill="#000000" font-family="sans-serif" font-size="14" lengthAdjust="spacing" textLength="98.0205" x="634.5" y="329.6738">-char GetChar()</text></g><!--reverse link CWiperControl to CAppControl--><g class="link" data-entity-1="CWiperControl" data-entity-2="CAppControl" data-source-line="79" data-uid="lnk11" id="link_CWiperControl_CAppControl"><path codeLine="79" d="M744.3881,346.271 C700.7181,396.181 662.71,439.61 626.71,480.76" fill="none" id="CWiperControl-backto-CAppControl" style="stroke:#2563EB;stroke-width:1;"/><polygon fill="#2563EB" points="752.29,337.24,745.3287,339.1215,744.3881,346.271,751.3494,344.3895,752.29,337.24" style="stroke:#2563EB;stroke-width:1;"/><text fill="#000000" font-family="sans-serif" font-size="13" lengthAdjust="spacing" textLength="78.7681" x="718" y="381.4951">m_appcontrol</text></g><!--reverse link CWiperControl to CDispatchService--><g class="link" data-entity-1="CWiperControl" data-entity-2="CDispatchService" data-source-line="80" data-uid="lnk12" id="link_CWiperControl_CDispatchService"><path codeLine="80" d="M987.9864,347.8604 C1020.3464,409.3804 1049.16,464.16 1071.94,507.47" fill="none" id="CWiperControl-backto-CDispatchService" style="stroke:#2563EB;stroke-width:1;"/><polygon fill="#2563EB" points="982.4,337.24,981.6531,344.4123,987.9864,347.8604,988.7333,340.6881,982.4,337.24" style="stroke:#2563EB;stroke-width:1;"/><text fill="#000000" font-family="sans-serif" font-size="13" lengthAdjust="spacing" textLength="66.479" x="1004" y="381.4951">m_dispatch</text></g><!--reverse link CWiperControl to CSignal--><g class="link" data-entity-1="CWiperControl" data-entity-2="CSignal" data-source-line="81" data-uid="lnk13" id="link_CWiperControl_CSignal"><path codeLine="81" d="M1174.6553,246.2965 C1250.1453,279.2965 1312.7,322.78 1357,393 C1420.07,492.99 1421.68,560.04 1357,659 C1331.97,697.3 1281.2,715.07 1243.13,723.23" fill="none" id="CWiperControl-backto-CSignal" style="stroke:#2563EB;stroke-width:1;"/><polygon fill="none" points="1163.66,241.49,1167.5555,247.5584,1174.6553,246.2965,1170.7598,240.2282,1163.66,241.49" style="stroke:#2563EB;stroke-width:1;"/><text fill="#000000" font-family="sans-serif" font-size="13" lengthAdjust="spacing" textLength="57.0845" x="1405" y="563.4951">m_signal*</text></g><!--link CWiperControl to SignalIdentifiers--><g class="link" data-entity-1="CWiperControl" data-entity-2="SignalIdentifiers" data-source-line="82" data-uid="lnk14" id="link_CWiperControl_SignalIdentifiers"><path codeLine="82" d="M628.46,246.56 C522.59,282.1 402.65,330.75 303,393 C259.44,420.22 221.6761,455.3845 190.1561,488.8145" fill="none" id="CWiperControl-to-SignalIdentifiers" style="stroke:#2563EB;stroke-width:1;stroke-dasharray:7,7;"/><polygon fill="#2563EB" points="186.04,493.18,195.1245,489.3758,189.4701,489.5421,189.3038,483.8877,186.04,493.18" style="stroke:#2563EB;stroke-width:1;"/><text fill="#000000" font-family="sans-serif" font-size="13" lengthAdjust="spacing" textLength="27.46" x="348" y="381.4951">uses</text></g><!--reverse link CDispatchService to CSignal--><g class="link" data-entity-1="CDispatchService" data-entity-2="CSignal" data-source-line="83" data-uid="lnk15" id="link_CDispatchService_CSignal"><path codeLine="83" d="M1132.2395,619.3583 C1148.5095,648.0483 1162.55,672.8 1176.75,697.83" fill="none" id="CDispatchService-backto-CSignal" style="stroke:#2563EB;stroke-width:1;"/><polygon fill="#2563EB" points="1126.32,608.92,1125.8003,616.1124,1132.2395,619.3583,1132.7592,612.166,1126.32,608.92" style="stroke:#2563EB;stroke-width:1;"/></g><!--SRC=[dLLjJzim4FxUNs5fqbGO8CesnYnKgM_PqCOqDOnzhDpacbfDxCnsMZh4Vz-bTj8qJM7YKv9xUVpSStUE1aCqf4mn8nMXjDNI2oxoxuHCMR28bCn4E90nUjzuLrxF6rGYz9o5SiL5H6Oirb3n137JsfF2-FmlaCw7YYj5M1P1izDm4rTSbwqw9dbi4TAlCnjvtgNdvHwfGb3EUl7nylseZzOSqDawdSxLnQVMKmMN2mDgnW9enXxsHprlz4fiLsmpidVkVNurwvvIShMRKfEgPupYqyp0JI35Hi_pVMQ-MST050I6YIY6LgjWlE8fg0rlgxlF8y7Ycn24uJCEIfFhQtX0vT3QxMu22NaNwZ7ZOWW60I4ab6WJKggHY8YAYDyvygqCeTdjAQnx4zCB35yUY1e3Kyy5FQ5OPIqwN5BAqhHIpg2NfWCyICcuu3wL-EuRfaoMjb4oRQgORudI6ZDcF3goyKl9G-A3iSQye7RDCyw4mDHzrpmpk3YYC0PI0QKZ2_HJoG0q5gYps93laeNMNb3AQyck2bAuPJm6mH9mM8_QCCE39rAGyB3Ri99gWMmCJs38ysvBjQxME4CGlTO64afJPkPORVx0sAD6CNF6LJM7N6DyCFT1BRdR92Gpi5D3nX1n15VZ1sjmHs_BG6sjvyUsadhotNybdv2xktKAn0nXTizYXwNXJmOYW6lVHbfClFMu55to1Llb3e7G1kZs4TcSiob_MwZZz5Zf9dOAJBlKoGLkXhCwONQ-RWGtdCMuZUqCBvxt5nD3u84bQGpvcEGe1yUdONWSWqpymjx6VGLiSH3tr1BG_l2-d8cHM7BSjmItsdT5sB3jtENprRGEU95avbP79wJ16PIfHKCjR25pANBf-GRhhzmn2EPCvKqPuDDQYWscjBguoGHDWVqee-moxKraCWcTfJmocKotxGZh0AxJoKJRYQdSQo-4bXVS2t7rc-ub1hjNNZvhkrDsV7fAceMYkr8TI3kW7ArgjvigQwcECIqv7zSIpiwwziz2wVuFXP9CWsuzn-MuyS1_]--></g></svg>