<svg xmlns="http://www.w3.org/2000/svg" xmlns:xlink="http://www.w3.org/1999/xlink" contentStyleType="text/css" data-diagram-type="CLASS" height="795px" preserveAspectRatio="none" style="width:1693px;height:795px;background:#FFFFFF;" version="1.1" viewBox="0 0 1693 795" width="1693px" zoomAndPan="magnify"><defs/><g><!--cluster vss--><g class="cluster" data-entity="vss" data-source-line="16" data-uid="ent0004" id="cluster_vss"><path d="M8.5,295 L32.8584,295 A3.75,3.75 0 0 1 35.3584,297.5 L42.3584,318.6094 L1519.5,318.6094 A2.5,2.5 0 0 1 1522,321.1094 L1522,785.5 A2.5,2.5 0 0 1 1519.5,788 L8.5,788 A2.5,2.5 0 0 1 6,785.5 L6,297.5 A2.5,2.5 0 0 1 8.5,295" fill="none" style="stroke:#000000;stroke-width:1.5;"/><line style="stroke:#000000;stroke-width:1.5;" x1="6" x2="42.3584" y1="318.6094" y2="318.6094"/><text fill="#000000" font-family="sans-serif" font-size="14" font-weight="bold" lengthAdjust="spacing" textLength="23.3584" x="10" y="311.5332">vss</text></g><!--cluster Vehicle--><g class="cluster" data-entity="Vehicle" data-source-line="16" data-uid="ent0005" id="cluster_Vehicle"><path d="M32.5,339 L82.5273,339 A3.75,3.75 0 0 1 85.0273,341.5 L92.0273,362.6094 L1495.5,362.6094 A2.5,2.5 0 0 1 1498,365.1094 L1498,761.5 A2.5,2.5 0 0 1 1495.5,764 L32.5,764 A2.5,2.5 0 0 1 30,761.5 L30,341.5 A2.5,2.5 0 0 1 32.5,339" fill="none" style="stroke:#000000;stroke-width:1.5;"/><line style="stroke:#000000;stroke-width:1.5;" x1="30" x2="92.0273" y1="362.6094" y2="362.6094"/><text fill="#000000" font-family="sans-serif" font-size="14" font-weight="bold" lengthAdjust="spacing" textLength="49.0273" x="34" y="355.5332">Vehicle</text></g><!--cluster Chassis--><g class="cluster" data-entity="Chassis" data-source-line="16" data-uid="ent0006" id="cluster_Chassis"><path d="M56.5,383 L111.1963,383 A3.75,3.75 0 0 1 113.6963,385.5 L120.6963,406.6094 L1471.5,406.6094 A2.5,2.5 0 0 1 1474,409.1094 L1474,737.5 A2.5,2.5 0 0 1 1471.5,740 L56.5,740 A2.5,2.5 0 0 1 54,737.5 L54,385.5 A2.5,2.5 0 0 1 56.5,383" fill="none" style="stroke:#000000;stroke-width:1.5;"/><line style="stroke:#000000;stroke-width:1.5;" x1="54" x2="120.6963" y1="406.6094" y2="406.6094"/><text fill="#000000" font-family="sans-serif" font-size="14" font-weight="bold" lengthAdjust="spacing" textLength="53.6963" x="58" y="399.5332">Chassis</text></g><!--cluster Door--><g class="cluster" data-entity="Door" data-source-line="16" data-uid="ent0007" id="cluster_Door"><path d="M80.5,427 L114.1621,427 A3.75,3.75 0 0 1 116.6621,429.5 L123.6621,450.6094 L1447.5,450.6094 A2.5,2.5 0 0 1 1450,453.1094 L1450,713.5 A2.5,2.5 0 0 1 1447.5,716 L80.5,716 A2.5,2.5 0 0 1 78,713.5 L78,429.5 A2.5,2.5 0 0 1 80.5,427" fill="none" style="stroke:#000000;stroke-width:1.5;"/><line style="stroke:#000000;stroke-width:1.5;" x1="78" x2="123.6621" y1="450.6094" y2="450.6094"/><text fill="#000000" font-family="sans-serif" font-size="14" font-weight="bold" lengthAdjust="spacing" textLength="32.6621" x="82" y="443.5332">Door</text></g><!--cluster Axle01--><g class="cluster" data-entity="Axle01" data-source-line="16" data-uid="ent0008" id="cluster_Axle01"><path d="M104.5,471 L150.6445,471 A3.75,3.75 0 0 1 153.1445,473.5 L160.1445,494.6094 L1423.5,494.6094 A2.5,2.5 0 0 1 1426,497.1094 L1426,689.5 A2.5,2.5 0 0 1 1423.5,692 L104.5,692 A2.5,2.5 0 0 1 102,689.5 L102,473.5 A2.5,2.5 0 0 1 104.5,471" fill="none" style="stroke:#000000;stroke-width:1.5;"/><line style="stroke:#000000;stroke-width:1.5;" x1="102" x2="160.1445" y1="494.6094" y2="494.6094"/><text fill="#000000" font-family="sans-serif" font-size="14" font-weight="bold" lengthAdjust="spacing" textLength="45.1445" x="106" y="487.5332">Axle01</text></g><!--cluster LeftService--><g class="cluster" data-entity="LeftService" data-source-line="16" data-uid="ent0009" id="cluster_LeftService"><path d="M128.5,515 L204.9824,515 A3.75,3.75 0 0 1 207.4824,517.5 L214.4824,538.6094 L1149.5,538.6094 A2.5,2.5 0 0 1 1152,541.1094 L1152,665.5 A2.5,2.5 0 0 1 1149.5,668 L128.5,668 A2.5,2.5 0 0 1 126,665.5 L126,517.5 A2.5,2.5 0 0 1 128.5,515" fill="none" style="stroke:#000000;stroke-width:1.5;"/><line style="stroke:#000000;stroke-width:1.5;" x1="126" x2="214.4824" y1="538.6094" y2="538.6094"/><text fill="#000000" font-family="sans-serif" font-size="14" font-weight="bold" lengthAdjust="spacing" textLength="75.4824" x="130" y="531.5332">LeftService</text></g><!--cluster LeftDevice--><g class="cluster" data-entity="LeftDevice" data-source-line="21" data-uid="ent0011" id="cluster_LeftDevice"><path d="M1178.5,532.5 L1250.3066,532.5 A3.75,3.75 0 0 1 1252.8066,535 L1259.8066,556.1094 L1399.5,556.1094 A2.5,2.5 0 0 1 1402,558.6094 L1402,648 A2.5,2.5 0 0 1 1399.5,650.5 L1178.5,650.5 A2.5,2.5 0 0 1 1176,648 L1176,535 A2.5,2.5 0 0 1 1178.5,532.5" fill="none" style="stroke:#000000;stroke-width:1.5;"/><line style="stroke:#000000;stroke-width:1.5;" x1="1176" x2="1259.8066" y1="556.1094" y2="556.1094"/><text fill="#000000" font-family="sans-serif" font-size="14" font-weight="bold" lengthAdjust="spacing" textLength="70.8066" x="1180" y="549.0332">LeftDevice</text></g><!--cluster sdv--><g class="cluster" data-entity="sdv" data-source-line="38" data-uid="ent0015" id="cluster_sdv"><path d="M1548.5,541.5 L1573.624,541.5 A3.75,3.75 0 0 1 1576.124,544 L1583.124,565.1094 L1683.5,565.1094 A2.5,2.5 0 0 1 1686,567.6094 L1686,639 A2.5,2.5 0 0 1 1683.5,641.5 L1548.5,641.5 A2.5,2.5 0 0 1 1546,639 L1546,544 A2.5,2.5 0 0 1 1548.5,541.5" fill="none" style="stroke:#000000;stroke-width:1.5;"/><line style="stroke:#000000;stroke-width:1.5;" x1="1546" x2="1583.124" y1="565.1094" y2="565.1094"/><text fill="#000000" font-family="sans-serif" font-size="14" font-weight="bold" lengthAdjust="spacing" textLength="24.124" x="1550" y="558.0332">sdv</text></g><!--class IVSS_SetIsOpen_Event--><g class="entity" data-entity="IVSS_SetIsOpen_Event" data-source-line="16" data-uid="ent0003" id="entity_IVSS_SetIsOpen_Event"><rect fill="#F1F1F1" height="65.6094" rx="2.5" ry="2.5" style="stroke:#181818;stroke-width:0.5;" width="196.4473" x="142" y="568.5"/><ellipse cx="163.7592" cy="584.5" fill="#B4A7E5" rx="11" ry="11" style="stroke:#181818;stroke-width:1;"/><path d="M164.7124,581.1406 L164.7124,587.7969 L166.4311,587.7969 Q167.0405,587.7969 167.3061,588.0313 Q167.5717,588.2656 167.5717,588.6563 Q167.5717,589.0313 167.3061,589.2656 Q167.0405,589.5 166.4311,589.5 L161.2905,589.5 Q160.6811,589.5 160.4155,589.2656 Q160.1499,589.0313 160.1499,588.6406 Q160.1499,588.2656 160.4155,588.0313 Q160.6811,587.7969 161.2905,587.7969 L163.0092,587.7969 L163.0092,581.1406 L161.2905,581.1406 Q160.6811,581.1406 160.4155,580.9063 Q160.1499,580.6719 160.1499,580.2813 Q160.1499,579.9063 160.4155,579.6719 Q160.6811,579.4375 161.2905,579.4375 L166.4311,579.4375 Q167.0405,579.4375 167.3061,579.6719 Q167.5717,579.9063 167.5717,580.2813 Q167.5717,580.6719 167.3061,580.9063 Q167.0405,581.1406 166.4311,581.1406 L164.7124,581.1406 Z " fill="#000000"/><text fill="#000000" font-family="sans-serif" font-size="14" font-style="italic" lengthAdjust="spacing" textLength="149.4268" x="179.2613" y="590.2285">IVSS_SetIsOpen_Event</text><line style="stroke:#181818;stroke-width:0.5;" x1="143" x2="337.4473" y1="600.5" y2="600.5"/><line style="stroke:#181818;stroke-width:0.5;" x1="143" x2="337.4473" y1="608.5" y2="608.5"/><text fill="#000000" font-family="sans-serif" font-size="14" font-style="italic" lengthAdjust="spacing" textLength="184.4473" x="148" y="627.0332">void SetIsOpenL1(bool value)</text></g><!--class IVSS_GetIsOpen--><g class="entity" data-entity="IVSS_GetIsOpen" data-source-line="26" data-uid="ent0012" id="entity_IVSS_GetIsOpen"><rect fill="#F1F1F1" height="100.8281" rx="2.5" ry="2.5" style="stroke:#181818;stroke-width:0.5;" width="560.6387" x="373.5" y="551"/><ellipse cx="595.873" cy="567" fill="#B4A7E5" rx="11" ry="11" style="stroke:#181818;stroke-width:1;"/><path d="M596.8262,563.6406 L596.8262,570.2969 L598.5449,570.2969 Q599.1543,570.2969 599.4199,570.5313 Q599.6855,570.7656 599.6855,571.1563 Q599.6855,571.5313 599.4199,571.7656 Q599.1543,572 598.5449,572 L593.4043,572 Q592.7949,572 592.5293,571.7656 Q592.2637,571.5313 592.2637,571.1406 Q592.2637,570.7656 592.5293,570.5313 Q592.7949,570.2969 593.4043,570.2969 L595.123,570.2969 L595.123,563.6406 L593.4043,563.6406 Q592.7949,563.6406 592.5293,563.4063 Q592.2637,563.1719 592.2637,562.7813 Q592.2637,562.4063 592.5293,562.1719 Q592.7949,561.9375 593.4043,561.9375 L598.5449,561.9375 Q599.1543,561.9375 599.4199,562.1719 Q599.6855,562.4063 599.6855,562.7813 Q599.6855,563.1719 599.4199,563.4063 Q599.1543,563.6406 598.5449,563.6406 L596.8262,563.6406 Z " fill="#000000"/><text fill="#000000" font-family="sans-serif" font-size="14" font-style="italic" lengthAdjust="spacing" textLength="107.3926" x="616.373" y="572.7285">IVSS_GetIsOpen</text><line style="stroke:#181818;stroke-width:0.5;" x1="374.5" x2="933.1387" y1="583" y2="583"/><line style="stroke:#181818;stroke-width:0.5;" x1="374.5" x2="933.1387" y1="591" y2="591"/><text fill="#000000" font-family="sans-serif" font-size="14" font-style="italic" lengthAdjust="spacing" textLength="144.7373" x="379.5" y="609.5332">bool GetIsOpen() const</text><text fill="#000000" font-family="sans-serif" font-size="14" font-style="italic" lengthAdjust="spacing" textLength="536.1904" x="379.5" y="627.1426">void RegisterOnSignalChangeOfLeftDoorIsOpen01(IVSS_SetIsOpen_Event* callback)</text><text fill="#000000" font-family="sans-serif" font-size="14" font-style="italic" lengthAdjust="spacing" textLength="548.6387" x="379.5" y="644.752">void UnregisterOnSignalChangeOfLeftDoorIsOpen01(IVSS_SetIsOpen_Event* callback)</text></g><!--class IVSS_SetLock--><g class="entity" data-entity="IVSS_SetLock" data-source-line="33" data-uid="ent0013" id="entity_IVSS_SetLock"><rect fill="#F1F1F1" height="65.6094" rx="2.5" ry="2.5" style="stroke:#181818;stroke-width:0.5;" width="166.0957" x="970" y="568.5"/><ellipse cx="1004.7191" cy="584.5" fill="#B4A7E5" rx="11" ry="11" style="stroke:#181818;stroke-width:1;"/><path d="M1005.6723,581.1406 L1005.6723,587.7969 L1007.391,587.7969 Q1008.0004,587.7969 1008.266,588.0313 Q1008.5316,588.2656 1008.5316,588.6563 Q1008.5316,589.0313 1008.266,589.2656 Q1008.0004,589.5 1007.391,589.5 L1002.2504,589.5 Q1001.641,589.5 1001.3754,589.2656 Q1001.1098,589.0313 1001.1098,588.6406 Q1001.1098,588.2656 1001.3754,588.0313 Q1001.641,587.7969 1002.2504,587.7969 L1003.9691,587.7969 L1003.9691,581.1406 L1002.2504,581.1406 Q1001.641,581.1406 1001.3754,580.9063 Q1001.1098,580.6719 1001.1098,580.2813 Q1001.1098,579.9063 1001.3754,579.6719 Q1001.641,579.4375 1002.2504,579.4375 L1007.391,579.4375 Q1008.0004,579.4375 1008.266,579.6719 Q1008.5316,579.9063 1008.5316,580.2813 Q1008.5316,580.6719 1008.266,580.9063 Q1008.0004,581.1406 1007.391,581.1406 L1005.6723,581.1406 Z " fill="#000000"/><text fill="#000000" font-family="sans-serif" font-size="14" font-style="italic" lengthAdjust="spacing" textLength="90.2754" x="1023.1012" y="590.2285">IVSS_SetLock</text><line style="stroke:#181818;stroke-width:0.5;" x1="971" x2="1135.0957" y1="600.5" y2="600.5"/><line style="stroke:#181818;stroke-width:0.5;" x1="971" x2="1135.0957" y1="608.5" y2="608.5"/><text fill="#000000" font-family="sans-serif" font-size="14" font-style="italic" lengthAdjust="spacing" textLength="154.0957" x="976" y="627.0332">bool SetLock(bool value)</text></g><!--class IVSS_WriteIsOpen_Event--><g class="entity" data-entity="IVSS_WriteIsOpen_Event" data-source-line="21" data-uid="ent0010" id="entity_IVSS_WriteIsOpen_Event"><rect fill="#F1F1F1" height="65.6094" rx="2.5" ry="2.5" style="stroke:#181818;stroke-width:0.5;" width="193.0752" x="1192.5" y="568.5"/><ellipse cx="1207.5" cy="584.5" fill="#B4A7E5" rx="11" ry="11" style="stroke:#181818;stroke-width:1;"/><path d="M1208.4531,581.1406 L1208.4531,587.7969 L1210.1719,587.7969 Q1210.7813,587.7969 1211.0469,588.0313 Q1211.3125,588.2656 1211.3125,588.6563 Q1211.3125,589.0313 1211.0469,589.2656 Q1210.7813,589.5 1210.1719,589.5 L1205.0313,589.5 Q1204.4219,589.5 1204.1563,589.2656 Q1203.8906,589.0313 1203.8906,588.6406 Q1203.8906,588.2656 1204.1563,588.0313 Q1204.4219,587.7969 1205.0313,587.7969 L1206.75,587.7969 L1206.75,581.1406 L1205.0313,581.1406 Q1204.4219,581.1406 1204.1563,580.9063 Q1203.8906,580.6719 1203.8906,580.2813 Q1203.8906,579.9063 1204.1563,579.6719 Q1204.4219,579.4375 1205.0313,579.4375 L1210.1719,579.4375 Q1210.7813,579.4375 1211.0469,579.6719 Q1211.3125,579.9063 1211.3125,580.2813 Q1211.3125,580.6719 1211.0469,580.9063 Q1210.7813,581.1406 1210.1719,581.1406 L1208.4531,581.1406 Z " fill="#000000"/><text fill="#000000" font-family="sans-serif" font-size="14" font-style="italic" lengthAdjust="spacing" textLength="161.0752" x="1221.5" y="590.2285">IVSS_WriteIsOpen_Event</text><line style="stroke:#181818;stroke-width:0.5;" x1="1193.5" x2="1384.5752" y1="600.5" y2="600.5"/><line style="stroke:#181818;stroke-width:0.5;" x1="1193.5" x2="1384.5752" y1="608.5" y2="608.5"/><text fill="#000000" font-family="sans-serif" font-size="14" font-style="italic" lengthAdjust="spacing" textLength="180.5234" x="1198.5" y="627.0332">void WriteIsOpen(bool value)</text></g><!--class CSdvObject--><g class="entity" data-entity="CSdvObject" data-source-line="38" data-uid="ent0014" id="entity_CSdvObject"><rect fill="#F1F1F1" height="48" rx="2.5" ry="2.5" style="stroke:#181818;stroke-width:0.5;" width="106.6963" x="1562.5" y="577.5"/><ellipse cx="1577.5" cy="593.5" fill="#ADD1B2" rx="11" ry="11" style="stroke:#181818;stroke-width:1;"/><path d="M1580.2656,589.375 Q1580.4219,589.1563 1580.6094,589.0469 Q1580.7969,588.9375 1581.0156,588.9375 Q1581.3906,588.9375 1581.625,589.1953 Q1581.8594,589.4531 1581.8594,590.0625 L1581.8594,591.5156 Q1581.8594,592.125 1581.625,592.3906 Q1581.3906,592.6563 1581.0156,592.6563 Q1580.6719,592.6563 1580.4688,592.4531 Q1580.2656,592.2656 1580.1563,591.75 Q1580.1094,591.3906 1579.9219,591.2031 Q1579.5938,590.8281 1578.9844,590.6094 Q1578.375,590.3906 1577.75,590.3906 Q1576.9844,590.3906 1576.3516,590.7188 Q1575.7188,591.0469 1575.2266,591.7969 Q1574.7344,592.5469 1574.7344,593.5781 L1574.7344,594.6719 Q1574.7344,595.9063 1575.625,596.7266 Q1576.5156,597.5469 1578.1094,597.5469 Q1579.0469,597.5469 1579.7031,597.2969 Q1580.0938,597.1406 1580.5156,596.7031 Q1580.7813,596.4375 1580.9297,596.3594 Q1581.0781,596.2813 1581.2813,596.2813 Q1581.6094,596.2813 1581.8672,596.5391 Q1582.125,596.7969 1582.125,597.1406 Q1582.125,597.4844 1581.7813,597.8906 Q1581.2813,598.4688 1580.4844,598.7969 Q1579.4063,599.25 1578.1094,599.25 Q1576.5938,599.25 1575.3906,598.625 Q1574.4063,598.125 1573.7188,597.0547 Q1573.0313,595.9844 1573.0313,594.7031 L1573.0313,593.5469 Q1573.0313,592.2188 1573.6484,591.0703 Q1574.2656,589.9219 1575.3594,589.3047 Q1576.4531,588.6875 1577.6875,588.6875 Q1578.4219,588.6875 1579.0703,588.8516 Q1579.7188,589.0156 1580.2656,589.375 Z " fill="#000000"/><text fill="#000000" font-family="sans-serif" font-size="14" lengthAdjust="spacing" textLength="74.6963" x="1591.5" y="599.2285">CSdvObject</text><line style="stroke:#181818;stroke-width:0.5;" x1="1563.5" x2="1668.1963" y1="609.5" y2="609.5"/><line style="stroke:#181818;stroke-width:0.5;" x1="1563.5" x2="1668.1963" y1="617.5" y2="617.5"/></g><!--class CBasicServiceFrontDoorLeft--><g class="entity" data-entity="CBasicServiceFrontDoorLeft" data-source-line="2" data-uid="ent0002" id="entity_CBasicServiceFrontDoorLeft"><rect fill="#F1F1F1" height="224.0938" rx="2.5" ry="2.5" style="stroke:#181818;stroke-width:0.5;" width="939.5684" x="583" y="7"/><ellipse cx="959.8345" cy="23" fill="#ADD1B2" rx="11" ry="11" style="stroke:#181818;stroke-width:1;"/><path d="M962.6001,18.875 Q962.7563,18.6563 962.9438,18.5469 Q963.1313,18.4375 963.3501,18.4375 Q963.7251,18.4375 963.9595,18.6953 Q964.1938,18.9531 964.1938,19.5625 L964.1938,21.0156 Q964.1938,21.625 963.9595,21.8906 Q963.7251,22.1563 963.3501,22.1563 Q963.0063,22.1563 962.8032,21.9531 Q962.6001,21.7656 962.4907,21.25 Q962.4438,20.8906 962.2563,20.7031 Q961.9282,20.3281 961.3188,20.1094 Q960.7095,19.8906 960.0845,19.8906 Q959.3188,19.8906 958.686,20.2188 Q958.0532,20.5469 957.561,21.2969 Q957.0688,22.0469 957.0688,23.0781 L957.0688,24.1719 Q957.0688,25.4063 957.9595,26.2266 Q958.8501,27.0469 960.4438,27.0469 Q961.3813,27.0469 962.0376,26.7969 Q962.4282,26.6406 962.8501,26.2031 Q963.1157,25.9375 963.2642,25.8594 Q963.4126,25.7813 963.6157,25.7813 Q963.9438,25.7813 964.2017,26.0391 Q964.4595,26.2969 964.4595,26.6406 Q964.4595,26.9844 964.1157,27.3906 Q963.6157,27.9688 962.8188,28.2969 Q961.7407,28.75 960.4438,28.75 Q958.9282,28.75 957.7251,28.125 Q956.7407,27.625 956.0532,26.5547 Q955.3657,25.4844 955.3657,24.2031 L955.3657,23.0469 Q955.3657,21.7188 955.9829,20.5703 Q956.6001,19.4219 957.6938,18.8047 Q958.7876,18.1875 960.022,18.1875 Q960.7563,18.1875 961.4048,18.3516 Q962.0532,18.5156 962.6001,18.875 Z " fill="#000000"/><text fill="#000000" font-family="sans-serif" font-size="14" lengthAdjust="spacing" textLength="177.3994" x="980.3345" y="28.7285">CBasicServiceFrontDoorLeft</text><line style="stroke:#181818;stroke-width:0.5;" x1="584" x2="1521.5684" y1="39" y2="39"/><rect fill="none" height="6" style="stroke:#C82930;stroke-width:1;" width="6" x="591" y="50.3047"/><text fill="#000000" font-family="sans-serif" font-size="14" lengthAdjust="spacing" textLength="159.5371" x="603" y="57.5332">bool m_leftDoorIsOpen01</text><rect fill="none" height="6" style="stroke:#C82930;stroke-width:1;" width="6" x="591" y="67.9141"/><text fill="#000000" font-family="sans-serif" font-size="14" lengthAdjust="spacing" textLength="350.1572" x="603" y="75.1426">mutable std::mutex m_leftDoorIsOpen01MutexCallbacks</text><rect fill="none" height="6" style="stroke:#C82930;stroke-width:1;" width="6" x="591" y="85.5234"/><text fill="#000000" font-family="sans-serif" font-size="14" lengthAdjust="spacing" textLength="716.6865" x="603" y="92.752">std::set&lt;vss::Vehicle::Chassis::Door::Axle01::LeftService::IVSS_SetIsOpen_Event*&gt; m_leftDoorIsOpen01Callbacks</text><rect fill="none" height="6" style="stroke:#C82930;stroke-width:1;" width="6" x="591" y="103.1328"/><text fill="#000000" font-family="sans-serif" font-size="14" lengthAdjust="spacing" textLength="479.3018" x="603" y="110.3613">vss::Vehicle::Chassis::Door::Axle01::LeftDevice::IVSS_WriteLock* m_ptrLock</text><line style="stroke:#181818;stroke-width:0.5;" x1="584" x2="1521.5684" y1="117.4375" y2="117.4375"/><ellipse cx="594" cy="131.7422" fill="#84BE84" rx="3" ry="3" style="stroke:#038048;stroke-width:1;"/><text fill="#000000" font-family="sans-serif" font-size="14" font-style="italic" lengthAdjust="spacing" textLength="184.4473" x="603" y="135.9707">void SetIsOpenL1(bool value)</text><ellipse cx="594" cy="149.3516" fill="#84BE84" rx="3" ry="3" style="stroke:#038048;stroke-width:1;"/><text fill="#000000" font-family="sans-serif" font-size="14" font-style="italic" lengthAdjust="spacing" textLength="144.7373" x="603" y="153.5801">bool GetIsOpen() const</text><ellipse cx="594" cy="166.9609" fill="#84BE84" rx="3" ry="3" style="stroke:#038048;stroke-width:1;"/><text fill="#000000" font-family="sans-serif" font-size="14" font-style="italic" lengthAdjust="spacing" textLength="180.5234" x="603" y="171.1895">void WriteIsOpen(bool value)</text><ellipse cx="594" cy="184.5703" fill="#84BE84" rx="3" ry="3" style="stroke:#038048;stroke-width:1;"/><text fill="#000000" font-family="sans-serif" font-size="14" font-style="italic" lengthAdjust="spacing" textLength="154.0957" x="603" y="188.7988">bool SetLock(bool value)</text><ellipse cx="594" cy="202.1797" fill="#84BE84" rx="3" ry="3" style="stroke:#038048;stroke-width:1;"/><text fill="#000000" font-family="sans-serif" font-size="14" font-style="italic" lengthAdjust="spacing" textLength="901.1201" x="603" y="206.4082">void RegisterOnSignalChangeOfLeftDoorIsOpen01(vss::Vehicle::Chassis::Door::Axle01::LeftService::IVSS_SetIsOpen_Event* callback) override;</text><ellipse cx="594" cy="219.7891" fill="#84BE84" rx="3" ry="3" style="stroke:#038048;stroke-width:1;"/><text fill="#000000" font-family="sans-serif" font-size="14" font-style="italic" lengthAdjust="spacing" textLength="913.5684" x="603" y="224.0176">void UnregisterOnSignalChangeOfLeftDoorIsOpen01(vss::Vehicle::Chassis::Door::Axle01::LeftService::IVSS_SetIsOpen_Event* callback) override;</text></g><!--link CBasicServiceFrontDoorLeft to CSdvObject--><g class="link" data-entity-1="CBasicServiceFrontDoorLeft" data-entity-2="CSdvObject" data-source-line="38" data-uid="lnk16" id="link_CBasicServiceFrontDoorLeft_CSdvObject"><path codeLine="38" d="M1323.12,231.08 C1351.11,247.81 1378.04,266.44 1402,287 C1503.78,374.32 1571.3068,504.6327 1597.8668,561.0827" fill="none" id="CBasicServiceFrontDoorLeft-to-CSdvObject" style="stroke:#181818;stroke-width:1;"/><polygon fill="none" points="1605.53,577.37,1603.2959,558.5283,1592.4377,563.6372,1605.53,577.37" style="stroke:#181818;stroke-width:1;"/><text fill="#000000" font-family="sans-serif" font-size="13" lengthAdjust="spacing" textLength="42.6309" x="1386" y="275.4951">Inherits</text></g><!--link CBasicServiceFrontDoorLeft to IVSS_GetIsOpen--><g class="link" data-entity-1="CBasicServiceFrontDoorLeft" data-entity-2="IVSS_GetIsOpen" data-source-line="39" data-uid="lnk17" id="link_CBasicServiceFrontDoorLeft_IVSS_GetIsOpen"><path codeLine="39" d="M960.71,231.14 C877.04,331.9 769.079,461.9118 706.819,536.8918" fill="none" id="CBasicServiceFrontDoorLeft-to-IVSS_GetIsOpen" style="stroke:#181818;stroke-width:1;stroke-dasharray:7,7;"/><polygon fill="none" points="695.32,550.74,711.435,540.7247,702.2029,533.0588,695.32,550.74" style="stroke:#181818;stroke-width:1;"/><text fill="#000000" font-family="sans-serif" font-size="13" lengthAdjust="spacing" textLength="67.1899" x="936" y="275.4951">Implements</text></g><!--link CBasicServiceFrontDoorLeft to IVSS_SetIsOpen_Event--><g class="link" data-entity-1="CBasicServiceFrontDoorLeft" data-entity-2="IVSS_SetIsOpen_Event" data-source-line="40" data-uid="lnk18" id="link_CBasicServiceFrontDoorLeft_IVSS_SetIsOpen_Event"><path codeLine="40" d="M582.56,198.43 C482.26,222.85 394.8,252.57 356,287 C271.35,362.11 250.0928,486.7736 243.9328,550.4636" fill="none" id="CBasicServiceFrontDoorLeft-to-IVSS_SetIsOpen_Event" style="stroke:#181818;stroke-width:1;stroke-dasharray:7,7;"/><polygon fill="none" points="242.2,568.38,249.905,551.0412,237.9607,549.886,242.2,568.38" style="stroke:#181818;stroke-width:1;"/><text fill="#000000" font-family="sans-serif" font-size="13" lengthAdjust="spacing" textLength="67.1899" x="394" y="275.4951">Implements</text></g><!--link CBasicServiceFrontDoorLeft to IVSS_WriteIsOpen_Event--><g class="link" data-entity-1="CBasicServiceFrontDoorLeft" data-entity-2="IVSS_WriteIsOpen_Event" data-source-line="41" data-uid="lnk19" id="link_CBasicServiceFrontDoorLeft_IVSS_WriteIsOpen_Event"><path codeLine="41" d="M1121.49,231.22 C1132.09,249.64 1142.62,268.7 1152,287 C1203.33,387.17 1247.1243,494.0799 1269.8443,551.5699" fill="none" id="CBasicServiceFrontDoorLeft-to-IVSS_WriteIsOpen_Event" style="stroke:#181818;stroke-width:1;stroke-dasharray:7,7;"/><polygon fill="none" points="1276.46,568.31,1275.4244,549.3646,1264.2643,553.7751,1276.46,568.31" style="stroke:#181818;stroke-width:1;"/><text fill="#000000" font-family="sans-serif" font-size="13" lengthAdjust="spacing" textLength="67.1899" x="1148" y="275.4951">Implements</text></g><!--link CBasicServiceFrontDoorLeft to IVSS_SetLock--><g class="link" data-entity-1="CBasicServiceFrontDoorLeft" data-entity-2="IVSS_SetLock" data-source-line="42" data-uid="lnk20" id="link_CBasicServiceFrontDoorLeft_IVSS_SetLock"><path codeLine="42" d="M1053,231.14 C1053,340.5 1053,482.61 1053,550.35" fill="none" id="CBasicServiceFrontDoorLeft-to-IVSS_SetLock" style="stroke:#181818;stroke-width:1;stroke-dasharray:7,7;"/><polygon fill="none" points="1053,568.35,1059,550.35,1047,550.35,1053,568.35" style="stroke:#181818;stroke-width:1;"/><text fill="#000000" font-family="sans-serif" font-size="13" lengthAdjust="spacing" textLength="67.1899" x="1054" y="275.4951">Implements</text></g><!--SRC=[pLLTRzem57tFhxYFq0a4R7ITDrLRWMrKH4mDPO_8SIxWrR4ZsubQTVtli_ceAaeAxUWq7Y9idtlFkJVdEc3GWi6CQcgL1a8206226WETCseuYr0NdE5NhQJjAgK7EBKUS-iVxlVcbiR6Qihi7HIA9n2XxPjXXdBGhCHA2IYeoB6w1Ruu_RQ6Lwh0b3IsBEzFpIske7laTJ86YbtjW2uoN-2C6ujwA2C-arHqvbJES3ZrfVgIbwIDPgKmXf0npZaJI8Y36SFTZiSGykLQOAD9Y8zQDOsG_ZYA9lSTcVGAbFO861KYfkog2gf0hNc27ykqNKhz_wYhBPgPJiG6zVeupIsD1OAn2I5kWTTRmA7Vxwmup3fq4UAy-Eb0LPnkONv4kZTN5nzGBOpelNNaE3Ah_L-VyIxmpxvqxsfA6S9XAdauQyyOjHUBULpg7cfsJkY1UdD_MPJeUF96UV7OxnYJalJFcDmz20vdhhLTozfNSd4k1PH_4w1M-tqA9YcScYWfXl4lP1Q8apn7vmkp8xfUTz5_wmfFbsO2KzU_roJSU5MlH_lqCFx3ShqZDkW-eqpoL0J13q6blGm7uBuMXYi9pNghqMhNFrH2juWmWyO9DD-JzZ5vUmATNZG2VruDAc5_14RbslavSPEYUPnRbw0QdDE2maKkBK-HW5zLHc4Lejvw4tgouAv0hoKu7uTB47nNDigKNO2FtzNEk0LV2ceOXq4NfpGNreKobN0v8z39cgrsAnYuiSpfp34b67IKOz0t1BgzFm00]--></g></svg>