<svg xmlns="http://www.w3.org/2000/svg" xmlns:xlink="http://www.w3.org/1999/xlink" contentStyleType="text/css" data-diagram-type="CLASS" height="624px" preserveAspectRatio="none" style="width:1876px;height:624px;background:#FFFFFF;" version="1.1" viewBox="0 0 1876 624" width="1876px" zoomAndPan="magnify"><defs/><g><!--cluster vss--><g class="cluster" data-entity="vss" data-source-line="14" data-uid="ent0004" id="cluster_vss"><path d="M8.5,260 L32.8584,260 A3.75,3.75 0 0 1 35.3584,262.5 L42.3584,283.6094 L1396.5,283.6094 A2.5,2.5 0 0 1 1399,286.1094 L1399,614.5 A2.5,2.5 0 0 1 1396.5,617 L8.5,617 A2.5,2.5 0 0 1 6,614.5 L6,262.5 A2.5,2.5 0 0 1 8.5,260" fill="none" style="stroke:#000000;stroke-width:1.5;"/><line style="stroke:#000000;stroke-width:1.5;" x1="6" x2="42.3584" y1="283.6094" y2="283.6094"/><text fill="#000000" font-family="sans-serif" font-size="14" font-weight="bold" lengthAdjust="spacing" textLength="23.3584" x="10" y="276.5332">vss</text></g><!--cluster Vehicle--><g class="cluster" data-entity="Vehicle" data-source-line="14" data-uid="ent0005" id="cluster_Vehicle"><path d="M32.5,304 L82.5273,304 A3.75,3.75 0 0 1 85.0273,306.5 L92.0273,327.6094 L1372.5,327.6094 A2.5,2.5 0 0 1 1375,330.1094 L1375,590.5 A2.5,2.5 0 0 1 1372.5,593 L32.5,593 A2.5,2.5 0 0 1 30,590.5 L30,306.5 A2.5,2.5 0 0 1 32.5,304" fill="none" style="stroke:#000000;stroke-width:1.5;"/><line style="stroke:#000000;stroke-width:1.5;" x1="30" x2="92.0273" y1="327.6094" y2="327.6094"/><text fill="#000000" font-family="sans-serif" font-size="14" font-weight="bold" lengthAdjust="spacing" textLength="49.0273" x="34" y="320.5332">Vehicle</text></g><!--cluster Position--><g class="cluster" data-entity="Position" data-source-line="14" data-uid="ent0006" id="cluster_Position"><path d="M56.5,348 L112.7207,348 A3.75,3.75 0 0 1 115.2207,350.5 L122.2207,371.6094 L1348.5,371.6094 A2.5,2.5 0 0 1 1351,374.1094 L1351,566.5 A2.5,2.5 0 0 1 1348.5,569 L56.5,569 A2.5,2.5 0 0 1 54,566.5 L54,350.5 A2.5,2.5 0 0 1 56.5,348" fill="none" style="stroke:#000000;stroke-width:1.5;"/><line style="stroke:#000000;stroke-width:1.5;" x1="54" x2="122.2207" y1="371.6094" y2="371.6094"/><text fill="#000000" font-family="sans-serif" font-size="14" font-weight="bold" lengthAdjust="spacing" textLength="55.2207" x="58" y="364.5332">Position</text></g><!--cluster CurrentLongitudeDevice--><g class="cluster" data-entity="CurrentLongitudeDevice" data-source-line="14" data-uid="ent0007" id="cluster_CurrentLongitudeDevice"><path d="M80.5,409.5 L244.8516,409.5 A3.75,3.75 0 0 1 247.3516,412 L254.3516,433.1094 L363.5,433.1094 A2.5,2.5 0 0 1 366,435.6094 L366,525 A2.5,2.5 0 0 1 363.5,527.5 L80.5,527.5 A2.5,2.5 0 0 1 78,525 L78,412 A2.5,2.5 0 0 1 80.5,409.5" fill="none" style="stroke:#000000;stroke-width:1.5;"/><line style="stroke:#000000;stroke-width:1.5;" x1="78" x2="254.3516" y1="433.1094" y2="433.1094"/><text fill="#000000" font-family="sans-serif" font-size="14" font-weight="bold" lengthAdjust="spacing" textLength="163.3516" x="82" y="426.0332">CurrentLongitudeDevice</text></g><!--cluster CurrentLongitudeService--><g class="cluster" data-entity="CurrentLongitudeService" data-source-line="19" data-uid="ent0009" id="cluster_CurrentLongitudeService"><path d="M392.5,392 L561.5273,392 A3.75,3.75 0 0 1 564.0273,394.5 L571.0273,415.6094 L1324.5,415.6094 A2.5,2.5 0 0 1 1327,418.1094 L1327,542.5 A2.5,2.5 0 0 1 1324.5,545 L392.5,545 A2.5,2.5 0 0 1 390,542.5 L390,394.5 A2.5,2.5 0 0 1 392.5,392" fill="none" style="stroke:#000000;stroke-width:1.5;"/><line style="stroke:#000000;stroke-width:1.5;" x1="390" x2="571.0273" y1="415.6094" y2="415.6094"/><text fill="#000000" font-family="sans-serif" font-size="14" font-weight="bold" lengthAdjust="spacing" textLength="168.0273" x="394" y="408.5332">CurrentLongitudeService</text></g><!--cluster sdv--><g class="cluster" data-entity="sdv" data-source-line="31" data-uid="ent0012" id="cluster_sdv"><path d="M1425.5,383.5 L1450.624,383.5 A3.75,3.75 0 0 1 1453.124,386 L1460.124,407.1094 L1866.5,407.1094 A2.5,2.5 0 0 1 1869,409.6094 L1869,551 A2.5,2.5 0 0 1 1866.5,553.5 L1425.5,553.5 A2.5,2.5 0 0 1 1423,551 L1423,386 A2.5,2.5 0 0 1 1425.5,383.5" fill="none" style="stroke:#000000;stroke-width:1.5;"/><line style="stroke:#000000;stroke-width:1.5;" x1="1423" x2="1460.124" y1="407.1094" y2="407.1094"/><text fill="#000000" font-family="sans-serif" font-size="14" font-weight="bold" lengthAdjust="spacing" textLength="24.124" x="1427" y="400.0332">sdv</text></g><!--class IVSS_WriteCurrentLongitude_Event--><g class="entity" data-entity="IVSS_WriteCurrentLongitude_Event" data-source-line="14" data-uid="ent0003" id="entity_IVSS_WriteCurrentLongitude_Event"><rect fill="#F1F1F1" height="65.6094" rx="2.5" ry="2.5" style="stroke:#181818;stroke-width:0.5;" width="256.123" x="94" y="445.5"/><ellipse cx="109" cy="461.5" fill="#B4A7E5" rx="11" ry="11" style="stroke:#181818;stroke-width:1;"/><path d="M109.9531,458.1406 L109.9531,464.7969 L111.6719,464.7969 Q112.2813,464.7969 112.5469,465.0313 Q112.8125,465.2656 112.8125,465.6563 Q112.8125,466.0313 112.5469,466.2656 Q112.2813,466.5 111.6719,466.5 L106.5313,466.5 Q105.9219,466.5 105.6563,466.2656 Q105.3906,466.0313 105.3906,465.6406 Q105.3906,465.2656 105.6563,465.0313 Q105.9219,464.7969 106.5313,464.7969 L108.25,464.7969 L108.25,458.1406 L106.5313,458.1406 Q105.9219,458.1406 105.6563,457.9063 Q105.3906,457.6719 105.3906,457.2813 Q105.3906,456.9063 105.6563,456.6719 Q105.9219,456.4375 106.5313,456.4375 L111.6719,456.4375 Q112.2813,456.4375 112.5469,456.6719 Q112.8125,456.9063 112.8125,457.2813 Q112.8125,457.6719 112.5469,457.9063 Q112.2813,458.1406 111.6719,458.1406 L109.9531,458.1406 Z " fill="#000000"/><text fill="#000000" font-family="sans-serif" font-size="14" font-style="italic" lengthAdjust="spacing" textLength="224.123" x="123" y="467.2285">IVSS_WriteCurrentLongitude_Event</text><line style="stroke:#181818;stroke-width:0.5;" x1="95" x2="349.123" y1="477.5" y2="477.5"/><line style="stroke:#181818;stroke-width:0.5;" x1="95" x2="349.123" y1="485.5" y2="485.5"/><text fill="#000000" font-family="sans-serif" font-size="14" font-style="italic" lengthAdjust="spacing" textLength="243.5645" x="100" y="504.0332">void WriteCurrentLongitude(float value)</text></g><!--class IVSS_SetCurrentLongitude_Event--><g class="entity" data-entity="IVSS_SetCurrentLongitude_Event" data-source-line="19" data-uid="ent0008" id="entity_IVSS_SetCurrentLongitude_Event"><rect fill="#F1F1F1" height="65.6094" rx="2.5" ry="2.5" style="stroke:#181818;stroke-width:0.5;" width="244.4746" x="406" y="445.5"/><ellipse cx="421" cy="461.5" fill="#B4A7E5" rx="11" ry="11" style="stroke:#181818;stroke-width:1;"/><path d="M421.9531,458.1406 L421.9531,464.7969 L423.6719,464.7969 Q424.2813,464.7969 424.5469,465.0313 Q424.8125,465.2656 424.8125,465.6563 Q424.8125,466.0313 424.5469,466.2656 Q424.2813,466.5 423.6719,466.5 L418.5313,466.5 Q417.9219,466.5 417.6563,466.2656 Q417.3906,466.0313 417.3906,465.6406 Q417.3906,465.2656 417.6563,465.0313 Q417.9219,464.7969 418.5313,464.7969 L420.25,464.7969 L420.25,458.1406 L418.5313,458.1406 Q417.9219,458.1406 417.6563,457.9063 Q417.3906,457.6719 417.3906,457.2813 Q417.3906,456.9063 417.6563,456.6719 Q417.9219,456.4375 418.5313,456.4375 L423.6719,456.4375 Q424.2813,456.4375 424.5469,456.6719 Q424.8125,456.9063 424.8125,457.2813 Q424.8125,457.6719 424.5469,457.9063 Q424.2813,458.1406 423.6719,458.1406 L421.9531,458.1406 Z " fill="#000000"/><text fill="#000000" font-family="sans-serif" font-size="14" font-style="italic" lengthAdjust="spacing" textLength="212.4746" x="435" y="467.2285">IVSS_SetCurrentLongitude_Event</text><line style="stroke:#181818;stroke-width:0.5;" x1="407" x2="649.4746" y1="477.5" y2="477.5"/><line style="stroke:#181818;stroke-width:0.5;" x1="407" x2="649.4746" y1="485.5" y2="485.5"/><text fill="#000000" font-family="sans-serif" font-size="14" font-style="italic" lengthAdjust="spacing" textLength="231.916" x="412" y="504.0332">void SetCurrentLongitude(float value)</text></g><!--class IVSS_GetCurrentLongitude--><g class="entity" data-entity="IVSS_GetCurrentLongitude" data-source-line="24" data-uid="ent0010" id="entity_IVSS_GetCurrentLongitude"><rect fill="#F1F1F1" height="100.8281" rx="2.5" ry="2.5" style="stroke:#181818;stroke-width:0.5;" width="626.0176" x="685" y="428"/><ellipse cx="908.5386" cy="444" fill="#B4A7E5" rx="11" ry="11" style="stroke:#181818;stroke-width:1;"/><path d="M909.4917,440.6406 L909.4917,447.2969 L911.2104,447.2969 Q911.8198,447.2969 912.0854,447.5313 Q912.3511,447.7656 912.3511,448.1563 Q912.3511,448.5313 912.0854,448.7656 Q911.8198,449 911.2104,449 L906.0698,449 Q905.4604,449 905.1948,448.7656 Q904.9292,448.5313 904.9292,448.1406 Q904.9292,447.7656 905.1948,447.5313 Q905.4604,447.2969 906.0698,447.2969 L907.7886,447.2969 L907.7886,440.6406 L906.0698,440.6406 Q905.4604,440.6406 905.1948,440.4063 Q904.9292,440.1719 904.9292,439.7813 Q904.9292,439.4063 905.1948,439.1719 Q905.4604,438.9375 906.0698,438.9375 L911.2104,438.9375 Q911.8198,438.9375 912.0854,439.1719 Q912.3511,439.4063 912.3511,439.7813 Q912.3511,440.1719 912.0854,440.4063 Q911.8198,440.6406 911.2104,440.6406 L909.4917,440.6406 Z " fill="#000000"/><text fill="#000000" font-family="sans-serif" font-size="14" font-style="italic" lengthAdjust="spacing" textLength="170.4404" x="929.0386" y="449.7285">IVSS_GetCurrentLongitude</text><line style="stroke:#181818;stroke-width:0.5;" x1="686" x2="1310.0176" y1="460" y2="460"/><line style="stroke:#181818;stroke-width:0.5;" x1="686" x2="1310.0176" y1="468" y2="468"/><text fill="#000000" font-family="sans-serif" font-size="14" font-style="italic" lengthAdjust="spacing" textLength="207.7783" x="691" y="486.5332">float GetCurrentLongitude() const</text><text fill="#000000" font-family="sans-serif" font-size="14" font-style="italic" lengthAdjust="spacing" textLength="601.5693" x="691" y="504.1426">void RegisterOnSignalChangeOfFCurrentLongitude(IVSS_SetCurrentLongitude_Event* callback)</text><text fill="#000000" font-family="sans-serif" font-size="14" font-style="italic" lengthAdjust="spacing" textLength="614.0176" x="691" y="521.752">void UnregisterOnSignalChangeOfFCurrentLongitude(IVSS_SetCurrentLongitude_Event* callback)</text></g><!--class CSdvObject--><g class="entity" data-entity="CSdvObject" data-source-line="31" data-uid="ent0011" id="entity_CSdvObject"><rect fill="#F1F1F1" height="118.4375" rx="2.5" ry="2.5" style="stroke:#181818;stroke-width:0.5;" width="412.7705" x="1439.5" y="419.5"/><ellipse cx="1604.2871" cy="435.5" fill="#ADD1B2" rx="11" ry="11" style="stroke:#181818;stroke-width:1;"/><path d="M1607.0527,431.375 Q1607.209,431.1563 1607.3965,431.0469 Q1607.584,430.9375 1607.8027,430.9375 Q1608.1777,430.9375 1608.4121,431.1953 Q1608.6465,431.4531 1608.6465,432.0625 L1608.6465,433.5156 Q1608.6465,434.125 1608.4121,434.3906 Q1608.1777,434.6563 1607.8027,434.6563 Q1607.459,434.6563 1607.2559,434.4531 Q1607.0527,434.2656 1606.9434,433.75 Q1606.8965,433.3906 1606.709,433.2031 Q1606.3809,432.8281 1605.7715,432.6094 Q1605.1621,432.3906 1604.5371,432.3906 Q1603.7715,432.3906 1603.1387,432.7188 Q1602.5059,433.0469 1602.0137,433.7969 Q1601.5215,434.5469 1601.5215,435.5781 L1601.5215,436.6719 Q1601.5215,437.9063 1602.4121,438.7266 Q1603.3027,439.5469 1604.8965,439.5469 Q1605.834,439.5469 1606.4902,439.2969 Q1606.8809,439.1406 1607.3027,438.7031 Q1607.5684,438.4375 1607.7168,438.3594 Q1607.8652,438.2813 1608.0684,438.2813 Q1608.3965,438.2813 1608.6543,438.5391 Q1608.9121,438.7969 1608.9121,439.1406 Q1608.9121,439.4844 1608.5684,439.8906 Q1608.0684,440.4688 1607.2715,440.7969 Q1606.1934,441.25 1604.8965,441.25 Q1603.3809,441.25 1602.1777,440.625 Q1601.1934,440.125 1600.5059,439.0547 Q1599.8184,437.9844 1599.8184,436.7031 L1599.8184,435.5469 Q1599.8184,434.2188 1600.4355,433.0703 Q1601.0527,431.9219 1602.1465,431.3047 Q1603.2402,430.6875 1604.4746,430.6875 Q1605.209,430.6875 1605.8574,430.8516 Q1606.5059,431.0156 1607.0527,431.375 Z " fill="#000000"/><text fill="#000000" font-family="sans-serif" font-size="14" lengthAdjust="spacing" textLength="74.6963" x="1624.7871" y="441.2285">CSdvObject</text><line style="stroke:#181818;stroke-width:0.5;" x1="1440.5" x2="1851.2705" y1="451.5" y2="451.5"/><line style="stroke:#181818;stroke-width:0.5;" x1="1440.5" x2="1851.2705" y1="459.5" y2="459.5"/><ellipse cx="1450.5" cy="473.8047" fill="#84BE84" rx="3" ry="3" style="stroke:#038048;stroke-width:1;"/><text fill="#000000" font-family="sans-serif" font-size="14" lengthAdjust="spacing" text-decoration="underline" textLength="336.9365" x="1459.5" y="478.0332">sdv::sequence&lt;sdv::u8string&gt; GetClassAliasesStatic()</text><ellipse cx="1450.5" cy="491.4141" fill="#84BE84" rx="3" ry="3" style="stroke:#038048;stroke-width:1;"/><text fill="#000000" font-family="sans-serif" font-size="14" lengthAdjust="spacing" text-decoration="underline" textLength="272.3301" x="1459.5" y="495.6426">sdv::u8string GetDefaultObjectNameStatic()</text><ellipse cx="1450.5" cy="509.0234" fill="#84BE84" rx="3" ry="3" style="stroke:#038048;stroke-width:1;"/><text fill="#000000" font-family="sans-serif" font-size="14" lengthAdjust="spacing" text-decoration="underline" textLength="143.9648" x="1459.5" y="513.252">bool IsSingletonStatic()</text><ellipse cx="1450.5" cy="526.6328" fill="#84BE84" rx="3" ry="3" style="stroke:#038048;stroke-width:1;"/><text fill="#000000" font-family="sans-serif" font-size="14" lengthAdjust="spacing" text-decoration="underline" textLength="386.7705" x="1459.5" y="530.8613">sdv::sequence&lt;sdv::u8string&gt; GetObjectDependenciesStatic()</text></g><!--class CBasicServiceCurrentLongitude--><g class="entity" data-entity="CBasicServiceCurrentLongitude" data-source-line="2" data-uid="ent0002" id="entity_CBasicServiceCurrentLongitude"><rect fill="#F1F1F1" height="188.875" rx="2.5" ry="2.5" style="stroke:#181818;stroke-width:0.5;" width="942.7266" x="200.5" y="7"/><ellipse cx="568.0068" cy="23" fill="#ADD1B2" rx="11" ry="11" style="stroke:#181818;stroke-width:1;"/><path d="M570.7725,18.875 Q570.9287,18.6563 571.1162,18.5469 Q571.3037,18.4375 571.5225,18.4375 Q571.8975,18.4375 572.1318,18.6953 Q572.3662,18.9531 572.3662,19.5625 L572.3662,21.0156 Q572.3662,21.625 572.1318,21.8906 Q571.8975,22.1563 571.5225,22.1563 Q571.1787,22.1563 570.9756,21.9531 Q570.7725,21.7656 570.6631,21.25 Q570.6162,20.8906 570.4287,20.7031 Q570.1006,20.3281 569.4912,20.1094 Q568.8818,19.8906 568.2568,19.8906 Q567.4912,19.8906 566.8584,20.2188 Q566.2256,20.5469 565.7334,21.2969 Q565.2412,22.0469 565.2412,23.0781 L565.2412,24.1719 Q565.2412,25.4063 566.1318,26.2266 Q567.0225,27.0469 568.6162,27.0469 Q569.5537,27.0469 570.21,26.7969 Q570.6006,26.6406 571.0225,26.2031 Q571.2881,25.9375 571.4365,25.8594 Q571.585,25.7813 571.7881,25.7813 Q572.1162,25.7813 572.374,26.0391 Q572.6318,26.2969 572.6318,26.6406 Q572.6318,26.9844 572.2881,27.3906 Q571.7881,27.9688 570.9912,28.2969 Q569.9131,28.75 568.6162,28.75 Q567.1006,28.75 565.8975,28.125 Q564.9131,27.625 564.2256,26.5547 Q563.5381,25.4844 563.5381,24.2031 L563.5381,23.0469 Q563.5381,21.7188 564.1553,20.5703 Q564.7725,19.4219 565.8662,18.8047 Q566.96,18.1875 568.1943,18.1875 Q568.9287,18.1875 569.5771,18.3516 Q570.2256,18.5156 570.7725,18.875 Z " fill="#000000"/><text fill="#000000" font-family="sans-serif" font-size="14" lengthAdjust="spacing" textLength="199.2129" x="588.5068" y="28.7285">CBasicServiceCurrentLongitude</text><line style="stroke:#181818;stroke-width:0.5;" x1="201.5" x2="1142.2266" y1="39" y2="39"/><rect fill="none" height="6" style="stroke:#C82930;stroke-width:1;" width="6" x="208.5" y="50.3047"/><text fill="#000000" font-family="sans-serif" font-size="14" lengthAdjust="spacing" textLength="161.875" x="220.5" y="57.5332">float m_fCurrentLongitude</text><rect fill="none" height="6" style="stroke:#C82930;stroke-width:1;" width="6" x="208.5" y="67.9141"/><text fill="#000000" font-family="sans-serif" font-size="14" lengthAdjust="spacing" textLength="352.502" x="220.5" y="75.1426">mutable std::mutex m_fCurrentLongitudeMutexCallbacks</text><rect fill="none" height="6" style="stroke:#C82930;stroke-width:1;" width="6" x="208.5" y="85.5234"/><text fill="#000000" font-family="sans-serif" font-size="14" lengthAdjust="spacing" textLength="778.2168" x="220.5" y="92.752">std::set&lt;vss::Vehicle::Position::CurrentLongitudeService::IVSS_SetCurrentLongitude_Event*&gt; m_fCurrentLongitudeCallbacks</text><line style="stroke:#181818;stroke-width:0.5;" x1="201.5" x2="1142.2266" y1="99.8281" y2="99.8281"/><ellipse cx="211.5" cy="114.1328" fill="#84BE84" rx="3" ry="3" style="stroke:#038048;stroke-width:1;"/><text fill="#000000" font-family="sans-serif" font-size="14" lengthAdjust="spacing" textLength="231.916" x="220.5" y="118.3613">void SetCurrentLongitude(float value)</text><ellipse cx="211.5" cy="131.7422" fill="#84BE84" rx="3" ry="3" style="stroke:#038048;stroke-width:1;"/><text fill="#000000" font-family="sans-serif" font-size="14" lengthAdjust="spacing" textLength="207.7783" x="220.5" y="135.9707">float GetCurrentLongitude() const</text><ellipse cx="211.5" cy="149.3516" fill="#84BE84" rx="3" ry="3" style="stroke:#038048;stroke-width:1;"/><text fill="#000000" font-family="sans-serif" font-size="14" lengthAdjust="spacing" textLength="243.5645" x="220.5" y="153.5801">void WriteCurrentLongitude(float value)</text><ellipse cx="211.5" cy="166.9609" fill="#84BE84" rx="3" ry="3" style="stroke:#038048;stroke-width:1;"/><text fill="#000000" font-family="sans-serif" font-size="14" lengthAdjust="spacing" textLength="904.2783" x="220.5" y="171.1895">void RegisterOnSignalChangeOfFCurrentLongitude(vss::Vehicle::Position::CurrentLongitudeService::IVSS_SetCurrentLongitude_Event* callback)</text><ellipse cx="211.5" cy="184.5703" fill="#84BE84" rx="3" ry="3" style="stroke:#038048;stroke-width:1;"/><text fill="#000000" font-family="sans-serif" font-size="14" lengthAdjust="spacing" textLength="916.7266" x="220.5" y="188.7988">void UnregisterOnSignalChangeOfFCurrentLongitude(vss::Vehicle::Position::CurrentLongitudeService::IVSS_SetCurrentLongitude_Event* callback)</text></g><!--link CBasicServiceCurrentLongitude to CSdvObject--><g class="link" data-entity-1="CBasicServiceCurrentLongitude" data-entity-2="CSdvObject" data-source-line="40" data-uid="lnk13" id="link_CBasicServiceCurrentLongitude_CSdvObject"><path codeLine="40" d="M1143.56,186.64 C1206.51,204.63 1269.22,226.21 1327,252 C1422.68,294.71 1505.2588,356.4546 1566.6488,407.8546" fill="none" id="CBasicServiceCurrentLongitude-to-CSdvObject" style="stroke:#181818;stroke-width:1;"/><polygon fill="none" points="1580.45,419.41,1570.5006,403.2542,1562.797,412.4551,1580.45,419.41" style="stroke:#181818;stroke-width:1;"/><text fill="#000000" font-family="sans-serif" font-size="13" lengthAdjust="spacing" textLength="42.6309" x="1294" y="240.4951">Inherits</text></g><!--link CBasicServiceCurrentLongitude to IVSS_GetCurrentLongitude--><g class="link" data-entity-1="CBasicServiceCurrentLongitude" data-entity-2="IVSS_GetCurrentLongitude" data-source-line="41" data-uid="lnk14" id="link_CBasicServiceCurrentLongitude_IVSS_GetCurrentLongitude"><path codeLine="41" d="M753.42,196.16 C817.26,269.59 891.7803,355.3158 942.9603,414.1858" fill="none" id="CBasicServiceCurrentLongitude-to-IVSS_GetCurrentLongitude" style="stroke:#181818;stroke-width:1;stroke-dasharray:7,7;"/><polygon fill="none" points="954.77,427.77,947.4883,410.2492,938.4322,418.1224,954.77,427.77" style="stroke:#181818;stroke-width:1;"/><text fill="#000000" font-family="sans-serif" font-size="13" lengthAdjust="spacing" textLength="67.1899" x="787" y="240.4951">Implements</text></g><!--link CBasicServiceCurrentLongitude to IVSS_SetCurrentLongitude_Event--><g class="link" data-entity-1="CBasicServiceCurrentLongitude" data-entity-2="IVSS_SetCurrentLongitude_Event" data-source-line="42" data-uid="lnk15" id="link_CBasicServiceCurrentLongitude_IVSS_SetCurrentLongitude_Event"><path codeLine="42" d="M636.03,196.16 C604.8,277.51 567.8113,373.8158 546.8113,428.5158" fill="none" id="CBasicServiceCurrentLongitude-to-IVSS_SetCurrentLongitude_Event" style="stroke:#181818;stroke-width:1;stroke-dasharray:7,7;"/><polygon fill="none" points="540.36,445.32,552.4127,430.6663,541.2099,426.3654,540.36,445.32" style="stroke:#181818;stroke-width:1;"/><text fill="#000000" font-family="sans-serif" font-size="13" lengthAdjust="spacing" textLength="67.1899" x="622" y="240.4951">Implements</text></g><!--link CBasicServiceCurrentLongitude to IVSS_WriteCurrentLongitude_Event--><g class="link" data-entity-1="CBasicServiceCurrentLongitude" data-entity-2="IVSS_WriteCurrentLongitude_Event" data-source-line="43" data-uid="lnk16" id="link_CBasicServiceCurrentLongitude_IVSS_WriteCurrentLongitude_Event"><path codeLine="43" d="M468.81,196.01 C441.01,212.78 413.87,231.53 390,252 C323.12,309.37 276.0237,382.3479 248.7637,429.6079" fill="none" id="CBasicServiceCurrentLongitude-to-IVSS_WriteCurrentLongitude_Event" style="stroke:#181818;stroke-width:1;stroke-dasharray:7,7;"/><polygon fill="none" points="239.77,445.2,253.961,432.6058,243.5663,426.61,239.77,445.2" style="stroke:#181818;stroke-width:1;"/><text fill="#000000" font-family="sans-serif" font-size="13" lengthAdjust="spacing" textLength="67.1899" x="418" y="240.4951">Implements</text></g><!--SRC=[pLNHRjCm57tFLzp7bQbxdgof4hGmLGAAY1YFbUFSfDuSk_ZUH4YZ_uwJ52XfrgPJ9-tHzZtt71-Vcm0X0-5QUidEWn0HA2E9OFfEabOn-aehd9RUe-MFpkQQonGZU8m0uB9oEeKOkNj-aHad6IffIXmrbUt6RK_f29IpnF_wVVUQyNZ7flOhvfeO_SB6EhVIJ5VIvhZ8FkpXAo8Xxd2bbK4XlZZIh9qLebkulR4GyxiuNlRSRVc-2iiteAGnYLGFEsg-MVzAz8nRkufbjlzquRGeMIO6WJWL8YpmPr_ff_fWkcrB3R01XCZSd5l-f4_03lScYc1kWxEPL0X3sMUuGzwRgvP-c-T7cH1xgNW3WvFuF643RNb2r_69EuUgdc7TrpDehhlwXq_jIQ7lqfmoZYSGrTwstqXAgs1Yd5QBv1xLtzSYbgpL1YwRSy8V9Lg5Dysgl0uIjSqdZMTrbxT6IqAA6z35gAV37qmDcM4cIyCjuMTPO3ykSSx0dEA0CiZE7kX-G5_BCiCrsZIKw1sLhGq7Vn8m7l-QT3q24NAvmZ1OT0n-THNWPujkJLoi3HPXyoMfdypGomaO-fNxNy5l]--></g></svg>