<svg xmlns="http://www.w3.org/2000/svg" xmlns:xlink="http://www.w3.org/1999/xlink" contentStyleType="text/css" data-diagram-type="CLASS" height="1006px" preserveAspectRatio="none" style="width:2238px;height:1006px;background:#F8FAFC;" version="1.1" viewBox="0 0 2238 1006" width="2238px" zoomAndPan="magnify"><defs/><g><rect fill="#F8FAFC" height="1006" style="stroke:none;stroke-width:1;" width="2238" x="0" y="0"/><!--cluster sdv--><g class="cluster" data-entity="sdv" data-source-line="28" data-uid="ent0002" id="cluster_sdv"><rect fill="#F0F9FF" height="170" rx="2.5" ry="2.5" style="stroke:#2563EB;stroke-width:1.5;" width="392" x="118.5" y="736"/><text fill="#111827" font-family="sans-serif" font-size="14" font-weight="bold" lengthAdjust="spacing" textLength="24.124" x="302.438" y="752.5332">sdv</text></g><!--cluster vss--><g class="cluster" data-entity="vss" data-source-line="38" data-uid="ent0006" id="cluster_vss"><rect fill="#F0F9FF" height="458" rx="2.5" ry="2.5" style="stroke:#2563EB;stroke-width:1.5;" width="1402" x="534.5" y="542"/><text fill="#111827" font-family="sans-serif" font-size="14" font-weight="bold" lengthAdjust="spacing" textLength="23.3584" x="1223.8208" y="558.5332">vss</text></g><!--cluster Vehicle--><g class="cluster" data-entity="Vehicle" data-source-line="38" data-uid="ent0007" id="cluster_Vehicle"><rect fill="#F0F9FF" height="390" rx="2.5" ry="2.5" style="stroke:#2563EB;stroke-width:1.5;" width="1354" x="558.5" y="586"/><text fill="#111827" font-family="sans-serif" font-size="14" font-weight="bold" lengthAdjust="spacing" textLength="49.0273" x="1210.9863" y="602.5332">Vehicle</text></g><!--cluster Body--><g class="cluster" data-entity="Body" data-source-line="38" data-uid="ent0008" id="cluster_Body"><rect fill="#F0F9FF" height="322" rx="2.5" ry="2.5" style="stroke:#2563EB;stroke-width:1.5;" width="1306" x="582.5" y="630"/><text fill="#111827" font-family="sans-serif" font-size="14" font-weight="bold" lengthAdjust="spacing" textLength="35" x="1218" y="646.5332">Body</text></g><!--cluster Weather--><g class="cluster" data-entity="Weather" data-source-line="38" data-uid="ent0009" id="cluster_Weather"><rect fill="#F0F9FF" height="186" rx="2.5" ry="2.5" style="stroke:#2563EB;stroke-width:1.5;" width="280" x="606.5" y="718"/><text fill="#111827" font-family="sans-serif" font-size="14" font-weight="bold" lengthAdjust="spacing" textLength="55.2344" x="718.8828" y="734.5332">Weather</text></g><!--cluster RainService--><g class="cluster" data-entity="RainService" data-source-line="37" data-uid="ent0004" id="cluster_RainService"><rect fill="#F0F9FF" height="118" rx="2.5" ry="2.5" style="stroke:#2563EB;stroke-width:1.5;" width="232" x="630.5" y="762"/><text fill="#111827" font-family="sans-serif" font-size="14" font-weight="bold" lengthAdjust="spacing" textLength="80.1582" x="706.4209" y="778.5332">RainService</text></g><!--cluster Windshield--><g class="cluster" data-entity="Windshield" data-source-line="44" data-uid="ent0012" id="cluster_Windshield"><rect fill="#F0F9FF" height="254" rx="2.5" ry="2.5" style="stroke:#2563EB;stroke-width:1.5;" width="954" x="910.5" y="674"/><text fill="#111827" font-family="sans-serif" font-size="14" font-weight="bold" lengthAdjust="spacing" textLength="74.6621" x="1350.1689" y="690.5332">Windshield</text></g><!--cluster Wiper--><g class="cluster" data-entity="Wiper" data-source-line="44" data-uid="ent0013" id="cluster_Wiper"><rect fill="#F0F9FF" height="186" rx="2.5" ry="2.5" style="stroke:#2563EB;stroke-width:1.5;" width="906" x="934.5" y="718"/><text fill="#111827" font-family="sans-serif" font-size="14" font-weight="bold" lengthAdjust="spacing" textLength="38.8896" x="1368.0552" y="734.5332">Wiper</text></g><!--cluster ModeService--><g class="cluster" data-entity="ModeService" data-source-line="43" data-uid="ent0010" id="cluster_ModeService"><rect fill="#F0F9FF" height="118" rx="2.5" ry="2.5" style="stroke:#2563EB;stroke-width:1.5;" width="296" x="958.5" y="762"/><text fill="#111827" font-family="sans-serif" font-size="14" font-weight="bold" lengthAdjust="spacing" textLength="86.3721" x="1063.314" y="778.5332">ModeService</text></g><!--cluster RearService--><g class="cluster" data-entity="RearService" data-source-line="49" data-uid="ent0014" id="cluster_RearService"><rect fill="#F0F9FF" height="118" rx="2.5" ry="2.5" style="stroke:#2563EB;stroke-width:1.5;" width="256" x="1278.5" y="762"/><text fill="#111827" font-family="sans-serif" font-size="14" font-weight="bold" lengthAdjust="spacing" textLength="80.9512" x="1366.0244" y="778.5332">RearService</text></g><!--cluster FrontService--><g class="cluster" data-entity="FrontService" data-source-line="55" data-uid="ent0016" id="cluster_FrontService"><rect fill="#F0F9FF" height="118" rx="2.5" ry="2.5" style="stroke:#2563EB;stroke-width:1.5;" width="258" x="1558.5" y="762"/><text fill="#111827" font-family="sans-serif" font-size="14" font-weight="bold" lengthAdjust="spacing" textLength="85.5859" x="1644.707" y="778.5332">FrontService</text></g><!--cluster WiperComplex--><g class="cluster" data-entity="WiperComplex" data-source-line="61" data-uid="ent0018" id="cluster_WiperComplex"><rect fill="#F0F9FF" height="118" rx="2.5" ry="2.5" style="stroke:#2563EB;stroke-width:1.5;" width="272" x="1960.5" y="762"/><text fill="#111827" font-family="sans-serif" font-size="14" font-weight="bold" lengthAdjust="spacing" textLength="98.0137" x="2047.4932" y="778.5332">WiperComplex</text></g><!--class IObjectControl--><g class="entity" data-entity="IObjectControl" data-source-line="29" data-uid="ent0003" id="entity_IObjectControl"><rect fill="#EFF6FF" height="118.4375" rx="2.5" ry="2.5" style="stroke:#2563EB;stroke-width:0.5;" width="358.6914" x="135" y="772"/><ellipse cx="265.3545" cy="788" fill="#B4A7E5" rx="11" ry="11" style="stroke:#181818;stroke-width:1;"/><path d="M266.3076,784.6406 L266.3076,791.2969 L268.0264,791.2969 Q268.6357,791.2969 268.9014,791.5313 Q269.167,791.7656 269.167,792.1563 Q269.167,792.5313 268.9014,792.7656 Q268.6357,793 268.0264,793 L262.8857,793 Q262.2764,793 262.0107,792.7656 Q261.7451,792.5313 261.7451,792.1406 Q261.7451,791.7656 262.0107,791.5313 Q262.2764,791.2969 262.8857,791.2969 L264.6045,791.2969 L264.6045,784.6406 L262.8857,784.6406 Q262.2764,784.6406 262.0107,784.4063 Q261.7451,784.1719 261.7451,783.7813 Q261.7451,783.4063 262.0107,783.1719 Q262.2764,782.9375 262.8857,782.9375 L268.0264,782.9375 Q268.6357,782.9375 268.9014,783.1719 Q269.167,783.4063 269.167,783.7813 Q269.167,784.1719 268.9014,784.4063 Q268.6357,784.6406 268.0264,784.6406 L266.3076,784.6406 Z " fill="#000000"/><text fill="#111827" font-family="sans-serif" font-size="14" font-style="italic" lengthAdjust="spacing" textLength="89.4824" x="285.8545" y="793.7285">IObjectControl</text><line style="stroke:#2563EB;stroke-width:0.5;" x1="136" x2="492.6914" y1="804" y2="804"/><line style="stroke:#2563EB;stroke-width:0.5;" x1="136" x2="492.6914" y1="812" y2="812"/><text fill="#000000" font-family="sans-serif" font-size="14" lengthAdjust="spacing" textLength="322.5332" x="141" y="830.5332">+void Initialize(const sdv::u8string&amp; ssObjectConfig)</text><text fill="#000000" font-family="sans-serif" font-size="14" lengthAdjust="spacing" textLength="109.3408" x="141" y="848.1426">+void Shutdown()</text><text fill="#000000" font-family="sans-serif" font-size="14" lengthAdjust="spacing" textLength="240.0508" x="141" y="865.752">+sdv::EObjectStatus GetStatus() const</text><text fill="#000000" font-family="sans-serif" font-size="14" lengthAdjust="spacing" textLength="346.6914" x="141" y="883.3613">+void SetOperationMode(sdv::EOperationMode eMode)</text></g><!--class IVSS_SetDetected_Event--><g class="entity" data-entity="IVSS_SetDetected_Event" data-source-line="38" data-uid="ent0005" id="entity_IVSS_SetDetected_Event"><rect fill="#EFF6FF" height="65.6094" rx="2.5" ry="2.5" style="stroke:#2563EB;stroke-width:0.5;" width="199.9473" x="646.5" y="798"/><ellipse cx="664.9308" cy="814" fill="#B4A7E5" rx="11" ry="11" style="stroke:#181818;stroke-width:1;"/><path d="M665.8839,810.6406 L665.8839,817.2969 L667.6027,817.2969 Q668.2121,817.2969 668.4777,817.5313 Q668.7433,817.7656 668.7433,818.1563 Q668.7433,818.5313 668.4777,818.7656 Q668.2121,819 667.6027,819 L662.4621,819 Q661.8527,819 661.5871,818.7656 Q661.3214,818.5313 661.3214,818.1406 Q661.3214,817.7656 661.5871,817.5313 Q661.8527,817.2969 662.4621,817.2969 L664.1808,817.2969 L664.1808,810.6406 L662.4621,810.6406 Q661.8527,810.6406 661.5871,810.4063 Q661.3214,810.1719 661.3214,809.7813 Q661.3214,809.4063 661.5871,809.1719 Q661.8527,808.9375 662.4621,808.9375 L667.6027,808.9375 Q668.2121,808.9375 668.4777,809.1719 Q668.7433,809.4063 668.7433,809.7813 Q668.7433,810.1719 668.4777,810.4063 Q668.2121,810.6406 667.6027,810.6406 L665.8839,810.6406 Z " fill="#000000"/><text fill="#111827" font-family="sans-serif" font-size="14" font-style="italic" lengthAdjust="spacing" textLength="160.3232" x="679.6932" y="819.7285">IVSS_SetDetected_Event</text><line style="stroke:#2563EB;stroke-width:0.5;" x1="647.5" x2="845.4473" y1="830" y2="830"/><line style="stroke:#2563EB;stroke-width:0.5;" x1="647.5" x2="845.4473" y1="838" y2="838"/><text fill="#000000" font-family="sans-serif" font-size="14" lengthAdjust="spacing" textLength="187.9473" x="652.5" y="856.5332">+void SetDetected(bool value)</text></g><!--class IVSS_SetMode_Event--><g class="entity" data-entity="IVSS_SetMode_Event" data-source-line="44" data-uid="ent0011" id="entity_IVSS_SetMode_Event"><rect fill="#EFF6FF" height="65.6094" rx="2.5" ry="2.5" style="stroke:#2563EB;stroke-width:0.5;" width="262.9541" x="975" y="798"/><ellipse cx="1032.5723" cy="814" fill="#B4A7E5" rx="11" ry="11" style="stroke:#181818;stroke-width:1;"/><path d="M1033.5254,810.6406 L1033.5254,817.2969 L1035.2441,817.2969 Q1035.8535,817.2969 1036.1191,817.5313 Q1036.3848,817.7656 1036.3848,818.1563 Q1036.3848,818.5313 1036.1191,818.7656 Q1035.8535,819 1035.2441,819 L1030.1035,819 Q1029.4941,819 1029.2285,818.7656 Q1028.9629,818.5313 1028.9629,818.1406 Q1028.9629,817.7656 1029.2285,817.5313 Q1029.4941,817.2969 1030.1035,817.2969 L1031.8223,817.2969 L1031.8223,810.6406 L1030.1035,810.6406 Q1029.4941,810.6406 1029.2285,810.4063 Q1028.9629,810.1719 1028.9629,809.7813 Q1028.9629,809.4063 1029.2285,809.1719 Q1029.4941,808.9375 1030.1035,808.9375 L1035.2441,808.9375 Q1035.8535,808.9375 1036.1191,809.1719 Q1036.3848,809.4063 1036.3848,809.7813 Q1036.3848,810.1719 1036.1191,810.4063 Q1035.8535,810.6406 1035.2441,810.6406 L1033.5254,810.6406 Z " fill="#000000"/><text fill="#111827" font-family="sans-serif" font-size="14" font-style="italic" lengthAdjust="spacing" textLength="139.3096" x="1053.0723" y="819.7285">IVSS_SetMode_Event</text><line style="stroke:#2563EB;stroke-width:0.5;" x1="976" x2="1236.9541" y1="830" y2="830"/><line style="stroke:#2563EB;stroke-width:0.5;" x1="976" x2="1236.9541" y1="838" y2="838"/><text fill="#000000" font-family="sans-serif" font-size="14" lengthAdjust="spacing" textLength="250.9541" x="981" y="856.5332">+void SetMode(const sdv::string&amp; value)</text></g><!--class IVSS_SetIsRearActive--><g class="entity" data-entity="IVSS_SetIsRearActive" data-source-line="50" data-uid="ent0015" id="entity_IVSS_SetIsRearActive"><rect fill="#EFF6FF" height="65.6094" rx="2.5" ry="2.5" style="stroke:#2563EB;stroke-width:0.5;" width="224.0576" x="1294.5" y="798"/><ellipse cx="1332.8982" cy="814" fill="#B4A7E5" rx="11" ry="11" style="stroke:#181818;stroke-width:1;"/><path d="M1333.8514,810.6406 L1333.8514,817.2969 L1335.5701,817.2969 Q1336.1795,817.2969 1336.4451,817.5313 Q1336.7107,817.7656 1336.7107,818.1563 Q1336.7107,818.5313 1336.4451,818.7656 Q1336.1795,819 1335.5701,819 L1330.4295,819 Q1329.8201,819 1329.5545,818.7656 Q1329.2889,818.5313 1329.2889,818.1406 Q1329.2889,817.7656 1329.5545,817.5313 Q1329.8201,817.2969 1330.4295,817.2969 L1332.1482,817.2969 L1332.1482,810.6406 L1330.4295,810.6406 Q1329.8201,810.6406 1329.5545,810.4063 Q1329.2889,810.1719 1329.2889,809.7813 Q1329.2889,809.4063 1329.5545,809.1719 Q1329.8201,808.9375 1330.4295,808.9375 L1335.5701,808.9375 Q1336.1795,808.9375 1336.4451,809.1719 Q1336.7107,809.4063 1336.7107,809.7813 Q1336.7107,810.1719 1336.4451,810.4063 Q1336.1795,810.6406 1335.5701,810.6406 L1333.8514,810.6406 Z " fill="#000000"/><text fill="#111827" font-family="sans-serif" font-size="14" font-style="italic" lengthAdjust="spacing" textLength="140.0615" x="1352.0979" y="819.7285">IVSS_SetIsRearActive</text><line style="stroke:#2563EB;stroke-width:0.5;" x1="1295.5" x2="1517.5576" y1="830" y2="830"/><line style="stroke:#2563EB;stroke-width:0.5;" x1="1295.5" x2="1517.5576" y1="838" y2="838"/><text fill="#000000" font-family="sans-serif" font-size="14" lengthAdjust="spacing" textLength="212.0576" x="1300.5" y="856.5332">+bool SetIsRearActive(bool value)</text></g><!--class IVSS_SetIsFrontActive--><g class="entity" data-entity="IVSS_SetIsFrontActive" data-source-line="56" data-uid="ent0017" id="entity_IVSS_SetIsFrontActive"><rect fill="#EFF6FF" height="65.6094" rx="2.5" ry="2.5" style="stroke:#2563EB;stroke-width:0.5;" width="226.3887" x="1574.5" y="798"/><ellipse cx="1612.8982" cy="814" fill="#B4A7E5" rx="11" ry="11" style="stroke:#181818;stroke-width:1;"/><path d="M1613.8514,810.6406 L1613.8514,817.2969 L1615.5701,817.2969 Q1616.1795,817.2969 1616.4451,817.5313 Q1616.7107,817.7656 1616.7107,818.1563 Q1616.7107,818.5313 1616.4451,818.7656 Q1616.1795,819 1615.5701,819 L1610.4295,819 Q1609.8201,819 1609.5545,818.7656 Q1609.2889,818.5313 1609.2889,818.1406 Q1609.2889,817.7656 1609.5545,817.5313 Q1609.8201,817.2969 1610.4295,817.2969 L1612.1482,817.2969 L1612.1482,810.6406 L1610.4295,810.6406 Q1609.8201,810.6406 1609.5545,810.4063 Q1609.2889,810.1719 1609.2889,809.7813 Q1609.2889,809.4063 1609.5545,809.1719 Q1609.8201,808.9375 1610.4295,808.9375 L1615.5701,808.9375 Q1616.1795,808.9375 1616.4451,809.1719 Q1616.7107,809.4063 1616.7107,809.7813 Q1616.7107,810.1719 1616.4451,810.4063 Q1616.1795,810.6406 1615.5701,810.6406 L1613.8514,810.6406 Z " fill="#000000"/><text fill="#111827" font-family="sans-serif" font-size="14" font-style="italic" lengthAdjust="spacing" textLength="142.3926" x="1632.0979" y="819.7285">IVSS_SetIsFrontActive</text><line style="stroke:#2563EB;stroke-width:0.5;" x1="1575.5" x2="1799.8887" y1="830" y2="830"/><line style="stroke:#2563EB;stroke-width:0.5;" x1="1575.5" x2="1799.8887" y1="838" y2="838"/><text fill="#000000" font-family="sans-serif" font-size="14" lengthAdjust="spacing" textLength="214.3887" x="1580.5" y="856.5332">+bool SetIsFrontActive(bool value)</text></g><!--class IWiperComplexService--><g class="entity" data-entity="IWiperComplexService" data-source-line="62" data-uid="ent0019" id="entity_IWiperComplexService"><rect fill="#EFF6FF" height="65.6094" rx="2.5" ry="2.5" style="stroke:#2563EB;stroke-width:0.5;" width="239.582" x="1976.5" y="798"/><ellipse cx="2020.855" cy="814" fill="#B4A7E5" rx="11" ry="11" style="stroke:#181818;stroke-width:1;"/><path d="M2021.8081,810.6406 L2021.8081,817.2969 L2023.5269,817.2969 Q2024.1362,817.2969 2024.4019,817.5313 Q2024.6675,817.7656 2024.6675,818.1563 Q2024.6675,818.5313 2024.4019,818.7656 Q2024.1362,819 2023.5269,819 L2018.3862,819 Q2017.7769,819 2017.5112,818.7656 Q2017.2456,818.5313 2017.2456,818.1406 Q2017.2456,817.7656 2017.5112,817.5313 Q2017.7769,817.2969 2018.3862,817.2969 L2020.105,817.2969 L2020.105,810.6406 L2018.3862,810.6406 Q2017.7769,810.6406 2017.5112,810.4063 Q2017.2456,810.1719 2017.2456,809.7813 Q2017.2456,809.4063 2017.5112,809.1719 Q2017.7769,808.9375 2018.3862,808.9375 L2023.5269,808.9375 Q2024.1362,808.9375 2024.4019,809.1719 Q2024.6675,809.4063 2024.6675,809.7813 Q2024.6675,810.1719 2024.4019,810.4063 Q2024.1362,810.6406 2023.5269,810.6406 L2021.8081,810.6406 Z " fill="#000000"/><text fill="#111827" font-family="sans-serif" font-size="14" font-style="italic" lengthAdjust="spacing" textLength="142.3721" x="2041.355" y="819.7285">IWiperComplexService</text><line style="stroke:#2563EB;stroke-width:0.5;" x1="1977.5" x2="2215.082" y1="830" y2="830"/><line style="stroke:#2563EB;stroke-width:0.5;" x1="1977.5" x2="2215.082" y1="838" y2="838"/><text fill="#000000" font-family="sans-serif" font-size="14" lengthAdjust="spacing" textLength="227.582" x="1982.5" y="856.5332">+bool TriggerWipersAfterThreshold()</text></g><!--class CWiperExampleService--><g class="entity" data-entity="CWiperExampleService" data-source-line="67" data-uid="ent0020" id="entity_CWiperExampleService"><rect fill="#EFF6FF" height="470.625" rx="2.5" ry="2.5" style="stroke:#2563EB;stroke-width:0.5;" width="381.6328" x="915.5" y="7"/><ellipse cx="1028.1563" cy="23" fill="#ADD1B2" rx="11" ry="11" style="stroke:#181818;stroke-width:1;"/><path d="M1030.9219,18.875 Q1031.0781,18.6563 1031.2656,18.5469 Q1031.4531,18.4375 1031.6719,18.4375 Q1032.0469,18.4375 1032.2813,18.6953 Q1032.5156,18.9531 1032.5156,19.5625 L1032.5156,21.0156 Q1032.5156,21.625 1032.2813,21.8906 Q1032.0469,22.1563 1031.6719,22.1563 Q1031.3281,22.1563 1031.125,21.9531 Q1030.9219,21.7656 1030.8125,21.25 Q1030.7656,20.8906 1030.5781,20.7031 Q1030.25,20.3281 1029.6406,20.1094 Q1029.0313,19.8906 1028.4063,19.8906 Q1027.6406,19.8906 1027.0078,20.2188 Q1026.375,20.5469 1025.8828,21.2969 Q1025.3906,22.0469 1025.3906,23.0781 L1025.3906,24.1719 Q1025.3906,25.4063 1026.2813,26.2266 Q1027.1719,27.0469 1028.7656,27.0469 Q1029.7031,27.0469 1030.3594,26.7969 Q1030.75,26.6406 1031.1719,26.2031 Q1031.4375,25.9375 1031.5859,25.8594 Q1031.7344,25.7813 1031.9375,25.7813 Q1032.2656,25.7813 1032.5234,26.0391 Q1032.7813,26.2969 1032.7813,26.6406 Q1032.7813,26.9844 1032.4375,27.3906 Q1031.9375,27.9688 1031.1406,28.2969 Q1030.0625,28.75 1028.7656,28.75 Q1027.25,28.75 1026.0469,28.125 Q1025.0625,27.625 1024.375,26.5547 Q1023.6875,25.4844 1023.6875,24.2031 L1023.6875,23.0469 Q1023.6875,21.7188 1024.3047,20.5703 Q1024.9219,19.4219 1026.0156,18.8047 Q1027.1094,18.1875 1028.3438,18.1875 Q1029.0781,18.1875 1029.7266,18.3516 Q1030.375,18.5156 1030.9219,18.875 Z " fill="#000000"/><text fill="#111827" font-family="sans-serif" font-size="14" lengthAdjust="spacing" textLength="147.8203" x="1048.6563" y="28.7285">CWiperExampleService</text><line style="stroke:#2563EB;stroke-width:0.5;" x1="916.5" x2="1296.1328" y1="39" y2="39"/><text fill="#000000" font-family="sans-serif" font-size="14" lengthAdjust="spacing" textLength="194.5303" x="921.5" y="57.5332">-sdv::EObjectStatus m_eStatus</text><text fill="#000000" font-family="sans-serif" font-size="14" lengthAdjust="spacing" textLength="150.1855" x="921.5" y="75.1426">-bool m_IsRainDetected</text><text fill="#000000" font-family="sans-serif" font-size="14" lengthAdjust="spacing" textLength="172.7168" x="921.5" y="92.752">-bool m_WiperFrontIsActive</text><text fill="#000000" font-family="sans-serif" font-size="14" lengthAdjust="spacing" textLength="170.3857" x="921.5" y="110.3613">-bool m_WiperRearIsActive</text><text fill="#000000" font-family="sans-serif" font-size="14" lengthAdjust="spacing" textLength="163.3789" x="921.5" y="127.9707">-sdv::string m_WiperMode</text><text fill="#000000" font-family="sans-serif" font-size="14" lengthAdjust="spacing" textLength="133.0547" x="921.5" y="145.5801">-CConsole mConsole</text><text fill="#000000" font-family="sans-serif" font-size="14" lengthAdjust="spacing" textLength="88.6963" x="921.5" y="163.1895">-int m_Interval</text><text fill="#000000" font-family="sans-serif" font-size="14" lengthAdjust="spacing" textLength="169.668" x="921.5" y="180.7988">-bool m_AutoModeEnabled</text><text fill="#000000" font-family="sans-serif" font-size="14" lengthAdjust="spacing" textLength="234.2266" x="921.5" y="198.4082">-int32_t m_RainPersistenceThreshold</text><text fill="#000000" font-family="sans-serif" font-size="14" lengthAdjust="spacing" textLength="369.6328" x="921.5" y="216.0176">-std::chrono::steady_clock::time_point m_LastRainDetected</text><text fill="#000000" font-family="sans-serif" font-size="14" lengthAdjust="spacing" textLength="365.7568" x="921.5" y="233.627">-std::chrono::steady_clock::time_point m_LastRainStopped</text><line style="stroke:#2563EB;stroke-width:0.5;" x1="916.5" x2="1296.1328" y1="240.7031" y2="240.7031"/><text fill="#000000" font-family="sans-serif" font-size="14" lengthAdjust="spacing" textLength="165.3203" x="921.5" y="259.2363">+CWiperExampleService()</text><text fill="#000000" font-family="sans-serif" font-size="14" lengthAdjust="spacing" textLength="173.4961" x="921.5" y="276.8457">+~CWiperExampleService()</text><text fill="#000000" font-family="sans-serif" font-size="14" lengthAdjust="spacing" textLength="322.5332" x="921.5" y="294.4551">+void Initialize(const sdv::u8string&amp; ssObjectConfig)</text><text fill="#000000" font-family="sans-serif" font-size="14" lengthAdjust="spacing" textLength="109.3408" x="921.5" y="312.0645">+void Shutdown()</text><text fill="#000000" font-family="sans-serif" font-size="14" lengthAdjust="spacing" textLength="240.0508" x="921.5" y="329.6738">+sdv::EObjectStatus GetStatus() const</text><text fill="#000000" font-family="sans-serif" font-size="14" lengthAdjust="spacing" textLength="346.6914" x="921.5" y="347.2832">+void SetOperationMode(sdv::EOperationMode eMode)</text><text fill="#000000" font-family="sans-serif" font-size="14" lengthAdjust="spacing" textLength="250.9541" x="921.5" y="364.8926">+void SetMode(const sdv::string&amp; value)</text><text fill="#000000" font-family="sans-serif" font-size="14" lengthAdjust="spacing" textLength="187.9473" x="921.5" y="382.502">+void SetDetected(bool value)</text><text fill="#000000" font-family="sans-serif" font-size="14" lengthAdjust="spacing" textLength="212.0576" x="921.5" y="400.1113">+bool SetIsRearActive(bool value)</text><text fill="#000000" font-family="sans-serif" font-size="14" lengthAdjust="spacing" textLength="214.3887" x="921.5" y="417.7207">+bool SetIsFrontActive(bool value)</text><text fill="#000000" font-family="sans-serif" font-size="14" lengthAdjust="spacing" textLength="3.8896" x="921.5" y="435.3301">&#160;</text><text fill="#000000" font-family="sans-serif" font-size="14" lengthAdjust="spacing" textLength="224.0684" x="921.5" y="452.9395">-bool TriggerWipersAfterThreshold()</text><text fill="#000000" font-family="sans-serif" font-size="14" lengthAdjust="spacing" textLength="203.8477" x="921.5" y="470.5488">-void ActivateWipers(bool active)</text></g><!--class CConsole--><g class="entity" data-entity="CConsole" data-source-line="101" data-uid="ent0027" id="entity_CConsole"><rect fill="#EFF6FF" height="48" rx="2.5" ry="2.5" style="stroke:#2563EB;stroke-width:0.5;" width="93.4756" x="7" y="807"/><ellipse cx="22" cy="823" fill="#ADD1B2" rx="11" ry="11" style="stroke:#181818;stroke-width:1;"/><path d="M24.7656,818.875 Q24.9219,818.6563 25.1094,818.5469 Q25.2969,818.4375 25.5156,818.4375 Q25.8906,818.4375 26.125,818.6953 Q26.3594,818.9531 26.3594,819.5625 L26.3594,821.0156 Q26.3594,821.625 26.125,821.8906 Q25.8906,822.1563 25.5156,822.1563 Q25.1719,822.1563 24.9688,821.9531 Q24.7656,821.7656 24.6563,821.25 Q24.6094,820.8906 24.4219,820.7031 Q24.0938,820.3281 23.4844,820.1094 Q22.875,819.8906 22.25,819.8906 Q21.4844,819.8906 20.8516,820.2188 Q20.2188,820.5469 19.7266,821.2969 Q19.2344,822.0469 19.2344,823.0781 L19.2344,824.1719 Q19.2344,825.4063 20.125,826.2266 Q21.0156,827.0469 22.6094,827.0469 Q23.5469,827.0469 24.2031,826.7969 Q24.5938,826.6406 25.0156,826.2031 Q25.2813,825.9375 25.4297,825.8594 Q25.5781,825.7813 25.7813,825.7813 Q26.1094,825.7813 26.3672,826.0391 Q26.625,826.2969 26.625,826.6406 Q26.625,826.9844 26.2813,827.3906 Q25.7813,827.9688 24.9844,828.2969 Q23.9063,828.75 22.6094,828.75 Q21.0938,828.75 19.8906,828.125 Q18.9063,827.625 18.2188,826.5547 Q17.5313,825.4844 17.5313,824.2031 L17.5313,823.0469 Q17.5313,821.7188 18.1484,820.5703 Q18.7656,819.4219 19.8594,818.8047 Q20.9531,818.1875 22.1875,818.1875 Q22.9219,818.1875 23.5703,818.3516 Q24.2188,818.5156 24.7656,818.875 Z " fill="#000000"/><text fill="#111827" font-family="sans-serif" font-size="14" lengthAdjust="spacing" textLength="61.4756" x="36" y="828.7285">CConsole</text><line style="stroke:#2563EB;stroke-width:0.5;" x1="8" x2="99.4756" y1="839" y2="839"/><line style="stroke:#2563EB;stroke-width:0.5;" x1="8" x2="99.4756" y1="847" y2="847"/></g><!--link CWiperExampleService to IObjectControl--><g class="link" data-entity-1="CWiperExampleService" data-entity-2="IObjectControl" data-source-line="95" data-uid="lnk21" id="link_CWiperExampleService_IObjectControl"><path codeLine="95" d="M915.32,348.11 C825.99,399.98 719.88,466.01 630.5,534 C532.24,608.75 442.5102,696.5074 381.8402,759.0774" fill="none" id="CWiperExampleService-to-IObjectControl" style="stroke:#2563EB;stroke-width:1;stroke-dasharray:7,7;"/><polygon fill="none" points="369.31,772,386.1477,763.2541,377.5327,754.9007,369.31,772" style="stroke:#2563EB;stroke-width:1;"/></g><!--link CWiperExampleService to IVSS_SetDetected_Event--><g class="link" data-entity-1="CWiperExampleService" data-entity-2="IVSS_SetDetected_Event" data-source-line="96" data-uid="lnk22" id="link_CWiperExampleService_IVSS_SetDetected_Event"><path codeLine="96" d="M962.41,478.25 C887.25,600.7 812.7963,721.9894 775.5563,782.6594" fill="none" id="CWiperExampleService-to-IVSS_SetDetected_Event" style="stroke:#2563EB;stroke-width:1;stroke-dasharray:7,7;"/><polygon fill="none" points="766.14,798,780.6698,785.7981,770.4427,779.5206,766.14,798" style="stroke:#2563EB;stroke-width:1;"/></g><!--link CWiperExampleService to IVSS_SetMode_Event--><g class="link" data-entity-1="CWiperExampleService" data-entity-2="IVSS_SetMode_Event" data-source-line="97" data-uid="lnk23" id="link_CWiperExampleService_IVSS_SetMode_Event"><path codeLine="97" d="M1106.5,478.25 C1106.5,600.7 1106.5,719.33 1106.5,780" fill="none" id="CWiperExampleService-to-IVSS_SetMode_Event" style="stroke:#2563EB;stroke-width:1;stroke-dasharray:7,7;"/><polygon fill="none" points="1106.5,798,1112.5,780,1100.5,780,1106.5,798" style="stroke:#2563EB;stroke-width:1;"/></g><!--link CWiperExampleService to IVSS_SetIsRearActive--><g class="link" data-entity-1="CWiperExampleService" data-entity-2="IVSS_SetIsRearActive" data-source-line="98" data-uid="lnk24" id="link_CWiperExampleService_IVSS_SetIsRearActive"><path codeLine="98" d="M1226.58,478.25 C1289.21,600.7 1350.9036,721.3044 1381.9336,781.9744" fill="none" id="CWiperExampleService-to-IVSS_SetIsRearActive" style="stroke:#2563EB;stroke-width:1;stroke-dasharray:7,7;"/><polygon fill="none" points="1390.13,798,1387.2755,779.2423,1376.5918,784.7065,1390.13,798" style="stroke:#2563EB;stroke-width:1;"/></g><!--link CWiperExampleService to IVSS_SetIsFrontActive--><g class="link" data-entity-1="CWiperExampleService" data-entity-2="IVSS_SetIsFrontActive" data-source-line="99" data-uid="lnk25" id="link_CWiperExampleService_IVSS_SetIsFrontActive"><path codeLine="99" d="M1297.59,344.76 C1377.88,394.05 1467.89,458.93 1534.5,534 C1607.64,616.43 1650.6953,723.1035 1670.9853,780.9835" fill="none" id="CWiperExampleService-to-IVSS_SetIsFrontActive" style="stroke:#2563EB;stroke-width:1;stroke-dasharray:7,7;"/><polygon fill="none" points="1676.94,797.97,1676.6475,778.9986,1665.3232,782.9684,1676.94,797.97" style="stroke:#2563EB;stroke-width:1;"/></g><!--link CWiperExampleService to IWiperComplexService--><g class="link" data-entity-1="CWiperExampleService" data-entity-2="IWiperComplexService" data-source-line="100" data-uid="lnk26" id="link_CWiperExampleService_IWiperComplexService"><path codeLine="100" d="M1297.88,297.31 C1447.37,344.92 1655.96,423.99 1816.5,534 C1928.24,610.57 2018.7955,723.7415 2062.7155,783.2015" fill="none" id="CWiperExampleService-to-IWiperComplexService" style="stroke:#2563EB;stroke-width:1;stroke-dasharray:7,7;"/><polygon fill="none" points="2073.41,797.68,2067.5417,779.6367,2057.8893,786.7663,2073.41,797.68" style="stroke:#2563EB;stroke-width:1;"/></g><!--reverse link CWiperExampleService to CConsole--><g class="link" data-entity-1="CWiperExampleService" data-entity-2="CConsole" data-source-line="101" data-uid="lnk28" id="link_CWiperExampleService_CConsole"><path codeLine="101" d="M903.4998,278.1408 C648.0498,325.3508 226.72,417.95 118.5,534 C45.84,611.92 47.46,751.78 51.31,806.83" fill="none" id="CWiperExampleService-backto-CConsole" style="stroke:#2563EB;stroke-width:1;"/><polygon fill="#2563EB" points="915.3,275.96,908.673,273.117,903.4998,278.1408,910.1268,280.9838,915.3,275.96" style="stroke:#2563EB;stroke-width:1;"/><text fill="#000000" font-family="sans-serif" font-size="13" lengthAdjust="spacing" textLength="58.5254" x="140.5" y="522.4951">mConsole</text></g><!--SRC=[hLNVRzem47xdhx0qQQAhg4gxTPqV9W5D9gHDdPggUqGcEHAlneviGtzitT- -inF0PIcbT2_8t7VttUVptSM09GPAffbLcb3QQfbhBjt_AHcpz3hNQYQpWHA8lebFuruy23nCmJ9rmsLE9amO291KC6DY9Mt2xu5qtmTGYRGiXsRGSYi2wAIrpab-jGZfhokBulWaZXsYT0QwjXvzE3cE-cXrXBMjs-sU7driFGIyN5hG4vP2C_TPF-h5qOxSzMMRcUF3-DFEgdjQgvl78Mkbwbch-NXcOPWgwUjv-A-onDu981fIosGkeDLQA3RPtAjULMTuFlw9VWEKfPNm827xSyKpCfJSSYOmHnjp6UkYAPsT6bGWyxV4c6NiXETxGMHIp2psa6pNHXyOLTw9PNPco1UeJ-qzujd3SB3d9M3tSYM_gGpQTNne8-1-7Vy3Ld1vmRanb5v1mLC1bFPLTaVf3s2s04tf1UCo0JtdTLS4LRXAaX6cFGEB4Y4RHNEGzb4r0hGzLbYgEHEpBGLmcPc2WyZSkNHIdFZDKfn7imnVak155k_nAa4NmFHcGKFZV7gfvNDOIFA5MCF-GtLYxPR5CsgyqrDo0d2J7fzleAQbWDlrH24MQbdakTGypq5xDzERODnbeS4KIcJjPQ9glGsyKtJB75d8jT-4-EZzFqz3EqvdmsnkEvcxpENs_VhSW6tJPbkyFNfrjdgvZjVZ6PY5ogrYOfwreceetNG4rMcPQZf2pRXs5ZSB0C_hjGvDfNOTT9SDiQ1w2nTNMmSDy9cDmgK_hG_EYCti1BYMnX84xBsPLIuoacmiAb7eUtmqSlvExdUyCJSMP0hBqdW55eSqBL2qSag0PNUZLAZqcbBBfp0gLPNpApDs_TelZKsiAaiCnIbgd9-3Wz-VguPw_0tRuBtjrm4f6py8BwNUkFTNILQh_lK9WZs-IX3EpUjJXDivp17CtOOauLh5w8OjsnpyhjCXoowdopx_2m00]--></g></svg>