<svg xmlns="http://www.w3.org/2000/svg" xmlns:xlink="http://www.w3.org/1999/xlink" contentStyleType="text/css" data-diagram-type="CLASS" height="795px" preserveAspectRatio="none" style="width:2011px;height:795px;background:#FFFFFF;" version="1.1" viewBox="0 0 2011 795" width="2011px" zoomAndPan="magnify"><defs/><g><!--cluster vss--><g class="cluster" data-entity="vss" data-source-line="16" data-uid="ent0004" id="cluster_vss"><path d="M8.5,295 L32.8584,295 A3.75,3.75 0 0 1 35.3584,297.5 L42.3584,318.6094 L1531.5,318.6094 A2.5,2.5 0 0 1 1534,321.1094 L1534,785.5 A2.5,2.5 0 0 1 1531.5,788 L8.5,788 A2.5,2.5 0 0 1 6,785.5 L6,297.5 A2.5,2.5 0 0 1 8.5,295" fill="none" style="stroke:#000000;stroke-width:1.5;"/><line style="stroke:#000000;stroke-width:1.5;" x1="6" x2="42.3584" y1="318.6094" y2="318.6094"/><text fill="#000000" font-family="sans-serif" font-size="14" font-weight="bold" lengthAdjust="spacing" textLength="23.3584" x="10" y="311.5332">vss</text></g><!--cluster Vehicle--><g class="cluster" data-entity="Vehicle" data-source-line="16" data-uid="ent0005" id="cluster_Vehicle"><path d="M32.5,339 L82.5273,339 A3.75,3.75 0 0 1 85.0273,341.5 L92.0273,362.6094 L1507.5,362.6094 A2.5,2.5 0 0 1 1510,365.1094 L1510,761.5 A2.5,2.5 0 0 1 1507.5,764 L32.5,764 A2.5,2.5 0 0 1 30,761.5 L30,341.5 A2.5,2.5 0 0 1 32.5,339" fill="none" style="stroke:#000000;stroke-width:1.5;"/><line style="stroke:#000000;stroke-width:1.5;" x1="30" x2="92.0273" y1="362.6094" y2="362.6094"/><text fill="#000000" font-family="sans-serif" font-size="14" font-weight="bold" lengthAdjust="spacing" textLength="49.0273" x="34" y="355.5332">Vehicle</text></g><!--cluster Chassis--><g class="cluster" data-entity="Chassis" data-source-line="16" data-uid="ent0006" id="cluster_Chassis"><path d="M56.5,383 L111.1963,383 A3.75,3.75 0 0 1 113.6963,385.5 L120.6963,406.6094 L1483.5,406.6094 A2.5,2.5 0 0 1 1486,409.1094 L1486,737.5 A2.5,2.5 0 0 1 1483.5,740 L56.5,740 A2.5,2.5 0 0 1 54,737.5 L54,385.5 A2.5,2.5 0 0 1 56.5,383" fill="none" style="stroke:#000000;stroke-width:1.5;"/><line style="stroke:#000000;stroke-width:1.5;" x1="54" x2="120.6963" y1="406.6094" y2="406.6094"/><text fill="#000000" font-family="sans-serif" font-size="14" font-weight="bold" lengthAdjust="spacing" textLength="53.6963" x="58" y="399.5332">Chassis</text></g><!--cluster Door--><g class="cluster" data-entity="Door" data-source-line="16" data-uid="ent0007" id="cluster_Door"><path d="M80.5,427 L114.1621,427 A3.75,3.75 0 0 1 116.6621,429.5 L123.6621,450.6094 L1459.5,450.6094 A2.5,2.5 0 0 1 1462,453.1094 L1462,713.5 A2.5,2.5 0 0 1 1459.5,716 L80.5,716 A2.5,2.5 0 0 1 78,713.5 L78,429.5 A2.5,2.5 0 0 1 80.5,427" fill="none" style="stroke:#000000;stroke-width:1.5;"/><line style="stroke:#000000;stroke-width:1.5;" x1="78" x2="123.6621" y1="450.6094" y2="450.6094"/><text fill="#000000" font-family="sans-serif" font-size="14" font-weight="bold" lengthAdjust="spacing" textLength="32.6621" x="82" y="443.5332">Door</text></g><!--cluster Axle01--><g class="cluster" data-entity="Axle01" data-source-line="16" data-uid="ent0008" id="cluster_Axle01"><path d="M104.5,471 L150.6445,471 A3.75,3.75 0 0 1 153.1445,473.5 L160.1445,494.6094 L1435.5,494.6094 A2.5,2.5 0 0 1 1438,497.1094 L1438,689.5 A2.5,2.5 0 0 1 1435.5,692 L104.5,692 A2.5,2.5 0 0 1 102,689.5 L102,473.5 A2.5,2.5 0 0 1 104.5,471" fill="none" style="stroke:#000000;stroke-width:1.5;"/><line style="stroke:#000000;stroke-width:1.5;" x1="102" x2="160.1445" y1="494.6094" y2="494.6094"/><text fill="#000000" font-family="sans-serif" font-size="14" font-weight="bold" lengthAdjust="spacing" textLength="45.1445" x="106" y="487.5332">Axle01</text></g><!--cluster RightService--><g class="cluster" data-entity="RightService" data-source-line="16" data-uid="ent0009" id="cluster_RightService"><path d="M128.5,515 L215.0859,515 A3.75,3.75 0 0 1 217.5859,517.5 L224.5859,538.6094 L1161.5,538.6094 A2.5,2.5 0 0 1 1164,541.1094 L1164,665.5 A2.5,2.5 0 0 1 1161.5,668 L128.5,668 A2.5,2.5 0 0 1 126,665.5 L126,517.5 A2.5,2.5 0 0 1 128.5,515" fill="none" style="stroke:#000000;stroke-width:1.5;"/><line style="stroke:#000000;stroke-width:1.5;" x1="126" x2="224.5859" y1="538.6094" y2="538.6094"/><text fill="#000000" font-family="sans-serif" font-size="14" font-weight="bold" lengthAdjust="spacing" textLength="85.5859" x="130" y="531.5332">RightService</text></g><!--cluster RightDevice--><g class="cluster" data-entity="RightDevice" data-source-line="21" data-uid="ent0011" id="cluster_RightDevice"><path d="M1190.5,532.5 L1272.4102,532.5 A3.75,3.75 0 0 1 1274.9102,535 L1281.9102,556.1094 L1411.5,556.1094 A2.5,2.5 0 0 1 1414,558.6094 L1414,648 A2.5,2.5 0 0 1 1411.5,650.5 L1190.5,650.5 A2.5,2.5 0 0 1 1188,648 L1188,535 A2.5,2.5 0 0 1 1190.5,532.5" fill="none" style="stroke:#000000;stroke-width:1.5;"/><line style="stroke:#000000;stroke-width:1.5;" x1="1188" x2="1281.9102" y1="556.1094" y2="556.1094"/><text fill="#000000" font-family="sans-serif" font-size="14" font-weight="bold" lengthAdjust="spacing" textLength="80.9102" x="1192" y="549.0332">RightDevice</text></g><!--cluster sdv--><g class="cluster" data-entity="sdv" data-source-line="38" data-uid="ent0015" id="cluster_sdv"><path d="M1560.5,506.5 L1585.624,506.5 A3.75,3.75 0 0 1 1588.124,509 L1595.124,530.1094 L2001.5,530.1094 A2.5,2.5 0 0 1 2004,532.6094 L2004,674 A2.5,2.5 0 0 1 2001.5,676.5 L1560.5,676.5 A2.5,2.5 0 0 1 1558,674 L1558,509 A2.5,2.5 0 0 1 1560.5,506.5" fill="none" style="stroke:#000000;stroke-width:1.5;"/><line style="stroke:#000000;stroke-width:1.5;" x1="1558" x2="1595.124" y1="530.1094" y2="530.1094"/><text fill="#000000" font-family="sans-serif" font-size="14" font-weight="bold" lengthAdjust="spacing" textLength="24.124" x="1562" y="523.0332">sdv</text></g><!--class IVSS_SetIsOpen_Event--><g class="entity" data-entity="IVSS_SetIsOpen_Event" data-source-line="16" data-uid="ent0003" id="entity_IVSS_SetIsOpen_Event"><rect fill="#F1F1F1" height="65.6094" rx="2.5" ry="2.5" style="stroke:#181818;stroke-width:0.5;" width="198.7715" x="142.5" y="568.5"/><ellipse cx="165.3051" cy="584.5" fill="#B4A7E5" rx="11" ry="11" style="stroke:#181818;stroke-width:1;"/><path d="M166.2583,581.1406 L166.2583,587.7969 L167.977,587.7969 Q168.5864,587.7969 168.852,588.0313 Q169.1176,588.2656 169.1176,588.6563 Q169.1176,589.0313 168.852,589.2656 Q168.5864,589.5 167.977,589.5 L162.8364,589.5 Q162.227,589.5 161.9614,589.2656 Q161.6958,589.0313 161.6958,588.6406 Q161.6958,588.2656 161.9614,588.0313 Q162.227,587.7969 162.8364,587.7969 L164.5551,587.7969 L164.5551,581.1406 L162.8364,581.1406 Q162.227,581.1406 161.9614,580.9063 Q161.6958,580.6719 161.6958,580.2813 Q161.6958,579.9063 161.9614,579.6719 Q162.227,579.4375 162.8364,579.4375 L167.977,579.4375 Q168.5864,579.4375 168.852,579.6719 Q169.1176,579.9063 169.1176,580.2813 Q169.1176,580.6719 168.852,580.9063 Q168.5864,581.1406 167.977,581.1406 L166.2583,581.1406 Z " fill="#000000"/><text fill="#000000" font-family="sans-serif" font-size="14" font-style="italic" lengthAdjust="spacing" textLength="149.4268" x="181.0396" y="590.2285">IVSS_SetIsOpen_Event</text><line style="stroke:#181818;stroke-width:0.5;" x1="143.5" x2="340.2715" y1="600.5" y2="600.5"/><line style="stroke:#181818;stroke-width:0.5;" x1="143.5" x2="340.2715" y1="608.5" y2="608.5"/><text fill="#000000" font-family="sans-serif" font-size="14" font-style="italic" lengthAdjust="spacing" textLength="186.7715" x="148.5" y="627.0332">void SetIsOpenR1(bool value)</text></g><!--class IVSS_GetIsOpen--><g class="entity" data-entity="IVSS_GetIsOpen" data-source-line="26" data-uid="ent0012" id="entity_IVSS_GetIsOpen"><rect fill="#F1F1F1" height="100.8281" rx="2.5" ry="2.5" style="stroke:#181818;stroke-width:0.5;" width="569.9697" x="377" y="551"/><ellipse cx="604.0386" cy="567" fill="#B4A7E5" rx="11" ry="11" style="stroke:#181818;stroke-width:1;"/><path d="M604.9917,563.6406 L604.9917,570.2969 L606.7104,570.2969 Q607.3198,570.2969 607.5854,570.5313 Q607.8511,570.7656 607.8511,571.1563 Q607.8511,571.5313 607.5854,571.7656 Q607.3198,572 606.7104,572 L601.5698,572 Q600.9604,572 600.6948,571.7656 Q600.4292,571.5313 600.4292,571.1406 Q600.4292,570.7656 600.6948,570.5313 Q600.9604,570.2969 601.5698,570.2969 L603.2886,570.2969 L603.2886,563.6406 L601.5698,563.6406 Q600.9604,563.6406 600.6948,563.4063 Q600.4292,563.1719 600.4292,562.7813 Q600.4292,562.4063 600.6948,562.1719 Q600.9604,561.9375 601.5698,561.9375 L606.7104,561.9375 Q607.3198,561.9375 607.5854,562.1719 Q607.8511,562.4063 607.8511,562.7813 Q607.8511,563.1719 607.5854,563.4063 Q607.3198,563.6406 606.7104,563.6406 L604.9917,563.6406 Z " fill="#000000"/><text fill="#000000" font-family="sans-serif" font-size="14" font-style="italic" lengthAdjust="spacing" textLength="107.3926" x="624.5386" y="572.7285">IVSS_GetIsOpen</text><line style="stroke:#181818;stroke-width:0.5;" x1="378" x2="945.9697" y1="583" y2="583"/><line style="stroke:#181818;stroke-width:0.5;" x1="378" x2="945.9697" y1="591" y2="591"/><text fill="#000000" font-family="sans-serif" font-size="14" font-style="italic" lengthAdjust="spacing" textLength="144.7373" x="383" y="609.5332">bool GetIsOpen() const</text><text fill="#000000" font-family="sans-serif" font-size="14" font-style="italic" lengthAdjust="spacing" textLength="545.5215" x="383" y="627.1426">void RegisterOnSignalChangeOfRightDoorIsOpen01(IVSS_SetIsOpen_Event* callback)</text><text fill="#000000" font-family="sans-serif" font-size="14" font-style="italic" lengthAdjust="spacing" textLength="557.9697" x="383" y="644.752">void UnregisterOnSignalChangeOfRightDoorIsOpen01(IVSS_SetIsOpen_Event* callback)</text></g><!--class IVSS_SetLock--><g class="entity" data-entity="IVSS_SetLock" data-source-line="33" data-uid="ent0013" id="entity_IVSS_SetLock"><rect fill="#F1F1F1" height="65.6094" rx="2.5" ry="2.5" style="stroke:#181818;stroke-width:0.5;" width="166.0957" x="982" y="568.5"/><ellipse cx="1016.7191" cy="584.5" fill="#B4A7E5" rx="11" ry="11" style="stroke:#181818;stroke-width:1;"/><path d="M1017.6723,581.1406 L1017.6723,587.7969 L1019.391,587.7969 Q1020.0004,587.7969 1020.266,588.0313 Q1020.5316,588.2656 1020.5316,588.6563 Q1020.5316,589.0313 1020.266,589.2656 Q1020.0004,589.5 1019.391,589.5 L1014.2504,589.5 Q1013.641,589.5 1013.3754,589.2656 Q1013.1098,589.0313 1013.1098,588.6406 Q1013.1098,588.2656 1013.3754,588.0313 Q1013.641,587.7969 1014.2504,587.7969 L1015.9691,587.7969 L1015.9691,581.1406 L1014.2504,581.1406 Q1013.641,581.1406 1013.3754,580.9063 Q1013.1098,580.6719 1013.1098,580.2813 Q1013.1098,579.9063 1013.3754,579.6719 Q1013.641,579.4375 1014.2504,579.4375 L1019.391,579.4375 Q1020.0004,579.4375 1020.266,579.6719 Q1020.5316,579.9063 1020.5316,580.2813 Q1020.5316,580.6719 1020.266,580.9063 Q1020.0004,581.1406 1019.391,581.1406 L1017.6723,581.1406 Z " fill="#000000"/><text fill="#000000" font-family="sans-serif" font-size="14" font-style="italic" lengthAdjust="spacing" textLength="90.2754" x="1035.1012" y="590.2285">IVSS_SetLock</text><line style="stroke:#181818;stroke-width:0.5;" x1="983" x2="1147.0957" y1="600.5" y2="600.5"/><line style="stroke:#181818;stroke-width:0.5;" x1="983" x2="1147.0957" y1="608.5" y2="608.5"/><text fill="#000000" font-family="sans-serif" font-size="14" font-style="italic" lengthAdjust="spacing" textLength="154.0957" x="988" y="627.0332">bool SetLock(bool value)</text></g><!--class IVSS_WriteIsOpen_Event--><g class="entity" data-entity="IVSS_WriteIsOpen_Event" data-source-line="21" data-uid="ent0010" id="entity_IVSS_WriteIsOpen_Event"><rect fill="#F1F1F1" height="65.6094" rx="2.5" ry="2.5" style="stroke:#181818;stroke-width:0.5;" width="193.0752" x="1204.5" y="568.5"/><ellipse cx="1219.5" cy="584.5" fill="#B4A7E5" rx="11" ry="11" style="stroke:#181818;stroke-width:1;"/><path d="M1220.4531,581.1406 L1220.4531,587.7969 L1222.1719,587.7969 Q1222.7813,587.7969 1223.0469,588.0313 Q1223.3125,588.2656 1223.3125,588.6563 Q1223.3125,589.0313 1223.0469,589.2656 Q1222.7813,589.5 1222.1719,589.5 L1217.0313,589.5 Q1216.4219,589.5 1216.1563,589.2656 Q1215.8906,589.0313 1215.8906,588.6406 Q1215.8906,588.2656 1216.1563,588.0313 Q1216.4219,587.7969 1217.0313,587.7969 L1218.75,587.7969 L1218.75,581.1406 L1217.0313,581.1406 Q1216.4219,581.1406 1216.1563,580.9063 Q1215.8906,580.6719 1215.8906,580.2813 Q1215.8906,579.9063 1216.1563,579.6719 Q1216.4219,579.4375 1217.0313,579.4375 L1222.1719,579.4375 Q1222.7813,579.4375 1223.0469,579.6719 Q1223.3125,579.9063 1223.3125,580.2813 Q1223.3125,580.6719 1223.0469,580.9063 Q1222.7813,581.1406 1222.1719,581.1406 L1220.4531,581.1406 Z " fill="#000000"/><text fill="#000000" font-family="sans-serif" font-size="14" font-style="italic" lengthAdjust="spacing" textLength="161.0752" x="1233.5" y="590.2285">IVSS_WriteIsOpen_Event</text><line style="stroke:#181818;stroke-width:0.5;" x1="1205.5" x2="1396.5752" y1="600.5" y2="600.5"/><line style="stroke:#181818;stroke-width:0.5;" x1="1205.5" x2="1396.5752" y1="608.5" y2="608.5"/><text fill="#000000" font-family="sans-serif" font-size="14" font-style="italic" lengthAdjust="spacing" textLength="180.5234" x="1210.5" y="627.0332">void WriteIsOpen(bool value)</text></g><!--class CSdvObject--><g class="entity" data-entity="CSdvObject" data-source-line="38" data-uid="ent0014" id="entity_CSdvObject"><rect fill="#F1F1F1" height="118.4375" rx="2.5" ry="2.5" style="stroke:#181818;stroke-width:0.5;" width="412.7705" x="1574.5" y="542.5"/><ellipse cx="1739.2871" cy="558.5" fill="#ADD1B2" rx="11" ry="11" style="stroke:#181818;stroke-width:1;"/><path d="M1742.0527,554.375 Q1742.209,554.1563 1742.3965,554.0469 Q1742.584,553.9375 1742.8027,553.9375 Q1743.1777,553.9375 1743.4121,554.1953 Q1743.6465,554.4531 1743.6465,555.0625 L1743.6465,556.5156 Q1743.6465,557.125 1743.4121,557.3906 Q1743.1777,557.6563 1742.8027,557.6563 Q1742.459,557.6563 1742.2559,557.4531 Q1742.0527,557.2656 1741.9434,556.75 Q1741.8965,556.3906 1741.709,556.2031 Q1741.3809,555.8281 1740.7715,555.6094 Q1740.1621,555.3906 1739.5371,555.3906 Q1738.7715,555.3906 1738.1387,555.7188 Q1737.5059,556.0469 1737.0137,556.7969 Q1736.5215,557.5469 1736.5215,558.5781 L1736.5215,559.6719 Q1736.5215,560.9063 1737.4121,561.7266 Q1738.3027,562.5469 1739.8965,562.5469 Q1740.834,562.5469 1741.4902,562.2969 Q1741.8809,562.1406 1742.3027,561.7031 Q1742.5684,561.4375 1742.7168,561.3594 Q1742.8652,561.2813 1743.0684,561.2813 Q1743.3965,561.2813 1743.6543,561.5391 Q1743.9121,561.7969 1743.9121,562.1406 Q1743.9121,562.4844 1743.5684,562.8906 Q1743.0684,563.4688 1742.2715,563.7969 Q1741.1934,564.25 1739.8965,564.25 Q1738.3809,564.25 1737.1777,563.625 Q1736.1934,563.125 1735.5059,562.0547 Q1734.8184,560.9844 1734.8184,559.7031 L1734.8184,558.5469 Q1734.8184,557.2188 1735.4355,556.0703 Q1736.0527,554.9219 1737.1465,554.3047 Q1738.2402,553.6875 1739.4746,553.6875 Q1740.209,553.6875 1740.8574,553.8516 Q1741.5059,554.0156 1742.0527,554.375 Z " fill="#000000"/><text fill="#000000" font-family="sans-serif" font-size="14" lengthAdjust="spacing" textLength="74.6963" x="1759.7871" y="564.2285">CSdvObject</text><line style="stroke:#181818;stroke-width:0.5;" x1="1575.5" x2="1986.2705" y1="574.5" y2="574.5"/><line style="stroke:#181818;stroke-width:0.5;" x1="1575.5" x2="1986.2705" y1="582.5" y2="582.5"/><ellipse cx="1585.5" cy="596.8047" fill="#84BE84" rx="3" ry="3" style="stroke:#038048;stroke-width:1;"/><text fill="#000000" font-family="sans-serif" font-size="14" lengthAdjust="spacing" text-decoration="underline" textLength="336.9365" x="1594.5" y="601.0332">sdv::sequence&lt;sdv::u8string&gt; GetClassAliasesStatic()</text><ellipse cx="1585.5" cy="614.4141" fill="#84BE84" rx="3" ry="3" style="stroke:#038048;stroke-width:1;"/><text fill="#000000" font-family="sans-serif" font-size="14" lengthAdjust="spacing" text-decoration="underline" textLength="272.3301" x="1594.5" y="618.6426">sdv::u8string GetDefaultObjectNameStatic()</text><ellipse cx="1585.5" cy="632.0234" fill="#84BE84" rx="3" ry="3" style="stroke:#038048;stroke-width:1;"/><text fill="#000000" font-family="sans-serif" font-size="14" lengthAdjust="spacing" text-decoration="underline" textLength="143.9648" x="1594.5" y="636.252">bool IsSingletonStatic()</text><ellipse cx="1585.5" cy="649.6328" fill="#84BE84" rx="3" ry="3" style="stroke:#038048;stroke-width:1;"/><text fill="#000000" font-family="sans-serif" font-size="14" lengthAdjust="spacing" text-decoration="underline" textLength="386.7705" x="1594.5" y="653.8613">sdv::sequence&lt;sdv::u8string&gt; GetObjectDependenciesStatic()</text></g><!--class CBasicServiceFrontDoorRight--><g class="entity" data-entity="CBasicServiceFrontDoorRight" data-source-line="2" data-uid="ent0002" id="entity_CBasicServiceFrontDoorRight"><rect fill="#F1F1F1" height="224.0938" rx="2.5" ry="2.5" style="stroke:#181818;stroke-width:0.5;" width="899.8721" x="615" y="7"/><ellipse cx="967.3208" cy="23" fill="#ADD1B2" rx="11" ry="11" style="stroke:#181818;stroke-width:1;"/><path d="M970.0864,18.875 Q970.2427,18.6563 970.4302,18.5469 Q970.6177,18.4375 970.8364,18.4375 Q971.2114,18.4375 971.4458,18.6953 Q971.6802,18.9531 971.6802,19.5625 L971.6802,21.0156 Q971.6802,21.625 971.4458,21.8906 Q971.2114,22.1563 970.8364,22.1563 Q970.4927,22.1563 970.2896,21.9531 Q970.0864,21.7656 969.9771,21.25 Q969.9302,20.8906 969.7427,20.7031 Q969.4146,20.3281 968.8052,20.1094 Q968.1958,19.8906 967.5708,19.8906 Q966.8052,19.8906 966.1724,20.2188 Q965.5396,20.5469 965.0474,21.2969 Q964.5552,22.0469 964.5552,23.0781 L964.5552,24.1719 Q964.5552,25.4063 965.4458,26.2266 Q966.3364,27.0469 967.9302,27.0469 Q968.8677,27.0469 969.5239,26.7969 Q969.9146,26.6406 970.3364,26.2031 Q970.6021,25.9375 970.7505,25.8594 Q970.8989,25.7813 971.1021,25.7813 Q971.4302,25.7813 971.688,26.0391 Q971.9458,26.2969 971.9458,26.6406 Q971.9458,26.9844 971.6021,27.3906 Q971.1021,27.9688 970.3052,28.2969 Q969.2271,28.75 967.9302,28.75 Q966.4146,28.75 965.2114,28.125 Q964.2271,27.625 963.5396,26.5547 Q962.8521,25.4844 962.8521,24.2031 L962.8521,23.0469 Q962.8521,21.7188 963.4692,20.5703 Q964.0864,19.4219 965.1802,18.8047 Q966.2739,18.1875 967.5083,18.1875 Q968.2427,18.1875 968.8911,18.3516 Q969.5396,18.5156 970.0864,18.875 Z " fill="#000000"/><text fill="#000000" font-family="sans-serif" font-size="14" lengthAdjust="spacing" textLength="186.7305" x="987.8208" y="28.7285">CBasicServiceFrontDoorRight</text><line style="stroke:#181818;stroke-width:0.5;" x1="616" x2="1513.8721" y1="39" y2="39"/><rect fill="none" height="6" style="stroke:#C82930;stroke-width:1;" width="6" x="623" y="50.3047"/><text fill="#000000" font-family="sans-serif" font-size="14" lengthAdjust="spacing" textLength="168.0957" x="635" y="57.5332">bool m_rightDoorIsOpen01</text><rect fill="none" height="6" style="stroke:#C82930;stroke-width:1;" width="6" x="623" y="67.9141"/><text fill="#000000" font-family="sans-serif" font-size="14" lengthAdjust="spacing" textLength="358.7158" x="635" y="75.1426">mutable std::mutex m_rightDoorIsOpen01MutexCallbacks</text><rect fill="none" height="6" style="stroke:#C82930;stroke-width:1;" width="6" x="623" y="85.5234"/><text fill="#000000" font-family="sans-serif" font-size="14" lengthAdjust="spacing" textLength="734.5762" x="635" y="92.752">std::set&lt;vss::Vehicle::Chassis::Door::Axle01::RightService::IVSS_SetIsOpen_Event*&gt; m_rightDoorIsOpen01Callbacks</text><rect fill="none" height="6" style="stroke:#C82930;stroke-width:1;" width="6" x="623" y="103.1328"/><text fill="#000000" font-family="sans-serif" font-size="14" lengthAdjust="spacing" textLength="488.6328" x="635" y="110.3613">vss::Vehicle::Chassis::Door::Axle01::RightDevice::IVSS_WriteLock* m_ptrLock</text><line style="stroke:#181818;stroke-width:0.5;" x1="616" x2="1513.8721" y1="117.4375" y2="117.4375"/><ellipse cx="626" cy="131.7422" fill="#84BE84" rx="3" ry="3" style="stroke:#038048;stroke-width:1;"/><text fill="#000000" font-family="sans-serif" font-size="14" font-style="italic" lengthAdjust="spacing" textLength="186.7715" x="635" y="135.9707">void SetIsOpenR1(bool value)</text><ellipse cx="626" cy="149.3516" fill="#84BE84" rx="3" ry="3" style="stroke:#038048;stroke-width:1;"/><text fill="#000000" font-family="sans-serif" font-size="14" font-style="italic" lengthAdjust="spacing" textLength="154.0957" x="635" y="153.5801">bool SetLock(bool value)</text><ellipse cx="626" cy="166.9609" fill="#84BE84" rx="3" ry="3" style="stroke:#038048;stroke-width:1;"/><text fill="#000000" font-family="sans-serif" font-size="14" font-style="italic" lengthAdjust="spacing" textLength="144.7373" x="635" y="171.1895">bool GetIsOpen() const</text><ellipse cx="626" cy="184.5703" fill="#84BE84" rx="3" ry="3" style="stroke:#038048;stroke-width:1;"/><text fill="#000000" font-family="sans-serif" font-size="14" font-style="italic" lengthAdjust="spacing" textLength="180.5234" x="635" y="188.7988">void WriteIsOpen(bool value)</text><ellipse cx="626" cy="202.1797" fill="#84BE84" rx="3" ry="3" style="stroke:#038048;stroke-width:1;"/><text fill="#000000" font-family="sans-serif" font-size="14" font-style="italic" lengthAdjust="spacing" textLength="861.4238" x="635" y="206.4082">void RegisterOnSignalChangeOfRightDoorIsOpen01(vss::Vehicle::Chassis::Door::Axle01::RightService::IVSS_SetIsOpen_Event* callback)</text><ellipse cx="626" cy="219.7891" fill="#84BE84" rx="3" ry="3" style="stroke:#038048;stroke-width:1;"/><text fill="#000000" font-family="sans-serif" font-size="14" font-style="italic" lengthAdjust="spacing" textLength="873.8721" x="635" y="224.0176">void UnregisterOnSignalChangeOfRightDoorIsOpen01(vss::Vehicle::Chassis::Door::Axle01::RightService::IVSS_SetIsOpen_Event* callback)</text></g><!--link CBasicServiceFrontDoorRight to CSdvObject--><g class="link" data-entity-1="CBasicServiceFrontDoorRight" data-entity-2="CSdvObject" data-source-line="46" data-uid="lnk16" id="link_CBasicServiceFrontDoorRight_CSdvObject"><path codeLine="46" d="M1317.63,231.15 C1350.79,248.54 1383.73,267.32 1414,287 C1532.19,363.87 1640.6297,462.5774 1709.9397,529.8074" fill="none" id="CBasicServiceFrontDoorRight-to-CSdvObject" style="stroke:#181818;stroke-width:1;"/><polygon fill="none" points="1722.86,542.34,1714.1172,525.5007,1705.7622,534.1142,1722.86,542.34" style="stroke:#181818;stroke-width:1;"/><text fill="#000000" font-family="sans-serif" font-size="13" lengthAdjust="spacing" textLength="42.6309" x="1397" y="275.4951">Inherits</text></g><!--link CBasicServiceFrontDoorRight to IVSS_GetIsOpen--><g class="link" data-entity-1="CBasicServiceFrontDoorRight" data-entity-2="IVSS_GetIsOpen" data-source-line="47" data-uid="lnk17" id="link_CBasicServiceFrontDoorRight_IVSS_GetIsOpen"><path codeLine="47" d="M971.78,231.14 C887.28,331.9 778.1863,461.968 715.3063,536.948" fill="none" id="CBasicServiceFrontDoorRight-to-IVSS_GetIsOpen" style="stroke:#181818;stroke-width:1;stroke-dasharray:7,7;"/><polygon fill="none" points="703.74,550.74,719.9037,540.8034,710.709,533.0925,703.74,550.74" style="stroke:#181818;stroke-width:1;"/><text fill="#000000" font-family="sans-serif" font-size="13" lengthAdjust="spacing" textLength="67.1899" x="946" y="275.4951">Implements</text></g><!--link CBasicServiceFrontDoorRight to IVSS_SetIsOpen_Event--><g class="link" data-entity-1="CBasicServiceFrontDoorRight" data-entity-2="IVSS_SetIsOpen_Event" data-source-line="48" data-uid="lnk18" id="link_CBasicServiceFrontDoorRight_IVSS_SetIsOpen_Event"><path codeLine="48" d="M614.9,191.87 C502.49,217.38 401.74,249.29 359,287 C274.05,361.95 252.4116,486.6984 246.0716,550.4384" fill="none" id="CBasicServiceFrontDoorRight-to-IVSS_SetIsOpen_Event" style="stroke:#181818;stroke-width:1;stroke-dasharray:7,7;"/><polygon fill="none" points="244.29,568.35,252.0421,551.0323,240.1011,549.8445,244.29,568.35" style="stroke:#181818;stroke-width:1;"/><text fill="#000000" font-family="sans-serif" font-size="13" lengthAdjust="spacing" textLength="67.1899" x="398" y="275.4951">Implements</text></g><!--link CBasicServiceFrontDoorRight to IVSS_WriteIsOpen_Event--><g class="link" data-entity-1="CBasicServiceFrontDoorRight" data-entity-2="IVSS_WriteIsOpen_Event" data-source-line="49" data-uid="lnk19" id="link_CBasicServiceFrontDoorRight_IVSS_WriteIsOpen_Event"><path codeLine="49" d="M1133.49,231.22 C1144.09,249.64 1154.62,268.7 1164,287 C1215.33,387.17 1259.1243,494.0799 1281.8443,551.5699" fill="none" id="CBasicServiceFrontDoorRight-to-IVSS_WriteIsOpen_Event" style="stroke:#181818;stroke-width:1;stroke-dasharray:7,7;"/><polygon fill="none" points="1288.46,568.31,1287.4244,549.3646,1276.2643,553.7751,1288.46,568.31" style="stroke:#181818;stroke-width:1;"/><text fill="#000000" font-family="sans-serif" font-size="13" lengthAdjust="spacing" textLength="67.1899" x="1160" y="275.4951">Implements</text></g><!--link CBasicServiceFrontDoorRight to IVSS_SetLock--><g class="link" data-entity-1="CBasicServiceFrontDoorRight" data-entity-2="IVSS_SetLock" data-source-line="50" data-uid="lnk20" id="link_CBasicServiceFrontDoorRight_IVSS_SetLock"><path codeLine="50" d="M1065,231.14 C1065,340.5 1065,482.61 1065,550.35" fill="none" id="CBasicServiceFrontDoorRight-to-IVSS_SetLock" style="stroke:#181818;stroke-width:1;stroke-dasharray:7,7;"/><polygon fill="none" points="1065,568.35,1071,550.35,1059,550.35,1065,568.35" style="stroke:#181818;stroke-width:1;"/><text fill="#000000" font-family="sans-serif" font-size="13" lengthAdjust="spacing" textLength="67.1899" x="1066" y="275.4951">Implements</text></g><!--SRC=[nLLHJzim47xFhxZ75DIgxGPZ5aA3jDkAcdLge7j4RdAq7ewTsKx4nFZlivCMGQ5P1sLxYUBuk_lkpj_dW4O36ZEgg94A2F408EPKQmXEg6PnXAfWCNvKKfYUb6hCPdFZG3Vk0R1xGwVQA1gRMoWaIo12Cz2Z3CMuuq-bv51GdcFZCRhSjEYXZAysG7vQvlKR44kXpHh-RuePN21hivReCSwODgX68c8pGNamfsA6eykoJTTlbQdTyGkj2PdWdCKS2R4uhPdzuZ2475zpR7S8ASCM8oDaC8cYYxjvNFGB56O7OihvbCPNwqew5-g_5zKi9vTUg5N6nNQQ6phb2DeaXDW5NZy53jr6iCYi5w5bY5NTuRPgFtgAUfLrSx8UtkCgnUG4kcD9CgFSgyjuwxddGDX3kgGnmfPwkUSh-0jVFR-QnyrkMawDpROrd3l7hwcZxbg0vnjz8uF0Irox0SCM1RRKxBe9hhc2gmggNu5E2aiQ9SLe-XtZXxhGXXeMty9k2TBu8qSHus6voWyi4nEp8tTCWKjrp1dLgACoo6yydMGPvg9wU4bpRYhYBpJ5jQ5b_GCTsK2EHefwZff2AwuUshD9B8GzBBUQIytF4PhDNqUh8mDY3tEErZJwJ-6jbWr_iMSSOPfnJAssNfToHSYlILn_NVtJbfrbLWW_MBtaAVUyhvmASnuEeK2bcHJGQNNRtRtMUp-qYmWpQ1z0vntPsoTl3Y3eHsVWzXkU7mxEGCjSMSSdp4bocXkReE6TqeB2E1U6fKZ0hVopi05HV_aH-g9WjaLNYtSw2IiGV9OcogGfmVjlcoVCW6i55Kn2R-4j6nhBnAgVG91rkdjTRsXlhfpEB5E2NY0jW_f9eDV_3G00]--></g></svg>