<svg xmlns="http://www.w3.org/2000/svg" xmlns:xlink="http://www.w3.org/1999/xlink" contentStyleType="text/css" data-diagram-type="SEQUENCE" height="532px" preserveAspectRatio="none" style="width:879px;height:532px;background:#A2D3D6;" version="1.1" viewBox="0 0 879 532" width="879px" zoomAndPan="magnify"><defs/><g><rect fill="#A2D3D6" height="532" style="stroke:none;stroke-width:1;" width="879" x="0" y="0"/><g><title>CExample Control .Utility.</title><rect fill="#00A7AB" height="100.7031" style="stroke:#181818;stroke-width:1;" width="10" x="358.1309" y="69.9609"/></g><g><title>CExample Control .Utility.</title><rect fill="#00A7AB" height="57.3516" style="stroke:#181818;stroke-width:1;" width="10" x="358.1309" y="201.0156"/></g><g><title>CExample Control .Utility.</title><rect fill="#00A7AB" height="57.3516" style="stroke:#181818;stroke-width:1;" width="10" x="358.1309" y="288.7188"/></g><g><title>CExample Control .Utility.</title><rect fill="#00A7AB" height="101.7031" style="stroke:#181818;stroke-width:1;" width="10" x="358.1309" y="376.4219"/></g><g><title>CAppControl</title><rect fill="#BFBFBF" height="57.3516" style="stroke:#181818;stroke-width:1;" width="10" x="710.3579" y="406.7734"/></g><g><title>Example Application</title><rect fill="#000000" fill-opacity="0.00000" height="458.5156" width="8" x="71.4238" y="37.6094"/><line style="stroke:#181818;stroke-width:0.5;stroke-dasharray:5,5;" x1="75" x2="75" y1="37.6094" y2="496.125"/></g><g><title>CExample Control .Utility.</title><rect fill="#000000" fill-opacity="0.00000" height="458.5156" width="8" x="359.1309" y="37.6094"/><line style="stroke:#181818;stroke-width:0.5;stroke-dasharray:5,5;" x1="362.6138" x2="362.6138" y1="37.6094" y2="496.125"/></g><g><title>CAppControl</title><rect fill="#000000" fill-opacity="0.00000" height="458.5156" width="8" x="711.3579" y="37.6094"/><line style="stroke:#181818;stroke-width:0.5;stroke-dasharray:5,5;" x1="715.2822" x2="715.2822" y1="37.6094" y2="496.125"/></g><g class="participant participant-head" data-participant="EA"><rect fill="#00A7AB" height="31.6094" rx="2.5" ry="2.5" style="stroke:#181818;stroke-width:0.5;" width="140.8477" x="5" y="5"/><text fill="#000000" font-family="sans-serif" font-size="14" lengthAdjust="spacing" textLength="126.8477" x="12" y="26.5332">Example Application</text></g><g class="participant participant-tail" data-participant="EA"><rect fill="#00A7AB" height="31.6094" rx="2.5" ry="2.5" style="stroke:#181818;stroke-width:0.5;" width="140.8477" x="5" y="495.125"/><text fill="#000000" font-family="sans-serif" font-size="14" lengthAdjust="spacing" textLength="126.8477" x="12" y="516.6582">Example Application</text></g><g class="participant participant-head" data-participant="EC"><rect fill="#00A7AB" height="31.6094" rx="2.5" ry="2.5" style="stroke:#181818;stroke-width:0.5;" width="175.0342" x="275.6138" y="5"/><text fill="#000000" font-family="sans-serif" font-size="14" lengthAdjust="spacing" textLength="161.0342" x="282.6138" y="26.5332">CExample Control (Utility)</text></g><g class="participant participant-tail" data-participant="EC"><rect fill="#00A7AB" height="31.6094" rx="2.5" ry="2.5" style="stroke:#181818;stroke-width:0.5;" width="175.0342" x="275.6138" y="495.125"/><text fill="#000000" font-family="sans-serif" font-size="14" lengthAdjust="spacing" textLength="161.0342" x="282.6138" y="516.6582">CExample Control (Utility)</text></g><g class="participant participant-head" data-participant="AC"><rect fill="#BFBFBF" height="31.6094" rx="2.5" ry="2.5" style="stroke:#181818;stroke-width:0.5;" width="94.1514" x="668.2822" y="5"/><text fill="#000000" font-family="sans-serif" font-size="14" lengthAdjust="spacing" textLength="80.1514" x="675.2822" y="26.5332">CAppControl</text></g><g class="participant participant-tail" data-participant="AC"><rect fill="#BFBFBF" height="31.6094" rx="2.5" ry="2.5" style="stroke:#181818;stroke-width:0.5;" width="94.1514" x="668.2822" y="495.125"/><text fill="#000000" font-family="sans-serif" font-size="14" lengthAdjust="spacing" textLength="80.1514" x="675.2822" y="516.6582">CAppControl</text></g><g><title>CExample Control .Utility.</title><rect fill="#00A7AB" height="100.7031" style="stroke:#181818;stroke-width:1;" width="10" x="358.1309" y="69.9609"/></g><g><title>CExample Control .Utility.</title><rect fill="#00A7AB" height="57.3516" style="stroke:#181818;stroke-width:1;" width="10" x="358.1309" y="201.0156"/></g><g><title>CExample Control .Utility.</title><rect fill="#00A7AB" height="57.3516" style="stroke:#181818;stroke-width:1;" width="10" x="358.1309" y="288.7188"/></g><g><title>CExample Control .Utility.</title><rect fill="#00A7AB" height="101.7031" style="stroke:#181818;stroke-width:1;" width="10" x="358.1309" y="376.4219"/></g><g><title>CAppControl</title><rect fill="#BFBFBF" height="57.3516" style="stroke:#181818;stroke-width:1;" width="10" x="710.3579" y="406.7734"/></g><g class="message" data-participant-1="EA" data-participant-2="EC"><polygon fill="#181818" points="346.1309,65.9609,356.1309,69.9609,346.1309,73.9609,350.1309,69.9609" style="stroke:#181818;stroke-width:1;"/><line style="stroke:#181818;stroke-width:1;" x1="75.4238" x2="352.1309" y1="69.9609" y2="69.9609"/><text fill="#000000" font-family="sans-serif" font-size="13" lengthAdjust="spacing" textLength="194.3398" x="82.4238" y="65.1045">CExampleControl::StartTestRun()</text></g><g class="message" data-participant-1="EC" data-participant-2="EC"><line style="stroke:#181818;stroke-width:1;" x1="368.1309" x2="410.1309" y1="100.3125" y2="100.3125"/><line style="stroke:#181818;stroke-width:1;" x1="410.1309" x2="410.1309" y1="100.3125" y2="113.3125"/><line style="stroke:#181818;stroke-width:1;" x1="369.1309" x2="410.1309" y1="113.3125" y2="113.3125"/><polygon fill="#181818" points="379.1309,109.3125,369.1309,113.3125,379.1309,117.3125,375.1309,113.3125" style="stroke:#181818;stroke-width:1;"/><text fill="#000000" font-family="sans-serif" font-size="13" lengthAdjust="spacing" textLength="318.2271" x="375.1309" y="95.4561">Switch to simulation mode (Can't Load further services)</text></g><g class="message" data-participant-1="EC" data-participant-2="EC"><line style="stroke:#181818;stroke-width:1;" x1="368.1309" x2="410.1309" y1="143.6641" y2="143.6641"/><line style="stroke:#181818;stroke-width:1;" x1="410.1309" x2="410.1309" y1="143.6641" y2="156.6641"/><line style="stroke:#181818;stroke-width:1;" x1="369.1309" x2="410.1309" y1="156.6641" y2="156.6641"/><polygon fill="#181818" points="379.1309,152.6641,369.1309,156.6641,379.1309,160.6641,375.1309,156.6641" style="stroke:#181818;stroke-width:1;"/><text fill="#000000" font-family="sans-serif" font-size="13" lengthAdjust="spacing" textLength="90.3081" x="375.1309" y="138.8076">Test Run Starts</text></g><g class="message" data-participant-1="EC" data-participant-2="EA"><polygon fill="#181818" points="86.4238,166.6641,76.4238,170.6641,86.4238,174.6641,82.4238,170.6641" style="stroke:#181818;stroke-width:1;"/><line style="stroke:#181818;stroke-width:1;stroke-dasharray:2,2;" x1="80.4238" x2="362.1309" y1="170.6641" y2="170.6641"/></g><g class="message" data-participant-1="EA" data-participant-2="EC"><polygon fill="#181818" points="346.1309,197.0156,356.1309,201.0156,346.1309,205.0156,350.1309,201.0156" style="stroke:#181818;stroke-width:1;"/><line style="stroke:#181818;stroke-width:1;" x1="75.4238" x2="352.1309" y1="201.0156" y2="201.0156"/><text fill="#000000" font-family="sans-serif" font-size="13" lengthAdjust="spacing" textLength="193.6289" x="82.4238" y="196.1592">CExampleControl::StopTestRun()</text></g><g class="message" data-participant-1="EC" data-participant-2="EC"><line style="stroke:#181818;stroke-width:1;" x1="368.1309" x2="410.1309" y1="231.3672" y2="231.3672"/><line style="stroke:#181818;stroke-width:1;" x1="410.1309" x2="410.1309" y1="231.3672" y2="244.3672"/><line style="stroke:#181818;stroke-width:1;" x1="369.1309" x2="410.1309" y1="244.3672" y2="244.3672"/><polygon fill="#181818" points="379.1309,240.3672,369.1309,244.3672,379.1309,248.3672,375.1309,244.3672" style="stroke:#181818;stroke-width:1;"/><text fill="#000000" font-family="sans-serif" font-size="13" lengthAdjust="spacing" textLength="89.5972" x="375.1309" y="226.5107">Test Run Stops</text></g><g class="message" data-participant-1="EC" data-participant-2="EA"><polygon fill="#181818" points="86.4238,254.3672,76.4238,258.3672,86.4238,262.3672,82.4238,258.3672" style="stroke:#181818;stroke-width:1;"/><line style="stroke:#181818;stroke-width:1;stroke-dasharray:2,2;" x1="80.4238" x2="362.1309" y1="258.3672" y2="258.3672"/></g><g class="message" data-participant-1="EA" data-participant-2="EC"><polygon fill="#181818" points="346.1309,284.7188,356.1309,288.7188,346.1309,292.7188,350.1309,288.7188" style="stroke:#181818;stroke-width:1;"/><line style="stroke:#181818;stroke-width:1;" x1="75.4238" x2="352.1309" y1="288.7188" y2="288.7188"/><text fill="#000000" font-family="sans-serif" font-size="13" lengthAdjust="spacing" textLength="263.707" x="82.4238" y="283.8623">CExampleControl::ResetSignalsSimDatalink()</text></g><g class="message" data-participant-1="EC" data-participant-2="EC"><line style="stroke:#181818;stroke-width:1;" x1="368.1309" x2="410.1309" y1="319.0703" y2="319.0703"/><line style="stroke:#181818;stroke-width:1;" x1="410.1309" x2="410.1309" y1="319.0703" y2="332.0703"/><line style="stroke:#181818;stroke-width:1;" x1="369.1309" x2="410.1309" y1="332.0703" y2="332.0703"/><polygon fill="#181818" points="379.1309,328.0703,369.1309,332.0703,379.1309,336.0703,375.1309,332.0703" style="stroke:#181818;stroke-width:1;"/><text fill="#000000" font-family="sans-serif" font-size="13" lengthAdjust="spacing" textLength="137.2871" x="375.1309" y="314.2139">Reset simulated signals</text></g><g class="message" data-participant-1="EC" data-participant-2="EA"><polygon fill="#181818" points="86.4238,342.0703,76.4238,346.0703,86.4238,350.0703,82.4238,346.0703" style="stroke:#181818;stroke-width:1;"/><line style="stroke:#181818;stroke-width:1;stroke-dasharray:2,2;" x1="80.4238" x2="362.1309" y1="346.0703" y2="346.0703"/></g><g class="message" data-participant-1="EA" data-participant-2="EC"><polygon fill="#181818" points="346.1309,372.4219,356.1309,376.4219,346.1309,380.4219,350.1309,376.4219" style="stroke:#181818;stroke-width:1;"/><line style="stroke:#181818;stroke-width:1;" x1="75.4238" x2="352.1309" y1="376.4219" y2="376.4219"/><text fill="#000000" font-family="sans-serif" font-size="13" lengthAdjust="spacing" textLength="175.5762" x="82.4238" y="371.5654">CExampleControl::Shutdown()</text></g><g class="message" data-participant-1="EC" data-participant-2="AC"><polygon fill="#181818" points="698.3579,402.7734,708.3579,406.7734,698.3579,410.7734,702.3579,406.7734" style="stroke:#181818;stroke-width:1;"/><line style="stroke:#181818;stroke-width:1;" x1="368.1309" x2="704.3579" y1="406.7734" y2="406.7734"/><text fill="#000000" font-family="sans-serif" font-size="13" lengthAdjust="spacing" textLength="148.1289" x="375.1309" y="401.917">CAppControl::Shutdown()</text></g><g class="message" data-participant-1="AC" data-participant-2="AC"><line style="stroke:#181818;stroke-width:1;" x1="720.3579" x2="762.3579" y1="437.125" y2="437.125"/><line style="stroke:#181818;stroke-width:1;" x1="762.3579" x2="762.3579" y1="437.125" y2="450.125"/><line style="stroke:#181818;stroke-width:1;" x1="721.3579" x2="762.3579" y1="450.125" y2="450.125"/><polygon fill="#181818" points="731.3579,446.125,721.3579,450.125,731.3579,454.125,727.3579,450.125" style="stroke:#181818;stroke-width:1;"/><text fill="#000000" font-family="sans-serif" font-size="13" lengthAdjust="spacing" textLength="145.2725" x="727.3579" y="432.2686">Shutdown the application</text></g><g class="message" data-participant-1="AC" data-participant-2="EC"><polygon fill="#181818" points="379.1309,460.125,369.1309,464.125,379.1309,468.125,375.1309,464.125" style="stroke:#181818;stroke-width:1;"/><line style="stroke:#181818;stroke-width:1;stroke-dasharray:2,2;" x1="373.1309" x2="714.3579" y1="464.125" y2="464.125"/></g><g class="message" data-participant-1="EC" data-participant-2="EA"><polygon fill="#181818" points="86.4238,474.125,76.4238,478.125,86.4238,482.125,82.4238,478.125" style="stroke:#181818;stroke-width:1;"/><line style="stroke:#181818;stroke-width:1;stroke-dasharray:2,2;" x1="80.4238" x2="362.1309" y1="478.125" y2="478.125"/></g><!--SRC=[dPB1QiCm38RlUGhH7jOU1cM33NeOE6bssc4qsmC8nsj47TlOIhkz_Pmi8HbqNIc-6Fn__ozP2dio3ZtMaABSxxnjJ9bPRJtCnTtcVlEGlA9dakJGCCpoJwoTLY2SqoIHoPePO81Sm7or4eyY_QtF1Y2pXhtLi7XdqiHVonyi-mEB_ZtHwKJKfS_jIP9St3v5RWs3TozShmkE7cygyBOnYsM2akc0hAOfUTR3nP5OLi0M0jMDxZg1sfOA5XcQ6uONYoLyD9uhvI4eVo2fmd8qQ7CW1a6N6jg7-2AIKaroprThtON5JhAiko9gguBYWdO6TIYetY2Z9hF_BxR3XlzHPRnr3bUqMZLSskEvFaK7ZcC_3KtsG0pGe8CuAS1nBrj5Mz2qp0b_kebl]--></g></svg>