<svg xmlns="http://www.w3.org/2000/svg" xmlns:xlink="http://www.w3.org/1999/xlink" contentStyleType="text/css" data-diagram-type="CLASS" height="538px" preserveAspectRatio="none" style="width:1003px;height:538px;background:#FFFFFF;" version="1.1" viewBox="0 0 1003 538" width="1003px" zoomAndPan="magnify"><defs/><g><!--cluster sdv--><g class="cluster" data-entity="sdv" data-source-line="14" data-uid="ent0004" id="cluster_sdv"><path d="M8.5,330.5 L33.624,330.5 A3.75,3.75 0 0 1 36.124,333 L43.124,354.1094 L449.5,354.1094 A2.5,2.5 0 0 1 452,356.6094 L452,498 A2.5,2.5 0 0 1 449.5,500.5 L8.5,500.5 A2.5,2.5 0 0 1 6,498 L6,333 A2.5,2.5 0 0 1 8.5,330.5" fill="none" style="stroke:#000000;stroke-width:1.5;"/><line style="stroke:#000000;stroke-width:1.5;" x1="6" x2="43.124" y1="354.1094" y2="354.1094"/><text fill="#000000" font-family="sans-serif" font-size="14" font-weight="bold" lengthAdjust="spacing" textLength="24.124" x="10" y="347.0332">sdv</text></g><!--cluster vss--><g class="cluster" data-entity="vss" data-source-line="22" data-uid="ent0006" id="cluster_vss"><path d="M478.5,260 L502.8584,260 A3.75,3.75 0 0 1 505.3584,262.5 L512.3584,283.6094 L993.5,283.6094 A2.5,2.5 0 0 1 996,286.1094 L996,528.5 A2.5,2.5 0 0 1 993.5,531 L478.5,531 A2.5,2.5 0 0 1 476,528.5 L476,262.5 A2.5,2.5 0 0 1 478.5,260" fill="none" style="stroke:#000000;stroke-width:1.5;"/><line style="stroke:#000000;stroke-width:1.5;" x1="476" x2="512.3584" y1="283.6094" y2="283.6094"/><text fill="#000000" font-family="sans-serif" font-size="14" font-weight="bold" lengthAdjust="spacing" textLength="23.3584" x="480" y="276.5332">vss</text></g><!--cluster Vehicle--><g class="cluster" data-entity="Vehicle" data-source-line="22" data-uid="ent0007" id="cluster_Vehicle"><path d="M502.5,304 L552.5273,304 A3.75,3.75 0 0 1 555.0273,306.5 L562.0273,327.6094 L969.5,327.6094 A2.5,2.5 0 0 1 972,330.1094 L972,504.5 A2.5,2.5 0 0 1 969.5,507 L502.5,507 A2.5,2.5 0 0 1 500,504.5 L500,306.5 A2.5,2.5 0 0 1 502.5,304" fill="none" style="stroke:#000000;stroke-width:1.5;"/><line style="stroke:#000000;stroke-width:1.5;" x1="500" x2="562.0273" y1="327.6094" y2="327.6094"/><text fill="#000000" font-family="sans-serif" font-size="14" font-weight="bold" lengthAdjust="spacing" textLength="49.0273" x="504" y="320.5332">Vehicle</text></g><!--cluster SpeedDevice--><g class="cluster" data-entity="SpeedDevice" data-source-line="22" data-uid="ent0008" id="cluster_SpeedDevice"><path d="M526.5,348 L614.6582,348 A3.75,3.75 0 0 1 617.1582,350.5 L624.1582,371.6094 L945.5,371.6094 A2.5,2.5 0 0 1 948,374.1094 L948,480.5 A2.5,2.5 0 0 1 945.5,483 L526.5,483 A2.5,2.5 0 0 1 524,480.5 L524,350.5 A2.5,2.5 0 0 1 526.5,348" fill="none" style="stroke:#000000;stroke-width:1.5;"/><line style="stroke:#000000;stroke-width:1.5;" x1="524" x2="624.1582" y1="371.6094" y2="371.6094"/><text fill="#000000" font-family="sans-serif" font-size="14" font-weight="bold" lengthAdjust="spacing" textLength="87.1582" x="528" y="364.5332">SpeedDevice</text></g><!--class CSdvObject--><g class="entity" data-entity="CSdvObject" data-source-line="14" data-uid="ent0003" id="entity_CSdvObject"><rect fill="#F1F1F1" height="118.4375" rx="2.5" ry="2.5" style="stroke:#181818;stroke-width:0.5;" width="412.7705" x="22.5" y="366.5"/><ellipse cx="187.2871" cy="382.5" fill="#ADD1B2" rx="11" ry="11" style="stroke:#181818;stroke-width:1;"/><path d="M190.0527,378.375 Q190.209,378.1563 190.3965,378.0469 Q190.584,377.9375 190.8027,377.9375 Q191.1777,377.9375 191.4121,378.1953 Q191.6465,378.4531 191.6465,379.0625 L191.6465,380.5156 Q191.6465,381.125 191.4121,381.3906 Q191.1777,381.6563 190.8027,381.6563 Q190.459,381.6563 190.2559,381.4531 Q190.0527,381.2656 189.9434,380.75 Q189.8965,380.3906 189.709,380.2031 Q189.3809,379.8281 188.7715,379.6094 Q188.1621,379.3906 187.5371,379.3906 Q186.7715,379.3906 186.1387,379.7188 Q185.5059,380.0469 185.0137,380.7969 Q184.5215,381.5469 184.5215,382.5781 L184.5215,383.6719 Q184.5215,384.9063 185.4121,385.7266 Q186.3027,386.5469 187.8965,386.5469 Q188.834,386.5469 189.4902,386.2969 Q189.8809,386.1406 190.3027,385.7031 Q190.5684,385.4375 190.7168,385.3594 Q190.8652,385.2813 191.0684,385.2813 Q191.3965,385.2813 191.6543,385.5391 Q191.9121,385.7969 191.9121,386.1406 Q191.9121,386.4844 191.5684,386.8906 Q191.0684,387.4688 190.2715,387.7969 Q189.1934,388.25 187.8965,388.25 Q186.3809,388.25 185.1777,387.625 Q184.1934,387.125 183.5059,386.0547 Q182.8184,384.9844 182.8184,383.7031 L182.8184,382.5469 Q182.8184,381.2188 183.4355,380.0703 Q184.0527,378.9219 185.1465,378.3047 Q186.2402,377.6875 187.4746,377.6875 Q188.209,377.6875 188.8574,377.8516 Q189.5059,378.0156 190.0527,378.375 Z " fill="#000000"/><text fill="#000000" font-family="sans-serif" font-size="14" lengthAdjust="spacing" textLength="74.6963" x="207.7871" y="388.2285">CSdvObject</text><line style="stroke:#181818;stroke-width:0.5;" x1="23.5" x2="434.2705" y1="398.5" y2="398.5"/><line style="stroke:#181818;stroke-width:0.5;" x1="23.5" x2="434.2705" y1="406.5" y2="406.5"/><ellipse cx="33.5" cy="420.8047" fill="#84BE84" rx="3" ry="3" style="stroke:#038048;stroke-width:1;"/><text fill="#000000" font-family="sans-serif" font-size="14" lengthAdjust="spacing" text-decoration="underline" textLength="336.9365" x="42.5" y="425.0332">sdv::sequence&lt;sdv::u8string&gt; GetClassAliasesStatic()</text><ellipse cx="33.5" cy="438.4141" fill="#84BE84" rx="3" ry="3" style="stroke:#038048;stroke-width:1;"/><text fill="#000000" font-family="sans-serif" font-size="14" lengthAdjust="spacing" text-decoration="underline" textLength="272.3301" x="42.5" y="442.6426">sdv::u8string GetDefaultObjectNameStatic()</text><ellipse cx="33.5" cy="456.0234" fill="#84BE84" rx="3" ry="3" style="stroke:#038048;stroke-width:1;"/><text fill="#000000" font-family="sans-serif" font-size="14" lengthAdjust="spacing" text-decoration="underline" textLength="143.9648" x="42.5" y="460.252">bool IsSingletonStatic()</text><ellipse cx="33.5" cy="473.6328" fill="#84BE84" rx="3" ry="3" style="stroke:#038048;stroke-width:1;"/><text fill="#000000" font-family="sans-serif" font-size="14" lengthAdjust="spacing" text-decoration="underline" textLength="386.7705" x="42.5" y="477.8613">sdv::sequence&lt;sdv::u8string&gt; GetObjectDependenciesStatic()</text></g><!--class IVSS_Speed--><g class="entity" data-entity="IVSS_Speed" data-source-line="22" data-uid="ent0005" id="entity_IVSS_Speed"><rect fill="#F1F1F1" height="83.2188" rx="2.5" ry="2.5" style="stroke:#181818;stroke-width:0.5;" width="391.7637" x="540" y="384"/><ellipse cx="691.5459" cy="400" fill="#B4A7E5" rx="11" ry="11" style="stroke:#181818;stroke-width:1;"/><path d="M692.499,396.6406 L692.499,403.2969 L694.2178,403.2969 Q694.8271,403.2969 695.0928,403.5313 Q695.3584,403.7656 695.3584,404.1563 Q695.3584,404.5313 695.0928,404.7656 Q694.8271,405 694.2178,405 L689.0771,405 Q688.4678,405 688.2021,404.7656 Q687.9365,404.5313 687.9365,404.1406 Q687.9365,403.7656 688.2021,403.5313 Q688.4678,403.2969 689.0771,403.2969 L690.7959,403.2969 L690.7959,396.6406 L689.0771,396.6406 Q688.4678,396.6406 688.2021,396.4063 Q687.9365,396.1719 687.9365,395.7813 Q687.9365,395.4063 688.2021,395.1719 Q688.4678,394.9375 689.0771,394.9375 L694.2178,394.9375 Q694.8271,394.9375 695.0928,395.1719 Q695.3584,395.4063 695.3584,395.7813 Q695.3584,396.1719 695.0928,396.4063 Q694.8271,396.6406 694.2178,396.6406 L692.499,396.6406 Z " fill="#000000"/><text fill="#000000" font-family="sans-serif" font-size="14" font-style="italic" lengthAdjust="spacing" textLength="80.1719" x="712.0459" y="405.7285">IVSS_Speed</text><line style="stroke:#181818;stroke-width:0.5;" x1="541" x2="930.7637" y1="416" y2="416"/><line style="stroke:#181818;stroke-width:0.5;" x1="541" x2="930.7637" y1="424" y2="424"/><text fill="#000000" font-family="sans-serif" font-size="14" font-style="italic" lengthAdjust="spacing" textLength="367.3154" x="546" y="442.5332">void RegisterSpeedEvent(IVSS_WriteSpeed_Event* event)</text><text fill="#000000" font-family="sans-serif" font-size="14" font-style="italic" lengthAdjust="spacing" textLength="379.7637" x="546" y="460.1426">void UnregisterSpeedEvent(IVSS_WriteSpeed_Event* event)</text></g><!--class CVehicleDeviceVehicleSpeed--><g class="entity" data-entity="CVehicleDeviceVehicleSpeed" data-source-line="2" data-uid="ent0002" id="entity_CVehicleDeviceVehicleSpeed"><rect fill="#F1F1F1" height="188.875" rx="2.5" ry="2.5" style="stroke:#181818;stroke-width:0.5;" width="590.9697" x="186.5" y="7"/><ellipse cx="385.125" cy="23" fill="#ADD1B2" rx="11" ry="11" style="stroke:#181818;stroke-width:1;"/><path d="M387.8906,18.875 Q388.0469,18.6563 388.2344,18.5469 Q388.4219,18.4375 388.6406,18.4375 Q389.0156,18.4375 389.25,18.6953 Q389.4844,18.9531 389.4844,19.5625 L389.4844,21.0156 Q389.4844,21.625 389.25,21.8906 Q389.0156,22.1563 388.6406,22.1563 Q388.2969,22.1563 388.0938,21.9531 Q387.8906,21.7656 387.7813,21.25 Q387.7344,20.8906 387.5469,20.7031 Q387.2188,20.3281 386.6094,20.1094 Q386,19.8906 385.375,19.8906 Q384.6094,19.8906 383.9766,20.2188 Q383.3438,20.5469 382.8516,21.2969 Q382.3594,22.0469 382.3594,23.0781 L382.3594,24.1719 Q382.3594,25.4063 383.25,26.2266 Q384.1406,27.0469 385.7344,27.0469 Q386.6719,27.0469 387.3281,26.7969 Q387.7188,26.6406 388.1406,26.2031 Q388.4063,25.9375 388.5547,25.8594 Q388.7031,25.7813 388.9063,25.7813 Q389.2344,25.7813 389.4922,26.0391 Q389.75,26.2969 389.75,26.6406 Q389.75,26.9844 389.4063,27.3906 Q388.9063,27.9688 388.1094,28.2969 Q387.0313,28.75 385.7344,28.75 Q384.2188,28.75 383.0156,28.125 Q382.0313,27.625 381.3438,26.5547 Q380.6563,25.4844 380.6563,24.2031 L380.6563,23.0469 Q380.6563,21.7188 381.2734,20.5703 Q381.8906,19.4219 382.9844,18.8047 Q384.0781,18.1875 385.3125,18.1875 Q386.0469,18.1875 386.6953,18.3516 Q387.3438,18.5156 387.8906,18.875 Z " fill="#000000"/><text fill="#000000" font-family="sans-serif" font-size="14" lengthAdjust="spacing" textLength="185.2197" x="405.625" y="28.7285">CVehicleDeviceVehicleSpeed</text><line style="stroke:#181818;stroke-width:0.5;" x1="187.5" x2="776.4697" y1="39" y2="39"/><rect fill="none" height="6" style="stroke:#C82930;stroke-width:1;" width="6" x="194.5" y="50.3047"/><text fill="#000000" font-family="sans-serif" font-size="14" lengthAdjust="spacing" textLength="259.9229" x="206.5" y="57.5332">sdv::core::CSignal m_vehicleSpeedSignal</text><rect fill="none" height="6" style="stroke:#C82930;stroke-width:1;" width="6" x="194.5" y="67.9141"/><text fill="#000000" font-family="sans-serif" font-size="14" lengthAdjust="spacing" textLength="324.4883" x="206.5" y="75.1426">mutable std::mutex m_vehicleSpeedMutexCallbacks</text><rect fill="none" height="6" style="stroke:#C82930;stroke-width:1;" width="6" x="194.5" y="85.5234"/><text fill="#000000" font-family="sans-serif" font-size="14" lengthAdjust="spacing" textLength="564.9697" x="206.5" y="92.752">std::set&lt;vss::Vehicle::SpeedDevice::IVSS_WriteSpeed_Event*&gt; m_vehicleSpeedCallbacks</text><line style="stroke:#181818;stroke-width:0.5;" x1="187.5" x2="776.4697" y1="99.8281" y2="99.8281"/><ellipse cx="197.5" cy="114.1328" fill="#84BE84" rx="3" ry="3" style="stroke:#038048;stroke-width:1;"/><text fill="#000000" font-family="sans-serif" font-size="14" font-style="italic" lengthAdjust="spacing" textLength="108.9375" x="206.5" y="118.3613">bool OnInitialize()</text><ellipse cx="197.5" cy="131.7422" fill="#84BE84" rx="3" ry="3" style="stroke:#038048;stroke-width:1;"/><text fill="#000000" font-family="sans-serif" font-size="14" font-style="italic" lengthAdjust="spacing" textLength="101.165" x="206.5" y="135.9707">void Shutdown()</text><ellipse cx="197.5" cy="149.3516" fill="#84BE84" rx="3" ry="3" style="stroke:#038048;stroke-width:1;"/><text fill="#000000" font-family="sans-serif" font-size="14" font-style="italic" lengthAdjust="spacing" textLength="540.8457" x="206.5" y="153.5801">void RegisterSpeedEvent(vss::Vehicle::SpeedDevice::IVSS_WriteSpeed_Event* event)</text><ellipse cx="197.5" cy="166.9609" fill="#84BE84" rx="3" ry="3" style="stroke:#038048;stroke-width:1;"/><text fill="#000000" font-family="sans-serif" font-size="14" font-style="italic" lengthAdjust="spacing" textLength="553.2939" x="206.5" y="171.1895">void UnregisterSpeedEvent(vss::Vehicle::SpeedDevice::IVSS_WriteSpeed_Event* event)</text><rect fill="#F24D5C" height="6" style="stroke:#C82930;stroke-width:1;" width="6" x="194.5" y="181.5703"/><text fill="#000000" font-family="sans-serif" font-size="14" lengthAdjust="spacing" textLength="375.8535" x="206.5" y="188.7988">void ExecuteAllCallBacksForVehicleSpeed(sdv::any_t value)</text></g><!--link CVehicleDeviceVehicleSpeed to CSdvObject--><g class="link" data-entity-1="CVehicleDeviceVehicleSpeed" data-entity-2="CSdvObject" data-source-line="28" data-uid="lnk9" id="link_CVehicleDeviceVehicleSpeed_CSdvObject"><path codeLine="28" d="M408.48,196.07 C365.3,251.03 323.1817,304.637 285.9417,352.027" fill="none" id="CVehicleDeviceVehicleSpeed-to-CSdvObject" style="stroke:#181818;stroke-width:1;"/><polygon fill="none" points="274.82,366.18,290.6594,355.7342,281.224,348.3198,274.82,366.18" style="stroke:#181818;stroke-width:1;"/><text fill="#000000" font-family="sans-serif" font-size="13" lengthAdjust="spacing" textLength="42.6309" x="379" y="240.4951">Inherits</text></g><!--link CVehicleDeviceVehicleSpeed to IVSS_Speed--><g class="link" data-entity-1="CVehicleDeviceVehicleSpeed" data-entity-2="IVSS_Speed" data-source-line="29" data-uid="lnk10" id="link_CVehicleDeviceVehicleSpeed_IVSS_Speed"><path codeLine="29" d="M555.81,196.07 C604.88,258.27 655.7328,322.7371 692.7328,369.6471" fill="none" id="CVehicleDeviceVehicleSpeed-to-IVSS_Speed" style="stroke:#181818;stroke-width:1;stroke-dasharray:7,7;"/><polygon fill="none" points="703.88,383.78,697.4437,365.9314,688.0218,373.3628,703.88,383.78" style="stroke:#181818;stroke-width:1;"/><text fill="#000000" font-family="sans-serif" font-size="13" lengthAdjust="spacing" textLength="67.1899" x="587" y="240.4951">Implements</text></g><!--SRC=[hLHBJyCm3BxpAtmSe7564Pe47Q0T08aAE4vkQhP0cexQBO-n_qwImXY3iI7HGwiatyk9Ks0IO9fWXL9MeDGM06YBp91SqzXeItrgZARtGJeXoWDc6bx-sPrYnbAXbXbaPMdXmWsS4OFMl51d-mTKKveSqd4jUVdeLYCkQMHOg8gEnmqvwJJCIhq7KIekjE6K6bodwV2cCj8c74R23b3uhBIuSjM_ctIZyl4JwLheqDe4hJr2VSydPRMuXntE6wNGFGy56hGrpGNYWYuhRvYaPkJGGZ5i5gZjv0Uyg0KpIy2IA-K7zBG4Fmjp8KOMOinT0jmV_i6Vw-qjwN-HdcrzDb0i94dpvYAx8osBNJDbGJ5w1hiHnFHGazDq44VrlZybuqOzE2L9WjIXDSZ4QIJDMsP9v8CMM7swnTfAQtoE1QsanfuTSEg9bgHqltly4hJrwjE4NEuXvclSTby6plVQBMg2TRl-xPvjS3qsQS-Dhi1QeRQQrJy8w7PVUyld3yhNFoOloslOUtkUlT4E1SrYOgdmoVWD]--></g></svg>