<svg xmlns="http://www.w3.org/2000/svg" xmlns:xlink="http://www.w3.org/1999/xlink" contentStyleType="text/css" data-diagram-type="CLASS" height="486px" preserveAspectRatio="none" style="width:1304px;height:486px;background:#FFFFFF;" version="1.1" viewBox="0 0 1304 486" width="1304px" zoomAndPan="magnify"><defs/><g><!--cluster sdv--><g class="cluster" data-entity="sdv" data-source-line="13" data-uid="ent0004" id="cluster_sdv"><path d="M163,287 L188.124,287 A3.75,3.75 0 0 1 190.624,289.5 L197.624,310.6094 L965,310.6094 A2.5,2.5 0 0 1 967.5,313.1094 L967.5,454.5 A2.5,2.5 0 0 1 965,457 L163,457 A2.5,2.5 0 0 1 160.5,454.5 L160.5,289.5 A2.5,2.5 0 0 1 163,287" fill="none" style="stroke:#000000;stroke-width:1.5;"/><line style="stroke:#000000;stroke-width:1.5;" x1="160.5" x2="197.624" y1="310.6094" y2="310.6094"/><text fill="#000000" font-family="sans-serif" font-size="14" font-weight="bold" lengthAdjust="spacing" textLength="24.124" x="164.5" y="303.5332">sdv</text></g><!--cluster vss--><g class="cluster" data-entity="vss" data-source-line="29" data-uid="ent0007" id="cluster_vss"><path d="M994,225 L1018.3584,225 A3.75,3.75 0 0 1 1020.8584,227.5 L1027.8584,248.6094 L1295,248.6094 A2.5,2.5 0 0 1 1297.5,251.1094 L1297.5,476.5 A2.5,2.5 0 0 1 1295,479 L994,479 A2.5,2.5 0 0 1 991.5,476.5 L991.5,227.5 A2.5,2.5 0 0 1 994,225" fill="none" style="stroke:#000000;stroke-width:1.5;"/><line style="stroke:#000000;stroke-width:1.5;" x1="991.5" x2="1027.8584" y1="248.6094" y2="248.6094"/><text fill="#000000" font-family="sans-serif" font-size="14" font-weight="bold" lengthAdjust="spacing" textLength="23.3584" x="995.5" y="241.5332">vss</text></g><!--cluster Vehicle--><g class="cluster" data-entity="Vehicle" data-source-line="29" data-uid="ent0008" id="cluster_Vehicle"><path d="M1018,269 L1068.0273,269 A3.75,3.75 0 0 1 1070.5273,271.5 L1077.5273,292.6094 L1271,292.6094 A2.5,2.5 0 0 1 1273.5,295.1094 L1273.5,452.5 A2.5,2.5 0 0 1 1271,455 L1018,455 A2.5,2.5 0 0 1 1015.5,452.5 L1015.5,271.5 A2.5,2.5 0 0 1 1018,269" fill="none" style="stroke:#000000;stroke-width:1.5;"/><line style="stroke:#000000;stroke-width:1.5;" x1="1015.5" x2="1077.5273" y1="292.6094" y2="292.6094"/><text fill="#000000" font-family="sans-serif" font-size="14" font-weight="bold" lengthAdjust="spacing" textLength="49.0273" x="1019.5" y="285.5332">Vehicle</text></g><!--cluster SpeedService--><g class="cluster" data-entity="SpeedService" data-source-line="29" data-uid="ent0009" id="cluster_SpeedService"><path d="M1042,313 L1134.834,313 A3.75,3.75 0 0 1 1137.334,315.5 L1144.334,336.6094 L1247,336.6094 A2.5,2.5 0 0 1 1249.5,339.1094 L1249.5,428.5 A2.5,2.5 0 0 1 1247,431 L1042,431 A2.5,2.5 0 0 1 1039.5,428.5 L1039.5,315.5 A2.5,2.5 0 0 1 1042,313" fill="none" style="stroke:#000000;stroke-width:1.5;"/><line style="stroke:#000000;stroke-width:1.5;" x1="1039.5" x2="1144.334" y1="336.6094" y2="336.6094"/><text fill="#000000" font-family="sans-serif" font-size="14" font-weight="bold" lengthAdjust="spacing" textLength="91.834" x="1043.5" y="329.5332">SpeedService</text></g><!--class CSdvObject--><g class="entity" data-entity="CSdvObject" data-source-line="13" data-uid="ent0003" id="entity_CSdvObject"><rect fill="#F1F1F1" height="118.4375" rx="2.5" ry="2.5" style="stroke:#181818;stroke-width:0.5;" width="412.7705" x="177" y="323"/><ellipse cx="341.7871" cy="339" fill="#ADD1B2" rx="11" ry="11" style="stroke:#181818;stroke-width:1;"/><path d="M344.5527,334.875 Q344.709,334.6563 344.8965,334.5469 Q345.084,334.4375 345.3027,334.4375 Q345.6777,334.4375 345.9121,334.6953 Q346.1465,334.9531 346.1465,335.5625 L346.1465,337.0156 Q346.1465,337.625 345.9121,337.8906 Q345.6777,338.1563 345.3027,338.1563 Q344.959,338.1563 344.7559,337.9531 Q344.5527,337.7656 344.4434,337.25 Q344.3965,336.8906 344.209,336.7031 Q343.8809,336.3281 343.2715,336.1094 Q342.6621,335.8906 342.0371,335.8906 Q341.2715,335.8906 340.6387,336.2188 Q340.0059,336.5469 339.5137,337.2969 Q339.0215,338.0469 339.0215,339.0781 L339.0215,340.1719 Q339.0215,341.4063 339.9121,342.2266 Q340.8027,343.0469 342.3965,343.0469 Q343.334,343.0469 343.9902,342.7969 Q344.3809,342.6406 344.8027,342.2031 Q345.0684,341.9375 345.2168,341.8594 Q345.3652,341.7813 345.5684,341.7813 Q345.8965,341.7813 346.1543,342.0391 Q346.4121,342.2969 346.4121,342.6406 Q346.4121,342.9844 346.0684,343.3906 Q345.5684,343.9688 344.7715,344.2969 Q343.6934,344.75 342.3965,344.75 Q340.8809,344.75 339.6777,344.125 Q338.6934,343.625 338.0059,342.5547 Q337.3184,341.4844 337.3184,340.2031 L337.3184,339.0469 Q337.3184,337.7188 337.9355,336.5703 Q338.5527,335.4219 339.6465,334.8047 Q340.7402,334.1875 341.9746,334.1875 Q342.709,334.1875 343.3574,334.3516 Q344.0059,334.5156 344.5527,334.875 Z " fill="#000000"/><text fill="#000000" font-family="sans-serif" font-size="14" lengthAdjust="spacing" textLength="74.6963" x="362.2871" y="344.7285">CSdvObject</text><line style="stroke:#181818;stroke-width:0.5;" x1="178" x2="588.7705" y1="355" y2="355"/><line style="stroke:#181818;stroke-width:0.5;" x1="178" x2="588.7705" y1="363" y2="363"/><ellipse cx="188" cy="377.3047" fill="#84BE84" rx="3" ry="3" style="stroke:#038048;stroke-width:1;"/><text fill="#000000" font-family="sans-serif" font-size="14" lengthAdjust="spacing" text-decoration="underline" textLength="336.9365" x="197" y="381.5332">sdv::sequence&lt;sdv::u8string&gt; GetClassAliasesStatic()</text><ellipse cx="188" cy="394.9141" fill="#84BE84" rx="3" ry="3" style="stroke:#038048;stroke-width:1;"/><text fill="#000000" font-family="sans-serif" font-size="14" lengthAdjust="spacing" text-decoration="underline" textLength="272.3301" x="197" y="399.1426">sdv::u8string GetDefaultObjectNameStatic()</text><ellipse cx="188" cy="412.5234" fill="#84BE84" rx="3" ry="3" style="stroke:#038048;stroke-width:1;"/><text fill="#000000" font-family="sans-serif" font-size="14" lengthAdjust="spacing" text-decoration="underline" textLength="143.9648" x="197" y="416.752">bool IsSingletonStatic()</text><ellipse cx="188" cy="430.1328" fill="#84BE84" rx="3" ry="3" style="stroke:#038048;stroke-width:1;"/><text fill="#000000" font-family="sans-serif" font-size="14" lengthAdjust="spacing" text-decoration="underline" textLength="386.7705" x="197" y="434.3613">sdv::sequence&lt;sdv::u8string&gt; GetObjectDependenciesStatic()</text></g><!--class IObjectControl--><g class="entity" data-entity="IObjectControl" data-source-line="21" data-uid="ent0005" id="entity_IObjectControl"><rect fill="#F1F1F1" height="118.4375" rx="2.5" ry="2.5" style="stroke:#181818;stroke-width:0.5;" width="326.3574" x="625.5" y="323"/><ellipse cx="739.6875" cy="339" fill="#B4A7E5" rx="11" ry="11" style="stroke:#181818;stroke-width:1;"/><path d="M740.6406,335.6406 L740.6406,342.2969 L742.3594,342.2969 Q742.9688,342.2969 743.2344,342.5313 Q743.5,342.7656 743.5,343.1563 Q743.5,343.5313 743.2344,343.7656 Q742.9688,344 742.3594,344 L737.2188,344 Q736.6094,344 736.3438,343.7656 Q736.0781,343.5313 736.0781,343.1406 Q736.0781,342.7656 736.3438,342.5313 Q736.6094,342.2969 737.2188,342.2969 L738.9375,342.2969 L738.9375,335.6406 L737.2188,335.6406 Q736.6094,335.6406 736.3438,335.4063 Q736.0781,335.1719 736.0781,334.7813 Q736.0781,334.4063 736.3438,334.1719 Q736.6094,333.9375 737.2188,333.9375 L742.3594,333.9375 Q742.9688,333.9375 743.2344,334.1719 Q743.5,334.4063 743.5,334.7813 Q743.5,335.1719 743.2344,335.4063 Q742.9688,335.6406 742.3594,335.6406 L740.6406,335.6406 Z " fill="#000000"/><text fill="#000000" font-family="sans-serif" font-size="14" font-style="italic" lengthAdjust="spacing" textLength="89.4824" x="760.1875" y="344.7285">IObjectControl</text><line style="stroke:#181818;stroke-width:0.5;" x1="626.5" x2="950.8574" y1="355" y2="355"/><line style="stroke:#181818;stroke-width:0.5;" x1="626.5" x2="950.8574" y1="363" y2="363"/><text fill="#000000" font-family="sans-serif" font-size="14" font-style="italic" lengthAdjust="spacing" textLength="314.3574" x="631.5" y="381.5332">void Initialize(const sdv::u8string&amp; ssObjectConfig)</text><text fill="#000000" font-family="sans-serif" font-size="14" font-style="italic" lengthAdjust="spacing" textLength="202.3096" x="631.5" y="399.1426">EObjectStatus GetStatus() const</text><text fill="#000000" font-family="sans-serif" font-size="14" font-style="italic" lengthAdjust="spacing" textLength="308.9502" x="631.5" y="416.752">void SetOperationMode(EOperationMode eMode)</text><text fill="#000000" font-family="sans-serif" font-size="14" font-style="italic" lengthAdjust="spacing" textLength="101.165" x="631.5" y="434.3613">void Shutdown()</text></g><!--class IVSS_SetSpeed_Event--><g class="entity" data-entity="IVSS_SetSpeed_Event" data-source-line="29" data-uid="ent0006" id="entity_IVSS_SetSpeed_Event"><rect fill="#F1F1F1" height="65.6094" rx="2.5" ry="2.5" style="stroke:#181818;stroke-width:0.5;" width="176.7715" x="1056" y="349"/><ellipse cx="1071" cy="365" fill="#B4A7E5" rx="11" ry="11" style="stroke:#181818;stroke-width:1;"/><path d="M1071.9531,361.6406 L1071.9531,368.2969 L1073.6719,368.2969 Q1074.2813,368.2969 1074.5469,368.5313 Q1074.8125,368.7656 1074.8125,369.1563 Q1074.8125,369.5313 1074.5469,369.7656 Q1074.2813,370 1073.6719,370 L1068.5313,370 Q1067.9219,370 1067.6563,369.7656 Q1067.3906,369.5313 1067.3906,369.1406 Q1067.3906,368.7656 1067.6563,368.5313 Q1067.9219,368.2969 1068.5313,368.2969 L1070.25,368.2969 L1070.25,361.6406 L1068.5313,361.6406 Q1067.9219,361.6406 1067.6563,361.4063 Q1067.3906,361.1719 1067.3906,360.7813 Q1067.3906,360.4063 1067.6563,360.1719 Q1067.9219,359.9375 1068.5313,359.9375 L1073.6719,359.9375 Q1074.2813,359.9375 1074.5469,360.1719 Q1074.8125,360.4063 1074.8125,360.7813 Q1074.8125,361.1719 1074.5469,361.4063 Q1074.2813,361.6406 1073.6719,361.6406 L1071.9531,361.6406 Z " fill="#000000"/><text fill="#000000" font-family="sans-serif" font-size="14" font-style="italic" lengthAdjust="spacing" textLength="144.7715" x="1085" y="370.7285">IVSS_SetSpeed_Event</text><line style="stroke:#181818;stroke-width:0.5;" x1="1057" x2="1231.7715" y1="381" y2="381"/><line style="stroke:#181818;stroke-width:0.5;" x1="1057" x2="1231.7715" y1="389" y2="389"/><text fill="#000000" font-family="sans-serif" font-size="14" font-style="italic" lengthAdjust="spacing" textLength="164.2129" x="1062" y="407.5332">void SetSpeed(float value)</text></g><!--class CTrunkExampleService--><g class="entity" data-entity="CTrunkExampleService" data-source-line="2" data-uid="ent0002" id="entity_CTrunkExampleService"><rect fill="#F1F1F1" height="153.6563" rx="2.5" ry="2.5" style="stroke:#181818;stroke-width:0.5;" width="429.0605" x="291" y="7"/><ellipse cx="427.7563" cy="23" fill="#ADD1B2" rx="11" ry="11" style="stroke:#181818;stroke-width:1;"/><path d="M430.522,18.875 Q430.6782,18.6563 430.8657,18.5469 Q431.0532,18.4375 431.272,18.4375 Q431.647,18.4375 431.8813,18.6953 Q432.1157,18.9531 432.1157,19.5625 L432.1157,21.0156 Q432.1157,21.625 431.8813,21.8906 Q431.647,22.1563 431.272,22.1563 Q430.9282,22.1563 430.7251,21.9531 Q430.522,21.7656 430.4126,21.25 Q430.3657,20.8906 430.1782,20.7031 Q429.8501,20.3281 429.2407,20.1094 Q428.6313,19.8906 428.0063,19.8906 Q427.2407,19.8906 426.6079,20.2188 Q425.9751,20.5469 425.4829,21.2969 Q424.9907,22.0469 424.9907,23.0781 L424.9907,24.1719 Q424.9907,25.4063 425.8813,26.2266 Q426.772,27.0469 428.3657,27.0469 Q429.3032,27.0469 429.9595,26.7969 Q430.3501,26.6406 430.772,26.2031 Q431.0376,25.9375 431.186,25.8594 Q431.3345,25.7813 431.5376,25.7813 Q431.8657,25.7813 432.1235,26.0391 Q432.3813,26.2969 432.3813,26.6406 Q432.3813,26.9844 432.0376,27.3906 Q431.5376,27.9688 430.7407,28.2969 Q429.6626,28.75 428.3657,28.75 Q426.8501,28.75 425.647,28.125 Q424.6626,27.625 423.9751,26.5547 Q423.2876,25.4844 423.2876,24.2031 L423.2876,23.0469 Q423.2876,21.7188 423.9048,20.5703 Q424.522,19.4219 425.6157,18.8047 Q426.7095,18.1875 427.9438,18.1875 Q428.6782,18.1875 429.3267,18.3516 Q429.9751,18.5156 430.522,18.875 Z " fill="#000000"/><text fill="#000000" font-family="sans-serif" font-size="14" lengthAdjust="spacing" textLength="147.0479" x="448.2563" y="28.7285">CTrunkExampleService</text><line style="stroke:#181818;stroke-width:0.5;" x1="292" x2="719.0605" y1="39" y2="39"/><rect fill="none" height="6" style="stroke:#C82930;stroke-width:1;" width="6" x="299" y="50.3047"/><text fill="#000000" font-family="sans-serif" font-size="14" lengthAdjust="spacing" textLength="90.2822" x="311" y="57.5332">float m_Speed</text><rect fill="none" height="6" style="stroke:#C82930;stroke-width:1;" width="6" x="299" y="67.9141"/><text fill="#000000" font-family="sans-serif" font-size="14" lengthAdjust="spacing" textLength="403.0605" x="311" y="75.1426">vss::Vehicle::Body::TrunkService::IVSS_SetOpen* m_pTrunkSvc</text><line style="stroke:#181818;stroke-width:0.5;" x1="292" x2="719.0605" y1="82.2188" y2="82.2188"/><ellipse cx="302" cy="96.5234" fill="#84BE84" rx="3" ry="3" style="stroke:#038048;stroke-width:1;"/><text fill="#000000" font-family="sans-serif" font-size="14" font-style="italic" lengthAdjust="spacing" textLength="108.9375" x="311" y="100.752">bool OnInitialize()</text><ellipse cx="302" cy="114.1328" fill="#84BE84" rx="3" ry="3" style="stroke:#038048;stroke-width:1;"/><text fill="#000000" font-family="sans-serif" font-size="14" font-style="italic" lengthAdjust="spacing" textLength="119.8408" x="311" y="118.3613">void OnShutdown()</text><ellipse cx="302" cy="131.7422" fill="#84BE84" rx="3" ry="3" style="stroke:#038048;stroke-width:1;"/><text fill="#000000" font-family="sans-serif" font-size="14" font-style="italic" lengthAdjust="spacing" textLength="164.2129" x="311" y="135.9707">void SetSpeed(float value)</text><ellipse cx="302" cy="149.3516" fill="#84BE84" rx="3" ry="3" style="stroke:#038048;stroke-width:1;"/><text fill="#000000" font-family="sans-serif" font-size="14" font-style="italic" lengthAdjust="spacing" textLength="100.3789" x="311" y="153.5801">bool PopTrunk()</text></g><!--class ITrunkKitService--><g class="entity" data-entity="ITrunkKitService" data-source-line="34" data-uid="ent0010" id="entity_ITrunkKitService"><rect fill="#F1F1F1" height="65.6094" rx="2.5" ry="2.5" style="stroke:#181818;stroke-width:0.5;" width="134.6963" x="7" y="349"/><ellipse cx="22" cy="365" fill="#B4A7E5" rx="11" ry="11" style="stroke:#181818;stroke-width:1;"/><path d="M22.9531,361.6406 L22.9531,368.2969 L24.6719,368.2969 Q25.2813,368.2969 25.5469,368.5313 Q25.8125,368.7656 25.8125,369.1563 Q25.8125,369.5313 25.5469,369.7656 Q25.2813,370 24.6719,370 L19.5313,370 Q18.9219,370 18.6563,369.7656 Q18.3906,369.5313 18.3906,369.1406 Q18.3906,368.7656 18.6563,368.5313 Q18.9219,368.2969 19.5313,368.2969 L21.25,368.2969 L21.25,361.6406 L19.5313,361.6406 Q18.9219,361.6406 18.6563,361.4063 Q18.3906,361.1719 18.3906,360.7813 Q18.3906,360.4063 18.6563,360.1719 Q18.9219,359.9375 19.5313,359.9375 L24.6719,359.9375 Q25.2813,359.9375 25.5469,360.1719 Q25.8125,360.4063 25.8125,360.7813 Q25.8125,361.1719 25.5469,361.4063 Q25.2813,361.6406 24.6719,361.6406 L22.9531,361.6406 Z " fill="#000000"/><text fill="#000000" font-family="sans-serif" font-size="14" font-style="italic" lengthAdjust="spacing" textLength="102.6963" x="36" y="370.7285">ITrunkKitService</text><line style="stroke:#181818;stroke-width:0.5;" x1="8" x2="140.6963" y1="381" y2="381"/><line style="stroke:#181818;stroke-width:0.5;" x1="8" x2="140.6963" y1="389" y2="389"/><text fill="#000000" font-family="sans-serif" font-size="14" font-style="italic" lengthAdjust="spacing" textLength="100.3789" x="13" y="407.5332">bool PopTrunk()</text></g><!--link CTrunkExampleService to CSdvObject--><g class="link" data-entity-1="CTrunkExampleService" data-entity-2="CSdvObject" data-source-line="39" data-uid="lnk11" id="link_CTrunkExampleService_CSdvObject"><path codeLine="39" d="M474.08,161.23 C453.33,211.59 433.4004,259.9386 414.3504,306.1486" fill="none" id="CTrunkExampleService-to-CSdvObject" style="stroke:#181818;stroke-width:1;"/><polygon fill="none" points="407.49,322.79,419.8975,308.4354,408.8033,303.8618,407.49,322.79" style="stroke:#181818;stroke-width:1;"/><text fill="#000000" font-family="sans-serif" font-size="13" lengthAdjust="spacing" textLength="42.6309" x="459.5" y="205.4951">Inherits</text></g><!--link CTrunkExampleService to IObjectControl--><g class="link" data-entity-1="CTrunkExampleService" data-entity-2="IObjectControl" data-source-line="40" data-uid="lnk12" id="link_CTrunkExampleService_IObjectControl"><path codeLine="40" d="M578.38,161.23 C626.53,211.59 676.2196,263.5709 720.4096,309.7809" fill="none" id="CTrunkExampleService-to-IObjectControl" style="stroke:#181818;stroke-width:1;stroke-dasharray:7,7;"/><polygon fill="none" points="732.85,322.79,724.746,305.6341,716.0732,313.9277,732.85,322.79" style="stroke:#181818;stroke-width:1;"/><text fill="#000000" font-family="sans-serif" font-size="13" lengthAdjust="spacing" textLength="67.1899" x="622.5" y="205.4951">Implements</text></g><!--link CTrunkExampleService to IVSS_SetSpeed_Event--><g class="link" data-entity-1="CTrunkExampleService" data-entity-2="IVSS_SetSpeed_Event" data-source-line="41" data-uid="lnk13" id="link_CTrunkExampleService_IVSS_SetSpeed_Event"><path codeLine="41" d="M720.17,124.18 C801.05,144.53 891.72,174.33 967.5,217 C1029.01,251.63 1074.4773,298.0864 1106.4073,335.1264" fill="none" id="CTrunkExampleService-to-IVSS_SetSpeed_Event" style="stroke:#181818;stroke-width:1;stroke-dasharray:7,7;"/><polygon fill="none" points="1118.16,348.76,1110.9518,331.2089,1101.8628,339.044,1118.16,348.76" style="stroke:#181818;stroke-width:1;"/><text fill="#000000" font-family="sans-serif" font-size="13" lengthAdjust="spacing" textLength="67.1899" x="945.5" y="205.4951">Implements</text></g><!--link CTrunkExampleService to ITrunkKitService--><g class="link" data-entity-1="CTrunkExampleService" data-entity-2="ITrunkKitService" data-source-line="42" data-uid="lnk14" id="link_CTrunkExampleService_ITrunkKitService"><path codeLine="42" d="M290.84,139.69 C244.22,158.69 197.77,183.87 160.5,217 C120.13,252.88 101.325,295.1982 89.305,331.8082" fill="none" id="CTrunkExampleService-to-ITrunkKitService" style="stroke:#181818;stroke-width:1;stroke-dasharray:7,7;"/><polygon fill="none" points="83.69,348.91,95.0056,333.6798,83.6044,329.9365,83.69,348.91" style="stroke:#181818;stroke-width:1;"/><text fill="#000000" font-family="sans-serif" font-size="13" lengthAdjust="spacing" textLength="67.1899" x="192.5" y="205.4951">Implements</text></g><!--SRC=[bLFBRjim4BpxA_PKM0sSSq4K0Lh728IYTG4MkHeqjOxPqAIgNQaFr_zUFcetKYmNqO4GoPsPvN08X0o4jMeK-mQ4c020jee8vb-QrZqkVgXTRL5YqncDSNSVX_1TxTMQk56Q3x3stiBIbSwmKTRymcbnfghpfWfLSjjovR-xyHg9B6l4QhgnNZ5qohPOZCb-zdNgz4GtowZTAd4S5piY8UvnQxH58TxxwgSG2VVtQ4AKzrAkWlIoHlSwm3Ejx7IaE4mc_woXgXDYBgjkkVwAcf-wiYTMRFG1hb8HuRSMdSQtQTQ-2PqRzt03TyZpIFNE6aL8Ce5E9nYG764HTOiRrLhEmf_K3aUXoPoIP01QPEykQrneD6lTOh2b2YMct-uX-L8wncQZD6PloeoPUyUDjpr_1bVz93BQEsBewRy2eXFLnZmKpraMUJ-sr59iD_zD2qXy8xBvcaFeZNSVVONJHMyA6CTY3DmByD20Vj1I1fz5BAsk5XqwlcJEw3iOQfOfgXyCdtcdbzzBPZhtrc4s-tqpZ3g8eBh5nZ2DugwlZxX-328srkt2gV-3Vg67Bs0UEjM7_W40]--></g></svg>