<svg xmlns="http://www.w3.org/2000/svg" xmlns:xlink="http://www.w3.org/1999/xlink" contentStyleType="text/css" data-diagram-type="CLASS" height="870px" preserveAspectRatio="none" style="width:1898px;height:870px;background:#FFFFFF;" version="1.1" viewBox="0 0 1898 870" width="1898px" zoomAndPan="magnify"><defs/><g><!--cluster sdv--><g class="cluster" data-entity="sdv" data-source-line="23" data-uid="ent0004" id="cluster_sdv"><path d="M311,535 L336.124,535 A3.75,3.75 0 0 1 338.624,537.5 L345.624,558.6094 L1113,558.6094 A2.5,2.5 0 0 1 1115.5,561.1094 L1115.5,702.5 A2.5,2.5 0 0 1 1113,705 L311,705 A2.5,2.5 0 0 1 308.5,702.5 L308.5,537.5 A2.5,2.5 0 0 1 311,535" fill="none" style="stroke:#000000;stroke-width:1.5;"/><line style="stroke:#000000;stroke-width:1.5;" x1="308.5" x2="345.624" y1="558.6094" y2="558.6094"/><text fill="#000000" font-family="sans-serif" font-size="14" font-weight="bold" lengthAdjust="spacing" textLength="24.124" x="312.5" y="551.5332">sdv</text></g><!--cluster vss--><g class="cluster" data-entity="vss" data-source-line="46" data-uid="ent0009" id="cluster_vss"><path d="M1142,429 L1166.3584,429 A3.75,3.75 0 0 1 1168.8584,431.5 L1175.8584,452.6094 L1889,452.6094 A2.5,2.5 0 0 1 1891.5,455.1094 L1891.5,748.5 A2.5,2.5 0 0 1 1889,751 L1142,751 A2.5,2.5 0 0 1 1139.5,748.5 L1139.5,431.5 A2.5,2.5 0 0 1 1142,429" fill="none" style="stroke:#000000;stroke-width:1.5;"/><line style="stroke:#000000;stroke-width:1.5;" x1="1139.5" x2="1175.8584" y1="452.6094" y2="452.6094"/><text fill="#000000" font-family="sans-serif" font-size="14" font-weight="bold" lengthAdjust="spacing" textLength="23.3584" x="1143.5" y="445.5332">vss</text></g><!--cluster Vehicle--><g class="cluster" data-entity="Vehicle" data-source-line="46" data-uid="ent0010" id="cluster_Vehicle"><path d="M1166,473 L1216.0273,473 A3.75,3.75 0 0 1 1218.5273,475.5 L1225.5273,496.6094 L1865,496.6094 A2.5,2.5 0 0 1 1867.5,499.1094 L1867.5,724.5 A2.5,2.5 0 0 1 1865,727 L1166,727 A2.5,2.5 0 0 1 1163.5,724.5 L1163.5,475.5 A2.5,2.5 0 0 1 1166,473" fill="none" style="stroke:#000000;stroke-width:1.5;"/><line style="stroke:#000000;stroke-width:1.5;" x1="1163.5" x2="1225.5273" y1="496.6094" y2="496.6094"/><text fill="#000000" font-family="sans-serif" font-size="14" font-weight="bold" lengthAdjust="spacing" textLength="49.0273" x="1167.5" y="489.5332">Vehicle</text></g><!--cluster Position--><g class="cluster" data-entity="Position" data-source-line="46" data-uid="ent0011" id="cluster_Position"><path d="M1190,517 L1246.2207,517 A3.75,3.75 0 0 1 1248.7207,519.5 L1255.7207,540.6094 L1841,540.6094 A2.5,2.5 0 0 1 1843.5,543.1094 L1843.5,700.5 A2.5,2.5 0 0 1 1841,703 L1190,703 A2.5,2.5 0 0 1 1187.5,700.5 L1187.5,519.5 A2.5,2.5 0 0 1 1190,517" fill="none" style="stroke:#000000;stroke-width:1.5;"/><line style="stroke:#000000;stroke-width:1.5;" x1="1187.5" x2="1255.7207" y1="540.6094" y2="540.6094"/><text fill="#000000" font-family="sans-serif" font-size="14" font-weight="bold" lengthAdjust="spacing" textLength="55.2207" x="1191.5" y="533.5332">Position</text></g><!--cluster CurrentLatitudeService--><g class="cluster" data-entity="CurrentLatitudeService" data-source-line="46" data-uid="ent0012" id="cluster_CurrentLatitudeService"><path d="M1214,561 L1369.8203,561 A3.75,3.75 0 0 1 1372.3203,563.5 L1379.3203,584.6094 L1475,584.6094 A2.5,2.5 0 0 1 1477.5,587.1094 L1477.5,676.5 A2.5,2.5 0 0 1 1475,679 L1214,679 A2.5,2.5 0 0 1 1211.5,676.5 L1211.5,563.5 A2.5,2.5 0 0 1 1214,561" fill="none" style="stroke:#000000;stroke-width:1.5;"/><line style="stroke:#000000;stroke-width:1.5;" x1="1211.5" x2="1379.3203" y1="584.6094" y2="584.6094"/><text fill="#000000" font-family="sans-serif" font-size="14" font-weight="bold" lengthAdjust="spacing" textLength="154.8203" x="1215.5" y="577.5332">CurrentLatitudeService</text></g><!--cluster CurrentLongitudeService--><g class="cluster" data-entity="CurrentLongitudeService" data-source-line="50" data-uid="ent0014" id="cluster_CurrentLongitudeService"><path d="M1504,561 L1673.0273,561 A3.75,3.75 0 0 1 1675.5273,563.5 L1682.5273,584.6094 L1817,584.6094 A2.5,2.5 0 0 1 1819.5,587.1094 L1819.5,676.5 A2.5,2.5 0 0 1 1817,679 L1504,679 A2.5,2.5 0 0 1 1501.5,676.5 L1501.5,563.5 A2.5,2.5 0 0 1 1504,561" fill="none" style="stroke:#000000;stroke-width:1.5;"/><line style="stroke:#000000;stroke-width:1.5;" x1="1501.5" x2="1682.5273" y1="584.6094" y2="584.6094"/><text fill="#000000" font-family="sans-serif" font-size="14" font-weight="bold" lengthAdjust="spacing" textLength="168.0273" x="1505.5" y="577.5332">CurrentLongitudeService</text></g><!--class CSdvObject--><g class="entity" data-entity="CSdvObject" data-source-line="23" data-uid="ent0003" id="entity_CSdvObject"><rect fill="#F1F1F1" height="118.4375" rx="2.5" ry="2.5" style="stroke:#181818;stroke-width:0.5;" width="412.7705" x="325" y="571"/><ellipse cx="489.7871" cy="587" fill="#ADD1B2" rx="11" ry="11" style="stroke:#181818;stroke-width:1;"/><path d="M492.5527,582.875 Q492.709,582.6563 492.8965,582.5469 Q493.084,582.4375 493.3027,582.4375 Q493.6777,582.4375 493.9121,582.6953 Q494.1465,582.9531 494.1465,583.5625 L494.1465,585.0156 Q494.1465,585.625 493.9121,585.8906 Q493.6777,586.1563 493.3027,586.1563 Q492.959,586.1563 492.7559,585.9531 Q492.5527,585.7656 492.4434,585.25 Q492.3965,584.8906 492.209,584.7031 Q491.8809,584.3281 491.2715,584.1094 Q490.6621,583.8906 490.0371,583.8906 Q489.2715,583.8906 488.6387,584.2188 Q488.0059,584.5469 487.5137,585.2969 Q487.0215,586.0469 487.0215,587.0781 L487.0215,588.1719 Q487.0215,589.4063 487.9121,590.2266 Q488.8027,591.0469 490.3965,591.0469 Q491.334,591.0469 491.9902,590.7969 Q492.3809,590.6406 492.8027,590.2031 Q493.0684,589.9375 493.2168,589.8594 Q493.3652,589.7813 493.5684,589.7813 Q493.8965,589.7813 494.1543,590.0391 Q494.4121,590.2969 494.4121,590.6406 Q494.4121,590.9844 494.0684,591.3906 Q493.5684,591.9688 492.7715,592.2969 Q491.6934,592.75 490.3965,592.75 Q488.8809,592.75 487.6777,592.125 Q486.6934,591.625 486.0059,590.5547 Q485.3184,589.4844 485.3184,588.2031 L485.3184,587.0469 Q485.3184,585.7188 485.9355,584.5703 Q486.5527,583.4219 487.6465,582.8047 Q488.7402,582.1875 489.9746,582.1875 Q490.709,582.1875 491.3574,582.3516 Q492.0059,582.5156 492.5527,582.875 Z " fill="#000000"/><text fill="#000000" font-family="sans-serif" font-size="14" lengthAdjust="spacing" textLength="74.6963" x="510.2871" y="592.7285">CSdvObject</text><line style="stroke:#181818;stroke-width:0.5;" x1="326" x2="736.7705" y1="603" y2="603"/><line style="stroke:#181818;stroke-width:0.5;" x1="326" x2="736.7705" y1="611" y2="611"/><ellipse cx="336" cy="625.3047" fill="#84BE84" rx="3" ry="3" style="stroke:#038048;stroke-width:1;"/><text fill="#000000" font-family="sans-serif" font-size="14" lengthAdjust="spacing" text-decoration="underline" textLength="336.9365" x="345" y="629.5332">sdv::sequence&lt;sdv::u8string&gt; GetClassAliasesStatic()</text><ellipse cx="336" cy="642.9141" fill="#84BE84" rx="3" ry="3" style="stroke:#038048;stroke-width:1;"/><text fill="#000000" font-family="sans-serif" font-size="14" lengthAdjust="spacing" text-decoration="underline" textLength="272.3301" x="345" y="647.1426">sdv::u8string GetDefaultObjectNameStatic()</text><ellipse cx="336" cy="660.5234" fill="#84BE84" rx="3" ry="3" style="stroke:#038048;stroke-width:1;"/><text fill="#000000" font-family="sans-serif" font-size="14" lengthAdjust="spacing" text-decoration="underline" textLength="143.9648" x="345" y="664.752">bool IsSingletonStatic()</text><ellipse cx="336" cy="678.1328" fill="#84BE84" rx="3" ry="3" style="stroke:#038048;stroke-width:1;"/><text fill="#000000" font-family="sans-serif" font-size="14" lengthAdjust="spacing" text-decoration="underline" textLength="386.7705" x="345" y="682.3613">sdv::sequence&lt;sdv::u8string&gt; GetObjectDependenciesStatic()</text></g><!--class IObjectControl--><g class="entity" data-entity="IObjectControl" data-source-line="32" data-uid="ent0006" id="entity_IObjectControl"><rect fill="#F1F1F1" height="118.4375" rx="2.5" ry="2.5" style="stroke:#181818;stroke-width:0.5;" width="326.3574" x="773.5" y="571"/><ellipse cx="887.6875" cy="587" fill="#B4A7E5" rx="11" ry="11" style="stroke:#181818;stroke-width:1;"/><path d="M888.6406,583.6406 L888.6406,590.2969 L890.3594,590.2969 Q890.9688,590.2969 891.2344,590.5313 Q891.5,590.7656 891.5,591.1563 Q891.5,591.5313 891.2344,591.7656 Q890.9688,592 890.3594,592 L885.2188,592 Q884.6094,592 884.3438,591.7656 Q884.0781,591.5313 884.0781,591.1406 Q884.0781,590.7656 884.3438,590.5313 Q884.6094,590.2969 885.2188,590.2969 L886.9375,590.2969 L886.9375,583.6406 L885.2188,583.6406 Q884.6094,583.6406 884.3438,583.4063 Q884.0781,583.1719 884.0781,582.7813 Q884.0781,582.4063 884.3438,582.1719 Q884.6094,581.9375 885.2188,581.9375 L890.3594,581.9375 Q890.9688,581.9375 891.2344,582.1719 Q891.5,582.4063 891.5,582.7813 Q891.5,583.1719 891.2344,583.4063 Q890.9688,583.6406 890.3594,583.6406 L888.6406,583.6406 Z " fill="#000000"/><text fill="#000000" font-family="sans-serif" font-size="14" font-style="italic" lengthAdjust="spacing" textLength="89.4824" x="908.1875" y="592.7285">IObjectControl</text><line style="stroke:#181818;stroke-width:0.5;" x1="774.5" x2="1098.8574" y1="603" y2="603"/><line style="stroke:#181818;stroke-width:0.5;" x1="774.5" x2="1098.8574" y1="611" y2="611"/><text fill="#000000" font-family="sans-serif" font-size="14" font-style="italic" lengthAdjust="spacing" textLength="314.3574" x="779.5" y="629.5332">void Initialize(const sdv::u8string&amp; ssObjectConfig)</text><text fill="#000000" font-family="sans-serif" font-size="14" font-style="italic" lengthAdjust="spacing" textLength="202.3096" x="779.5" y="647.1426">EObjectStatus GetStatus() const</text><text fill="#000000" font-family="sans-serif" font-size="14" font-style="italic" lengthAdjust="spacing" textLength="308.9502" x="779.5" y="664.752">void SetOperationMode(EOperationMode eMode)</text><text fill="#000000" font-family="sans-serif" font-size="14" font-style="italic" lengthAdjust="spacing" textLength="101.165" x="779.5" y="682.3613">void Shutdown()</text></g><!--class IVSS_SetCurrentLatitude_Event--><g class="entity" data-entity="IVSS_SetCurrentLatitude_Event" data-source-line="46" data-uid="ent0008" id="entity_IVSS_SetCurrentLatitude_Event"><rect fill="#F1F1F1" height="65.6094" rx="2.5" ry="2.5" style="stroke:#181818;stroke-width:0.5;" width="232.792" x="1228" y="597"/><ellipse cx="1243" cy="613" fill="#B4A7E5" rx="11" ry="11" style="stroke:#181818;stroke-width:1;"/><path d="M1243.9531,609.6406 L1243.9531,616.2969 L1245.6719,616.2969 Q1246.2813,616.2969 1246.5469,616.5313 Q1246.8125,616.7656 1246.8125,617.1563 Q1246.8125,617.5313 1246.5469,617.7656 Q1246.2813,618 1245.6719,618 L1240.5313,618 Q1239.9219,618 1239.6563,617.7656 Q1239.3906,617.5313 1239.3906,617.1406 Q1239.3906,616.7656 1239.6563,616.5313 Q1239.9219,616.2969 1240.5313,616.2969 L1242.25,616.2969 L1242.25,609.6406 L1240.5313,609.6406 Q1239.9219,609.6406 1239.6563,609.4063 Q1239.3906,609.1719 1239.3906,608.7813 Q1239.3906,608.4063 1239.6563,608.1719 Q1239.9219,607.9375 1240.5313,607.9375 L1245.6719,607.9375 Q1246.2813,607.9375 1246.5469,608.1719 Q1246.8125,608.4063 1246.8125,608.7813 Q1246.8125,609.1719 1246.5469,609.4063 Q1246.2813,609.6406 1245.6719,609.6406 L1243.9531,609.6406 Z " fill="#000000"/><text fill="#000000" font-family="sans-serif" font-size="14" font-style="italic" lengthAdjust="spacing" textLength="200.792" x="1257" y="618.7285">IVSS_SetCurrentLatitude_Event</text><line style="stroke:#181818;stroke-width:0.5;" x1="1229" x2="1459.792" y1="629" y2="629"/><line style="stroke:#181818;stroke-width:0.5;" x1="1229" x2="1459.792" y1="637" y2="637"/><text fill="#000000" font-family="sans-serif" font-size="14" font-style="italic" lengthAdjust="spacing" textLength="220.2334" x="1234" y="655.5332">void SetCurrentLatitude(float value)</text></g><!--class IVSS_SetCurrentLongitude_Event--><g class="entity" data-entity="IVSS_SetCurrentLongitude_Event" data-source-line="50" data-uid="ent0013" id="entity_IVSS_SetCurrentLongitude_Event"><rect fill="#F1F1F1" height="65.6094" rx="2.5" ry="2.5" style="stroke:#181818;stroke-width:0.5;" width="285.1504" x="1518" y="597"/><ellipse cx="1551.3041" cy="613" fill="#B4A7E5" rx="11" ry="11" style="stroke:#181818;stroke-width:1;"/><path d="M1552.2572,609.6406 L1552.2572,616.2969 L1553.976,616.2969 Q1554.5854,616.2969 1554.851,616.5313 Q1555.1166,616.7656 1555.1166,617.1563 Q1555.1166,617.5313 1554.851,617.7656 Q1554.5854,618 1553.976,618 L1548.8354,618 Q1548.226,618 1547.9604,617.7656 Q1547.6947,617.5313 1547.6947,617.1406 Q1547.6947,616.7656 1547.9604,616.5313 Q1548.226,616.2969 1548.8354,616.2969 L1550.5541,616.2969 L1550.5541,609.6406 L1548.8354,609.6406 Q1548.226,609.6406 1547.9604,609.4063 Q1547.6947,609.1719 1547.6947,608.7813 Q1547.6947,608.4063 1547.9604,608.1719 Q1548.226,607.9375 1548.8354,607.9375 L1553.976,607.9375 Q1554.5854,607.9375 1554.851,608.1719 Q1555.1166,608.4063 1555.1166,608.7813 Q1555.1166,609.1719 1554.851,609.4063 Q1554.5854,609.6406 1553.976,609.6406 L1552.2572,609.6406 Z " fill="#000000"/><text fill="#000000" font-family="sans-serif" font-size="14" font-style="italic" lengthAdjust="spacing" textLength="212.4746" x="1569.3717" y="618.7285">IVSS_SetCurrentLongitude_Event</text><line style="stroke:#181818;stroke-width:0.5;" x1="1519" x2="1802.1504" y1="629" y2="629"/><line style="stroke:#181818;stroke-width:0.5;" x1="1519" x2="1802.1504" y1="637" y2="637"/><text fill="#000000" font-family="sans-serif" font-size="14" lengthAdjust="spacing" textLength="273.1504" x="1524" y="655.5332">virtual void SetCurrentLongitude(float value)</text></g><!--class CAutoHeadlightService--><g class="entity" data-entity="CAutoHeadlightService" data-source-line="2" data-uid="ent0002" id="entity_CAutoHeadlightService"><rect fill="#F1F1F1" height="358.0625" rx="2.5" ry="2.5" style="stroke:#181818;stroke-width:0.5;" width="649.3213" x="612" y="7"/><ellipse cx="860.0386" cy="28.3516" fill="#ADD1B2" rx="11" ry="11" style="stroke:#181818;stroke-width:1;"/><path d="M862.8042,24.2266 Q862.9604,24.0078 863.1479,23.8984 Q863.3354,23.7891 863.5542,23.7891 Q863.9292,23.7891 864.1636,24.0469 Q864.3979,24.3047 864.3979,24.9141 L864.3979,26.3672 Q864.3979,26.9766 864.1636,27.2422 Q863.9292,27.5078 863.5542,27.5078 Q863.2104,27.5078 863.0073,27.3047 Q862.8042,27.1172 862.6948,26.6016 Q862.6479,26.2422 862.4604,26.0547 Q862.1323,25.6797 861.5229,25.4609 Q860.9136,25.2422 860.2886,25.2422 Q859.5229,25.2422 858.8901,25.5703 Q858.2573,25.8984 857.7651,26.6484 Q857.2729,27.3984 857.2729,28.4297 L857.2729,29.5234 Q857.2729,30.7578 858.1636,31.5781 Q859.0542,32.3984 860.6479,32.3984 Q861.5854,32.3984 862.2417,32.1484 Q862.6323,31.9922 863.0542,31.5547 Q863.3198,31.2891 863.4683,31.2109 Q863.6167,31.1328 863.8198,31.1328 Q864.1479,31.1328 864.4058,31.3906 Q864.6636,31.6484 864.6636,31.9922 Q864.6636,32.3359 864.3198,32.7422 Q863.8198,33.3203 863.0229,33.6484 Q861.9448,34.1016 860.6479,34.1016 Q859.1323,34.1016 857.9292,33.4766 Q856.9448,32.9766 856.2573,31.9063 Q855.5698,30.8359 855.5698,29.5547 L855.5698,28.3984 Q855.5698,27.0703 856.187,25.9219 Q856.8042,24.7734 857.8979,24.1563 Q858.9917,23.5391 860.2261,23.5391 Q860.9604,23.5391 861.6089,23.7031 Q862.2573,23.8672 862.8042,24.2266 Z " fill="#000000"/><text fill="#000000" font-family="sans-serif" font-size="12" font-style="italic" lengthAdjust="spacing" textLength="63.3867" x="921.2173" y="24.457">&#171;Singleton&#187;</text><text fill="#000000" font-family="sans-serif" font-size="14" lengthAdjust="spacing" textLength="144.7441" x="880.5386" y="41.627">CAutoHeadlightService</text><line style="stroke:#181818;stroke-width:0.5;" x1="613" x2="1260.3213" y1="49.7031" y2="49.7031"/><rect fill="none" height="6" style="stroke:#C82930;stroke-width:1;" width="6" x="620" y="61.0078"/><text fill="#000000" font-family="sans-serif" font-size="14" lengthAdjust="spacing" textLength="189.8682" x="632" y="68.2363">sdv::EObjectStatus m_eStatus</text><rect fill="none" height="6" style="stroke:#C82930;stroke-width:1;" width="6" x="620" y="78.6172"/><text fill="#000000" font-family="sans-serif" font-size="14" lengthAdjust="spacing" textLength="197.6611" x="632" y="85.8457">volatile float m_fCurrentLatitude</text><rect fill="none" height="6" style="stroke:#C82930;stroke-width:1;" width="6" x="620" y="96.2266"/><text fill="#000000" font-family="sans-serif" font-size="14" lengthAdjust="spacing" textLength="209.3438" x="632" y="103.4551">volatile float m_fCurrentLongitude</text><rect fill="none" height="6" style="stroke:#C82930;stroke-width:1;" width="6" x="620" y="113.8359"/><text fill="#000000" font-family="sans-serif" font-size="14" lengthAdjust="spacing" textLength="164.2129" x="632" y="121.0645">volatile bool m_bHeadlight</text><rect fill="none" height="6" style="stroke:#C82930;stroke-width:1;" width="6" x="620" y="131.4453"/><text fill="#000000" font-family="sans-serif" font-size="14" lengthAdjust="spacing" textLength="249.04" x="632" y="138.6738">SGPSBoundBox m_SGPSBoundingBox</text><rect fill="none" height="6" style="stroke:#C82930;stroke-width:1;" width="6" x="620" y="149.0547"/><text fill="#000000" font-family="sans-serif" font-size="14" lengthAdjust="spacing" textLength="623.3213" x="632" y="156.2832">vss::Vehicle::Body::Light::Front::LowBeamService::IVSS_SetHeadLightLowBeam* m_pHeadlightSvc</text><line style="stroke:#181818;stroke-width:0.5;" x1="613" x2="1260.3213" y1="163.3594" y2="163.3594"/><ellipse cx="623" cy="177.6641" fill="#84BE84" rx="3" ry="3" style="stroke:#038048;stroke-width:1;"/><text fill="#000000" font-family="sans-serif" font-size="14" lengthAdjust="spacing" textLength="314.3574" x="632" y="181.8926">void Initialize(const sdv::u8string&amp; ssObjectConfig)</text><ellipse cx="623" cy="195.2734" fill="#84BE84" rx="3" ry="3" style="stroke:#038048;stroke-width:1;"/><text fill="#000000" font-family="sans-serif" font-size="14" lengthAdjust="spacing" textLength="231.875" x="632" y="199.502">sdv::EObjectStatus GetStatus() const</text><ellipse cx="623" cy="212.8828" fill="#84BE84" rx="3" ry="3" style="stroke:#038048;stroke-width:1;"/><text fill="#000000" font-family="sans-serif" font-size="14" lengthAdjust="spacing" textLength="338.5156" x="632" y="217.1113">void SetOperationMode(sdv::EOperationMode eMode)</text><ellipse cx="623" cy="230.4922" fill="#84BE84" rx="3" ry="3" style="stroke:#038048;stroke-width:1;"/><text fill="#000000" font-family="sans-serif" font-size="14" lengthAdjust="spacing" textLength="101.165" x="632" y="234.7207">void Shutdown()</text><rect fill="#F24D5C" height="6" style="stroke:#C82930;stroke-width:1;" width="6" x="620" y="245.1016"/><text fill="#000000" font-family="sans-serif" font-size="14" lengthAdjust="spacing" textLength="220.2334" x="632" y="252.3301">void SetCurrentLatitude(float value)</text><rect fill="#F24D5C" height="6" style="stroke:#C82930;stroke-width:1;" width="6" x="620" y="262.7109"/><text fill="#000000" font-family="sans-serif" font-size="14" lengthAdjust="spacing" textLength="231.916" x="632" y="269.9395">void SetCurrentLongitude(float value)</text><rect fill="#F24D5C" height="6" style="stroke:#C82930;stroke-width:1;" width="6" x="620" y="280.3203"/><text fill="#000000" font-family="sans-serif" font-size="14" lengthAdjust="spacing" textLength="141.627" x="632" y="287.5488">bool IsinTunnel() const</text><rect fill="#F24D5C" height="6" style="stroke:#C82930;stroke-width:1;" width="6" x="620" y="297.9297"/><text fill="#000000" font-family="sans-serif" font-size="14" lengthAdjust="spacing" textLength="198.4404" x="632" y="305.1582">bool GetHeadlightStatus() const</text><rect fill="#F24D5C" height="6" style="stroke:#C82930;stroke-width:1;" width="6" x="620" y="315.5391"/><text fill="#000000" font-family="sans-serif" font-size="14" lengthAdjust="spacing" textLength="270.8125" x="632" y="322.7676">SGPSBoundBox GetGPSBoundBox() const</text><rect fill="#F24D5C" height="6" style="stroke:#C82930;stroke-width:1;" width="6" x="620" y="333.1484"/><text fill="#000000" font-family="sans-serif" font-size="14" lengthAdjust="spacing" textLength="281.709" x="632" y="340.377">void ProcessHeadlightBasedOnEgoPosition()</text><rect fill="#F24D5C" height="6" style="stroke:#C82930;stroke-width:1;" width="6" x="620" y="350.7578"/><text fill="#000000" font-family="sans-serif" font-size="14" lengthAdjust="spacing" textLength="377.4189" x="632" y="357.9863">bool LoadGPSBounds(const sdv::u8string&amp; rssObjectConfig)</text></g><!--class CSdvObjectAccess--><g class="entity" data-entity="CSdvObjectAccess" data-source-line="31" data-uid="ent0005" id="entity_CSdvObjectAccess"><rect fill="#F1F1F1" height="48" rx="2.5" ry="2.5" style="stroke:#181818;stroke-width:0.5;" width="151.8203" x="455.5" y="815"/><ellipse cx="470.5" cy="831" fill="#ADD1B2" rx="11" ry="11" style="stroke:#181818;stroke-width:1;"/><path d="M473.2656,826.875 Q473.4219,826.6563 473.6094,826.5469 Q473.7969,826.4375 474.0156,826.4375 Q474.3906,826.4375 474.625,826.6953 Q474.8594,826.9531 474.8594,827.5625 L474.8594,829.0156 Q474.8594,829.625 474.625,829.8906 Q474.3906,830.1563 474.0156,830.1563 Q473.6719,830.1563 473.4688,829.9531 Q473.2656,829.7656 473.1563,829.25 Q473.1094,828.8906 472.9219,828.7031 Q472.5938,828.3281 471.9844,828.1094 Q471.375,827.8906 470.75,827.8906 Q469.9844,827.8906 469.3516,828.2188 Q468.7188,828.5469 468.2266,829.2969 Q467.7344,830.0469 467.7344,831.0781 L467.7344,832.1719 Q467.7344,833.4063 468.625,834.2266 Q469.5156,835.0469 471.1094,835.0469 Q472.0469,835.0469 472.7031,834.7969 Q473.0938,834.6406 473.5156,834.2031 Q473.7813,833.9375 473.9297,833.8594 Q474.0781,833.7813 474.2813,833.7813 Q474.6094,833.7813 474.8672,834.0391 Q475.125,834.2969 475.125,834.6406 Q475.125,834.9844 474.7813,835.3906 Q474.2813,835.9688 473.4844,836.2969 Q472.4063,836.75 471.1094,836.75 Q469.5938,836.75 468.3906,836.125 Q467.4063,835.625 466.7188,834.5547 Q466.0313,833.4844 466.0313,832.2031 L466.0313,831.0469 Q466.0313,829.7188 466.6484,828.5703 Q467.2656,827.4219 468.3594,826.8047 Q469.4531,826.1875 470.6875,826.1875 Q471.4219,826.1875 472.0703,826.3516 Q472.7188,826.5156 473.2656,826.875 Z " fill="#000000"/><text fill="#000000" font-family="sans-serif" font-size="14" lengthAdjust="spacing" textLength="119.8203" x="484.5" y="836.7285">CSdvObjectAccess</text><line style="stroke:#181818;stroke-width:0.5;" x1="456.5" x2="606.3203" y1="847" y2="847"/><line style="stroke:#181818;stroke-width:0.5;" x1="456.5" x2="606.3203" y1="855" y2="855"/></g><!--class IAutoheadlightService--><g class="entity" data-entity="IAutoheadlightService" data-source-line="39" data-uid="ent0007" id="entity_IAutoheadlightService"><rect fill="#F1F1F1" height="118.4375" rx="2.5" ry="2.5" style="stroke:#181818;stroke-width:0.5;" width="282.8125" x="7" y="571"/><ellipse cx="76.0566" cy="587" fill="#B4A7E5" rx="11" ry="11" style="stroke:#181818;stroke-width:1;"/><path d="M77.0098,583.6406 L77.0098,590.2969 L78.7285,590.2969 Q79.3379,590.2969 79.6035,590.5313 Q79.8691,590.7656 79.8691,591.1563 Q79.8691,591.5313 79.6035,591.7656 Q79.3379,592 78.7285,592 L73.5879,592 Q72.9785,592 72.7129,591.7656 Q72.4473,591.5313 72.4473,591.1406 Q72.4473,590.7656 72.7129,590.5313 Q72.9785,590.2969 73.5879,590.2969 L75.3066,590.2969 L75.3066,583.6406 L73.5879,583.6406 Q72.9785,583.6406 72.7129,583.4063 Q72.4473,583.1719 72.4473,582.7813 Q72.4473,582.4063 72.7129,582.1719 Q72.9785,581.9375 73.5879,581.9375 L78.7285,581.9375 Q79.3379,581.9375 79.6035,582.1719 Q79.8691,582.4063 79.8691,582.7813 Q79.8691,583.1719 79.6035,583.4063 Q79.3379,583.6406 78.7285,583.6406 L77.0098,583.6406 Z " fill="#000000"/><text fill="#000000" font-family="sans-serif" font-size="14" font-style="italic" lengthAdjust="spacing" textLength="136.1992" x="96.5566" y="592.7285">IAutoheadlightService</text><line style="stroke:#181818;stroke-width:0.5;" x1="8" x2="288.8125" y1="603" y2="603"/><text fill="#000000" font-family="sans-serif" font-size="14" lengthAdjust="spacing" textLength="141.627" x="13" y="621.5332">struct SGPSBoundBox</text><line style="stroke:#181818;stroke-width:0.5;" x1="8" x2="288.8125" y1="628.6094" y2="628.6094"/><text fill="#000000" font-family="sans-serif" font-size="14" font-style="italic" lengthAdjust="spacing" textLength="141.627" x="13" y="647.1426">bool IsinTunnel() const</text><text fill="#000000" font-family="sans-serif" font-size="14" font-style="italic" lengthAdjust="spacing" textLength="198.4404" x="13" y="664.752">bool GetHeadlightStatus() const</text><text fill="#000000" font-family="sans-serif" font-size="14" font-style="italic" lengthAdjust="spacing" textLength="270.8125" x="13" y="682.3613">SGPSBoundBox GetGPSBoundBox() const</text></g><!--link CAutoHeadlightService to IObjectControl--><g class="link" data-entity-1="CAutoHeadlightService" data-entity-2="IObjectControl" data-source-line="55" data-uid="lnk15" id="link_CAutoHeadlightService_IObjectControl"><path codeLine="55" d="M936.5,365.19 C936.5,438.55 936.5,500.45 936.5,552.87" fill="none" id="CAutoHeadlightService-to-IObjectControl" style="stroke:#181818;stroke-width:1;stroke-dasharray:7,7;"/><polygon fill="none" points="936.5,570.87,942.5,552.87,930.5,552.87,936.5,570.87" style="stroke:#181818;stroke-width:1;"/><text fill="#000000" font-family="sans-serif" font-size="13" lengthAdjust="spacing" textLength="67.1899" x="937.5" y="409.4951">Implements</text></g><!--link CAutoHeadlightService to IAutoheadlightService--><g class="link" data-entity-1="CAutoHeadlightService" data-entity-2="IAutoheadlightService" data-source-line="56" data-uid="lnk16" id="link_CAutoHeadlightService_IAutoheadlightService"><path codeLine="56" d="M611.71,269.5 C508.57,305.43 398.13,354.84 308.5,421 C254.25,461.04 218.6472,508.9577 190.3372,555.2077" fill="none" id="CAutoHeadlightService-to-IAutoheadlightService" style="stroke:#181818;stroke-width:1;stroke-dasharray:7,7;"/><polygon fill="none" points="180.94,570.56,195.4547,558.3402,185.2198,552.0753,180.94,570.56" style="stroke:#181818;stroke-width:1;"/><text fill="#000000" font-family="sans-serif" font-size="13" lengthAdjust="spacing" textLength="67.1899" x="338.5" y="409.4951">Implements</text></g><!--link CAutoHeadlightService to IVSS_SetCurrentLatitude_Event--><g class="link" data-entity-1="CAutoHeadlightService" data-entity-2="IVSS_SetCurrentLatitude_Event" data-source-line="57" data-uid="lnk17" id="link_CAutoHeadlightService_IVSS_SetCurrentLatitude_Event"><path codeLine="57" d="M1100.98,365.19 C1181.09,451.97 1257.4394,534.695 1302.4594,583.455" fill="none" id="CAutoHeadlightService-to-IVSS_SetCurrentLatitude_Event" style="stroke:#181818;stroke-width:1;stroke-dasharray:7,7;"/><polygon fill="none" points="1314.67,596.68,1306.8677,579.3848,1298.051,587.5252,1314.67,596.68" style="stroke:#181818;stroke-width:1;"/><text fill="#000000" font-family="sans-serif" font-size="13" lengthAdjust="spacing" textLength="67.1899" x="1141.5" y="409.4951">Implements</text></g><!--link CAutoHeadlightService to IVSS_SetCurrentLongitude_Event--><g class="link" data-entity-1="CAutoHeadlightService" data-entity-2="IVSS_SetCurrentLongitude_Event" data-source-line="58" data-uid="lnk18" id="link_CAutoHeadlightService_IVSS_SetCurrentLongitude_Event"><path codeLine="58" d="M1261.32,299.87 C1335.81,333.1 1412.22,373.53 1477.5,421 C1546.74,471.35 1597.8998,537.4575 1628.8998,582.0775" fill="none" id="CAutoHeadlightService-to-IVSS_SetCurrentLongitude_Event" style="stroke:#181818;stroke-width:1;stroke-dasharray:7,7;"/><polygon fill="none" points="1639.17,596.86,1633.8273,578.6541,1623.9723,585.5009,1639.17,596.86" style="stroke:#181818;stroke-width:1;"/><text fill="#000000" font-family="sans-serif" font-size="13" lengthAdjust="spacing" textLength="67.1899" x="1465.5" y="409.4951">Implements</text></g><!--link CAutoHeadlightService to CSdvObject--><g class="link" data-entity-1="CAutoHeadlightService" data-entity-2="CSdvObject" data-source-line="59" data-uid="lnk19" id="link_CAutoHeadlightService_CSdvObject"><path codeLine="59" d="M773.23,365.19 C706.01,438.55 644.9614,505.1798 596.9214,557.5998" fill="none" id="CAutoHeadlightService-to-CSdvObject" style="stroke:#181818;stroke-width:1;"/><polygon fill="none" points="584.76,570.87,601.3449,561.6536,592.498,553.5459,584.76,570.87" style="stroke:#181818;stroke-width:1;"/></g><!--link CSdvObject to CSdvObjectAccess--><g class="link" data-entity-1="CSdvObject" data-entity-2="CSdvObjectAccess" data-source-line="60" data-uid="lnk20" id="link_CSdvObject_CSdvObjectAccess"><path codeLine="60" d="M531.5,689.21 C531.5,730.83 531.5,766.61 531.5,796.79" fill="none" id="CSdvObject-to-CSdvObjectAccess" style="stroke:#181818;stroke-width:1;"/><polygon fill="none" points="531.5,814.79,537.5,796.79,525.5,796.79,531.5,814.79" style="stroke:#181818;stroke-width:1;"/><text fill="#000000" font-family="sans-serif" font-size="13" lengthAdjust="spacing" textLength="41.9072" x="532.5" y="781.4951">inherits</text></g><!--SRC=[dLLDZzem4BtdLyofWbRikR8GqiBIRIHQa5BjDJB90AuSc_eZstRBVw_pIH92bjqBnCwRv_6RcHVGQ43ZaIfgf092F8WurHeMzzR8hqXZplO74w1AMOGmdGPCx3aQAMOp3ruy0FYKIXQ3BvXXbBE_E8gaq8uqJWcndxLHBk83QBtU_iJ8BAJOiVqu3ymXos8_CDHO3OzOFet6aFESJmZGh8_eycHIV9CnZihmvXvWzZjk11siYUMp6ELxaufeOPL2OLOkq5X7jUEI6aWfjzWFb69_1RcLaeElcVXXXK3UpBjuvwvqrl7YRfFWSHFCfHNnNFxEi8rb2vTdj54oGgrhlZdL6A_5SYytKhDCXL4ZgvMaSKMd-ykYUkeowQbB4cBnLER2dN8SeL0Z2NSTGLz1LMgsONdEIRYjRtUfJnBMIvU-soaOj2Ra2GyiuaZ8NCP_25bb18HyKLAulvLydYDDoZOcn7yAWZ0e2fCZIy17TyBnNAqqyk3aLIEHox88uhHGfcp_5-rqOT6fR6UDlooA2ASjeMTPPHSPoprdhcOwo8EAOdKOgfWiv05tr79J7FYT9jWVL_PWFPi3x0Fv5QSyu155x22iaMKcGsKCjG3tKTQBdXjzWsf7dJtad7xTK4P9Ngb4j-ua6faJlDSk6XGtU4Rtm0ltk6eS5v4D2parR-jd5ddeM6HvNyTW8mFDvkrm3_X65pNi80tqJLxIkaDxT2eJSMtUdkUBmUcy3vUfMrsfzQj- -wQCAk-ucb85QEMKCcKivN2ZhsT3t_y5lBlxDuDsYmC1FpboJ1oX7exhwvWtX0-9_twQjc0tyKmcZgTfXUVdxhl29Hmh4mTKpEZ_]--></g></svg>