<svg xmlns="http://www.w3.org/2000/svg" xmlns:xlink="http://www.w3.org/1999/xlink" contentStyleType="text/css" data-diagram-type="CLASS" height="654px" preserveAspectRatio="none" style="width:1029px;height:654px;background:#FFFFFF;" version="1.1" viewBox="0 0 1029 654" width="1029px" zoomAndPan="magnify"><defs/><g><!--cluster sdv--><g class="cluster" data-entity="sdv" data-source-line="10" data-uid="ent0004" id="cluster_sdv"><path d="M8.5,383 L33.624,383 A3.75,3.75 0 0 1 36.124,385.5 L43.124,406.6094 L449.5,406.6094 A2.5,2.5 0 0 1 452,409.1094 L452,550.5 A2.5,2.5 0 0 1 449.5,553 L8.5,553 A2.5,2.5 0 0 1 6,550.5 L6,385.5 A2.5,2.5 0 0 1 8.5,383" fill="none" style="stroke:#000000;stroke-width:1.5;"/><line style="stroke:#000000;stroke-width:1.5;" x1="6" x2="43.124" y1="406.6094" y2="406.6094"/><text fill="#000000" font-family="sans-serif" font-size="14" font-weight="bold" lengthAdjust="spacing" textLength="24.124" x="10" y="399.5332">sdv</text></g><!--cluster vss--><g class="cluster" data-entity="vss" data-source-line="18" data-uid="ent0006" id="cluster_vss"><path d="M478.5,189 L502.8584,189 A3.75,3.75 0 0 1 505.3584,191.5 L512.3584,212.6094 L1019.5,212.6094 A2.5,2.5 0 0 1 1022,215.1094 L1022,644.5 A2.5,2.5 0 0 1 1019.5,647 L478.5,647 A2.5,2.5 0 0 1 476,644.5 L476,191.5 A2.5,2.5 0 0 1 478.5,189" fill="none" style="stroke:#000000;stroke-width:1.5;"/><line style="stroke:#000000;stroke-width:1.5;" x1="476" x2="512.3584" y1="212.6094" y2="212.6094"/><text fill="#000000" font-family="sans-serif" font-size="14" font-weight="bold" lengthAdjust="spacing" textLength="23.3584" x="480" y="205.5332">vss</text></g><!--cluster Vehicle--><g class="cluster" data-entity="Vehicle" data-source-line="18" data-uid="ent0007" id="cluster_Vehicle"><path d="M502.5,233 L552.5273,233 A3.75,3.75 0 0 1 555.0273,235.5 L562.0273,256.6094 L995.5,256.6094 A2.5,2.5 0 0 1 998,259.1094 L998,620.5 A2.5,2.5 0 0 1 995.5,623 L502.5,623 A2.5,2.5 0 0 1 500,620.5 L500,235.5 A2.5,2.5 0 0 1 502.5,233" fill="none" style="stroke:#000000;stroke-width:1.5;"/><line style="stroke:#000000;stroke-width:1.5;" x1="500" x2="562.0273" y1="256.6094" y2="256.6094"/><text fill="#000000" font-family="sans-serif" font-size="14" font-weight="bold" lengthAdjust="spacing" textLength="49.0273" x="504" y="249.5332">Vehicle</text></g><!--cluster Body--><g class="cluster" data-entity="Body" data-source-line="18" data-uid="ent0008" id="cluster_Body"><path d="M526.5,277 L562.5,277 A3.75,3.75 0 0 1 565,279.5 L572,300.6094 L971.5,300.6094 A2.5,2.5 0 0 1 974,303.1094 L974,596.5 A2.5,2.5 0 0 1 971.5,599 L526.5,599 A2.5,2.5 0 0 1 524,596.5 L524,279.5 A2.5,2.5 0 0 1 526.5,277" fill="none" style="stroke:#000000;stroke-width:1.5;"/><line style="stroke:#000000;stroke-width:1.5;" x1="524" x2="572" y1="300.6094" y2="300.6094"/><text fill="#000000" font-family="sans-serif" font-size="14" font-weight="bold" lengthAdjust="spacing" textLength="35" x="528" y="293.5332">Body</text></g><!--cluster Light--><g class="cluster" data-entity="Light" data-source-line="18" data-uid="ent0009" id="cluster_Light"><path d="M550.5,321 L585.707,321 A3.75,3.75 0 0 1 588.207,323.5 L595.207,344.6094 L947.5,344.6094 A2.5,2.5 0 0 1 950,347.1094 L950,572.5 A2.5,2.5 0 0 1 947.5,575 L550.5,575 A2.5,2.5 0 0 1 548,572.5 L548,323.5 A2.5,2.5 0 0 1 550.5,321" fill="none" style="stroke:#000000;stroke-width:1.5;"/><line style="stroke:#000000;stroke-width:1.5;" x1="548" x2="595.207" y1="344.6094" y2="344.6094"/><text fill="#000000" font-family="sans-serif" font-size="14" font-weight="bold" lengthAdjust="spacing" textLength="34.207" x="552" y="337.5332">Light</text></g><!--cluster Front--><g class="cluster" data-entity="Front" data-source-line="18" data-uid="ent0010" id="cluster_Front"><path d="M574.5,365 L611.2656,365 A3.75,3.75 0 0 1 613.7656,367.5 L620.7656,388.6094 L923.5,388.6094 A2.5,2.5 0 0 1 926,391.1094 L926,548.5 A2.5,2.5 0 0 1 923.5,551 L574.5,551 A2.5,2.5 0 0 1 572,548.5 L572,367.5 A2.5,2.5 0 0 1 574.5,365" fill="none" style="stroke:#000000;stroke-width:1.5;"/><line style="stroke:#000000;stroke-width:1.5;" x1="572" x2="620.7656" y1="388.6094" y2="388.6094"/><text fill="#000000" font-family="sans-serif" font-size="14" font-weight="bold" lengthAdjust="spacing" textLength="35.7656" x="576" y="381.5332">Front</text></g><!--cluster LowBeamDevice--><g class="cluster" data-entity="LowBeamDevice" data-source-line="18" data-uid="ent0011" id="cluster_LowBeamDevice"><path d="M598.5,409 L710.7686,409 A3.75,3.75 0 0 1 713.2686,411.5 L720.2686,432.6094 L899.5,432.6094 A2.5,2.5 0 0 1 902,435.1094 L902,524.5 A2.5,2.5 0 0 1 899.5,527 L598.5,527 A2.5,2.5 0 0 1 596,524.5 L596,411.5 A2.5,2.5 0 0 1 598.5,409" fill="none" style="stroke:#000000;stroke-width:1.5;"/><line style="stroke:#000000;stroke-width:1.5;" x1="596" x2="720.2686" y1="432.6094" y2="432.6094"/><text fill="#000000" font-family="sans-serif" font-size="14" font-weight="bold" lengthAdjust="spacing" textLength="111.2686" x="600" y="425.5332">LowBeamDevice</text></g><!--class CSdvObject--><g class="entity" data-entity="CSdvObject" data-source-line="10" data-uid="ent0003" id="entity_CSdvObject"><rect fill="#F1F1F1" height="118.4375" rx="2.5" ry="2.5" style="stroke:#181818;stroke-width:0.5;" width="412.7705" x="22.5" y="419"/><ellipse cx="187.2871" cy="435" fill="#ADD1B2" rx="11" ry="11" style="stroke:#181818;stroke-width:1;"/><path d="M190.0527,430.875 Q190.209,430.6563 190.3965,430.5469 Q190.584,430.4375 190.8027,430.4375 Q191.1777,430.4375 191.4121,430.6953 Q191.6465,430.9531 191.6465,431.5625 L191.6465,433.0156 Q191.6465,433.625 191.4121,433.8906 Q191.1777,434.1563 190.8027,434.1563 Q190.459,434.1563 190.2559,433.9531 Q190.0527,433.7656 189.9434,433.25 Q189.8965,432.8906 189.709,432.7031 Q189.3809,432.3281 188.7715,432.1094 Q188.1621,431.8906 187.5371,431.8906 Q186.7715,431.8906 186.1387,432.2188 Q185.5059,432.5469 185.0137,433.2969 Q184.5215,434.0469 184.5215,435.0781 L184.5215,436.1719 Q184.5215,437.4063 185.4121,438.2266 Q186.3027,439.0469 187.8965,439.0469 Q188.834,439.0469 189.4902,438.7969 Q189.8809,438.6406 190.3027,438.2031 Q190.5684,437.9375 190.7168,437.8594 Q190.8652,437.7813 191.0684,437.7813 Q191.3965,437.7813 191.6543,438.0391 Q191.9121,438.2969 191.9121,438.6406 Q191.9121,438.9844 191.5684,439.3906 Q191.0684,439.9688 190.2715,440.2969 Q189.1934,440.75 187.8965,440.75 Q186.3809,440.75 185.1777,440.125 Q184.1934,439.625 183.5059,438.5547 Q182.8184,437.4844 182.8184,436.2031 L182.8184,435.0469 Q182.8184,433.7188 183.4355,432.5703 Q184.0527,431.4219 185.1465,430.8047 Q186.2402,430.1875 187.4746,430.1875 Q188.209,430.1875 188.8574,430.3516 Q189.5059,430.5156 190.0527,430.875 Z " fill="#000000"/><text fill="#000000" font-family="sans-serif" font-size="14" lengthAdjust="spacing" textLength="74.6963" x="207.7871" y="440.7285">CSdvObject</text><line style="stroke:#181818;stroke-width:0.5;" x1="23.5" x2="434.2705" y1="451" y2="451"/><line style="stroke:#181818;stroke-width:0.5;" x1="23.5" x2="434.2705" y1="459" y2="459"/><ellipse cx="33.5" cy="473.3047" fill="#84BE84" rx="3" ry="3" style="stroke:#038048;stroke-width:1;"/><text fill="#000000" font-family="sans-serif" font-size="14" lengthAdjust="spacing" text-decoration="underline" textLength="336.9365" x="42.5" y="477.5332">sdv::sequence&lt;sdv::u8string&gt; GetClassAliasesStatic()</text><ellipse cx="33.5" cy="490.9141" fill="#84BE84" rx="3" ry="3" style="stroke:#038048;stroke-width:1;"/><text fill="#000000" font-family="sans-serif" font-size="14" lengthAdjust="spacing" text-decoration="underline" textLength="272.3301" x="42.5" y="495.1426">sdv::u8string GetDefaultObjectNameStatic()</text><ellipse cx="33.5" cy="508.5234" fill="#84BE84" rx="3" ry="3" style="stroke:#038048;stroke-width:1;"/><text fill="#000000" font-family="sans-serif" font-size="14" lengthAdjust="spacing" text-decoration="underline" textLength="143.9648" x="42.5" y="512.752">bool IsSingletonStatic()</text><ellipse cx="33.5" cy="526.1328" fill="#84BE84" rx="3" ry="3" style="stroke:#038048;stroke-width:1;"/><text fill="#000000" font-family="sans-serif" font-size="14" lengthAdjust="spacing" text-decoration="underline" textLength="386.7705" x="42.5" y="530.3613">sdv::sequence&lt;sdv::u8string&gt; GetObjectDependenciesStatic()</text></g><!--class IVSS_WriteHeadLightLowBeam--><g class="entity" data-entity="IVSS_WriteHeadLightLowBeam" data-source-line="18" data-uid="ent0005" id="entity_IVSS_WriteHeadLightLowBeam"><rect fill="#F1F1F1" height="65.6094" rx="2.5" ry="2.5" style="stroke:#181818;stroke-width:0.5;" width="274.2539" x="612" y="445"/><ellipse cx="646.7191" cy="461" fill="#B4A7E5" rx="11" ry="11" style="stroke:#181818;stroke-width:1;"/><path d="M647.6723,457.6406 L647.6723,464.2969 L649.391,464.2969 Q650.0004,464.2969 650.266,464.5313 Q650.5316,464.7656 650.5316,465.1563 Q650.5316,465.5313 650.266,465.7656 Q650.0004,466 649.391,466 L644.2504,466 Q643.641,466 643.3754,465.7656 Q643.1098,465.5313 643.1098,465.1406 Q643.1098,464.7656 643.3754,464.5313 Q643.641,464.2969 644.2504,464.2969 L645.9691,464.2969 L645.9691,457.6406 L644.2504,457.6406 Q643.641,457.6406 643.3754,457.4063 Q643.1098,457.1719 643.1098,456.7813 Q643.1098,456.4063 643.3754,456.1719 Q643.641,455.9375 644.2504,455.9375 L649.391,455.9375 Q650.0004,455.9375 650.266,456.1719 Q650.5316,456.4063 650.5316,456.7813 Q650.5316,457.1719 650.266,457.4063 Q650.0004,457.6406 649.391,457.6406 L647.6723,457.6406 Z " fill="#000000"/><text fill="#000000" font-family="sans-serif" font-size="14" font-style="italic" lengthAdjust="spacing" textLength="198.4336" x="665.1012" y="466.7285">IVSS_WriteHeadLightLowBeam</text><line style="stroke:#181818;stroke-width:0.5;" x1="613" x2="885.2539" y1="477" y2="477"/><line style="stroke:#181818;stroke-width:0.5;" x1="613" x2="885.2539" y1="485" y2="485"/><text fill="#000000" font-family="sans-serif" font-size="14" font-style="italic" lengthAdjust="spacing" textLength="262.2539" x="618" y="503.5332">bool WriteHeadLightLowBeam(bool value)</text></g><!--class CVehicleDeviceHeadLightLowBeam--><g class="entity" data-entity="CVehicleDeviceHeadLightLowBeam" data-source-line="2" data-uid="ent0002" id="entity_CVehicleDeviceHeadLightLowBeam"><rect fill="#F1F1F1" height="118.4375" rx="2.5" ry="2.5" style="stroke:#181818;stroke-width:0.5;" width="296.8125" x="340.5" y="7"/><ellipse cx="373.4596" cy="23" fill="#ADD1B2" rx="11" ry="11" style="stroke:#181818;stroke-width:1;"/><path d="M376.2252,18.875 Q376.3814,18.6563 376.5689,18.5469 Q376.7564,18.4375 376.9752,18.4375 Q377.3502,18.4375 377.5846,18.6953 Q377.8189,18.9531 377.8189,19.5625 L377.8189,21.0156 Q377.8189,21.625 377.5846,21.8906 Q377.3502,22.1563 376.9752,22.1563 Q376.6314,22.1563 376.4283,21.9531 Q376.2252,21.7656 376.1158,21.25 Q376.0689,20.8906 375.8814,20.7031 Q375.5533,20.3281 374.9439,20.1094 Q374.3346,19.8906 373.7096,19.8906 Q372.9439,19.8906 372.3111,20.2188 Q371.6783,20.5469 371.1861,21.2969 Q370.6939,22.0469 370.6939,23.0781 L370.6939,24.1719 Q370.6939,25.4063 371.5846,26.2266 Q372.4752,27.0469 374.0689,27.0469 Q375.0064,27.0469 375.6627,26.7969 Q376.0533,26.6406 376.4752,26.2031 Q376.7408,25.9375 376.8893,25.8594 Q377.0377,25.7813 377.2408,25.7813 Q377.5689,25.7813 377.8268,26.0391 Q378.0846,26.2969 378.0846,26.6406 Q378.0846,26.9844 377.7408,27.3906 Q377.2408,27.9688 376.4439,28.2969 Q375.3658,28.75 374.0689,28.75 Q372.5533,28.75 371.3502,28.125 Q370.3658,27.625 369.6783,26.5547 Q368.9908,25.4844 368.9908,24.2031 L368.9908,23.0469 Q368.9908,21.7188 369.608,20.5703 Q370.2252,19.4219 371.3189,18.8047 Q372.4127,18.1875 373.6471,18.1875 Q374.3814,18.1875 375.0299,18.3516 Q375.6783,18.5156 376.2252,18.875 Z " fill="#000000"/><text fill="#000000" font-family="sans-serif" font-size="14" lengthAdjust="spacing" textLength="224.9023" x="391.4506" y="28.7285">CVehicleDeviceHeadLightLowBeam</text><line style="stroke:#181818;stroke-width:0.5;" x1="341.5" x2="636.3125" y1="39" y2="39"/><rect fill="none" height="6" style="stroke:#C82930;stroke-width:1;" width="6" x="348.5" y="50.3047"/><text fill="#000000" font-family="sans-serif" font-size="14" lengthAdjust="spacing" textLength="270.8125" x="360.5" y="57.5332">sdv::core::CSignal m_bHeadLightLowBeam</text><line style="stroke:#181818;stroke-width:0.5;" x1="341.5" x2="636.3125" y1="64.6094" y2="64.6094"/><ellipse cx="351.5" cy="78.9141" fill="#84BE84" rx="3" ry="3" style="stroke:#038048;stroke-width:1;"/><text fill="#000000" font-family="sans-serif" font-size="14" lengthAdjust="spacing" textLength="108.1514" x="360.5" y="83.1426">void OnInitialize()</text><ellipse cx="351.5" cy="96.5234" fill="#84BE84" rx="3" ry="3" style="stroke:#038048;stroke-width:1;"/><text fill="#000000" font-family="sans-serif" font-size="14" lengthAdjust="spacing" textLength="101.165" x="360.5" y="100.752">void Shutdown()</text><ellipse cx="351.5" cy="114.1328" fill="#84BE84" rx="3" ry="3" style="stroke:#038048;stroke-width:1;"/><text fill="#000000" font-family="sans-serif" font-size="14" lengthAdjust="spacing" textLength="262.2539" x="360.5" y="118.3613">bool WriteHeadLightLowBeam(bool value)</text></g><!--link CVehicleDeviceHeadLightLowBeam to CSdvObject--><g class="link" data-entity-1="CVehicleDeviceHeadLightLowBeam" data-entity-2="CSdvObject" data-source-line="23" data-uid="lnk12" id="link_CVehicleDeviceHeadLightLowBeam_CSdvObject"><path codeLine="23" d="M452.02,125.31 C402.53,203.35 324.909,325.7484 275.489,403.6884" fill="none" id="CVehicleDeviceHeadLightLowBeam-to-CSdvObject" style="stroke:#181818;stroke-width:1;"/><polygon fill="none" points="265.85,418.89,280.5562,406.9014,270.4218,400.4754,265.85,418.89" style="stroke:#181818;stroke-width:1;"/><text fill="#000000" font-family="sans-serif" font-size="13" lengthAdjust="spacing" textLength="42.6309" x="433" y="169.4951">Inherits</text></g><!--link CVehicleDeviceHeadLightLowBeam to IVSS_WriteHeadLightLowBeam--><g class="link" data-entity-1="CVehicleDeviceHeadLightLowBeam" data-entity-2="IVSS_WriteHeadLightLowBeam" data-source-line="24" data-uid="lnk13" id="link_CVehicleDeviceHeadLightLowBeam_IVSS_WriteHeadLightLowBeam"><path codeLine="24" d="M525.98,125.31 C581.56,212.97 675.1712,360.5682 718.9212,429.5682" fill="none" id="CVehicleDeviceHeadLightLowBeam-to-IVSS_WriteHeadLightLowBeam" style="stroke:#181818;stroke-width:1;stroke-dasharray:7,7;"/><polygon fill="none" points="728.56,444.77,723.9885,426.3553,713.8539,432.7812,728.56,444.77" style="stroke:#181818;stroke-width:1;"/><text fill="#000000" font-family="sans-serif" font-size="13" lengthAdjust="spacing" textLength="67.1899" x="552" y="169.4951">Implements</text></g><!--SRC=[hL9DRy8m3BttL_Z8XE0yMHFIADfM2Or39NP4QMfefZHXZLkqCVxxqhHe4o2smqvHOhyF-mKSCJZQYagmhG0n0gc5Sn0lgL1IqumQ9Uc9H3vNcuBdTZSbKKQmZm1Ws5YLmy8aHh4IMdtGuERxFIrgpktEz6-PjHfUAiLdR8DGQeIkARIENDuWIbiHOfogZH4QobLsRk8G7Uq6H9pcpI9x9SczlxrZmKeUO1ZgZjvgCfBkmgs-TLmfivd08t7Sijnh9HovD80wroSCHqmBcT5Qr9exmMTHqcLSc2rngKTfOckki5_nrwdCQ4iczotgfyjs2ubXgjP24ZJE8VRX8Kvj_euOjeRuK5dZZtvzNRA8oJ9DLnTpEMvHPDw9a7o0lsROMhh-Ws0q-foSnWRe1od8yxjVyUEnn__ZiArskTLKal7gNm00]--></g></svg>