<svg xmlns="http://www.w3.org/2000/svg" xmlns:xlink="http://www.w3.org/1999/xlink" contentStyleType="text/css" data-diagram-type="CLASS" height="1022px" preserveAspectRatio="none" style="width:2346px;height:1022px;background:#FFFFFF;" version="1.1" viewBox="0 0 2346 1022" width="2346px" zoomAndPan="magnify"><defs/><g><!--cluster sdv--><g class="cluster" data-entity="sdv" data-source-line="27" data-uid="ent0004" id="cluster_sdv"><path d="M179,727 L204.124,727 A3.75,3.75 0 0 1 206.624,729.5 L213.624,750.6094 L981,750.6094 A2.5,2.5 0 0 1 983.5,753.1094 L983.5,894.5 A2.5,2.5 0 0 1 981,897 L179,897 A2.5,2.5 0 0 1 176.5,894.5 L176.5,729.5 A2.5,2.5 0 0 1 179,727" fill="none" style="stroke:#000000;stroke-width:1.5;"/><line style="stroke:#000000;stroke-width:1.5;" x1="176.5" x2="213.624" y1="750.6094" y2="750.6094"/><text fill="#000000" font-family="sans-serif" font-size="14" font-weight="bold" lengthAdjust="spacing" textLength="24.124" x="180.5" y="743.5332">sdv</text></g><!--cluster vss--><g class="cluster" data-entity="vss" data-source-line="48" data-uid="ent0008" id="cluster_vss"><path d="M1010,489 L1034.3584,489 A3.75,3.75 0 0 1 1036.8584,491.5 L1043.8584,512.6094 L2337,512.6094 A2.5,2.5 0 0 1 2339.5,515.1094 L2339.5,1012.5 A2.5,2.5 0 0 1 2337,1015 L1010,1015 A2.5,2.5 0 0 1 1007.5,1012.5 L1007.5,491.5 A2.5,2.5 0 0 1 1010,489" fill="none" style="stroke:#000000;stroke-width:1.5;"/><line style="stroke:#000000;stroke-width:1.5;" x1="1007.5" x2="1043.8584" y1="512.6094" y2="512.6094"/><text fill="#000000" font-family="sans-serif" font-size="14" font-weight="bold" lengthAdjust="spacing" textLength="23.3584" x="1011.5" y="505.5332">vss</text></g><!--cluster Vehicle--><g class="cluster" data-entity="Vehicle" data-source-line="48" data-uid="ent0009" id="cluster_Vehicle"><path d="M1034,533 L1084.0273,533 A3.75,3.75 0 0 1 1086.5273,535.5 L1093.5273,556.6094 L2313,556.6094 A2.5,2.5 0 0 1 2315.5,559.1094 L2315.5,988.5 A2.5,2.5 0 0 1 2313,991 L1034,991 A2.5,2.5 0 0 1 1031.5,988.5 L1031.5,535.5 A2.5,2.5 0 0 1 1034,533" fill="none" style="stroke:#000000;stroke-width:1.5;"/><line style="stroke:#000000;stroke-width:1.5;" x1="1031.5" x2="1093.5273" y1="556.6094" y2="556.6094"/><text fill="#000000" font-family="sans-serif" font-size="14" font-weight="bold" lengthAdjust="spacing" textLength="49.0273" x="1035.5" y="549.5332">Vehicle</text></g><!--cluster Body--><g class="cluster" data-entity="Body" data-source-line="48" data-uid="ent0010" id="cluster_Body"><path d="M1058,577 L1094,577 A3.75,3.75 0 0 1 1096.5,579.5 L1103.5,600.6094 L2289,600.6094 A2.5,2.5 0 0 1 2291.5,603.1094 L2291.5,964.5 A2.5,2.5 0 0 1 2289,967 L1058,967 A2.5,2.5 0 0 1 1055.5,964.5 L1055.5,579.5 A2.5,2.5 0 0 1 1058,577" fill="none" style="stroke:#000000;stroke-width:1.5;"/><line style="stroke:#000000;stroke-width:1.5;" x1="1055.5" x2="1103.5" y1="600.6094" y2="600.6094"/><text fill="#000000" font-family="sans-serif" font-size="14" font-weight="bold" lengthAdjust="spacing" textLength="35" x="1059.5" y="593.5332">Body</text></g><!--cluster Door--><g class="cluster" data-entity="Door" data-source-line="48" data-uid="ent0011" id="cluster_Door"><path d="M1082,621 L1115.6621,621 A3.75,3.75 0 0 1 1118.1621,623.5 L1125.1621,644.6094 L2265,644.6094 A2.5,2.5 0 0 1 2267.5,647.1094 L2267.5,940.5 A2.5,2.5 0 0 1 2265,943 L1082,943 A2.5,2.5 0 0 1 1079.5,940.5 L1079.5,623.5 A2.5,2.5 0 0 1 1082,621" fill="none" style="stroke:#000000;stroke-width:1.5;"/><line style="stroke:#000000;stroke-width:1.5;" x1="1079.5" x2="1125.1621" y1="644.6094" y2="644.6094"/><text fill="#000000" font-family="sans-serif" font-size="14" font-weight="bold" lengthAdjust="spacing" textLength="32.6621" x="1083.5" y="637.5332">Door</text></g><!--cluster Axle--><g class="cluster" data-entity="Axle" data-source-line="48" data-uid="ent0012" id="cluster_Axle"><path d="M1106,665 L1136.5723,665 A3.75,3.75 0 0 1 1139.0723,667.5 L1146.0723,688.6094 L2241,688.6094 A2.5,2.5 0 0 1 2243.5,691.1094 L2243.5,916.5 A2.5,2.5 0 0 1 2241,919 L1106,919 A2.5,2.5 0 0 1 1103.5,916.5 L1103.5,667.5 A2.5,2.5 0 0 1 1106,665" fill="none" style="stroke:#000000;stroke-width:1.5;"/><line style="stroke:#000000;stroke-width:1.5;" x1="1103.5" x2="1146.0723" y1="688.6094" y2="688.6094"/><text fill="#000000" font-family="sans-serif" font-size="14" font-weight="bold" lengthAdjust="spacing" textLength="29.5723" x="1107.5" y="681.5332">Axle</text></g><!--cluster _01--><g class="cluster" data-entity="_01" data-source-line="48" data-uid="ent0013" id="cluster__01"><path d="M1130,709 L1154.3584,709 A3.75,3.75 0 0 1 1156.8584,711.5 L1163.8584,732.6094 L1659,732.6094 A2.5,2.5 0 0 1 1661.5,735.1094 L1661.5,892.5 A2.5,2.5 0 0 1 1659,895 L1130,895 A2.5,2.5 0 0 1 1127.5,892.5 L1127.5,711.5 A2.5,2.5 0 0 1 1130,709" fill="none" style="stroke:#000000;stroke-width:1.5;"/><line style="stroke:#000000;stroke-width:1.5;" x1="1127.5" x2="1163.8584" y1="732.6094" y2="732.6094"/><text fill="#000000" font-family="sans-serif" font-size="14" font-weight="bold" lengthAdjust="spacing" textLength="23.3584" x="1131.5" y="725.5332">_01</text></g><!--cluster LeftService--><g class="cluster" data-entity="LeftService" data-source-line="48" data-uid="ent0014" id="cluster_LeftService"><path d="M1154,753 L1230.4824,753 A3.75,3.75 0 0 1 1232.9824,755.5 L1239.9824,776.6094 L1379,776.6094 A2.5,2.5 0 0 1 1381.5,779.1094 L1381.5,868.5 A2.5,2.5 0 0 1 1379,871 L1154,871 A2.5,2.5 0 0 1 1151.5,868.5 L1151.5,755.5 A2.5,2.5 0 0 1 1154,753" fill="none" style="stroke:#000000;stroke-width:1.5;"/><line style="stroke:#000000;stroke-width:1.5;" x1="1151.5" x2="1239.9824" y1="776.6094" y2="776.6094"/><text fill="#000000" font-family="sans-serif" font-size="14" font-weight="bold" lengthAdjust="spacing" textLength="75.4824" x="1155.5" y="769.5332">LeftService</text></g><!--cluster RightService--><g class="cluster" data-entity="RightService" data-source-line="58" data-uid="ent0019" id="cluster_RightService"><path d="M1408,753 L1494.5859,753 A3.75,3.75 0 0 1 1497.0859,755.5 L1504.0859,776.6094 L1635,776.6094 A2.5,2.5 0 0 1 1637.5,779.1094 L1637.5,868.5 A2.5,2.5 0 0 1 1635,871 L1408,871 A2.5,2.5 0 0 1 1405.5,868.5 L1405.5,755.5 A2.5,2.5 0 0 1 1408,753" fill="none" style="stroke:#000000;stroke-width:1.5;"/><line style="stroke:#000000;stroke-width:1.5;" x1="1405.5" x2="1504.0859" y1="776.6094" y2="776.6094"/><text fill="#000000" font-family="sans-serif" font-size="14" font-weight="bold" lengthAdjust="spacing" textLength="85.5859" x="1409.5" y="769.5332">RightService</text></g><!--cluster _02--><g class="cluster" data-entity="_02" data-source-line="53" data-uid="ent0016" id="cluster__02"><path d="M1688,709 L1712.3584,709 A3.75,3.75 0 0 1 1714.8584,711.5 L1721.8584,732.6094 L2217,732.6094 A2.5,2.5 0 0 1 2219.5,735.1094 L2219.5,892.5 A2.5,2.5 0 0 1 2217,895 L1688,895 A2.5,2.5 0 0 1 1685.5,892.5 L1685.5,711.5 A2.5,2.5 0 0 1 1688,709" fill="none" style="stroke:#000000;stroke-width:1.5;"/><line style="stroke:#000000;stroke-width:1.5;" x1="1685.5" x2="1721.8584" y1="732.6094" y2="732.6094"/><text fill="#000000" font-family="sans-serif" font-size="14" font-weight="bold" lengthAdjust="spacing" textLength="23.3584" x="1689.5" y="725.5332">_02</text></g><!--cluster LeftService--><g class="cluster" data-entity="LeftService" data-source-line="53" data-uid="ent0017" id="cluster_LeftService"><path d="M1712,753 L1788.4824,753 A3.75,3.75 0 0 1 1790.9824,755.5 L1797.9824,776.6094 L1937,776.6094 A2.5,2.5 0 0 1 1939.5,779.1094 L1939.5,868.5 A2.5,2.5 0 0 1 1937,871 L1712,871 A2.5,2.5 0 0 1 1709.5,868.5 L1709.5,755.5 A2.5,2.5 0 0 1 1712,753" fill="none" style="stroke:#000000;stroke-width:1.5;"/><line style="stroke:#000000;stroke-width:1.5;" x1="1709.5" x2="1797.9824" y1="776.6094" y2="776.6094"/><text fill="#000000" font-family="sans-serif" font-size="14" font-weight="bold" lengthAdjust="spacing" textLength="75.4824" x="1713.5" y="769.5332">LeftService</text></g><!--cluster RightService--><g class="cluster" data-entity="RightService" data-source-line="63" data-uid="ent0021" id="cluster_RightService"><path d="M1966,753 L2052.5859,753 A3.75,3.75 0 0 1 2055.0859,755.5 L2062.0859,776.6094 L2193,776.6094 A2.5,2.5 0 0 1 2195.5,779.1094 L2195.5,868.5 A2.5,2.5 0 0 1 2193,871 L1966,871 A2.5,2.5 0 0 1 1963.5,868.5 L1963.5,755.5 A2.5,2.5 0 0 1 1966,753" fill="none" style="stroke:#000000;stroke-width:1.5;"/><line style="stroke:#000000;stroke-width:1.5;" x1="1963.5" x2="2062.0859" y1="776.6094" y2="776.6094"/><text fill="#000000" font-family="sans-serif" font-size="14" font-weight="bold" lengthAdjust="spacing" textLength="85.5859" x="1967.5" y="769.5332">RightService</text></g><!--class CSdvObject--><g class="entity" data-entity="CSdvObject" data-source-line="27" data-uid="ent0003" id="entity_CSdvObject"><rect fill="#F1F1F1" height="118.4375" rx="2.5" ry="2.5" style="stroke:#181818;stroke-width:0.5;" width="412.7705" x="193" y="763"/><ellipse cx="357.7871" cy="779" fill="#ADD1B2" rx="11" ry="11" style="stroke:#181818;stroke-width:1;"/><path d="M360.5527,774.875 Q360.709,774.6563 360.8965,774.5469 Q361.084,774.4375 361.3027,774.4375 Q361.6777,774.4375 361.9121,774.6953 Q362.1465,774.9531 362.1465,775.5625 L362.1465,777.0156 Q362.1465,777.625 361.9121,777.8906 Q361.6777,778.1563 361.3027,778.1563 Q360.959,778.1563 360.7559,777.9531 Q360.5527,777.7656 360.4434,777.25 Q360.3965,776.8906 360.209,776.7031 Q359.8809,776.3281 359.2715,776.1094 Q358.6621,775.8906 358.0371,775.8906 Q357.2715,775.8906 356.6387,776.2188 Q356.0059,776.5469 355.5137,777.2969 Q355.0215,778.0469 355.0215,779.0781 L355.0215,780.1719 Q355.0215,781.4063 355.9121,782.2266 Q356.8027,783.0469 358.3965,783.0469 Q359.334,783.0469 359.9902,782.7969 Q360.3809,782.6406 360.8027,782.2031 Q361.0684,781.9375 361.2168,781.8594 Q361.3652,781.7813 361.5684,781.7813 Q361.8965,781.7813 362.1543,782.0391 Q362.4121,782.2969 362.4121,782.6406 Q362.4121,782.9844 362.0684,783.3906 Q361.5684,783.9688 360.7715,784.2969 Q359.6934,784.75 358.3965,784.75 Q356.8809,784.75 355.6777,784.125 Q354.6934,783.625 354.0059,782.5547 Q353.3184,781.4844 353.3184,780.2031 L353.3184,779.0469 Q353.3184,777.7188 353.9355,776.5703 Q354.5527,775.4219 355.6465,774.8047 Q356.7402,774.1875 357.9746,774.1875 Q358.709,774.1875 359.3574,774.3516 Q360.0059,774.5156 360.5527,774.875 Z " fill="#000000"/><text fill="#000000" font-family="sans-serif" font-size="14" lengthAdjust="spacing" textLength="74.6963" x="378.2871" y="784.7285">CSdvObject</text><line style="stroke:#181818;stroke-width:0.5;" x1="194" x2="604.7705" y1="795" y2="795"/><line style="stroke:#181818;stroke-width:0.5;" x1="194" x2="604.7705" y1="803" y2="803"/><ellipse cx="204" cy="817.3047" fill="#84BE84" rx="3" ry="3" style="stroke:#038048;stroke-width:1;"/><text fill="#000000" font-family="sans-serif" font-size="14" lengthAdjust="spacing" text-decoration="underline" textLength="336.9365" x="213" y="821.5332">sdv::sequence&lt;sdv::u8string&gt; GetClassAliasesStatic()</text><ellipse cx="204" cy="834.9141" fill="#84BE84" rx="3" ry="3" style="stroke:#038048;stroke-width:1;"/><text fill="#000000" font-family="sans-serif" font-size="14" lengthAdjust="spacing" text-decoration="underline" textLength="272.3301" x="213" y="839.1426">sdv::u8string GetDefaultObjectNameStatic()</text><ellipse cx="204" cy="852.5234" fill="#84BE84" rx="3" ry="3" style="stroke:#038048;stroke-width:1;"/><text fill="#000000" font-family="sans-serif" font-size="14" lengthAdjust="spacing" text-decoration="underline" textLength="143.9648" x="213" y="856.752">bool IsSingletonStatic()</text><ellipse cx="204" cy="870.1328" fill="#84BE84" rx="3" ry="3" style="stroke:#038048;stroke-width:1;"/><text fill="#000000" font-family="sans-serif" font-size="14" lengthAdjust="spacing" text-decoration="underline" textLength="386.7705" x="213" y="874.3613">sdv::sequence&lt;sdv::u8string&gt; GetObjectDependenciesStatic()</text></g><!--class IObjectControl--><g class="entity" data-entity="IObjectControl" data-source-line="35" data-uid="ent0005" id="entity_IObjectControl"><rect fill="#F1F1F1" height="118.4375" rx="2.5" ry="2.5" style="stroke:#181818;stroke-width:0.5;" width="326.3574" x="641.5" y="763"/><ellipse cx="755.6875" cy="779" fill="#B4A7E5" rx="11" ry="11" style="stroke:#181818;stroke-width:1;"/><path d="M756.6406,775.6406 L756.6406,782.2969 L758.3594,782.2969 Q758.9688,782.2969 759.2344,782.5313 Q759.5,782.7656 759.5,783.1563 Q759.5,783.5313 759.2344,783.7656 Q758.9688,784 758.3594,784 L753.2188,784 Q752.6094,784 752.3438,783.7656 Q752.0781,783.5313 752.0781,783.1406 Q752.0781,782.7656 752.3438,782.5313 Q752.6094,782.2969 753.2188,782.2969 L754.9375,782.2969 L754.9375,775.6406 L753.2188,775.6406 Q752.6094,775.6406 752.3438,775.4063 Q752.0781,775.1719 752.0781,774.7813 Q752.0781,774.4063 752.3438,774.1719 Q752.6094,773.9375 753.2188,773.9375 L758.3594,773.9375 Q758.9688,773.9375 759.2344,774.1719 Q759.5,774.4063 759.5,774.7813 Q759.5,775.1719 759.2344,775.4063 Q758.9688,775.6406 758.3594,775.6406 L756.6406,775.6406 Z " fill="#000000"/><text fill="#000000" font-family="sans-serif" font-size="14" font-style="italic" lengthAdjust="spacing" textLength="89.4824" x="776.1875" y="784.7285">IObjectControl</text><line style="stroke:#181818;stroke-width:0.5;" x1="642.5" x2="966.8574" y1="795" y2="795"/><line style="stroke:#181818;stroke-width:0.5;" x1="642.5" x2="966.8574" y1="803" y2="803"/><text fill="#000000" font-family="sans-serif" font-size="14" font-style="italic" lengthAdjust="spacing" textLength="314.3574" x="647.5" y="821.5332">void Initialize(const sdv::u8string&amp; ssObjectConfig)</text><text fill="#000000" font-family="sans-serif" font-size="14" font-style="italic" lengthAdjust="spacing" textLength="202.3096" x="647.5" y="839.1426">EObjectStatus GetStatus() const</text><text fill="#000000" font-family="sans-serif" font-size="14" font-style="italic" lengthAdjust="spacing" textLength="308.9502" x="647.5" y="856.752">void SetOperationMode(EOperationMode eMode)</text><text fill="#000000" font-family="sans-serif" font-size="14" font-style="italic" lengthAdjust="spacing" textLength="101.165" x="647.5" y="874.3613">void Shutdown()</text></g><!--class IVSS_SetIsOpenL1_Event--><g class="entity" data-entity="IVSS_SetIsOpenL1_Event" data-source-line="48" data-uid="ent0007" id="entity_IVSS_SetIsOpenL1_Event"><rect fill="#F1F1F1" height="65.6094" rx="2.5" ry="2.5" style="stroke:#181818;stroke-width:0.5;" width="196.999" x="1168" y="789"/><ellipse cx="1183" cy="805" fill="#B4A7E5" rx="11" ry="11" style="stroke:#181818;stroke-width:1;"/><path d="M1183.9531,801.6406 L1183.9531,808.2969 L1185.6719,808.2969 Q1186.2813,808.2969 1186.5469,808.5313 Q1186.8125,808.7656 1186.8125,809.1563 Q1186.8125,809.5313 1186.5469,809.7656 Q1186.2813,810 1185.6719,810 L1180.5313,810 Q1179.9219,810 1179.6563,809.7656 Q1179.3906,809.5313 1179.3906,809.1406 Q1179.3906,808.7656 1179.6563,808.5313 Q1179.9219,808.2969 1180.5313,808.2969 L1182.25,808.2969 L1182.25,801.6406 L1180.5313,801.6406 Q1179.9219,801.6406 1179.6563,801.4063 Q1179.3906,801.1719 1179.3906,800.7813 Q1179.3906,800.4063 1179.6563,800.1719 Q1179.9219,799.9375 1180.5313,799.9375 L1185.6719,799.9375 Q1186.2813,799.9375 1186.5469,800.1719 Q1186.8125,800.4063 1186.8125,800.7813 Q1186.8125,801.1719 1186.5469,801.4063 Q1186.2813,801.6406 1185.6719,801.6406 L1183.9531,801.6406 Z " fill="#000000"/><text fill="#000000" font-family="sans-serif" font-size="14" font-style="italic" lengthAdjust="spacing" textLength="164.999" x="1197" y="810.7285">IVSS_SetIsOpenL1_Event</text><line style="stroke:#181818;stroke-width:0.5;" x1="1169" x2="1363.999" y1="821" y2="821"/><line style="stroke:#181818;stroke-width:0.5;" x1="1169" x2="1363.999" y1="829" y2="829"/><text fill="#000000" font-family="sans-serif" font-size="14" font-style="italic" lengthAdjust="spacing" textLength="184.4473" x="1174" y="847.5332">void SetIsOpenL1(bool value)</text></g><!--class IVSS_SetIsOpenR1_Event--><g class="entity" data-entity="IVSS_SetIsOpenR1_Event" data-source-line="58" data-uid="ent0018" id="entity_IVSS_SetIsOpenR1_Event"><rect fill="#F1F1F1" height="65.6094" rx="2.5" ry="2.5" style="stroke:#181818;stroke-width:0.5;" width="199.3232" x="1422" y="789"/><ellipse cx="1437" cy="805" fill="#B4A7E5" rx="11" ry="11" style="stroke:#181818;stroke-width:1;"/><path d="M1437.9531,801.6406 L1437.9531,808.2969 L1439.6719,808.2969 Q1440.2813,808.2969 1440.5469,808.5313 Q1440.8125,808.7656 1440.8125,809.1563 Q1440.8125,809.5313 1440.5469,809.7656 Q1440.2813,810 1439.6719,810 L1434.5313,810 Q1433.9219,810 1433.6563,809.7656 Q1433.3906,809.5313 1433.3906,809.1406 Q1433.3906,808.7656 1433.6563,808.5313 Q1433.9219,808.2969 1434.5313,808.2969 L1436.25,808.2969 L1436.25,801.6406 L1434.5313,801.6406 Q1433.9219,801.6406 1433.6563,801.4063 Q1433.3906,801.1719 1433.3906,800.7813 Q1433.3906,800.4063 1433.6563,800.1719 Q1433.9219,799.9375 1434.5313,799.9375 L1439.6719,799.9375 Q1440.2813,799.9375 1440.5469,800.1719 Q1440.8125,800.4063 1440.8125,800.7813 Q1440.8125,801.1719 1440.5469,801.4063 Q1440.2813,801.6406 1439.6719,801.6406 L1437.9531,801.6406 Z " fill="#000000"/><text fill="#000000" font-family="sans-serif" font-size="14" font-style="italic" lengthAdjust="spacing" textLength="167.3232" x="1451" y="810.7285">IVSS_SetIsOpenR1_Event</text><line style="stroke:#181818;stroke-width:0.5;" x1="1423" x2="1620.3232" y1="821" y2="821"/><line style="stroke:#181818;stroke-width:0.5;" x1="1423" x2="1620.3232" y1="829" y2="829"/><text fill="#000000" font-family="sans-serif" font-size="14" font-style="italic" lengthAdjust="spacing" textLength="186.7715" x="1428" y="847.5332">void SetIsOpenR1(bool value)</text></g><!--class IVSS_SetIsOpenL2_Event--><g class="entity" data-entity="IVSS_SetIsOpenL2_Event" data-source-line="53" data-uid="ent0015" id="entity_IVSS_SetIsOpenL2_Event"><rect fill="#F1F1F1" height="65.6094" rx="2.5" ry="2.5" style="stroke:#181818;stroke-width:0.5;" width="196.999" x="1726" y="789"/><ellipse cx="1741" cy="805" fill="#B4A7E5" rx="11" ry="11" style="stroke:#181818;stroke-width:1;"/><path d="M1741.9531,801.6406 L1741.9531,808.2969 L1743.6719,808.2969 Q1744.2813,808.2969 1744.5469,808.5313 Q1744.8125,808.7656 1744.8125,809.1563 Q1744.8125,809.5313 1744.5469,809.7656 Q1744.2813,810 1743.6719,810 L1738.5313,810 Q1737.9219,810 1737.6563,809.7656 Q1737.3906,809.5313 1737.3906,809.1406 Q1737.3906,808.7656 1737.6563,808.5313 Q1737.9219,808.2969 1738.5313,808.2969 L1740.25,808.2969 L1740.25,801.6406 L1738.5313,801.6406 Q1737.9219,801.6406 1737.6563,801.4063 Q1737.3906,801.1719 1737.3906,800.7813 Q1737.3906,800.4063 1737.6563,800.1719 Q1737.9219,799.9375 1738.5313,799.9375 L1743.6719,799.9375 Q1744.2813,799.9375 1744.5469,800.1719 Q1744.8125,800.4063 1744.8125,800.7813 Q1744.8125,801.1719 1744.5469,801.4063 Q1744.2813,801.6406 1743.6719,801.6406 L1741.9531,801.6406 Z " fill="#000000"/><text fill="#000000" font-family="sans-serif" font-size="14" font-style="italic" lengthAdjust="spacing" textLength="164.999" x="1755" y="810.7285">IVSS_SetIsOpenL2_Event</text><line style="stroke:#181818;stroke-width:0.5;" x1="1727" x2="1921.999" y1="821" y2="821"/><line style="stroke:#181818;stroke-width:0.5;" x1="1727" x2="1921.999" y1="829" y2="829"/><text fill="#000000" font-family="sans-serif" font-size="14" font-style="italic" lengthAdjust="spacing" textLength="184.4473" x="1732" y="847.5332">void SetIsOpenL2(bool value)</text></g><!--class IVSS_SetIsOpenR2_Event--><g class="entity" data-entity="IVSS_SetIsOpenR2_Event" data-source-line="63" data-uid="ent0020" id="entity_IVSS_SetIsOpenR2_Event"><rect fill="#F1F1F1" height="65.6094" rx="2.5" ry="2.5" style="stroke:#181818;stroke-width:0.5;" width="199.3232" x="1980" y="789"/><ellipse cx="1995" cy="805" fill="#B4A7E5" rx="11" ry="11" style="stroke:#181818;stroke-width:1;"/><path d="M1995.9531,801.6406 L1995.9531,808.2969 L1997.6719,808.2969 Q1998.2813,808.2969 1998.5469,808.5313 Q1998.8125,808.7656 1998.8125,809.1563 Q1998.8125,809.5313 1998.5469,809.7656 Q1998.2813,810 1997.6719,810 L1992.5313,810 Q1991.9219,810 1991.6563,809.7656 Q1991.3906,809.5313 1991.3906,809.1406 Q1991.3906,808.7656 1991.6563,808.5313 Q1991.9219,808.2969 1992.5313,808.2969 L1994.25,808.2969 L1994.25,801.6406 L1992.5313,801.6406 Q1991.9219,801.6406 1991.6563,801.4063 Q1991.3906,801.1719 1991.3906,800.7813 Q1991.3906,800.4063 1991.6563,800.1719 Q1991.9219,799.9375 1992.5313,799.9375 L1997.6719,799.9375 Q1998.2813,799.9375 1998.5469,800.1719 Q1998.8125,800.4063 1998.8125,800.7813 Q1998.8125,801.1719 1998.5469,801.4063 Q1998.2813,801.6406 1997.6719,801.6406 L1995.9531,801.6406 Z " fill="#000000"/><text fill="#000000" font-family="sans-serif" font-size="14" font-style="italic" lengthAdjust="spacing" textLength="167.3232" x="2009" y="810.7285">IVSS_SetIsOpenR2_Event</text><line style="stroke:#181818;stroke-width:0.5;" x1="1981" x2="2178.3232" y1="821" y2="821"/><line style="stroke:#181818;stroke-width:0.5;" x1="1981" x2="2178.3232" y1="829" y2="829"/><text fill="#000000" font-family="sans-serif" font-size="14" font-style="italic" lengthAdjust="spacing" textLength="186.7715" x="1986" y="847.5332">void SetIsOpenR2(bool value)</text></g><!--class CDoorsExampleService--><g class="entity" data-entity="CDoorsExampleService" data-source-line="2" data-uid="ent0002" id="entity_CDoorsExampleService"><rect fill="#F1F1F1" height="417.7969" rx="2.5" ry="2.5" style="stroke:#181818;stroke-width:0.5;" width="585.4736" x="974" y="7"/><ellipse cx="1188.1836" cy="23" fill="#ADD1B2" rx="11" ry="11" style="stroke:#181818;stroke-width:1;"/><path d="M1190.9492,18.875 Q1191.1055,18.6563 1191.293,18.5469 Q1191.4805,18.4375 1191.6992,18.4375 Q1192.0742,18.4375 1192.3086,18.6953 Q1192.543,18.9531 1192.543,19.5625 L1192.543,21.0156 Q1192.543,21.625 1192.3086,21.8906 Q1192.0742,22.1563 1191.6992,22.1563 Q1191.3555,22.1563 1191.1523,21.9531 Q1190.9492,21.7656 1190.8398,21.25 Q1190.793,20.8906 1190.6055,20.7031 Q1190.2773,20.3281 1189.668,20.1094 Q1189.0586,19.8906 1188.4336,19.8906 Q1187.668,19.8906 1187.0352,20.2188 Q1186.4023,20.5469 1185.9102,21.2969 Q1185.418,22.0469 1185.418,23.0781 L1185.418,24.1719 Q1185.418,25.4063 1186.3086,26.2266 Q1187.1992,27.0469 1188.793,27.0469 Q1189.7305,27.0469 1190.3867,26.7969 Q1190.7773,26.6406 1191.1992,26.2031 Q1191.4648,25.9375 1191.6133,25.8594 Q1191.7617,25.7813 1191.9648,25.7813 Q1192.293,25.7813 1192.5508,26.0391 Q1192.8086,26.2969 1192.8086,26.6406 Q1192.8086,26.9844 1192.4648,27.3906 Q1191.9648,27.9688 1191.168,28.2969 Q1190.0898,28.75 1188.793,28.75 Q1187.2773,28.75 1186.0742,28.125 Q1185.0898,27.625 1184.4023,26.5547 Q1183.7148,25.4844 1183.7148,24.2031 L1183.7148,23.0469 Q1183.7148,21.7188 1184.332,20.5703 Q1184.9492,19.4219 1186.043,18.8047 Q1187.1367,18.1875 1188.3711,18.1875 Q1189.1055,18.1875 1189.7539,18.3516 Q1190.4023,18.5156 1190.9492,18.875 Z " fill="#000000"/><text fill="#000000" font-family="sans-serif" font-size="14" lengthAdjust="spacing" textLength="148.6064" x="1208.6836" y="28.7285">CDoorsExampleService</text><line style="stroke:#181818;stroke-width:0.5;" x1="975" x2="1558.4736" y1="39" y2="39"/><rect fill="none" height="6" style="stroke:#C82930;stroke-width:1;" width="6" x="982" y="50.3047"/><text fill="#000000" font-family="sans-serif" font-size="14" lengthAdjust="spacing" textLength="192.9922" x="994" y="57.5332">bool  m_bFrontLeftDoorIsOpen</text><rect fill="none" height="6" style="stroke:#C82930;stroke-width:1;" width="6" x="982" y="67.9141"/><text fill="#000000" font-family="sans-serif" font-size="14" lengthAdjust="spacing" textLength="202.3232" x="994" y="75.1426">bool  m_bFrontRightDoorIsOpen</text><rect fill="none" height="6" style="stroke:#C82930;stroke-width:1;" width="6" x="982" y="85.5234"/><text fill="#000000" font-family="sans-serif" font-size="14" lengthAdjust="spacing" textLength="190.6611" x="994" y="92.752">bool  m_bRearLeftDoorIsOpen</text><rect fill="none" height="6" style="stroke:#C82930;stroke-width:1;" width="6" x="982" y="103.1328"/><text fill="#000000" font-family="sans-serif" font-size="14" lengthAdjust="spacing" textLength="199.9922" x="994" y="110.3613">bool  m_bRearRightDoorIsOpen</text><rect fill="none" height="6" style="stroke:#C82930;stroke-width:1;" width="6" x="982" y="120.7422"/><text fill="#000000" font-family="sans-serif" font-size="14" lengthAdjust="spacing" textLength="177.4268" x="994" y="127.9707">bool m_bAllDoorsAreLocked</text><rect fill="none" height="6" style="stroke:#C82930;stroke-width:1;" width="6" x="982" y="138.3516"/><text fill="#000000" font-family="sans-serif" font-size="14" lengthAdjust="spacing" textLength="540.8115" x="994" y="145.5801">vss::Vehicle::Body::Door::Axle::_01::LeftService::IVSS_SetLock* m_pFrontLeftDoorSvc</text><rect fill="none" height="6" style="stroke:#C82930;stroke-width:1;" width="6" x="982" y="155.9609"/><text fill="#000000" font-family="sans-serif" font-size="14" lengthAdjust="spacing" textLength="559.4736" x="994" y="163.1895">vss::Vehicle::Body::Door::Axle::_01::RightService::IVSS_SetLock* m_pFrontRightDoorSvc</text><rect fill="none" height="6" style="stroke:#C82930;stroke-width:1;" width="6" x="982" y="173.5703"/><text fill="#000000" font-family="sans-serif" font-size="14" lengthAdjust="spacing" textLength="538.4805" x="994" y="180.7988">vss::Vehicle::Body::Door::Axle::_02::LeftService::IVSS_SetLock* m_pRearLeftDoorSvc</text><rect fill="none" height="6" style="stroke:#C82930;stroke-width:1;" width="6" x="982" y="191.1797"/><text fill="#000000" font-family="sans-serif" font-size="14" lengthAdjust="spacing" textLength="557.1426" x="994" y="198.4082">vss::Vehicle::Body::Door::Axle::_02::RightService::IVSS_SetLock* m_pRearRightDoorSvc</text><rect fill="none" height="6" style="stroke:#C82930;stroke-width:1;" width="6" x="982" y="208.7891"/><text fill="#000000" font-family="sans-serif" font-size="14" lengthAdjust="spacing" textLength="213.9922" x="994" y="216.0176">LockDoorsThread m_doorsThread</text><rect fill="none" height="6" style="stroke:#C82930;stroke-width:1;" width="6" x="982" y="226.3984"/><text fill="#000000" font-family="sans-serif" font-size="14" lengthAdjust="spacing" textLength="119.0684" x="994" y="233.627">uint32_t m_Interval</text><line style="stroke:#181818;stroke-width:0.5;" x1="975" x2="1558.4736" y1="240.7031" y2="240.7031"/><ellipse cx="985" cy="255.0078" fill="#84BE84" rx="3" ry="3" style="stroke:#038048;stroke-width:1;"/><text fill="#000000" font-family="sans-serif" font-size="14" lengthAdjust="spacing" textLength="163.4063" x="994" y="259.2363">bool OnInitialize() override</text><ellipse cx="985" cy="272.6172" fill="#84BE84" rx="3" ry="3" style="stroke:#038048;stroke-width:1;"/><text fill="#000000" font-family="sans-serif" font-size="14" lengthAdjust="spacing" textLength="174.3096" x="994" y="276.8457">void OnShutdown() override</text><ellipse cx="985" cy="290.2266" fill="#84BE84" rx="3" ry="3" style="stroke:#038048;stroke-width:1;"/><text fill="#000000" font-family="sans-serif" font-size="14" lengthAdjust="spacing" textLength="184.4473" x="994" y="294.4551">void SetIsOpenL1(bool value)</text><ellipse cx="985" cy="307.8359" fill="#84BE84" rx="3" ry="3" style="stroke:#038048;stroke-width:1;"/><text fill="#000000" font-family="sans-serif" font-size="14" lengthAdjust="spacing" textLength="186.7715" x="994" y="312.0645">void SetIsOpenR1(bool value)</text><ellipse cx="985" cy="325.4453" fill="#84BE84" rx="3" ry="3" style="stroke:#038048;stroke-width:1;"/><text fill="#000000" font-family="sans-serif" font-size="14" lengthAdjust="spacing" textLength="184.4473" x="994" y="329.6738">void SetIsOpenL2(bool value)</text><ellipse cx="985" cy="343.0547" fill="#84BE84" rx="3" ry="3" style="stroke:#038048;stroke-width:1;"/><text fill="#000000" font-family="sans-serif" font-size="14" lengthAdjust="spacing" textLength="186.7715" x="994" y="347.2832">void SetIsOpenR2(bool value)</text><ellipse cx="985" cy="360.6641" fill="#84BE84" rx="3" ry="3" style="stroke:#038048;stroke-width:1;"/><text fill="#000000" font-family="sans-serif" font-size="14" font-style="italic" lengthAdjust="spacing" textLength="139.2822" x="994" y="364.8926">bool GetDoorsStatus()</text><rect fill="#F24D5C" height="6" style="stroke:#C82930;stroke-width:1;" width="6" x="982" y="375.2734"/><text fill="#000000" font-family="sans-serif" font-size="14" lengthAdjust="spacing" textLength="157.165" x="994" y="382.502">void AreAllDoorsClosed()</text><rect fill="#F24D5C" height="6" style="stroke:#C82930;stroke-width:1;" width="6" x="982" y="392.8828"/><text fill="#000000" font-family="sans-serif" font-size="14" lengthAdjust="spacing" textLength="231.8613" x="994" y="400.1113">void LockDoorsIfAllDoorsAreClosed()</text><rect fill="#F24D5C" height="6" style="stroke:#C82930;stroke-width:1;" width="6" x="982" y="410.4922"/><text fill="#000000" font-family="sans-serif" font-size="14" lengthAdjust="spacing" textLength="235.7715" x="994" y="417.7207">void LockDoors(const bool lock) const</text></g><!--class IDoorService--><g class="entity" data-entity="IDoorService" data-source-line="43" data-uid="ent0006" id="entity_IDoorService"><rect fill="#F1F1F1" height="65.6094" rx="2.5" ry="2.5" style="stroke:#181818;stroke-width:0.5;" width="151.2822" x="7" y="789"/><ellipse cx="39.2644" cy="805" fill="#B4A7E5" rx="11" ry="11" style="stroke:#181818;stroke-width:1;"/><path d="M40.2175,801.6406 L40.2175,808.2969 L41.9362,808.2969 Q42.5456,808.2969 42.8112,808.5313 Q43.0769,808.7656 43.0769,809.1563 Q43.0769,809.5313 42.8112,809.7656 Q42.5456,810 41.9362,810 L36.7956,810 Q36.1862,810 35.9206,809.7656 Q35.655,809.5313 35.655,809.1406 Q35.655,808.7656 35.9206,808.5313 Q36.1862,808.2969 36.7956,808.2969 L38.5144,808.2969 L38.5144,801.6406 L36.7956,801.6406 Q36.1862,801.6406 35.9206,801.4063 Q35.655,801.1719 35.655,800.7813 Q35.655,800.4063 35.9206,800.1719 Q36.1862,799.9375 36.7956,799.9375 L41.9362,799.9375 Q42.5456,799.9375 42.8112,800.1719 Q43.0769,800.4063 43.0769,800.7813 Q43.0769,801.1719 42.8112,801.4063 Q42.5456,801.6406 41.9362,801.6406 L40.2175,801.6406 Z " fill="#000000"/><text fill="#000000" font-family="sans-serif" font-size="14" font-style="italic" lengthAdjust="spacing" textLength="80.917" x="57.1009" y="810.7285">IDoorService</text><line style="stroke:#181818;stroke-width:0.5;" x1="8" x2="157.2822" y1="821" y2="821"/><line style="stroke:#181818;stroke-width:0.5;" x1="8" x2="157.2822" y1="829" y2="829"/><text fill="#000000" font-family="sans-serif" font-size="14" font-style="italic" lengthAdjust="spacing" textLength="139.2822" x="13" y="847.5332">bool GetDoorsStatus()</text></g><!--link CDoorsExampleService to CSdvObject--><g class="link" data-entity-1="CDoorsExampleService" data-entity-2="CSdvObject" data-source-line="68" data-uid="lnk22" id="link_CDoorsExampleService_CSdvObject"><path codeLine="68" d="M973.71,296.08 C856.51,337.74 725.62,397.86 624.5,481 C529.37,559.22 467.2437,671.8789 432.3137,746.4689" fill="none" id="CDoorsExampleService-to-CSdvObject" style="stroke:#181818;stroke-width:1;"/><polygon fill="none" points="424.68,762.77,437.7474,749.0134,426.88,743.9243,424.68,762.77" style="stroke:#181818;stroke-width:1;"/><text fill="#000000" font-family="sans-serif" font-size="13" lengthAdjust="spacing" textLength="42.6309" x="654.5" y="469.4951">Inherits</text></g><!--link CDoorsExampleService to IObjectControl--><g class="link" data-entity-1="CDoorsExampleService" data-entity-2="IObjectControl" data-source-line="69" data-uid="lnk23" id="link_CDoorsExampleService_IObjectControl"><path codeLine="69" d="M1107.18,425.29 C1015.99,544.5 919.1955,671.0526 859.9955,748.4526" fill="none" id="CDoorsExampleService-to-IObjectControl" style="stroke:#181818;stroke-width:1;"/><polygon fill="none" points="849.06,762.75,864.7613,752.0978,855.2297,744.8074,849.06,762.75" style="stroke:#181818;stroke-width:1;"/></g><!--link CDoorsExampleService to IDoorService--><g class="link" data-entity-1="CDoorsExampleService" data-entity-2="IDoorService" data-source-line="70" data-uid="lnk24" id="link_CDoorsExampleService_IDoorService"><path codeLine="70" d="M973.78,254.09 C690.88,295.71 289.05,372 176.5,481 C89.72,565.04 80.7237,703.4205 81.2337,770.7805" fill="none" id="CDoorsExampleService-to-IDoorService" style="stroke:#181818;stroke-width:1;stroke-dasharray:7,7;"/><polygon fill="none" points="81.37,788.78,87.2335,770.7351,75.2339,770.8259,81.37,788.78" style="stroke:#181818;stroke-width:1;"/></g><!--link CDoorsExampleService to IVSS_SetIsOpenL1_Event--><g class="link" data-entity-1="CDoorsExampleService" data-entity-2="IVSS_SetIsOpenL1_Event" data-source-line="71" data-uid="lnk25" id="link_CDoorsExampleService_IVSS_SetIsOpenL1_Event"><path codeLine="71" d="M1266.5,425.29 C1266.5,559.51 1266.5,703.16 1266.5,770.79" fill="none" id="CDoorsExampleService-to-IVSS_SetIsOpenL1_Event" style="stroke:#181818;stroke-width:1;stroke-dasharray:7,7;"/><polygon fill="none" points="1266.5,788.79,1272.5,770.79,1260.5,770.79,1266.5,788.79" style="stroke:#181818;stroke-width:1;"/><text fill="#000000" font-family="sans-serif" font-size="13" lengthAdjust="spacing" textLength="67.1899" x="1267.5" y="469.4951">Implements</text></g><!--link CDoorsExampleService to IVSS_SetIsOpenR1_Event--><g class="link" data-entity-1="CDoorsExampleService" data-entity-2="IVSS_SetIsOpenR1_Event" data-source-line="72" data-uid="lnk26" id="link_CDoorsExampleService_IVSS_SetIsOpenR1_Event"><path codeLine="72" d="M1357.6,425.07 C1365.73,443.96 1373.8,462.82 1381.5,481 C1429.19,593.56 1477.1143,711.2959 1501.6443,771.8759" fill="none" id="CDoorsExampleService-to-IVSS_SetIsOpenR1_Event" style="stroke:#181818;stroke-width:1;stroke-dasharray:7,7;"/><polygon fill="none" points="1508.4,788.56,1507.2057,769.624,1496.0829,774.1278,1508.4,788.56" style="stroke:#181818;stroke-width:1;"/><text fill="#000000" font-family="sans-serif" font-size="13" lengthAdjust="spacing" textLength="67.1899" x="1375.5" y="469.4951">Implements</text></g><!--link CDoorsExampleService to IVSS_SetIsOpenL2_Event--><g class="link" data-entity-1="CDoorsExampleService" data-entity-2="IVSS_SetIsOpenL2_Event" data-source-line="73" data-uid="lnk27" id="link_CDoorsExampleService_IVSS_SetIsOpenL2_Event"><path codeLine="73" d="M1559.39,405.65 C1587.33,429.33 1613.97,454.58 1637.5,481 C1724.87,579.1 1781.1003,708.25 1806.0503,772.23" fill="none" id="CDoorsExampleService-to-IVSS_SetIsOpenL2_Event" style="stroke:#181818;stroke-width:1;stroke-dasharray:7,7;"/><polygon fill="none" points="1812.59,789,1811.6403,770.0501,1800.4603,774.4099,1812.59,789" style="stroke:#181818;stroke-width:1;"/><text fill="#000000" font-family="sans-serif" font-size="13" lengthAdjust="spacing" textLength="67.1899" x="1629.5" y="469.4951">Implements</text></g><!--link CDoorsExampleService to IVSS_SetIsOpenR2_Event--><g class="link" data-entity-1="CDoorsExampleService" data-entity-2="IVSS_SetIsOpenR2_Event" data-source-line="74" data-uid="lnk28" id="link_CDoorsExampleService_IVSS_SetIsOpenR2_Event"><path codeLine="74" d="M1559.16,276.56 C1689.37,315.83 1836.25,379.47 1939.5,481 C2029.05,569.06 2060.6514,704.8415 2071.8614,771.1915" fill="none" id="CDoorsExampleService-to-IVSS_SetIsOpenR2_Event" style="stroke:#181818;stroke-width:1;stroke-dasharray:7,7;"/><polygon fill="none" points="2074.86,788.94,2077.7775,770.192,2065.9452,772.1911,2074.86,788.94" style="stroke:#181818;stroke-width:1;"/><text fill="#000000" font-family="sans-serif" font-size="13" lengthAdjust="spacing" textLength="67.1899" x="1926.5" y="469.4951">Implements</text></g><!--SRC=[hLRVSz9047xFNx5F3kYqKwBLUkDqR2bgEc0TKllA7Ca2fySTvYxnH-t_xjx5KA2GWi93XhlzzjllDhjx0OCM3CvungtEWB4001B9ZO7sXTQPwVpWqvd46BD29EYij-v1lsT3hILSgKW9AxWKlx3H15rWbeaKAqoXHKgOU9BRL7zNcn0nsiXSpL1rMmrFMt2POtCzfhy5fXjkmRCMSyk7ncOyiNVWhU_H-aJ4bjlSD2hSWUSwo_1CIczlIsqmNR5tTVBLMwDHXIENUcWZqShOChYapIRuZGhizs4w6BxBjB9T77bvvOdMO_fYFAa3zP5dZ_0uI1qDGHREvuw2wVnqnZ1sWnEHI6JiNAS_6ND8niv-k9t1KOin5_zlZJ4MtSJnW5wJutbAtBEbeyP5iXErr_q8z_niEv67Z-bUpEokp8_8NdeZ2zppChgUPCXJWgRtgmgK2sMVXmDBraXPYi6bCzq5zzrlqeAnTfmMLyClcDZ5nhyrr0eYkODd7cJmMuugmJT-bPzGzmWrFdMDqtPKPr9mWxv_H38l-XMIoist6uvuBcqP-2EVuaPNNtkHYSbHejMgFaQDq3BM1L9TfmGHotBBlFXCZNY2PMwYqgTDrPDfkPIV-mdYEtjXG9QjlHJ_2HWpfng9SVCXIwUqbnF8oQrcqT9aM0rBrK9zIdDTQDNJAJOwIqj0zsnkSfuFx7K9Y7pHFRmIjfcTgrp_FXwg6sFGAL3PkZTGSxtiBYUibnFk8YVyVpaR9rnrMUwWfx-VzDJgsIK__GtvMVTf0WS7lqzNnnOmqZx1J5YpXT_3bbxhS7X83giji1cvhm9tPt7aK_flzX1ocwhPQypj6cVV8RSfnkMO0RobQo2VoY3u9BcodtjTe8zMGuCJMeVXKNXy-BhHeqMCCpWwWTOhTloIFJ-1TYU-1cTl1erUT0r6vnbfJOMRzCFSJTvcSCaB3lrSMJ551cxLkEur8UvKcz1HXQ2F4YSckBpfbI3ue6qyqzQ3NxuuE1SMtAamWvjUyFVA9DT4ftIfC6ZFMk5n67Iv6kTyJ97eYxkjAKBsay55vmy0]--></g></svg>