<svg xmlns="http://www.w3.org/2000/svg" xmlns:xlink="http://www.w3.org/1999/xlink" contentStyleType="text/css" data-diagram-type="CLASS" height="795px" preserveAspectRatio="none" style="width:1999px;height:795px;background:#FFFFFF;" version="1.1" viewBox="0 0 1999 795" width="1999px" zoomAndPan="magnify"><defs/><g><!--cluster vss--><g class="cluster" data-entity="vss" data-source-line="16" data-uid="ent0004" id="cluster_vss"><path d="M8.5,295 L32.8584,295 A3.75,3.75 0 0 1 35.3584,297.5 L42.3584,318.6094 L1519.5,318.6094 A2.5,2.5 0 0 1 1522,321.1094 L1522,785.5 A2.5,2.5 0 0 1 1519.5,788 L8.5,788 A2.5,2.5 0 0 1 6,785.5 L6,297.5 A2.5,2.5 0 0 1 8.5,295" fill="none" style="stroke:#000000;stroke-width:1.5;"/><line style="stroke:#000000;stroke-width:1.5;" x1="6" x2="42.3584" y1="318.6094" y2="318.6094"/><text fill="#000000" font-family="sans-serif" font-size="14" font-weight="bold" lengthAdjust="spacing" textLength="23.3584" x="10" y="311.5332">vss</text></g><!--cluster Vehicle--><g class="cluster" data-entity="Vehicle" data-source-line="16" data-uid="ent0005" id="cluster_Vehicle"><path d="M32.5,339 L82.5273,339 A3.75,3.75 0 0 1 85.0273,341.5 L92.0273,362.6094 L1495.5,362.6094 A2.5,2.5 0 0 1 1498,365.1094 L1498,761.5 A2.5,2.5 0 0 1 1495.5,764 L32.5,764 A2.5,2.5 0 0 1 30,761.5 L30,341.5 A2.5,2.5 0 0 1 32.5,339" fill="none" style="stroke:#000000;stroke-width:1.5;"/><line style="stroke:#000000;stroke-width:1.5;" x1="30" x2="92.0273" y1="362.6094" y2="362.6094"/><text fill="#000000" font-family="sans-serif" font-size="14" font-weight="bold" lengthAdjust="spacing" textLength="49.0273" x="34" y="355.5332">Vehicle</text></g><!--cluster Chassis--><g class="cluster" data-entity="Chassis" data-source-line="16" data-uid="ent0006" id="cluster_Chassis"><path d="M56.5,383 L111.1963,383 A3.75,3.75 0 0 1 113.6963,385.5 L120.6963,406.6094 L1471.5,406.6094 A2.5,2.5 0 0 1 1474,409.1094 L1474,737.5 A2.5,2.5 0 0 1 1471.5,740 L56.5,740 A2.5,2.5 0 0 1 54,737.5 L54,385.5 A2.5,2.5 0 0 1 56.5,383" fill="none" style="stroke:#000000;stroke-width:1.5;"/><line style="stroke:#000000;stroke-width:1.5;" x1="54" x2="120.6963" y1="406.6094" y2="406.6094"/><text fill="#000000" font-family="sans-serif" font-size="14" font-weight="bold" lengthAdjust="spacing" textLength="53.6963" x="58" y="399.5332">Chassis</text></g><!--cluster Door--><g class="cluster" data-entity="Door" data-source-line="16" data-uid="ent0007" id="cluster_Door"><path d="M80.5,427 L114.1621,427 A3.75,3.75 0 0 1 116.6621,429.5 L123.6621,450.6094 L1447.5,450.6094 A2.5,2.5 0 0 1 1450,453.1094 L1450,713.5 A2.5,2.5 0 0 1 1447.5,716 L80.5,716 A2.5,2.5 0 0 1 78,713.5 L78,429.5 A2.5,2.5 0 0 1 80.5,427" fill="none" style="stroke:#000000;stroke-width:1.5;"/><line style="stroke:#000000;stroke-width:1.5;" x1="78" x2="123.6621" y1="450.6094" y2="450.6094"/><text fill="#000000" font-family="sans-serif" font-size="14" font-weight="bold" lengthAdjust="spacing" textLength="32.6621" x="82" y="443.5332">Door</text></g><!--cluster Axle02--><g class="cluster" data-entity="Axle02" data-source-line="16" data-uid="ent0008" id="cluster_Axle02"><path d="M104.5,471 L150.6445,471 A3.75,3.75 0 0 1 153.1445,473.5 L160.1445,494.6094 L1423.5,494.6094 A2.5,2.5 0 0 1 1426,497.1094 L1426,689.5 A2.5,2.5 0 0 1 1423.5,692 L104.5,692 A2.5,2.5 0 0 1 102,689.5 L102,473.5 A2.5,2.5 0 0 1 104.5,471" fill="none" style="stroke:#000000;stroke-width:1.5;"/><line style="stroke:#000000;stroke-width:1.5;" x1="102" x2="160.1445" y1="494.6094" y2="494.6094"/><text fill="#000000" font-family="sans-serif" font-size="14" font-weight="bold" lengthAdjust="spacing" textLength="45.1445" x="106" y="487.5332">Axle02</text></g><!--cluster LeftService--><g class="cluster" data-entity="LeftService" data-source-line="16" data-uid="ent0009" id="cluster_LeftService"><path d="M128.5,515 L204.9824,515 A3.75,3.75 0 0 1 207.4824,517.5 L214.4824,538.6094 L1149.5,538.6094 A2.5,2.5 0 0 1 1152,541.1094 L1152,665.5 A2.5,2.5 0 0 1 1149.5,668 L128.5,668 A2.5,2.5 0 0 1 126,665.5 L126,517.5 A2.5,2.5 0 0 1 128.5,515" fill="none" style="stroke:#000000;stroke-width:1.5;"/><line style="stroke:#000000;stroke-width:1.5;" x1="126" x2="214.4824" y1="538.6094" y2="538.6094"/><text fill="#000000" font-family="sans-serif" font-size="14" font-weight="bold" lengthAdjust="spacing" textLength="75.4824" x="130" y="531.5332">LeftService</text></g><!--cluster LeftDevice--><g class="cluster" data-entity="LeftDevice" data-source-line="28" data-uid="ent0012" id="cluster_LeftDevice"><path d="M1178.5,532.5 L1250.3066,532.5 A3.75,3.75 0 0 1 1252.8066,535 L1259.8066,556.1094 L1399.5,556.1094 A2.5,2.5 0 0 1 1402,558.6094 L1402,648 A2.5,2.5 0 0 1 1399.5,650.5 L1178.5,650.5 A2.5,2.5 0 0 1 1176,648 L1176,535 A2.5,2.5 0 0 1 1178.5,532.5" fill="none" style="stroke:#000000;stroke-width:1.5;"/><line style="stroke:#000000;stroke-width:1.5;" x1="1176" x2="1259.8066" y1="556.1094" y2="556.1094"/><text fill="#000000" font-family="sans-serif" font-size="14" font-weight="bold" lengthAdjust="spacing" textLength="70.8066" x="1180" y="549.0332">LeftDevice</text></g><!--cluster sdv--><g class="cluster" data-entity="sdv" data-source-line="38" data-uid="ent0015" id="cluster_sdv"><path d="M1548.5,506.5 L1573.624,506.5 A3.75,3.75 0 0 1 1576.124,509 L1583.124,530.1094 L1989.5,530.1094 A2.5,2.5 0 0 1 1992,532.6094 L1992,674 A2.5,2.5 0 0 1 1989.5,676.5 L1548.5,676.5 A2.5,2.5 0 0 1 1546,674 L1546,509 A2.5,2.5 0 0 1 1548.5,506.5" fill="none" style="stroke:#000000;stroke-width:1.5;"/><line style="stroke:#000000;stroke-width:1.5;" x1="1546" x2="1583.124" y1="530.1094" y2="530.1094"/><text fill="#000000" font-family="sans-serif" font-size="14" font-weight="bold" lengthAdjust="spacing" textLength="24.124" x="1550" y="523.0332">sdv</text></g><!--class IVSS_GetIsOpen--><g class="entity" data-entity="IVSS_GetIsOpen" data-source-line="16" data-uid="ent0003" id="entity_IVSS_GetIsOpen"><rect fill="#F1F1F1" height="100.8281" rx="2.5" ry="2.5" style="stroke:#181818;stroke-width:0.5;" width="560.6387" x="142.5" y="551"/><ellipse cx="364.873" cy="567" fill="#B4A7E5" rx="11" ry="11" style="stroke:#181818;stroke-width:1;"/><path d="M365.8262,563.6406 L365.8262,570.2969 L367.5449,570.2969 Q368.1543,570.2969 368.4199,570.5313 Q368.6855,570.7656 368.6855,571.1563 Q368.6855,571.5313 368.4199,571.7656 Q368.1543,572 367.5449,572 L362.4043,572 Q361.7949,572 361.5293,571.7656 Q361.2637,571.5313 361.2637,571.1406 Q361.2637,570.7656 361.5293,570.5313 Q361.7949,570.2969 362.4043,570.2969 L364.123,570.2969 L364.123,563.6406 L362.4043,563.6406 Q361.7949,563.6406 361.5293,563.4063 Q361.2637,563.1719 361.2637,562.7813 Q361.2637,562.4063 361.5293,562.1719 Q361.7949,561.9375 362.4043,561.9375 L367.5449,561.9375 Q368.1543,561.9375 368.4199,562.1719 Q368.6855,562.4063 368.6855,562.7813 Q368.6855,563.1719 368.4199,563.4063 Q368.1543,563.6406 367.5449,563.6406 L365.8262,563.6406 Z " fill="#000000"/><text fill="#000000" font-family="sans-serif" font-size="14" font-style="italic" lengthAdjust="spacing" textLength="107.3926" x="385.373" y="572.7285">IVSS_GetIsOpen</text><line style="stroke:#181818;stroke-width:0.5;" x1="143.5" x2="702.1387" y1="583" y2="583"/><line style="stroke:#181818;stroke-width:0.5;" x1="143.5" x2="702.1387" y1="591" y2="591"/><text fill="#000000" font-family="sans-serif" font-size="14" font-style="italic" lengthAdjust="spacing" textLength="144.7373" x="148.5" y="609.5332">bool GetIsOpen() const</text><text fill="#000000" font-family="sans-serif" font-size="14" font-style="italic" lengthAdjust="spacing" textLength="536.1904" x="148.5" y="627.1426">void RegisterOnSignalChangeOfLeftDoorIsOpen02(IVSS_SetIsOpen_Event* callback)</text><text fill="#000000" font-family="sans-serif" font-size="14" font-style="italic" lengthAdjust="spacing" textLength="548.6387" x="148.5" y="644.752">void UnregisterOnSignalChangeOfLeftDoorIsOpen02(IVSS_SetIsOpen_Event* callback)</text></g><!--class IVSS_SetIsOpen_Event--><g class="entity" data-entity="IVSS_SetIsOpen_Event" data-source-line="23" data-uid="ent0010" id="entity_IVSS_SetIsOpen_Event"><rect fill="#F1F1F1" height="65.6094" rx="2.5" ry="2.5" style="stroke:#181818;stroke-width:0.5;" width="196.4473" x="739" y="568.5"/><ellipse cx="760.7592" cy="584.5" fill="#B4A7E5" rx="11" ry="11" style="stroke:#181818;stroke-width:1;"/><path d="M761.7124,581.1406 L761.7124,587.7969 L763.4311,587.7969 Q764.0405,587.7969 764.3061,588.0313 Q764.5717,588.2656 764.5717,588.6563 Q764.5717,589.0313 764.3061,589.2656 Q764.0405,589.5 763.4311,589.5 L758.2905,589.5 Q757.6811,589.5 757.4155,589.2656 Q757.1499,589.0313 757.1499,588.6406 Q757.1499,588.2656 757.4155,588.0313 Q757.6811,587.7969 758.2905,587.7969 L760.0092,587.7969 L760.0092,581.1406 L758.2905,581.1406 Q757.6811,581.1406 757.4155,580.9063 Q757.1499,580.6719 757.1499,580.2813 Q757.1499,579.9063 757.4155,579.6719 Q757.6811,579.4375 758.2905,579.4375 L763.4311,579.4375 Q764.0405,579.4375 764.3061,579.6719 Q764.5717,579.9063 764.5717,580.2813 Q764.5717,580.6719 764.3061,580.9063 Q764.0405,581.1406 763.4311,581.1406 L761.7124,581.1406 Z " fill="#000000"/><text fill="#000000" font-family="sans-serif" font-size="14" font-style="italic" lengthAdjust="spacing" textLength="149.4268" x="776.2613" y="590.2285">IVSS_SetIsOpen_Event</text><line style="stroke:#181818;stroke-width:0.5;" x1="740" x2="934.4473" y1="600.5" y2="600.5"/><line style="stroke:#181818;stroke-width:0.5;" x1="740" x2="934.4473" y1="608.5" y2="608.5"/><text fill="#000000" font-family="sans-serif" font-size="14" font-style="italic" lengthAdjust="spacing" textLength="184.4473" x="745" y="627.0332">void SetIsOpenL2(bool value)</text></g><!--class IVSS_SetLock--><g class="entity" data-entity="IVSS_SetLock" data-source-line="33" data-uid="ent0013" id="entity_IVSS_SetLock"><rect fill="#F1F1F1" height="65.6094" rx="2.5" ry="2.5" style="stroke:#181818;stroke-width:0.5;" width="166.0957" x="970" y="568.5"/><ellipse cx="1004.7191" cy="584.5" fill="#B4A7E5" rx="11" ry="11" style="stroke:#181818;stroke-width:1;"/><path d="M1005.6723,581.1406 L1005.6723,587.7969 L1007.391,587.7969 Q1008.0004,587.7969 1008.266,588.0313 Q1008.5316,588.2656 1008.5316,588.6563 Q1008.5316,589.0313 1008.266,589.2656 Q1008.0004,589.5 1007.391,589.5 L1002.2504,589.5 Q1001.641,589.5 1001.3754,589.2656 Q1001.1098,589.0313 1001.1098,588.6406 Q1001.1098,588.2656 1001.3754,588.0313 Q1001.641,587.7969 1002.2504,587.7969 L1003.9691,587.7969 L1003.9691,581.1406 L1002.2504,581.1406 Q1001.641,581.1406 1001.3754,580.9063 Q1001.1098,580.6719 1001.1098,580.2813 Q1001.1098,579.9063 1001.3754,579.6719 Q1001.641,579.4375 1002.2504,579.4375 L1007.391,579.4375 Q1008.0004,579.4375 1008.266,579.6719 Q1008.5316,579.9063 1008.5316,580.2813 Q1008.5316,580.6719 1008.266,580.9063 Q1008.0004,581.1406 1007.391,581.1406 L1005.6723,581.1406 Z " fill="#000000"/><text fill="#000000" font-family="sans-serif" font-size="14" font-style="italic" lengthAdjust="spacing" textLength="90.2754" x="1023.1012" y="590.2285">IVSS_SetLock</text><line style="stroke:#181818;stroke-width:0.5;" x1="971" x2="1135.0957" y1="600.5" y2="600.5"/><line style="stroke:#181818;stroke-width:0.5;" x1="971" x2="1135.0957" y1="608.5" y2="608.5"/><text fill="#000000" font-family="sans-serif" font-size="14" font-style="italic" lengthAdjust="spacing" textLength="154.0957" x="976" y="627.0332">bool SetLock(bool value)</text></g><!--class IVSS_WriteIsOpen_Event--><g class="entity" data-entity="IVSS_WriteIsOpen_Event" data-source-line="28" data-uid="ent0011" id="entity_IVSS_WriteIsOpen_Event"><rect fill="#F1F1F1" height="65.6094" rx="2.5" ry="2.5" style="stroke:#181818;stroke-width:0.5;" width="193.0752" x="1192.5" y="568.5"/><ellipse cx="1207.5" cy="584.5" fill="#B4A7E5" rx="11" ry="11" style="stroke:#181818;stroke-width:1;"/><path d="M1208.4531,581.1406 L1208.4531,587.7969 L1210.1719,587.7969 Q1210.7813,587.7969 1211.0469,588.0313 Q1211.3125,588.2656 1211.3125,588.6563 Q1211.3125,589.0313 1211.0469,589.2656 Q1210.7813,589.5 1210.1719,589.5 L1205.0313,589.5 Q1204.4219,589.5 1204.1563,589.2656 Q1203.8906,589.0313 1203.8906,588.6406 Q1203.8906,588.2656 1204.1563,588.0313 Q1204.4219,587.7969 1205.0313,587.7969 L1206.75,587.7969 L1206.75,581.1406 L1205.0313,581.1406 Q1204.4219,581.1406 1204.1563,580.9063 Q1203.8906,580.6719 1203.8906,580.2813 Q1203.8906,579.9063 1204.1563,579.6719 Q1204.4219,579.4375 1205.0313,579.4375 L1210.1719,579.4375 Q1210.7813,579.4375 1211.0469,579.6719 Q1211.3125,579.9063 1211.3125,580.2813 Q1211.3125,580.6719 1211.0469,580.9063 Q1210.7813,581.1406 1210.1719,581.1406 L1208.4531,581.1406 Z " fill="#000000"/><text fill="#000000" font-family="sans-serif" font-size="14" font-style="italic" lengthAdjust="spacing" textLength="161.0752" x="1221.5" y="590.2285">IVSS_WriteIsOpen_Event</text><line style="stroke:#181818;stroke-width:0.5;" x1="1193.5" x2="1384.5752" y1="600.5" y2="600.5"/><line style="stroke:#181818;stroke-width:0.5;" x1="1193.5" x2="1384.5752" y1="608.5" y2="608.5"/><text fill="#000000" font-family="sans-serif" font-size="14" font-style="italic" lengthAdjust="spacing" textLength="180.5234" x="1198.5" y="627.0332">void WriteIsOpen(bool value)</text></g><!--class CSdvObject--><g class="entity" data-entity="CSdvObject" data-source-line="38" data-uid="ent0014" id="entity_CSdvObject"><rect fill="#F1F1F1" height="118.4375" rx="2.5" ry="2.5" style="stroke:#181818;stroke-width:0.5;" width="412.7705" x="1562.5" y="542.5"/><ellipse cx="1727.2871" cy="558.5" fill="#ADD1B2" rx="11" ry="11" style="stroke:#181818;stroke-width:1;"/><path d="M1730.0527,554.375 Q1730.209,554.1563 1730.3965,554.0469 Q1730.584,553.9375 1730.8027,553.9375 Q1731.1777,553.9375 1731.4121,554.1953 Q1731.6465,554.4531 1731.6465,555.0625 L1731.6465,556.5156 Q1731.6465,557.125 1731.4121,557.3906 Q1731.1777,557.6563 1730.8027,557.6563 Q1730.459,557.6563 1730.2559,557.4531 Q1730.0527,557.2656 1729.9434,556.75 Q1729.8965,556.3906 1729.709,556.2031 Q1729.3809,555.8281 1728.7715,555.6094 Q1728.1621,555.3906 1727.5371,555.3906 Q1726.7715,555.3906 1726.1387,555.7188 Q1725.5059,556.0469 1725.0137,556.7969 Q1724.5215,557.5469 1724.5215,558.5781 L1724.5215,559.6719 Q1724.5215,560.9063 1725.4121,561.7266 Q1726.3027,562.5469 1727.8965,562.5469 Q1728.834,562.5469 1729.4902,562.2969 Q1729.8809,562.1406 1730.3027,561.7031 Q1730.5684,561.4375 1730.7168,561.3594 Q1730.8652,561.2813 1731.0684,561.2813 Q1731.3965,561.2813 1731.6543,561.5391 Q1731.9121,561.7969 1731.9121,562.1406 Q1731.9121,562.4844 1731.5684,562.8906 Q1731.0684,563.4688 1730.2715,563.7969 Q1729.1934,564.25 1727.8965,564.25 Q1726.3809,564.25 1725.1777,563.625 Q1724.1934,563.125 1723.5059,562.0547 Q1722.8184,560.9844 1722.8184,559.7031 L1722.8184,558.5469 Q1722.8184,557.2188 1723.4355,556.0703 Q1724.0527,554.9219 1725.1465,554.3047 Q1726.2402,553.6875 1727.4746,553.6875 Q1728.209,553.6875 1728.8574,553.8516 Q1729.5059,554.0156 1730.0527,554.375 Z " fill="#000000"/><text fill="#000000" font-family="sans-serif" font-size="14" lengthAdjust="spacing" textLength="74.6963" x="1747.7871" y="564.2285">CSdvObject</text><line style="stroke:#181818;stroke-width:0.5;" x1="1563.5" x2="1974.2705" y1="574.5" y2="574.5"/><line style="stroke:#181818;stroke-width:0.5;" x1="1563.5" x2="1974.2705" y1="582.5" y2="582.5"/><ellipse cx="1573.5" cy="596.8047" fill="#84BE84" rx="3" ry="3" style="stroke:#038048;stroke-width:1;"/><text fill="#000000" font-family="sans-serif" font-size="14" lengthAdjust="spacing" text-decoration="underline" textLength="336.9365" x="1582.5" y="601.0332">sdv::sequence&lt;sdv::u8string&gt; GetClassAliasesStatic()</text><ellipse cx="1573.5" cy="614.4141" fill="#84BE84" rx="3" ry="3" style="stroke:#038048;stroke-width:1;"/><text fill="#000000" font-family="sans-serif" font-size="14" lengthAdjust="spacing" text-decoration="underline" textLength="272.3301" x="1582.5" y="618.6426">sdv::u8string GetDefaultObjectNameStatic()</text><ellipse cx="1573.5" cy="632.0234" fill="#84BE84" rx="3" ry="3" style="stroke:#038048;stroke-width:1;"/><text fill="#000000" font-family="sans-serif" font-size="14" lengthAdjust="spacing" text-decoration="underline" textLength="143.9648" x="1582.5" y="636.252">bool IsSingletonStatic()</text><ellipse cx="1573.5" cy="649.6328" fill="#84BE84" rx="3" ry="3" style="stroke:#038048;stroke-width:1;"/><text fill="#000000" font-family="sans-serif" font-size="14" lengthAdjust="spacing" text-decoration="underline" textLength="386.7705" x="1582.5" y="653.8613">sdv::sequence&lt;sdv::u8string&gt; GetObjectDependenciesStatic()</text></g><!--class CBasicServiceRearDoorLeft--><g class="entity" data-entity="CBasicServiceRearDoorLeft" data-source-line="2" data-uid="ent0002" id="entity_CBasicServiceRearDoorLeft"><rect fill="#F1F1F1" height="224.0938" rx="2.5" ry="2.5" style="stroke:#181818;stroke-width:0.5;" width="881.21" x="612.5" y="7"/><ellipse cx="961.3208" cy="23" fill="#ADD1B2" rx="11" ry="11" style="stroke:#181818;stroke-width:1;"/><path d="M964.0864,18.875 Q964.2427,18.6563 964.4302,18.5469 Q964.6177,18.4375 964.8364,18.4375 Q965.2114,18.4375 965.4458,18.6953 Q965.6802,18.9531 965.6802,19.5625 L965.6802,21.0156 Q965.6802,21.625 965.4458,21.8906 Q965.2114,22.1563 964.8364,22.1563 Q964.4927,22.1563 964.2896,21.9531 Q964.0864,21.7656 963.9771,21.25 Q963.9302,20.8906 963.7427,20.7031 Q963.4146,20.3281 962.8052,20.1094 Q962.1958,19.8906 961.5708,19.8906 Q960.8052,19.8906 960.1724,20.2188 Q959.5396,20.5469 959.0474,21.2969 Q958.5552,22.0469 958.5552,23.0781 L958.5552,24.1719 Q958.5552,25.4063 959.4458,26.2266 Q960.3364,27.0469 961.9302,27.0469 Q962.8677,27.0469 963.5239,26.7969 Q963.9146,26.6406 964.3364,26.2031 Q964.6021,25.9375 964.7505,25.8594 Q964.8989,25.7813 965.1021,25.7813 Q965.4302,25.7813 965.688,26.0391 Q965.9458,26.2969 965.9458,26.6406 Q965.9458,26.9844 965.6021,27.3906 Q965.1021,27.9688 964.3052,28.2969 Q963.2271,28.75 961.9302,28.75 Q960.4146,28.75 959.2114,28.125 Q958.2271,27.625 957.5396,26.5547 Q956.8521,25.4844 956.8521,24.2031 L956.8521,23.0469 Q956.8521,21.7188 957.4692,20.5703 Q958.0864,19.4219 959.1802,18.8047 Q960.2739,18.1875 961.5083,18.1875 Q962.2427,18.1875 962.8911,18.3516 Q963.5396,18.5156 964.0864,18.875 Z " fill="#000000"/><text fill="#000000" font-family="sans-serif" font-size="14" lengthAdjust="spacing" textLength="175.0684" x="981.8208" y="28.7285">CBasicServiceRearDoorLeft</text><line style="stroke:#181818;stroke-width:0.5;" x1="613.5" x2="1492.71" y1="39" y2="39"/><rect fill="none" height="6" style="stroke:#C82930;stroke-width:1;" width="6" x="620.5" y="50.3047"/><text fill="#000000" font-family="sans-serif" font-size="14" lengthAdjust="spacing" textLength="159.5371" x="632.5" y="57.5332">bool m_leftDoorIsOpen02</text><rect fill="none" height="6" style="stroke:#C82930;stroke-width:1;" width="6" x="620.5" y="67.9141"/><text fill="#000000" font-family="sans-serif" font-size="14" lengthAdjust="spacing" textLength="350.1572" x="632.5" y="75.1426">mutable std::mutex m_leftDoorIsOpen02MutexCallbacks</text><rect fill="none" height="6" style="stroke:#C82930;stroke-width:1;" width="6" x="620.5" y="85.5234"/><text fill="#000000" font-family="sans-serif" font-size="14" lengthAdjust="spacing" textLength="716.6865" x="632.5" y="92.752">std::set&lt;vss::Vehicle::Chassis::Door::Axle02::LeftService::IVSS_SetIsOpen_Event*&gt; m_leftDoorIsOpen02Callbacks</text><rect fill="none" height="6" style="stroke:#C82930;stroke-width:1;" width="6" x="620.5" y="103.1328"/><text fill="#000000" font-family="sans-serif" font-size="14" lengthAdjust="spacing" textLength="479.3018" x="632.5" y="110.3613">vss::Vehicle::Chassis::Door::Axle02::LeftDevice::IVSS_WriteLock* m_ptrLock</text><line style="stroke:#181818;stroke-width:0.5;" x1="613.5" x2="1492.71" y1="117.4375" y2="117.4375"/><ellipse cx="623.5" cy="131.7422" fill="#84BE84" rx="3" ry="3" style="stroke:#038048;stroke-width:1;"/><text fill="#000000" font-family="sans-serif" font-size="14" font-style="italic" lengthAdjust="spacing" textLength="184.4473" x="632.5" y="135.9707">void SetIsOpenL2(bool value)</text><ellipse cx="623.5" cy="149.3516" fill="#84BE84" rx="3" ry="3" style="stroke:#038048;stroke-width:1;"/><text fill="#000000" font-family="sans-serif" font-size="14" font-style="italic" lengthAdjust="spacing" textLength="154.0957" x="632.5" y="153.5801">bool SetLock(bool value)</text><ellipse cx="623.5" cy="166.9609" fill="#84BE84" rx="3" ry="3" style="stroke:#038048;stroke-width:1;"/><text fill="#000000" font-family="sans-serif" font-size="14" font-style="italic" lengthAdjust="spacing" textLength="144.7373" x="632.5" y="171.1895">bool GetIsOpen() const</text><ellipse cx="623.5" cy="184.5703" fill="#84BE84" rx="3" ry="3" style="stroke:#038048;stroke-width:1;"/><text fill="#000000" font-family="sans-serif" font-size="14" font-style="italic" lengthAdjust="spacing" textLength="180.5234" x="632.5" y="188.7988">void WriteIsOpen(bool value)</text><ellipse cx="623.5" cy="202.1797" fill="#84BE84" rx="3" ry="3" style="stroke:#038048;stroke-width:1;"/><text fill="#000000" font-family="sans-serif" font-size="14" font-style="italic" lengthAdjust="spacing" textLength="842.7617" x="632.5" y="206.4082">void RegisterOnSignalChangeOfLeftDoorIsOpen02(vss::Vehicle::Chassis::Door::Axle02::LeftService::IVSS_SetIsOpen_Event* callback)</text><ellipse cx="623.5" cy="219.7891" fill="#84BE84" rx="3" ry="3" style="stroke:#038048;stroke-width:1;"/><text fill="#000000" font-family="sans-serif" font-size="14" font-style="italic" lengthAdjust="spacing" textLength="855.21" x="632.5" y="224.0176">void UnregisterOnSignalChangeOfLeftDoorIsOpen02(vss::Vehicle::Chassis::Door::Axle02::LeftService::IVSS_SetIsOpen_Event* callback)</text></g><!--link CBasicServiceRearDoorLeft to CSdvObject--><g class="link" data-entity-1="CBasicServiceRearDoorLeft" data-entity-2="CSdvObject" data-source-line="46" data-uid="lnk16" id="link_CBasicServiceRearDoorLeft_CSdvObject"><path codeLine="46" d="M1305.63,231.15 C1338.79,248.54 1371.73,267.32 1402,287 C1520.19,363.87 1628.6297,462.5774 1697.9397,529.8074" fill="none" id="CBasicServiceRearDoorLeft-to-CSdvObject" style="stroke:#181818;stroke-width:1;"/><polygon fill="none" points="1710.86,542.34,1702.1172,525.5007,1693.7622,534.1142,1710.86,542.34" style="stroke:#181818;stroke-width:1;"/><text fill="#000000" font-family="sans-serif" font-size="13" lengthAdjust="spacing" textLength="42.6309" x="1385" y="275.4951">Inherits</text></g><!--link CBasicServiceRearDoorLeft to IVSS_GetIsOpen--><g class="link" data-entity-1="CBasicServiceRearDoorLeft" data-entity-2="IVSS_GetIsOpen" data-source-line="47" data-uid="lnk17" id="link_CBasicServiceRearDoorLeft_IVSS_GetIsOpen"><path codeLine="47" d="M807.86,231.04 C777.64,248.25 747.94,267.01 721,287 C614.87,365.76 525.0056,470.3053 472.2156,536.7653" fill="none" id="CBasicServiceRearDoorLeft-to-IVSS_GetIsOpen" style="stroke:#181818;stroke-width:1;stroke-dasharray:7,7;"/><polygon fill="none" points="461.02,550.86,476.9138,540.4972,467.5173,533.0335,461.02,550.86" style="stroke:#181818;stroke-width:1;"/><text fill="#000000" font-family="sans-serif" font-size="13" lengthAdjust="spacing" textLength="67.1899" x="755" y="275.4951">Implements</text></g><!--link CBasicServiceRearDoorLeft to IVSS_SetIsOpen_Event--><g class="link" data-entity-1="CBasicServiceRearDoorLeft" data-entity-2="IVSS_SetIsOpen_Event" data-source-line="48" data-uid="lnk18" id="link_CBasicServiceRearDoorLeft_IVSS_SetIsOpen_Event"><path codeLine="48" d="M982.58,231.17 C972.08,249.51 961.84,268.56 953,287 C905.47,386.17 870.0785,493.1099 852.1285,550.9099" fill="none" id="CBasicServiceRearDoorLeft-to-IVSS_SetIsOpen_Event" style="stroke:#181818;stroke-width:1;stroke-dasharray:7,7;"/><polygon fill="none" points="846.79,568.1,857.8585,552.6893,846.3984,549.1304,846.79,568.1" style="stroke:#181818;stroke-width:1;"/><text fill="#000000" font-family="sans-serif" font-size="13" lengthAdjust="spacing" textLength="67.1899" x="965" y="275.4951">Implements</text></g><!--link CBasicServiceRearDoorLeft to IVSS_WriteIsOpen_Event--><g class="link" data-entity-1="CBasicServiceRearDoorLeft" data-entity-2="IVSS_WriteIsOpen_Event" data-source-line="49" data-uid="lnk19" id="link_CBasicServiceRearDoorLeft_IVSS_WriteIsOpen_Event"><path codeLine="49" d="M1121.49,231.22 C1132.09,249.64 1142.62,268.7 1152,287 C1203.33,387.17 1247.1243,494.0799 1269.8443,551.5699" fill="none" id="CBasicServiceRearDoorLeft-to-IVSS_WriteIsOpen_Event" style="stroke:#181818;stroke-width:1;stroke-dasharray:7,7;"/><polygon fill="none" points="1276.46,568.31,1275.4244,549.3646,1264.2643,553.7751,1276.46,568.31" style="stroke:#181818;stroke-width:1;"/><text fill="#000000" font-family="sans-serif" font-size="13" lengthAdjust="spacing" textLength="67.1899" x="1148" y="275.4951">Implements</text></g><!--link CBasicServiceRearDoorLeft to IVSS_SetLock--><g class="link" data-entity-1="CBasicServiceRearDoorLeft" data-entity-2="IVSS_SetLock" data-source-line="50" data-uid="lnk20" id="link_CBasicServiceRearDoorLeft_IVSS_SetLock"><path codeLine="50" d="M1053,231.14 C1053,340.5 1053,482.61 1053,550.35" fill="none" id="CBasicServiceRearDoorLeft-to-IVSS_SetLock" style="stroke:#181818;stroke-width:1;stroke-dasharray:7,7;"/><polygon fill="none" points="1053,568.35,1059,550.35,1047,550.35,1053,568.35" style="stroke:#181818;stroke-width:1;"/><text fill="#000000" font-family="sans-serif" font-size="13" lengthAdjust="spacing" textLength="67.1899" x="1054" y="275.4951">Implements</text></g><!--SRC=[nLLHJzim47xFhxZ75DIgP8Cn2w51Mcr5pJeHw1wHcroBXsDdjXCnCVxxxAH5K9gkAh3r8QgTxxllxloT0neDQCofeaOg8CG3W8HJhI4yfPebCQgI9NYELFMaL4ES6WUvSm_xsxsZ4sqKJSmzb9Ab4ACPw56EOXZu4oavb9GNs5e1hzvQ-50cDvj0FoyY-or8fD2cAONlYXcSGzV7hU3dE6FQe1g9cCq4vU4r5JCSJLsfhkGwKZVmIwq96UCrIpWIOc5QCxlZC8ISt7Bi1eGurhndX0p6SNprq96hVed2x412EP_GvAOneqkX_dTExQfnsHLV4boypWf39nn1cvGGky3R5U38xOVpo7f1hIZMTaUlbFln2kLdeXjhzV2HLEKavyyTgv4RvVwwYFUUUmw4FQ4fJH2shEJ1qOydQbFRRstZpGpm0azk8F1A3LmIQMZZt-wbhPDvxfLDirbpHRrUQnPkRN9MmzrR9r1_0tHQMiquBKUJ7vWyBKaRQbXo3xiLIEFF0aM2HzMgEBHAJCoEdNr35-g4CwfHnnN9RwqEig0vLW-djE2c5lvACsoaLlaFT6o978qKwpNM95fhzT2UIceXx6cwTLyQluhGRly-NcuO47kIrsXFMwydTpgM_D9hnAbbESVCkkyDzPQcxirKru_NlolM3ScIsYVha2BZdlUDKs4keo6Kg3IJ0lOwGJVOxtpq8xk8COVk8Unz8Fi7vDqXXFtu0jpxbkT7WmlGib1sn5FcJ3WfZ0tGyiveIU6y48PbIC2j_8ke1N5_iGbzKJ8bXSl5Enj7DGY-I1FdqbJWW_VjKsR0bO8Anf4tdoPBJMHg_KuWpFU2_S0Rsakye3EhbA8NIgkWVX7ezVy0]--></g></svg>