<svg xmlns="http://www.w3.org/2000/svg" xmlns:xlink="http://www.w3.org/1999/xlink" contentStyleType="text/css" data-diagram-type="CLASS" height="707px" preserveAspectRatio="none" style="width:1390px;height:707px;background:#FFFFFF;" version="1.1" viewBox="0 0 1390 707" width="1390px" zoomAndPan="magnify"><defs/><g><!--cluster sdv--><g class="cluster" data-entity="sdv" data-source-line="13" data-uid="ent0004" id="cluster_sdv"><path d="M8.5,436 L33.624,436 A3.75,3.75 0 0 1 36.124,438.5 L43.124,459.6094 L810.5,459.6094 A2.5,2.5 0 0 1 813,462.1094 L813,603.5 A2.5,2.5 0 0 1 810.5,606 L8.5,606 A2.5,2.5 0 0 1 6,603.5 L6,438.5 A2.5,2.5 0 0 1 8.5,436" fill="none" style="stroke:#000000;stroke-width:1.5;"/><line style="stroke:#000000;stroke-width:1.5;" x1="6" x2="43.124" y1="459.6094" y2="459.6094"/><text fill="#000000" font-family="sans-serif" font-size="14" font-weight="bold" lengthAdjust="spacing" textLength="24.124" x="10" y="452.5332">sdv</text></g><!--cluster vss--><g class="cluster" data-entity="vss" data-source-line="29" data-uid="ent0007" id="cluster_vss"><path d="M839.5,242 L863.8584,242 A3.75,3.75 0 0 1 866.3584,244.5 L873.3584,265.6094 L1380.5,265.6094 A2.5,2.5 0 0 1 1383,268.1094 L1383,697.5 A2.5,2.5 0 0 1 1380.5,700 L839.5,700 A2.5,2.5 0 0 1 837,697.5 L837,244.5 A2.5,2.5 0 0 1 839.5,242" fill="none" style="stroke:#000000;stroke-width:1.5;"/><line style="stroke:#000000;stroke-width:1.5;" x1="837" x2="873.3584" y1="265.6094" y2="265.6094"/><text fill="#000000" font-family="sans-serif" font-size="14" font-weight="bold" lengthAdjust="spacing" textLength="23.3584" x="841" y="258.5332">vss</text></g><!--cluster Vehicle--><g class="cluster" data-entity="Vehicle" data-source-line="29" data-uid="ent0008" id="cluster_Vehicle"><path d="M863.5,286 L913.5273,286 A3.75,3.75 0 0 1 916.0273,288.5 L923.0273,309.6094 L1356.5,309.6094 A2.5,2.5 0 0 1 1359,312.1094 L1359,673.5 A2.5,2.5 0 0 1 1356.5,676 L863.5,676 A2.5,2.5 0 0 1 861,673.5 L861,288.5 A2.5,2.5 0 0 1 863.5,286" fill="none" style="stroke:#000000;stroke-width:1.5;"/><line style="stroke:#000000;stroke-width:1.5;" x1="861" x2="923.0273" y1="309.6094" y2="309.6094"/><text fill="#000000" font-family="sans-serif" font-size="14" font-weight="bold" lengthAdjust="spacing" textLength="49.0273" x="865" y="302.5332">Vehicle</text></g><!--cluster Body--><g class="cluster" data-entity="Body" data-source-line="29" data-uid="ent0009" id="cluster_Body"><path d="M887.5,330 L923.5,330 A3.75,3.75 0 0 1 926,332.5 L933,353.6094 L1332.5,353.6094 A2.5,2.5 0 0 1 1335,356.1094 L1335,649.5 A2.5,2.5 0 0 1 1332.5,652 L887.5,652 A2.5,2.5 0 0 1 885,649.5 L885,332.5 A2.5,2.5 0 0 1 887.5,330" fill="none" style="stroke:#000000;stroke-width:1.5;"/><line style="stroke:#000000;stroke-width:1.5;" x1="885" x2="933" y1="353.6094" y2="353.6094"/><text fill="#000000" font-family="sans-serif" font-size="14" font-weight="bold" lengthAdjust="spacing" textLength="35" x="889" y="346.5332">Body</text></g><!--cluster Light--><g class="cluster" data-entity="Light" data-source-line="29" data-uid="ent0010" id="cluster_Light"><path d="M911.5,374 L946.707,374 A3.75,3.75 0 0 1 949.207,376.5 L956.207,397.6094 L1308.5,397.6094 A2.5,2.5 0 0 1 1311,400.1094 L1311,625.5 A2.5,2.5 0 0 1 1308.5,628 L911.5,628 A2.5,2.5 0 0 1 909,625.5 L909,376.5 A2.5,2.5 0 0 1 911.5,374" fill="none" style="stroke:#000000;stroke-width:1.5;"/><line style="stroke:#000000;stroke-width:1.5;" x1="909" x2="956.207" y1="397.6094" y2="397.6094"/><text fill="#000000" font-family="sans-serif" font-size="14" font-weight="bold" lengthAdjust="spacing" textLength="34.207" x="913" y="390.5332">Light</text></g><!--cluster Front--><g class="cluster" data-entity="Front" data-source-line="29" data-uid="ent0011" id="cluster_Front"><path d="M935.5,418 L972.2656,418 A3.75,3.75 0 0 1 974.7656,420.5 L981.7656,441.6094 L1284.5,441.6094 A2.5,2.5 0 0 1 1287,444.1094 L1287,601.5 A2.5,2.5 0 0 1 1284.5,604 L935.5,604 A2.5,2.5 0 0 1 933,601.5 L933,420.5 A2.5,2.5 0 0 1 935.5,418" fill="none" style="stroke:#000000;stroke-width:1.5;"/><line style="stroke:#000000;stroke-width:1.5;" x1="933" x2="981.7656" y1="441.6094" y2="441.6094"/><text fill="#000000" font-family="sans-serif" font-size="14" font-weight="bold" lengthAdjust="spacing" textLength="35.7656" x="937" y="434.5332">Front</text></g><!--cluster LowBeamDevice--><g class="cluster" data-entity="LowBeamDevice" data-source-line="29" data-uid="ent0012" id="cluster_LowBeamDevice"><path d="M959.5,462 L1071.7686,462 A3.75,3.75 0 0 1 1074.2686,464.5 L1081.2686,485.6094 L1260.5,485.6094 A2.5,2.5 0 0 1 1263,488.1094 L1263,577.5 A2.5,2.5 0 0 1 1260.5,580 L959.5,580 A2.5,2.5 0 0 1 957,577.5 L957,464.5 A2.5,2.5 0 0 1 959.5,462" fill="none" style="stroke:#000000;stroke-width:1.5;"/><line style="stroke:#000000;stroke-width:1.5;" x1="957" x2="1081.2686" y1="485.6094" y2="485.6094"/><text fill="#000000" font-family="sans-serif" font-size="14" font-weight="bold" lengthAdjust="spacing" textLength="111.2686" x="961" y="478.5332">LowBeamDevice</text></g><!--class CSdvObject--><g class="entity" data-entity="CSdvObject" data-source-line="13" data-uid="ent0003" id="entity_CSdvObject"><rect fill="#F1F1F1" height="118.4375" rx="2.5" ry="2.5" style="stroke:#181818;stroke-width:0.5;" width="412.7705" x="22.5" y="472"/><ellipse cx="187.2871" cy="488" fill="#ADD1B2" rx="11" ry="11" style="stroke:#181818;stroke-width:1;"/><path d="M190.0527,483.875 Q190.209,483.6563 190.3965,483.5469 Q190.584,483.4375 190.8027,483.4375 Q191.1777,483.4375 191.4121,483.6953 Q191.6465,483.9531 191.6465,484.5625 L191.6465,486.0156 Q191.6465,486.625 191.4121,486.8906 Q191.1777,487.1563 190.8027,487.1563 Q190.459,487.1563 190.2559,486.9531 Q190.0527,486.7656 189.9434,486.25 Q189.8965,485.8906 189.709,485.7031 Q189.3809,485.3281 188.7715,485.1094 Q188.1621,484.8906 187.5371,484.8906 Q186.7715,484.8906 186.1387,485.2188 Q185.5059,485.5469 185.0137,486.2969 Q184.5215,487.0469 184.5215,488.0781 L184.5215,489.1719 Q184.5215,490.4063 185.4121,491.2266 Q186.3027,492.0469 187.8965,492.0469 Q188.834,492.0469 189.4902,491.7969 Q189.8809,491.6406 190.3027,491.2031 Q190.5684,490.9375 190.7168,490.8594 Q190.8652,490.7813 191.0684,490.7813 Q191.3965,490.7813 191.6543,491.0391 Q191.9121,491.2969 191.9121,491.6406 Q191.9121,491.9844 191.5684,492.3906 Q191.0684,492.9688 190.2715,493.2969 Q189.1934,493.75 187.8965,493.75 Q186.3809,493.75 185.1777,493.125 Q184.1934,492.625 183.5059,491.5547 Q182.8184,490.4844 182.8184,489.2031 L182.8184,488.0469 Q182.8184,486.7188 183.4355,485.5703 Q184.0527,484.4219 185.1465,483.8047 Q186.2402,483.1875 187.4746,483.1875 Q188.209,483.1875 188.8574,483.3516 Q189.5059,483.5156 190.0527,483.875 Z " fill="#000000"/><text fill="#000000" font-family="sans-serif" font-size="14" lengthAdjust="spacing" textLength="74.6963" x="207.7871" y="493.7285">CSdvObject</text><line style="stroke:#181818;stroke-width:0.5;" x1="23.5" x2="434.2705" y1="504" y2="504"/><line style="stroke:#181818;stroke-width:0.5;" x1="23.5" x2="434.2705" y1="512" y2="512"/><ellipse cx="33.5" cy="526.3047" fill="#84BE84" rx="3" ry="3" style="stroke:#038048;stroke-width:1;"/><text fill="#000000" font-family="sans-serif" font-size="14" lengthAdjust="spacing" text-decoration="underline" textLength="336.9365" x="42.5" y="530.5332">sdv::sequence&lt;sdv::u8string&gt; GetClassAliasesStatic()</text><ellipse cx="33.5" cy="543.9141" fill="#84BE84" rx="3" ry="3" style="stroke:#038048;stroke-width:1;"/><text fill="#000000" font-family="sans-serif" font-size="14" lengthAdjust="spacing" text-decoration="underline" textLength="272.3301" x="42.5" y="548.1426">sdv::u8string GetDefaultObjectNameStatic()</text><ellipse cx="33.5" cy="561.5234" fill="#84BE84" rx="3" ry="3" style="stroke:#038048;stroke-width:1;"/><text fill="#000000" font-family="sans-serif" font-size="14" lengthAdjust="spacing" text-decoration="underline" textLength="143.9648" x="42.5" y="565.752">bool IsSingletonStatic()</text><ellipse cx="33.5" cy="579.1328" fill="#84BE84" rx="3" ry="3" style="stroke:#038048;stroke-width:1;"/><text fill="#000000" font-family="sans-serif" font-size="14" lengthAdjust="spacing" text-decoration="underline" textLength="386.7705" x="42.5" y="583.3613">sdv::sequence&lt;sdv::u8string&gt; GetObjectDependenciesStatic()</text></g><!--class IObjectControl--><g class="entity" data-entity="IObjectControl" data-source-line="21" data-uid="ent0005" id="entity_IObjectControl"><rect fill="#F1F1F1" height="118.4375" rx="2.5" ry="2.5" style="stroke:#181818;stroke-width:0.5;" width="326.3574" x="471" y="472"/><ellipse cx="585.1875" cy="488" fill="#B4A7E5" rx="11" ry="11" style="stroke:#181818;stroke-width:1;"/><path d="M586.1406,484.6406 L586.1406,491.2969 L587.8594,491.2969 Q588.4688,491.2969 588.7344,491.5313 Q589,491.7656 589,492.1563 Q589,492.5313 588.7344,492.7656 Q588.4688,493 587.8594,493 L582.7188,493 Q582.1094,493 581.8438,492.7656 Q581.5781,492.5313 581.5781,492.1406 Q581.5781,491.7656 581.8438,491.5313 Q582.1094,491.2969 582.7188,491.2969 L584.4375,491.2969 L584.4375,484.6406 L582.7188,484.6406 Q582.1094,484.6406 581.8438,484.4063 Q581.5781,484.1719 581.5781,483.7813 Q581.5781,483.4063 581.8438,483.1719 Q582.1094,482.9375 582.7188,482.9375 L587.8594,482.9375 Q588.4688,482.9375 588.7344,483.1719 Q589,483.4063 589,483.7813 Q589,484.1719 588.7344,484.4063 Q588.4688,484.6406 587.8594,484.6406 L586.1406,484.6406 Z " fill="#000000"/><text fill="#000000" font-family="sans-serif" font-size="14" font-style="italic" lengthAdjust="spacing" textLength="89.4824" x="605.6875" y="493.7285">IObjectControl</text><line style="stroke:#181818;stroke-width:0.5;" x1="472" x2="796.3574" y1="504" y2="504"/><line style="stroke:#181818;stroke-width:0.5;" x1="472" x2="796.3574" y1="512" y2="512"/><text fill="#000000" font-family="sans-serif" font-size="14" font-style="italic" lengthAdjust="spacing" textLength="314.3574" x="477" y="530.5332">void Initialize(const sdv::u8string&amp; ssObjectConfig)</text><text fill="#000000" font-family="sans-serif" font-size="14" font-style="italic" lengthAdjust="spacing" textLength="202.3096" x="477" y="548.1426">EObjectStatus GetStatus() const</text><text fill="#000000" font-family="sans-serif" font-size="14" font-style="italic" lengthAdjust="spacing" textLength="308.9502" x="477" y="565.752">void SetOperationMode(EOperationMode eMode)</text><text fill="#000000" font-family="sans-serif" font-size="14" font-style="italic" lengthAdjust="spacing" textLength="101.165" x="477" y="583.3613">void Shutdown()</text></g><!--class IVSS_WriteHeadLightLowBeam--><g class="entity" data-entity="IVSS_WriteHeadLightLowBeam" data-source-line="29" data-uid="ent0006" id="entity_IVSS_WriteHeadLightLowBeam"><rect fill="#F1F1F1" height="65.6094" rx="2.5" ry="2.5" style="stroke:#181818;stroke-width:0.5;" width="274.2539" x="973" y="498"/><ellipse cx="1007.7191" cy="514" fill="#B4A7E5" rx="11" ry="11" style="stroke:#181818;stroke-width:1;"/><path d="M1008.6723,510.6406 L1008.6723,517.2969 L1010.391,517.2969 Q1011.0004,517.2969 1011.266,517.5313 Q1011.5316,517.7656 1011.5316,518.1563 Q1011.5316,518.5313 1011.266,518.7656 Q1011.0004,519 1010.391,519 L1005.2504,519 Q1004.641,519 1004.3754,518.7656 Q1004.1098,518.5313 1004.1098,518.1406 Q1004.1098,517.7656 1004.3754,517.5313 Q1004.641,517.2969 1005.2504,517.2969 L1006.9691,517.2969 L1006.9691,510.6406 L1005.2504,510.6406 Q1004.641,510.6406 1004.3754,510.4063 Q1004.1098,510.1719 1004.1098,509.7813 Q1004.1098,509.4063 1004.3754,509.1719 Q1004.641,508.9375 1005.2504,508.9375 L1010.391,508.9375 Q1011.0004,508.9375 1011.266,509.1719 Q1011.5316,509.4063 1011.5316,509.7813 Q1011.5316,510.1719 1011.266,510.4063 Q1011.0004,510.6406 1010.391,510.6406 L1008.6723,510.6406 Z " fill="#000000"/><text fill="#000000" font-family="sans-serif" font-size="14" font-style="italic" lengthAdjust="spacing" textLength="198.4336" x="1026.1012" y="519.7285">IVSS_WriteHeadLightLowBeam</text><line style="stroke:#181818;stroke-width:0.5;" x1="974" x2="1246.2539" y1="530" y2="530"/><line style="stroke:#181818;stroke-width:0.5;" x1="974" x2="1246.2539" y1="538" y2="538"/><text fill="#000000" font-family="sans-serif" font-size="14" font-style="italic" lengthAdjust="spacing" textLength="262.2539" x="979" y="556.5332">bool WriteHeadLightLowBeam(bool value)</text></g><!--class CVehicleDeviceHeadLightLowBeam--><g class="entity" data-entity="CVehicleDeviceHeadLightLowBeam" data-source-line="2" data-uid="ent0002" id="entity_CVehicleDeviceHeadLightLowBeam"><rect fill="#F1F1F1" height="171.2656" rx="2.5" ry="2.5" style="stroke:#181818;stroke-width:0.5;" width="364.5156" x="451.5" y="7"/><ellipse cx="517.0566" cy="23" fill="#ADD1B2" rx="11" ry="11" style="stroke:#181818;stroke-width:1;"/><path d="M519.8223,18.875 Q519.9785,18.6563 520.166,18.5469 Q520.3535,18.4375 520.5723,18.4375 Q520.9473,18.4375 521.1816,18.6953 Q521.416,18.9531 521.416,19.5625 L521.416,21.0156 Q521.416,21.625 521.1816,21.8906 Q520.9473,22.1563 520.5723,22.1563 Q520.2285,22.1563 520.0254,21.9531 Q519.8223,21.7656 519.7129,21.25 Q519.666,20.8906 519.4785,20.7031 Q519.1504,20.3281 518.541,20.1094 Q517.9316,19.8906 517.3066,19.8906 Q516.541,19.8906 515.9082,20.2188 Q515.2754,20.5469 514.7832,21.2969 Q514.291,22.0469 514.291,23.0781 L514.291,24.1719 Q514.291,25.4063 515.1816,26.2266 Q516.0723,27.0469 517.666,27.0469 Q518.6035,27.0469 519.2598,26.7969 Q519.6504,26.6406 520.0723,26.2031 Q520.3379,25.9375 520.4863,25.8594 Q520.6348,25.7813 520.8379,25.7813 Q521.166,25.7813 521.4238,26.0391 Q521.6816,26.2969 521.6816,26.6406 Q521.6816,26.9844 521.3379,27.3906 Q520.8379,27.9688 520.041,28.2969 Q518.9629,28.75 517.666,28.75 Q516.1504,28.75 514.9473,28.125 Q513.9629,27.625 513.2754,26.5547 Q512.5879,25.4844 512.5879,24.2031 L512.5879,23.0469 Q512.5879,21.7188 513.2051,20.5703 Q513.8223,19.4219 514.916,18.8047 Q516.0098,18.1875 517.2441,18.1875 Q517.9785,18.1875 518.627,18.3516 Q519.2754,18.5156 519.8223,18.875 Z " fill="#000000"/><text fill="#000000" font-family="sans-serif" font-size="14" lengthAdjust="spacing" textLength="224.9023" x="537.5566" y="28.7285">CVehicleDeviceHeadLightLowBeam</text><line style="stroke:#181818;stroke-width:0.5;" x1="452.5" x2="815.0156" y1="39" y2="39"/><rect fill="none" height="6" style="stroke:#C82930;stroke-width:1;" width="6" x="459.5" y="50.3047"/><text fill="#000000" font-family="sans-serif" font-size="14" lengthAdjust="spacing" textLength="270.8125" x="471.5" y="57.5332">sdv::core::CSignal m_bHeadLightLowBeam</text><rect fill="none" height="6" style="stroke:#C82930;stroke-width:1;" width="6" x="459.5" y="67.9141"/><text fill="#000000" font-family="sans-serif" font-size="14" lengthAdjust="spacing" textLength="263.7852" x="471.5" y="75.1426">std::atomic&lt;sdv::EObjectStatus&gt; m_status</text><line style="stroke:#181818;stroke-width:0.5;" x1="452.5" x2="815.0156" y1="82.2188" y2="82.2188"/><ellipse cx="462.5" cy="96.5234" fill="#84BE84" rx="3" ry="3" style="stroke:#038048;stroke-width:1;"/><text fill="#000000" font-family="sans-serif" font-size="14" lengthAdjust="spacing" textLength="297.2539" x="471.5" y="100.752">void Initialize(const sdv::u8string&amp; objectConfig)</text><ellipse cx="462.5" cy="114.1328" fill="#84BE84" rx="3" ry="3" style="stroke:#038048;stroke-width:1;"/><text fill="#000000" font-family="sans-serif" font-size="14" lengthAdjust="spacing" textLength="231.875" x="471.5" y="118.3613">sdv::EObjectStatus GetStatus() const</text><ellipse cx="462.5" cy="131.7422" fill="#84BE84" rx="3" ry="3" style="stroke:#038048;stroke-width:1;"/><text fill="#000000" font-family="sans-serif" font-size="14" lengthAdjust="spacing" textLength="338.5156" x="471.5" y="135.9707">void SetOperationMode(sdv::EOperationMode eMode)</text><ellipse cx="462.5" cy="149.3516" fill="#84BE84" rx="3" ry="3" style="stroke:#038048;stroke-width:1;"/><text fill="#000000" font-family="sans-serif" font-size="14" lengthAdjust="spacing" textLength="101.165" x="471.5" y="153.5801">void Shutdown()</text><ellipse cx="462.5" cy="166.9609" fill="#84BE84" rx="3" ry="3" style="stroke:#038048;stroke-width:1;"/><text fill="#000000" font-family="sans-serif" font-size="14" lengthAdjust="spacing" textLength="262.2539" x="471.5" y="171.1895">bool WriteHeadLightLowBeam(bool value)</text></g><!--link CVehicleDeviceHeadLightLowBeam to CSdvObject--><g class="link" data-entity-1="CVehicleDeviceHeadLightLowBeam" data-entity-2="CSdvObject" data-source-line="34" data-uid="lnk13" id="link_CVehicleDeviceHeadLightLowBeam_CSdvObject"><path codeLine="34" d="M516.47,178.11 C494.83,195.63 473.08,214.68 454,234 C379.63,309.33 318.2106,394.6605 276.4806,457.0205" fill="none" id="CVehicleDeviceHeadLightLowBeam-to-CSdvObject" style="stroke:#181818;stroke-width:1;"/><polygon fill="none" points="266.47,471.98,281.4671,460.3573,271.4941,453.6836,266.47,471.98" style="stroke:#181818;stroke-width:1;"/><text fill="#000000" font-family="sans-serif" font-size="13" lengthAdjust="spacing" textLength="42.6309" x="482" y="222.4951">Inherits</text></g><!--link CVehicleDeviceHeadLightLowBeam to IObjectControl--><g class="link" data-entity-1="CVehicleDeviceHeadLightLowBeam" data-entity-2="IObjectControl" data-source-line="35" data-uid="lnk14" id="link_CVehicleDeviceHeadLightLowBeam_IObjectControl"><path codeLine="35" d="M634,178.18 C634,264.58 634,378.36 634,453.71" fill="none" id="CVehicleDeviceHeadLightLowBeam-to-IObjectControl" style="stroke:#181818;stroke-width:1;stroke-dasharray:7,7;"/><polygon fill="none" points="634,471.71,640,453.71,628,453.71,634,471.71" style="stroke:#181818;stroke-width:1;"/><text fill="#000000" font-family="sans-serif" font-size="13" lengthAdjust="spacing" textLength="67.1899" x="635" y="222.4951">Implements</text></g><!--link CVehicleDeviceHeadLightLowBeam to IVSS_WriteHeadLightLowBeam--><g class="link" data-entity-1="CVehicleDeviceHeadLightLowBeam" data-entity-2="IVSS_WriteHeadLightLowBeam" data-source-line="36" data-uid="lnk15" id="link_CVehicleDeviceHeadLightLowBeam_IVSS_WriteHeadLightLowBeam"><path codeLine="36" d="M745.95,178.07 C768.55,196.05 791.85,215.28 813,234 C915.48,324.71 1015.2955,428.7016 1067.6455,484.5116" fill="none" id="CVehicleDeviceHeadLightLowBeam-to-IVSS_WriteHeadLightLowBeam" style="stroke:#181818;stroke-width:1;stroke-dasharray:7,7;"/><polygon fill="none" points="1079.96,497.64,1072.0217,480.4068,1063.2694,488.6165,1079.96,497.64" style="stroke:#181818;stroke-width:1;"/><text fill="#000000" font-family="sans-serif" font-size="13" lengthAdjust="spacing" textLength="67.1899" x="804" y="222.4951">Implements</text></g><!--SRC=[hPFBRjim44Nt-efP1J82PrqGWO54xiD0MYy49Ck09iSs2ufqDPI2FFpluKD2P2jrlUX6eAYvTpX7bq3eW737Q-vi3Onb83GdWk8Ujqfed6Eh1Fv0Bk_KPklkxDCjyYg3rmm0Bbkh92oCSefhzOAvi8QydsmPQxwGgvNPN81T_KRX2clMQZE9ibZmTHdtIyTTG_0TkrK-WUZouL-YM-xG7r1PyzDAp3lvS0ymF2S3qRPnqZwPFEsjhDNmK2it6YMFdrgkcoIVHdTXQsIiADN6S0tLusfC89GwoPW7LobnFPvfvdKKLndiinvih2jAsQRIZkHhA5HYtx4X_DEW4NXzW78MA1N1vKOhJaXb5AKHZnnwJP3CSSqRxLB3Nxp2ptKHn89AhzBeh3dXVk9ygSiSTsYaBr73KmOA2-EmNdE1YSHYsQV3rLRtDFZAEtBXzd1MmeYMnnaRM9mHjEE6eyZzDMqZvI1tX-EsH8nrjugnMokV6Ok9OknRxSVtRobQwSfvDFTb-VXfPiUOpirtEDBfgmtJwTliEAN0_21RzFxqJ_tLLQy__BV1ezffhD2Sw_8VaHrsVmS0]--></g></svg>