<svg xmlns="http://www.w3.org/2000/svg" xmlns:xlink="http://www.w3.org/1999/xlink" contentStyleType="text/css" data-diagram-type="CLASS" height="624px" preserveAspectRatio="none" style="width:1831px;height:624px;background:#FFFFFF;" version="1.1" viewBox="0 0 1831 624" width="1831px" zoomAndPan="magnify"><defs/><g><!--cluster sdv--><g class="cluster" data-entity="sdv" data-source-line="14" data-uid="ent0004" id="cluster_sdv"><path d="M8.5,383.5 L33.624,383.5 A3.75,3.75 0 0 1 36.124,386 L43.124,407.1094 L449.5,407.1094 A2.5,2.5 0 0 1 452,409.6094 L452,551 A2.5,2.5 0 0 1 449.5,553.5 L8.5,553.5 A2.5,2.5 0 0 1 6,551 L6,386 A2.5,2.5 0 0 1 8.5,383.5" fill="none" style="stroke:#000000;stroke-width:1.5;"/><line style="stroke:#000000;stroke-width:1.5;" x1="6" x2="43.124" y1="407.1094" y2="407.1094"/><text fill="#000000" font-family="sans-serif" font-size="14" font-weight="bold" lengthAdjust="spacing" textLength="24.124" x="10" y="400.0332">sdv</text></g><!--cluster vss--><g class="cluster" data-entity="vss" data-source-line="23" data-uid="ent0006" id="cluster_vss"><path d="M478.5,260 L502.8584,260 A3.75,3.75 0 0 1 505.3584,262.5 L512.3584,283.6094 L1821.5,283.6094 A2.5,2.5 0 0 1 1824,286.1094 L1824,614.5 A2.5,2.5 0 0 1 1821.5,617 L478.5,617 A2.5,2.5 0 0 1 476,614.5 L476,262.5 A2.5,2.5 0 0 1 478.5,260" fill="none" style="stroke:#000000;stroke-width:1.5;"/><line style="stroke:#000000;stroke-width:1.5;" x1="476" x2="512.3584" y1="283.6094" y2="283.6094"/><text fill="#000000" font-family="sans-serif" font-size="14" font-weight="bold" lengthAdjust="spacing" textLength="23.3584" x="480" y="276.5332">vss</text></g><!--cluster Vehicle--><g class="cluster" data-entity="Vehicle" data-source-line="23" data-uid="ent0007" id="cluster_Vehicle"><path d="M502.5,304 L552.5273,304 A3.75,3.75 0 0 1 555.0273,306.5 L562.0273,327.6094 L1797.5,327.6094 A2.5,2.5 0 0 1 1800,330.1094 L1800,590.5 A2.5,2.5 0 0 1 1797.5,593 L502.5,593 A2.5,2.5 0 0 1 500,590.5 L500,306.5 A2.5,2.5 0 0 1 502.5,304" fill="none" style="stroke:#000000;stroke-width:1.5;"/><line style="stroke:#000000;stroke-width:1.5;" x1="500" x2="562.0273" y1="327.6094" y2="327.6094"/><text fill="#000000" font-family="sans-serif" font-size="14" font-weight="bold" lengthAdjust="spacing" textLength="49.0273" x="504" y="320.5332">Vehicle</text></g><!--cluster Position--><g class="cluster" data-entity="Position" data-source-line="23" data-uid="ent0008" id="cluster_Position"><path d="M526.5,348 L582.7207,348 A3.75,3.75 0 0 1 585.2207,350.5 L592.2207,371.6094 L1773.5,371.6094 A2.5,2.5 0 0 1 1776,374.1094 L1776,566.5 A2.5,2.5 0 0 1 1773.5,569 L526.5,569 A2.5,2.5 0 0 1 524,566.5 L524,350.5 A2.5,2.5 0 0 1 526.5,348" fill="none" style="stroke:#000000;stroke-width:1.5;"/><line style="stroke:#000000;stroke-width:1.5;" x1="524" x2="592.2207" y1="371.6094" y2="371.6094"/><text fill="#000000" font-family="sans-serif" font-size="14" font-weight="bold" lengthAdjust="spacing" textLength="55.2207" x="528" y="364.5332">Position</text></g><!--cluster CurrentLatitudeDevice--><g class="cluster" data-entity="CurrentLatitudeDevice" data-source-line="23" data-uid="ent0009" id="cluster_CurrentLatitudeDevice"><path d="M550.5,409.5 L701.6445,409.5 A3.75,3.75 0 0 1 704.1445,412 L711.1445,433.1094 L821.5,433.1094 A2.5,2.5 0 0 1 824,435.6094 L824,525 A2.5,2.5 0 0 1 821.5,527.5 L550.5,527.5 A2.5,2.5 0 0 1 548,525 L548,412 A2.5,2.5 0 0 1 550.5,409.5" fill="none" style="stroke:#000000;stroke-width:1.5;"/><line style="stroke:#000000;stroke-width:1.5;" x1="548" x2="711.1445" y1="433.1094" y2="433.1094"/><text fill="#000000" font-family="sans-serif" font-size="14" font-weight="bold" lengthAdjust="spacing" textLength="150.1445" x="552" y="426.0332">CurrentLatitudeDevice</text></g><!--cluster CurrentLatitudeService--><g class="cluster" data-entity="CurrentLatitudeService" data-source-line="28" data-uid="ent0011" id="cluster_CurrentLatitudeService"><path d="M850.5,392 L1006.3203,392 A3.75,3.75 0 0 1 1008.8203,394.5 L1015.8203,415.6094 L1749.5,415.6094 A2.5,2.5 0 0 1 1752,418.1094 L1752,542.5 A2.5,2.5 0 0 1 1749.5,545 L850.5,545 A2.5,2.5 0 0 1 848,542.5 L848,394.5 A2.5,2.5 0 0 1 850.5,392" fill="none" style="stroke:#000000;stroke-width:1.5;"/><line style="stroke:#000000;stroke-width:1.5;" x1="848" x2="1015.8203" y1="415.6094" y2="415.6094"/><text fill="#000000" font-family="sans-serif" font-size="14" font-weight="bold" lengthAdjust="spacing" textLength="154.8203" x="852" y="408.5332">CurrentLatitudeService</text></g><!--class CSdvObject--><g class="entity" data-entity="CSdvObject" data-source-line="14" data-uid="ent0003" id="entity_CSdvObject"><rect fill="#F1F1F1" height="118.4375" rx="2.5" ry="2.5" style="stroke:#181818;stroke-width:0.5;" width="412.7705" x="22.5" y="419.5"/><ellipse cx="187.2871" cy="435.5" fill="#ADD1B2" rx="11" ry="11" style="stroke:#181818;stroke-width:1;"/><path d="M190.0527,431.375 Q190.209,431.1563 190.3965,431.0469 Q190.584,430.9375 190.8027,430.9375 Q191.1777,430.9375 191.4121,431.1953 Q191.6465,431.4531 191.6465,432.0625 L191.6465,433.5156 Q191.6465,434.125 191.4121,434.3906 Q191.1777,434.6563 190.8027,434.6563 Q190.459,434.6563 190.2559,434.4531 Q190.0527,434.2656 189.9434,433.75 Q189.8965,433.3906 189.709,433.2031 Q189.3809,432.8281 188.7715,432.6094 Q188.1621,432.3906 187.5371,432.3906 Q186.7715,432.3906 186.1387,432.7188 Q185.5059,433.0469 185.0137,433.7969 Q184.5215,434.5469 184.5215,435.5781 L184.5215,436.6719 Q184.5215,437.9063 185.4121,438.7266 Q186.3027,439.5469 187.8965,439.5469 Q188.834,439.5469 189.4902,439.2969 Q189.8809,439.1406 190.3027,438.7031 Q190.5684,438.4375 190.7168,438.3594 Q190.8652,438.2813 191.0684,438.2813 Q191.3965,438.2813 191.6543,438.5391 Q191.9121,438.7969 191.9121,439.1406 Q191.9121,439.4844 191.5684,439.8906 Q191.0684,440.4688 190.2715,440.7969 Q189.1934,441.25 187.8965,441.25 Q186.3809,441.25 185.1777,440.625 Q184.1934,440.125 183.5059,439.0547 Q182.8184,437.9844 182.8184,436.7031 L182.8184,435.5469 Q182.8184,434.2188 183.4355,433.0703 Q184.0527,431.9219 185.1465,431.3047 Q186.2402,430.6875 187.4746,430.6875 Q188.209,430.6875 188.8574,430.8516 Q189.5059,431.0156 190.0527,431.375 Z " fill="#000000"/><text fill="#000000" font-family="sans-serif" font-size="14" lengthAdjust="spacing" textLength="74.6963" x="207.7871" y="441.2285">CSdvObject</text><line style="stroke:#181818;stroke-width:0.5;" x1="23.5" x2="434.2705" y1="451.5" y2="451.5"/><line style="stroke:#181818;stroke-width:0.5;" x1="23.5" x2="434.2705" y1="459.5" y2="459.5"/><ellipse cx="33.5" cy="473.8047" fill="#84BE84" rx="3" ry="3" style="stroke:#038048;stroke-width:1;"/><text fill="#000000" font-family="sans-serif" font-size="14" lengthAdjust="spacing" text-decoration="underline" textLength="336.9365" x="42.5" y="478.0332">sdv::sequence&lt;sdv::u8string&gt; GetClassAliasesStatic()</text><ellipse cx="33.5" cy="491.4141" fill="#84BE84" rx="3" ry="3" style="stroke:#038048;stroke-width:1;"/><text fill="#000000" font-family="sans-serif" font-size="14" lengthAdjust="spacing" text-decoration="underline" textLength="272.3301" x="42.5" y="495.6426">sdv::u8string GetDefaultObjectNameStatic()</text><ellipse cx="33.5" cy="509.0234" fill="#84BE84" rx="3" ry="3" style="stroke:#038048;stroke-width:1;"/><text fill="#000000" font-family="sans-serif" font-size="14" lengthAdjust="spacing" text-decoration="underline" textLength="143.9648" x="42.5" y="513.252">bool IsSingletonStatic()</text><ellipse cx="33.5" cy="526.6328" fill="#84BE84" rx="3" ry="3" style="stroke:#038048;stroke-width:1;"/><text fill="#000000" font-family="sans-serif" font-size="14" lengthAdjust="spacing" text-decoration="underline" textLength="386.7705" x="42.5" y="530.8613">sdv::sequence&lt;sdv::u8string&gt; GetObjectDependenciesStatic()</text></g><!--class IVSS_WriteCurrentLatitude_Event--><g class="entity" data-entity="IVSS_WriteCurrentLatitude_Event" data-source-line="23" data-uid="ent0005" id="entity_IVSS_WriteCurrentLatitude_Event"><rect fill="#F1F1F1" height="65.6094" rx="2.5" ry="2.5" style="stroke:#181818;stroke-width:0.5;" width="244.4404" x="564" y="445.5"/><ellipse cx="579" cy="461.5" fill="#B4A7E5" rx="11" ry="11" style="stroke:#181818;stroke-width:1;"/><path d="M579.9531,458.1406 L579.9531,464.7969 L581.6719,464.7969 Q582.2813,464.7969 582.5469,465.0313 Q582.8125,465.2656 582.8125,465.6563 Q582.8125,466.0313 582.5469,466.2656 Q582.2813,466.5 581.6719,466.5 L576.5313,466.5 Q575.9219,466.5 575.6563,466.2656 Q575.3906,466.0313 575.3906,465.6406 Q575.3906,465.2656 575.6563,465.0313 Q575.9219,464.7969 576.5313,464.7969 L578.25,464.7969 L578.25,458.1406 L576.5313,458.1406 Q575.9219,458.1406 575.6563,457.9063 Q575.3906,457.6719 575.3906,457.2813 Q575.3906,456.9063 575.6563,456.6719 Q575.9219,456.4375 576.5313,456.4375 L581.6719,456.4375 Q582.2813,456.4375 582.5469,456.6719 Q582.8125,456.9063 582.8125,457.2813 Q582.8125,457.6719 582.5469,457.9063 Q582.2813,458.1406 581.6719,458.1406 L579.9531,458.1406 Z " fill="#000000"/><text fill="#000000" font-family="sans-serif" font-size="14" font-style="italic" lengthAdjust="spacing" textLength="212.4404" x="593" y="467.2285">IVSS_WriteCurrentLatitude_Event</text><line style="stroke:#181818;stroke-width:0.5;" x1="565" x2="807.4404" y1="477.5" y2="477.5"/><line style="stroke:#181818;stroke-width:0.5;" x1="565" x2="807.4404" y1="485.5" y2="485.5"/><text fill="#000000" font-family="sans-serif" font-size="14" font-style="italic" lengthAdjust="spacing" textLength="231.8818" x="570" y="504.0332">void WriteCurrentLatitude(float value)</text></g><!--class IVSS_SetCurrentLatitude_Event--><g class="entity" data-entity="IVSS_SetCurrentLatitude_Event" data-source-line="28" data-uid="ent0010" id="entity_IVSS_SetCurrentLatitude_Event"><rect fill="#F1F1F1" height="65.6094" rx="2.5" ry="2.5" style="stroke:#181818;stroke-width:0.5;" width="232.792" x="864.5" y="445.5"/><ellipse cx="879.5" cy="461.5" fill="#B4A7E5" rx="11" ry="11" style="stroke:#181818;stroke-width:1;"/><path d="M880.4531,458.1406 L880.4531,464.7969 L882.1719,464.7969 Q882.7813,464.7969 883.0469,465.0313 Q883.3125,465.2656 883.3125,465.6563 Q883.3125,466.0313 883.0469,466.2656 Q882.7813,466.5 882.1719,466.5 L877.0313,466.5 Q876.4219,466.5 876.1563,466.2656 Q875.8906,466.0313 875.8906,465.6406 Q875.8906,465.2656 876.1563,465.0313 Q876.4219,464.7969 877.0313,464.7969 L878.75,464.7969 L878.75,458.1406 L877.0313,458.1406 Q876.4219,458.1406 876.1563,457.9063 Q875.8906,457.6719 875.8906,457.2813 Q875.8906,456.9063 876.1563,456.6719 Q876.4219,456.4375 877.0313,456.4375 L882.1719,456.4375 Q882.7813,456.4375 883.0469,456.6719 Q883.3125,456.9063 883.3125,457.2813 Q883.3125,457.6719 883.0469,457.9063 Q882.7813,458.1406 882.1719,458.1406 L880.4531,458.1406 Z " fill="#000000"/><text fill="#000000" font-family="sans-serif" font-size="14" font-style="italic" lengthAdjust="spacing" textLength="200.792" x="893.5" y="467.2285">IVSS_SetCurrentLatitude_Event</text><line style="stroke:#181818;stroke-width:0.5;" x1="865.5" x2="1096.292" y1="477.5" y2="477.5"/><line style="stroke:#181818;stroke-width:0.5;" x1="865.5" x2="1096.292" y1="485.5" y2="485.5"/><text fill="#000000" font-family="sans-serif" font-size="14" font-style="italic" lengthAdjust="spacing" textLength="220.2334" x="870.5" y="504.0332">void SetCurrentLatitude(float value)</text></g><!--class IVSS_GetCurrentLatitude--><g class="entity" data-entity="IVSS_GetCurrentLatitude" data-source-line="33" data-uid="ent0012" id="entity_IVSS_GetCurrentLatitude"><rect fill="#F1F1F1" height="100.8281" rx="2.5" ry="2.5" style="stroke:#181818;stroke-width:0.5;" width="602.6523" x="1132.5" y="428"/><ellipse cx="1350.1973" cy="444" fill="#B4A7E5" rx="11" ry="11" style="stroke:#181818;stroke-width:1;"/><path d="M1351.1504,440.6406 L1351.1504,447.2969 L1352.8691,447.2969 Q1353.4785,447.2969 1353.7441,447.5313 Q1354.0098,447.7656 1354.0098,448.1563 Q1354.0098,448.5313 1353.7441,448.7656 Q1353.4785,449 1352.8691,449 L1347.7285,449 Q1347.1191,449 1346.8535,448.7656 Q1346.5879,448.5313 1346.5879,448.1406 Q1346.5879,447.7656 1346.8535,447.5313 Q1347.1191,447.2969 1347.7285,447.2969 L1349.4473,447.2969 L1349.4473,440.6406 L1347.7285,440.6406 Q1347.1191,440.6406 1346.8535,440.4063 Q1346.5879,440.1719 1346.5879,439.7813 Q1346.5879,439.4063 1346.8535,439.1719 Q1347.1191,438.9375 1347.7285,438.9375 L1352.8691,438.9375 Q1353.4785,438.9375 1353.7441,439.1719 Q1354.0098,439.4063 1354.0098,439.7813 Q1354.0098,440.1719 1353.7441,440.4063 Q1353.4785,440.6406 1352.8691,440.6406 L1351.1504,440.6406 Z " fill="#000000"/><text fill="#000000" font-family="sans-serif" font-size="14" font-style="italic" lengthAdjust="spacing" textLength="158.7578" x="1370.6973" y="449.7285">IVSS_GetCurrentLatitude</text><line style="stroke:#181818;stroke-width:0.5;" x1="1133.5" x2="1734.1523" y1="460" y2="460"/><line style="stroke:#181818;stroke-width:0.5;" x1="1133.5" x2="1734.1523" y1="468" y2="468"/><text fill="#000000" font-family="sans-serif" font-size="14" font-style="italic" lengthAdjust="spacing" textLength="196.0957" x="1138.5" y="486.5332">float GetCurrentLatitude() const</text><text fill="#000000" font-family="sans-serif" font-size="14" font-style="italic" lengthAdjust="spacing" textLength="578.2041" x="1138.5" y="504.1426">void RegisterOnSignalChangeOfFCurrentLatitude(IVSS_SetCurrentLatitude_Event* callback)</text><text fill="#000000" font-family="sans-serif" font-size="14" font-style="italic" lengthAdjust="spacing" textLength="590.6523" x="1138.5" y="521.752">void UnregisterOnSignalChangeOfFCurrentLatitude(IVSS_SetCurrentLatitude_Event* callback)</text></g><!--class CBasicServiceCurrentLatitude--><g class="entity" data-entity="CBasicServiceCurrentLatitude" data-source-line="2" data-uid="ent0002" id="entity_CBasicServiceCurrentLatitude"><rect fill="#F1F1F1" height="188.875" rx="2.5" ry="2.5" style="stroke:#181818;stroke-width:0.5;" width="907.6787" x="332" y="7"/><ellipse cx="687.8242" cy="23" fill="#ADD1B2" rx="11" ry="11" style="stroke:#181818;stroke-width:1;"/><path d="M690.5898,18.875 Q690.7461,18.6563 690.9336,18.5469 Q691.1211,18.4375 691.3398,18.4375 Q691.7148,18.4375 691.9492,18.6953 Q692.1836,18.9531 692.1836,19.5625 L692.1836,21.0156 Q692.1836,21.625 691.9492,21.8906 Q691.7148,22.1563 691.3398,22.1563 Q690.9961,22.1563 690.793,21.9531 Q690.5898,21.7656 690.4805,21.25 Q690.4336,20.8906 690.2461,20.7031 Q689.918,20.3281 689.3086,20.1094 Q688.6992,19.8906 688.0742,19.8906 Q687.3086,19.8906 686.6758,20.2188 Q686.043,20.5469 685.5508,21.2969 Q685.0586,22.0469 685.0586,23.0781 L685.0586,24.1719 Q685.0586,25.4063 685.9492,26.2266 Q686.8398,27.0469 688.4336,27.0469 Q689.3711,27.0469 690.0273,26.7969 Q690.418,26.6406 690.8398,26.2031 Q691.1055,25.9375 691.2539,25.8594 Q691.4023,25.7813 691.6055,25.7813 Q691.9336,25.7813 692.1914,26.0391 Q692.4492,26.2969 692.4492,26.6406 Q692.4492,26.9844 692.1055,27.3906 Q691.6055,27.9688 690.8086,28.2969 Q689.7305,28.75 688.4336,28.75 Q686.918,28.75 685.7148,28.125 Q684.7305,27.625 684.043,26.5547 Q683.3555,25.4844 683.3555,24.2031 L683.3555,23.0469 Q683.3555,21.7188 683.9727,20.5703 Q684.5898,19.4219 685.6836,18.8047 Q686.7773,18.1875 688.0117,18.1875 Q688.7461,18.1875 689.3945,18.3516 Q690.043,18.5156 690.5898,18.875 Z " fill="#000000"/><text fill="#000000" font-family="sans-serif" font-size="14" lengthAdjust="spacing" textLength="187.5303" x="708.3242" y="28.7285">CBasicServiceCurrentLatitude</text><line style="stroke:#181818;stroke-width:0.5;" x1="333" x2="1238.6787" y1="39" y2="39"/><rect fill="none" height="6" style="stroke:#C82930;stroke-width:1;" width="6" x="340" y="50.3047"/><text fill="#000000" font-family="sans-serif" font-size="14" lengthAdjust="spacing" textLength="150.1924" x="352" y="57.5332">float m_fCurrentLatitude</text><rect fill="none" height="6" style="stroke:#C82930;stroke-width:1;" width="6" x="340" y="67.9141"/><text fill="#000000" font-family="sans-serif" font-size="14" lengthAdjust="spacing" textLength="340.8193" x="352" y="75.1426">mutable std::mutex m_fCurrentLatitudeMutexCallbacks</text><rect fill="none" height="6" style="stroke:#C82930;stroke-width:1;" width="6" x="340" y="85.5234"/><text fill="#000000" font-family="sans-serif" font-size="14" lengthAdjust="spacing" textLength="743.1689" x="352" y="92.752">std::set&lt;vss::Vehicle::Position::CurrentLatitudeService::IVSS_SetCurrentLatitude_Event*&gt; m_fCurrentLatitudeCallbacks</text><line style="stroke:#181818;stroke-width:0.5;" x1="333" x2="1238.6787" y1="99.8281" y2="99.8281"/><ellipse cx="343" cy="114.1328" fill="#84BE84" rx="3" ry="3" style="stroke:#038048;stroke-width:1;"/><text fill="#000000" font-family="sans-serif" font-size="14" lengthAdjust="spacing" textLength="220.2334" x="352" y="118.3613">void SetCurrentLatitude(float value)</text><ellipse cx="343" cy="131.7422" fill="#84BE84" rx="3" ry="3" style="stroke:#038048;stroke-width:1;"/><text fill="#000000" font-family="sans-serif" font-size="14" lengthAdjust="spacing" textLength="196.0957" x="352" y="135.9707">float GetCurrentLatitude() const</text><ellipse cx="343" cy="149.3516" fill="#84BE84" rx="3" ry="3" style="stroke:#038048;stroke-width:1;"/><text fill="#000000" font-family="sans-serif" font-size="14" lengthAdjust="spacing" textLength="231.8818" x="352" y="153.5801">void WriteCurrentLatitude(float value)</text><ellipse cx="343" cy="166.9609" fill="#84BE84" rx="3" ry="3" style="stroke:#038048;stroke-width:1;"/><text fill="#000000" font-family="sans-serif" font-size="14" lengthAdjust="spacing" textLength="869.2305" x="352" y="171.1895">void RegisterOnSignalChangeOfFCurrentLatitude(vss::Vehicle::Position::CurrentLatitudeService::IVSS_SetCurrentLatitude_Event* callback)</text><ellipse cx="343" cy="184.5703" fill="#84BE84" rx="3" ry="3" style="stroke:#038048;stroke-width:1;"/><text fill="#000000" font-family="sans-serif" font-size="14" lengthAdjust="spacing" textLength="881.6787" x="352" y="188.7988">void UnregisterOnSignalChangeOfFCurrentLatitude(vss::Vehicle::Position::CurrentLatitudeService::IVSS_SetCurrentLatitude_Event* callback)</text></g><!--link CBasicServiceCurrentLatitude to CSdvObject--><g class="link" data-entity-1="CBasicServiceCurrentLatitude" data-entity-2="CSdvObject" data-source-line="40" data-uid="lnk13" id="link_CBasicServiceCurrentLatitude_CSdvObject"><path codeLine="40" d="M634.12,196.18 C605.34,214.42 575.61,233.59 548,252 C465.33,307.12 387.3975,362.4547 323.3775,408.7347" fill="none" id="CBasicServiceCurrentLatitude-to-CSdvObject" style="stroke:#181818;stroke-width:1;"/><polygon fill="none" points="308.79,419.28,326.8926,413.5972,319.8624,403.8722,308.79,419.28" style="stroke:#181818;stroke-width:1;"/><text fill="#000000" font-family="sans-serif" font-size="13" lengthAdjust="spacing" textLength="42.6309" x="587" y="240.4951">Inherits</text></g><!--link CBasicServiceCurrentLatitude to IVSS_GetCurrentLatitude--><g class="link" data-entity-1="CBasicServiceCurrentLatitude" data-entity-2="IVSS_GetCurrentLatitude" data-source-line="41" data-uid="lnk14" id="link_CBasicServiceCurrentLatitude_IVSS_GetCurrentLatitude"><path codeLine="41" d="M1007.45,196.17 C1043.98,213.59 1080.99,232.49 1115,252 C1208.39,305.58 1294.3698,368.4331 1357.0498,416.8031" fill="none" id="CBasicServiceCurrentLatitude-to-IVSS_GetCurrentLatitude" style="stroke:#181818;stroke-width:1;stroke-dasharray:7,7;"/><polygon fill="none" points="1371.3,427.8,1360.7154,412.0531,1353.3842,421.5532,1371.3,427.8" style="stroke:#181818;stroke-width:1;"/><text fill="#000000" font-family="sans-serif" font-size="13" lengthAdjust="spacing" textLength="67.1899" x="1099" y="240.4951">Implements</text></g><!--link CBasicServiceCurrentLatitude to IVSS_SetCurrentLatitude_Event--><g class="link" data-entity-1="CBasicServiceCurrentLatitude" data-entity-2="IVSS_SetCurrentLatitude_Event" data-source-line="42" data-uid="lnk15" id="link_CBasicServiceCurrentLatitude_IVSS_SetCurrentLatitude_Event"><path codeLine="42" d="M834.7,196.16 C877.01,277.51 927.5143,374.6508 955.9643,429.3508" fill="none" id="CBasicServiceCurrentLatitude-to-IVSS_SetCurrentLatitude_Event" style="stroke:#181818;stroke-width:1;stroke-dasharray:7,7;"/><polygon fill="none" points="964.27,445.32,961.2873,426.5822,950.6412,432.1194,964.27,445.32" style="stroke:#181818;stroke-width:1;"/><text fill="#000000" font-family="sans-serif" font-size="13" lengthAdjust="spacing" textLength="67.1899" x="855" y="240.4951">Implements</text></g><!--link CBasicServiceCurrentLatitude to IVSS_WriteCurrentLatitude_Event--><g class="link" data-entity-1="CBasicServiceCurrentLatitude" data-entity-2="IVSS_WriteCurrentLatitude_Event" data-source-line="43" data-uid="lnk16" id="link_CBasicServiceCurrentLatitude_IVSS_WriteCurrentLatitude_Event"><path codeLine="43" d="M761.02,196.16 C739.33,277.51 713.8089,373.228 699.2189,427.928" fill="none" id="CBasicServiceCurrentLatitude-to-IVSS_WriteCurrentLatitude_Event" style="stroke:#181818;stroke-width:1;stroke-dasharray:7,7;"/><polygon fill="none" points="694.58,445.32,705.0162,429.4743,693.4216,426.3817,694.58,445.32" style="stroke:#181818;stroke-width:1;"/><text fill="#000000" font-family="sans-serif" font-size="13" lengthAdjust="spacing" textLength="67.1899" x="751" y="240.4951">Implements</text></g><!--SRC=[pLLDRzim3BtdL_3Oj4ZFXL04s9Aj2B0rmunrnq2MwKIRB6KYRGpeyjydsmdcsMxY5YbGtoZnyJtnoq38GBYLNhBp8CG8b954C7ilIQi8VQ4LpdBlqV8doPhp14VmE0A0gyBf12BarlL5QfnaAAJ9SLmvrWTtNSynA6U9_qNxxZNZoNYLwrTSQsBqInlfjPLcjf5sZSlqOnjU40dnW1kj30hnnP5cxQmGBR_zMuLOF4JHglkirOSYM9UWf36nL3yRKhvP_nR4JEf4PQkqKx33Dybobh5184w420R-xl7_N9xFzg6fWQvGeMLkp_kCQO-61lrkTEXAIeh04IN5Clw1YlUD-4WSG6e7LzKzuQyShSBRoiflYBsswsdLVsMKTqPBGeegqCMu9y81KqBccChSS4ruBpFinyNE6LXG5506sTaZqO_egrdck4MR11VTK5cdOM53awLI8Goim1mR1UYRhhe4XqpAEAYHYdSmT1nVf6fONpmXwkJ6EOEaxgxgYXcorThQ1o-jvynzc-GPwsWuJPdKOpy5c4p-JDi32Y8KOeEXY-W4-leweCzKgf8rsnhCmjdhyJwLjTTY7pZ9_zF_1G00]--></g></svg>