<svg xmlns="http://www.w3.org/2000/svg" xmlns:xlink="http://www.w3.org/1999/xlink" contentStyleType="text/css" data-diagram-type="CLASS" height="1007px" preserveAspectRatio="none" style="width:2294px;height:1007px;background:#FFFFFF;" version="1.1" viewBox="0 0 2294 1007" width="2294px" zoomAndPan="magnify"><defs/><g><!--cluster sdv--><g class="cluster" data-entity="sdv" data-source-line="30" data-uid="ent0004" id="cluster_sdv"><path d="M179,736 L204.124,736 A3.75,3.75 0 0 1 206.624,738.5 L213.624,759.6094 L981,759.6094 A2.5,2.5 0 0 1 983.5,762.1094 L983.5,903.5 A2.5,2.5 0 0 1 981,906 L179,906 A2.5,2.5 0 0 1 176.5,903.5 L176.5,738.5 A2.5,2.5 0 0 1 179,736" fill="none" style="stroke:#000000;stroke-width:1.5;"/><line style="stroke:#000000;stroke-width:1.5;" x1="176.5" x2="213.624" y1="759.6094" y2="759.6094"/><text fill="#000000" font-family="sans-serif" font-size="14" font-weight="bold" lengthAdjust="spacing" textLength="24.124" x="180.5" y="752.5332">sdv</text></g><!--cluster vss--><g class="cluster" data-entity="vss" data-source-line="51" data-uid="ent0008" id="cluster_vss"><path d="M1010,542 L1034.3584,542 A3.75,3.75 0 0 1 1036.8584,544.5 L1043.8584,565.6094 L2285,565.6094 A2.5,2.5 0 0 1 2287.5,568.1094 L2287.5,997.5 A2.5,2.5 0 0 1 2285,1000 L1010,1000 A2.5,2.5 0 0 1 1007.5,997.5 L1007.5,544.5 A2.5,2.5 0 0 1 1010,542" fill="none" style="stroke:#000000;stroke-width:1.5;"/><line style="stroke:#000000;stroke-width:1.5;" x1="1007.5" x2="1043.8584" y1="565.6094" y2="565.6094"/><text fill="#000000" font-family="sans-serif" font-size="14" font-weight="bold" lengthAdjust="spacing" textLength="23.3584" x="1011.5" y="558.5332">vss</text></g><!--cluster Vehicle--><g class="cluster" data-entity="Vehicle" data-source-line="51" data-uid="ent0009" id="cluster_Vehicle"><path d="M1034,586 L1084.0273,586 A3.75,3.75 0 0 1 1086.5273,588.5 L1093.5273,609.6094 L2261,609.6094 A2.5,2.5 0 0 1 2263.5,612.1094 L2263.5,973.5 A2.5,2.5 0 0 1 2261,976 L1034,976 A2.5,2.5 0 0 1 1031.5,973.5 L1031.5,588.5 A2.5,2.5 0 0 1 1034,586" fill="none" style="stroke:#000000;stroke-width:1.5;"/><line style="stroke:#000000;stroke-width:1.5;" x1="1031.5" x2="1093.5273" y1="609.6094" y2="609.6094"/><text fill="#000000" font-family="sans-serif" font-size="14" font-weight="bold" lengthAdjust="spacing" textLength="49.0273" x="1035.5" y="602.5332">Vehicle</text></g><!--cluster Chassis--><g class="cluster" data-entity="Chassis" data-source-line="51" data-uid="ent0010" id="cluster_Chassis"><path d="M1058,630 L1112.6963,630 A3.75,3.75 0 0 1 1115.1963,632.5 L1122.1963,653.6094 L2237,653.6094 A2.5,2.5 0 0 1 2239.5,656.1094 L2239.5,949.5 A2.5,2.5 0 0 1 2237,952 L1058,952 A2.5,2.5 0 0 1 1055.5,949.5 L1055.5,632.5 A2.5,2.5 0 0 1 1058,630" fill="none" style="stroke:#000000;stroke-width:1.5;"/><line style="stroke:#000000;stroke-width:1.5;" x1="1055.5" x2="1122.1963" y1="653.6094" y2="653.6094"/><text fill="#000000" font-family="sans-serif" font-size="14" font-weight="bold" lengthAdjust="spacing" textLength="53.6963" x="1059.5" y="646.5332">Chassis</text></g><!--cluster Door--><g class="cluster" data-entity="Door" data-source-line="51" data-uid="ent0011" id="cluster_Door"><path d="M1082,674 L1115.6621,674 A3.75,3.75 0 0 1 1118.1621,676.5 L1125.1621,697.6094 L2213,697.6094 A2.5,2.5 0 0 1 2215.5,700.1094 L2215.5,925.5 A2.5,2.5 0 0 1 2213,928 L1082,928 A2.5,2.5 0 0 1 1079.5,925.5 L1079.5,676.5 A2.5,2.5 0 0 1 1082,674" fill="none" style="stroke:#000000;stroke-width:1.5;"/><line style="stroke:#000000;stroke-width:1.5;" x1="1079.5" x2="1125.1621" y1="697.6094" y2="697.6094"/><text fill="#000000" font-family="sans-serif" font-size="14" font-weight="bold" lengthAdjust="spacing" textLength="32.6621" x="1083.5" y="690.5332">Door</text></g><!--cluster Axle01--><g class="cluster" data-entity="Axle01" data-source-line="51" data-uid="ent0012" id="cluster_Axle01"><path d="M1106,718 L1152.1445,718 A3.75,3.75 0 0 1 1154.6445,720.5 L1161.6445,741.6094 L1633,741.6094 A2.5,2.5 0 0 1 1635.5,744.1094 L1635.5,901.5 A2.5,2.5 0 0 1 1633,904 L1106,904 A2.5,2.5 0 0 1 1103.5,901.5 L1103.5,720.5 A2.5,2.5 0 0 1 1106,718" fill="none" style="stroke:#000000;stroke-width:1.5;"/><line style="stroke:#000000;stroke-width:1.5;" x1="1103.5" x2="1161.6445" y1="741.6094" y2="741.6094"/><text fill="#000000" font-family="sans-serif" font-size="14" font-weight="bold" lengthAdjust="spacing" textLength="45.1445" x="1107.5" y="734.5332">Axle01</text></g><!--cluster LeftService--><g class="cluster" data-entity="LeftService" data-source-line="51" data-uid="ent0013" id="cluster_LeftService"><path d="M1130,762 L1206.4824,762 A3.75,3.75 0 0 1 1208.9824,764.5 L1215.9824,785.6094 L1353,785.6094 A2.5,2.5 0 0 1 1355.5,788.1094 L1355.5,877.5 A2.5,2.5 0 0 1 1353,880 L1130,880 A2.5,2.5 0 0 1 1127.5,877.5 L1127.5,764.5 A2.5,2.5 0 0 1 1130,762" fill="none" style="stroke:#000000;stroke-width:1.5;"/><line style="stroke:#000000;stroke-width:1.5;" x1="1127.5" x2="1215.9824" y1="785.6094" y2="785.6094"/><text fill="#000000" font-family="sans-serif" font-size="14" font-weight="bold" lengthAdjust="spacing" textLength="75.4824" x="1131.5" y="778.5332">LeftService</text></g><!--cluster RightService--><g class="cluster" data-entity="RightService" data-source-line="61" data-uid="ent0018" id="cluster_RightService"><path d="M1382,762 L1468.5859,762 A3.75,3.75 0 0 1 1471.0859,764.5 L1478.0859,785.6094 L1609,785.6094 A2.5,2.5 0 0 1 1611.5,788.1094 L1611.5,877.5 A2.5,2.5 0 0 1 1609,880 L1382,880 A2.5,2.5 0 0 1 1379.5,877.5 L1379.5,764.5 A2.5,2.5 0 0 1 1382,762" fill="none" style="stroke:#000000;stroke-width:1.5;"/><line style="stroke:#000000;stroke-width:1.5;" x1="1379.5" x2="1478.0859" y1="785.6094" y2="785.6094"/><text fill="#000000" font-family="sans-serif" font-size="14" font-weight="bold" lengthAdjust="spacing" textLength="85.5859" x="1383.5" y="778.5332">RightService</text></g><!--cluster Axle02--><g class="cluster" data-entity="Axle02" data-source-line="56" data-uid="ent0015" id="cluster_Axle02"><path d="M1662,718 L1708.1445,718 A3.75,3.75 0 0 1 1710.6445,720.5 L1717.6445,741.6094 L2189,741.6094 A2.5,2.5 0 0 1 2191.5,744.1094 L2191.5,901.5 A2.5,2.5 0 0 1 2189,904 L1662,904 A2.5,2.5 0 0 1 1659.5,901.5 L1659.5,720.5 A2.5,2.5 0 0 1 1662,718" fill="none" style="stroke:#000000;stroke-width:1.5;"/><line style="stroke:#000000;stroke-width:1.5;" x1="1659.5" x2="1717.6445" y1="741.6094" y2="741.6094"/><text fill="#000000" font-family="sans-serif" font-size="14" font-weight="bold" lengthAdjust="spacing" textLength="45.1445" x="1663.5" y="734.5332">Axle02</text></g><!--cluster LeftService--><g class="cluster" data-entity="LeftService" data-source-line="56" data-uid="ent0016" id="cluster_LeftService"><path d="M1686,762 L1762.4824,762 A3.75,3.75 0 0 1 1764.9824,764.5 L1771.9824,785.6094 L1909,785.6094 A2.5,2.5 0 0 1 1911.5,788.1094 L1911.5,877.5 A2.5,2.5 0 0 1 1909,880 L1686,880 A2.5,2.5 0 0 1 1683.5,877.5 L1683.5,764.5 A2.5,2.5 0 0 1 1686,762" fill="none" style="stroke:#000000;stroke-width:1.5;"/><line style="stroke:#000000;stroke-width:1.5;" x1="1683.5" x2="1771.9824" y1="785.6094" y2="785.6094"/><text fill="#000000" font-family="sans-serif" font-size="14" font-weight="bold" lengthAdjust="spacing" textLength="75.4824" x="1687.5" y="778.5332">LeftService</text></g><!--cluster RightService--><g class="cluster" data-entity="RightService" data-source-line="66" data-uid="ent0020" id="cluster_RightService"><path d="M1938,762 L2024.5859,762 A3.75,3.75 0 0 1 2027.0859,764.5 L2034.0859,785.6094 L2165,785.6094 A2.5,2.5 0 0 1 2167.5,788.1094 L2167.5,877.5 A2.5,2.5 0 0 1 2165,880 L1938,880 A2.5,2.5 0 0 1 1935.5,877.5 L1935.5,764.5 A2.5,2.5 0 0 1 1938,762" fill="none" style="stroke:#000000;stroke-width:1.5;"/><line style="stroke:#000000;stroke-width:1.5;" x1="1935.5" x2="2034.0859" y1="785.6094" y2="785.6094"/><text fill="#000000" font-family="sans-serif" font-size="14" font-weight="bold" lengthAdjust="spacing" textLength="85.5859" x="1939.5" y="778.5332">RightService</text></g><!--class CSdvObject--><g class="entity" data-entity="CSdvObject" data-source-line="30" data-uid="ent0003" id="entity_CSdvObject"><rect fill="#F1F1F1" height="118.4375" rx="2.5" ry="2.5" style="stroke:#181818;stroke-width:0.5;" width="412.7705" x="193" y="772"/><ellipse cx="357.7871" cy="788" fill="#ADD1B2" rx="11" ry="11" style="stroke:#181818;stroke-width:1;"/><path d="M360.5527,783.875 Q360.709,783.6563 360.8965,783.5469 Q361.084,783.4375 361.3027,783.4375 Q361.6777,783.4375 361.9121,783.6953 Q362.1465,783.9531 362.1465,784.5625 L362.1465,786.0156 Q362.1465,786.625 361.9121,786.8906 Q361.6777,787.1563 361.3027,787.1563 Q360.959,787.1563 360.7559,786.9531 Q360.5527,786.7656 360.4434,786.25 Q360.3965,785.8906 360.209,785.7031 Q359.8809,785.3281 359.2715,785.1094 Q358.6621,784.8906 358.0371,784.8906 Q357.2715,784.8906 356.6387,785.2188 Q356.0059,785.5469 355.5137,786.2969 Q355.0215,787.0469 355.0215,788.0781 L355.0215,789.1719 Q355.0215,790.4063 355.9121,791.2266 Q356.8027,792.0469 358.3965,792.0469 Q359.334,792.0469 359.9902,791.7969 Q360.3809,791.6406 360.8027,791.2031 Q361.0684,790.9375 361.2168,790.8594 Q361.3652,790.7813 361.5684,790.7813 Q361.8965,790.7813 362.1543,791.0391 Q362.4121,791.2969 362.4121,791.6406 Q362.4121,791.9844 362.0684,792.3906 Q361.5684,792.9688 360.7715,793.2969 Q359.6934,793.75 358.3965,793.75 Q356.8809,793.75 355.6777,793.125 Q354.6934,792.625 354.0059,791.5547 Q353.3184,790.4844 353.3184,789.2031 L353.3184,788.0469 Q353.3184,786.7188 353.9355,785.5703 Q354.5527,784.4219 355.6465,783.8047 Q356.7402,783.1875 357.9746,783.1875 Q358.709,783.1875 359.3574,783.3516 Q360.0059,783.5156 360.5527,783.875 Z " fill="#000000"/><text fill="#000000" font-family="sans-serif" font-size="14" lengthAdjust="spacing" textLength="74.6963" x="378.2871" y="793.7285">CSdvObject</text><line style="stroke:#181818;stroke-width:0.5;" x1="194" x2="604.7705" y1="804" y2="804"/><line style="stroke:#181818;stroke-width:0.5;" x1="194" x2="604.7705" y1="812" y2="812"/><ellipse cx="204" cy="826.3047" fill="#84BE84" rx="3" ry="3" style="stroke:#038048;stroke-width:1;"/><text fill="#000000" font-family="sans-serif" font-size="14" lengthAdjust="spacing" text-decoration="underline" textLength="336.9365" x="213" y="830.5332">sdv::sequence&lt;sdv::u8string&gt; GetClassAliasesStatic()</text><ellipse cx="204" cy="843.9141" fill="#84BE84" rx="3" ry="3" style="stroke:#038048;stroke-width:1;"/><text fill="#000000" font-family="sans-serif" font-size="14" lengthAdjust="spacing" text-decoration="underline" textLength="272.3301" x="213" y="848.1426">sdv::u8string GetDefaultObjectNameStatic()</text><ellipse cx="204" cy="861.5234" fill="#84BE84" rx="3" ry="3" style="stroke:#038048;stroke-width:1;"/><text fill="#000000" font-family="sans-serif" font-size="14" lengthAdjust="spacing" text-decoration="underline" textLength="143.9648" x="213" y="865.752">bool IsSingletonStatic()</text><ellipse cx="204" cy="879.1328" fill="#84BE84" rx="3" ry="3" style="stroke:#038048;stroke-width:1;"/><text fill="#000000" font-family="sans-serif" font-size="14" lengthAdjust="spacing" text-decoration="underline" textLength="386.7705" x="213" y="883.3613">sdv::sequence&lt;sdv::u8string&gt; GetObjectDependenciesStatic()</text></g><!--class IObjectControl--><g class="entity" data-entity="IObjectControl" data-source-line="38" data-uid="ent0005" id="entity_IObjectControl"><rect fill="#F1F1F1" height="118.4375" rx="2.5" ry="2.5" style="stroke:#181818;stroke-width:0.5;" width="326.3574" x="641.5" y="772"/><ellipse cx="755.6875" cy="788" fill="#B4A7E5" rx="11" ry="11" style="stroke:#181818;stroke-width:1;"/><path d="M756.6406,784.6406 L756.6406,791.2969 L758.3594,791.2969 Q758.9688,791.2969 759.2344,791.5313 Q759.5,791.7656 759.5,792.1563 Q759.5,792.5313 759.2344,792.7656 Q758.9688,793 758.3594,793 L753.2188,793 Q752.6094,793 752.3438,792.7656 Q752.0781,792.5313 752.0781,792.1406 Q752.0781,791.7656 752.3438,791.5313 Q752.6094,791.2969 753.2188,791.2969 L754.9375,791.2969 L754.9375,784.6406 L753.2188,784.6406 Q752.6094,784.6406 752.3438,784.4063 Q752.0781,784.1719 752.0781,783.7813 Q752.0781,783.4063 752.3438,783.1719 Q752.6094,782.9375 753.2188,782.9375 L758.3594,782.9375 Q758.9688,782.9375 759.2344,783.1719 Q759.5,783.4063 759.5,783.7813 Q759.5,784.1719 759.2344,784.4063 Q758.9688,784.6406 758.3594,784.6406 L756.6406,784.6406 Z " fill="#000000"/><text fill="#000000" font-family="sans-serif" font-size="14" font-style="italic" lengthAdjust="spacing" textLength="89.4824" x="776.1875" y="793.7285">IObjectControl</text><line style="stroke:#181818;stroke-width:0.5;" x1="642.5" x2="966.8574" y1="804" y2="804"/><line style="stroke:#181818;stroke-width:0.5;" x1="642.5" x2="966.8574" y1="812" y2="812"/><text fill="#000000" font-family="sans-serif" font-size="14" font-style="italic" lengthAdjust="spacing" textLength="314.3574" x="647.5" y="830.5332">void Initialize(const sdv::u8string&amp; ssObjectConfig)</text><text fill="#000000" font-family="sans-serif" font-size="14" font-style="italic" lengthAdjust="spacing" textLength="202.3096" x="647.5" y="848.1426">EObjectStatus GetStatus() const</text><text fill="#000000" font-family="sans-serif" font-size="14" font-style="italic" lengthAdjust="spacing" textLength="308.9502" x="647.5" y="865.752">void SetOperationMode(EOperationMode eMode)</text><text fill="#000000" font-family="sans-serif" font-size="14" font-style="italic" lengthAdjust="spacing" textLength="101.165" x="647.5" y="883.3613">void Shutdown()</text></g><!--class IVSS_SetIsOpen_Event--><g class="entity" data-entity="IVSS_SetIsOpen_Event" data-source-line="51" data-uid="ent0007" id="entity_IVSS_SetIsOpen_Event"><rect fill="#F1F1F1" height="65.6094" rx="2.5" ry="2.5" style="stroke:#181818;stroke-width:0.5;" width="196.4473" x="1143.5" y="798"/><ellipse cx="1165.2592" cy="814" fill="#B4A7E5" rx="11" ry="11" style="stroke:#181818;stroke-width:1;"/><path d="M1166.2124,810.6406 L1166.2124,817.2969 L1167.9311,817.2969 Q1168.5405,817.2969 1168.8061,817.5313 Q1169.0717,817.7656 1169.0717,818.1563 Q1169.0717,818.5313 1168.8061,818.7656 Q1168.5405,819 1167.9311,819 L1162.7905,819 Q1162.1811,819 1161.9155,818.7656 Q1161.6499,818.5313 1161.6499,818.1406 Q1161.6499,817.7656 1161.9155,817.5313 Q1162.1811,817.2969 1162.7905,817.2969 L1164.5092,817.2969 L1164.5092,810.6406 L1162.7905,810.6406 Q1162.1811,810.6406 1161.9155,810.4063 Q1161.6499,810.1719 1161.6499,809.7813 Q1161.6499,809.4063 1161.9155,809.1719 Q1162.1811,808.9375 1162.7905,808.9375 L1167.9311,808.9375 Q1168.5405,808.9375 1168.8061,809.1719 Q1169.0717,809.4063 1169.0717,809.7813 Q1169.0717,810.1719 1168.8061,810.4063 Q1168.5405,810.6406 1167.9311,810.6406 L1166.2124,810.6406 Z " fill="#000000"/><text fill="#000000" font-family="sans-serif" font-size="14" font-style="italic" lengthAdjust="spacing" textLength="149.4268" x="1180.7613" y="819.7285">IVSS_SetIsOpen_Event</text><line style="stroke:#181818;stroke-width:0.5;" x1="1144.5" x2="1338.9473" y1="830" y2="830"/><line style="stroke:#181818;stroke-width:0.5;" x1="1144.5" x2="1338.9473" y1="838" y2="838"/><text fill="#000000" font-family="sans-serif" font-size="14" font-style="italic" lengthAdjust="spacing" textLength="184.4473" x="1149.5" y="856.5332">void SetIsOpenL1(bool value)</text></g><!--class IVSS_SetIsOpen_Event--><g class="entity" data-entity="IVSS_SetIsOpen_Event" data-source-line="61" data-uid="ent0017" id="entity_IVSS_SetIsOpen_Event"><rect fill="#F1F1F1" height="65.6094" rx="2.5" ry="2.5" style="stroke:#181818;stroke-width:0.5;" width="198.7715" x="1396" y="798"/><ellipse cx="1418.8051" cy="814" fill="#B4A7E5" rx="11" ry="11" style="stroke:#181818;stroke-width:1;"/><path d="M1419.7583,810.6406 L1419.7583,817.2969 L1421.477,817.2969 Q1422.0864,817.2969 1422.352,817.5313 Q1422.6176,817.7656 1422.6176,818.1563 Q1422.6176,818.5313 1422.352,818.7656 Q1422.0864,819 1421.477,819 L1416.3364,819 Q1415.727,819 1415.4614,818.7656 Q1415.1958,818.5313 1415.1958,818.1406 Q1415.1958,817.7656 1415.4614,817.5313 Q1415.727,817.2969 1416.3364,817.2969 L1418.0551,817.2969 L1418.0551,810.6406 L1416.3364,810.6406 Q1415.727,810.6406 1415.4614,810.4063 Q1415.1958,810.1719 1415.1958,809.7813 Q1415.1958,809.4063 1415.4614,809.1719 Q1415.727,808.9375 1416.3364,808.9375 L1421.477,808.9375 Q1422.0864,808.9375 1422.352,809.1719 Q1422.6176,809.4063 1422.6176,809.7813 Q1422.6176,810.1719 1422.352,810.4063 Q1422.0864,810.6406 1421.477,810.6406 L1419.7583,810.6406 Z " fill="#000000"/><text fill="#000000" font-family="sans-serif" font-size="14" font-style="italic" lengthAdjust="spacing" textLength="149.4268" x="1434.5396" y="819.7285">IVSS_SetIsOpen_Event</text><line style="stroke:#181818;stroke-width:0.5;" x1="1397" x2="1593.7715" y1="830" y2="830"/><line style="stroke:#181818;stroke-width:0.5;" x1="1397" x2="1593.7715" y1="838" y2="838"/><text fill="#000000" font-family="sans-serif" font-size="14" font-style="italic" lengthAdjust="spacing" textLength="186.7715" x="1402" y="856.5332">void SetIsOpenR1(bool value)</text></g><!--class IVSS_SetIsOpen_Event--><g class="entity" data-entity="IVSS_SetIsOpen_Event" data-source-line="56" data-uid="ent0014" id="entity_IVSS_SetIsOpen_Event"><rect fill="#F1F1F1" height="65.6094" rx="2.5" ry="2.5" style="stroke:#181818;stroke-width:0.5;" width="196.4473" x="1699.5" y="798"/><ellipse cx="1721.2592" cy="814" fill="#B4A7E5" rx="11" ry="11" style="stroke:#181818;stroke-width:1;"/><path d="M1722.2124,810.6406 L1722.2124,817.2969 L1723.9311,817.2969 Q1724.5405,817.2969 1724.8061,817.5313 Q1725.0717,817.7656 1725.0717,818.1563 Q1725.0717,818.5313 1724.8061,818.7656 Q1724.5405,819 1723.9311,819 L1718.7905,819 Q1718.1811,819 1717.9155,818.7656 Q1717.6499,818.5313 1717.6499,818.1406 Q1717.6499,817.7656 1717.9155,817.5313 Q1718.1811,817.2969 1718.7905,817.2969 L1720.5092,817.2969 L1720.5092,810.6406 L1718.7905,810.6406 Q1718.1811,810.6406 1717.9155,810.4063 Q1717.6499,810.1719 1717.6499,809.7813 Q1717.6499,809.4063 1717.9155,809.1719 Q1718.1811,808.9375 1718.7905,808.9375 L1723.9311,808.9375 Q1724.5405,808.9375 1724.8061,809.1719 Q1725.0717,809.4063 1725.0717,809.7813 Q1725.0717,810.1719 1724.8061,810.4063 Q1724.5405,810.6406 1723.9311,810.6406 L1722.2124,810.6406 Z " fill="#000000"/><text fill="#000000" font-family="sans-serif" font-size="14" font-style="italic" lengthAdjust="spacing" textLength="149.4268" x="1736.7613" y="819.7285">IVSS_SetIsOpen_Event</text><line style="stroke:#181818;stroke-width:0.5;" x1="1700.5" x2="1894.9473" y1="830" y2="830"/><line style="stroke:#181818;stroke-width:0.5;" x1="1700.5" x2="1894.9473" y1="838" y2="838"/><text fill="#000000" font-family="sans-serif" font-size="14" font-style="italic" lengthAdjust="spacing" textLength="184.4473" x="1705.5" y="856.5332">void SetIsOpenL2(bool value)</text></g><!--class IVSS_SetIsOpen_Event--><g class="entity" data-entity="IVSS_SetIsOpen_Event" data-source-line="66" data-uid="ent0019" id="entity_IVSS_SetIsOpen_Event"><rect fill="#F1F1F1" height="65.6094" rx="2.5" ry="2.5" style="stroke:#181818;stroke-width:0.5;" width="198.7715" x="1952" y="798"/><ellipse cx="1974.8051" cy="814" fill="#B4A7E5" rx="11" ry="11" style="stroke:#181818;stroke-width:1;"/><path d="M1975.7583,810.6406 L1975.7583,817.2969 L1977.477,817.2969 Q1978.0864,817.2969 1978.352,817.5313 Q1978.6176,817.7656 1978.6176,818.1563 Q1978.6176,818.5313 1978.352,818.7656 Q1978.0864,819 1977.477,819 L1972.3364,819 Q1971.727,819 1971.4614,818.7656 Q1971.1958,818.5313 1971.1958,818.1406 Q1971.1958,817.7656 1971.4614,817.5313 Q1971.727,817.2969 1972.3364,817.2969 L1974.0551,817.2969 L1974.0551,810.6406 L1972.3364,810.6406 Q1971.727,810.6406 1971.4614,810.4063 Q1971.1958,810.1719 1971.1958,809.7813 Q1971.1958,809.4063 1971.4614,809.1719 Q1971.727,808.9375 1972.3364,808.9375 L1977.477,808.9375 Q1978.0864,808.9375 1978.352,809.1719 Q1978.6176,809.4063 1978.6176,809.7813 Q1978.6176,810.1719 1978.352,810.4063 Q1978.0864,810.6406 1977.477,810.6406 L1975.7583,810.6406 Z " fill="#000000"/><text fill="#000000" font-family="sans-serif" font-size="14" font-style="italic" lengthAdjust="spacing" textLength="149.4268" x="1990.5396" y="819.7285">IVSS_SetIsOpen_Event</text><line style="stroke:#181818;stroke-width:0.5;" x1="1953" x2="2149.7715" y1="830" y2="830"/><line style="stroke:#181818;stroke-width:0.5;" x1="1953" x2="2149.7715" y1="838" y2="838"/><text fill="#000000" font-family="sans-serif" font-size="14" font-style="italic" lengthAdjust="spacing" textLength="186.7715" x="1958" y="856.5332">void SetIsOpenR2(bool value)</text></g><!--class CDoorsExampleService--><g class="entity" data-entity="CDoorsExampleService" data-source-line="2" data-uid="ent0002" id="entity_CDoorsExampleService"><rect fill="#F1F1F1" height="470.625" rx="2.5" ry="2.5" style="stroke:#181818;stroke-width:0.5;" width="587.791" x="947.5" y="7"/><ellipse cx="1162.8423" cy="23" fill="#ADD1B2" rx="11" ry="11" style="stroke:#181818;stroke-width:1;"/><path d="M1165.6079,18.875 Q1165.7642,18.6563 1165.9517,18.5469 Q1166.1392,18.4375 1166.3579,18.4375 Q1166.7329,18.4375 1166.9673,18.6953 Q1167.2017,18.9531 1167.2017,19.5625 L1167.2017,21.0156 Q1167.2017,21.625 1166.9673,21.8906 Q1166.7329,22.1563 1166.3579,22.1563 Q1166.0142,22.1563 1165.811,21.9531 Q1165.6079,21.7656 1165.4985,21.25 Q1165.4517,20.8906 1165.2642,20.7031 Q1164.936,20.3281 1164.3267,20.1094 Q1163.7173,19.8906 1163.0923,19.8906 Q1162.3267,19.8906 1161.6938,20.2188 Q1161.061,20.5469 1160.5688,21.2969 Q1160.0767,22.0469 1160.0767,23.0781 L1160.0767,24.1719 Q1160.0767,25.4063 1160.9673,26.2266 Q1161.8579,27.0469 1163.4517,27.0469 Q1164.3892,27.0469 1165.0454,26.7969 Q1165.436,26.6406 1165.8579,26.2031 Q1166.1235,25.9375 1166.272,25.8594 Q1166.4204,25.7813 1166.6235,25.7813 Q1166.9517,25.7813 1167.2095,26.0391 Q1167.4673,26.2969 1167.4673,26.6406 Q1167.4673,26.9844 1167.1235,27.3906 Q1166.6235,27.9688 1165.8267,28.2969 Q1164.7485,28.75 1163.4517,28.75 Q1161.936,28.75 1160.7329,28.125 Q1159.7485,27.625 1159.061,26.5547 Q1158.3735,25.4844 1158.3735,24.2031 L1158.3735,23.0469 Q1158.3735,21.7188 1158.9907,20.5703 Q1159.6079,19.4219 1160.7017,18.8047 Q1161.7954,18.1875 1163.0298,18.1875 Q1163.7642,18.1875 1164.4126,18.3516 Q1165.061,18.5156 1165.6079,18.875 Z " fill="#000000"/><text fill="#000000" font-family="sans-serif" font-size="14" lengthAdjust="spacing" textLength="148.6064" x="1183.3423" y="28.7285">CDoorsExampleService</text><line style="stroke:#181818;stroke-width:0.5;" x1="948.5" x2="1534.291" y1="39" y2="39"/><rect fill="none" height="6" style="stroke:#C82930;stroke-width:1;" width="6" x="955.5" y="50.3047"/><text fill="#000000" font-family="sans-serif" font-size="14" lengthAdjust="spacing" textLength="466.5322" x="967.5" y="57.5332">sdv::EObjectStatus  m_eStatus = sdv::EObjectStatus::initialization_pending</text><rect fill="none" height="6" style="stroke:#C82930;stroke-width:1;" width="6" x="955.5" y="67.9141"/><text fill="#000000" font-family="sans-serif" font-size="14" lengthAdjust="spacing" textLength="192.9922" x="967.5" y="75.1426">bool  m_bFrontLeftDoorIsOpen</text><rect fill="none" height="6" style="stroke:#C82930;stroke-width:1;" width="6" x="955.5" y="85.5234"/><text fill="#000000" font-family="sans-serif" font-size="14" lengthAdjust="spacing" textLength="202.3232" x="967.5" y="92.752">bool  m_bFrontRightDoorIsOpen</text><rect fill="none" height="6" style="stroke:#C82930;stroke-width:1;" width="6" x="955.5" y="103.1328"/><text fill="#000000" font-family="sans-serif" font-size="14" lengthAdjust="spacing" textLength="190.6611" x="967.5" y="110.3613">bool  m_bRearLeftDoorIsOpen</text><rect fill="none" height="6" style="stroke:#C82930;stroke-width:1;" width="6" x="955.5" y="120.7422"/><text fill="#000000" font-family="sans-serif" font-size="14" lengthAdjust="spacing" textLength="199.9922" x="967.5" y="127.9707">bool  m_bRearRightDoorIsOpen</text><rect fill="none" height="6" style="stroke:#C82930;stroke-width:1;" width="6" x="955.5" y="138.3516"/><text fill="#000000" font-family="sans-serif" font-size="14" lengthAdjust="spacing" textLength="177.4268" x="967.5" y="145.5801">bool m_bAllDoorsAreLocked</text><rect fill="none" height="6" style="stroke:#C82930;stroke-width:1;" width="6" x="955.5" y="155.9609"/><text fill="#000000" font-family="sans-serif" font-size="14" lengthAdjust="spacing" textLength="543.1289" x="967.5" y="163.1895">vss::Vehicle::Chassis::Door::Axle01::LeftService::IVSS_SetLock* m_pFrontLeftDoorSvc</text><rect fill="none" height="6" style="stroke:#C82930;stroke-width:1;" width="6" x="955.5" y="173.5703"/><text fill="#000000" font-family="sans-serif" font-size="14" lengthAdjust="spacing" textLength="561.791" x="967.5" y="180.7988">vss::Vehicle::Chassis::Door::Axle01::RightService::IVSS_SetLock* m_pFrontRightDoorSvc</text><rect fill="none" height="6" style="stroke:#C82930;stroke-width:1;" width="6" x="955.5" y="191.1797"/><text fill="#000000" font-family="sans-serif" font-size="14" lengthAdjust="spacing" textLength="540.7979" x="967.5" y="198.4082">vss::Vehicle::Chassis::Door::Axle02::LeftService::IVSS_SetLock* m_pRearLeftDoorSvc</text><rect fill="none" height="6" style="stroke:#C82930;stroke-width:1;" width="6" x="955.5" y="208.7891"/><text fill="#000000" font-family="sans-serif" font-size="14" lengthAdjust="spacing" textLength="559.46" x="967.5" y="216.0176">vss::Vehicle::Chassis::Door::Axle02::RightService::IVSS_SetLock* m_pRearRightDoorSvc</text><rect fill="none" height="6" style="stroke:#C82930;stroke-width:1;" width="6" x="955.5" y="226.3984"/><text fill="#000000" font-family="sans-serif" font-size="14" lengthAdjust="spacing" textLength="213.9922" x="967.5" y="233.627">LockDoorsThread m_doorsThread</text><rect fill="none" height="6" style="stroke:#C82930;stroke-width:1;" width="6" x="955.5" y="244.0078"/><text fill="#000000" font-family="sans-serif" font-size="14" lengthAdjust="spacing" textLength="119.0684" x="967.5" y="251.2363">uint32_t m_Interval</text><line style="stroke:#181818;stroke-width:0.5;" x1="948.5" x2="1534.291" y1="258.3125" y2="258.3125"/><ellipse cx="958.5" cy="272.6172" fill="#84BE84" rx="3" ry="3" style="stroke:#038048;stroke-width:1;"/><text fill="#000000" font-family="sans-serif" font-size="14" lengthAdjust="spacing" textLength="372.7158" x="967.5" y="276.8457">void Initialize(const sdv::u8string&amp; ssObjectConfig) override;</text><ellipse cx="958.5" cy="290.2266" fill="#84BE84" rx="3" ry="3" style="stroke:#038048;stroke-width:1;"/><text fill="#000000" font-family="sans-serif" font-size="14" lengthAdjust="spacing" textLength="231.875" x="967.5" y="294.4551">sdv::EObjectStatus GetStatus() const</text><ellipse cx="958.5" cy="307.8359" fill="#84BE84" rx="3" ry="3" style="stroke:#038048;stroke-width:1;"/><text fill="#000000" font-family="sans-serif" font-size="14" lengthAdjust="spacing" textLength="338.5156" x="967.5" y="312.0645">void SetOperationMode(sdv::EOperationMode eMode)</text><ellipse cx="958.5" cy="325.4453" fill="#84BE84" rx="3" ry="3" style="stroke:#038048;stroke-width:1;"/><text fill="#000000" font-family="sans-serif" font-size="14" lengthAdjust="spacing" textLength="101.165" x="967.5" y="329.6738">void Shutdown()</text><ellipse cx="958.5" cy="343.0547" fill="#84BE84" rx="3" ry="3" style="stroke:#038048;stroke-width:1;"/><text fill="#000000" font-family="sans-serif" font-size="14" lengthAdjust="spacing" textLength="184.4473" x="967.5" y="347.2832">void SetIsOpenL1(bool value)</text><ellipse cx="958.5" cy="360.6641" fill="#84BE84" rx="3" ry="3" style="stroke:#038048;stroke-width:1;"/><text fill="#000000" font-family="sans-serif" font-size="14" lengthAdjust="spacing" textLength="186.7715" x="967.5" y="364.8926">void SetIsOpenR1(bool value)</text><ellipse cx="958.5" cy="378.2734" fill="#84BE84" rx="3" ry="3" style="stroke:#038048;stroke-width:1;"/><text fill="#000000" font-family="sans-serif" font-size="14" lengthAdjust="spacing" textLength="184.4473" x="967.5" y="382.502">void SetIsOpenL2(bool value)</text><ellipse cx="958.5" cy="395.8828" fill="#84BE84" rx="3" ry="3" style="stroke:#038048;stroke-width:1;"/><text fill="#000000" font-family="sans-serif" font-size="14" lengthAdjust="spacing" textLength="186.7715" x="967.5" y="400.1113">void SetIsOpenR2(bool value)</text><ellipse cx="958.5" cy="413.4922" fill="#84BE84" rx="3" ry="3" style="stroke:#038048;stroke-width:1;"/><text fill="#000000" font-family="sans-serif" font-size="14" font-style="italic" lengthAdjust="spacing" textLength="139.2822" x="967.5" y="417.7207">bool GetDoorsStatus()</text><rect fill="#F24D5C" height="6" style="stroke:#C82930;stroke-width:1;" width="6" x="955.5" y="428.1016"/><text fill="#000000" font-family="sans-serif" font-size="14" lengthAdjust="spacing" textLength="157.165" x="967.5" y="435.3301">void AreAllDoorsClosed()</text><rect fill="#F24D5C" height="6" style="stroke:#C82930;stroke-width:1;" width="6" x="955.5" y="445.7109"/><text fill="#000000" font-family="sans-serif" font-size="14" lengthAdjust="spacing" textLength="231.8613" x="967.5" y="452.9395">void LockDoorsIfAllDoorsAreClosed()</text><rect fill="#F24D5C" height="6" style="stroke:#C82930;stroke-width:1;" width="6" x="955.5" y="463.3203"/><text fill="#000000" font-family="sans-serif" font-size="14" lengthAdjust="spacing" textLength="235.7715" x="967.5" y="470.5488">void LockDoors(const bool lock) const</text></g><!--class IDoorService--><g class="entity" data-entity="IDoorService" data-source-line="46" data-uid="ent0006" id="entity_IDoorService"><rect fill="#F1F1F1" height="65.6094" rx="2.5" ry="2.5" style="stroke:#181818;stroke-width:0.5;" width="151.2822" x="7" y="798"/><ellipse cx="39.2644" cy="814" fill="#B4A7E5" rx="11" ry="11" style="stroke:#181818;stroke-width:1;"/><path d="M40.2175,810.6406 L40.2175,817.2969 L41.9362,817.2969 Q42.5456,817.2969 42.8112,817.5313 Q43.0769,817.7656 43.0769,818.1563 Q43.0769,818.5313 42.8112,818.7656 Q42.5456,819 41.9362,819 L36.7956,819 Q36.1862,819 35.9206,818.7656 Q35.655,818.5313 35.655,818.1406 Q35.655,817.7656 35.9206,817.5313 Q36.1862,817.2969 36.7956,817.2969 L38.5144,817.2969 L38.5144,810.6406 L36.7956,810.6406 Q36.1862,810.6406 35.9206,810.4063 Q35.655,810.1719 35.655,809.7813 Q35.655,809.4063 35.9206,809.1719 Q36.1862,808.9375 36.7956,808.9375 L41.9362,808.9375 Q42.5456,808.9375 42.8112,809.1719 Q43.0769,809.4063 43.0769,809.7813 Q43.0769,810.1719 42.8112,810.4063 Q42.5456,810.6406 41.9362,810.6406 L40.2175,810.6406 Z " fill="#000000"/><text fill="#000000" font-family="sans-serif" font-size="14" font-style="italic" lengthAdjust="spacing" textLength="80.917" x="57.1009" y="819.7285">IDoorService</text><line style="stroke:#181818;stroke-width:0.5;" x1="8" x2="157.2822" y1="830" y2="830"/><line style="stroke:#181818;stroke-width:0.5;" x1="8" x2="157.2822" y1="838" y2="838"/><text fill="#000000" font-family="sans-serif" font-size="14" font-style="italic" lengthAdjust="spacing" textLength="139.2822" x="13" y="856.5332">bool GetDoorsStatus()</text></g><!--link CDoorsExampleService to CSdvObject--><g class="link" data-entity-1="CDoorsExampleService" data-entity-2="CSdvObject" data-source-line="71" data-uid="lnk21" id="link_CDoorsExampleService_CSdvObject"><path codeLine="71" d="M947.3,347.7 C839.12,394.51 719.87,456.81 624.5,534 C540.83,601.72 479.9084,691.3337 441.1784,756.3837" fill="none" id="CDoorsExampleService-to-CSdvObject" style="stroke:#181818;stroke-width:1;"/><polygon fill="none" points="431.97,771.85,446.3338,759.4532,436.023,753.3143,431.97,771.85" style="stroke:#181818;stroke-width:1;"/><text fill="#000000" font-family="sans-serif" font-size="13" lengthAdjust="spacing" textLength="42.6309" x="653.5" y="522.4951">Inherits</text></g><!--link CDoorsExampleService to IObjectControl--><g class="link" data-entity-1="CDoorsExampleService" data-entity-2="IObjectControl" data-source-line="72" data-uid="lnk22" id="link_CDoorsExampleService_IObjectControl"><path codeLine="72" d="M1066.59,478.25 C986.76,585.39 909.5847,688.9662 858.5747,757.4262" fill="none" id="CDoorsExampleService-to-IObjectControl" style="stroke:#181818;stroke-width:1;"/><polygon fill="none" points="847.82,771.86,863.386,761.0111,853.7635,753.8413,847.82,771.86" style="stroke:#181818;stroke-width:1;"/></g><!--link CDoorsExampleService to IDoorService--><g class="link" data-entity-1="CDoorsExampleService" data-entity-2="IDoorService" data-source-line="73" data-uid="lnk23" id="link_CDoorsExampleService_IDoorService"><path codeLine="73" d="M947.31,291.34 C671.85,341.72 286.61,428.34 176.5,534 C101.61,605.86 87.1012,719.0426 84.0612,779.6826" fill="none" id="CDoorsExampleService-to-IDoorService" style="stroke:#181818;stroke-width:1;stroke-dasharray:7,7;"/><polygon fill="none" points="83.16,797.66,90.0537,779.983,78.0688,779.3822,83.16,797.66" style="stroke:#181818;stroke-width:1;"/></g><!--link CDoorsExampleService to IVSS_SetIsOpen_Event--><g class="link" data-entity-1="CDoorsExampleService" data-entity-2="IVSS_SetIsOpen_Event" data-source-line="74" data-uid="lnk24" id="link_CDoorsExampleService_IVSS_SetIsOpen_Event"><path codeLine="74" d="M1241.5,478.25 C1241.5,600.7 1241.5,719.33 1241.5,780" fill="none" id="CDoorsExampleService-to-IVSS_SetIsOpen_Event" style="stroke:#181818;stroke-width:1;stroke-dasharray:7,7;"/><polygon fill="none" points="1241.5,798,1247.5,780,1235.5,780,1241.5,798" style="stroke:#181818;stroke-width:1;"/><text fill="#000000" font-family="sans-serif" font-size="13" lengthAdjust="spacing" textLength="67.1899" x="1242.5" y="522.4951">Implements</text></g><!--link CDoorsExampleService to IVSS_SetIsOpen_Event--><g class="link" data-entity-1="CDoorsExampleService" data-entity-2="IVSS_SetIsOpen_Event" data-source-line="75" data-uid="lnk25" id="link_CDoorsExampleService_IVSS_SetIsOpen_Event"><path codeLine="75" d="M1343.17,478.25 C1396.2,600.7 1448.2177,720.812 1474.4877,781.482" fill="none" id="CDoorsExampleService-to-IVSS_SetIsOpen_Event-1" style="stroke:#181818;stroke-width:1;stroke-dasharray:7,7;"/><polygon fill="none" points="1481.64,798,1479.9937,779.0979,1468.9817,783.8661,1481.64,798" style="stroke:#181818;stroke-width:1;"/><text fill="#000000" font-family="sans-serif" font-size="13" lengthAdjust="spacing" textLength="67.1899" x="1361.5" y="522.4951">Implements</text></g><!--link CDoorsExampleService to IVSS_SetIsOpen_Event--><g class="link" data-entity-1="CDoorsExampleService" data-entity-2="IVSS_SetIsOpen_Event" data-source-line="76" data-uid="lnk26" id="link_CDoorsExampleService_IVSS_SetIsOpen_Event"><path codeLine="76" d="M1535.83,458.82 C1562.56,482.97 1588.27,508.21 1611.5,534 C1688.46,619.47 1745.358,724.4864 1773.908,781.6564" fill="none" id="CDoorsExampleService-to-IVSS_SetIsOpen_Event-2" style="stroke:#181818;stroke-width:1;stroke-dasharray:7,7;"/><polygon fill="none" points="1781.95,797.76,1779.2759,778.9757,1768.5402,784.337,1781.95,797.76" style="stroke:#181818;stroke-width:1;"/><text fill="#000000" font-family="sans-serif" font-size="13" lengthAdjust="spacing" textLength="67.1899" x="1603.5" y="522.4951">Implements</text></g><!--link CDoorsExampleService to IVSS_SetIsOpen_Event--><g class="link" data-entity-1="CDoorsExampleService" data-entity-2="IVSS_SetIsOpen_Event" data-source-line="77" data-uid="lnk27" id="link_CDoorsExampleService_IVSS_SetIsOpen_Event"><path codeLine="77" d="M1535.8,319.85 C1663.74,365.03 1807.76,433.59 1911.5,534 C1989.93,609.91 2025.0978,720.9866 2039.9678,780.5166" fill="none" id="CDoorsExampleService-to-IVSS_SetIsOpen_Event-3" style="stroke:#181818;stroke-width:1;stroke-dasharray:7,7;"/><polygon fill="none" points="2044.33,797.98,2045.789,779.0625,2034.1467,781.9706,2044.33,797.98" style="stroke:#181818;stroke-width:1;"/><text fill="#000000" font-family="sans-serif" font-size="13" lengthAdjust="spacing" textLength="67.1899" x="1897.5" y="522.4951">Implements</text></g><!--SRC=[lLPRazes57xthpXF7KY7dSNf9bkrpNJhfOapa7JmTbyPOHz0gP2e9JkNpVxt7Cd0OkwaJ7bWR9tlVEUYeyy2WnOCpdZEhSw1iG00KicDWUXMwznqFl7fJ6A2UIbITDO7zqU_7qijCeYLi89ByGKRgLQ6oBAIiUBQs5oeyGzWpFlX1qnjfDL8Z9kWIynpaU4l2nQFxrIWn79R67YDywT64pnfBMA2zlqCAL-XLKzds9WphAu1klzctMzIs4n_L8tcEbrio5brsusXrX9ABWlSWUaVWUc6H_1inJpm8RMDf_OHl9NwuFTWqOmvhkMvRdAyaTBR8waDPclshax_yTPujC2HotxeV0jzS4cBzVQtjcmLJ0SuV_mDDksCYSLy-BqPKEqPpSM2qKSYZk6VkLQsYoDVSDMZxPY-64_sWVh8ymCy3hAFXY0h7NFDmMpPBqCrtUD4f18PYoPqK0IjE31ZDvyaNhOPS_7d1uQn-3v91hJnZkSPSSzgfIPbUXArp_i0zxAsayZ3GtclTlPKvWDfrtPaXNivc7UJ77b6qEpfRG4gXBBFmu4bQwminU3IcHw39odpWnabMLdDvggAFHWQL94-peN8uBy5gXH_hSdOAtSK8qTr8mKtw4-aI9V7Q8rauUOFC8vu8MqL-1sVuavNFtknISXHejLgVumzYLQnRj6TDOA8UhfLNtodHZp5gZVnKgHjhcMjFq-Qz3rwlybodDIlXzqG_Nrwl-5SK_xr1iH-w3Q_RyUeyJhNzyj3fKE3JedAxkl_di_LwSc4Pqic_E_9x5ItaxFfdwSrvyfcHs-stQ-WrVhwQbskW57c4yo5DKVuRHxbhGuN5-ImFlgxaUSPR5U9evxIipb3mCCxTDQ8uVzTOdXwYG7yJh9VJ6KG_2Mvid_tka1NRaD22UsBy3AyklYvqQEN16TmUGtjb-pg1Nj-3L4dkGDdRmQDNdm7HXSvPPe9f-p3mYbjCtZBImxzGbanHGRkhN7NQqBIMIn2HvM2BY4kcU3jVQy2mHjjavcs7lpYfzOVmeAh2NEuxmNpJoIvfjfT3Xb4itPu5GPThiO57rEa38D8KuJyCuFRpZS0]--></g></svg>