<svg xmlns="http://www.w3.org/2000/svg" xmlns:xlink="http://www.w3.org/1999/xlink" contentStyleType="text/css" data-diagram-type="CLASS" height="742px" preserveAspectRatio="none" style="width:1411px;height:742px;background:#FFFFFF;" version="1.1" viewBox="0 0 1411 742" width="1411px" zoomAndPan="magnify"><defs/><g><!--cluster sdv--><g class="cluster" data-entity="sdv" data-source-line="14" data-uid="ent0004" id="cluster_sdv"><path d="M8.5,462.5 L33.624,462.5 A3.75,3.75 0 0 1 36.124,465 L43.124,486.1094 L449.5,486.1094 A2.5,2.5 0 0 1 452,488.6094 L452,630 A2.5,2.5 0 0 1 449.5,632.5 L8.5,632.5 A2.5,2.5 0 0 1 6,630 L6,465 A2.5,2.5 0 0 1 8.5,462.5" fill="none" style="stroke:#000000;stroke-width:1.5;"/><line style="stroke:#000000;stroke-width:1.5;" x1="6" x2="43.124" y1="486.1094" y2="486.1094"/><text fill="#000000" font-family="sans-serif" font-size="14" font-weight="bold" lengthAdjust="spacing" textLength="24.124" x="10" y="479.0332">sdv</text></g><!--cluster vss--><g class="cluster" data-entity="vss" data-source-line="22" data-uid="ent0006" id="cluster_vss"><path d="M478.5,260 L502.8584,260 A3.75,3.75 0 0 1 505.3584,262.5 L512.3584,283.6094 L1401.5,283.6094 A2.5,2.5 0 0 1 1404,286.1094 L1404,732.5 A2.5,2.5 0 0 1 1401.5,735 L478.5,735 A2.5,2.5 0 0 1 476,732.5 L476,262.5 A2.5,2.5 0 0 1 478.5,260" fill="none" style="stroke:#000000;stroke-width:1.5;"/><line style="stroke:#000000;stroke-width:1.5;" x1="476" x2="512.3584" y1="283.6094" y2="283.6094"/><text fill="#000000" font-family="sans-serif" font-size="14" font-weight="bold" lengthAdjust="spacing" textLength="23.3584" x="480" y="276.5332">vss</text></g><!--cluster Vehicle--><g class="cluster" data-entity="Vehicle" data-source-line="22" data-uid="ent0007" id="cluster_Vehicle"><path d="M502.5,304 L552.5273,304 A3.75,3.75 0 0 1 555.0273,306.5 L562.0273,327.6094 L1377.5,327.6094 A2.5,2.5 0 0 1 1380,330.1094 L1380,708.5 A2.5,2.5 0 0 1 1377.5,711 L502.5,711 A2.5,2.5 0 0 1 500,708.5 L500,306.5 A2.5,2.5 0 0 1 502.5,304" fill="none" style="stroke:#000000;stroke-width:1.5;"/><line style="stroke:#000000;stroke-width:1.5;" x1="500" x2="562.0273" y1="327.6094" y2="327.6094"/><text fill="#000000" font-family="sans-serif" font-size="14" font-weight="bold" lengthAdjust="spacing" textLength="49.0273" x="504" y="320.5332">Vehicle</text></g><!--cluster Chassis--><g class="cluster" data-entity="Chassis" data-source-line="22" data-uid="ent0008" id="cluster_Chassis"><path d="M526.5,348 L581.1963,348 A3.75,3.75 0 0 1 583.6963,350.5 L590.6963,371.6094 L1353.5,371.6094 A2.5,2.5 0 0 1 1356,374.1094 L1356,684.5 A2.5,2.5 0 0 1 1353.5,687 L526.5,687 A2.5,2.5 0 0 1 524,684.5 L524,350.5 A2.5,2.5 0 0 1 526.5,348" fill="none" style="stroke:#000000;stroke-width:1.5;"/><line style="stroke:#000000;stroke-width:1.5;" x1="524" x2="590.6963" y1="371.6094" y2="371.6094"/><text fill="#000000" font-family="sans-serif" font-size="14" font-weight="bold" lengthAdjust="spacing" textLength="53.6963" x="528" y="364.5332">Chassis</text></g><!--cluster Door--><g class="cluster" data-entity="Door" data-source-line="22" data-uid="ent0009" id="cluster_Door"><path d="M550.5,392 L584.1621,392 A3.75,3.75 0 0 1 586.6621,394.5 L593.6621,415.6094 L1329.5,415.6094 A2.5,2.5 0 0 1 1332,418.1094 L1332,660.5 A2.5,2.5 0 0 1 1329.5,663 L550.5,663 A2.5,2.5 0 0 1 548,660.5 L548,394.5 A2.5,2.5 0 0 1 550.5,392" fill="none" style="stroke:#000000;stroke-width:1.5;"/><line style="stroke:#000000;stroke-width:1.5;" x1="548" x2="593.6621" y1="415.6094" y2="415.6094"/><text fill="#000000" font-family="sans-serif" font-size="14" font-weight="bold" lengthAdjust="spacing" textLength="32.6621" x="552" y="408.5332">Door</text></g><!--cluster Axle01--><g class="cluster" data-entity="Axle01" data-source-line="22" data-uid="ent0010" id="cluster_Axle01"><path d="M574.5,436 L620.6445,436 A3.75,3.75 0 0 1 623.1445,438.5 L630.1445,459.6094 L1305.5,459.6094 A2.5,2.5 0 0 1 1308,462.1094 L1308,636.5 A2.5,2.5 0 0 1 1305.5,639 L574.5,639 A2.5,2.5 0 0 1 572,636.5 L572,438.5 A2.5,2.5 0 0 1 574.5,436" fill="none" style="stroke:#000000;stroke-width:1.5;"/><line style="stroke:#000000;stroke-width:1.5;" x1="572" x2="630.1445" y1="459.6094" y2="459.6094"/><text fill="#000000" font-family="sans-serif" font-size="14" font-weight="bold" lengthAdjust="spacing" textLength="45.1445" x="576" y="452.5332">Axle01</text></g><!--cluster LeftDevice--><g class="cluster" data-entity="LeftDevice" data-source-line="22" data-uid="ent0011" id="cluster_LeftDevice"><path d="M598.5,480 L670.3066,480 A3.75,3.75 0 0 1 672.8066,482.5 L679.8066,503.6094 L1281.5,503.6094 A2.5,2.5 0 0 1 1284,506.1094 L1284,612.5 A2.5,2.5 0 0 1 1281.5,615 L598.5,615 A2.5,2.5 0 0 1 596,612.5 L596,482.5 A2.5,2.5 0 0 1 598.5,480" fill="none" style="stroke:#000000;stroke-width:1.5;"/><line style="stroke:#000000;stroke-width:1.5;" x1="596" x2="679.8066" y1="503.6094" y2="503.6094"/><text fill="#000000" font-family="sans-serif" font-size="14" font-weight="bold" lengthAdjust="spacing" textLength="70.8066" x="600" y="496.5332">LeftDevice</text></g><!--class CSdvObject--><g class="entity" data-entity="CSdvObject" data-source-line="14" data-uid="ent0003" id="entity_CSdvObject"><rect fill="#F1F1F1" height="118.4375" rx="2.5" ry="2.5" style="stroke:#181818;stroke-width:0.5;" width="412.7705" x="22.5" y="498.5"/><ellipse cx="187.2871" cy="514.5" fill="#ADD1B2" rx="11" ry="11" style="stroke:#181818;stroke-width:1;"/><path d="M190.0527,510.375 Q190.209,510.1563 190.3965,510.0469 Q190.584,509.9375 190.8027,509.9375 Q191.1777,509.9375 191.4121,510.1953 Q191.6465,510.4531 191.6465,511.0625 L191.6465,512.5156 Q191.6465,513.125 191.4121,513.3906 Q191.1777,513.6563 190.8027,513.6563 Q190.459,513.6563 190.2559,513.4531 Q190.0527,513.2656 189.9434,512.75 Q189.8965,512.3906 189.709,512.2031 Q189.3809,511.8281 188.7715,511.6094 Q188.1621,511.3906 187.5371,511.3906 Q186.7715,511.3906 186.1387,511.7188 Q185.5059,512.0469 185.0137,512.7969 Q184.5215,513.5469 184.5215,514.5781 L184.5215,515.6719 Q184.5215,516.9063 185.4121,517.7266 Q186.3027,518.5469 187.8965,518.5469 Q188.834,518.5469 189.4902,518.2969 Q189.8809,518.1406 190.3027,517.7031 Q190.5684,517.4375 190.7168,517.3594 Q190.8652,517.2813 191.0684,517.2813 Q191.3965,517.2813 191.6543,517.5391 Q191.9121,517.7969 191.9121,518.1406 Q191.9121,518.4844 191.5684,518.8906 Q191.0684,519.4688 190.2715,519.7969 Q189.1934,520.25 187.8965,520.25 Q186.3809,520.25 185.1777,519.625 Q184.1934,519.125 183.5059,518.0547 Q182.8184,516.9844 182.8184,515.7031 L182.8184,514.5469 Q182.8184,513.2188 183.4355,512.0703 Q184.0527,510.9219 185.1465,510.3047 Q186.2402,509.6875 187.4746,509.6875 Q188.209,509.6875 188.8574,509.8516 Q189.5059,510.0156 190.0527,510.375 Z " fill="#000000"/><text fill="#000000" font-family="sans-serif" font-size="14" lengthAdjust="spacing" textLength="74.6963" x="207.7871" y="520.2285">CSdvObject</text><line style="stroke:#181818;stroke-width:0.5;" x1="23.5" x2="434.2705" y1="530.5" y2="530.5"/><line style="stroke:#181818;stroke-width:0.5;" x1="23.5" x2="434.2705" y1="538.5" y2="538.5"/><ellipse cx="33.5" cy="552.8047" fill="#84BE84" rx="3" ry="3" style="stroke:#038048;stroke-width:1;"/><text fill="#000000" font-family="sans-serif" font-size="14" lengthAdjust="spacing" text-decoration="underline" textLength="336.9365" x="42.5" y="557.0332">sdv::sequence&lt;sdv::u8string&gt; GetClassAliasesStatic()</text><ellipse cx="33.5" cy="570.4141" fill="#84BE84" rx="3" ry="3" style="stroke:#038048;stroke-width:1;"/><text fill="#000000" font-family="sans-serif" font-size="14" lengthAdjust="spacing" text-decoration="underline" textLength="272.3301" x="42.5" y="574.6426">sdv::u8string GetDefaultObjectNameStatic()</text><ellipse cx="33.5" cy="588.0234" fill="#84BE84" rx="3" ry="3" style="stroke:#038048;stroke-width:1;"/><text fill="#000000" font-family="sans-serif" font-size="14" lengthAdjust="spacing" text-decoration="underline" textLength="143.9648" x="42.5" y="592.252">bool IsSingletonStatic()</text><ellipse cx="33.5" cy="605.6328" fill="#84BE84" rx="3" ry="3" style="stroke:#038048;stroke-width:1;"/><text fill="#000000" font-family="sans-serif" font-size="14" lengthAdjust="spacing" text-decoration="underline" textLength="386.7705" x="42.5" y="609.8613">sdv::sequence&lt;sdv::u8string&gt; GetObjectDependenciesStatic()</text></g><!--class IVSS_IsOpen--><g class="entity" data-entity="IVSS_IsOpen" data-source-line="22" data-uid="ent0005" id="entity_IVSS_IsOpen"><rect fill="#F1F1F1" height="83.2188" rx="2.5" ry="2.5" style="stroke:#181818;stroke-width:0.5;" width="401.0742" x="612.5" y="516"/><ellipse cx="766.3735" cy="532" fill="#B4A7E5" rx="11" ry="11" style="stroke:#181818;stroke-width:1;"/><path d="M767.3267,528.6406 L767.3267,535.2969 L769.0454,535.2969 Q769.6548,535.2969 769.9204,535.5313 Q770.186,535.7656 770.186,536.1563 Q770.186,536.5313 769.9204,536.7656 Q769.6548,537 769.0454,537 L763.9048,537 Q763.2954,537 763.0298,536.7656 Q762.7642,536.5313 762.7642,536.1406 Q762.7642,535.7656 763.0298,535.5313 Q763.2954,535.2969 763.9048,535.2969 L765.6235,535.2969 L765.6235,528.6406 L763.9048,528.6406 Q763.2954,528.6406 763.0298,528.4063 Q762.7642,528.1719 762.7642,527.7813 Q762.7642,527.4063 763.0298,527.1719 Q763.2954,526.9375 763.9048,526.9375 L769.0454,526.9375 Q769.6548,526.9375 769.9204,527.1719 Q770.186,527.4063 770.186,527.7813 Q770.186,528.1719 769.9204,528.4063 Q769.6548,528.6406 769.0454,528.6406 L767.3267,528.6406 Z " fill="#000000"/><text fill="#000000" font-family="sans-serif" font-size="14" font-style="italic" lengthAdjust="spacing" textLength="84.8271" x="786.8735" y="537.7285">IVSS_IsOpen</text><line style="stroke:#181818;stroke-width:0.5;" x1="613.5" x2="1012.5742" y1="548" y2="548"/><line style="stroke:#181818;stroke-width:0.5;" x1="613.5" x2="1012.5742" y1="556" y2="556"/><text fill="#000000" font-family="sans-serif" font-size="14" font-style="italic" lengthAdjust="spacing" textLength="376.626" x="618.5" y="574.5332">void RegisterIsOpenEvent(IVSS_WriteIsOpen_Event* event)</text><text fill="#000000" font-family="sans-serif" font-size="14" font-style="italic" lengthAdjust="spacing" textLength="389.0742" x="618.5" y="592.1426">void UnregisterIsOpenEvent(IVSS_WriteIsOpen_Event* event)</text></g><!--class IVSS_WriteLock--><g class="entity" data-entity="IVSS_WriteLock" data-source-line="28" data-uid="ent0012" id="entity_IVSS_WriteLock"><rect fill="#F1F1F1" height="65.6094" rx="2.5" ry="2.5" style="stroke:#181818;stroke-width:0.5;" width="218.9785" x="1048.5" y="524.5"/><ellipse cx="1102.7773" cy="540.5" fill="#B4A7E5" rx="11" ry="11" style="stroke:#181818;stroke-width:1;"/><path d="M1103.7305,537.1406 L1103.7305,543.7969 L1105.4492,543.7969 Q1106.0586,543.7969 1106.3242,544.0313 Q1106.5898,544.2656 1106.5898,544.6563 Q1106.5898,545.0313 1106.3242,545.2656 Q1106.0586,545.5 1105.4492,545.5 L1100.3086,545.5 Q1099.6992,545.5 1099.4336,545.2656 Q1099.168,545.0313 1099.168,544.6406 Q1099.168,544.2656 1099.4336,544.0313 Q1099.6992,543.7969 1100.3086,543.7969 L1102.0273,543.7969 L1102.0273,537.1406 L1100.3086,537.1406 Q1099.6992,537.1406 1099.4336,536.9063 Q1099.168,536.6719 1099.168,536.2813 Q1099.168,535.9063 1099.4336,535.6719 Q1099.6992,535.4375 1100.3086,535.4375 L1105.4492,535.4375 Q1106.0586,535.4375 1106.3242,535.6719 Q1106.5898,535.9063 1106.5898,536.2813 Q1106.5898,536.6719 1106.3242,536.9063 Q1106.0586,537.1406 1105.4492,537.1406 L1103.7305,537.1406 Z " fill="#000000"/><text fill="#000000" font-family="sans-serif" font-size="14" font-style="italic" lengthAdjust="spacing" textLength="101.9238" x="1123.2773" y="546.2285">IVSS_WriteLock</text><line style="stroke:#181818;stroke-width:0.5;" x1="1049.5" x2="1266.4785" y1="556.5" y2="556.5"/><line style="stroke:#181818;stroke-width:0.5;" x1="1049.5" x2="1266.4785" y1="564.5" y2="564.5"/><text fill="#000000" font-family="sans-serif" font-size="14" lengthAdjust="spacing" textLength="206.9785" x="1054.5" y="583.0332">virtual bool WriteLock(bool value)</text></g><!--class CVehicleDeviceFrontDoorLeft--><g class="entity" data-entity="CVehicleDeviceFrontDoorLeft" data-source-line="2" data-uid="ent0002" id="entity_CVehicleDeviceFrontDoorLeft"><rect fill="#F1F1F1" height="188.875" rx="2.5" ry="2.5" style="stroke:#181818;stroke-width:0.5;" width="750.4453" x="438" y="7"/><ellipse cx="716.3765" cy="23" fill="#ADD1B2" rx="11" ry="11" style="stroke:#181818;stroke-width:1;"/><path d="M719.1421,18.875 Q719.2983,18.6563 719.4858,18.5469 Q719.6733,18.4375 719.8921,18.4375 Q720.2671,18.4375 720.5015,18.6953 Q720.7358,18.9531 720.7358,19.5625 L720.7358,21.0156 Q720.7358,21.625 720.5015,21.8906 Q720.2671,22.1563 719.8921,22.1563 Q719.5483,22.1563 719.3452,21.9531 Q719.1421,21.7656 719.0327,21.25 Q718.9858,20.8906 718.7983,20.7031 Q718.4702,20.3281 717.8608,20.1094 Q717.2515,19.8906 716.6265,19.8906 Q715.8608,19.8906 715.228,20.2188 Q714.5952,20.5469 714.103,21.2969 Q713.6108,22.0469 713.6108,23.0781 L713.6108,24.1719 Q713.6108,25.4063 714.5015,26.2266 Q715.3921,27.0469 716.9858,27.0469 Q717.9233,27.0469 718.5796,26.7969 Q718.9702,26.6406 719.3921,26.2031 Q719.6577,25.9375 719.8062,25.8594 Q719.9546,25.7813 720.1577,25.7813 Q720.4858,25.7813 720.7437,26.0391 Q721.0015,26.2969 721.0015,26.6406 Q721.0015,26.9844 720.6577,27.3906 Q720.1577,27.9688 719.3608,28.2969 Q718.2827,28.75 716.9858,28.75 Q715.4702,28.75 714.2671,28.125 Q713.2827,27.625 712.5952,26.5547 Q711.9077,25.4844 711.9077,24.2031 L711.9077,23.0469 Q711.9077,21.7188 712.5249,20.5703 Q713.1421,19.4219 714.2358,18.8047 Q715.3296,18.1875 716.564,18.1875 Q717.2983,18.1875 717.9468,18.3516 Q718.5952,18.5156 719.1421,18.875 Z " fill="#000000"/><text fill="#000000" font-family="sans-serif" font-size="14" lengthAdjust="spacing" textLength="185.1924" x="736.8765" y="28.7285">CVehicleDeviceFrontDoorLeft</text><line style="stroke:#181818;stroke-width:0.5;" x1="439" x2="1187.4453" y1="39" y2="39"/><rect fill="none" height="6" style="stroke:#C82930;stroke-width:1;" width="6" x="446" y="50.3047"/><text fill="#000000" font-family="sans-serif" font-size="14" lengthAdjust="spacing" textLength="205.4404" x="458" y="57.5332">sdv::core::CSignal m_leftLatch01</text><rect fill="none" height="6" style="stroke:#C82930;stroke-width:1;" width="6" x="446" y="67.9141"/><text fill="#000000" font-family="sans-serif" font-size="14" lengthAdjust="spacing" textLength="285.5918" x="458" y="75.1426">sdv::core::CSignal m_leftDoorIsOpen01Signal</text><rect fill="none" height="6" style="stroke:#C82930;stroke-width:1;" width="6" x="446" y="85.5234"/><text fill="#000000" font-family="sans-serif" font-size="14" lengthAdjust="spacing" textLength="350.1572" x="458" y="92.752">mutable std::mutex m_leftDoorIsOpen01MutexCallbacks</text><rect fill="none" height="6" style="stroke:#C82930;stroke-width:1;" width="6" x="446" y="103.1328"/><text fill="#000000" font-family="sans-serif" font-size="14" lengthAdjust="spacing" textLength="724.4453" x="458" y="110.3613">std::set&lt;vss::Vehicle::Chassis::Door::Axle01::LeftDevice::IVSS_WriteIsOpen_Event*&gt; m_leftDoorIsOpen01Callbacks</text><line style="stroke:#181818;stroke-width:0.5;" x1="439" x2="1187.4453" y1="117.4375" y2="117.4375"/><ellipse cx="449" cy="131.7422" fill="#84BE84" rx="3" ry="3" style="stroke:#038048;stroke-width:1;"/><text fill="#000000" font-family="sans-serif" font-size="14" font-style="italic" lengthAdjust="spacing" textLength="108.9375" x="458" y="135.9707">bool OnInitialize()</text><ellipse cx="449" cy="149.3516" fill="#84BE84" rx="3" ry="3" style="stroke:#038048;stroke-width:1;"/><text fill="#000000" font-family="sans-serif" font-size="14" font-style="italic" lengthAdjust="spacing" textLength="679.3076" x="458" y="153.5801">void RegisterIsOpenEvent(vss::Vehicle::Chassis::Door::Axle01::LeftDevice::IVSS_WriteIsOpen_Event* event)</text><ellipse cx="449" cy="166.9609" fill="#84BE84" rx="3" ry="3" style="stroke:#038048;stroke-width:1;"/><text fill="#000000" font-family="sans-serif" font-size="14" font-style="italic" lengthAdjust="spacing" textLength="691.7559" x="458" y="171.1895">void UnregisterIsOpenEvent(vss::Vehicle::Chassis::Door::Axle01::LeftDevice::IVSS_WriteIsOpen_Event* event)</text><rect fill="#F24D5C" height="6" style="stroke:#C82930;stroke-width:1;" width="6" x="446" y="181.5703"/><text fill="#000000" font-family="sans-serif" font-size="14" lengthAdjust="spacing" textLength="403.8604" x="458" y="188.7988">void ExecuteAllCallBacksForLeftDoorIsOpen01(sdv::any_t value)</text></g><!--link CVehicleDeviceFrontDoorLeft to CSdvObject--><g class="link" data-entity-1="CVehicleDeviceFrontDoorLeft" data-entity-2="CSdvObject" data-source-line="33" data-uid="lnk13" id="link_CVehicleDeviceFrontDoorLeft_CSdvObject"><path codeLine="33" d="M673.06,196.19 C647.15,214.3 620.53,233.43 596,252 C487.91,333.82 381.5492,423.769 309.1192,486.469" fill="none" id="CVehicleDeviceFrontDoorLeft-to-CSdvObject" style="stroke:#181818;stroke-width:1;"/><polygon fill="none" points="295.51,498.25,313.0461,491.0054,305.1922,481.9327,295.51,498.25" style="stroke:#181818;stroke-width:1;"/><text fill="#000000" font-family="sans-serif" font-size="13" lengthAdjust="spacing" textLength="42.6309" x="631" y="240.4951">Inherits</text></g><!--link CVehicleDeviceFrontDoorLeft to IVSS_IsOpen--><g class="link" data-entity-1="CVehicleDeviceFrontDoorLeft" data-entity-2="IVSS_IsOpen" data-source-line="34" data-uid="lnk14" id="link_CVehicleDeviceFrontDoorLeft_IVSS_IsOpen"><path codeLine="34" d="M813,196.02 C813,294.27 813,426.26 813,497.8" fill="none" id="CVehicleDeviceFrontDoorLeft-to-IVSS_IsOpen" style="stroke:#181818;stroke-width:1;stroke-dasharray:7,7;"/><polygon fill="none" points="813,515.8,819,497.8,807,497.8,813,515.8" style="stroke:#181818;stroke-width:1;"/><text fill="#000000" font-family="sans-serif" font-size="13" lengthAdjust="spacing" textLength="67.1899" x="814" y="240.4951">Implements</text></g><!--link CVehicleDeviceFrontDoorLeft to IVSS_WriteLock--><g class="link" data-entity-1="CVehicleDeviceFrontDoorLeft" data-entity-2="IVSS_WriteLock" data-source-line="35" data-uid="lnk15" id="link_CVehicleDeviceFrontDoorLeft_IVSS_WriteLock"><path codeLine="35" d="M973.21,196.04 C994.37,212.86 1014.43,231.61 1031,252 C1100.18,337.12 1132.7398,447.7721 1146.8698,506.9521" fill="none" id="CVehicleDeviceFrontDoorLeft-to-IVSS_WriteLock" style="stroke:#181818;stroke-width:1;stroke-dasharray:7,7;"/><polygon fill="none" points="1151.05,524.46,1152.7057,505.5587,1141.0338,508.3455,1151.05,524.46" style="stroke:#181818;stroke-width:1;"/><text fill="#000000" font-family="sans-serif" font-size="13" lengthAdjust="spacing" textLength="67.1899" x="1022" y="240.4951">Implements</text></g><!--SRC=[lPHlKnen4CRVtwVObqST6A3LsepZL0ziSRZQyPI-P49kXTIGq6Jl1clzxatk5CNntxIsl819ii_-dcns0OS43XVSSZ8M68i0G2Zk72GZd4cXi8Ub57XWZQQUCNQ8PnI2BiEN_snSyeaZomLTmSGO1KTwe2L9hkHFZ1iFH9L6vd2CK-a8xS0TBL3tIzGKbyunTarbB9bv5zBl12fZUqk5xGvZWLzROcmmohBnDoi9wpJZAiyRmF3pAFfKs_y6RrR4_X95GRYdLCALskVYt1tKbGpfQtcx4xkyP8phYp51oLM1goJLWJ0s6ClaL7C5yx7oyY4dCMjtdesxYwaFRYJpWlX48JZA6VCBN3uWISD-i3u9rbUq8F7zi_DQfTjz0Br6lOfksxEwQvBbvT7aEugrbhnqn4cAAzYeWXp-A50BtAbMnRPl1gcdk_09AGcfzfJa3brMYLOTUo_9ZIoeUdZ62qKr-0kVuwFIQY06BlD2XMJqqumdZDQi7lgQv3v4hjkjwpBGlgNFk43uimUfIxvMo1SCxOl6u6KZ-7ogrxbeXHWQSNxthgMqLFY1gPvi5H5Nozjfh0qyyTS8pUQltVlD2Snxdg5FwfwJjrfU_ZVl5rZpXSAvhzc_fArAT0_uqNTeCLTHz5LnJQVf44gqJXeDdLQttTriVOXJlyXm0UrjwBndcrlixJOa_Um4mdaZYjF12JXJMF_0kGn3C2d89sX4XxpaS5neadDa45RnITg0h7-p2Ntjtz7eu2Kw7ALr47msb2qCLS5RxvhxaZpVUbymIgFhQVPION8_RmoIHQUxsOs6N4yBFlMa7AF4U8AzOD3h_mO0]--></g></svg>