<svg xmlns="http://www.w3.org/2000/svg" xmlns:xlink="http://www.w3.org/1999/xlink" contentStyleType="text/css" data-diagram-type="CLASS" height="518px" preserveAspectRatio="none" style="width:1065px;height:518px;background:#FFFFFF;" version="1.1" viewBox="0 0 1065 518" width="1065px" zoomAndPan="magnify"><defs/><g><!--cluster sdv--><g class="cluster" data-entity="sdv" data-source-line="10" data-uid="ent0004" id="cluster_sdv"><path d="M8.5,295 L33.624,295 A3.75,3.75 0 0 1 36.124,297.5 L43.124,318.6094 L449.5,318.6094 A2.5,2.5 0 0 1 452,321.1094 L452,462.5 A2.5,2.5 0 0 1 449.5,465 L8.5,465 A2.5,2.5 0 0 1 6,462.5 L6,297.5 A2.5,2.5 0 0 1 8.5,295" fill="none" style="stroke:#000000;stroke-width:1.5;"/><line style="stroke:#000000;stroke-width:1.5;" x1="6" x2="43.124" y1="318.6094" y2="318.6094"/><text fill="#000000" font-family="sans-serif" font-size="14" font-weight="bold" lengthAdjust="spacing" textLength="24.124" x="10" y="311.5332">sdv</text></g><!--cluster vss--><g class="cluster" data-entity="vss" data-source-line="18" data-uid="ent0006" id="cluster_vss"><path d="M478.5,189 L502.8584,189 A3.75,3.75 0 0 1 505.3584,191.5 L512.3584,212.6094 L1055.5,212.6094 A2.5,2.5 0 0 1 1058,215.1094 L1058,508.5 A2.5,2.5 0 0 1 1055.5,511 L478.5,511 A2.5,2.5 0 0 1 476,508.5 L476,191.5 A2.5,2.5 0 0 1 478.5,189" fill="none" style="stroke:#000000;stroke-width:1.5;"/><line style="stroke:#000000;stroke-width:1.5;" x1="476" x2="512.3584" y1="212.6094" y2="212.6094"/><text fill="#000000" font-family="sans-serif" font-size="14" font-weight="bold" lengthAdjust="spacing" textLength="23.3584" x="480" y="205.5332">vss</text></g><!--cluster Vehicle--><g class="cluster" data-entity="Vehicle" data-source-line="18" data-uid="ent0007" id="cluster_Vehicle"><path d="M502.5,233 L552.5273,233 A3.75,3.75 0 0 1 555.0273,235.5 L562.0273,256.6094 L1031.5,256.6094 A2.5,2.5 0 0 1 1034,259.1094 L1034,484.5 A2.5,2.5 0 0 1 1031.5,487 L502.5,487 A2.5,2.5 0 0 1 500,484.5 L500,235.5 A2.5,2.5 0 0 1 502.5,233" fill="none" style="stroke:#000000;stroke-width:1.5;"/><line style="stroke:#000000;stroke-width:1.5;" x1="500" x2="562.0273" y1="256.6094" y2="256.6094"/><text fill="#000000" font-family="sans-serif" font-size="14" font-weight="bold" lengthAdjust="spacing" textLength="49.0273" x="504" y="249.5332">Vehicle</text></g><!--cluster Body--><g class="cluster" data-entity="Body" data-source-line="18" data-uid="ent0008" id="cluster_Body"><path d="M760.5,277 L796.5,277 A3.75,3.75 0 0 1 799,279.5 L806,300.6094 L1007.5,300.6094 A2.5,2.5 0 0 1 1010,303.1094 L1010,460.5 A2.5,2.5 0 0 1 1007.5,463 L760.5,463 A2.5,2.5 0 0 1 758,460.5 L758,279.5 A2.5,2.5 0 0 1 760.5,277" fill="none" style="stroke:#000000;stroke-width:1.5;"/><line style="stroke:#000000;stroke-width:1.5;" x1="758" x2="806" y1="300.6094" y2="300.6094"/><text fill="#000000" font-family="sans-serif" font-size="14" font-weight="bold" lengthAdjust="spacing" textLength="35" x="762" y="293.5332">Body</text></g><!--cluster TrunkService--><g class="cluster" data-entity="TrunkService" data-source-line="18" data-uid="ent0009" id="cluster_TrunkService"><path d="M784.5,321 L874.21,321 A3.75,3.75 0 0 1 876.71,323.5 L883.71,344.6094 L983.5,344.6094 A2.5,2.5 0 0 1 986,347.1094 L986,436.5 A2.5,2.5 0 0 1 983.5,439 L784.5,439 A2.5,2.5 0 0 1 782,436.5 L782,323.5 A2.5,2.5 0 0 1 784.5,321" fill="none" style="stroke:#000000;stroke-width:1.5;"/><line style="stroke:#000000;stroke-width:1.5;" x1="782" x2="883.71" y1="344.6094" y2="344.6094"/><text fill="#000000" font-family="sans-serif" font-size="14" font-weight="bold" lengthAdjust="spacing" textLength="88.71" x="786" y="337.5332">TrunkService</text></g><!--cluster SpeedService--><g class="cluster" data-entity="SpeedService" data-source-line="23" data-uid="ent0011" id="cluster_SpeedService"><path d="M526.5,321 L619.334,321 A3.75,3.75 0 0 1 621.834,323.5 L628.834,344.6094 L731.5,344.6094 A2.5,2.5 0 0 1 734,347.1094 L734,436.5 A2.5,2.5 0 0 1 731.5,439 L526.5,439 A2.5,2.5 0 0 1 524,436.5 L524,323.5 A2.5,2.5 0 0 1 526.5,321" fill="none" style="stroke:#000000;stroke-width:1.5;"/><line style="stroke:#000000;stroke-width:1.5;" x1="524" x2="628.834" y1="344.6094" y2="344.6094"/><text fill="#000000" font-family="sans-serif" font-size="14" font-weight="bold" lengthAdjust="spacing" textLength="91.834" x="528" y="337.5332">SpeedService</text></g><!--class CSdvObject--><g class="entity" data-entity="CSdvObject" data-source-line="10" data-uid="ent0003" id="entity_CSdvObject"><rect fill="#F1F1F1" height="118.4375" rx="2.5" ry="2.5" style="stroke:#181818;stroke-width:0.5;" width="412.7705" x="22.5" y="331"/><ellipse cx="187.2871" cy="347" fill="#ADD1B2" rx="11" ry="11" style="stroke:#181818;stroke-width:1;"/><path d="M190.0527,342.875 Q190.209,342.6563 190.3965,342.5469 Q190.584,342.4375 190.8027,342.4375 Q191.1777,342.4375 191.4121,342.6953 Q191.6465,342.9531 191.6465,343.5625 L191.6465,345.0156 Q191.6465,345.625 191.4121,345.8906 Q191.1777,346.1563 190.8027,346.1563 Q190.459,346.1563 190.2559,345.9531 Q190.0527,345.7656 189.9434,345.25 Q189.8965,344.8906 189.709,344.7031 Q189.3809,344.3281 188.7715,344.1094 Q188.1621,343.8906 187.5371,343.8906 Q186.7715,343.8906 186.1387,344.2188 Q185.5059,344.5469 185.0137,345.2969 Q184.5215,346.0469 184.5215,347.0781 L184.5215,348.1719 Q184.5215,349.4063 185.4121,350.2266 Q186.3027,351.0469 187.8965,351.0469 Q188.834,351.0469 189.4902,350.7969 Q189.8809,350.6406 190.3027,350.2031 Q190.5684,349.9375 190.7168,349.8594 Q190.8652,349.7813 191.0684,349.7813 Q191.3965,349.7813 191.6543,350.0391 Q191.9121,350.2969 191.9121,350.6406 Q191.9121,350.9844 191.5684,351.3906 Q191.0684,351.9688 190.2715,352.2969 Q189.1934,352.75 187.8965,352.75 Q186.3809,352.75 185.1777,352.125 Q184.1934,351.625 183.5059,350.5547 Q182.8184,349.4844 182.8184,348.2031 L182.8184,347.0469 Q182.8184,345.7188 183.4355,344.5703 Q184.0527,343.4219 185.1465,342.8047 Q186.2402,342.1875 187.4746,342.1875 Q188.209,342.1875 188.8574,342.3516 Q189.5059,342.5156 190.0527,342.875 Z " fill="#000000"/><text fill="#000000" font-family="sans-serif" font-size="14" lengthAdjust="spacing" textLength="74.6963" x="207.7871" y="352.7285">CSdvObject</text><line style="stroke:#181818;stroke-width:0.5;" x1="23.5" x2="434.2705" y1="363" y2="363"/><line style="stroke:#181818;stroke-width:0.5;" x1="23.5" x2="434.2705" y1="371" y2="371"/><ellipse cx="33.5" cy="385.3047" fill="#84BE84" rx="3" ry="3" style="stroke:#038048;stroke-width:1;"/><text fill="#000000" font-family="sans-serif" font-size="14" lengthAdjust="spacing" text-decoration="underline" textLength="336.9365" x="42.5" y="389.5332">sdv::sequence&lt;sdv::u8string&gt; GetClassAliasesStatic()</text><ellipse cx="33.5" cy="402.9141" fill="#84BE84" rx="3" ry="3" style="stroke:#038048;stroke-width:1;"/><text fill="#000000" font-family="sans-serif" font-size="14" lengthAdjust="spacing" text-decoration="underline" textLength="272.3301" x="42.5" y="407.1426">sdv::u8string GetDefaultObjectNameStatic()</text><ellipse cx="33.5" cy="420.5234" fill="#84BE84" rx="3" ry="3" style="stroke:#038048;stroke-width:1;"/><text fill="#000000" font-family="sans-serif" font-size="14" lengthAdjust="spacing" text-decoration="underline" textLength="143.9648" x="42.5" y="424.752">bool IsSingletonStatic()</text><ellipse cx="33.5" cy="438.1328" fill="#84BE84" rx="3" ry="3" style="stroke:#038048;stroke-width:1;"/><text fill="#000000" font-family="sans-serif" font-size="14" lengthAdjust="spacing" text-decoration="underline" textLength="386.7705" x="42.5" y="442.3613">sdv::sequence&lt;sdv::u8string&gt; GetObjectDependenciesStatic()</text></g><!--class IVSS_SetOpen--><g class="entity" data-entity="IVSS_SetOpen" data-source-line="18" data-uid="ent0005" id="entity_IVSS_SetOpen"><rect fill="#F1F1F1" height="65.6094" rx="2.5" ry="2.5" style="stroke:#181818;stroke-width:0.5;" width="170.7715" x="798.5" y="357"/><ellipse cx="833.2191" cy="373" fill="#B4A7E5" rx="11" ry="11" style="stroke:#181818;stroke-width:1;"/><path d="M834.1723,369.6406 L834.1723,376.2969 L835.891,376.2969 Q836.5004,376.2969 836.766,376.5313 Q837.0316,376.7656 837.0316,377.1563 Q837.0316,377.5313 836.766,377.7656 Q836.5004,378 835.891,378 L830.7504,378 Q830.141,378 829.8754,377.7656 Q829.6098,377.5313 829.6098,377.1406 Q829.6098,376.7656 829.8754,376.5313 Q830.141,376.2969 830.7504,376.2969 L832.4691,376.2969 L832.4691,369.6406 L830.7504,369.6406 Q830.141,369.6406 829.8754,369.4063 Q829.6098,369.1719 829.6098,368.7813 Q829.6098,368.4063 829.8754,368.1719 Q830.141,367.9375 830.7504,367.9375 L835.891,367.9375 Q836.5004,367.9375 836.766,368.1719 Q837.0316,368.4063 837.0316,368.7813 Q837.0316,369.1719 836.766,369.4063 Q836.5004,369.6406 835.891,369.6406 L834.1723,369.6406 Z " fill="#000000"/><text fill="#000000" font-family="sans-serif" font-size="14" font-style="italic" lengthAdjust="spacing" textLength="94.9512" x="851.6012" y="378.7285">IVSS_SetOpen</text><line style="stroke:#181818;stroke-width:0.5;" x1="799.5" x2="968.2715" y1="389" y2="389"/><line style="stroke:#181818;stroke-width:0.5;" x1="799.5" x2="968.2715" y1="397" y2="397"/><text fill="#000000" font-family="sans-serif" font-size="14" font-style="italic" lengthAdjust="spacing" textLength="158.7715" x="804.5" y="415.5332">bool SetOpen(bool value)</text></g><!--class IVSS_SetSpeed_Event--><g class="entity" data-entity="IVSS_SetSpeed_Event" data-source-line="23" data-uid="ent0010" id="entity_IVSS_SetSpeed_Event"><rect fill="#F1F1F1" height="65.6094" rx="2.5" ry="2.5" style="stroke:#181818;stroke-width:0.5;" width="176.7715" x="540.5" y="357"/><ellipse cx="555.5" cy="373" fill="#B4A7E5" rx="11" ry="11" style="stroke:#181818;stroke-width:1;"/><path d="M556.4531,369.6406 L556.4531,376.2969 L558.1719,376.2969 Q558.7813,376.2969 559.0469,376.5313 Q559.3125,376.7656 559.3125,377.1563 Q559.3125,377.5313 559.0469,377.7656 Q558.7813,378 558.1719,378 L553.0313,378 Q552.4219,378 552.1563,377.7656 Q551.8906,377.5313 551.8906,377.1406 Q551.8906,376.7656 552.1563,376.5313 Q552.4219,376.2969 553.0313,376.2969 L554.75,376.2969 L554.75,369.6406 L553.0313,369.6406 Q552.4219,369.6406 552.1563,369.4063 Q551.8906,369.1719 551.8906,368.7813 Q551.8906,368.4063 552.1563,368.1719 Q552.4219,367.9375 553.0313,367.9375 L558.1719,367.9375 Q558.7813,367.9375 559.0469,368.1719 Q559.3125,368.4063 559.3125,368.7813 Q559.3125,369.1719 559.0469,369.4063 Q558.7813,369.6406 558.1719,369.6406 L556.4531,369.6406 Z " fill="#000000"/><text fill="#000000" font-family="sans-serif" font-size="14" font-style="italic" lengthAdjust="spacing" textLength="144.7715" x="569.5" y="378.7285">IVSS_SetSpeed_Event</text><line style="stroke:#181818;stroke-width:0.5;" x1="541.5" x2="716.2715" y1="389" y2="389"/><line style="stroke:#181818;stroke-width:0.5;" x1="541.5" x2="716.2715" y1="397" y2="397"/><text fill="#000000" font-family="sans-serif" font-size="14" font-style="italic" lengthAdjust="spacing" textLength="164.2129" x="546.5" y="415.5332">void SetSpeed(float value)</text></g><!--class CBasicServiceVehicleTrunk--><g class="entity" data-entity="CBasicServiceVehicleTrunk" data-source-line="2" data-uid="ent0002" id="entity_CBasicServiceVehicleTrunk"><rect fill="#F1F1F1" height="118.4375" rx="2.5" ry="2.5" style="stroke:#181818;stroke-width:0.5;" width="677.376" x="217.5" y="7"/><ellipse cx="465.5728" cy="23" fill="#ADD1B2" rx="11" ry="11" style="stroke:#181818;stroke-width:1;"/><path d="M468.3384,18.875 Q468.4946,18.6563 468.6821,18.5469 Q468.8696,18.4375 469.0884,18.4375 Q469.4634,18.4375 469.6978,18.6953 Q469.9321,18.9531 469.9321,19.5625 L469.9321,21.0156 Q469.9321,21.625 469.6978,21.8906 Q469.4634,22.1563 469.0884,22.1563 Q468.7446,22.1563 468.5415,21.9531 Q468.3384,21.7656 468.229,21.25 Q468.1821,20.8906 467.9946,20.7031 Q467.6665,20.3281 467.0571,20.1094 Q466.4478,19.8906 465.8228,19.8906 Q465.0571,19.8906 464.4243,20.2188 Q463.7915,20.5469 463.2993,21.2969 Q462.8071,22.0469 462.8071,23.0781 L462.8071,24.1719 Q462.8071,25.4063 463.6978,26.2266 Q464.5884,27.0469 466.1821,27.0469 Q467.1196,27.0469 467.7759,26.7969 Q468.1665,26.6406 468.5884,26.2031 Q468.854,25.9375 469.0024,25.8594 Q469.1509,25.7813 469.354,25.7813 Q469.6821,25.7813 469.9399,26.0391 Q470.1978,26.2969 470.1978,26.6406 Q470.1978,26.9844 469.854,27.3906 Q469.354,27.9688 468.5571,28.2969 Q467.479,28.75 466.1821,28.75 Q464.6665,28.75 463.4634,28.125 Q462.479,27.625 461.7915,26.5547 Q461.104,25.4844 461.104,24.2031 L461.104,23.0469 Q461.104,21.7188 461.7212,20.5703 Q462.3384,19.4219 463.4321,18.8047 Q464.5259,18.1875 465.7603,18.1875 Q466.4946,18.1875 467.1431,18.3516 Q467.7915,18.5156 468.3384,18.875 Z " fill="#000000"/><text fill="#000000" font-family="sans-serif" font-size="14" lengthAdjust="spacing" textLength="172.7305" x="486.0728" y="28.7285">CBasicServiceVehicleTrunk</text><line style="stroke:#181818;stroke-width:0.5;" x1="218.5" x2="893.876" y1="39" y2="39"/><rect fill="none" height="6" style="stroke:#C82930;stroke-width:1;" width="6" x="225.5" y="50.3047"/><text fill="#000000" font-family="sans-serif" font-size="14" lengthAdjust="spacing" textLength="394.4951" x="237.5" y="57.5332">vss::Vehicle::Body::TrunkDevice::IVSS_WriteOpen* m_ptrOpen</text><line style="stroke:#181818;stroke-width:0.5;" x1="218.5" x2="893.876" y1="64.6094" y2="64.6094"/><ellipse cx="228.5" cy="78.9141" fill="#84BE84" rx="3" ry="3" style="stroke:#038048;stroke-width:1;"/><text fill="#000000" font-family="sans-serif" font-size="14" font-style="italic" lengthAdjust="spacing" textLength="164.2129" x="237.5" y="83.1426">void SetSpeed(float value)</text><text fill="#000000" font-family="sans-serif" font-size="14" font-style="italic" lengthAdjust="spacing" textLength="158.7715" x="237.5" y="100.752">bool SetOpen(bool value)</text><ellipse cx="228.5" cy="114.1328" fill="#84BE84" rx="3" ry="3" style="stroke:#038048;stroke-width:1;"/><text fill="#000000" font-family="sans-serif" font-size="14" font-style="italic" lengthAdjust="spacing" textLength="651.376" x="237.5" y="118.3613">RegisterOnSignalChangeOfVehicleSpeed(vss::Vehicle::SpeedService::IVSS_SetSpeed_Event* callback)</text></g><!--link CBasicServiceVehicleTrunk to CSdvObject--><g class="link" data-entity-1="CBasicServiceVehicleTrunk" data-entity-2="CSdvObject" data-source-line="28" data-uid="lnk12" id="link_CBasicServiceVehicleTrunk_CSdvObject"><path codeLine="28" d="M496.78,125.31 C437.61,183.58 359.9963,260.0112 300.8763,318.2212" fill="none" id="CBasicServiceVehicleTrunk-to-CSdvObject" style="stroke:#181818;stroke-width:1;"/><polygon fill="none" points="288.05,330.85,305.0859,322.4966,296.6666,313.9458,288.05,330.85" style="stroke:#181818;stroke-width:1;"/><text fill="#000000" font-family="sans-serif" font-size="13" lengthAdjust="spacing" textLength="42.6309" x="460" y="169.4951">Inherits</text></g><!--link CBasicServiceVehicleTrunk to IVSS_SetOpen--><g class="link" data-entity-1="CBasicServiceVehicleTrunk" data-entity-2="IVSS_SetOpen" data-source-line="29" data-uid="lnk13" id="link_CBasicServiceVehicleTrunk_IVSS_SetOpen"><path codeLine="29" d="M661.08,125.04 C686.34,141.42 712.28,160.44 734,181 C791.08,235.01 831.6854,297.869 857.0354,341.359" fill="none" id="CBasicServiceVehicleTrunk-to-IVSS_SetOpen" style="stroke:#181818;stroke-width:1;stroke-dasharray:7,7;"/><polygon fill="none" points="866.1,356.91,862.2191,338.3375,851.8518,344.3805,866.1,356.91" style="stroke:#181818;stroke-width:1;"/><text fill="#000000" font-family="sans-serif" font-size="13" lengthAdjust="spacing" textLength="67.1899" x="722" y="169.4951">Implements</text></g><!--SRC=[bLDRJy8m57xdLvn7Be5dqnWI7SRm8ear-4ZEkWDKIZTtkYLcyjzjDnP1POOzB6lptVhr39WSC6MOeqjp4A870CeWCqJto5f9oakjQ4bRhGozv8NT1KWLNluPLHYpor6v0vIfJa2IanbHqb-R51sKQ0eQ7C4ds3XDJS0kChBzUd66F9LzfercH_d2IhsnQA8jsWqjriT8ZLl9BCHnHuXwxvXSYFbIobMRQ_LGadL3K6XCZ6hNEexF5UxJv4E8-hWpEf5vpRMZ47e8-rNcyl0P50wzx-8uAOM8P58kuZTIxhIkYXqwhGumga5CxmLPHRVrghZnHzPsCuL7Sb6GkZCQcLZMfFxWRv6M5bWpMcDXN6FyX7kwIAqxdxFqH4CkjTqU7K4Rhndv8X8FqUTncrxcrj_V6XN1nPP_tLRRR7NTy7GR_ZiO5noxHxlnlFY_m7ZyEVqv5I1yo2tvSU9kycJYoTVL5hJtcQ6zFn1_0G00]--></g></svg>