<svg xmlns="http://www.w3.org/2000/svg" xmlns:xlink="http://www.w3.org/1999/xlink" contentStyleType="text/css" data-diagram-type="CLASS" height="890px" preserveAspectRatio="none" style="width:1335px;height:890px;background:#FFFFFF;" version="1.1" viewBox="0 0 1335 890" width="1335px" zoomAndPan="magnify"><defs/><g><!--cluster Headlight Application executable--><g class="cluster" data-entity="Headlight Application executable" data-uid="ent0002" id="cluster_Headlight Application executable"><path d="M14.5,6 L235.6514,6 A3.75,3.75 0 0 1 238.1514,8.5 L245.1514,29.6094 L1197.5,29.6094 A2.5,2.5 0 0 1 1200,32.1094 L1200,508.5 A2.5,2.5 0 0 1 1197.5,511 L14.5,511 A2.5,2.5 0 0 1 12,508.5 L12,8.5 A2.5,2.5 0 0 1 14.5,6" fill="none" style="stroke:#000000;stroke-width:1.5;"/><line style="stroke:#000000;stroke-width:1.5;" x1="12" x2="245.1514" y1="29.6094" y2="29.6094"/><text fill="#000000" font-family="sans-serif" font-size="14" font-weight="bold" lengthAdjust="spacing" textLength="220.1514" x="16" y="22.5332">Headlight Application executable</text></g><!--cluster vss--><g class="cluster" data-entity="vss" data-source-line="51" data-uid="ent0006" id="cluster_vss"><path d="M8.5,561 L32.8584,561 A3.75,3.75 0 0 1 35.3584,563.5 L42.3584,584.6094 L1325.5,584.6094 A2.5,2.5 0 0 1 1328,587.1094 L1328,880.5 A2.5,2.5 0 0 1 1325.5,883 L8.5,883 A2.5,2.5 0 0 1 6,880.5 L6,563.5 A2.5,2.5 0 0 1 8.5,561" fill="none" style="stroke:#000000;stroke-width:1.5;"/><line style="stroke:#000000;stroke-width:1.5;" x1="6" x2="42.3584" y1="584.6094" y2="584.6094"/><text fill="#000000" font-family="sans-serif" font-size="14" font-weight="bold" lengthAdjust="spacing" textLength="23.3584" x="10" y="577.5332">vss</text></g><!--cluster Vehicle--><g class="cluster" data-entity="Vehicle" data-source-line="51" data-uid="ent0007" id="cluster_Vehicle"><path d="M32.5,605 L82.5273,605 A3.75,3.75 0 0 1 85.0273,607.5 L92.0273,628.6094 L1301.5,628.6094 A2.5,2.5 0 0 1 1304,631.1094 L1304,856.5 A2.5,2.5 0 0 1 1301.5,859 L32.5,859 A2.5,2.5 0 0 1 30,856.5 L30,607.5 A2.5,2.5 0 0 1 32.5,605" fill="none" style="stroke:#000000;stroke-width:1.5;"/><line style="stroke:#000000;stroke-width:1.5;" x1="30" x2="92.0273" y1="628.6094" y2="628.6094"/><text fill="#000000" font-family="sans-serif" font-size="14" font-weight="bold" lengthAdjust="spacing" textLength="49.0273" x="34" y="621.5332">Vehicle</text></g><!--cluster Position--><g class="cluster" data-entity="Position" data-source-line="51" data-uid="ent0008" id="cluster_Position"><path d="M56.5,649 L112.7207,649 A3.75,3.75 0 0 1 115.2207,651.5 L122.2207,672.6094 L1277.5,672.6094 A2.5,2.5 0 0 1 1280,675.1094 L1280,832.5 A2.5,2.5 0 0 1 1277.5,835 L56.5,835 A2.5,2.5 0 0 1 54,832.5 L54,651.5 A2.5,2.5 0 0 1 56.5,649" fill="none" style="stroke:#000000;stroke-width:1.5;"/><line style="stroke:#000000;stroke-width:1.5;" x1="54" x2="122.2207" y1="672.6094" y2="672.6094"/><text fill="#000000" font-family="sans-serif" font-size="14" font-weight="bold" lengthAdjust="spacing" textLength="55.2207" x="58" y="665.5332">Position</text></g><!--cluster CurrentLatitudeService--><g class="cluster" data-entity="CurrentLatitudeService" data-source-line="51" data-uid="ent0009" id="cluster_CurrentLatitudeService"><path d="M80.5,693 L236.3203,693 A3.75,3.75 0 0 1 238.8203,695.5 L245.8203,716.6094 L341.5,716.6094 A2.5,2.5 0 0 1 344,719.1094 L344,808.5 A2.5,2.5 0 0 1 341.5,811 L80.5,811 A2.5,2.5 0 0 1 78,808.5 L78,695.5 A2.5,2.5 0 0 1 80.5,693" fill="none" style="stroke:#000000;stroke-width:1.5;"/><line style="stroke:#000000;stroke-width:1.5;" x1="78" x2="245.8203" y1="716.6094" y2="716.6094"/><text fill="#000000" font-family="sans-serif" font-size="14" font-weight="bold" lengthAdjust="spacing" textLength="154.8203" x="82" y="709.5332">CurrentLatitudeService</text></g><!--cluster CurrentLongitudeService--><g class="cluster" data-entity="CurrentLongitudeService" data-source-line="55" data-uid="ent0011" id="cluster_CurrentLongitudeService"><path d="M370.5,693 L539.5273,693 A3.75,3.75 0 0 1 542.0273,695.5 L549.0273,716.6094 L641.5,716.6094 A2.5,2.5 0 0 1 644,719.1094 L644,808.5 A2.5,2.5 0 0 1 641.5,811 L370.5,811 A2.5,2.5 0 0 1 368,808.5 L368,695.5 A2.5,2.5 0 0 1 370.5,693" fill="none" style="stroke:#000000;stroke-width:1.5;"/><line style="stroke:#000000;stroke-width:1.5;" x1="368" x2="549.0273" y1="716.6094" y2="716.6094"/><text fill="#000000" font-family="sans-serif" font-size="14" font-weight="bold" lengthAdjust="spacing" textLength="168.0273" x="372" y="709.5332">CurrentLongitudeService</text></g><!--cluster CurrentLatitudeDevice--><g class="cluster" data-entity="CurrentLatitudeDevice" data-source-line="62" data-uid="ent0013" id="cluster_CurrentLatitudeDevice"><path d="M670.5,693 L821.6445,693 A3.75,3.75 0 0 1 824.1445,695.5 L831.1445,716.6094 L941.5,716.6094 A2.5,2.5 0 0 1 944,719.1094 L944,808.5 A2.5,2.5 0 0 1 941.5,811 L670.5,811 A2.5,2.5 0 0 1 668,808.5 L668,695.5 A2.5,2.5 0 0 1 670.5,693" fill="none" style="stroke:#000000;stroke-width:1.5;"/><line style="stroke:#000000;stroke-width:1.5;" x1="668" x2="831.1445" y1="716.6094" y2="716.6094"/><text fill="#000000" font-family="sans-serif" font-size="14" font-weight="bold" lengthAdjust="spacing" textLength="150.1445" x="672" y="709.5332">CurrentLatitudeDevice</text></g><!--cluster CurrentLongitudeDevice--><g class="cluster" data-entity="CurrentLongitudeDevice" data-source-line="66" data-uid="ent0015" id="cluster_CurrentLongitudeDevice"><path d="M970.5,693 L1134.8516,693 A3.75,3.75 0 0 1 1137.3516,695.5 L1144.3516,716.6094 L1253.5,716.6094 A2.5,2.5 0 0 1 1256,719.1094 L1256,808.5 A2.5,2.5 0 0 1 1253.5,811 L970.5,811 A2.5,2.5 0 0 1 968,808.5 L968,695.5 A2.5,2.5 0 0 1 970.5,693" fill="none" style="stroke:#000000;stroke-width:1.5;"/><line style="stroke:#000000;stroke-width:1.5;" x1="968" x2="1144.3516" y1="716.6094" y2="716.6094"/><text fill="#000000" font-family="sans-serif" font-size="14" font-weight="bold" lengthAdjust="spacing" textLength="163.3516" x="972" y="709.5332">CurrentLongitudeDevice</text></g><!--class CAutoHeadlightAppSimulate--><g class="entity" data-entity="CAutoHeadlightAppSimulate" data-source-line="4" data-uid="ent0003" id="entity_CAutoHeadlightAppSimulate"><rect fill="#F1F1F1" height="276.9219" rx="2.5" ry="2.5" style="stroke:#181818;stroke-width:0.5;" width="365.2949" x="28.5" y="130"/><ellipse cx="118.1772" cy="146" fill="#ADD1B2" rx="11" ry="11" style="stroke:#181818;stroke-width:1;"/><path d="M120.9429,141.875 Q121.0991,141.6563 121.2866,141.5469 Q121.4741,141.4375 121.6929,141.4375 Q122.0679,141.4375 122.3022,141.6953 Q122.5366,141.9531 122.5366,142.5625 L122.5366,144.0156 Q122.5366,144.625 122.3022,144.8906 Q122.0679,145.1563 121.6929,145.1563 Q121.3491,145.1563 121.146,144.9531 Q120.9429,144.7656 120.8335,144.25 Q120.7866,143.8906 120.5991,143.7031 Q120.271,143.3281 119.6616,143.1094 Q119.0522,142.8906 118.4272,142.8906 Q117.6616,142.8906 117.0288,143.2188 Q116.396,143.5469 115.9038,144.2969 Q115.4116,145.0469 115.4116,146.0781 L115.4116,147.1719 Q115.4116,148.4063 116.3022,149.2266 Q117.1929,150.0469 118.7866,150.0469 Q119.7241,150.0469 120.3804,149.7969 Q120.771,149.6406 121.1929,149.2031 Q121.4585,148.9375 121.6069,148.8594 Q121.7554,148.7813 121.9585,148.7813 Q122.2866,148.7813 122.5444,149.0391 Q122.8022,149.2969 122.8022,149.6406 Q122.8022,149.9844 122.4585,150.3906 Q121.9585,150.9688 121.1616,151.2969 Q120.0835,151.75 118.7866,151.75 Q117.271,151.75 116.0679,151.125 Q115.0835,150.625 114.396,149.5547 Q113.7085,148.4844 113.7085,147.2031 L113.7085,146.0469 Q113.7085,144.7188 114.3257,143.5703 Q114.9429,142.4219 116.0366,141.8047 Q117.1304,141.1875 118.3647,141.1875 Q119.0991,141.1875 119.7476,141.3516 Q120.396,141.5156 120.9429,141.875 Z " fill="#000000"/><text fill="#000000" font-family="sans-serif" font-size="14" lengthAdjust="spacing" textLength="177.4404" x="138.6772" y="151.7285">CAutoHeadlightAppSimulate</text><line style="stroke:#181818;stroke-width:0.5;" x1="29.5" x2="392.7949" y1="162" y2="162"/><line style="stroke:#181818;stroke-width:0.5;" x1="29.5" x2="392.7949" y1="170" y2="170"/><ellipse cx="39.5" cy="184.3047" fill="#84BE84" rx="3" ry="3" style="stroke:#038048;stroke-width:1;"/><text fill="#000000" font-family="sans-serif" font-size="14" lengthAdjust="spacing" textLength="90.2617" x="48.5" y="188.5332">bool Initialize()</text><ellipse cx="39.5" cy="201.9141" fill="#84BE84" rx="3" ry="3" style="stroke:#038048;stroke-width:1;"/><text fill="#000000" font-family="sans-serif" font-size="14" lengthAdjust="spacing" textLength="101.165" x="48.5" y="206.1426">void Shutdown()</text><ellipse cx="39.5" cy="219.5234" fill="#84BE84" rx="3" ry="3" style="stroke:#038048;stroke-width:1;"/><text fill="#000000" font-family="sans-serif" font-size="14" lengthAdjust="spacing" textLength="142.3926" x="48.5" y="223.752">void ExecuteTestRun()</text><rect fill="#F24D5C" height="6" style="stroke:#C82930;stroke-width:1;" width="6" x="36.5" y="234.1328"/><text fill="#000000" font-family="sans-serif" font-size="14" lengthAdjust="spacing" textLength="80.917" x="48.5" y="241.3613">bool KeyHit()</text><rect fill="#F24D5C" height="6" style="stroke:#C82930;stroke-width:1;" width="6" x="36.5" y="251.7422"/><text fill="#000000" font-family="sans-serif" font-size="14" lengthAdjust="spacing" textLength="93.3584" x="48.5" y="258.9707">char GetChar()</text><rect fill="#F24D5C" height="6" style="stroke:#C82930;stroke-width:1;" width="6" x="36.5" y="269.3516"/><text fill="#000000" font-family="sans-serif" font-size="14" lengthAdjust="spacing" textLength="177.3926" x="48.5" y="276.5801">bool GetAccessToServices()</text><rect fill="#F24D5C" height="6" style="stroke:#C82930;stroke-width:1;" width="6" x="36.5" y="286.9609"/><text fill="#000000" font-family="sans-serif" font-size="14" lengthAdjust="spacing" textLength="212.4199" x="48.5" y="294.1895">bool RegisterSignalsSimDatalink()</text><rect fill="#F24D5C" height="6" style="stroke:#C82930;stroke-width:1;" width="6" x="36.5" y="304.5703"/><text fill="#000000" font-family="sans-serif" font-size="14" lengthAdjust="spacing" textLength="196.0752" x="48.5" y="311.7988">void ResetSignalsSimDatalink()</text><rect fill="#F24D5C" height="6" style="stroke:#C82930;stroke-width:1;" width="6" x="36.5" y="322.1797"/><text fill="#000000" font-family="sans-serif" font-size="14" lengthAdjust="spacing" textLength="248.9717" x="48.5" y="329.4082">bool IsSDVFrameworkEnvironmentSet()</text><rect fill="#F24D5C" height="6" style="stroke:#C82930;stroke-width:1;" width="6" x="36.5" y="339.7891"/><text fill="#000000" font-family="sans-serif" font-size="14" lengthAdjust="spacing" textLength="261.4678" x="48.5" y="347.0176">virtual void SetCurrentLatitude(float value)</text><rect fill="#F24D5C" height="6" style="stroke:#C82930;stroke-width:1;" width="6" x="36.5" y="357.3984"/><text fill="#000000" font-family="sans-serif" font-size="14" lengthAdjust="spacing" textLength="273.1504" x="48.5" y="364.627">virtual void SetCurrentLongitude(float value)</text><rect fill="#F24D5C" height="6" style="stroke:#C82930;stroke-width:1;" width="6" x="36.5" y="375.0078"/><text fill="#000000" font-family="sans-serif" font-size="14" lengthAdjust="spacing" textLength="327.6123" x="48.5" y="382.2363">void CallbackToSetCurrentLatitude(sdv::any_t value)</text><rect fill="#F24D5C" height="6" style="stroke:#C82930;stroke-width:1;" width="6" x="36.5" y="392.6172"/><text fill="#000000" font-family="sans-serif" font-size="14" lengthAdjust="spacing" textLength="339.2949" x="48.5" y="399.8457">void CallbackToSetCurrentLongitude(sdv::any_t value)</text></g><!--class CConsole--><g class="entity" data-entity="CConsole" data-source-line="23" data-uid="ent0004" id="entity_CConsole"><rect fill="#F1F1F1" height="453.0156" rx="2.5" ry="2.5" style="stroke:#181818;stroke-width:0.5;" width="755.1211" x="428.5" y="42"/><ellipse cx="771.0728" cy="58" fill="#ADD1B2" rx="11" ry="11" style="stroke:#181818;stroke-width:1;"/><path d="M773.8384,53.875 Q773.9946,53.6563 774.1821,53.5469 Q774.3696,53.4375 774.5884,53.4375 Q774.9634,53.4375 775.1978,53.6953 Q775.4321,53.9531 775.4321,54.5625 L775.4321,56.0156 Q775.4321,56.625 775.1978,56.8906 Q774.9634,57.1563 774.5884,57.1563 Q774.2446,57.1563 774.0415,56.9531 Q773.8384,56.7656 773.729,56.25 Q773.6821,55.8906 773.4946,55.7031 Q773.1665,55.3281 772.5571,55.1094 Q771.9478,54.8906 771.3228,54.8906 Q770.5571,54.8906 769.9243,55.2188 Q769.2915,55.5469 768.7993,56.2969 Q768.3071,57.0469 768.3071,58.0781 L768.3071,59.1719 Q768.3071,60.4063 769.1978,61.2266 Q770.0884,62.0469 771.6821,62.0469 Q772.6196,62.0469 773.2759,61.7969 Q773.6665,61.6406 774.0884,61.2031 Q774.354,60.9375 774.5024,60.8594 Q774.6509,60.7813 774.854,60.7813 Q775.1821,60.7813 775.4399,61.0391 Q775.6978,61.2969 775.6978,61.6406 Q775.6978,61.9844 775.354,62.3906 Q774.854,62.9688 774.0571,63.2969 Q772.979,63.75 771.6821,63.75 Q770.1665,63.75 768.9634,63.125 Q767.979,62.625 767.2915,61.5547 Q766.604,60.4844 766.604,59.2031 L766.604,58.0469 Q766.604,56.7188 767.2212,55.5703 Q767.8384,54.4219 768.9321,53.8047 Q770.0259,53.1875 771.2603,53.1875 Q771.9946,53.1875 772.6431,53.3516 Q773.2915,53.5156 773.8384,53.875 Z " fill="#000000"/><text fill="#000000" font-family="sans-serif" font-size="14" lengthAdjust="spacing" textLength="61.4756" x="791.5728" y="63.7285">CConsole</text><line style="stroke:#181818;stroke-width:0.5;" x1="429.5" x2="1182.6211" y1="74" y2="74"/><line style="stroke:#181818;stroke-width:0.5;" x1="429.5" x2="1182.6211" y1="82" y2="82"/><ellipse cx="439.5" cy="96.3047" fill="#84BE84" rx="3" ry="3" style="stroke:#038048;stroke-width:1;"/><text fill="#000000" font-family="sans-serif" font-size="14" lengthAdjust="spacing" textLength="113.5996" x="448.5" y="100.5332">void PrintHeader()</text><ellipse cx="439.5" cy="113.9141" fill="#84BE84" rx="3" ry="3" style="stroke:#038048;stroke-width:1;"/><text fill="#000000" font-family="sans-serif" font-size="14" lengthAdjust="spacing" textLength="190.6406" x="448.5" y="118.1426">bool PrepareDataConsumers()</text><ellipse cx="439.5" cy="131.5234" fill="#84BE84" rx="3" ry="3" style="stroke:#038048;stroke-width:1;"/><text fill="#000000" font-family="sans-serif" font-size="14" lengthAdjust="spacing" textLength="121.3857" x="448.5" y="135.752">void ResetSignals()</text><ellipse cx="439.5" cy="149.1328" fill="#84BE84" rx="3" ry="3" style="stroke:#038048;stroke-width:1;"/><text fill="#000000" font-family="sans-serif" font-size="14" lengthAdjust="spacing" textLength="187.5371" x="448.5" y="153.3613">void StartUpdateDataThread()</text><ellipse cx="439.5" cy="166.7422" fill="#84BE84" rx="3" ry="3" style="stroke:#038048;stroke-width:1;"/><text fill="#000000" font-family="sans-serif" font-size="14" lengthAdjust="spacing" textLength="186.7715" x="448.5" y="170.9707">void StopUpdateDataThread()</text><rect fill="#F24D5C" height="6" style="stroke:#C82930;stroke-width:1;" width="6" x="436.5" y="181.3516"/><text fill="#000000" font-family="sans-serif" font-size="14" lengthAdjust="spacing" textLength="231.8818" x="448.5" y="188.5801">void WriteCurrentLatitude(float value)</text><rect fill="#F24D5C" height="6" style="stroke:#C82930;stroke-width:1;" width="6" x="436.5" y="198.9609"/><text fill="#000000" font-family="sans-serif" font-size="14" lengthAdjust="spacing" textLength="243.5645" x="448.5" y="206.1895">void WriteCurrentLongitude(float value)</text><rect fill="#F24D5C" height="6" style="stroke:#C82930;stroke-width:1;" width="6" x="436.5" y="216.5703"/><text fill="#000000" font-family="sans-serif" font-size="14" lengthAdjust="spacing" textLength="220.2334" x="448.5" y="223.7988">void SetCurrentLatitude(float value)</text><rect fill="#F24D5C" height="6" style="stroke:#C82930;stroke-width:1;" width="6" x="436.5" y="234.1797"/><text fill="#000000" font-family="sans-serif" font-size="14" lengthAdjust="spacing" textLength="231.916" x="448.5" y="241.4082">void SetCurrentLongitude(float value)</text><rect fill="#F24D5C" height="6" style="stroke:#C82930;stroke-width:1;" width="6" x="436.5" y="251.7891"/><text fill="#000000" font-family="sans-serif" font-size="14" lengthAdjust="spacing" textLength="137.7305" x="448.5" y="259.0176">bool RegisterSignals()</text><rect fill="#F24D5C" height="6" style="stroke:#C82930;stroke-width:1;" width="6" x="436.5" y="269.3984"/><text fill="#000000" font-family="sans-serif" font-size="14" lengthAdjust="spacing" textLength="290.2607" x="448.5" y="276.627">void CallbackCurrentLatitude(sdv::any_t value)</text><rect fill="#F24D5C" height="6" style="stroke:#C82930;stroke-width:1;" width="6" x="436.5" y="287.0078"/><text fill="#000000" font-family="sans-serif" font-size="14" lengthAdjust="spacing" textLength="301.9434" x="448.5" y="294.2363">void CallbackCurrentLongitude(sdv::any_t value)</text><rect fill="#F24D5C" height="6" style="stroke:#C82930;stroke-width:1;" width="6" x="436.5" y="304.6172"/><text fill="#000000" font-family="sans-serif" font-size="14" lengthAdjust="spacing" textLength="327.6123" x="448.5" y="311.8457">void CallbackToSetCurrentLatitude(sdv::any_t value)</text><rect fill="#F24D5C" height="6" style="stroke:#C82930;stroke-width:1;" width="6" x="436.5" y="322.2266"/><text fill="#000000" font-family="sans-serif" font-size="14" lengthAdjust="spacing" textLength="339.2949" x="448.5" y="329.4551">void CallbackToSetCurrentLongitude(sdv::any_t value)</text><rect fill="#F24D5C" height="6" style="stroke:#C82930;stroke-width:1;" width="6" x="436.5" y="339.8359"/><text fill="#000000" font-family="sans-serif" font-size="14" lengthAdjust="spacing" textLength="189.0957" x="448.5" y="347.0645">void UpdateDataThreadFunc()</text><rect fill="#F24D5C" height="6" style="stroke:#C82930;stroke-width:1;" width="6" x="436.5" y="357.4453"/><text fill="#000000" font-family="sans-serif" font-size="14" lengthAdjust="spacing" textLength="661.4521" x="448.5" y="364.6738">void UpdateTXSignal(SConsolePos sPos, const std::string&amp; label, sdv::core::CSignal&amp; signal, bool&amp; value)</text><rect fill="#F24D5C" height="6" style="stroke:#C82930;stroke-width:1;" width="6" x="436.5" y="375.0547"/><text fill="#000000" font-family="sans-serif" font-size="14" lengthAdjust="spacing" textLength="224.0889" x="448.5" y="382.2832">SConsolePos GetCursorPos() const</text><rect fill="#F24D5C" height="6" style="stroke:#C82930;stroke-width:1;" width="6" x="436.5" y="392.6641"/><text fill="#000000" font-family="sans-serif" font-size="14" lengthAdjust="spacing" textLength="249.7715" x="448.5" y="399.8926">void SetCursorPos(SConsolePos sPos);</text><rect fill="#F24D5C" height="6" style="stroke:#C82930;stroke-width:1;" width="6" x="436.5" y="410.2734"/><text fill="#000000" font-family="sans-serif" font-size="14" lengthAdjust="spacing" textLength="383.5781" x="448.5" y="417.502">void PrintText(SConsolePos sPos, const std::string&amp; rssText);</text><rect fill="#F24D5C" height="6" style="stroke:#C82930;stroke-width:1;" width="6" x="436.5" y="427.8828"/><text fill="#000000" font-family="sans-serif" font-size="14" lengthAdjust="spacing" textLength="675.3975" x="448.5" y="435.1113">void PrintValue(SConsolePos sPos, const std::string&amp; rssName, TValue tValue, const std::string&amp; rssStatus);</text><rect fill="#F24D5C" height="6" style="stroke:#C82930;stroke-width:1;" width="6" x="436.5" y="445.4922"/><text fill="#000000" font-family="sans-serif" font-size="14" lengthAdjust="spacing" textLength="487.5391" x="448.5" y="452.7207">std::string AlignString(const std::string&amp; message, uint32_t desiredLength = 0);</text><rect fill="#F24D5C" height="6" style="stroke:#C82930;stroke-width:1;" width="6" x="436.5" y="463.1016"/><text fill="#000000" font-family="sans-serif" font-size="14" lengthAdjust="spacing" textLength="700.2939" x="448.5" y="470.3301">inline void PrintValue(SConsolePos sPos, const std::string&amp; rssName, TValue tValue, const std::string&amp; rssUnits)</text><rect fill="#F24D5C" height="6" style="stroke:#C82930;stroke-width:1;" width="6" x="436.5" y="480.7109"/><text fill="#000000" font-family="sans-serif" font-size="14" lengthAdjust="spacing" textLength="729.1211" x="448.5" y="487.9395">inline void PrintValue&lt;bool&gt;(SConsolePos sPos, const std::string&amp; rssName, bool bValue, const std::string&amp; rssUnits)</text></g><!--class IVSS_SetCurrentLatitude_Event--><g class="entity" data-entity="IVSS_SetCurrentLatitude_Event" data-source-line="51" data-uid="ent0005" id="entity_IVSS_SetCurrentLatitude_Event"><rect fill="#F1F1F1" height="65.6094" rx="2.5" ry="2.5" style="stroke:#181818;stroke-width:0.5;" width="232.792" x="94.5" y="729"/><ellipse cx="109.5" cy="745" fill="#B4A7E5" rx="11" ry="11" style="stroke:#181818;stroke-width:1;"/><path d="M110.4531,741.6406 L110.4531,748.2969 L112.1719,748.2969 Q112.7813,748.2969 113.0469,748.5313 Q113.3125,748.7656 113.3125,749.1563 Q113.3125,749.5313 113.0469,749.7656 Q112.7813,750 112.1719,750 L107.0313,750 Q106.4219,750 106.1563,749.7656 Q105.8906,749.5313 105.8906,749.1406 Q105.8906,748.7656 106.1563,748.5313 Q106.4219,748.2969 107.0313,748.2969 L108.75,748.2969 L108.75,741.6406 L107.0313,741.6406 Q106.4219,741.6406 106.1563,741.4063 Q105.8906,741.1719 105.8906,740.7813 Q105.8906,740.4063 106.1563,740.1719 Q106.4219,739.9375 107.0313,739.9375 L112.1719,739.9375 Q112.7813,739.9375 113.0469,740.1719 Q113.3125,740.4063 113.3125,740.7813 Q113.3125,741.1719 113.0469,741.4063 Q112.7813,741.6406 112.1719,741.6406 L110.4531,741.6406 Z " fill="#000000"/><text fill="#000000" font-family="sans-serif" font-size="14" font-style="italic" lengthAdjust="spacing" textLength="200.792" x="123.5" y="750.7285">IVSS_SetCurrentLatitude_Event</text><line style="stroke:#181818;stroke-width:0.5;" x1="95.5" x2="326.292" y1="761" y2="761"/><line style="stroke:#181818;stroke-width:0.5;" x1="95.5" x2="326.292" y1="769" y2="769"/><text fill="#000000" font-family="sans-serif" font-size="14" font-style="italic" lengthAdjust="spacing" textLength="220.2334" x="100.5" y="787.5332">void SetCurrentLatitude(float value)</text></g><!--class IVSS_SetCurrentLongitude_Event--><g class="entity" data-entity="IVSS_SetCurrentLongitude_Event" data-source-line="55" data-uid="ent0010" id="entity_IVSS_SetCurrentLongitude_Event"><rect fill="#F1F1F1" height="65.6094" rx="2.5" ry="2.5" style="stroke:#181818;stroke-width:0.5;" width="244.4746" x="384" y="729"/><ellipse cx="399" cy="745" fill="#B4A7E5" rx="11" ry="11" style="stroke:#181818;stroke-width:1;"/><path d="M399.9531,741.6406 L399.9531,748.2969 L401.6719,748.2969 Q402.2813,748.2969 402.5469,748.5313 Q402.8125,748.7656 402.8125,749.1563 Q402.8125,749.5313 402.5469,749.7656 Q402.2813,750 401.6719,750 L396.5313,750 Q395.9219,750 395.6563,749.7656 Q395.3906,749.5313 395.3906,749.1406 Q395.3906,748.7656 395.6563,748.5313 Q395.9219,748.2969 396.5313,748.2969 L398.25,748.2969 L398.25,741.6406 L396.5313,741.6406 Q395.9219,741.6406 395.6563,741.4063 Q395.3906,741.1719 395.3906,740.7813 Q395.3906,740.4063 395.6563,740.1719 Q395.9219,739.9375 396.5313,739.9375 L401.6719,739.9375 Q402.2813,739.9375 402.5469,740.1719 Q402.8125,740.4063 402.8125,740.7813 Q402.8125,741.1719 402.5469,741.4063 Q402.2813,741.6406 401.6719,741.6406 L399.9531,741.6406 Z " fill="#000000"/><text fill="#000000" font-family="sans-serif" font-size="14" font-style="italic" lengthAdjust="spacing" textLength="212.4746" x="413" y="750.7285">IVSS_SetCurrentLongitude_Event</text><line style="stroke:#181818;stroke-width:0.5;" x1="385" x2="627.4746" y1="761" y2="761"/><line style="stroke:#181818;stroke-width:0.5;" x1="385" x2="627.4746" y1="769" y2="769"/><text fill="#000000" font-family="sans-serif" font-size="14" font-style="italic" lengthAdjust="spacing" textLength="231.916" x="390" y="787.5332">void SetCurrentLongitude(float value)</text></g><!--class IVSS_WriteCurrentLatitude_Event--><g class="entity" data-entity="IVSS_WriteCurrentLatitude_Event" data-source-line="62" data-uid="ent0012" id="entity_IVSS_WriteCurrentLatitude_Event"><rect fill="#F1F1F1" height="65.6094" rx="2.5" ry="2.5" style="stroke:#181818;stroke-width:0.5;" width="244.4404" x="684" y="729"/><ellipse cx="699" cy="745" fill="#B4A7E5" rx="11" ry="11" style="stroke:#181818;stroke-width:1;"/><path d="M699.9531,741.6406 L699.9531,748.2969 L701.6719,748.2969 Q702.2813,748.2969 702.5469,748.5313 Q702.8125,748.7656 702.8125,749.1563 Q702.8125,749.5313 702.5469,749.7656 Q702.2813,750 701.6719,750 L696.5313,750 Q695.9219,750 695.6563,749.7656 Q695.3906,749.5313 695.3906,749.1406 Q695.3906,748.7656 695.6563,748.5313 Q695.9219,748.2969 696.5313,748.2969 L698.25,748.2969 L698.25,741.6406 L696.5313,741.6406 Q695.9219,741.6406 695.6563,741.4063 Q695.3906,741.1719 695.3906,740.7813 Q695.3906,740.4063 695.6563,740.1719 Q695.9219,739.9375 696.5313,739.9375 L701.6719,739.9375 Q702.2813,739.9375 702.5469,740.1719 Q702.8125,740.4063 702.8125,740.7813 Q702.8125,741.1719 702.5469,741.4063 Q702.2813,741.6406 701.6719,741.6406 L699.9531,741.6406 Z " fill="#000000"/><text fill="#000000" font-family="sans-serif" font-size="14" font-style="italic" lengthAdjust="spacing" textLength="212.4404" x="713" y="750.7285">IVSS_WriteCurrentLatitude_Event</text><line style="stroke:#181818;stroke-width:0.5;" x1="685" x2="927.4404" y1="761" y2="761"/><line style="stroke:#181818;stroke-width:0.5;" x1="685" x2="927.4404" y1="769" y2="769"/><text fill="#000000" font-family="sans-serif" font-size="14" font-style="italic" lengthAdjust="spacing" textLength="231.8818" x="690" y="787.5332">void WriteCurrentLatitude(float value)</text></g><!--class IVSS_WriteCurrentLongitude_Event--><g class="entity" data-entity="IVSS_WriteCurrentLongitude_Event" data-source-line="66" data-uid="ent0014" id="entity_IVSS_WriteCurrentLongitude_Event"><rect fill="#F1F1F1" height="65.6094" rx="2.5" ry="2.5" style="stroke:#181818;stroke-width:0.5;" width="256.123" x="984" y="729"/><ellipse cx="999" cy="745" fill="#B4A7E5" rx="11" ry="11" style="stroke:#181818;stroke-width:1;"/><path d="M999.9531,741.6406 L999.9531,748.2969 L1001.6719,748.2969 Q1002.2813,748.2969 1002.5469,748.5313 Q1002.8125,748.7656 1002.8125,749.1563 Q1002.8125,749.5313 1002.5469,749.7656 Q1002.2813,750 1001.6719,750 L996.5313,750 Q995.9219,750 995.6563,749.7656 Q995.3906,749.5313 995.3906,749.1406 Q995.3906,748.7656 995.6563,748.5313 Q995.9219,748.2969 996.5313,748.2969 L998.25,748.2969 L998.25,741.6406 L996.5313,741.6406 Q995.9219,741.6406 995.6563,741.4063 Q995.3906,741.1719 995.3906,740.7813 Q995.3906,740.4063 995.6563,740.1719 Q995.9219,739.9375 996.5313,739.9375 L1001.6719,739.9375 Q1002.2813,739.9375 1002.5469,740.1719 Q1002.8125,740.4063 1002.8125,740.7813 Q1002.8125,741.1719 1002.5469,741.4063 Q1002.2813,741.6406 1001.6719,741.6406 L999.9531,741.6406 Z " fill="#000000"/><text fill="#000000" font-family="sans-serif" font-size="14" font-style="italic" lengthAdjust="spacing" textLength="224.123" x="1013" y="750.7285">IVSS_WriteCurrentLongitude_Event</text><line style="stroke:#181818;stroke-width:0.5;" x1="985" x2="1239.123" y1="761" y2="761"/><line style="stroke:#181818;stroke-width:0.5;" x1="985" x2="1239.123" y1="769" y2="769"/><text fill="#000000" font-family="sans-serif" font-size="14" font-style="italic" lengthAdjust="spacing" textLength="243.5645" x="990" y="787.5332">void WriteCurrentLongitude(float value)</text></g><!--link CAutoHeadlightAppSimulate to IVSS_SetCurrentLatitude_Event--><g class="link" data-entity-1="CAutoHeadlightAppSimulate" data-entity-2="IVSS_SetCurrentLatitude_Event" data-source-line="71" data-uid="lnk16" id="link_CAutoHeadlightAppSimulate_IVSS_SetCurrentLatitude_Event"><path codeLine="71" d="M211,407.06 C211,517.54 211,646.45 211,710.66" fill="none" id="CAutoHeadlightAppSimulate-to-IVSS_SetCurrentLatitude_Event" style="stroke:#181818;stroke-width:1;stroke-dasharray:7,7;"/><polygon fill="none" points="211,728.66,217,710.66,205,710.66,211,728.66" style="stroke:#181818;stroke-width:1;"/><text fill="#000000" font-family="sans-serif" font-size="13" lengthAdjust="spacing" textLength="67.1899" x="212" y="541.4951">Implements</text></g><!--link CAutoHeadlightAppSimulate to IVSS_SetCurrentLongitude_Event--><g class="link" data-entity-1="CAutoHeadlightAppSimulate" data-entity-2="IVSS_SetCurrentLongitude_Event" data-source-line="72" data-uid="lnk17" id="link_CAutoHeadlightAppSimulate_IVSS_SetCurrentLongitude_Event"><path codeLine="72" d="M293.57,407.06 C359.87,517.54 438.7866,649.0166 477.3266,713.2266" fill="none" id="CAutoHeadlightAppSimulate-to-IVSS_SetCurrentLongitude_Event" style="stroke:#181818;stroke-width:1;stroke-dasharray:7,7;"/><polygon fill="none" points="486.59,728.66,482.4711,710.1388,472.1821,716.3144,486.59,728.66" style="stroke:#181818;stroke-width:1;"/><text fill="#000000" font-family="sans-serif" font-size="13" lengthAdjust="spacing" textLength="67.1899" x="378" y="541.4951">Implements</text></g><!--link CConsole to IVSS_WriteCurrentLatitude_Event--><g class="link" data-entity-1="CConsole" data-entity-2="IVSS_WriteCurrentLatitude_Event" data-source-line="73" data-uid="lnk18" id="link_CConsole_IVSS_WriteCurrentLatitude_Event"><path codeLine="73" d="M806,495.11 C806,585.96 806,662.5 806,710.63" fill="none" id="CConsole-to-IVSS_WriteCurrentLatitude_Event" style="stroke:#181818;stroke-width:1;stroke-dasharray:7,7;"/><polygon fill="none" points="806,728.63,812,710.63,800,710.63,806,728.63" style="stroke:#181818;stroke-width:1;"/><text fill="#000000" font-family="sans-serif" font-size="13" lengthAdjust="spacing" textLength="67.1899" x="807" y="541.4951">Implements</text></g><!--link CConsole to IVSS_WriteCurrentLongitude_Event--><g class="link" data-entity-1="CConsole" data-entity-2="IVSS_WriteCurrentLongitude_Event" data-source-line="74" data-uid="lnk19" id="link_CConsole_IVSS_WriteCurrentLongitude_Event"><path codeLine="74" d="M946.46,495.11 C1003.02,585.96 1052.3654,665.2202 1082.3354,713.3502" fill="none" id="CConsole-to-IVSS_WriteCurrentLongitude_Event" style="stroke:#181818;stroke-width:1;stroke-dasharray:7,7;"/><polygon fill="none" points="1091.85,728.63,1087.4287,710.1787,1077.2422,716.5217,1091.85,728.63" style="stroke:#181818;stroke-width:1;"/><text fill="#000000" font-family="sans-serif" font-size="13" lengthAdjust="spacing" textLength="67.1899" x="978" y="541.4951">Implements</text></g><!--link CConsole to IVSS_SetCurrentLatitude_Event--><g class="link" data-entity-1="CConsole" data-entity-2="IVSS_SetCurrentLatitude_Event" data-source-line="75" data-uid="lnk20" id="link_CConsole_IVSS_SetCurrentLatitude_Event"><path codeLine="75" d="M550.72,495.05 C519.61,514.56 487.08,531.85 454,545 C418.33,559.18 401.53,534.31 368,553 C296.08,593.09 254.7081,665.011 232.3781,712.661" fill="none" id="CConsole-to-IVSS_SetCurrentLatitude_Event" style="stroke:#181818;stroke-width:1;stroke-dasharray:7,7;"/><polygon fill="none" points="224.74,728.96,237.8112,715.207,226.9451,710.1149,224.74,728.96" style="stroke:#181818;stroke-width:1;"/><text fill="#000000" font-family="sans-serif" font-size="13" lengthAdjust="spacing" textLength="67.1899" x="489" y="541.4951">Implements</text></g><!--link CConsole to IVSS_SetCurrentLongitude_Event--><g class="link" data-entity-1="CConsole" data-entity-2="IVSS_SetCurrentLongitude_Event" data-source-line="76" data-uid="lnk21" id="link_CConsole_IVSS_SetCurrentLongitude_Event"><path codeLine="76" d="M668.29,495.11 C612.84,585.96 564.5062,665.1349 535.1362,713.2649" fill="none" id="CConsole-to-IVSS_SetCurrentLongitude_Event" style="stroke:#181818;stroke-width:1;stroke-dasharray:7,7;"/><polygon fill="none" points="525.76,728.63,540.2579,716.3902,530.0144,710.1395,525.76,728.63" style="stroke:#181818;stroke-width:1;"/><text fill="#000000" font-family="sans-serif" font-size="13" lengthAdjust="spacing" textLength="67.1899" x="649" y="541.4951">Implements</text></g><!--SRC=[nLPDRzim3BtxLn0x50wM5SDsyxO2GVg95KDHfzbkXMApZb152YGwRTVrlu-oKzTEujJfORluG-OJdyX7qk2GmE5SM476GXG5C1V9hSWGtfsYI9NCfWI3-Lp9H90q6l0Uavp4HE6x01u304YKS0w6WvnC1M54B6Uv4eJUv37mLu3t4sCKd6b9KYZv6yFUSdrXP0hnDAVKtEdcwb7X44Vew3AlldqeTlgE3wUIghLaAYoS80tvtZJanK6Ie7CZ4wDTI7vi6bnY9XsXZMMcXN9C_b0GSzItbLt1vX8vObkCoWEw-71yRCKCxuozFT8BQOsUeQOONyZo8kL2GNbq9frRooRd76RAKmnlb1442w5oV0rYTDQEyRP3eTI4y-fFl-R8fOie4lhXkZEoyhSEzTYde2QBeT7EgAKAQcczi5AJrmjMgIhLSM6z7D57rcFp6LhNL4Gz1oiA8c7fQfwox3n-DBNiODN4pDiioYF_j9AmIpRMZ5_DGySqxv3UJU8DDsRmJMdlaF7_8hCQT3MPnxbEmWqMerzbUC9uASaBuy3nfGy9Bt0Rf3IA7B4kiprGOeAg3uNdn5YCec49tmDNtFlWGx_N95JV-gGuY3EMNy9UwMCzmSllgvnwN-gcHQsCy9wwSRVSvjXumnvZJxRp9Z-uWVLXL82WnBQPSk5H_iAwzXa6F11qN3o76y0pRieyRlgGCx_FdpZ5AJffCJr7dT4Kli77QbkfkTSY_8FpNF68ShsjRh_w_1_iwBmerqb7rxwFFWKyBhcqRqJ239oBeZ5EPQ9OaEnC-f7CqcoMsdB2HT7PE8wlrqln-cZ1Rylf_IWcx5mazDHn4kt4wBc4Moaz6tJbrD8BELJ16o9rY3LMc_h-LbeT1iMRWjNEgbEqkemaBwtMFpROt_zp0B1LFH31sMokqF_LkDttQXvaTRDbITMnxSdP5RopwwuXs0xTvlOl]--></g></svg>