<svg xmlns="http://www.w3.org/2000/svg" xmlns:xlink="http://www.w3.org/1999/xlink" contentStyleType="text/css" data-diagram-type="CLASS" height="86px" preserveAspectRatio="none" style="width:165px;height:86px;background:#FFFFFF;" version="1.1" viewBox="0 0 165 86" width="165px" zoomAndPan="magnify"><defs/><g><!--class ISayHello--><g class="entity" data-entity="ISayHello" data-source-line="1" data-uid="ent0002" id="entity_ISayHello"><rect fill="#F1F1F1" height="65.6094" rx="2.5" ry="2.5" style="stroke:#181818;stroke-width:0.5;" width="144.2754" x="7" y="7"/><ellipse cx="45.5613" cy="23" fill="#B4A7E5" rx="11" ry="11" style="stroke:#181818;stroke-width:1;"/><path d="M46.5144,19.6406 L46.5144,26.2969 L48.2332,26.2969 Q48.8425,26.2969 49.1082,26.5313 Q49.3738,26.7656 49.3738,27.1563 Q49.3738,27.5313 49.1082,27.7656 Q48.8425,28 48.2332,28 L43.0925,28 Q42.4832,28 42.2175,27.7656 Q41.9519,27.5313 41.9519,27.1406 Q41.9519,26.7656 42.2175,26.5313 Q42.4832,26.2969 43.0925,26.2969 L44.8113,26.2969 L44.8113,19.6406 L43.0925,19.6406 Q42.4832,19.6406 42.2175,19.4063 Q41.9519,19.1719 41.9519,18.7813 Q41.9519,18.4063 42.2175,18.1719 Q42.4832,17.9375 43.0925,17.9375 L48.2332,17.9375 Q48.8425,17.9375 49.1082,18.1719 Q49.3738,18.4063 49.3738,18.7813 Q49.3738,19.1719 49.1082,19.4063 Q48.8425,19.6406 48.2332,19.6406 L46.5144,19.6406 Z " fill="#000000"/><text fill="#000000" font-family="sans-serif" font-size="14" font-style="italic" lengthAdjust="spacing" textLength="59.917" x="64.7971" y="28.7285">ISayHello</text><line style="stroke:#181818;stroke-width:0.5;" x1="8" x2="150.2754" y1="39" y2="39"/><line style="stroke:#181818;stroke-width:0.5;" x1="8" x2="150.2754" y1="47" y2="47"/><text fill="#000000" font-family="sans-serif" font-size="14" font-style="italic" lengthAdjust="spacing" textLength="132.2754" x="13" y="65.5332">void SayHello() const</text></g><!--SRC=[yymhIIrAIqnELV0CJgpqICt9oUUgvb9GKAXEJ2ekAKfCBgbLAClFJ560oMfeAYJdvnMNSDK20000]--></g></svg>