<svg xmlns="http://www.w3.org/2000/svg" xmlns:xlink="http://www.w3.org/1999/xlink" contentStyleType="text/css" data-diagram-type="CLASS" height="1022px" preserveAspectRatio="none" style="width:1985px;height:1022px;background:#FFFFFF;" version="1.1" viewBox="0 0 1985 1022" width="1985px" zoomAndPan="magnify"><defs/><g><!--cluster sdv--><g class="cluster" data-entity="sdv" data-source-line="27" data-uid="ent0004" id="cluster_sdv"><path d="M179,727 L204.124,727 A3.75,3.75 0 0 1 206.624,729.5 L213.624,750.6094 L620,750.6094 A2.5,2.5 0 0 1 622.5,753.1094 L622.5,894.5 A2.5,2.5 0 0 1 620,897 L179,897 A2.5,2.5 0 0 1 176.5,894.5 L176.5,729.5 A2.5,2.5 0 0 1 179,727" fill="none" style="stroke:#000000;stroke-width:1.5;"/><line style="stroke:#000000;stroke-width:1.5;" x1="176.5" x2="213.624" y1="750.6094" y2="750.6094"/><text fill="#000000" font-family="sans-serif" font-size="14" font-weight="bold" lengthAdjust="spacing" textLength="24.124" x="180.5" y="743.5332">sdv</text></g><!--cluster vss--><g class="cluster" data-entity="vss" data-source-line="40" data-uid="ent0007" id="cluster_vss"><path d="M649,489 L673.3584,489 A3.75,3.75 0 0 1 675.8584,491.5 L682.8584,512.6094 L1976,512.6094 A2.5,2.5 0 0 1 1978.5,515.1094 L1978.5,1012.5 A2.5,2.5 0 0 1 1976,1015 L649,1015 A2.5,2.5 0 0 1 646.5,1012.5 L646.5,491.5 A2.5,2.5 0 0 1 649,489" fill="none" style="stroke:#000000;stroke-width:1.5;"/><line style="stroke:#000000;stroke-width:1.5;" x1="646.5" x2="682.8584" y1="512.6094" y2="512.6094"/><text fill="#000000" font-family="sans-serif" font-size="14" font-weight="bold" lengthAdjust="spacing" textLength="23.3584" x="650.5" y="505.5332">vss</text></g><!--cluster Vehicle--><g class="cluster" data-entity="Vehicle" data-source-line="40" data-uid="ent0008" id="cluster_Vehicle"><path d="M673,533 L723.0273,533 A3.75,3.75 0 0 1 725.5273,535.5 L732.5273,556.6094 L1952,556.6094 A2.5,2.5 0 0 1 1954.5,559.1094 L1954.5,988.5 A2.5,2.5 0 0 1 1952,991 L673,991 A2.5,2.5 0 0 1 670.5,988.5 L670.5,535.5 A2.5,2.5 0 0 1 673,533" fill="none" style="stroke:#000000;stroke-width:1.5;"/><line style="stroke:#000000;stroke-width:1.5;" x1="670.5" x2="732.5273" y1="556.6094" y2="556.6094"/><text fill="#000000" font-family="sans-serif" font-size="14" font-weight="bold" lengthAdjust="spacing" textLength="49.0273" x="674.5" y="549.5332">Vehicle</text></g><!--cluster Body--><g class="cluster" data-entity="Body" data-source-line="40" data-uid="ent0009" id="cluster_Body"><path d="M697,577 L733,577 A3.75,3.75 0 0 1 735.5,579.5 L742.5,600.6094 L1928,600.6094 A2.5,2.5 0 0 1 1930.5,603.1094 L1930.5,964.5 A2.5,2.5 0 0 1 1928,967 L697,967 A2.5,2.5 0 0 1 694.5,964.5 L694.5,579.5 A2.5,2.5 0 0 1 697,577" fill="none" style="stroke:#000000;stroke-width:1.5;"/><line style="stroke:#000000;stroke-width:1.5;" x1="694.5" x2="742.5" y1="600.6094" y2="600.6094"/><text fill="#000000" font-family="sans-serif" font-size="14" font-weight="bold" lengthAdjust="spacing" textLength="35" x="698.5" y="593.5332">Body</text></g><!--cluster Door--><g class="cluster" data-entity="Door" data-source-line="40" data-uid="ent0010" id="cluster_Door"><path d="M721,621 L754.6621,621 A3.75,3.75 0 0 1 757.1621,623.5 L764.1621,644.6094 L1904,644.6094 A2.5,2.5 0 0 1 1906.5,647.1094 L1906.5,940.5 A2.5,2.5 0 0 1 1904,943 L721,943 A2.5,2.5 0 0 1 718.5,940.5 L718.5,623.5 A2.5,2.5 0 0 1 721,621" fill="none" style="stroke:#000000;stroke-width:1.5;"/><line style="stroke:#000000;stroke-width:1.5;" x1="718.5" x2="764.1621" y1="644.6094" y2="644.6094"/><text fill="#000000" font-family="sans-serif" font-size="14" font-weight="bold" lengthAdjust="spacing" textLength="32.6621" x="722.5" y="637.5332">Door</text></g><!--cluster Axle--><g class="cluster" data-entity="Axle" data-source-line="40" data-uid="ent0011" id="cluster_Axle"><path d="M745,665 L775.5723,665 A3.75,3.75 0 0 1 778.0723,667.5 L785.0723,688.6094 L1880,688.6094 A2.5,2.5 0 0 1 1882.5,691.1094 L1882.5,916.5 A2.5,2.5 0 0 1 1880,919 L745,919 A2.5,2.5 0 0 1 742.5,916.5 L742.5,667.5 A2.5,2.5 0 0 1 745,665" fill="none" style="stroke:#000000;stroke-width:1.5;"/><line style="stroke:#000000;stroke-width:1.5;" x1="742.5" x2="785.0723" y1="688.6094" y2="688.6094"/><text fill="#000000" font-family="sans-serif" font-size="14" font-weight="bold" lengthAdjust="spacing" textLength="29.5723" x="746.5" y="681.5332">Axle</text></g><!--cluster _01--><g class="cluster" data-entity="_01" data-source-line="40" data-uid="ent0012" id="cluster__01"><path d="M769,709 L793.3584,709 A3.75,3.75 0 0 1 795.8584,711.5 L802.8584,732.6094 L1298,732.6094 A2.5,2.5 0 0 1 1300.5,735.1094 L1300.5,892.5 A2.5,2.5 0 0 1 1298,895 L769,895 A2.5,2.5 0 0 1 766.5,892.5 L766.5,711.5 A2.5,2.5 0 0 1 769,709" fill="none" style="stroke:#000000;stroke-width:1.5;"/><line style="stroke:#000000;stroke-width:1.5;" x1="766.5" x2="802.8584" y1="732.6094" y2="732.6094"/><text fill="#000000" font-family="sans-serif" font-size="14" font-weight="bold" lengthAdjust="spacing" textLength="23.3584" x="770.5" y="725.5332">_01</text></g><!--cluster LeftService--><g class="cluster" data-entity="LeftService" data-source-line="40" data-uid="ent0013" id="cluster_LeftService"><path d="M793,753 L869.4824,753 A3.75,3.75 0 0 1 871.9824,755.5 L878.9824,776.6094 L1018,776.6094 A2.5,2.5 0 0 1 1020.5,779.1094 L1020.5,868.5 A2.5,2.5 0 0 1 1018,871 L793,871 A2.5,2.5 0 0 1 790.5,868.5 L790.5,755.5 A2.5,2.5 0 0 1 793,753" fill="none" style="stroke:#000000;stroke-width:1.5;"/><line style="stroke:#000000;stroke-width:1.5;" x1="790.5" x2="878.9824" y1="776.6094" y2="776.6094"/><text fill="#000000" font-family="sans-serif" font-size="14" font-weight="bold" lengthAdjust="spacing" textLength="75.4824" x="794.5" y="769.5332">LeftService</text></g><!--cluster RightService--><g class="cluster" data-entity="RightService" data-source-line="50" data-uid="ent0018" id="cluster_RightService"><path d="M1047,753 L1133.5859,753 A3.75,3.75 0 0 1 1136.0859,755.5 L1143.0859,776.6094 L1274,776.6094 A2.5,2.5 0 0 1 1276.5,779.1094 L1276.5,868.5 A2.5,2.5 0 0 1 1274,871 L1047,871 A2.5,2.5 0 0 1 1044.5,868.5 L1044.5,755.5 A2.5,2.5 0 0 1 1047,753" fill="none" style="stroke:#000000;stroke-width:1.5;"/><line style="stroke:#000000;stroke-width:1.5;" x1="1044.5" x2="1143.0859" y1="776.6094" y2="776.6094"/><text fill="#000000" font-family="sans-serif" font-size="14" font-weight="bold" lengthAdjust="spacing" textLength="85.5859" x="1048.5" y="769.5332">RightService</text></g><!--cluster _02--><g class="cluster" data-entity="_02" data-source-line="45" data-uid="ent0015" id="cluster__02"><path d="M1327,709 L1351.3584,709 A3.75,3.75 0 0 1 1353.8584,711.5 L1360.8584,732.6094 L1856,732.6094 A2.5,2.5 0 0 1 1858.5,735.1094 L1858.5,892.5 A2.5,2.5 0 0 1 1856,895 L1327,895 A2.5,2.5 0 0 1 1324.5,892.5 L1324.5,711.5 A2.5,2.5 0 0 1 1327,709" fill="none" style="stroke:#000000;stroke-width:1.5;"/><line style="stroke:#000000;stroke-width:1.5;" x1="1324.5" x2="1360.8584" y1="732.6094" y2="732.6094"/><text fill="#000000" font-family="sans-serif" font-size="14" font-weight="bold" lengthAdjust="spacing" textLength="23.3584" x="1328.5" y="725.5332">_02</text></g><!--cluster LeftService--><g class="cluster" data-entity="LeftService" data-source-line="45" data-uid="ent0016" id="cluster_LeftService"><path d="M1351,753 L1427.4824,753 A3.75,3.75 0 0 1 1429.9824,755.5 L1436.9824,776.6094 L1576,776.6094 A2.5,2.5 0 0 1 1578.5,779.1094 L1578.5,868.5 A2.5,2.5 0 0 1 1576,871 L1351,871 A2.5,2.5 0 0 1 1348.5,868.5 L1348.5,755.5 A2.5,2.5 0 0 1 1351,753" fill="none" style="stroke:#000000;stroke-width:1.5;"/><line style="stroke:#000000;stroke-width:1.5;" x1="1348.5" x2="1436.9824" y1="776.6094" y2="776.6094"/><text fill="#000000" font-family="sans-serif" font-size="14" font-weight="bold" lengthAdjust="spacing" textLength="75.4824" x="1352.5" y="769.5332">LeftService</text></g><!--cluster RightService--><g class="cluster" data-entity="RightService" data-source-line="55" data-uid="ent0020" id="cluster_RightService"><path d="M1605,753 L1691.5859,753 A3.75,3.75 0 0 1 1694.0859,755.5 L1701.0859,776.6094 L1832,776.6094 A2.5,2.5 0 0 1 1834.5,779.1094 L1834.5,868.5 A2.5,2.5 0 0 1 1832,871 L1605,871 A2.5,2.5 0 0 1 1602.5,868.5 L1602.5,755.5 A2.5,2.5 0 0 1 1605,753" fill="none" style="stroke:#000000;stroke-width:1.5;"/><line style="stroke:#000000;stroke-width:1.5;" x1="1602.5" x2="1701.0859" y1="776.6094" y2="776.6094"/><text fill="#000000" font-family="sans-serif" font-size="14" font-weight="bold" lengthAdjust="spacing" textLength="85.5859" x="1606.5" y="769.5332">RightService</text></g><!--class CSdvObject--><g class="entity" data-entity="CSdvObject" data-source-line="27" data-uid="ent0003" id="entity_CSdvObject"><rect fill="#F1F1F1" height="118.4375" rx="2.5" ry="2.5" style="stroke:#181818;stroke-width:0.5;" width="412.7705" x="193" y="763"/><ellipse cx="357.7871" cy="779" fill="#ADD1B2" rx="11" ry="11" style="stroke:#181818;stroke-width:1;"/><path d="M360.5527,774.875 Q360.709,774.6563 360.8965,774.5469 Q361.084,774.4375 361.3027,774.4375 Q361.6777,774.4375 361.9121,774.6953 Q362.1465,774.9531 362.1465,775.5625 L362.1465,777.0156 Q362.1465,777.625 361.9121,777.8906 Q361.6777,778.1563 361.3027,778.1563 Q360.959,778.1563 360.7559,777.9531 Q360.5527,777.7656 360.4434,777.25 Q360.3965,776.8906 360.209,776.7031 Q359.8809,776.3281 359.2715,776.1094 Q358.6621,775.8906 358.0371,775.8906 Q357.2715,775.8906 356.6387,776.2188 Q356.0059,776.5469 355.5137,777.2969 Q355.0215,778.0469 355.0215,779.0781 L355.0215,780.1719 Q355.0215,781.4063 355.9121,782.2266 Q356.8027,783.0469 358.3965,783.0469 Q359.334,783.0469 359.9902,782.7969 Q360.3809,782.6406 360.8027,782.2031 Q361.0684,781.9375 361.2168,781.8594 Q361.3652,781.7813 361.5684,781.7813 Q361.8965,781.7813 362.1543,782.0391 Q362.4121,782.2969 362.4121,782.6406 Q362.4121,782.9844 362.0684,783.3906 Q361.5684,783.9688 360.7715,784.2969 Q359.6934,784.75 358.3965,784.75 Q356.8809,784.75 355.6777,784.125 Q354.6934,783.625 354.0059,782.5547 Q353.3184,781.4844 353.3184,780.2031 L353.3184,779.0469 Q353.3184,777.7188 353.9355,776.5703 Q354.5527,775.4219 355.6465,774.8047 Q356.7402,774.1875 357.9746,774.1875 Q358.709,774.1875 359.3574,774.3516 Q360.0059,774.5156 360.5527,774.875 Z " fill="#000000"/><text fill="#000000" font-family="sans-serif" font-size="14" lengthAdjust="spacing" textLength="74.6963" x="378.2871" y="784.7285">CSdvObject</text><line style="stroke:#181818;stroke-width:0.5;" x1="194" x2="604.7705" y1="795" y2="795"/><line style="stroke:#181818;stroke-width:0.5;" x1="194" x2="604.7705" y1="803" y2="803"/><ellipse cx="204" cy="817.3047" fill="#84BE84" rx="3" ry="3" style="stroke:#038048;stroke-width:1;"/><text fill="#000000" font-family="sans-serif" font-size="14" lengthAdjust="spacing" text-decoration="underline" textLength="336.9365" x="213" y="821.5332">sdv::sequence&lt;sdv::u8string&gt; GetClassAliasesStatic()</text><ellipse cx="204" cy="834.9141" fill="#84BE84" rx="3" ry="3" style="stroke:#038048;stroke-width:1;"/><text fill="#000000" font-family="sans-serif" font-size="14" lengthAdjust="spacing" text-decoration="underline" textLength="272.3301" x="213" y="839.1426">sdv::u8string GetDefaultObjectNameStatic()</text><ellipse cx="204" cy="852.5234" fill="#84BE84" rx="3" ry="3" style="stroke:#038048;stroke-width:1;"/><text fill="#000000" font-family="sans-serif" font-size="14" lengthAdjust="spacing" text-decoration="underline" textLength="143.9648" x="213" y="856.752">bool IsSingletonStatic()</text><ellipse cx="204" cy="870.1328" fill="#84BE84" rx="3" ry="3" style="stroke:#038048;stroke-width:1;"/><text fill="#000000" font-family="sans-serif" font-size="14" lengthAdjust="spacing" text-decoration="underline" textLength="386.7705" x="213" y="874.3613">sdv::sequence&lt;sdv::u8string&gt; GetObjectDependenciesStatic()</text></g><!--class IVSS_SetIsOpenL1_Event--><g class="entity" data-entity="IVSS_SetIsOpenL1_Event" data-source-line="40" data-uid="ent0006" id="entity_IVSS_SetIsOpenL1_Event"><rect fill="#F1F1F1" height="65.6094" rx="2.5" ry="2.5" style="stroke:#181818;stroke-width:0.5;" width="196.999" x="807" y="789"/><ellipse cx="822" cy="805" fill="#B4A7E5" rx="11" ry="11" style="stroke:#181818;stroke-width:1;"/><path d="M822.9531,801.6406 L822.9531,808.2969 L824.6719,808.2969 Q825.2813,808.2969 825.5469,808.5313 Q825.8125,808.7656 825.8125,809.1563 Q825.8125,809.5313 825.5469,809.7656 Q825.2813,810 824.6719,810 L819.5313,810 Q818.9219,810 818.6563,809.7656 Q818.3906,809.5313 818.3906,809.1406 Q818.3906,808.7656 818.6563,808.5313 Q818.9219,808.2969 819.5313,808.2969 L821.25,808.2969 L821.25,801.6406 L819.5313,801.6406 Q818.9219,801.6406 818.6563,801.4063 Q818.3906,801.1719 818.3906,800.7813 Q818.3906,800.4063 818.6563,800.1719 Q818.9219,799.9375 819.5313,799.9375 L824.6719,799.9375 Q825.2813,799.9375 825.5469,800.1719 Q825.8125,800.4063 825.8125,800.7813 Q825.8125,801.1719 825.5469,801.4063 Q825.2813,801.6406 824.6719,801.6406 L822.9531,801.6406 Z " fill="#000000"/><text fill="#000000" font-family="sans-serif" font-size="14" font-style="italic" lengthAdjust="spacing" textLength="164.999" x="836" y="810.7285">IVSS_SetIsOpenL1_Event</text><line style="stroke:#181818;stroke-width:0.5;" x1="808" x2="1002.999" y1="821" y2="821"/><line style="stroke:#181818;stroke-width:0.5;" x1="808" x2="1002.999" y1="829" y2="829"/><text fill="#000000" font-family="sans-serif" font-size="14" font-style="italic" lengthAdjust="spacing" textLength="184.4473" x="813" y="847.5332">void SetIsOpenL1(bool value)</text></g><!--class IVSS_SetIsOpenR1_Event--><g class="entity" data-entity="IVSS_SetIsOpenR1_Event" data-source-line="50" data-uid="ent0017" id="entity_IVSS_SetIsOpenR1_Event"><rect fill="#F1F1F1" height="65.6094" rx="2.5" ry="2.5" style="stroke:#181818;stroke-width:0.5;" width="199.3232" x="1061" y="789"/><ellipse cx="1076" cy="805" fill="#B4A7E5" rx="11" ry="11" style="stroke:#181818;stroke-width:1;"/><path d="M1076.9531,801.6406 L1076.9531,808.2969 L1078.6719,808.2969 Q1079.2813,808.2969 1079.5469,808.5313 Q1079.8125,808.7656 1079.8125,809.1563 Q1079.8125,809.5313 1079.5469,809.7656 Q1079.2813,810 1078.6719,810 L1073.5313,810 Q1072.9219,810 1072.6563,809.7656 Q1072.3906,809.5313 1072.3906,809.1406 Q1072.3906,808.7656 1072.6563,808.5313 Q1072.9219,808.2969 1073.5313,808.2969 L1075.25,808.2969 L1075.25,801.6406 L1073.5313,801.6406 Q1072.9219,801.6406 1072.6563,801.4063 Q1072.3906,801.1719 1072.3906,800.7813 Q1072.3906,800.4063 1072.6563,800.1719 Q1072.9219,799.9375 1073.5313,799.9375 L1078.6719,799.9375 Q1079.2813,799.9375 1079.5469,800.1719 Q1079.8125,800.4063 1079.8125,800.7813 Q1079.8125,801.1719 1079.5469,801.4063 Q1079.2813,801.6406 1078.6719,801.6406 L1076.9531,801.6406 Z " fill="#000000"/><text fill="#000000" font-family="sans-serif" font-size="14" font-style="italic" lengthAdjust="spacing" textLength="167.3232" x="1090" y="810.7285">IVSS_SetIsOpenR1_Event</text><line style="stroke:#181818;stroke-width:0.5;" x1="1062" x2="1259.3232" y1="821" y2="821"/><line style="stroke:#181818;stroke-width:0.5;" x1="1062" x2="1259.3232" y1="829" y2="829"/><text fill="#000000" font-family="sans-serif" font-size="14" font-style="italic" lengthAdjust="spacing" textLength="186.7715" x="1067" y="847.5332">void SetIsOpenR1(bool value)</text></g><!--class IVSS_SetIsOpenL2_Event--><g class="entity" data-entity="IVSS_SetIsOpenL2_Event" data-source-line="45" data-uid="ent0014" id="entity_IVSS_SetIsOpenL2_Event"><rect fill="#F1F1F1" height="65.6094" rx="2.5" ry="2.5" style="stroke:#181818;stroke-width:0.5;" width="196.999" x="1365" y="789"/><ellipse cx="1380" cy="805" fill="#B4A7E5" rx="11" ry="11" style="stroke:#181818;stroke-width:1;"/><path d="M1380.9531,801.6406 L1380.9531,808.2969 L1382.6719,808.2969 Q1383.2813,808.2969 1383.5469,808.5313 Q1383.8125,808.7656 1383.8125,809.1563 Q1383.8125,809.5313 1383.5469,809.7656 Q1383.2813,810 1382.6719,810 L1377.5313,810 Q1376.9219,810 1376.6563,809.7656 Q1376.3906,809.5313 1376.3906,809.1406 Q1376.3906,808.7656 1376.6563,808.5313 Q1376.9219,808.2969 1377.5313,808.2969 L1379.25,808.2969 L1379.25,801.6406 L1377.5313,801.6406 Q1376.9219,801.6406 1376.6563,801.4063 Q1376.3906,801.1719 1376.3906,800.7813 Q1376.3906,800.4063 1376.6563,800.1719 Q1376.9219,799.9375 1377.5313,799.9375 L1382.6719,799.9375 Q1383.2813,799.9375 1383.5469,800.1719 Q1383.8125,800.4063 1383.8125,800.7813 Q1383.8125,801.1719 1383.5469,801.4063 Q1383.2813,801.6406 1382.6719,801.6406 L1380.9531,801.6406 Z " fill="#000000"/><text fill="#000000" font-family="sans-serif" font-size="14" font-style="italic" lengthAdjust="spacing" textLength="164.999" x="1394" y="810.7285">IVSS_SetIsOpenL2_Event</text><line style="stroke:#181818;stroke-width:0.5;" x1="1366" x2="1560.999" y1="821" y2="821"/><line style="stroke:#181818;stroke-width:0.5;" x1="1366" x2="1560.999" y1="829" y2="829"/><text fill="#000000" font-family="sans-serif" font-size="14" font-style="italic" lengthAdjust="spacing" textLength="184.4473" x="1371" y="847.5332">void SetIsOpenL2(bool value)</text></g><!--class IVSS_SetIsOpenR2_Event--><g class="entity" data-entity="IVSS_SetIsOpenR2_Event" data-source-line="55" data-uid="ent0019" id="entity_IVSS_SetIsOpenR2_Event"><rect fill="#F1F1F1" height="65.6094" rx="2.5" ry="2.5" style="stroke:#181818;stroke-width:0.5;" width="199.3232" x="1619" y="789"/><ellipse cx="1634" cy="805" fill="#B4A7E5" rx="11" ry="11" style="stroke:#181818;stroke-width:1;"/><path d="M1634.9531,801.6406 L1634.9531,808.2969 L1636.6719,808.2969 Q1637.2813,808.2969 1637.5469,808.5313 Q1637.8125,808.7656 1637.8125,809.1563 Q1637.8125,809.5313 1637.5469,809.7656 Q1637.2813,810 1636.6719,810 L1631.5313,810 Q1630.9219,810 1630.6563,809.7656 Q1630.3906,809.5313 1630.3906,809.1406 Q1630.3906,808.7656 1630.6563,808.5313 Q1630.9219,808.2969 1631.5313,808.2969 L1633.25,808.2969 L1633.25,801.6406 L1631.5313,801.6406 Q1630.9219,801.6406 1630.6563,801.4063 Q1630.3906,801.1719 1630.3906,800.7813 Q1630.3906,800.4063 1630.6563,800.1719 Q1630.9219,799.9375 1631.5313,799.9375 L1636.6719,799.9375 Q1637.2813,799.9375 1637.5469,800.1719 Q1637.8125,800.4063 1637.8125,800.7813 Q1637.8125,801.1719 1637.5469,801.4063 Q1637.2813,801.6406 1636.6719,801.6406 L1634.9531,801.6406 Z " fill="#000000"/><text fill="#000000" font-family="sans-serif" font-size="14" font-style="italic" lengthAdjust="spacing" textLength="167.3232" x="1648" y="810.7285">IVSS_SetIsOpenR2_Event</text><line style="stroke:#181818;stroke-width:0.5;" x1="1620" x2="1817.3232" y1="821" y2="821"/><line style="stroke:#181818;stroke-width:0.5;" x1="1620" x2="1817.3232" y1="829" y2="829"/><text fill="#000000" font-family="sans-serif" font-size="14" font-style="italic" lengthAdjust="spacing" textLength="186.7715" x="1625" y="847.5332">void SetIsOpenR2(bool value)</text></g><!--class CDoorsExampleService--><g class="entity" data-entity="CDoorsExampleService" data-source-line="2" data-uid="ent0002" id="entity_CDoorsExampleService"><rect fill="#F1F1F1" height="417.7969" rx="2.5" ry="2.5" style="stroke:#181818;stroke-width:0.5;" width="585.4736" x="703" y="7"/><ellipse cx="917.1836" cy="23" fill="#ADD1B2" rx="11" ry="11" style="stroke:#181818;stroke-width:1;"/><path d="M919.9492,18.875 Q920.1055,18.6563 920.293,18.5469 Q920.4805,18.4375 920.6992,18.4375 Q921.0742,18.4375 921.3086,18.6953 Q921.543,18.9531 921.543,19.5625 L921.543,21.0156 Q921.543,21.625 921.3086,21.8906 Q921.0742,22.1563 920.6992,22.1563 Q920.3555,22.1563 920.1523,21.9531 Q919.9492,21.7656 919.8398,21.25 Q919.793,20.8906 919.6055,20.7031 Q919.2773,20.3281 918.668,20.1094 Q918.0586,19.8906 917.4336,19.8906 Q916.668,19.8906 916.0352,20.2188 Q915.4023,20.5469 914.9102,21.2969 Q914.418,22.0469 914.418,23.0781 L914.418,24.1719 Q914.418,25.4063 915.3086,26.2266 Q916.1992,27.0469 917.793,27.0469 Q918.7305,27.0469 919.3867,26.7969 Q919.7773,26.6406 920.1992,26.2031 Q920.4648,25.9375 920.6133,25.8594 Q920.7617,25.7813 920.9648,25.7813 Q921.293,25.7813 921.5508,26.0391 Q921.8086,26.2969 921.8086,26.6406 Q921.8086,26.9844 921.4648,27.3906 Q920.9648,27.9688 920.168,28.2969 Q919.0898,28.75 917.793,28.75 Q916.2773,28.75 915.0742,28.125 Q914.0898,27.625 913.4023,26.5547 Q912.7148,25.4844 912.7148,24.2031 L912.7148,23.0469 Q912.7148,21.7188 913.332,20.5703 Q913.9492,19.4219 915.043,18.8047 Q916.1367,18.1875 917.3711,18.1875 Q918.1055,18.1875 918.7539,18.3516 Q919.4023,18.5156 919.9492,18.875 Z " fill="#000000"/><text fill="#000000" font-family="sans-serif" font-size="14" lengthAdjust="spacing" textLength="148.6064" x="937.6836" y="28.7285">CDoorsExampleService</text><line style="stroke:#181818;stroke-width:0.5;" x1="704" x2="1287.4736" y1="39" y2="39"/><rect fill="none" height="6" style="stroke:#C82930;stroke-width:1;" width="6" x="711" y="50.3047"/><text fill="#000000" font-family="sans-serif" font-size="14" lengthAdjust="spacing" textLength="192.9922" x="723" y="57.5332">bool  m_bFrontLeftDoorIsOpen</text><rect fill="none" height="6" style="stroke:#C82930;stroke-width:1;" width="6" x="711" y="67.9141"/><text fill="#000000" font-family="sans-serif" font-size="14" lengthAdjust="spacing" textLength="202.3232" x="723" y="75.1426">bool  m_bFrontRightDoorIsOpen</text><rect fill="none" height="6" style="stroke:#C82930;stroke-width:1;" width="6" x="711" y="85.5234"/><text fill="#000000" font-family="sans-serif" font-size="14" lengthAdjust="spacing" textLength="190.6611" x="723" y="92.752">bool  m_bRearLeftDoorIsOpen</text><rect fill="none" height="6" style="stroke:#C82930;stroke-width:1;" width="6" x="711" y="103.1328"/><text fill="#000000" font-family="sans-serif" font-size="14" lengthAdjust="spacing" textLength="199.9922" x="723" y="110.3613">bool  m_bRearRightDoorIsOpen</text><rect fill="none" height="6" style="stroke:#C82930;stroke-width:1;" width="6" x="711" y="120.7422"/><text fill="#000000" font-family="sans-serif" font-size="14" lengthAdjust="spacing" textLength="177.4268" x="723" y="127.9707">bool m_bAllDoorsAreLocked</text><rect fill="none" height="6" style="stroke:#C82930;stroke-width:1;" width="6" x="711" y="138.3516"/><text fill="#000000" font-family="sans-serif" font-size="14" lengthAdjust="spacing" textLength="540.8115" x="723" y="145.5801">vss::Vehicle::Body::Door::Axle::_01::LeftService::IVSS_SetLock* m_pFrontLeftDoorSvc</text><rect fill="none" height="6" style="stroke:#C82930;stroke-width:1;" width="6" x="711" y="155.9609"/><text fill="#000000" font-family="sans-serif" font-size="14" lengthAdjust="spacing" textLength="559.4736" x="723" y="163.1895">vss::Vehicle::Body::Door::Axle::_01::RightService::IVSS_SetLock* m_pFrontRightDoorSvc</text><rect fill="none" height="6" style="stroke:#C82930;stroke-width:1;" width="6" x="711" y="173.5703"/><text fill="#000000" font-family="sans-serif" font-size="14" lengthAdjust="spacing" textLength="538.4805" x="723" y="180.7988">vss::Vehicle::Body::Door::Axle::_02::LeftService::IVSS_SetLock* m_pRearLeftDoorSvc</text><rect fill="none" height="6" style="stroke:#C82930;stroke-width:1;" width="6" x="711" y="191.1797"/><text fill="#000000" font-family="sans-serif" font-size="14" lengthAdjust="spacing" textLength="557.1426" x="723" y="198.4082">vss::Vehicle::Body::Door::Axle::_02::RightService::IVSS_SetLock* m_pRearRightDoorSvc</text><rect fill="none" height="6" style="stroke:#C82930;stroke-width:1;" width="6" x="711" y="208.7891"/><text fill="#000000" font-family="sans-serif" font-size="14" lengthAdjust="spacing" textLength="213.9922" x="723" y="216.0176">LockDoorsThread m_doorsThread</text><rect fill="none" height="6" style="stroke:#C82930;stroke-width:1;" width="6" x="711" y="226.3984"/><text fill="#000000" font-family="sans-serif" font-size="14" lengthAdjust="spacing" textLength="119.0684" x="723" y="233.627">uint32_t m_Interval</text><line style="stroke:#181818;stroke-width:0.5;" x1="704" x2="1287.4736" y1="240.7031" y2="240.7031"/><ellipse cx="714" cy="255.0078" fill="#84BE84" rx="3" ry="3" style="stroke:#038048;stroke-width:1;"/><text fill="#000000" font-family="sans-serif" font-size="14" lengthAdjust="spacing" textLength="163.4063" x="723" y="259.2363">bool OnInitialize() override</text><ellipse cx="714" cy="272.6172" fill="#84BE84" rx="3" ry="3" style="stroke:#038048;stroke-width:1;"/><text fill="#000000" font-family="sans-serif" font-size="14" lengthAdjust="spacing" textLength="174.3096" x="723" y="276.8457">void OnShutdown() override</text><ellipse cx="714" cy="290.2266" fill="#84BE84" rx="3" ry="3" style="stroke:#038048;stroke-width:1;"/><text fill="#000000" font-family="sans-serif" font-size="14" lengthAdjust="spacing" textLength="184.4473" x="723" y="294.4551">void SetIsOpenL1(bool value)</text><ellipse cx="714" cy="307.8359" fill="#84BE84" rx="3" ry="3" style="stroke:#038048;stroke-width:1;"/><text fill="#000000" font-family="sans-serif" font-size="14" lengthAdjust="spacing" textLength="186.7715" x="723" y="312.0645">void SetIsOpenR1(bool value)</text><ellipse cx="714" cy="325.4453" fill="#84BE84" rx="3" ry="3" style="stroke:#038048;stroke-width:1;"/><text fill="#000000" font-family="sans-serif" font-size="14" lengthAdjust="spacing" textLength="184.4473" x="723" y="329.6738">void SetIsOpenL2(bool value)</text><ellipse cx="714" cy="343.0547" fill="#84BE84" rx="3" ry="3" style="stroke:#038048;stroke-width:1;"/><text fill="#000000" font-family="sans-serif" font-size="14" lengthAdjust="spacing" textLength="186.7715" x="723" y="347.2832">void SetIsOpenR2(bool value)</text><ellipse cx="714" cy="360.6641" fill="#84BE84" rx="3" ry="3" style="stroke:#038048;stroke-width:1;"/><text fill="#000000" font-family="sans-serif" font-size="14" font-style="italic" lengthAdjust="spacing" textLength="139.2822" x="723" y="364.8926">bool GetDoorsStatus()</text><rect fill="#F24D5C" height="6" style="stroke:#C82930;stroke-width:1;" width="6" x="711" y="375.2734"/><text fill="#000000" font-family="sans-serif" font-size="14" lengthAdjust="spacing" textLength="157.165" x="723" y="382.502">void AreAllDoorsClosed()</text><rect fill="#F24D5C" height="6" style="stroke:#C82930;stroke-width:1;" width="6" x="711" y="392.8828"/><text fill="#000000" font-family="sans-serif" font-size="14" lengthAdjust="spacing" textLength="231.8613" x="723" y="400.1113">void LockDoorsIfAllDoorsAreClosed()</text><rect fill="#F24D5C" height="6" style="stroke:#C82930;stroke-width:1;" width="6" x="711" y="410.4922"/><text fill="#000000" font-family="sans-serif" font-size="14" lengthAdjust="spacing" textLength="235.7715" x="723" y="417.7207">void LockDoors(const bool lock) const</text></g><!--class IDoorService--><g class="entity" data-entity="IDoorService" data-source-line="35" data-uid="ent0005" id="entity_IDoorService"><rect fill="#F1F1F1" height="65.6094" rx="2.5" ry="2.5" style="stroke:#181818;stroke-width:0.5;" width="151.2822" x="7" y="789"/><ellipse cx="39.2644" cy="805" fill="#B4A7E5" rx="11" ry="11" style="stroke:#181818;stroke-width:1;"/><path d="M40.2175,801.6406 L40.2175,808.2969 L41.9362,808.2969 Q42.5456,808.2969 42.8112,808.5313 Q43.0769,808.7656 43.0769,809.1563 Q43.0769,809.5313 42.8112,809.7656 Q42.5456,810 41.9362,810 L36.7956,810 Q36.1862,810 35.9206,809.7656 Q35.655,809.5313 35.655,809.1406 Q35.655,808.7656 35.9206,808.5313 Q36.1862,808.2969 36.7956,808.2969 L38.5144,808.2969 L38.5144,801.6406 L36.7956,801.6406 Q36.1862,801.6406 35.9206,801.4063 Q35.655,801.1719 35.655,800.7813 Q35.655,800.4063 35.9206,800.1719 Q36.1862,799.9375 36.7956,799.9375 L41.9362,799.9375 Q42.5456,799.9375 42.8112,800.1719 Q43.0769,800.4063 43.0769,800.7813 Q43.0769,801.1719 42.8112,801.4063 Q42.5456,801.6406 41.9362,801.6406 L40.2175,801.6406 Z " fill="#000000"/><text fill="#000000" font-family="sans-serif" font-size="14" font-style="italic" lengthAdjust="spacing" textLength="80.917" x="57.1009" y="810.7285">IDoorService</text><line style="stroke:#181818;stroke-width:0.5;" x1="8" x2="157.2822" y1="821" y2="821"/><line style="stroke:#181818;stroke-width:0.5;" x1="8" x2="157.2822" y1="829" y2="829"/><text fill="#000000" font-family="sans-serif" font-size="14" font-style="italic" lengthAdjust="spacing" textLength="139.2822" x="13" y="847.5332">bool GetDoorsStatus()</text></g><!--link CDoorsExampleService to CSdvObject--><g class="link" data-entity-1="CDoorsExampleService" data-entity-2="CSdvObject" data-source-line="60" data-uid="lnk21" id="link_CDoorsExampleService_CSdvObject"><path codeLine="60" d="M789.97,425.29 C672.33,544.5 545.9924,672.5371 469.6224,749.9371" fill="none" id="CDoorsExampleService-to-CSdvObject" style="stroke:#181818;stroke-width:1;"/><polygon fill="none" points="456.98,762.75,473.8933,754.1512,465.3514,745.723,456.98,762.75" style="stroke:#181818;stroke-width:1;"/><text fill="#000000" font-family="sans-serif" font-size="13" lengthAdjust="spacing" textLength="42.6309" x="760.5" y="469.4951">Inherits</text></g><!--link CDoorsExampleService to IDoorService--><g class="link" data-entity-1="CDoorsExampleService" data-entity-2="IDoorService" data-source-line="61" data-uid="lnk22" id="link_CDoorsExampleService_IDoorService"><path codeLine="61" d="M702.74,242.37 C527.67,272.54 313.36,338.25 176.5,481 C93.11,567.98 82.5177,704.0905 82.0077,770.7705" fill="none" id="CDoorsExampleService-to-IDoorService" style="stroke:#181818;stroke-width:1;stroke-dasharray:7,7;"/><polygon fill="none" points="81.87,788.77,88.0075,770.8164,76.0078,770.7246,81.87,788.77" style="stroke:#181818;stroke-width:1;"/></g><!--link CDoorsExampleService to IVSS_SetIsOpenL1_Event--><g class="link" data-entity-1="CDoorsExampleService" data-entity-2="IVSS_SetIsOpenL1_Event" data-source-line="62" data-uid="lnk23" id="link_CDoorsExampleService_IVSS_SetIsOpenL1_Event"><path codeLine="62" d="M964.46,425.29 C944.46,559.51 923.0335,703.3567 912.9535,770.9867" fill="none" id="CDoorsExampleService-to-IVSS_SetIsOpenL1_Event" style="stroke:#181818;stroke-width:1;stroke-dasharray:7,7;"/><polygon fill="none" points="910.3,788.79,918.888,771.8712,907.0191,770.1022,910.3,788.79" style="stroke:#181818;stroke-width:1;"/><text fill="#000000" font-family="sans-serif" font-size="13" lengthAdjust="spacing" textLength="67.1899" x="960.5" y="469.4951">Implements</text></g><!--link CDoorsExampleService to IVSS_SetIsOpenR1_Event--><g class="link" data-entity-1="CDoorsExampleService" data-entity-2="IVSS_SetIsOpenR1_Event" data-source-line="63" data-uid="lnk24" id="link_CDoorsExampleService_IVSS_SetIsOpenR1_Event"><path codeLine="63" d="M1052.4,425.29 C1089.07,559.51 1128.4878,703.7959 1146.9578,771.4259" fill="none" id="CDoorsExampleService-to-IVSS_SetIsOpenR1_Event" style="stroke:#181818;stroke-width:1;stroke-dasharray:7,7;"/><polygon fill="none" points="1151.7,788.79,1152.7458,769.8452,1141.1698,773.0066,1151.7,788.79" style="stroke:#181818;stroke-width:1;"/><text fill="#000000" font-family="sans-serif" font-size="13" lengthAdjust="spacing" textLength="67.1899" x="1063.5" y="469.4951">Implements</text></g><!--link CDoorsExampleService to IVSS_SetIsOpenL2_Event--><g class="link" data-entity-1="CDoorsExampleService" data-entity-2="IVSS_SetIsOpenL2_Event" data-source-line="64" data-uid="lnk25" id="link_CDoorsExampleService_IVSS_SetIsOpenL2_Event"><path codeLine="64" d="M1229.02,425 C1245.78,443.31 1261.83,462.09 1276.5,481 C1356.39,584 1415.1603,709.0382 1442.6003,772.0182" fill="none" id="CDoorsExampleService-to-IVSS_SetIsOpenL2_Event" style="stroke:#181818;stroke-width:1;stroke-dasharray:7,7;"/><polygon fill="none" points="1449.79,788.52,1448.1009,769.6217,1437.0997,774.4148,1449.79,788.52" style="stroke:#181818;stroke-width:1;"/><text fill="#000000" font-family="sans-serif" font-size="13" lengthAdjust="spacing" textLength="67.1899" x="1270.5" y="469.4951">Implements</text></g><!--link CDoorsExampleService to IVSS_SetIsOpenR2_Event--><g class="link" data-entity-1="CDoorsExampleService" data-entity-2="IVSS_SetIsOpenR2_Event" data-source-line="65" data-uid="lnk26" id="link_CDoorsExampleService_IVSS_SetIsOpenR2_Event"><path codeLine="65" d="M1288.36,299.87 C1390.68,340.73 1499.57,399.29 1578.5,481 C1665.54,571.1 1698.1772,705.1609 1710.1772,771.1009" fill="none" id="CDoorsExampleService-to-IVSS_SetIsOpenR2_Event" style="stroke:#181818;stroke-width:1;stroke-dasharray:7,7;"/><polygon fill="none" points="1713.4,788.81,1716.0803,770.0266,1704.2742,772.1751,1713.4,788.81" style="stroke:#181818;stroke-width:1;"/><text fill="#000000" font-family="sans-serif" font-size="13" lengthAdjust="spacing" textLength="67.1899" x="1566.5" y="469.4951">Implements</text></g><!--SRC=[hLPDSzem4BtxL-mHce49JfEccawcXD3M6MWwc79bXBs0MY5HINQJfldlbKHCWFBPmi63j6_VFgrtLmQD1ZHEgQ96AY0a0824KwsXSIEbqirxEfboZ57bB45dVNGF-piPICdXJaI26KOv-uMbCiWSbM8f5fXSijHYud5cKlbJR4B4Q29zDqNHgfKyRKvvXkNrcCuUc5Qu1yzQp2CTQADeOfx0Mp-YyOc83JMPBXMuYkUgAwnpxkqDBZMcA_QMJBvxQpGiSDPbExIKIA7DB3YtcsNm6mNOxyEaF_YWf30j77fvinEjntJOQBmDr46gTl0uo3OQ2raudpiAflFJQKr83ySiuKZ8jKmV2758GkhtRgT_MYF4nN-kCKAYNXptxMjoFAyiztJfg76U74JjTU_Wdf_j8F9mb-x5p1xAl4FsqXjPu9wNKNUiaAOMchwi2b36X3aB-yPQ8s5i3CgTwIbuwNwTveGquZI_6tp3n2ms_gEshS2I9pZn88q_CXG9llEhxD9s3nEZAzSu3KTLvungzFt3addHhv0KRhxTS4WpRcQ1FzC9RdJrjHVfs3foD59iZx55w2pM3TgwJYs4BSkTvSLdQaWJXCZd_E-9kC_eMENwz-ue1cQ_cQCm6tJicgw7omctomaFaHF-lvoD3LxS5GVewHmdFLlr79AVpeRyhBkPeLBvVRNQjK2izZ4gPlH6lshL-grMz6RaiUhLINFa4_jV7o7aFaLmr9ZxzS6nG-vJMyin0tXlXresuK7mXLDXlhPRO3_1D9C2QjNmD3ollYsrxIB6APnUGkqDERyWPvVGQCPTSFPoK6f7NT0oKrPhojpS76J64fI3MvfJw6J2i0aISAjIjrs6k5biGbFap5wnJanmsslFGF19cdWgZGTVlAvSCmFkLAYWrmwUBm3hciZKZcW2ZMajF0-35XMZZ8vi9Flzs90sWdeWSDFy0m00]--></g></svg>