<svg xmlns="http://www.w3.org/2000/svg" xmlns:xlink="http://www.w3.org/1999/xlink" contentStyleType="text/css" data-diagram-type="CLASS" height="591px" preserveAspectRatio="none" style="width:1364px;height:591px;background:#FFFFFF;" version="1.1" viewBox="0 0 1364 591" width="1364px" zoomAndPan="magnify"><defs/><g><!--cluster sdv--><g class="cluster" data-entity="sdv" data-source-line="17" data-uid="ent0004" id="cluster_sdv"><path d="M8.5,383.5 L33.624,383.5 A3.75,3.75 0 0 1 36.124,386 L43.124,407.1094 L810.5,407.1094 A2.5,2.5 0 0 1 813,409.6094 L813,551 A2.5,2.5 0 0 1 810.5,553.5 L8.5,553.5 A2.5,2.5 0 0 1 6,551 L6,386 A2.5,2.5 0 0 1 8.5,383.5" fill="none" style="stroke:#000000;stroke-width:1.5;"/><line style="stroke:#000000;stroke-width:1.5;" x1="6" x2="43.124" y1="407.1094" y2="407.1094"/><text fill="#000000" font-family="sans-serif" font-size="14" font-weight="bold" lengthAdjust="spacing" textLength="24.124" x="10" y="400.0332">sdv</text></g><!--cluster vss--><g class="cluster" data-entity="vss" data-source-line="33" data-uid="ent0007" id="cluster_vss"><path d="M839.5,313 L863.8584,313 A3.75,3.75 0 0 1 866.3584,315.5 L873.3584,336.6094 L1354.5,336.6094 A2.5,2.5 0 0 1 1357,339.1094 L1357,581.5 A2.5,2.5 0 0 1 1354.5,584 L839.5,584 A2.5,2.5 0 0 1 837,581.5 L837,315.5 A2.5,2.5 0 0 1 839.5,313" fill="none" style="stroke:#000000;stroke-width:1.5;"/><line style="stroke:#000000;stroke-width:1.5;" x1="837" x2="873.3584" y1="336.6094" y2="336.6094"/><text fill="#000000" font-family="sans-serif" font-size="14" font-weight="bold" lengthAdjust="spacing" textLength="23.3584" x="841" y="329.5332">vss</text></g><!--cluster Vehicle--><g class="cluster" data-entity="Vehicle" data-source-line="33" data-uid="ent0008" id="cluster_Vehicle"><path d="M863.5,357 L913.5273,357 A3.75,3.75 0 0 1 916.0273,359.5 L923.0273,380.6094 L1330.5,380.6094 A2.5,2.5 0 0 1 1333,383.1094 L1333,557.5 A2.5,2.5 0 0 1 1330.5,560 L863.5,560 A2.5,2.5 0 0 1 861,557.5 L861,359.5 A2.5,2.5 0 0 1 863.5,357" fill="none" style="stroke:#000000;stroke-width:1.5;"/><line style="stroke:#000000;stroke-width:1.5;" x1="861" x2="923.0273" y1="380.6094" y2="380.6094"/><text fill="#000000" font-family="sans-serif" font-size="14" font-weight="bold" lengthAdjust="spacing" textLength="49.0273" x="865" y="373.5332">Vehicle</text></g><!--cluster SpeedDevice--><g class="cluster" data-entity="SpeedDevice" data-source-line="33" data-uid="ent0009" id="cluster_SpeedDevice"><path d="M887.5,401 L975.6582,401 A3.75,3.75 0 0 1 978.1582,403.5 L985.1582,424.6094 L1306.5,424.6094 A2.5,2.5 0 0 1 1309,427.1094 L1309,533.5 A2.5,2.5 0 0 1 1306.5,536 L887.5,536 A2.5,2.5 0 0 1 885,533.5 L885,403.5 A2.5,2.5 0 0 1 887.5,401" fill="none" style="stroke:#000000;stroke-width:1.5;"/><line style="stroke:#000000;stroke-width:1.5;" x1="885" x2="985.1582" y1="424.6094" y2="424.6094"/><text fill="#000000" font-family="sans-serif" font-size="14" font-weight="bold" lengthAdjust="spacing" textLength="87.1582" x="889" y="417.5332">SpeedDevice</text></g><!--class CSdvObject--><g class="entity" data-entity="CSdvObject" data-source-line="17" data-uid="ent0003" id="entity_CSdvObject"><rect fill="#F1F1F1" height="118.4375" rx="2.5" ry="2.5" style="stroke:#181818;stroke-width:0.5;" width="412.7705" x="22.5" y="419.5"/><ellipse cx="187.2871" cy="435.5" fill="#ADD1B2" rx="11" ry="11" style="stroke:#181818;stroke-width:1;"/><path d="M190.0527,431.375 Q190.209,431.1563 190.3965,431.0469 Q190.584,430.9375 190.8027,430.9375 Q191.1777,430.9375 191.4121,431.1953 Q191.6465,431.4531 191.6465,432.0625 L191.6465,433.5156 Q191.6465,434.125 191.4121,434.3906 Q191.1777,434.6563 190.8027,434.6563 Q190.459,434.6563 190.2559,434.4531 Q190.0527,434.2656 189.9434,433.75 Q189.8965,433.3906 189.709,433.2031 Q189.3809,432.8281 188.7715,432.6094 Q188.1621,432.3906 187.5371,432.3906 Q186.7715,432.3906 186.1387,432.7188 Q185.5059,433.0469 185.0137,433.7969 Q184.5215,434.5469 184.5215,435.5781 L184.5215,436.6719 Q184.5215,437.9063 185.4121,438.7266 Q186.3027,439.5469 187.8965,439.5469 Q188.834,439.5469 189.4902,439.2969 Q189.8809,439.1406 190.3027,438.7031 Q190.5684,438.4375 190.7168,438.3594 Q190.8652,438.2813 191.0684,438.2813 Q191.3965,438.2813 191.6543,438.5391 Q191.9121,438.7969 191.9121,439.1406 Q191.9121,439.4844 191.5684,439.8906 Q191.0684,440.4688 190.2715,440.7969 Q189.1934,441.25 187.8965,441.25 Q186.3809,441.25 185.1777,440.625 Q184.1934,440.125 183.5059,439.0547 Q182.8184,437.9844 182.8184,436.7031 L182.8184,435.5469 Q182.8184,434.2188 183.4355,433.0703 Q184.0527,431.9219 185.1465,431.3047 Q186.2402,430.6875 187.4746,430.6875 Q188.209,430.6875 188.8574,430.8516 Q189.5059,431.0156 190.0527,431.375 Z " fill="#000000"/><text fill="#000000" font-family="sans-serif" font-size="14" lengthAdjust="spacing" textLength="74.6963" x="207.7871" y="441.2285">CSdvObject</text><line style="stroke:#181818;stroke-width:0.5;" x1="23.5" x2="434.2705" y1="451.5" y2="451.5"/><line style="stroke:#181818;stroke-width:0.5;" x1="23.5" x2="434.2705" y1="459.5" y2="459.5"/><ellipse cx="33.5" cy="473.8047" fill="#84BE84" rx="3" ry="3" style="stroke:#038048;stroke-width:1;"/><text fill="#000000" font-family="sans-serif" font-size="14" lengthAdjust="spacing" text-decoration="underline" textLength="336.9365" x="42.5" y="478.0332">sdv::sequence&lt;sdv::u8string&gt; GetClassAliasesStatic()</text><ellipse cx="33.5" cy="491.4141" fill="#84BE84" rx="3" ry="3" style="stroke:#038048;stroke-width:1;"/><text fill="#000000" font-family="sans-serif" font-size="14" lengthAdjust="spacing" text-decoration="underline" textLength="272.3301" x="42.5" y="495.6426">sdv::u8string GetDefaultObjectNameStatic()</text><ellipse cx="33.5" cy="509.0234" fill="#84BE84" rx="3" ry="3" style="stroke:#038048;stroke-width:1;"/><text fill="#000000" font-family="sans-serif" font-size="14" lengthAdjust="spacing" text-decoration="underline" textLength="143.9648" x="42.5" y="513.252">bool IsSingletonStatic()</text><ellipse cx="33.5" cy="526.6328" fill="#84BE84" rx="3" ry="3" style="stroke:#038048;stroke-width:1;"/><text fill="#000000" font-family="sans-serif" font-size="14" lengthAdjust="spacing" text-decoration="underline" textLength="386.7705" x="42.5" y="530.8613">sdv::sequence&lt;sdv::u8string&gt; GetObjectDependenciesStatic()</text></g><!--class IObjectControl--><g class="entity" data-entity="IObjectControl" data-source-line="25" data-uid="ent0005" id="entity_IObjectControl"><rect fill="#F1F1F1" height="118.4375" rx="2.5" ry="2.5" style="stroke:#181818;stroke-width:0.5;" width="326.3574" x="471" y="419.5"/><ellipse cx="585.1875" cy="435.5" fill="#B4A7E5" rx="11" ry="11" style="stroke:#181818;stroke-width:1;"/><path d="M586.1406,432.1406 L586.1406,438.7969 L587.8594,438.7969 Q588.4688,438.7969 588.7344,439.0313 Q589,439.2656 589,439.6563 Q589,440.0313 588.7344,440.2656 Q588.4688,440.5 587.8594,440.5 L582.7188,440.5 Q582.1094,440.5 581.8438,440.2656 Q581.5781,440.0313 581.5781,439.6406 Q581.5781,439.2656 581.8438,439.0313 Q582.1094,438.7969 582.7188,438.7969 L584.4375,438.7969 L584.4375,432.1406 L582.7188,432.1406 Q582.1094,432.1406 581.8438,431.9063 Q581.5781,431.6719 581.5781,431.2813 Q581.5781,430.9063 581.8438,430.6719 Q582.1094,430.4375 582.7188,430.4375 L587.8594,430.4375 Q588.4688,430.4375 588.7344,430.6719 Q589,430.9063 589,431.2813 Q589,431.6719 588.7344,431.9063 Q588.4688,432.1406 587.8594,432.1406 L586.1406,432.1406 Z " fill="#000000"/><text fill="#000000" font-family="sans-serif" font-size="14" font-style="italic" lengthAdjust="spacing" textLength="89.4824" x="605.6875" y="441.2285">IObjectControl</text><line style="stroke:#181818;stroke-width:0.5;" x1="472" x2="796.3574" y1="451.5" y2="451.5"/><line style="stroke:#181818;stroke-width:0.5;" x1="472" x2="796.3574" y1="459.5" y2="459.5"/><text fill="#000000" font-family="sans-serif" font-size="14" font-style="italic" lengthAdjust="spacing" textLength="314.3574" x="477" y="478.0332">void Initialize(const sdv::u8string&amp; ssObjectConfig)</text><text fill="#000000" font-family="sans-serif" font-size="14" font-style="italic" lengthAdjust="spacing" textLength="202.3096" x="477" y="495.6426">EObjectStatus GetStatus() const</text><text fill="#000000" font-family="sans-serif" font-size="14" font-style="italic" lengthAdjust="spacing" textLength="308.9502" x="477" y="513.252">void SetOperationMode(EOperationMode eMode)</text><text fill="#000000" font-family="sans-serif" font-size="14" font-style="italic" lengthAdjust="spacing" textLength="101.165" x="477" y="530.8613">void Shutdown()</text></g><!--class IVSS_Speed--><g class="entity" data-entity="IVSS_Speed" data-source-line="33" data-uid="ent0006" id="entity_IVSS_Speed"><rect fill="#F1F1F1" height="83.2188" rx="2.5" ry="2.5" style="stroke:#181818;stroke-width:0.5;" width="391.7637" x="901" y="437"/><ellipse cx="1052.5459" cy="453" fill="#B4A7E5" rx="11" ry="11" style="stroke:#181818;stroke-width:1;"/><path d="M1053.499,449.6406 L1053.499,456.2969 L1055.2178,456.2969 Q1055.8271,456.2969 1056.0928,456.5313 Q1056.3584,456.7656 1056.3584,457.1563 Q1056.3584,457.5313 1056.0928,457.7656 Q1055.8271,458 1055.2178,458 L1050.0771,458 Q1049.4678,458 1049.2021,457.7656 Q1048.9365,457.5313 1048.9365,457.1406 Q1048.9365,456.7656 1049.2021,456.5313 Q1049.4678,456.2969 1050.0771,456.2969 L1051.7959,456.2969 L1051.7959,449.6406 L1050.0771,449.6406 Q1049.4678,449.6406 1049.2021,449.4063 Q1048.9365,449.1719 1048.9365,448.7813 Q1048.9365,448.4063 1049.2021,448.1719 Q1049.4678,447.9375 1050.0771,447.9375 L1055.2178,447.9375 Q1055.8271,447.9375 1056.0928,448.1719 Q1056.3584,448.4063 1056.3584,448.7813 Q1056.3584,449.1719 1056.0928,449.4063 Q1055.8271,449.6406 1055.2178,449.6406 L1053.499,449.6406 Z " fill="#000000"/><text fill="#000000" font-family="sans-serif" font-size="14" font-style="italic" lengthAdjust="spacing" textLength="80.1719" x="1073.0459" y="458.7285">IVSS_Speed</text><line style="stroke:#181818;stroke-width:0.5;" x1="902" x2="1291.7637" y1="469" y2="469"/><line style="stroke:#181818;stroke-width:0.5;" x1="902" x2="1291.7637" y1="477" y2="477"/><text fill="#000000" font-family="sans-serif" font-size="14" font-style="italic" lengthAdjust="spacing" textLength="367.3154" x="907" y="495.5332">void RegisterSpeedEvent(IVSS_WriteSpeed_Event* event)</text><text fill="#000000" font-family="sans-serif" font-size="14" font-style="italic" lengthAdjust="spacing" textLength="379.7637" x="907" y="513.1426">void UnregisterSpeedEvent(IVSS_WriteSpeed_Event* event)</text></g><!--class CVehicleDeviceVehicleSpeed--><g class="entity" data-entity="CVehicleDeviceVehicleSpeed" data-source-line="2" data-uid="ent0002" id="entity_CVehicleDeviceVehicleSpeed"><rect fill="#F1F1F1" height="241.7031" rx="2.5" ry="2.5" style="stroke:#181818;stroke-width:0.5;" width="590.9697" x="338.5" y="7"/><ellipse cx="537.125" cy="23" fill="#ADD1B2" rx="11" ry="11" style="stroke:#181818;stroke-width:1;"/><path d="M539.8906,18.875 Q540.0469,18.6563 540.2344,18.5469 Q540.4219,18.4375 540.6406,18.4375 Q541.0156,18.4375 541.25,18.6953 Q541.4844,18.9531 541.4844,19.5625 L541.4844,21.0156 Q541.4844,21.625 541.25,21.8906 Q541.0156,22.1563 540.6406,22.1563 Q540.2969,22.1563 540.0938,21.9531 Q539.8906,21.7656 539.7813,21.25 Q539.7344,20.8906 539.5469,20.7031 Q539.2188,20.3281 538.6094,20.1094 Q538,19.8906 537.375,19.8906 Q536.6094,19.8906 535.9766,20.2188 Q535.3438,20.5469 534.8516,21.2969 Q534.3594,22.0469 534.3594,23.0781 L534.3594,24.1719 Q534.3594,25.4063 535.25,26.2266 Q536.1406,27.0469 537.7344,27.0469 Q538.6719,27.0469 539.3281,26.7969 Q539.7188,26.6406 540.1406,26.2031 Q540.4063,25.9375 540.5547,25.8594 Q540.7031,25.7813 540.9063,25.7813 Q541.2344,25.7813 541.4922,26.0391 Q541.75,26.2969 541.75,26.6406 Q541.75,26.9844 541.4063,27.3906 Q540.9063,27.9688 540.1094,28.2969 Q539.0313,28.75 537.7344,28.75 Q536.2188,28.75 535.0156,28.125 Q534.0313,27.625 533.3438,26.5547 Q532.6563,25.4844 532.6563,24.2031 L532.6563,23.0469 Q532.6563,21.7188 533.2734,20.5703 Q533.8906,19.4219 534.9844,18.8047 Q536.0781,18.1875 537.3125,18.1875 Q538.0469,18.1875 538.6953,18.3516 Q539.3438,18.5156 539.8906,18.875 Z " fill="#000000"/><text fill="#000000" font-family="sans-serif" font-size="14" lengthAdjust="spacing" textLength="185.2197" x="557.625" y="28.7285">CVehicleDeviceVehicleSpeed</text><line style="stroke:#181818;stroke-width:0.5;" x1="339.5" x2="928.4697" y1="39" y2="39"/><rect fill="none" height="6" style="stroke:#C82930;stroke-width:1;" width="6" x="346.5" y="50.3047"/><text fill="#000000" font-family="sans-serif" font-size="14" lengthAdjust="spacing" textLength="259.9229" x="358.5" y="57.5332">sdv::core::CSignal m_vehicleSpeedSignal</text><rect fill="none" height="6" style="stroke:#C82930;stroke-width:1;" width="6" x="346.5" y="67.9141"/><text fill="#000000" font-family="sans-serif" font-size="14" lengthAdjust="spacing" textLength="324.4883" x="358.5" y="75.1426">mutable std::mutex m_vehicleSpeedMutexCallbacks</text><rect fill="none" height="6" style="stroke:#C82930;stroke-width:1;" width="6" x="346.5" y="85.5234"/><text fill="#000000" font-family="sans-serif" font-size="14" lengthAdjust="spacing" textLength="564.9697" x="358.5" y="92.752">std::set&lt;vss::Vehicle::SpeedDevice::IVSS_WriteSpeed_Event*&gt; m_vehicleSpeedCallbacks</text><rect fill="none" height="6" style="stroke:#C82930;stroke-width:1;" width="6" x="346.5" y="103.1328"/><text fill="#000000" font-family="sans-serif" font-size="14" lengthAdjust="spacing" textLength="263.7852" x="358.5" y="110.3613">std::atomic&lt;sdv::EObjectStatus&gt; m_status</text><line style="stroke:#181818;stroke-width:0.5;" x1="339.5" x2="928.4697" y1="117.4375" y2="117.4375"/><ellipse cx="349.5" cy="131.7422" fill="#84BE84" rx="3" ry="3" style="stroke:#038048;stroke-width:1;"/><text fill="#000000" font-family="sans-serif" font-size="14" font-style="italic" lengthAdjust="spacing" textLength="297.2539" x="358.5" y="135.9707">void Initialize(const sdv::u8string&amp; objectConfig)</text><ellipse cx="349.5" cy="149.3516" fill="#84BE84" rx="3" ry="3" style="stroke:#038048;stroke-width:1;"/><text fill="#000000" font-family="sans-serif" font-size="14" font-style="italic" lengthAdjust="spacing" textLength="231.875" x="358.5" y="153.5801">sdv::EObjectStatus GetStatus() const</text><ellipse cx="349.5" cy="166.9609" fill="#84BE84" rx="3" ry="3" style="stroke:#038048;stroke-width:1;"/><text fill="#000000" font-family="sans-serif" font-size="14" font-style="italic" lengthAdjust="spacing" textLength="338.5156" x="358.5" y="171.1895">void SetOperationMode(sdv::EOperationMode eMode)</text><ellipse cx="349.5" cy="184.5703" fill="#84BE84" rx="3" ry="3" style="stroke:#038048;stroke-width:1;"/><text fill="#000000" font-family="sans-serif" font-size="14" font-style="italic" lengthAdjust="spacing" textLength="101.165" x="358.5" y="188.7988">void Shutdown()</text><ellipse cx="349.5" cy="202.1797" fill="#84BE84" rx="3" ry="3" style="stroke:#038048;stroke-width:1;"/><text fill="#000000" font-family="sans-serif" font-size="14" font-style="italic" lengthAdjust="spacing" textLength="540.8457" x="358.5" y="206.4082">void RegisterSpeedEvent(vss::Vehicle::SpeedDevice::IVSS_WriteSpeed_Event* event)</text><ellipse cx="349.5" cy="219.7891" fill="#84BE84" rx="3" ry="3" style="stroke:#038048;stroke-width:1;"/><text fill="#000000" font-family="sans-serif" font-size="14" font-style="italic" lengthAdjust="spacing" textLength="553.2939" x="358.5" y="224.0176">void UnregisterSpeedEvent(vss::Vehicle::SpeedDevice::IVSS_WriteSpeed_Event* event)</text><rect fill="#F24D5C" height="6" style="stroke:#C82930;stroke-width:1;" width="6" x="346.5" y="234.3984"/><text fill="#000000" font-family="sans-serif" font-size="14" lengthAdjust="spacing" textLength="375.8535" x="358.5" y="241.627">void ExecuteAllCallBacksForVehicleSpeed(sdv::any_t value)</text></g><!--link CVehicleDeviceVehicleSpeed to CSdvObject--><g class="link" data-entity-1="CVehicleDeviceVehicleSpeed" data-entity-2="CSdvObject" data-source-line="39" data-uid="lnk10" id="link_CVehicleDeviceVehicleSpeed_CSdvObject"><path codeLine="39" d="M494.34,249.18 C427.44,306.75 364.0249,361.3205 310.2449,407.5905" fill="none" id="CVehicleDeviceVehicleSpeed-to-CSdvObject" style="stroke:#181818;stroke-width:1;"/><polygon fill="none" points="296.6,419.33,314.1581,412.1388,306.3318,403.0422,296.6,419.33" style="stroke:#181818;stroke-width:1;"/><text fill="#000000" font-family="sans-serif" font-size="13" lengthAdjust="spacing" textLength="42.6309" x="456" y="293.4951">Inherits</text></g><!--link CVehicleDeviceVehicleSpeed to IObjectControl--><g class="link" data-entity-1="CVehicleDeviceVehicleSpeed" data-entity-2="IObjectControl" data-source-line="40" data-uid="lnk11" id="link_CVehicleDeviceVehicleSpeed_IObjectControl"><path codeLine="40" d="M634,249.42 C634,306.87 634,354.98 634,401.18" fill="none" id="CVehicleDeviceVehicleSpeed-to-IObjectControl" style="stroke:#181818;stroke-width:1;stroke-dasharray:7,7;"/><polygon fill="none" points="634,419.18,640,401.18,628,401.18,634,419.18" style="stroke:#181818;stroke-width:1;"/><text fill="#000000" font-family="sans-serif" font-size="13" lengthAdjust="spacing" textLength="67.1899" x="635" y="293.4951">Implements</text></g><!--link CVehicleDeviceVehicleSpeed to IVSS_Speed--><g class="link" data-entity-1="CVehicleDeviceVehicleSpeed" data-entity-2="IVSS_Speed" data-source-line="41" data-uid="lnk12" id="link_CVehicleDeviceVehicleSpeed_IVSS_Speed"><path codeLine="41" d="M793.66,249.18 C880.47,314.52 967.8679,380.3062 1028.6979,426.0862" fill="none" id="CVehicleDeviceVehicleSpeed-to-IVSS_Speed" style="stroke:#181818;stroke-width:1;stroke-dasharray:7,7;"/><polygon fill="none" points="1043.08,436.91,1032.3058,421.2921,1025.09,430.8802,1043.08,436.91" style="stroke:#181818;stroke-width:1;"/><text fill="#000000" font-family="sans-serif" font-size="13" lengthAdjust="spacing" textLength="67.1899" x="852" y="293.4951">Implements</text></g><!--SRC=[hLHDZzem5BplhtYdAdJ5dYiB8Mq3NUMmHMhKxH4Pvm7kEdOQE-csbFzUVm1DiWIoKZc4n9cPzpmPFz1eG6D1IsfK2OJS000JL6k8dt3BcS0PrfpXuI4j43E7sRcB_Ttkw4gRaZApXrhn31B93QU2_yQ8AQcjUbOJKdsm82utxq2jlYCpiP9hlXcT4V7m-SAZKaDDfU413tVH2BncN-qKpQ90knMkvAFAC3g8DTS0tNNKAx6jJAP-ogWNyGKtN1iilHNp6gM9Qgq9EJX4Y7yHN2CaUKhJvRUIcs3TqXFU0xg_tX9VPVdVYuozylm5MMNmNeYO2l6HicVzIPNDZniye_BNqa1DHNMoQknVC5NQWd7ADv8Ao9TrWneMZ_2yCdGb4BJ92B4F-DA1FxerryRAjN6guk0sbPCtxtVQqJylRNEUSpPv7JD7r_xEuVSt_qw2nyPfLWTuC_uxn-1i3xSUfF57XPBXf1NwgKjmxAJk1QSQTUf9fuXrH8uqnvhXcbR2XCAVQOwzr9LI0XATMg90e-Jb6XSQ3RLcMA3CB8Itsms-9D9cSqqP1c-InV5GcrA9bZzld0vQByxCXuRAiCbmTJ1ScWcNHqBNW6inVJKn1yoJ8UTvqCouAXHsqp_gOJp-C-qU021s_rkqileA- -xko6v7n2daXS3SzZ58Ov3BBTM_]--></g></svg>