<svg xmlns="http://www.w3.org/2000/svg" xmlns:xlink="http://www.w3.org/1999/xlink" contentStyleType="text/css" data-diagram-type="CLASS" height="619px" preserveAspectRatio="none" style="width:1019px;height:619px;background:#FFFFFF;" version="1.1" viewBox="0 0 1019 619" width="1019px" zoomAndPan="magnify"><defs/><g><!--cluster sdv--><g class="cluster" data-entity="sdv" data-source-line="8" data-uid="ent0004" id="cluster_sdv"><path d="M8.5,348 L33.624,348 A3.75,3.75 0 0 1 36.124,350.5 L43.124,371.6094 L449.5,371.6094 A2.5,2.5 0 0 1 452,374.1094 L452,515.5 A2.5,2.5 0 0 1 449.5,518 L8.5,518 A2.5,2.5 0 0 1 6,515.5 L6,350.5 A2.5,2.5 0 0 1 8.5,348" fill="none" style="stroke:#000000;stroke-width:1.5;"/><line style="stroke:#000000;stroke-width:1.5;" x1="6" x2="43.124" y1="371.6094" y2="371.6094"/><text fill="#000000" font-family="sans-serif" font-size="14" font-weight="bold" lengthAdjust="spacing" textLength="24.124" x="10" y="364.5332">sdv</text></g><!--cluster vss--><g class="cluster" data-entity="vss" data-source-line="16" data-uid="ent0006" id="cluster_vss"><path d="M478.5,154 L502.8584,154 A3.75,3.75 0 0 1 505.3584,156.5 L512.3584,177.6094 L1009.5,177.6094 A2.5,2.5 0 0 1 1012,180.1094 L1012,609.5 A2.5,2.5 0 0 1 1009.5,612 L478.5,612 A2.5,2.5 0 0 1 476,609.5 L476,156.5 A2.5,2.5 0 0 1 478.5,154" fill="none" style="stroke:#000000;stroke-width:1.5;"/><line style="stroke:#000000;stroke-width:1.5;" x1="476" x2="512.3584" y1="177.6094" y2="177.6094"/><text fill="#000000" font-family="sans-serif" font-size="14" font-weight="bold" lengthAdjust="spacing" textLength="23.3584" x="480" y="170.5332">vss</text></g><!--cluster Vehicle--><g class="cluster" data-entity="Vehicle" data-source-line="16" data-uid="ent0007" id="cluster_Vehicle"><path d="M502.5,198 L552.5273,198 A3.75,3.75 0 0 1 555.0273,200.5 L562.0273,221.6094 L985.5,221.6094 A2.5,2.5 0 0 1 988,224.1094 L988,585.5 A2.5,2.5 0 0 1 985.5,588 L502.5,588 A2.5,2.5 0 0 1 500,585.5 L500,200.5 A2.5,2.5 0 0 1 502.5,198" fill="none" style="stroke:#000000;stroke-width:1.5;"/><line style="stroke:#000000;stroke-width:1.5;" x1="500" x2="562.0273" y1="221.6094" y2="221.6094"/><text fill="#000000" font-family="sans-serif" font-size="14" font-weight="bold" lengthAdjust="spacing" textLength="49.0273" x="504" y="214.5332">Vehicle</text></g><!--cluster Body--><g class="cluster" data-entity="Body" data-source-line="16" data-uid="ent0008" id="cluster_Body"><path d="M526.5,242 L562.5,242 A3.75,3.75 0 0 1 565,244.5 L572,265.6094 L961.5,265.6094 A2.5,2.5 0 0 1 964,268.1094 L964,561.5 A2.5,2.5 0 0 1 961.5,564 L526.5,564 A2.5,2.5 0 0 1 524,561.5 L524,244.5 A2.5,2.5 0 0 1 526.5,242" fill="none" style="stroke:#000000;stroke-width:1.5;"/><line style="stroke:#000000;stroke-width:1.5;" x1="524" x2="572" y1="265.6094" y2="265.6094"/><text fill="#000000" font-family="sans-serif" font-size="14" font-weight="bold" lengthAdjust="spacing" textLength="35" x="528" y="258.5332">Body</text></g><!--cluster Light--><g class="cluster" data-entity="Light" data-source-line="16" data-uid="ent0009" id="cluster_Light"><path d="M550.5,286 L585.707,286 A3.75,3.75 0 0 1 588.207,288.5 L595.207,309.6094 L937.5,309.6094 A2.5,2.5 0 0 1 940,312.1094 L940,537.5 A2.5,2.5 0 0 1 937.5,540 L550.5,540 A2.5,2.5 0 0 1 548,537.5 L548,288.5 A2.5,2.5 0 0 1 550.5,286" fill="none" style="stroke:#000000;stroke-width:1.5;"/><line style="stroke:#000000;stroke-width:1.5;" x1="548" x2="595.207" y1="309.6094" y2="309.6094"/><text fill="#000000" font-family="sans-serif" font-size="14" font-weight="bold" lengthAdjust="spacing" textLength="34.207" x="552" y="302.5332">Light</text></g><!--cluster Front--><g class="cluster" data-entity="Front" data-source-line="16" data-uid="ent0010" id="cluster_Front"><path d="M574.5,330 L611.2656,330 A3.75,3.75 0 0 1 613.7656,332.5 L620.7656,353.6094 L913.5,353.6094 A2.5,2.5 0 0 1 916,356.1094 L916,513.5 A2.5,2.5 0 0 1 913.5,516 L574.5,516 A2.5,2.5 0 0 1 572,513.5 L572,332.5 A2.5,2.5 0 0 1 574.5,330" fill="none" style="stroke:#000000;stroke-width:1.5;"/><line style="stroke:#000000;stroke-width:1.5;" x1="572" x2="620.7656" y1="353.6094" y2="353.6094"/><text fill="#000000" font-family="sans-serif" font-size="14" font-weight="bold" lengthAdjust="spacing" textLength="35.7656" x="576" y="346.5332">Front</text></g><!--cluster LowBeamService--><g class="cluster" data-entity="LowBeamService" data-source-line="16" data-uid="ent0011" id="cluster_LowBeamService"><path d="M598.5,374 L715.4443,374 A3.75,3.75 0 0 1 717.9443,376.5 L724.9443,397.6094 L889.5,397.6094 A2.5,2.5 0 0 1 892,400.1094 L892,489.5 A2.5,2.5 0 0 1 889.5,492 L598.5,492 A2.5,2.5 0 0 1 596,489.5 L596,376.5 A2.5,2.5 0 0 1 598.5,374" fill="none" style="stroke:#000000;stroke-width:1.5;"/><line style="stroke:#000000;stroke-width:1.5;" x1="596" x2="724.9443" y1="397.6094" y2="397.6094"/><text fill="#000000" font-family="sans-serif" font-size="14" font-weight="bold" lengthAdjust="spacing" textLength="115.9443" x="600" y="390.5332">LowBeamService</text></g><!--class CSdvObject--><g class="entity" data-entity="CSdvObject" data-source-line="8" data-uid="ent0003" id="entity_CSdvObject"><rect fill="#F1F1F1" height="118.4375" rx="2.5" ry="2.5" style="stroke:#181818;stroke-width:0.5;" width="412.7705" x="22.5" y="384"/><ellipse cx="187.2871" cy="400" fill="#ADD1B2" rx="11" ry="11" style="stroke:#181818;stroke-width:1;"/><path d="M190.0527,395.875 Q190.209,395.6563 190.3965,395.5469 Q190.584,395.4375 190.8027,395.4375 Q191.1777,395.4375 191.4121,395.6953 Q191.6465,395.9531 191.6465,396.5625 L191.6465,398.0156 Q191.6465,398.625 191.4121,398.8906 Q191.1777,399.1563 190.8027,399.1563 Q190.459,399.1563 190.2559,398.9531 Q190.0527,398.7656 189.9434,398.25 Q189.8965,397.8906 189.709,397.7031 Q189.3809,397.3281 188.7715,397.1094 Q188.1621,396.8906 187.5371,396.8906 Q186.7715,396.8906 186.1387,397.2188 Q185.5059,397.5469 185.0137,398.2969 Q184.5215,399.0469 184.5215,400.0781 L184.5215,401.1719 Q184.5215,402.4063 185.4121,403.2266 Q186.3027,404.0469 187.8965,404.0469 Q188.834,404.0469 189.4902,403.7969 Q189.8809,403.6406 190.3027,403.2031 Q190.5684,402.9375 190.7168,402.8594 Q190.8652,402.7813 191.0684,402.7813 Q191.3965,402.7813 191.6543,403.0391 Q191.9121,403.2969 191.9121,403.6406 Q191.9121,403.9844 191.5684,404.3906 Q191.0684,404.9688 190.2715,405.2969 Q189.1934,405.75 187.8965,405.75 Q186.3809,405.75 185.1777,405.125 Q184.1934,404.625 183.5059,403.5547 Q182.8184,402.4844 182.8184,401.2031 L182.8184,400.0469 Q182.8184,398.7188 183.4355,397.5703 Q184.0527,396.4219 185.1465,395.8047 Q186.2402,395.1875 187.4746,395.1875 Q188.209,395.1875 188.8574,395.3516 Q189.5059,395.5156 190.0527,395.875 Z " fill="#000000"/><text fill="#000000" font-family="sans-serif" font-size="14" lengthAdjust="spacing" textLength="74.6963" x="207.7871" y="405.7285">CSdvObject</text><line style="stroke:#181818;stroke-width:0.5;" x1="23.5" x2="434.2705" y1="416" y2="416"/><line style="stroke:#181818;stroke-width:0.5;" x1="23.5" x2="434.2705" y1="424" y2="424"/><ellipse cx="33.5" cy="438.3047" fill="#84BE84" rx="3" ry="3" style="stroke:#038048;stroke-width:1;"/><text fill="#000000" font-family="sans-serif" font-size="14" lengthAdjust="spacing" text-decoration="underline" textLength="336.9365" x="42.5" y="442.5332">sdv::sequence&lt;sdv::u8string&gt; GetClassAliasesStatic()</text><ellipse cx="33.5" cy="455.9141" fill="#84BE84" rx="3" ry="3" style="stroke:#038048;stroke-width:1;"/><text fill="#000000" font-family="sans-serif" font-size="14" lengthAdjust="spacing" text-decoration="underline" textLength="272.3301" x="42.5" y="460.1426">sdv::u8string GetDefaultObjectNameStatic()</text><ellipse cx="33.5" cy="473.5234" fill="#84BE84" rx="3" ry="3" style="stroke:#038048;stroke-width:1;"/><text fill="#000000" font-family="sans-serif" font-size="14" lengthAdjust="spacing" text-decoration="underline" textLength="143.9648" x="42.5" y="477.752">bool IsSingletonStatic()</text><ellipse cx="33.5" cy="491.1328" fill="#84BE84" rx="3" ry="3" style="stroke:#038048;stroke-width:1;"/><text fill="#000000" font-family="sans-serif" font-size="14" lengthAdjust="spacing" text-decoration="underline" textLength="386.7705" x="42.5" y="495.3613">sdv::sequence&lt;sdv::u8string&gt; GetObjectDependenciesStatic()</text></g><!--class IVSS_SetHeadLightLowBeam--><g class="entity" data-entity="IVSS_SetHeadLightLowBeam" data-source-line="16" data-uid="ent0005" id="entity_IVSS_SetHeadLightLowBeam"><rect fill="#F1F1F1" height="65.6094" rx="2.5" ry="2.5" style="stroke:#181818;stroke-width:0.5;" width="262.6055" x="612.5" y="410"/><ellipse cx="647.2191" cy="426" fill="#B4A7E5" rx="11" ry="11" style="stroke:#181818;stroke-width:1;"/><path d="M648.1723,422.6406 L648.1723,429.2969 L649.891,429.2969 Q650.5004,429.2969 650.766,429.5313 Q651.0316,429.7656 651.0316,430.1563 Q651.0316,430.5313 650.766,430.7656 Q650.5004,431 649.891,431 L644.7504,431 Q644.141,431 643.8754,430.7656 Q643.6098,430.5313 643.6098,430.1406 Q643.6098,429.7656 643.8754,429.5313 Q644.141,429.2969 644.7504,429.2969 L646.4691,429.2969 L646.4691,422.6406 L644.7504,422.6406 Q644.141,422.6406 643.8754,422.4063 Q643.6098,422.1719 643.6098,421.7813 Q643.6098,421.4063 643.8754,421.1719 Q644.141,420.9375 644.7504,420.9375 L649.891,420.9375 Q650.5004,420.9375 650.766,421.1719 Q651.0316,421.4063 651.0316,421.7813 Q651.0316,422.1719 650.766,422.4063 Q650.5004,422.6406 649.891,422.6406 L648.1723,422.6406 Z " fill="#000000"/><text fill="#000000" font-family="sans-serif" font-size="14" font-style="italic" lengthAdjust="spacing" textLength="186.7852" x="665.6012" y="431.7285">IVSS_SetHeadLightLowBeam</text><line style="stroke:#181818;stroke-width:0.5;" x1="613.5" x2="874.1055" y1="442" y2="442"/><line style="stroke:#181818;stroke-width:0.5;" x1="613.5" x2="874.1055" y1="450" y2="450"/><text fill="#000000" font-family="sans-serif" font-size="14" font-style="italic" lengthAdjust="spacing" textLength="250.6055" x="618.5" y="468.5332">bool SetHeadLightLowBeam(bool value)</text></g><!--class CBasicServiceHeadLightLowBeam--><g class="entity" data-entity="CBasicServiceHeadLightLowBeam" data-source-line="2" data-uid="ent0002" id="entity_CBasicServiceHeadLightLowBeam"><rect fill="#F1F1F1" height="83.2188" rx="2.5" ry="2.5" style="stroke:#181818;stroke-width:0.5;" width="709.2246" x="131.5" y="7"/><ellipse cx="373.3076" cy="23" fill="#ADD1B2" rx="11" ry="11" style="stroke:#181818;stroke-width:1;"/><path d="M376.0732,18.875 Q376.2295,18.6563 376.417,18.5469 Q376.6045,18.4375 376.8232,18.4375 Q377.1982,18.4375 377.4326,18.6953 Q377.667,18.9531 377.667,19.5625 L377.667,21.0156 Q377.667,21.625 377.4326,21.8906 Q377.1982,22.1563 376.8232,22.1563 Q376.4795,22.1563 376.2764,21.9531 Q376.0732,21.7656 375.9639,21.25 Q375.917,20.8906 375.7295,20.7031 Q375.4014,20.3281 374.792,20.1094 Q374.1826,19.8906 373.5576,19.8906 Q372.792,19.8906 372.1592,20.2188 Q371.5264,20.5469 371.0342,21.2969 Q370.542,22.0469 370.542,23.0781 L370.542,24.1719 Q370.542,25.4063 371.4326,26.2266 Q372.3232,27.0469 373.917,27.0469 Q374.8545,27.0469 375.5107,26.7969 Q375.9014,26.6406 376.3232,26.2031 Q376.5889,25.9375 376.7373,25.8594 Q376.8857,25.7813 377.0889,25.7813 Q377.417,25.7813 377.6748,26.0391 Q377.9326,26.2969 377.9326,26.6406 Q377.9326,26.9844 377.5889,27.3906 Q377.0889,27.9688 376.292,28.2969 Q375.2139,28.75 373.917,28.75 Q372.4014,28.75 371.1982,28.125 Q370.2139,27.625 369.5264,26.5547 Q368.8389,25.4844 368.8389,24.2031 L368.8389,23.0469 Q368.8389,21.7188 369.4561,20.5703 Q370.0732,19.4219 371.167,18.8047 Q372.2607,18.1875 373.4951,18.1875 Q374.2295,18.1875 374.8779,18.3516 Q375.5264,18.5156 376.0732,18.875 Z " fill="#000000"/><text fill="#000000" font-family="sans-serif" font-size="14" lengthAdjust="spacing" textLength="217.1094" x="393.8076" y="28.7285">CBasicServiceHeadLightLowBeam</text><line style="stroke:#181818;stroke-width:0.5;" x1="132.5" x2="839.7246" y1="39" y2="39"/><rect fill="none" height="6" style="stroke:#C82930;stroke-width:1;" width="6" x="139.5" y="50.3047"/><text fill="#000000" font-family="sans-serif" font-size="14" lengthAdjust="spacing" textLength="683.2246" x="151.5" y="57.5332">vss::Vehicle::Body::Light::Front::LowBeamDevice::IVSS_WriteHeadLightLowBeam* m_ptrHeadLightLowBeam</text><line style="stroke:#181818;stroke-width:0.5;" x1="132.5" x2="839.7246" y1="64.6094" y2="64.6094"/><ellipse cx="142.5" cy="78.9141" fill="#84BE84" rx="3" ry="3" style="stroke:#038048;stroke-width:1;"/><text fill="#000000" font-family="sans-serif" font-size="14" lengthAdjust="spacing" textLength="250.6055" x="151.5" y="83.1426">bool SetHeadLightLowBeam(bool value)</text></g><!--link CBasicServiceHeadLightLowBeam to CSdvObject--><g class="link" data-entity-1="CBasicServiceHeadLightLowBeam" data-entity-2="CSdvObject" data-source-line="21" data-uid="lnk12" id="link_CBasicServiceHeadLightLowBeam_CSdvObject"><path codeLine="21" d="M459.46,90.03 C413.68,159.95 329.5612,288.4316 276.8512,368.9216" fill="none" id="CBasicServiceHeadLightLowBeam-to-CSdvObject" style="stroke:#181818;stroke-width:1;"/><polygon fill="none" points="266.99,383.98,281.8707,372.2086,271.8317,365.6345,266.99,383.98" style="stroke:#181818;stroke-width:1;"/><text fill="#000000" font-family="sans-serif" font-size="13" lengthAdjust="spacing" textLength="42.6309" x="437" y="134.4951">Inherits</text></g><!--link CBasicServiceHeadLightLowBeam to IVSS_SetHeadLightLowBeam--><g class="link" data-entity-1="CBasicServiceHeadLightLowBeam" data-entity-2="IVSS_SetHeadLightLowBeam" data-source-line="22" data-uid="lnk13" id="link_CBasicServiceHeadLightLowBeam_IVSS_SetHeadLightLowBeam"><path codeLine="22" d="M512.64,90.03 C564.07,168.27 666.2127,323.6587 712.9627,394.7787" fill="none" id="CBasicServiceHeadLightLowBeam-to-IVSS_SetHeadLightLowBeam" style="stroke:#181818;stroke-width:1;stroke-dasharray:7,7;"/><polygon fill="none" points="722.85,409.82,717.9765,391.4829,707.949,398.0744,722.85,409.82" style="stroke:#181818;stroke-width:1;"/><text fill="#000000" font-family="sans-serif" font-size="13" lengthAdjust="spacing" textLength="67.1899" x="542" y="134.4951">Implements</text></g><!--SRC=[hP91Qy9048Nl-HLpr8gUor24ghGLf3q4x57MpQXRDjbqPv9IhF-zkp52KL4FpMK9iz-yDsyMc0IOIkMLE0-82MYhc64yKcnqIhuscbv8PJEptiZCVOr8vGbi4m3eBPspa98SrpjDeLQsecwykF_wDJFYd3P6Mq8SkUmRiS4Gdxmhmj7o4uggYDDvcYxUlP4J1tUGBqhnfyPsoM42pch4SPhLRyiFqj9wth8eCNe7lQREz5bHeUcX-QlkMRmfraDu9Xd7Be_MA2PE6wZJFTFXm4HaGYjLMTaBlggSpdDDEbDE0sL9N76X-mL_UvK9bLHauOhvwpAcC2s4_4ffWfjpRzVT1dzciOSGrJ8OKLfsSDiJY7uklYZezt-6noi334DiAEoVh-63GS3_Rywed9UMSYg2zYy0]--></g></svg>