<svg xmlns="http://www.w3.org/2000/svg" xmlns:xlink="http://www.w3.org/1999/xlink" contentStyleType="text/css" data-diagram-type="SEQUENCE" height="1584px" preserveAspectRatio="none" style="width:1112px;height:1584px;background:#FFFFFF;" version="1.1" viewBox="0 0 1112 1584" width="1112px" zoomAndPan="magnify"><defs/><g><rect fill="#82B8B8" height="1572.7969" style="stroke:#181818;stroke-width:0.5;" width="153.5303" x="766.1885" y="6"/><text fill="#000000" font-family="sans-serif" font-size="13" font-weight="bold" lengthAdjust="spacing" textLength="85.9727" x="799.9673" y="19.4951">Core Instance</text><g><title>Carla Bridge</title><rect fill="#FFFFFF" height="225.1641" style="stroke:#181818;stroke-width:1;" width="10" x="280.6235" y="899.8047"/></g><g><title>Carla Bridge</title><rect fill="#FFFFFF" height="119.4063" style="stroke:#181818;stroke-width:1;" width="10" x="280.6235" y="1369.7813"/></g><g><title>Openxil</title><rect fill="#FFFFFF" height="95.0547" style="stroke:#181818;stroke-width:1;" width="10" x="561.7886" y="183.6641"/></g><g><title>Openxil</title><rect fill="#FFFFFF" height="866.25" style="stroke:#181818;stroke-width:1;" width="10" x="561.7886" y="622.9375"/></g><g><title>Headlight Application</title><rect fill="#FFFFFF" height="379.5703" style="stroke:#181818;stroke-width:1;" width="10" x="837.9536" y="278.7188"/></g><g><title>Headlight Application</title><rect fill="#FFFFFF" height="117.0547" style="stroke:#181818;stroke-width:1;" width="10" x="837.9536" y="1222.375"/></g><g><title>User</title><rect fill="#000000" fill-opacity="0.00000" height="1415.5781" width="8" x="56.7793" y="82.6094"/><line style="stroke:#181818;stroke-width:0.5;stroke-dasharray:5,5;" x1="60" x2="60" y1="82.6094" y2="1498.1875"/></g><g><title>Carla Bridge</title><rect fill="#000000" fill-opacity="0.00000" height="1415.5781" width="8" x="281.6235" y="82.6094"/><line style="stroke:#181818;stroke-width:0.5;stroke-dasharray:5,5;" x1="284.7168" x2="284.7168" y1="82.6094" y2="1498.1875"/></g><g><title>Openxil</title><rect fill="#000000" fill-opacity="0.00000" height="1415.5781" width="8" x="562.7886" y="82.6094"/><line style="stroke:#181818;stroke-width:0.5;stroke-dasharray:5,5;" x1="566.0542" x2="566.0542" y1="82.6094" y2="1498.1875"/></g><g><title>Headlight Application</title><rect fill="#000000" fill-opacity="0.00000" height="1415.5781" width="8" x="838.9536" y="82.6094"/><line style="stroke:#181818;stroke-width:0.5;stroke-dasharray:5,5;" x1="842.1885" x2="842.1885" y1="82.6094" y2="1498.1875"/></g><g class="participant participant-head" data-participant="User"><text fill="#000000" font-family="sans-serif" font-size="14" lengthAdjust="spacing" textLength="29.5586" x="43" y="79.5332">User</text><ellipse cx="60.7793" cy="13.5" fill="#E2E2F0" rx="8" ry="8" style="stroke:#181818;stroke-width:0.5;"/><path d="M60.7793,21.5 L60.7793,48.5 M47.7793,29.5 L73.7793,29.5 M60.7793,48.5 L47.7793,63.5 M60.7793,48.5 L73.7793,63.5" fill="none" style="stroke:#181818;stroke-width:0.5;"/></g><g class="participant participant-tail" data-participant="User"><text fill="#000000" font-family="sans-serif" font-size="14" lengthAdjust="spacing" textLength="29.5586" x="43" y="1511.7207">User</text><ellipse cx="60.7793" cy="1523.2969" fill="#E2E2F0" rx="8" ry="8" style="stroke:#181818;stroke-width:0.5;"/><path d="M60.7793,1531.2969 L60.7793,1558.2969 M47.7793,1539.2969 L73.7793,1539.2969 M60.7793,1558.2969 L47.7793,1573.2969 M60.7793,1558.2969 L73.7793,1573.2969" fill="none" style="stroke:#181818;stroke-width:0.5;"/></g><g class="participant participant-head" data-participant="CAB"><rect fill="#E2E2F0" height="31.6094" rx="2.5" ry="2.5" style="stroke:#181818;stroke-width:0.5;" width="91.8135" x="239.7168" y="50"/><text fill="#000000" font-family="sans-serif" font-size="14" lengthAdjust="spacing" textLength="77.8135" x="246.7168" y="71.5332">Carla Bridge</text></g><g class="participant participant-tail" data-participant="CAB"><rect fill="#E2E2F0" height="31.6094" rx="2.5" ry="2.5" style="stroke:#181818;stroke-width:0.5;" width="91.8135" x="239.7168" y="1497.1875"/><text fill="#000000" font-family="sans-serif" font-size="14" lengthAdjust="spacing" textLength="77.8135" x="246.7168" y="1518.7207">Carla Bridge</text></g><g class="participant participant-head" data-participant="OX"><rect fill="#E2E2F0" height="31.6094" rx="2.5" ry="2.5" style="stroke:#181818;stroke-width:0.5;" width="61.4688" x="536.0542" y="50"/><text fill="#000000" font-family="sans-serif" font-size="14" lengthAdjust="spacing" textLength="47.4688" x="543.0542" y="71.5332">Openxil</text></g><g class="participant participant-tail" data-participant="OX"><rect fill="#E2E2F0" height="31.6094" rx="2.5" ry="2.5" style="stroke:#181818;stroke-width:0.5;" width="61.4688" x="536.0542" y="1497.1875"/><text fill="#000000" font-family="sans-serif" font-size="14" lengthAdjust="spacing" textLength="47.4688" x="543.0542" y="1518.7207">Openxil</text></g><g class="participant participant-head" data-participant="HA"><rect fill="#00A7AB" height="31.6094" rx="2.5" ry="2.5" style="stroke:#181818;stroke-width:0.5;" width="145.5303" x="770.1885" y="50"/><text fill="#000000" font-family="sans-serif" font-size="14" lengthAdjust="spacing" textLength="131.5303" x="777.1885" y="71.5332">Headlight Application</text></g><g class="participant participant-tail" data-participant="HA"><rect fill="#00A7AB" height="31.6094" rx="2.5" ry="2.5" style="stroke:#181818;stroke-width:0.5;" width="145.5303" x="770.1885" y="1497.1875"/><text fill="#000000" font-family="sans-serif" font-size="14" lengthAdjust="spacing" textLength="131.5303" x="777.1885" y="1518.7207">Headlight Application</text></g><g><title>Carla Bridge</title><rect fill="#FFFFFF" height="225.1641" style="stroke:#181818;stroke-width:1;" width="10" x="280.6235" y="899.8047"/></g><g><title>Carla Bridge</title><rect fill="#FFFFFF" height="119.4063" style="stroke:#181818;stroke-width:1;" width="10" x="280.6235" y="1369.7813"/></g><g><title>Openxil</title><rect fill="#FFFFFF" height="95.0547" style="stroke:#181818;stroke-width:1;" width="10" x="561.7886" y="183.6641"/></g><g><title>Openxil</title><rect fill="#FFFFFF" height="866.25" style="stroke:#181818;stroke-width:1;" width="10" x="561.7886" y="622.9375"/></g><g><title>Headlight Application</title><rect fill="#FFFFFF" height="379.5703" style="stroke:#181818;stroke-width:1;" width="10" x="837.9536" y="278.7188"/></g><g><title>Headlight Application</title><rect fill="#FFFFFF" height="117.0547" style="stroke:#181818;stroke-width:1;" width="10" x="837.9536" y="1222.375"/></g><rect fill="#FEFFDD" height="24" style="stroke:#181818;stroke-width:0.5;" width="96" x="12" y="97.6094"/><text fill="#000000" font-family="sans-serif" font-size="13" lengthAdjust="spacing" textLength="88.1689" x="16" y="115.1045">Set Python env</text><rect fill="#FEFFDD" height="24" style="stroke:#181818;stroke-width:0.5;" width="112" x="5" y="131.9609"/><text fill="#000000" font-family="sans-serif" font-size="13" lengthAdjust="spacing" textLength="104.0317" x="9" y="149.4561">Start Carla Server</text><g class="message" data-participant-1="User" data-participant-2="OX"><polygon fill="#181818" points="549.7886,179.6641,559.7886,183.6641,549.7886,187.6641,553.7886,183.6641" style="stroke:#181818;stroke-width:1;"/><line style="stroke:#181818;stroke-width:1;" x1="60.7793" x2="555.7886" y1="183.6641" y2="183.6641"/><text fill="#000000" font-family="sans-serif" font-size="13" lengthAdjust="spacing" textLength="96.8271" x="67.7793" y="178.8076">Start the Openxil</text></g><rect fill="#FEFFDD" height="24" style="stroke:#181818;stroke-width:0.5;" width="97" x="517" y="196.6641"/><text fill="#000000" font-family="sans-serif" font-size="13" lengthAdjust="spacing" textLength="89.6035" x="521" y="214.1592">OpenXil started</text><g class="message" data-participant-1="User" data-participant-2="OX"><polygon fill="#181818" points="549.7886,244.3672,559.7886,248.3672,549.7886,252.3672,553.7886,248.3672" style="stroke:#181818;stroke-width:1;"/><line style="stroke:#181818;stroke-width:1;" x1="60.7793" x2="555.7886" y1="248.3672" y2="248.3672"/><text fill="#000000" font-family="sans-serif" font-size="13" lengthAdjust="spacing" textLength="161.1226" x="67.7793" y="243.5107">Load Headlight FMU (VAPI)</text></g><g class="message" data-participant-1="OX" data-participant-2="HA"><polygon fill="#181818" points="825.9536,274.7188,835.9536,278.7188,825.9536,282.7188,829.9536,278.7188" style="stroke:#181818;stroke-width:1;"/><line style="stroke:#181818;stroke-width:1;" x1="566.7886" x2="831.9536" y1="278.7188" y2="278.7188"/><text fill="#000000" font-family="sans-serif" font-size="13" lengthAdjust="spacing" textLength="159.7261" x="573.7886" y="273.8623">Loads Headlight application</text></g><g class="message" data-participant-1="HA" data-participant-2="HA"><line style="stroke:#181818;stroke-width:1;" x1="847.9536" x2="889.9536" y1="309.0703" y2="309.0703"/><line style="stroke:#181818;stroke-width:1;" x1="889.9536" x2="889.9536" y1="309.0703" y2="322.0703"/><line style="stroke:#181818;stroke-width:1;" x1="848.9536" x2="889.9536" y1="322.0703" y2="322.0703"/><polygon fill="#181818" points="858.9536,318.0703,848.9536,322.0703,858.9536,326.0703,854.9536,322.0703" style="stroke:#181818;stroke-width:1;"/><text fill="#000000" font-family="sans-serif" font-size="13" lengthAdjust="spacing" textLength="118.498" x="854.9536" y="304.2139">Loads Core services</text></g><rect fill="#FEFFDD" height="122" style="stroke:#181818;stroke-width:0.5;" width="137" x="774" y="335.0703"/><text fill="#000000" font-family="sans-serif" font-size="13" lengthAdjust="spacing" textLength="120.6943" x="778" y="352.5654">Headlight application</text><text fill="#000000" font-family="sans-serif" font-size="13" lengthAdjust="spacing" textLength="31.0781" x="778" y="368.917">loads</text><text fill="#000000" font-family="sans-serif" font-size="13" font-weight="bold" lengthAdjust="spacing" textLength="85.2808" x="812.6899" y="368.917">Core services</text><text fill="#000000" font-family="sans-serif" font-size="13" lengthAdjust="spacing" textLength="75.1499" x="778" y="385.2686">and registers</text><text fill="#000000" font-family="sans-serif" font-size="13" lengthAdjust="spacing" textLength="98.2744" x="778" y="401.6201">following signals:</text><text fill="#000000" font-family="sans-serif" font-size="13" lengthAdjust="spacing" textLength="107.6753" x="778" y="417.9717">1. Current Latitude</text><text fill="#000000" font-family="sans-serif" font-size="13" lengthAdjust="spacing" textLength="118.5234" x="778" y="434.3232">2. Current Longitude</text><text fill="#000000" font-family="sans-serif" font-size="13" lengthAdjust="spacing" textLength="129.3589" x="778" y="450.6748">3. Headlight Lowbeam</text><g class="message" data-participant-1="HA" data-participant-2="HA"><line style="stroke:#181818;stroke-width:1;" x1="847.9536" x2="889.9536" y1="484.8828" y2="484.8828"/><line style="stroke:#181818;stroke-width:1;" x1="889.9536" x2="889.9536" y1="484.8828" y2="497.8828"/><line style="stroke:#181818;stroke-width:1;" x1="848.9536" x2="889.9536" y1="497.8828" y2="497.8828"/><polygon fill="#181818" points="858.9536,493.8828,848.9536,497.8828,858.9536,501.8828,854.9536,497.8828" style="stroke:#181818;stroke-width:1;"/><text fill="#000000" font-family="sans-serif" font-size="13" lengthAdjust="spacing" textLength="127.188" x="854.9536" y="480.0264">Loads vehicle devices</text></g><g class="message" data-participant-1="HA" data-participant-2="HA"><line style="stroke:#181818;stroke-width:1;" x1="847.9536" x2="889.9536" y1="528.2344" y2="528.2344"/><line style="stroke:#181818;stroke-width:1;" x1="889.9536" x2="889.9536" y1="528.2344" y2="541.2344"/><line style="stroke:#181818;stroke-width:1;" x1="848.9536" x2="889.9536" y1="541.2344" y2="541.2344"/><polygon fill="#181818" points="858.9536,537.2344,848.9536,541.2344,858.9536,545.2344,854.9536,541.2344" style="stroke:#181818;stroke-width:1;"/><text fill="#000000" font-family="sans-serif" font-size="13" lengthAdjust="spacing" textLength="120.6689" x="854.9536" y="523.3779">Loads basic services</text></g><g class="message" data-participant-1="HA" data-participant-2="HA"><line style="stroke:#181818;stroke-width:1;" x1="847.9536" x2="889.9536" y1="571.5859" y2="571.5859"/><line style="stroke:#181818;stroke-width:1;" x1="889.9536" x2="889.9536" y1="571.5859" y2="584.5859"/><line style="stroke:#181818;stroke-width:1;" x1="848.9536" x2="889.9536" y1="584.5859" y2="584.5859"/><polygon fill="#181818" points="858.9536,580.5859,848.9536,584.5859,858.9536,588.5859,854.9536,584.5859" style="stroke:#181818;stroke-width:1;"/><text fill="#000000" font-family="sans-serif" font-size="13" lengthAdjust="spacing" textLength="135.1162" x="854.9536" y="566.7295">Loads Complex service</text></g><g class="message" data-participant-1="HA" data-participant-2="HA"><line style="stroke:#181818;stroke-width:1;" x1="847.9536" x2="889.9536" y1="614.9375" y2="614.9375"/><line style="stroke:#181818;stroke-width:1;" x1="889.9536" x2="889.9536" y1="614.9375" y2="627.9375"/><line style="stroke:#181818;stroke-width:1;" x1="848.9536" x2="889.9536" y1="627.9375" y2="627.9375"/><polygon fill="#181818" points="858.9536,623.9375,848.9536,627.9375,858.9536,631.9375,854.9536,627.9375" style="stroke:#181818;stroke-width:1;"/><text fill="#000000" font-family="sans-serif" font-size="13" lengthAdjust="spacing" textLength="143.8188" x="854.9536" y="610.0811">Tunnel location is loaded</text></g><g class="message" data-participant-1="HA" data-participant-2="OX"><polygon fill="#181818" points="582.7886,654.2891,572.7886,658.2891,582.7886,662.2891,578.7886,658.2891" style="stroke:#181818;stroke-width:1;"/><line style="stroke:#181818;stroke-width:1;stroke-dasharray:2,2;" x1="576.7886" x2="841.9536" y1="658.2891" y2="658.2891"/><text fill="#000000" font-family="sans-serif" font-size="13" lengthAdjust="spacing" textLength="145.2471" x="588.7886" y="653.4326">Signals value information</text></g><g class="message" data-participant-1="User" data-participant-2="OX"><polygon fill="#181818" points="549.7886,684.6406,559.7886,688.6406,549.7886,692.6406,553.7886,688.6406" style="stroke:#181818;stroke-width:1;"/><line style="stroke:#181818;stroke-width:1;" x1="60.7793" x2="555.7886" y1="688.6406" y2="688.6406"/><text fill="#000000" font-family="sans-serif" font-size="13" lengthAdjust="spacing" textLength="153.2134" x="67.7793" y="683.7842">Add and configure widgets</text></g><rect fill="#FEFFDD" height="73" style="stroke:#181818;stroke-width:0.5;" width="135" x="498" y="701.6406"/><text fill="#000000" font-family="sans-serif" font-size="13" lengthAdjust="spacing" textLength="114.8989" x="502" y="719.1357">widget is configured</text><text fill="#000000" font-family="sans-serif" font-size="13" lengthAdjust="spacing" textLength="125.0298" x="502" y="735.4873">with latitude,longitude</text><text fill="#000000" font-family="sans-serif" font-size="13" lengthAdjust="spacing" textLength="122.1479" x="502" y="751.8389">and headlight signals</text><text fill="#000000" font-family="sans-serif" font-size="13" lengthAdjust="spacing" textLength="127.8926" x="502" y="768.1904">(blackboard variables)</text><rect fill="#FEFFDD" height="57" style="stroke:#181818;stroke-width:0.5;" width="154" x="489" y="785.0469"/><text fill="#000000" font-family="sans-serif" font-size="13" lengthAdjust="spacing" textLength="146.688" x="493" y="802.542">Widget value (blackboard</text><text fill="#000000" font-family="sans-serif" font-size="13" lengthAdjust="spacing" textLength="134.4116" x="493" y="818.8936">variables) is updated at</text><text fill="#000000" font-family="sans-serif" font-size="13" lengthAdjust="spacing" textLength="89.6035" x="493" y="835.2451">each step/cycle</text><g class="message" data-participant-1="User" data-participant-2="OX"><polygon fill="#181818" points="549.7886,865.4531,559.7886,869.4531,549.7886,873.4531,553.7886,869.4531" style="stroke:#181818;stroke-width:1;"/><line style="stroke:#181818;stroke-width:1;" x1="60.7793" x2="555.7886" y1="869.4531" y2="869.4531"/><text fill="#000000" font-family="sans-serif" font-size="13" lengthAdjust="spacing" textLength="192.2261" x="67.7793" y="864.5967">Load Carla Bridge Coupe version</text></g><g class="message" data-participant-1="OX" data-participant-2="CAB"><polygon fill="#181818" points="301.6235,895.8047,291.6235,899.8047,301.6235,903.8047,297.6235,899.8047" style="stroke:#181818;stroke-width:1;"/><line style="stroke:#181818;stroke-width:1;" x1="295.6235" x2="560.7886" y1="899.8047" y2="899.8047"/><text fill="#000000" font-family="sans-serif" font-size="13" lengthAdjust="spacing" textLength="135.1162" x="307.6235" y="894.9482">Load Carla bridge FMU</text></g><rect fill="#FEFFDD" height="57" style="stroke:#181818;stroke-width:0.5;" width="114" x="228" y="912.8047"/><text fill="#000000" font-family="sans-serif" font-size="13" lengthAdjust="spacing" textLength="106.209" x="232" y="930.2998">Carla bridge starts</text><text fill="#000000" font-family="sans-serif" font-size="13" lengthAdjust="spacing" textLength="99.728" x="232" y="946.6514">Loads Simulation</text><text fill="#000000" font-family="sans-serif" font-size="13" lengthAdjust="spacing" textLength="71.5381" x="232" y="963.0029">environment</text><g class="message" data-participant-1="User" data-participant-2="OX"><polygon fill="#181818" points="549.7886,993.2109,559.7886,997.2109,549.7886,1001.2109,553.7886,997.2109" style="stroke:#181818;stroke-width:1;"/><line style="stroke:#181818;stroke-width:1;" x1="60.7793" x2="555.7886" y1="997.2109" y2="997.2109"/><text fill="#000000" font-family="sans-serif" font-size="13" lengthAdjust="spacing" textLength="163.3252" x="67.7793" y="992.3545">Load and activate trigger file</text></g><rect fill="#FEFFDD" height="57" style="stroke:#181818;stroke-width:0.5;" width="148" x="492" y="1010.2109"/><text fill="#000000" font-family="sans-serif" font-size="13" lengthAdjust="spacing" textLength="124.2744" x="496" y="1027.7061">Trigger file activated :</text><text fill="#000000" font-family="sans-serif" font-size="13" lengthAdjust="spacing" textLength="114.1689" x="496" y="1044.0576">Carla and VAPI i / o</text><text fill="#000000" font-family="sans-serif" font-size="13" lengthAdjust="spacing" textLength="140.207" x="496" y="1060.4092">configured to each other</text><g class="message" data-participant-1="User" data-participant-2="CAB"><polygon fill="#181818" points="268.6235,1090.6172,278.6235,1094.6172,268.6235,1098.6172,272.6235,1094.6172" style="stroke:#181818;stroke-width:1;"/><line style="stroke:#181818;stroke-width:1;" x1="60.7793" x2="274.6235" y1="1094.6172" y2="1094.6172"/><text fill="#000000" font-family="sans-serif" font-size="13" lengthAdjust="spacing" textLength="195.8442" x="67.7793" y="1089.7607">Move the vehicle inside the tunnel</text></g><g class="message" data-participant-1="CAB" data-participant-2="OX"><polygon fill="#181818" points="549.7886,1120.9688,559.7886,1124.9688,549.7886,1128.9688,553.7886,1124.9688" style="stroke:#181818;stroke-width:1;"/><line style="stroke:#181818;stroke-width:1;" x1="285.6235" x2="555.7886" y1="1124.9688" y2="1124.9688"/><text fill="#000000" font-family="sans-serif" font-size="13" lengthAdjust="spacing" textLength="247.165" x="292.6235" y="1120.1123">Current Latitude and Longitude information</text></g><rect fill="#FEFFDD" height="57" style="stroke:#181818;stroke-width:0.5;" width="128" x="502" y="1137.9688"/><text fill="#000000" font-family="sans-serif" font-size="13" lengthAdjust="spacing" textLength="120.6753" x="506" y="1155.4639">Blackboard variables</text><text fill="#000000" font-family="sans-serif" font-size="13" lengthAdjust="spacing" textLength="105.5234" x="506" y="1171.8154">latitude , longitude</text><text fill="#000000" font-family="sans-serif" font-size="13" lengthAdjust="spacing" textLength="73.0044" x="506" y="1188.167">are updated.</text><g class="message" data-participant-1="OX" data-participant-2="HA"><polygon fill="#181818" points="825.9536,1218.375,835.9536,1222.375,825.9536,1226.375,829.9536,1222.375" style="stroke:#181818;stroke-width:1;"/><line style="stroke:#181818;stroke-width:1;" x1="571.7886" x2="831.9536" y1="1222.375" y2="1222.375"/><text fill="#000000" font-family="sans-serif" font-size="13" lengthAdjust="spacing" textLength="247.165" x="578.7886" y="1217.5186">Current Latitude and Longitude information</text></g><g class="message" data-participant-1="HA" data-participant-2="HA"><line style="stroke:#181818;stroke-width:1;" x1="847.9536" x2="889.9536" y1="1252.7266" y2="1252.7266"/><line style="stroke:#181818;stroke-width:1;" x1="889.9536" x2="889.9536" y1="1252.7266" y2="1265.7266"/><line style="stroke:#181818;stroke-width:1;" x1="848.9536" x2="889.9536" y1="1265.7266" y2="1265.7266"/><polygon fill="#181818" points="858.9536,1261.7266,848.9536,1265.7266,858.9536,1269.7266,854.9536,1265.7266" style="stroke:#181818;stroke-width:1;"/><text fill="#000000" font-family="sans-serif" font-size="13" lengthAdjust="spacing" textLength="244.2769" x="854.9536" y="1247.8701">Updates the Current latitude and longitude</text></g><g class="message" data-participant-1="HA" data-participant-2="HA"><line style="stroke:#181818;stroke-width:1;" x1="847.9536" x2="889.9536" y1="1296.0781" y2="1296.0781"/><line style="stroke:#181818;stroke-width:1;" x1="889.9536" x2="889.9536" y1="1296.0781" y2="1309.0781"/><line style="stroke:#181818;stroke-width:1;" x1="848.9536" x2="889.9536" y1="1309.0781" y2="1309.0781"/><polygon fill="#181818" points="858.9536,1305.0781,848.9536,1309.0781,858.9536,1313.0781,854.9536,1309.0781" style="stroke:#181818;stroke-width:1;"/><text fill="#000000" font-family="sans-serif" font-size="13" lengthAdjust="spacing" textLength="250.085" x="854.9536" y="1291.2217">Toggle the headlight on/off based on tunnel</text></g><g class="message" data-participant-1="HA" data-participant-2="OX"><polygon fill="#181818" points="582.7886,1335.4297,572.7886,1339.4297,582.7886,1343.4297,578.7886,1339.4297" style="stroke:#181818;stroke-width:1;"/><line style="stroke:#181818;stroke-width:1;" x1="576.7886" x2="841.9536" y1="1339.4297" y2="1339.4297"/><text fill="#000000" font-family="sans-serif" font-size="13" lengthAdjust="spacing" textLength="173.4497" x="588.7886" y="1334.5732">Updated headlight information</text></g><g class="message" data-participant-1="OX" data-participant-2="CAB"><polygon fill="#181818" points="301.6235,1365.7813,291.6235,1369.7813,301.6235,1373.7813,297.6235,1369.7813" style="stroke:#181818;stroke-width:1;"/><line style="stroke:#181818;stroke-width:1;" x1="295.6235" x2="560.7886" y1="1369.7813" y2="1369.7813"/><text fill="#000000" font-family="sans-serif" font-size="13" lengthAdjust="spacing" textLength="175.6079" x="307.6235" y="1364.9248">Updated Headlight information</text></g><g class="message" data-participant-1="CAB" data-participant-2="CAB"><line style="stroke:#181818;stroke-width:1;" x1="290.6235" x2="332.6235" y1="1400.1328" y2="1400.1328"/><line style="stroke:#181818;stroke-width:1;" x1="332.6235" x2="332.6235" y1="1400.1328" y2="1413.1328"/><line style="stroke:#181818;stroke-width:1;" x1="291.6235" x2="332.6235" y1="1413.1328" y2="1413.1328"/><polygon fill="#181818" points="301.6235,1409.1328,291.6235,1413.1328,301.6235,1417.1328,297.6235,1413.1328" style="stroke:#181818;stroke-width:1;"/><text fill="#000000" font-family="sans-serif" font-size="13" lengthAdjust="spacing" textLength="242.7788" x="297.6235" y="1395.2764">Call carla Headlight API to switch on or off</text></g><rect fill="#FEFFDD" height="57" style="stroke:#181818;stroke-width:0.5;" width="140" x="215" y="1426.1328"/><text fill="#000000" font-family="sans-serif" font-size="13" lengthAdjust="spacing" textLength="130.0952" x="219" y="1443.6279">Headlight on/off based</text><text fill="#000000" font-family="sans-serif" font-size="13" lengthAdjust="spacing" textLength="132.2407" x="219" y="1459.9795">on provided value from</text><text fill="#000000" font-family="sans-serif" font-size="13" lengthAdjust="spacing" textLength="97.5444" x="219" y="1476.3311">VAPI via Openxil</text><!--SRC=[bLLDJ-Cm4BtxLupA1Ig-bZqiue1KAg4YWK1YkylLYPtKmhKZsmdmxtTi9wdT3w4z9ddpyTwycTXteHfgw1eOhsWhtRrMRgwbDb18MhuJ0hHq-3HPMcuc113iH2aQgXnCvjH82dT6i9fFW5gOp-ws8CyDLvz2Xg_FRmJp5VeJ8xNXyA2iewh4qAFhg-AwkAug0Yzfz89J9aMzSZ1h6YbAweHM8TTY1aUNbxDVlY1Np6V5t4Pfnq5tt83lby0hT_3ovLPQ8QgBq03Q2tPO6oAfLsuw_ou98046PxT816vwj5jnw3b6hKH7CQkdcXR0vm1x4nAi3-GiRoPB_QWfWmtt-wSb7F-PlJoS4FyTKSW-ecm2enk9C27ZUJFZqsA6JvWWJnC6WZrqekGsQntn1ug03A7JQHOydM8npupNmZfkC5kbfTGVGjLWHQsej3S4Vfp3l3M6uvWVCPrh6ITmbRpKgkxV_ZnF6dZK7mMdwwt9xF3f-4gKagCCFQCTH46jA1FAUoHPDv9_3f2yokzMAIvHWQW521lKmB6IBHyW_kpiDbecieUEofQ3K9Kswptp2XFA335ZB6XQQbM9kaMrF_pEERlhilZ1zpE2cN_hLY1xdK_bHbkVTJMAsu-7m77O_a9Jmx1R8sWXkJqvk3- -yDzOE79BuacImBVLDWn98X-7wMYvmdtWpKNvXTFwRYNIUuFZQHkESpOs2XWt0ozGZYuY6dSedKiuL0c1y9m5X2r59Q8NNiMwbRthyP08ezKQNVfTmrxTiQOpeguHKGcvHxxVoTSnXi7Dq9PFvMy02BW0JPBfWjDHI8t7wD39YheyORbmieRr4CeA5b-vu6WVux43ZUqT3NsCkvbvEBMmrtE7ujqUJv7HbN0AgI_HuxrJpdDAsGtyd_RI_KfNUHdAs232a4-c-JPjvIT0rxMCscqsIAiBNLN-kE1Wy2uCglQ1GTDblm6Rg4Co-akGEtk8NUoFpGtU3p96pgcKK0Ol9RzLD1JQn-9zy0PIWBzwx9_iBiTYBqNYOngZEtGHwtU_CXhFS_1g9-ZuT_H3x6Vu3m00]--></g></svg>