<svg xmlns="http://www.w3.org/2000/svg" xmlns:xlink="http://www.w3.org/1999/xlink" contentStyleType="text/css" data-diagram-type="SEQUENCE" height="1281px" preserveAspectRatio="none" style="width:745px;height:1281px;background:#A2D3D6;" version="1.1" viewBox="0 0 745 1281" width="745px" zoomAndPan="magnify"><defs/><g><rect fill="#A2D3D6" height="1281" style="stroke:none;stroke-width:1;" width="745" x="0" y="0"/><g><title>CExample Control .Utility.</title><rect fill="#00A7AB" height="134.4063" style="stroke:#181818;stroke-width:1;" width="10" x="303.2363" y="69.9609"/></g><g><title>CExample Control .Utility.</title><rect fill="#00A7AB" height="134.4063" style="stroke:#181818;stroke-width:1;" width="10" x="303.2363" y="234.7188"/></g><g><title>CExample Control .Utility.</title><rect fill="#00A7AB" height="134.4063" style="stroke:#181818;stroke-width:1;" width="10" x="303.2363" y="433.8281"/></g><g><title>CExample Control .Utility.</title><rect fill="#00A7AB" height="134.4063" style="stroke:#181818;stroke-width:1;" width="10" x="303.2363" y="598.5859"/></g><g><title>CExample Control .Utility.</title><rect fill="#00A7AB" height="134.4063" style="stroke:#181818;stroke-width:1;" width="10" x="303.2363" y="763.3438"/></g><g><title>CExample Control .Utility.</title><rect fill="#00A7AB" height="134.4063" style="stroke:#181818;stroke-width:1;" width="10" x="303.2363" y="928.1016"/></g><g><title>CExample Control .Utility.</title><rect fill="#00A7AB" height="134.4063" style="stroke:#181818;stroke-width:1;" width="10" x="303.2363" y="1092.8594"/></g><g><title>CAppControl</title><rect fill="#BFBFBF" height="73.7031" style="stroke:#181818;stroke-width:1;" width="10" x="489.0425" y="100.3125"/></g><g><title>CAppControl</title><rect fill="#BFBFBF" height="73.7031" style="stroke:#181818;stroke-width:1;" width="10" x="489.0425" y="265.0703"/></g><g><title>CAppControl</title><rect fill="#BFBFBF" height="73.7031" style="stroke:#181818;stroke-width:1;" width="10" x="489.0425" y="464.1797"/></g><g><title>CAppControl</title><rect fill="#BFBFBF" height="73.7031" style="stroke:#181818;stroke-width:1;" width="10" x="489.0425" y="628.9375"/></g><g><title>CAppControl</title><rect fill="#BFBFBF" height="73.7031" style="stroke:#181818;stroke-width:1;" width="10" x="489.0425" y="793.6953"/></g><g><title>CAppControl</title><rect fill="#BFBFBF" height="73.7031" style="stroke:#181818;stroke-width:1;" width="10" x="489.0425" y="958.4531"/></g><g><title>CAppControl</title><rect fill="#BFBFBF" height="73.7031" style="stroke:#181818;stroke-width:1;" width="10" x="489.0425" y="1123.2109"/></g><g><title>Example Application</title><rect fill="#000000" fill-opacity="0.00000" height="1207.6563" width="8" x="71.4238" y="37.6094"/><line style="stroke:#181818;stroke-width:0.5;stroke-dasharray:5,5;" x1="75" x2="75" y1="37.6094" y2="1245.2656"/></g><g><title>CExample Control .Utility.</title><rect fill="#000000" fill-opacity="0.00000" height="1207.6563" width="8" x="304.2363" y="37.6094"/><line style="stroke:#181818;stroke-width:0.5;stroke-dasharray:5,5;" x1="307.7192" x2="307.7192" y1="37.6094" y2="1245.2656"/></g><g><title>CAppControl</title><rect fill="#000000" fill-opacity="0.00000" height="1207.6563" width="8" x="490.0425" y="37.6094"/><line style="stroke:#181818;stroke-width:0.5;stroke-dasharray:5,5;" x1="493.9668" x2="493.9668" y1="37.6094" y2="1245.2656"/></g><g class="participant participant-head" data-participant="EA"><rect fill="#00A7AB" height="31.6094" rx="2.5" ry="2.5" style="stroke:#181818;stroke-width:0.5;" width="140.8477" x="5" y="5"/><text fill="#000000" font-family="sans-serif" font-size="14" lengthAdjust="spacing" textLength="126.8477" x="12" y="26.5332">Example Application</text></g><g class="participant participant-tail" data-participant="EA"><rect fill="#00A7AB" height="31.6094" rx="2.5" ry="2.5" style="stroke:#181818;stroke-width:0.5;" width="140.8477" x="5" y="1244.2656"/><text fill="#000000" font-family="sans-serif" font-size="14" lengthAdjust="spacing" textLength="126.8477" x="12" y="1265.7988">Example Application</text></g><g class="participant participant-head" data-participant="EC"><rect fill="#00A7AB" height="31.6094" rx="2.5" ry="2.5" style="stroke:#181818;stroke-width:0.5;" width="175.0342" x="220.7192" y="5"/><text fill="#000000" font-family="sans-serif" font-size="14" lengthAdjust="spacing" textLength="161.0342" x="227.7192" y="26.5332">CExample Control (Utility)</text></g><g class="participant participant-tail" data-participant="EC"><rect fill="#00A7AB" height="31.6094" rx="2.5" ry="2.5" style="stroke:#181818;stroke-width:0.5;" width="175.0342" x="220.7192" y="1244.2656"/><text fill="#000000" font-family="sans-serif" font-size="14" lengthAdjust="spacing" textLength="161.0342" x="227.7192" y="1265.7988">CExample Control (Utility)</text></g><g class="participant participant-head" data-participant="AC"><rect fill="#BFBFBF" height="31.6094" rx="2.5" ry="2.5" style="stroke:#181818;stroke-width:0.5;" width="94.1514" x="446.9668" y="5"/><text fill="#000000" font-family="sans-serif" font-size="14" lengthAdjust="spacing" textLength="80.1514" x="453.9668" y="26.5332">CAppControl</text></g><g class="participant participant-tail" data-participant="AC"><rect fill="#BFBFBF" height="31.6094" rx="2.5" ry="2.5" style="stroke:#181818;stroke-width:0.5;" width="94.1514" x="446.9668" y="1244.2656"/><text fill="#000000" font-family="sans-serif" font-size="14" lengthAdjust="spacing" textLength="80.1514" x="453.9668" y="1265.7988">CAppControl</text></g><g><title>CExample Control .Utility.</title><rect fill="#00A7AB" height="134.4063" style="stroke:#181818;stroke-width:1;" width="10" x="303.2363" y="69.9609"/></g><g><title>CExample Control .Utility.</title><rect fill="#00A7AB" height="134.4063" style="stroke:#181818;stroke-width:1;" width="10" x="303.2363" y="234.7188"/></g><g><title>CExample Control .Utility.</title><rect fill="#00A7AB" height="134.4063" style="stroke:#181818;stroke-width:1;" width="10" x="303.2363" y="433.8281"/></g><g><title>CExample Control .Utility.</title><rect fill="#00A7AB" height="134.4063" style="stroke:#181818;stroke-width:1;" width="10" x="303.2363" y="598.5859"/></g><g><title>CExample Control .Utility.</title><rect fill="#00A7AB" height="134.4063" style="stroke:#181818;stroke-width:1;" width="10" x="303.2363" y="763.3438"/></g><g><title>CExample Control .Utility.</title><rect fill="#00A7AB" height="134.4063" style="stroke:#181818;stroke-width:1;" width="10" x="303.2363" y="928.1016"/></g><g><title>CExample Control .Utility.</title><rect fill="#00A7AB" height="134.4063" style="stroke:#181818;stroke-width:1;" width="10" x="303.2363" y="1092.8594"/></g><g><title>CAppControl</title><rect fill="#BFBFBF" height="73.7031" style="stroke:#181818;stroke-width:1;" width="10" x="489.0425" y="100.3125"/></g><g><title>CAppControl</title><rect fill="#BFBFBF" height="73.7031" style="stroke:#181818;stroke-width:1;" width="10" x="489.0425" y="265.0703"/></g><g><title>CAppControl</title><rect fill="#BFBFBF" height="73.7031" style="stroke:#181818;stroke-width:1;" width="10" x="489.0425" y="464.1797"/></g><g><title>CAppControl</title><rect fill="#BFBFBF" height="73.7031" style="stroke:#181818;stroke-width:1;" width="10" x="489.0425" y="628.9375"/></g><g><title>CAppControl</title><rect fill="#BFBFBF" height="73.7031" style="stroke:#181818;stroke-width:1;" width="10" x="489.0425" y="793.6953"/></g><g><title>CAppControl</title><rect fill="#BFBFBF" height="73.7031" style="stroke:#181818;stroke-width:1;" width="10" x="489.0425" y="958.4531"/></g><g><title>CAppControl</title><rect fill="#BFBFBF" height="73.7031" style="stroke:#181818;stroke-width:1;" width="10" x="489.0425" y="1123.2109"/></g><g class="message" data-participant-1="EA" data-participant-2="EC"><polygon fill="#181818" points="291.2363,65.9609,301.2363,69.9609,291.2363,73.9609,295.2363,69.9609" style="stroke:#181818;stroke-width:1;"/><line style="stroke:#181818;stroke-width:1;" x1="75.4238" x2="297.2363" y1="69.9609" y2="69.9609"/><text fill="#000000" font-family="sans-serif" font-size="13" lengthAdjust="spacing" textLength="164.7217" x="82.4238" y="65.1045">CExampleControl::Initialize()</text></g><g class="message" data-participant-1="EC" data-participant-2="AC"><polygon fill="#181818" points="477.0425,96.3125,487.0425,100.3125,477.0425,104.3125,481.0425,100.3125" style="stroke:#181818;stroke-width:1;"/><line style="stroke:#181818;stroke-width:1;" x1="313.2363" x2="483.0425" y1="100.3125" y2="100.3125"/><text fill="#000000" font-family="sans-serif" font-size="13" lengthAdjust="spacing" textLength="132.2217" x="320.2363" y="95.4561">CAppControl::Startup()</text></g><g class="message" data-participant-1="AC" data-participant-2="AC"><line style="stroke:#181818;stroke-width:1;" x1="499.0425" x2="541.0425" y1="130.6641" y2="130.6641"/><line style="stroke:#181818;stroke-width:1;" x1="541.0425" x2="541.0425" y1="130.6641" y2="143.6641"/><line style="stroke:#181818;stroke-width:1;" x1="500.0425" x2="541.0425" y1="143.6641" y2="143.6641"/><polygon fill="#181818" points="510.0425,139.6641,500.0425,143.6641,510.0425,147.6641,506.0425,143.6641" style="stroke:#181818;stroke-width:1;"/><text fill="#000000" font-family="sans-serif" font-size="13" lengthAdjust="spacing" textLength="198.0151" x="506.0425" y="125.8076">Load app config and core services</text></g><g class="message" data-participant-1="AC" data-participant-2="EC"><polygon fill="#181818" points="324.2363,170.0156,314.2363,174.0156,324.2363,178.0156,320.2363,174.0156" style="stroke:#181818;stroke-width:1;"/><line style="stroke:#181818;stroke-width:1;stroke-dasharray:2,2;" x1="318.2363" x2="493.0425" y1="174.0156" y2="174.0156"/><text fill="#000000" font-family="sans-serif" font-size="13" lengthAdjust="spacing" textLength="131.498" x="330.2363" y="169.1592">On success return true</text></g><g class="message" data-participant-1="EC" data-participant-2="EA"><polygon fill="#181818" points="86.4238,200.3672,76.4238,204.3672,86.4238,208.3672,82.4238,204.3672" style="stroke:#181818;stroke-width:1;"/><line style="stroke:#181818;stroke-width:1;stroke-dasharray:2,2;" x1="80.4238" x2="307.2363" y1="204.3672" y2="204.3672"/><text fill="#000000" font-family="sans-serif" font-size="13" lengthAdjust="spacing" textLength="133.6689" x="92.4238" y="199.5107">On Success return true</text></g><g class="message" data-participant-1="EA" data-participant-2="EC"><polygon fill="#181818" points="291.2363,230.7188,301.2363,234.7188,291.2363,238.7188,295.2363,234.7188" style="stroke:#181818;stroke-width:1;"/><line style="stroke:#181818;stroke-width:1;" x1="75.4238" x2="297.2363" y1="234.7188" y2="234.7188"/><text fill="#000000" font-family="sans-serif" font-size="13" lengthAdjust="spacing" textLength="208.8125" x="82.4238" y="229.8623">CExampleControl::Load ConfigFile()</text></g><g class="message" data-participant-1="EC" data-participant-2="AC"><polygon fill="#181818" points="477.0425,261.0703,487.0425,265.0703,477.0425,269.0703,481.0425,265.0703" style="stroke:#181818;stroke-width:1;"/><line style="stroke:#181818;stroke-width:1;" x1="313.2363" x2="483.0425" y1="265.0703" y2="265.0703"/><text fill="#000000" font-family="sans-serif" font-size="13" lengthAdjust="spacing" textLength="156.8062" x="320.2363" y="260.2139">CAppControl::LoadConfig()</text></g><g class="message" data-participant-1="AC" data-participant-2="AC"><line style="stroke:#181818;stroke-width:1;" x1="499.0425" x2="541.0425" y1="295.4219" y2="295.4219"/><line style="stroke:#181818;stroke-width:1;" x1="541.0425" x2="541.0425" y1="295.4219" y2="308.4219"/><line style="stroke:#181818;stroke-width:1;" x1="500.0425" x2="541.0425" y1="308.4219" y2="308.4219"/><polygon fill="#181818" points="510.0425,304.4219,500.0425,308.4219,510.0425,312.4219,506.0425,308.4219" style="stroke:#181818;stroke-width:1;"/><text fill="#000000" font-family="sans-serif" font-size="13" lengthAdjust="spacing" textLength="154.6543" x="506.0425" y="290.5654">Load data dispatch service</text></g><g class="message" data-participant-1="AC" data-participant-2="EC"><polygon fill="#181818" points="324.2363,334.7734,314.2363,338.7734,324.2363,342.7734,320.2363,338.7734" style="stroke:#181818;stroke-width:1;"/><line style="stroke:#181818;stroke-width:1;stroke-dasharray:2,2;" x1="318.2363" x2="493.0425" y1="338.7734" y2="338.7734"/><text fill="#000000" font-family="sans-serif" font-size="13" lengthAdjust="spacing" textLength="131.498" x="330.2363" y="333.917">On success return true</text></g><g class="message" data-participant-1="EC" data-participant-2="EA"><polygon fill="#181818" points="86.4238,365.125,76.4238,369.125,86.4238,373.125,82.4238,369.125" style="stroke:#181818;stroke-width:1;"/><line style="stroke:#181818;stroke-width:1;stroke-dasharray:2,2;" x1="80.4238" x2="307.2363" y1="369.125" y2="369.125"/><text fill="#000000" font-family="sans-serif" font-size="13" lengthAdjust="spacing" textLength="133.6689" x="92.4238" y="364.2686">On Success return true</text></g><rect fill="#FEFFDD" height="24" style="stroke:#181818;stroke-width:0.5;" width="102" x="256" y="382.125"/><text fill="#000000" font-family="sans-serif" font-size="13" lengthAdjust="spacing" textLength="94.6563" x="260" y="399.6201">Register Signals</text><g class="message" data-participant-1="EA" data-participant-2="EC"><polygon fill="#181818" points="291.2363,429.8281,301.2363,433.8281,291.2363,437.8281,295.2363,433.8281" style="stroke:#181818;stroke-width:1;"/><line style="stroke:#181818;stroke-width:1;" x1="75.4238" x2="297.2363" y1="433.8281" y2="433.8281"/><text fill="#000000" font-family="sans-serif" font-size="13" lengthAdjust="spacing" textLength="208.8125" x="82.4238" y="428.9717">CExampleControl::Load ConfigFile()</text></g><g class="message" data-participant-1="EC" data-participant-2="AC"><polygon fill="#181818" points="477.0425,460.1797,487.0425,464.1797,477.0425,468.1797,481.0425,464.1797" style="stroke:#181818;stroke-width:1;"/><line style="stroke:#181818;stroke-width:1;" x1="313.2363" x2="483.0425" y1="464.1797" y2="464.1797"/><text fill="#000000" font-family="sans-serif" font-size="13" lengthAdjust="spacing" textLength="156.8062" x="320.2363" y="459.3232">CAppControl::LoadConfig()</text></g><g class="message" data-participant-1="AC" data-participant-2="AC"><line style="stroke:#181818;stroke-width:1;" x1="499.0425" x2="541.0425" y1="494.5313" y2="494.5313"/><line style="stroke:#181818;stroke-width:1;" x1="541.0425" x2="541.0425" y1="494.5313" y2="507.5313"/><line style="stroke:#181818;stroke-width:1;" x1="500.0425" x2="541.0425" y1="507.5313" y2="507.5313"/><polygon fill="#181818" points="510.0425,503.5313,500.0425,507.5313,510.0425,511.5313,506.0425,507.5313" style="stroke:#181818;stroke-width:1;"/><text fill="#000000" font-family="sans-serif" font-size="13" lengthAdjust="spacing" textLength="133.6626" x="506.0425" y="489.6748">Load task timer service</text></g><g class="message" data-participant-1="AC" data-participant-2="EC"><polygon fill="#181818" points="324.2363,533.8828,314.2363,537.8828,324.2363,541.8828,320.2363,537.8828" style="stroke:#181818;stroke-width:1;"/><line style="stroke:#181818;stroke-width:1;stroke-dasharray:2,2;" x1="318.2363" x2="493.0425" y1="537.8828" y2="537.8828"/><text fill="#000000" font-family="sans-serif" font-size="13" lengthAdjust="spacing" textLength="131.498" x="330.2363" y="533.0264">On success return true</text></g><g class="message" data-participant-1="EC" data-participant-2="EA"><polygon fill="#181818" points="86.4238,564.2344,76.4238,568.2344,86.4238,572.2344,82.4238,568.2344" style="stroke:#181818;stroke-width:1;"/><line style="stroke:#181818;stroke-width:1;stroke-dasharray:2,2;" x1="80.4238" x2="307.2363" y1="568.2344" y2="568.2344"/><text fill="#000000" font-family="sans-serif" font-size="13" lengthAdjust="spacing" textLength="133.6689" x="92.4238" y="563.3779">On Success return true</text></g><g class="message" data-participant-1="EA" data-participant-2="EC"><polygon fill="#181818" points="291.2363,594.5859,301.2363,598.5859,291.2363,602.5859,295.2363,598.5859" style="stroke:#181818;stroke-width:1;"/><line style="stroke:#181818;stroke-width:1;" x1="75.4238" x2="297.2363" y1="598.5859" y2="598.5859"/><text fill="#000000" font-family="sans-serif" font-size="13" lengthAdjust="spacing" textLength="208.8125" x="82.4238" y="593.7295">CExampleControl::Load ConfigFile()</text></g><g class="message" data-participant-1="EC" data-participant-2="AC"><polygon fill="#181818" points="477.0425,624.9375,487.0425,628.9375,477.0425,632.9375,481.0425,628.9375" style="stroke:#181818;stroke-width:1;"/><line style="stroke:#181818;stroke-width:1;" x1="313.2363" x2="483.0425" y1="628.9375" y2="628.9375"/><text fill="#000000" font-family="sans-serif" font-size="13" lengthAdjust="spacing" textLength="156.8062" x="320.2363" y="624.0811">CAppControl::LoadConfig()</text></g><g class="message" data-participant-1="AC" data-participant-2="AC"><line style="stroke:#181818;stroke-width:1;" x1="499.0425" x2="541.0425" y1="659.2891" y2="659.2891"/><line style="stroke:#181818;stroke-width:1;" x1="541.0425" x2="541.0425" y1="659.2891" y2="672.2891"/><line style="stroke:#181818;stroke-width:1;" x1="500.0425" x2="541.0425" y1="672.2891" y2="672.2891"/><polygon fill="#181818" points="510.0425,668.2891,500.0425,672.2891,510.0425,676.2891,506.0425,672.2891" style="stroke:#181818;stroke-width:1;"/><text fill="#000000" font-family="sans-serif" font-size="13" lengthAdjust="spacing" textLength="232.6479" x="506.0425" y="654.4326">Load Dummy CAN and Data link service</text></g><g class="message" data-participant-1="AC" data-participant-2="EC"><polygon fill="#181818" points="324.2363,698.6406,314.2363,702.6406,324.2363,706.6406,320.2363,702.6406" style="stroke:#181818;stroke-width:1;"/><line style="stroke:#181818;stroke-width:1;stroke-dasharray:2,2;" x1="318.2363" x2="493.0425" y1="702.6406" y2="702.6406"/><text fill="#000000" font-family="sans-serif" font-size="13" lengthAdjust="spacing" textLength="131.498" x="330.2363" y="697.7842">On success return true</text></g><g class="message" data-participant-1="EC" data-participant-2="EA"><polygon fill="#181818" points="86.4238,728.9922,76.4238,732.9922,86.4238,736.9922,82.4238,732.9922" style="stroke:#181818;stroke-width:1;"/><line style="stroke:#181818;stroke-width:1;stroke-dasharray:2,2;" x1="80.4238" x2="307.2363" y1="732.9922" y2="732.9922"/><text fill="#000000" font-family="sans-serif" font-size="13" lengthAdjust="spacing" textLength="133.6689" x="92.4238" y="728.1357">On Success return true</text></g><g class="message" data-participant-1="EA" data-participant-2="EC"><polygon fill="#181818" points="291.2363,759.3438,301.2363,763.3438,291.2363,767.3438,295.2363,763.3438" style="stroke:#181818;stroke-width:1;"/><line style="stroke:#181818;stroke-width:1;" x1="75.4238" x2="297.2363" y1="763.3438" y2="763.3438"/><text fill="#000000" font-family="sans-serif" font-size="13" lengthAdjust="spacing" textLength="208.8125" x="82.4238" y="758.4873">CExampleControl::Load ConfigFile()</text></g><g class="message" data-participant-1="EC" data-participant-2="AC"><polygon fill="#181818" points="477.0425,789.6953,487.0425,793.6953,477.0425,797.6953,481.0425,793.6953" style="stroke:#181818;stroke-width:1;"/><line style="stroke:#181818;stroke-width:1;" x1="313.2363" x2="483.0425" y1="793.6953" y2="793.6953"/><text fill="#000000" font-family="sans-serif" font-size="13" lengthAdjust="spacing" textLength="156.8062" x="320.2363" y="788.8389">CAppControl::LoadConfig()</text></g><g class="message" data-participant-1="AC" data-participant-2="AC"><line style="stroke:#181818;stroke-width:1;" x1="499.0425" x2="541.0425" y1="824.0469" y2="824.0469"/><line style="stroke:#181818;stroke-width:1;" x1="541.0425" x2="541.0425" y1="824.0469" y2="837.0469"/><line style="stroke:#181818;stroke-width:1;" x1="500.0425" x2="541.0425" y1="837.0469" y2="837.0469"/><polygon fill="#181818" points="510.0425,833.0469,500.0425,837.0469,510.0425,841.0469,506.0425,837.0469" style="stroke:#181818;stroke-width:1;"/><text fill="#000000" font-family="sans-serif" font-size="13" lengthAdjust="spacing" textLength="232.6479" x="506.0425" y="819.1904">Load Dummy CAN and Data link service</text></g><g class="message" data-participant-1="AC" data-participant-2="EC"><polygon fill="#181818" points="324.2363,863.3984,314.2363,867.3984,324.2363,871.3984,320.2363,867.3984" style="stroke:#181818;stroke-width:1;"/><line style="stroke:#181818;stroke-width:1;stroke-dasharray:2,2;" x1="318.2363" x2="493.0425" y1="867.3984" y2="867.3984"/><text fill="#000000" font-family="sans-serif" font-size="13" lengthAdjust="spacing" textLength="131.498" x="330.2363" y="862.542">On success return true</text></g><g class="message" data-participant-1="EC" data-participant-2="EA"><polygon fill="#181818" points="86.4238,893.75,76.4238,897.75,86.4238,901.75,82.4238,897.75" style="stroke:#181818;stroke-width:1;"/><line style="stroke:#181818;stroke-width:1;stroke-dasharray:2,2;" x1="80.4238" x2="307.2363" y1="897.75" y2="897.75"/><text fill="#000000" font-family="sans-serif" font-size="13" lengthAdjust="spacing" textLength="133.6689" x="92.4238" y="892.8936">On Success return true</text></g><g class="message" data-participant-1="EA" data-participant-2="EC"><polygon fill="#181818" points="291.2363,924.1016,301.2363,928.1016,291.2363,932.1016,295.2363,928.1016" style="stroke:#181818;stroke-width:1;"/><line style="stroke:#181818;stroke-width:1;" x1="75.4238" x2="297.2363" y1="928.1016" y2="928.1016"/><text fill="#000000" font-family="sans-serif" font-size="13" lengthAdjust="spacing" textLength="208.8125" x="82.4238" y="923.2451">CExampleControl::Load ConfigFile()</text></g><g class="message" data-participant-1="EC" data-participant-2="AC"><polygon fill="#181818" points="477.0425,954.4531,487.0425,958.4531,477.0425,962.4531,481.0425,958.4531" style="stroke:#181818;stroke-width:1;"/><line style="stroke:#181818;stroke-width:1;" x1="313.2363" x2="483.0425" y1="958.4531" y2="958.4531"/><text fill="#000000" font-family="sans-serif" font-size="13" lengthAdjust="spacing" textLength="156.8062" x="320.2363" y="953.5967">CAppControl::LoadConfig()</text></g><g class="message" data-participant-1="AC" data-participant-2="AC"><line style="stroke:#181818;stroke-width:1;" x1="499.0425" x2="541.0425" y1="988.8047" y2="988.8047"/><line style="stroke:#181818;stroke-width:1;" x1="541.0425" x2="541.0425" y1="988.8047" y2="1001.8047"/><line style="stroke:#181818;stroke-width:1;" x1="500.0425" x2="541.0425" y1="1001.8047" y2="1001.8047"/><polygon fill="#181818" points="510.0425,997.8047,500.0425,1001.8047,510.0425,1005.8047,506.0425,1001.8047" style="stroke:#181818;stroke-width:1;"/><text fill="#000000" font-family="sans-serif" font-size="13" lengthAdjust="spacing" textLength="122.8589" x="506.0425" y="983.9482">Load Vehicle devices</text></g><g class="message" data-participant-1="AC" data-participant-2="EC"><polygon fill="#181818" points="324.2363,1028.1563,314.2363,1032.1563,324.2363,1036.1563,320.2363,1032.1563" style="stroke:#181818;stroke-width:1;"/><line style="stroke:#181818;stroke-width:1;stroke-dasharray:2,2;" x1="318.2363" x2="493.0425" y1="1032.1563" y2="1032.1563"/><text fill="#000000" font-family="sans-serif" font-size="13" lengthAdjust="spacing" textLength="131.498" x="330.2363" y="1027.2998">On success return true</text></g><g class="message" data-participant-1="EC" data-participant-2="EA"><polygon fill="#181818" points="86.4238,1058.5078,76.4238,1062.5078,86.4238,1066.5078,82.4238,1062.5078" style="stroke:#181818;stroke-width:1;"/><line style="stroke:#181818;stroke-width:1;stroke-dasharray:2,2;" x1="80.4238" x2="307.2363" y1="1062.5078" y2="1062.5078"/><text fill="#000000" font-family="sans-serif" font-size="13" lengthAdjust="spacing" textLength="133.6689" x="92.4238" y="1057.6514">On Success return true</text></g><g class="message" data-participant-1="EA" data-participant-2="EC"><polygon fill="#181818" points="291.2363,1088.8594,301.2363,1092.8594,291.2363,1096.8594,295.2363,1092.8594" style="stroke:#181818;stroke-width:1;"/><line style="stroke:#181818;stroke-width:1;" x1="75.4238" x2="297.2363" y1="1092.8594" y2="1092.8594"/><text fill="#000000" font-family="sans-serif" font-size="13" lengthAdjust="spacing" textLength="208.8125" x="82.4238" y="1088.0029">CExampleControl::Load ConfigFile()</text></g><g class="message" data-participant-1="EC" data-participant-2="AC"><polygon fill="#181818" points="477.0425,1119.2109,487.0425,1123.2109,477.0425,1127.2109,481.0425,1123.2109" style="stroke:#181818;stroke-width:1;"/><line style="stroke:#181818;stroke-width:1;" x1="313.2363" x2="483.0425" y1="1123.2109" y2="1123.2109"/><text fill="#000000" font-family="sans-serif" font-size="13" lengthAdjust="spacing" textLength="156.8062" x="320.2363" y="1118.3545">CAppControl::LoadConfig()</text></g><g class="message" data-participant-1="AC" data-participant-2="AC"><line style="stroke:#181818;stroke-width:1;" x1="499.0425" x2="541.0425" y1="1153.5625" y2="1153.5625"/><line style="stroke:#181818;stroke-width:1;" x1="541.0425" x2="541.0425" y1="1153.5625" y2="1166.5625"/><line style="stroke:#181818;stroke-width:1;" x1="500.0425" x2="541.0425" y1="1166.5625" y2="1166.5625"/><polygon fill="#181818" points="510.0425,1162.5625,500.0425,1166.5625,510.0425,1170.5625,506.0425,1166.5625" style="stroke:#181818;stroke-width:1;"/><text fill="#000000" font-family="sans-serif" font-size="13" lengthAdjust="spacing" textLength="191.4897" x="506.0425" y="1148.7061">Load basic and complex services</text></g><g class="message" data-participant-1="AC" data-participant-2="EC"><polygon fill="#181818" points="324.2363,1192.9141,314.2363,1196.9141,324.2363,1200.9141,320.2363,1196.9141" style="stroke:#181818;stroke-width:1;"/><line style="stroke:#181818;stroke-width:1;stroke-dasharray:2,2;" x1="318.2363" x2="493.0425" y1="1196.9141" y2="1196.9141"/><text fill="#000000" font-family="sans-serif" font-size="13" lengthAdjust="spacing" textLength="131.498" x="330.2363" y="1192.0576">On success return true</text></g><g class="message" data-participant-1="EC" data-participant-2="EA"><polygon fill="#181818" points="86.4238,1223.2656,76.4238,1227.2656,86.4238,1231.2656,82.4238,1227.2656" style="stroke:#181818;stroke-width:1;"/><line style="stroke:#181818;stroke-width:1;stroke-dasharray:2,2;" x1="80.4238" x2="307.2363" y1="1227.2656" y2="1227.2656"/><text fill="#000000" font-family="sans-serif" font-size="13" lengthAdjust="spacing" textLength="133.6689" x="92.4238" y="1222.4092">On Success return true</text></g><!--SRC=[xLLDIyD04BtdLmpsqXuAHK4XXy8sJK4G5OlUnytQ3jtiBhkJqlhhtQGfneD53vP29PV9yjxCUoyV4rPa77eiOO9ojV2sCaLcjVNG4vVJg-bryeYUIP93mt2HRx1qMe5mJfD49cik00Fa0dgZaRWHaw_uR4_8h65lDVIVcJJnTh2ZPT_GOl-MqU14n4rczPKakHYE8o-5VUyMcAQtXfXGqxlg3nAKJ6jarPsHPyEnQAYV_TDqpd5qvRgSpZonvznPB02T0sdD6oq0JH5Bho0eloQfGf94C0nRTGy6GYNZSG2lkF86s5SgALHdI1JKuCKEFp-CpxD3vXjvMIDjHlft2TJS7VL78HJ820K5XooNU_j7CE-DZPLTAr_VFga51Oxrd1O6TKXKV20Dv4HYOWmhO2gZnEDbT1BEfrLPRcE7- -OZcTQlYoQp-e_XB6DuKKkISGKKglrDdeVjLmmasorHQzXq5iLV9_01]--></g></svg>