<svg xmlns="http://www.w3.org/2000/svg" xmlns:xlink="http://www.w3.org/1999/xlink" contentStyleType="text/css" data-diagram-type="CLASS" height="817px" preserveAspectRatio="none" style="width:1704px;height:817px;background:#FFFFFF;" version="1.1" viewBox="0 0 1704 817" width="1704px" zoomAndPan="magnify"><defs/><g><!--cluster sdv--><g class="cluster" data-entity="sdv" data-source-line="20" data-uid="ent0004" id="cluster_sdv"><path d="M311,482 L336.124,482 A3.75,3.75 0 0 1 338.624,484.5 L345.624,505.6094 L919,505.6094 A2.5,2.5 0 0 1 921.5,508.1094 L921.5,649.5 A2.5,2.5 0 0 1 919,652 L311,652 A2.5,2.5 0 0 1 308.5,649.5 L308.5,484.5 A2.5,2.5 0 0 1 311,482" fill="none" style="stroke:#000000;stroke-width:1.5;"/><line style="stroke:#000000;stroke-width:1.5;" x1="308.5" x2="345.624" y1="505.6094" y2="505.6094"/><text fill="#000000" font-family="sans-serif" font-size="14" font-weight="bold" lengthAdjust="spacing" textLength="24.124" x="312.5" y="498.5332">sdv</text></g><!--cluster vss--><g class="cluster" data-entity="vss" data-source-line="41" data-uid="ent0009" id="cluster_vss"><path d="M948,376 L972.3584,376 A3.75,3.75 0 0 1 974.8584,378.5 L981.8584,399.6094 L1695,399.6094 A2.5,2.5 0 0 1 1697.5,402.1094 L1697.5,695.5 A2.5,2.5 0 0 1 1695,698 L948,698 A2.5,2.5 0 0 1 945.5,695.5 L945.5,378.5 A2.5,2.5 0 0 1 948,376" fill="none" style="stroke:#000000;stroke-width:1.5;"/><line style="stroke:#000000;stroke-width:1.5;" x1="945.5" x2="981.8584" y1="399.6094" y2="399.6094"/><text fill="#000000" font-family="sans-serif" font-size="14" font-weight="bold" lengthAdjust="spacing" textLength="23.3584" x="949.5" y="392.5332">vss</text></g><!--cluster Vehicle--><g class="cluster" data-entity="Vehicle" data-source-line="41" data-uid="ent0010" id="cluster_Vehicle"><path d="M972,420 L1022.0273,420 A3.75,3.75 0 0 1 1024.5273,422.5 L1031.5273,443.6094 L1671,443.6094 A2.5,2.5 0 0 1 1673.5,446.1094 L1673.5,671.5 A2.5,2.5 0 0 1 1671,674 L972,674 A2.5,2.5 0 0 1 969.5,671.5 L969.5,422.5 A2.5,2.5 0 0 1 972,420" fill="none" style="stroke:#000000;stroke-width:1.5;"/><line style="stroke:#000000;stroke-width:1.5;" x1="969.5" x2="1031.5273" y1="443.6094" y2="443.6094"/><text fill="#000000" font-family="sans-serif" font-size="14" font-weight="bold" lengthAdjust="spacing" textLength="49.0273" x="973.5" y="436.5332">Vehicle</text></g><!--cluster Position--><g class="cluster" data-entity="Position" data-source-line="41" data-uid="ent0011" id="cluster_Position"><path d="M996,464 L1052.2207,464 A3.75,3.75 0 0 1 1054.7207,466.5 L1061.7207,487.6094 L1647,487.6094 A2.5,2.5 0 0 1 1649.5,490.1094 L1649.5,647.5 A2.5,2.5 0 0 1 1647,650 L996,650 A2.5,2.5 0 0 1 993.5,647.5 L993.5,466.5 A2.5,2.5 0 0 1 996,464" fill="none" style="stroke:#000000;stroke-width:1.5;"/><line style="stroke:#000000;stroke-width:1.5;" x1="993.5" x2="1061.7207" y1="487.6094" y2="487.6094"/><text fill="#000000" font-family="sans-serif" font-size="14" font-weight="bold" lengthAdjust="spacing" textLength="55.2207" x="997.5" y="480.5332">Position</text></g><!--cluster CurrentLatitudeService--><g class="cluster" data-entity="CurrentLatitudeService" data-source-line="41" data-uid="ent0012" id="cluster_CurrentLatitudeService"><path d="M1020,508 L1175.8203,508 A3.75,3.75 0 0 1 1178.3203,510.5 L1185.3203,531.6094 L1281,531.6094 A2.5,2.5 0 0 1 1283.5,534.1094 L1283.5,623.5 A2.5,2.5 0 0 1 1281,626 L1020,626 A2.5,2.5 0 0 1 1017.5,623.5 L1017.5,510.5 A2.5,2.5 0 0 1 1020,508" fill="none" style="stroke:#000000;stroke-width:1.5;"/><line style="stroke:#000000;stroke-width:1.5;" x1="1017.5" x2="1185.3203" y1="531.6094" y2="531.6094"/><text fill="#000000" font-family="sans-serif" font-size="14" font-weight="bold" lengthAdjust="spacing" textLength="154.8203" x="1021.5" y="524.5332">CurrentLatitudeService</text></g><!--cluster CurrentLongitudeService--><g class="cluster" data-entity="CurrentLongitudeService" data-source-line="45" data-uid="ent0014" id="cluster_CurrentLongitudeService"><path d="M1310,508 L1479.0273,508 A3.75,3.75 0 0 1 1481.5273,510.5 L1488.5273,531.6094 L1623,531.6094 A2.5,2.5 0 0 1 1625.5,534.1094 L1625.5,623.5 A2.5,2.5 0 0 1 1623,626 L1310,626 A2.5,2.5 0 0 1 1307.5,623.5 L1307.5,510.5 A2.5,2.5 0 0 1 1310,508" fill="none" style="stroke:#000000;stroke-width:1.5;"/><line style="stroke:#000000;stroke-width:1.5;" x1="1307.5" x2="1488.5273" y1="531.6094" y2="531.6094"/><text fill="#000000" font-family="sans-serif" font-size="14" font-weight="bold" lengthAdjust="spacing" textLength="168.0273" x="1311.5" y="524.5332">CurrentLongitudeService</text></g><!--class CSdvObject--><g class="entity" data-entity="CSdvObject" data-source-line="20" data-uid="ent0003" id="entity_CSdvObject"><rect fill="#F1F1F1" height="118.4375" rx="2.5" ry="2.5" style="stroke:#181818;stroke-width:0.5;" width="412.7705" x="325" y="518"/><ellipse cx="489.7871" cy="534" fill="#ADD1B2" rx="11" ry="11" style="stroke:#181818;stroke-width:1;"/><path d="M492.5527,529.875 Q492.709,529.6563 492.8965,529.5469 Q493.084,529.4375 493.3027,529.4375 Q493.6777,529.4375 493.9121,529.6953 Q494.1465,529.9531 494.1465,530.5625 L494.1465,532.0156 Q494.1465,532.625 493.9121,532.8906 Q493.6777,533.1563 493.3027,533.1563 Q492.959,533.1563 492.7559,532.9531 Q492.5527,532.7656 492.4434,532.25 Q492.3965,531.8906 492.209,531.7031 Q491.8809,531.3281 491.2715,531.1094 Q490.6621,530.8906 490.0371,530.8906 Q489.2715,530.8906 488.6387,531.2188 Q488.0059,531.5469 487.5137,532.2969 Q487.0215,533.0469 487.0215,534.0781 L487.0215,535.1719 Q487.0215,536.4063 487.9121,537.2266 Q488.8027,538.0469 490.3965,538.0469 Q491.334,538.0469 491.9902,537.7969 Q492.3809,537.6406 492.8027,537.2031 Q493.0684,536.9375 493.2168,536.8594 Q493.3652,536.7813 493.5684,536.7813 Q493.8965,536.7813 494.1543,537.0391 Q494.4121,537.2969 494.4121,537.6406 Q494.4121,537.9844 494.0684,538.3906 Q493.5684,538.9688 492.7715,539.2969 Q491.6934,539.75 490.3965,539.75 Q488.8809,539.75 487.6777,539.125 Q486.6934,538.625 486.0059,537.5547 Q485.3184,536.4844 485.3184,535.2031 L485.3184,534.0469 Q485.3184,532.7188 485.9355,531.5703 Q486.5527,530.4219 487.6465,529.8047 Q488.7402,529.1875 489.9746,529.1875 Q490.709,529.1875 491.3574,529.3516 Q492.0059,529.5156 492.5527,529.875 Z " fill="#000000"/><text fill="#000000" font-family="sans-serif" font-size="14" lengthAdjust="spacing" textLength="74.6963" x="510.2871" y="539.7285">CSdvObject</text><line style="stroke:#181818;stroke-width:0.5;" x1="326" x2="736.7705" y1="550" y2="550"/><line style="stroke:#181818;stroke-width:0.5;" x1="326" x2="736.7705" y1="558" y2="558"/><ellipse cx="336" cy="572.3047" fill="#84BE84" rx="3" ry="3" style="stroke:#038048;stroke-width:1;"/><text fill="#000000" font-family="sans-serif" font-size="14" lengthAdjust="spacing" text-decoration="underline" textLength="336.9365" x="345" y="576.5332">sdv::sequence&lt;sdv::u8string&gt; GetClassAliasesStatic()</text><ellipse cx="336" cy="589.9141" fill="#84BE84" rx="3" ry="3" style="stroke:#038048;stroke-width:1;"/><text fill="#000000" font-family="sans-serif" font-size="14" lengthAdjust="spacing" text-decoration="underline" textLength="272.3301" x="345" y="594.1426">sdv::u8string GetDefaultObjectNameStatic()</text><ellipse cx="336" cy="607.5234" fill="#84BE84" rx="3" ry="3" style="stroke:#038048;stroke-width:1;"/><text fill="#000000" font-family="sans-serif" font-size="14" lengthAdjust="spacing" text-decoration="underline" textLength="143.9648" x="345" y="611.752">bool IsSingletonStatic()</text><ellipse cx="336" cy="625.1328" fill="#84BE84" rx="3" ry="3" style="stroke:#038048;stroke-width:1;"/><text fill="#000000" font-family="sans-serif" font-size="14" lengthAdjust="spacing" text-decoration="underline" textLength="386.7705" x="345" y="629.3613">sdv::sequence&lt;sdv::u8string&gt; GetObjectDependenciesStatic()</text></g><!--class IObjectControl--><g class="entity" data-entity="IObjectControl" data-source-line="29" data-uid="ent0006" id="entity_IObjectControl"><rect fill="#F1F1F1" height="83.2188" rx="2.5" ry="2.5" style="stroke:#181818;stroke-width:0.5;" width="131.8408" x="773.5" y="535.5"/><ellipse cx="793.1613" cy="551.5" fill="#B4A7E5" rx="11" ry="11" style="stroke:#181818;stroke-width:1;"/><path d="M794.1144,548.1406 L794.1144,554.7969 L795.8332,554.7969 Q796.4425,554.7969 796.7082,555.0313 Q796.9738,555.2656 796.9738,555.6563 Q796.9738,556.0313 796.7082,556.2656 Q796.4425,556.5 795.8332,556.5 L790.6925,556.5 Q790.0832,556.5 789.8175,556.2656 Q789.5519,556.0313 789.5519,555.6406 Q789.5519,555.2656 789.8175,555.0313 Q790.0832,554.7969 790.6925,554.7969 L792.4113,554.7969 L792.4113,548.1406 L790.6925,548.1406 Q790.0832,548.1406 789.8175,547.9063 Q789.5519,547.6719 789.5519,547.2813 Q789.5519,546.9063 789.8175,546.6719 Q790.0832,546.4375 790.6925,546.4375 L795.8332,546.4375 Q796.4425,546.4375 796.7082,546.6719 Q796.9738,546.9063 796.9738,547.2813 Q796.9738,547.6719 796.7082,547.9063 Q796.4425,548.1406 795.8332,548.1406 L794.1144,548.1406 Z " fill="#000000"/><text fill="#000000" font-family="sans-serif" font-size="14" font-style="italic" lengthAdjust="spacing" textLength="89.4824" x="808.1971" y="557.2285">IObjectControl</text><line style="stroke:#181818;stroke-width:0.5;" x1="774.5" x2="904.3408" y1="567.5" y2="567.5"/><line style="stroke:#181818;stroke-width:0.5;" x1="774.5" x2="904.3408" y1="575.5" y2="575.5"/><text fill="#000000" font-family="sans-serif" font-size="14" font-style="italic" lengthAdjust="spacing" textLength="108.9375" x="779.5" y="594.0332">bool OnInitialize()</text><text fill="#000000" font-family="sans-serif" font-size="14" font-style="italic" lengthAdjust="spacing" textLength="119.8408" x="779.5" y="611.6426">void OnShutdown()</text></g><!--class IVSS_SetCurrentLatitude_Event--><g class="entity" data-entity="IVSS_SetCurrentLatitude_Event" data-source-line="41" data-uid="ent0008" id="entity_IVSS_SetCurrentLatitude_Event"><rect fill="#F1F1F1" height="65.6094" rx="2.5" ry="2.5" style="stroke:#181818;stroke-width:0.5;" width="232.792" x="1034" y="544"/><ellipse cx="1049" cy="560" fill="#B4A7E5" rx="11" ry="11" style="stroke:#181818;stroke-width:1;"/><path d="M1049.9531,556.6406 L1049.9531,563.2969 L1051.6719,563.2969 Q1052.2813,563.2969 1052.5469,563.5313 Q1052.8125,563.7656 1052.8125,564.1563 Q1052.8125,564.5313 1052.5469,564.7656 Q1052.2813,565 1051.6719,565 L1046.5313,565 Q1045.9219,565 1045.6563,564.7656 Q1045.3906,564.5313 1045.3906,564.1406 Q1045.3906,563.7656 1045.6563,563.5313 Q1045.9219,563.2969 1046.5313,563.2969 L1048.25,563.2969 L1048.25,556.6406 L1046.5313,556.6406 Q1045.9219,556.6406 1045.6563,556.4063 Q1045.3906,556.1719 1045.3906,555.7813 Q1045.3906,555.4063 1045.6563,555.1719 Q1045.9219,554.9375 1046.5313,554.9375 L1051.6719,554.9375 Q1052.2813,554.9375 1052.5469,555.1719 Q1052.8125,555.4063 1052.8125,555.7813 Q1052.8125,556.1719 1052.5469,556.4063 Q1052.2813,556.6406 1051.6719,556.6406 L1049.9531,556.6406 Z " fill="#000000"/><text fill="#000000" font-family="sans-serif" font-size="14" font-style="italic" lengthAdjust="spacing" textLength="200.792" x="1063" y="565.7285">IVSS_SetCurrentLatitude_Event</text><line style="stroke:#181818;stroke-width:0.5;" x1="1035" x2="1265.792" y1="576" y2="576"/><line style="stroke:#181818;stroke-width:0.5;" x1="1035" x2="1265.792" y1="584" y2="584"/><text fill="#000000" font-family="sans-serif" font-size="14" font-style="italic" lengthAdjust="spacing" textLength="220.2334" x="1040" y="602.5332">void SetCurrentLatitude(float value)</text></g><!--class IVSS_SetCurrentLongitude_Event--><g class="entity" data-entity="IVSS_SetCurrentLongitude_Event" data-source-line="45" data-uid="ent0013" id="entity_IVSS_SetCurrentLongitude_Event"><rect fill="#F1F1F1" height="65.6094" rx="2.5" ry="2.5" style="stroke:#181818;stroke-width:0.5;" width="285.1504" x="1324" y="544"/><ellipse cx="1357.3041" cy="560" fill="#B4A7E5" rx="11" ry="11" style="stroke:#181818;stroke-width:1;"/><path d="M1358.2572,556.6406 L1358.2572,563.2969 L1359.976,563.2969 Q1360.5854,563.2969 1360.851,563.5313 Q1361.1166,563.7656 1361.1166,564.1563 Q1361.1166,564.5313 1360.851,564.7656 Q1360.5854,565 1359.976,565 L1354.8354,565 Q1354.226,565 1353.9604,564.7656 Q1353.6947,564.5313 1353.6947,564.1406 Q1353.6947,563.7656 1353.9604,563.5313 Q1354.226,563.2969 1354.8354,563.2969 L1356.5541,563.2969 L1356.5541,556.6406 L1354.8354,556.6406 Q1354.226,556.6406 1353.9604,556.4063 Q1353.6947,556.1719 1353.6947,555.7813 Q1353.6947,555.4063 1353.9604,555.1719 Q1354.226,554.9375 1354.8354,554.9375 L1359.976,554.9375 Q1360.5854,554.9375 1360.851,555.1719 Q1361.1166,555.4063 1361.1166,555.7813 Q1361.1166,556.1719 1360.851,556.4063 Q1360.5854,556.6406 1359.976,556.6406 L1358.2572,556.6406 Z " fill="#000000"/><text fill="#000000" font-family="sans-serif" font-size="14" font-style="italic" lengthAdjust="spacing" textLength="212.4746" x="1375.3717" y="565.7285">IVSS_SetCurrentLongitude_Event</text><line style="stroke:#181818;stroke-width:0.5;" x1="1325" x2="1608.1504" y1="576" y2="576"/><line style="stroke:#181818;stroke-width:0.5;" x1="1325" x2="1608.1504" y1="584" y2="584"/><text fill="#000000" font-family="sans-serif" font-size="14" lengthAdjust="spacing" textLength="273.1504" x="1330" y="602.5332">virtual void SetCurrentLongitude(float value)</text></g><!--class CAutoHeadlightService--><g class="entity" data-entity="CAutoHeadlightService" data-source-line="2" data-uid="ent0002" id="entity_CAutoHeadlightService"><rect fill="#F1F1F1" height="305.2344" rx="2.5" ry="2.5" style="stroke:#181818;stroke-width:0.5;" width="649.3213" x="515" y="7"/><ellipse cx="763.0386" cy="28.3516" fill="#ADD1B2" rx="11" ry="11" style="stroke:#181818;stroke-width:1;"/><path d="M765.8042,24.2266 Q765.9604,24.0078 766.1479,23.8984 Q766.3354,23.7891 766.5542,23.7891 Q766.9292,23.7891 767.1636,24.0469 Q767.3979,24.3047 767.3979,24.9141 L767.3979,26.3672 Q767.3979,26.9766 767.1636,27.2422 Q766.9292,27.5078 766.5542,27.5078 Q766.2104,27.5078 766.0073,27.3047 Q765.8042,27.1172 765.6948,26.6016 Q765.6479,26.2422 765.4604,26.0547 Q765.1323,25.6797 764.5229,25.4609 Q763.9136,25.2422 763.2886,25.2422 Q762.5229,25.2422 761.8901,25.5703 Q761.2573,25.8984 760.7651,26.6484 Q760.2729,27.3984 760.2729,28.4297 L760.2729,29.5234 Q760.2729,30.7578 761.1636,31.5781 Q762.0542,32.3984 763.6479,32.3984 Q764.5854,32.3984 765.2417,32.1484 Q765.6323,31.9922 766.0542,31.5547 Q766.3198,31.2891 766.4683,31.2109 Q766.6167,31.1328 766.8198,31.1328 Q767.1479,31.1328 767.4058,31.3906 Q767.6636,31.6484 767.6636,31.9922 Q767.6636,32.3359 767.3198,32.7422 Q766.8198,33.3203 766.0229,33.6484 Q764.9448,34.1016 763.6479,34.1016 Q762.1323,34.1016 760.9292,33.4766 Q759.9448,32.9766 759.2573,31.9063 Q758.5698,30.8359 758.5698,29.5547 L758.5698,28.3984 Q758.5698,27.0703 759.187,25.9219 Q759.8042,24.7734 760.8979,24.1563 Q761.9917,23.5391 763.2261,23.5391 Q763.9604,23.5391 764.6089,23.7031 Q765.2573,23.8672 765.8042,24.2266 Z " fill="#000000"/><text fill="#000000" font-family="sans-serif" font-size="12" font-style="italic" lengthAdjust="spacing" textLength="63.3867" x="824.2173" y="24.457">&#171;Singleton&#187;</text><text fill="#000000" font-family="sans-serif" font-size="14" lengthAdjust="spacing" textLength="144.7441" x="783.5386" y="41.627">CAutoHeadlightService</text><line style="stroke:#181818;stroke-width:0.5;" x1="516" x2="1163.3213" y1="49.7031" y2="49.7031"/><rect fill="none" height="6" style="stroke:#C82930;stroke-width:1;" width="6" x="523" y="61.0078"/><text fill="#000000" font-family="sans-serif" font-size="14" lengthAdjust="spacing" textLength="197.6611" x="535" y="68.2363">volatile float m_fCurrentLatitude</text><rect fill="none" height="6" style="stroke:#C82930;stroke-width:1;" width="6" x="523" y="78.6172"/><text fill="#000000" font-family="sans-serif" font-size="14" lengthAdjust="spacing" textLength="209.3438" x="535" y="85.8457">volatile float m_fCurrentLongitude</text><rect fill="none" height="6" style="stroke:#C82930;stroke-width:1;" width="6" x="523" y="96.2266"/><text fill="#000000" font-family="sans-serif" font-size="14" lengthAdjust="spacing" textLength="164.2129" x="535" y="103.4551">volatile bool m_bHeadlight</text><rect fill="none" height="6" style="stroke:#C82930;stroke-width:1;" width="6" x="523" y="113.8359"/><text fill="#000000" font-family="sans-serif" font-size="14" lengthAdjust="spacing" textLength="249.04" x="535" y="121.0645">SGPSBoundBox m_SGPSBoundingBox</text><rect fill="none" height="6" style="stroke:#C82930;stroke-width:1;" width="6" x="523" y="131.4453"/><text fill="#000000" font-family="sans-serif" font-size="14" lengthAdjust="spacing" textLength="623.3213" x="535" y="138.6738">vss::Vehicle::Body::Light::Front::LowBeamService::IVSS_SetHeadLightLowBeam* m_pHeadlightSvc</text><line style="stroke:#181818;stroke-width:0.5;" x1="516" x2="1163.3213" y1="145.75" y2="145.75"/><ellipse cx="526" cy="160.0547" fill="#84BE84" rx="3" ry="3" style="stroke:#038048;stroke-width:1;"/><text fill="#000000" font-family="sans-serif" font-size="14" lengthAdjust="spacing" textLength="108.9375" x="535" y="164.2832">bool OnInitialize()</text><ellipse cx="526" cy="177.6641" fill="#84BE84" rx="3" ry="3" style="stroke:#038048;stroke-width:1;"/><text fill="#000000" font-family="sans-serif" font-size="14" lengthAdjust="spacing" textLength="119.8408" x="535" y="181.8926">void OnShutdown()</text><rect fill="#F24D5C" height="6" style="stroke:#C82930;stroke-width:1;" width="6" x="523" y="192.2734"/><text fill="#000000" font-family="sans-serif" font-size="14" lengthAdjust="spacing" textLength="220.2334" x="535" y="199.502">void SetCurrentLatitude(float value)</text><rect fill="#F24D5C" height="6" style="stroke:#C82930;stroke-width:1;" width="6" x="523" y="209.8828"/><text fill="#000000" font-family="sans-serif" font-size="14" lengthAdjust="spacing" textLength="231.916" x="535" y="217.1113">void SetCurrentLongitude(float value)</text><rect fill="#F24D5C" height="6" style="stroke:#C82930;stroke-width:1;" width="6" x="523" y="227.4922"/><text fill="#000000" font-family="sans-serif" font-size="14" lengthAdjust="spacing" textLength="141.627" x="535" y="234.7207">bool IsinTunnel() const</text><rect fill="#F24D5C" height="6" style="stroke:#C82930;stroke-width:1;" width="6" x="523" y="245.1016"/><text fill="#000000" font-family="sans-serif" font-size="14" lengthAdjust="spacing" textLength="198.4404" x="535" y="252.3301">bool GetHeadlightStatus() const</text><rect fill="#F24D5C" height="6" style="stroke:#C82930;stroke-width:1;" width="6" x="523" y="262.7109"/><text fill="#000000" font-family="sans-serif" font-size="14" lengthAdjust="spacing" textLength="270.8125" x="535" y="269.9395">SGPSBoundBox GetGPSBoundBox() const</text><rect fill="#F24D5C" height="6" style="stroke:#C82930;stroke-width:1;" width="6" x="523" y="280.3203"/><text fill="#000000" font-family="sans-serif" font-size="14" lengthAdjust="spacing" textLength="281.709" x="535" y="287.5488">void ProcessHeadlightBasedOnEgoPosition()</text><rect fill="#F24D5C" height="6" style="stroke:#C82930;stroke-width:1;" width="6" x="523" y="297.9297"/><text fill="#000000" font-family="sans-serif" font-size="14" lengthAdjust="spacing" textLength="377.4189" x="535" y="305.1582">bool LoadGPSBounds(const sdv::u8string&amp; rssObjectConfig)</text></g><!--class CSdvObjectAccess--><g class="entity" data-entity="CSdvObjectAccess" data-source-line="28" data-uid="ent0005" id="entity_CSdvObjectAccess"><rect fill="#F1F1F1" height="48" rx="2.5" ry="2.5" style="stroke:#181818;stroke-width:0.5;" width="151.8203" x="455.5" y="762"/><ellipse cx="470.5" cy="778" fill="#ADD1B2" rx="11" ry="11" style="stroke:#181818;stroke-width:1;"/><path d="M473.2656,773.875 Q473.4219,773.6563 473.6094,773.5469 Q473.7969,773.4375 474.0156,773.4375 Q474.3906,773.4375 474.625,773.6953 Q474.8594,773.9531 474.8594,774.5625 L474.8594,776.0156 Q474.8594,776.625 474.625,776.8906 Q474.3906,777.1563 474.0156,777.1563 Q473.6719,777.1563 473.4688,776.9531 Q473.2656,776.7656 473.1563,776.25 Q473.1094,775.8906 472.9219,775.7031 Q472.5938,775.3281 471.9844,775.1094 Q471.375,774.8906 470.75,774.8906 Q469.9844,774.8906 469.3516,775.2188 Q468.7188,775.5469 468.2266,776.2969 Q467.7344,777.0469 467.7344,778.0781 L467.7344,779.1719 Q467.7344,780.4063 468.625,781.2266 Q469.5156,782.0469 471.1094,782.0469 Q472.0469,782.0469 472.7031,781.7969 Q473.0938,781.6406 473.5156,781.2031 Q473.7813,780.9375 473.9297,780.8594 Q474.0781,780.7813 474.2813,780.7813 Q474.6094,780.7813 474.8672,781.0391 Q475.125,781.2969 475.125,781.6406 Q475.125,781.9844 474.7813,782.3906 Q474.2813,782.9688 473.4844,783.2969 Q472.4063,783.75 471.1094,783.75 Q469.5938,783.75 468.3906,783.125 Q467.4063,782.625 466.7188,781.5547 Q466.0313,780.4844 466.0313,779.2031 L466.0313,778.0469 Q466.0313,776.7188 466.6484,775.5703 Q467.2656,774.4219 468.3594,773.8047 Q469.4531,773.1875 470.6875,773.1875 Q471.4219,773.1875 472.0703,773.3516 Q472.7188,773.5156 473.2656,773.875 Z " fill="#000000"/><text fill="#000000" font-family="sans-serif" font-size="14" lengthAdjust="spacing" textLength="119.8203" x="484.5" y="783.7285">CSdvObjectAccess</text><line style="stroke:#181818;stroke-width:0.5;" x1="456.5" x2="606.3203" y1="794" y2="794"/><line style="stroke:#181818;stroke-width:0.5;" x1="456.5" x2="606.3203" y1="802" y2="802"/></g><!--class IAutoheadlightService--><g class="entity" data-entity="IAutoheadlightService" data-source-line="34" data-uid="ent0007" id="entity_IAutoheadlightService"><rect fill="#F1F1F1" height="118.4375" rx="2.5" ry="2.5" style="stroke:#181818;stroke-width:0.5;" width="282.8125" x="7" y="518"/><ellipse cx="76.0566" cy="534" fill="#B4A7E5" rx="11" ry="11" style="stroke:#181818;stroke-width:1;"/><path d="M77.0098,530.6406 L77.0098,537.2969 L78.7285,537.2969 Q79.3379,537.2969 79.6035,537.5313 Q79.8691,537.7656 79.8691,538.1563 Q79.8691,538.5313 79.6035,538.7656 Q79.3379,539 78.7285,539 L73.5879,539 Q72.9785,539 72.7129,538.7656 Q72.4473,538.5313 72.4473,538.1406 Q72.4473,537.7656 72.7129,537.5313 Q72.9785,537.2969 73.5879,537.2969 L75.3066,537.2969 L75.3066,530.6406 L73.5879,530.6406 Q72.9785,530.6406 72.7129,530.4063 Q72.4473,530.1719 72.4473,529.7813 Q72.4473,529.4063 72.7129,529.1719 Q72.9785,528.9375 73.5879,528.9375 L78.7285,528.9375 Q79.3379,528.9375 79.6035,529.1719 Q79.8691,529.4063 79.8691,529.7813 Q79.8691,530.1719 79.6035,530.4063 Q79.3379,530.6406 78.7285,530.6406 L77.0098,530.6406 Z " fill="#000000"/><text fill="#000000" font-family="sans-serif" font-size="14" font-style="italic" lengthAdjust="spacing" textLength="136.1992" x="96.5566" y="539.7285">IAutoheadlightService</text><line style="stroke:#181818;stroke-width:0.5;" x1="8" x2="288.8125" y1="550" y2="550"/><text fill="#000000" font-family="sans-serif" font-size="14" lengthAdjust="spacing" textLength="141.627" x="13" y="568.5332">struct SGPSBoundBox</text><line style="stroke:#181818;stroke-width:0.5;" x1="8" x2="288.8125" y1="575.6094" y2="575.6094"/><text fill="#000000" font-family="sans-serif" font-size="14" font-style="italic" lengthAdjust="spacing" textLength="141.627" x="13" y="594.1426">bool IsinTunnel() const</text><text fill="#000000" font-family="sans-serif" font-size="14" font-style="italic" lengthAdjust="spacing" textLength="198.4404" x="13" y="611.752">bool GetHeadlightStatus() const</text><text fill="#000000" font-family="sans-serif" font-size="14" font-style="italic" lengthAdjust="spacing" textLength="270.8125" x="13" y="629.3613">SGPSBoundBox GetGPSBoundBox() const</text></g><!--link CAutoHeadlightService to IObjectControl--><g class="link" data-entity-1="CAutoHeadlightService" data-entity-2="IObjectControl" data-source-line="50" data-uid="lnk15" id="link_CAutoHeadlightService_IObjectControl"><path codeLine="50" d="M839.5,312.27 C839.5,392.02 839.5,465.66 839.5,517.21" fill="none" id="CAutoHeadlightService-to-IObjectControl" style="stroke:#181818;stroke-width:1;stroke-dasharray:7,7;"/><polygon fill="none" points="839.5,535.21,845.5,517.21,833.5,517.21,839.5,535.21" style="stroke:#181818;stroke-width:1;"/><text fill="#000000" font-family="sans-serif" font-size="13" lengthAdjust="spacing" textLength="67.1899" x="840.5" y="356.4951">Implements</text></g><!--link CAutoHeadlightService to IAutoheadlightService--><g class="link" data-entity-1="CAutoHeadlightService" data-entity-2="IAutoheadlightService" data-source-line="51" data-uid="lnk16" id="link_CAutoHeadlightService_IAutoheadlightService"><path codeLine="51" d="M514.86,255.17 C442.96,284.65 369.95,321.88 308.5,368 C254.57,408.47 218.9606,456.3444 190.5506,502.4644" fill="none" id="CAutoHeadlightService-to-IAutoheadlightService" style="stroke:#181818;stroke-width:1;stroke-dasharray:7,7;"/><polygon fill="none" points="181.11,517.79,195.6592,505.6112,185.4421,499.3175,181.11,517.79" style="stroke:#181818;stroke-width:1;"/><text fill="#000000" font-family="sans-serif" font-size="13" lengthAdjust="spacing" textLength="67.1899" x="333.5" y="356.4951">Implements</text></g><!--link CAutoHeadlightService to IVSS_SetCurrentLatitude_Event--><g class="link" data-entity-1="CAutoHeadlightService" data-entity-2="IVSS_SetCurrentLatitude_Event" data-source-line="52" data-uid="lnk17" id="link_CAutoHeadlightService_IVSS_SetCurrentLatitude_Event"><path codeLine="52" d="M953.1,312.27 C1016.26,396.65 1078.6035,479.9399 1115.6035,529.3699" fill="none" id="CAutoHeadlightService-to-IVSS_SetCurrentLatitude_Event" style="stroke:#181818;stroke-width:1;stroke-dasharray:7,7;"/><polygon fill="none" points="1126.39,543.78,1120.4069,525.7744,1110.8002,532.9654,1126.39,543.78" style="stroke:#181818;stroke-width:1;"/><text fill="#000000" font-family="sans-serif" font-size="13" lengthAdjust="spacing" textLength="67.1899" x="986.5" y="356.4951">Implements</text></g><!--link CAutoHeadlightService to IVSS_SetCurrentLongitude_Event--><g class="link" data-entity-1="CAutoHeadlightService" data-entity-2="IVSS_SetCurrentLongitude_Event" data-source-line="53" data-uid="lnk18" id="link_CAutoHeadlightService_IVSS_SetCurrentLongitude_Event"><path codeLine="53" d="M1164.19,292.88 C1205.91,315.4 1246.82,340.51 1283.5,368 C1351.81,419.2 1402.9859,484.6972 1434.3159,529.0572" fill="none" id="CAutoHeadlightService-to-IVSS_SetCurrentLongitude_Event" style="stroke:#181818;stroke-width:1;stroke-dasharray:7,7;"/><polygon fill="none" points="1444.7,543.76,1439.2168,525.5959,1429.415,532.5186,1444.7,543.76" style="stroke:#181818;stroke-width:1;"/><text fill="#000000" font-family="sans-serif" font-size="13" lengthAdjust="spacing" textLength="67.1899" x="1262.5" y="356.4951">Implements</text></g><!--link CAutoHeadlightService to CSdvObject--><g class="link" data-entity-1="CAutoHeadlightService" data-entity-2="CSdvObject" data-source-line="54" data-uid="lnk19" id="link_CAutoHeadlightService_CSdvObject"><path codeLine="54" d="M727,312.27 C674.07,383.67 624.788,450.1489 585.388,503.3089" fill="none" id="CAutoHeadlightService-to-CSdvObject" style="stroke:#181818;stroke-width:1;"/><polygon fill="none" points="574.67,517.77,590.2084,506.8815,580.5676,499.7362,574.67,517.77" style="stroke:#181818;stroke-width:1;"/></g><!--link CSdvObject to CSdvObjectAccess--><g class="link" data-entity-1="CSdvObject" data-entity-2="CSdvObjectAccess" data-source-line="55" data-uid="lnk20" id="link_CSdvObject_CSdvObjectAccess"><path codeLine="55" d="M531.5,636.21 C531.5,677.83 531.5,713.61 531.5,743.79" fill="none" id="CSdvObject-to-CSdvObjectAccess" style="stroke:#181818;stroke-width:1;"/><polygon fill="none" points="531.5,761.79,537.5,743.79,525.5,743.79,531.5,761.79" style="stroke:#181818;stroke-width:1;"/><text fill="#000000" font-family="sans-serif" font-size="13" lengthAdjust="spacing" textLength="41.9072" x="532.5" y="728.4951">inherits</text></g><!--SRC=[dLJ1Zjem4BtdA-PKiLsnvyf2IC1kjv5GGKgrLsII0LmvDhN7sRPR_hrEGa8I0cLxWjZFRsQUtpDO9B2uvuQJDi1O0B7ari9iuaX_GPv8iTrHX2OJCS9e50crbKXQZSS1l0K0SB_MMi92XKgGu5Byni5TiPvfaVZrQESeqQ-gN1qMgn7Ip1c3YkQS1Ba41nkfEK76fSD-e5RR2yYYWT0AzSqfXN9m1x5MbavxpqYdKOYJiorCzBoCfjgfPAf_vjZ6PmjNTBGqEaPhQxufjvWirDDMBxNr2kXgqABoNFEaehE3WWfiaZ7cFbaoNiiFOAnThBzZJ3EjDc9R3I-zC1AX73PTRJfw_GDLYTM65IsbgtNT_FduwQh-zDtvbPB1MiPUS2TYYOnDTVABiNbEmDXdevN_cUlNAVBqQ1J6mfSeMaMbxWNo2FZeA-nFbv750Ho2odI5ChCeoKf1ZWPxi_xAH7o0-sBVuW-7AiPHIyTnVd6pd6KYXRyI6nM7ohleC5HdyYEFkE5EKbdmAq-n_zpHOhNxhx1VwQ-iyeXxL8c7Y4QNkGnLz6e19d5kjG12HMWst0Umu0nhlv3HibA9htqb7jC1BWIoWUY9vg5P9ipJl-ka_rZ8SxYOeEcQllhzUUoYhYUpWRufewqPsfwjmkdzrGxIcMCx-wkdp7-TYtpRE_QkZghGNcof0hHwoeGXnoNS-5xcQUj_t1yU_eoXxIrW4APxYQadjDVFzJdc7SUlYV__D6t1Rk8P3ZrFymqw_U_kbV7qh4Bjq0YoVm40]--></g></svg>