<svg xmlns="http://www.w3.org/2000/svg" xmlns:xlink="http://www.w3.org/1999/xlink" contentStyleType="text/css" data-diagram-type="CLASS" height="1016px" preserveAspectRatio="none" style="width:1402px;height:1016px;background:#FFFFFF;" version="1.1" viewBox="0 0 1402 1016" width="1402px" zoomAndPan="magnify"><defs/><g><!--cluster Trunk Application executable--><g class="cluster" data-entity="Trunk Application executable" data-uid="ent0002" id="cluster_Trunk Application executable"><path d="M8.5,6 L204.7617,6 A3.75,3.75 0 0 1 207.2617,8.5 L214.2617,29.6094 L1392.5,29.6094 A2.5,2.5 0 0 1 1395,32.1094 L1395,702.5 A2.5,2.5 0 0 1 1392.5,705 L8.5,705 A2.5,2.5 0 0 1 6,702.5 L6,8.5 A2.5,2.5 0 0 1 8.5,6" fill="none" style="stroke:#000000;stroke-width:1.5;"/><line style="stroke:#000000;stroke-width:1.5;" x1="6" x2="214.2617" y1="29.6094" y2="29.6094"/><text fill="#000000" font-family="sans-serif" font-size="14" font-weight="bold" lengthAdjust="spacing" textLength="195.2617" x="10" y="22.5332">Trunk Application executable</text></g><!--cluster vss--><g class="cluster" data-entity="vss" data-source-line="54" data-uid="ent0006" id="cluster_vss"><path d="M119.5,755 L143.8584,755 A3.75,3.75 0 0 1 146.3584,757.5 L153.3584,778.6094 L664.5,778.6094 A2.5,2.5 0 0 1 667,781.1094 L667,1006.5 A2.5,2.5 0 0 1 664.5,1009 L119.5,1009 A2.5,2.5 0 0 1 117,1006.5 L117,757.5 A2.5,2.5 0 0 1 119.5,755" fill="none" style="stroke:#000000;stroke-width:1.5;"/><line style="stroke:#000000;stroke-width:1.5;" x1="117" x2="153.3584" y1="778.6094" y2="778.6094"/><text fill="#000000" font-family="sans-serif" font-size="14" font-weight="bold" lengthAdjust="spacing" textLength="23.3584" x="121" y="771.5332">vss</text></g><!--cluster Vehicle--><g class="cluster" data-entity="Vehicle" data-source-line="54" data-uid="ent0007" id="cluster_Vehicle"><path d="M143.5,799 L193.5273,799 A3.75,3.75 0 0 1 196.0273,801.5 L203.0273,822.6094 L640.5,822.6094 A2.5,2.5 0 0 1 643,825.1094 L643,982.5 A2.5,2.5 0 0 1 640.5,985 L143.5,985 A2.5,2.5 0 0 1 141,982.5 L141,801.5 A2.5,2.5 0 0 1 143.5,799" fill="none" style="stroke:#000000;stroke-width:1.5;"/><line style="stroke:#000000;stroke-width:1.5;" x1="141" x2="203.0273" y1="822.6094" y2="822.6094"/><text fill="#000000" font-family="sans-serif" font-size="14" font-weight="bold" lengthAdjust="spacing" textLength="49.0273" x="145" y="815.5332">Vehicle</text></g><!--cluster SpeedDevice--><g class="cluster" data-entity="SpeedDevice" data-source-line="54" data-uid="ent0008" id="cluster_SpeedDevice"><path d="M167.5,843 L255.6582,843 A3.75,3.75 0 0 1 258.1582,845.5 L265.1582,866.6094 L382.5,866.6094 A2.5,2.5 0 0 1 385,869.1094 L385,958.5 A2.5,2.5 0 0 1 382.5,961 L167.5,961 A2.5,2.5 0 0 1 165,958.5 L165,845.5 A2.5,2.5 0 0 1 167.5,843" fill="none" style="stroke:#000000;stroke-width:1.5;"/><line style="stroke:#000000;stroke-width:1.5;" x1="165" x2="265.1582" y1="866.6094" y2="866.6094"/><text fill="#000000" font-family="sans-serif" font-size="14" font-weight="bold" lengthAdjust="spacing" textLength="87.1582" x="169" y="859.5332">SpeedDevice</text></g><!--cluster SpeedService--><g class="cluster" data-entity="SpeedService" data-source-line="59" data-uid="ent0010" id="cluster_SpeedService"><path d="M411.5,843 L504.334,843 A3.75,3.75 0 0 1 506.834,845.5 L513.834,866.6094 L616.5,866.6094 A2.5,2.5 0 0 1 619,869.1094 L619,958.5 A2.5,2.5 0 0 1 616.5,961 L411.5,961 A2.5,2.5 0 0 1 409,958.5 L409,845.5 A2.5,2.5 0 0 1 411.5,843" fill="none" style="stroke:#000000;stroke-width:1.5;"/><line style="stroke:#000000;stroke-width:1.5;" x1="409" x2="513.834" y1="866.6094" y2="866.6094"/><text fill="#000000" font-family="sans-serif" font-size="14" font-weight="bold" lengthAdjust="spacing" textLength="91.834" x="413" y="859.5332">SpeedService</text></g><!--class CTrunkControl--><g class="entity" data-entity="CTrunkControl" data-source-line="4" data-uid="ent0003" id="entity_CTrunkControl"><rect fill="#F1F1F1" height="171.2656" rx="2.5" ry="2.5" style="stroke:#181818;stroke-width:0.5;" width="544.2393" x="835" y="280"/><ellipse cx="1057.356" cy="296" fill="#ADD1B2" rx="11" ry="11" style="stroke:#181818;stroke-width:1;"/><path d="M1060.1216,291.875 Q1060.2778,291.6563 1060.4653,291.5469 Q1060.6528,291.4375 1060.8716,291.4375 Q1061.2466,291.4375 1061.481,291.6953 Q1061.7153,291.9531 1061.7153,292.5625 L1061.7153,294.0156 Q1061.7153,294.625 1061.481,294.8906 Q1061.2466,295.1563 1060.8716,295.1563 Q1060.5278,295.1563 1060.3247,294.9531 Q1060.1216,294.7656 1060.0122,294.25 Q1059.9653,293.8906 1059.7778,293.7031 Q1059.4497,293.3281 1058.8403,293.1094 Q1058.231,292.8906 1057.606,292.8906 Q1056.8403,292.8906 1056.2075,293.2188 Q1055.5747,293.5469 1055.0825,294.2969 Q1054.5903,295.0469 1054.5903,296.0781 L1054.5903,297.1719 Q1054.5903,298.4063 1055.481,299.2266 Q1056.3716,300.0469 1057.9653,300.0469 Q1058.9028,300.0469 1059.5591,299.7969 Q1059.9497,299.6406 1060.3716,299.2031 Q1060.6372,298.9375 1060.7856,298.8594 Q1060.9341,298.7813 1061.1372,298.7813 Q1061.4653,298.7813 1061.7231,299.0391 Q1061.981,299.2969 1061.981,299.6406 Q1061.981,299.9844 1061.6372,300.3906 Q1061.1372,300.9688 1060.3403,301.2969 Q1059.2622,301.75 1057.9653,301.75 Q1056.4497,301.75 1055.2466,301.125 Q1054.2622,300.625 1053.5747,299.5547 Q1052.8872,298.4844 1052.8872,297.2031 L1052.8872,296.0469 Q1052.8872,294.7188 1053.5044,293.5703 Q1054.1216,292.4219 1055.2153,291.8047 Q1056.3091,291.1875 1057.5435,291.1875 Q1058.2778,291.1875 1058.9263,291.3516 Q1059.5747,291.5156 1060.1216,291.875 Z " fill="#000000"/><text fill="#000000" font-family="sans-serif" font-size="14" lengthAdjust="spacing" textLength="91.0273" x="1077.856" y="301.7285">CTrunkControl</text><line style="stroke:#181818;stroke-width:0.5;" x1="836" x2="1378.2393" y1="312" y2="312"/><rect fill="none" height="6" style="stroke:#C82930;stroke-width:1;" width="6" x="843" y="323.3047"/><text fill="#000000" font-family="sans-serif" font-size="14" lengthAdjust="spacing" textLength="229.5713" x="855" y="330.5332">sdv::app::CAppControl m_appcontrol</text><rect fill="none" height="6" style="stroke:#C82930;stroke-width:1;" width="6" x="843" y="340.9141"/><text fill="#000000" font-family="sans-serif" font-size="14" lengthAdjust="spacing" textLength="115.958" x="855" y="348.1426">bool m_bInitialized</text><line style="stroke:#181818;stroke-width:0.5;" x1="836" x2="1378.2393" y1="355.2188" y2="355.2188"/><ellipse cx="846" cy="369.5234" fill="#84BE84" rx="3" ry="3" style="stroke:#038048;stroke-width:1;"/><text fill="#000000" font-family="sans-serif" font-size="14" lengthAdjust="spacing" textLength="207.792" x="855" y="373.752">bool Initialize(uint32_t uiInstance)</text><ellipse cx="846" cy="387.1328" fill="#84BE84" rx="3" ry="3" style="stroke:#038048;stroke-width:1;"/><text fill="#000000" font-family="sans-serif" font-size="14" lengthAdjust="spacing" textLength="147.082" x="855" y="391.3613">void SetRunningMode()</text><ellipse cx="846" cy="404.7422" fill="#84BE84" rx="3" ry="3" style="stroke:#038048;stroke-width:1;"/><text fill="#000000" font-family="sans-serif" font-size="14" lengthAdjust="spacing" textLength="101.165" x="855" y="408.9707">void Shutdown()</text><rect fill="#F24D5C" height="6" style="stroke:#C82930;stroke-width:1;" width="6" x="843" y="419.3516"/><text fill="#000000" font-family="sans-serif" font-size="14" lengthAdjust="spacing" textLength="248.9717" x="855" y="426.5801">bool IsSDVFrameworkEnvironmentSet()</text><rect fill="#F24D5C" height="6" style="stroke:#C82930;stroke-width:1;" width="6" x="843" y="436.9609"/><text fill="#000000" font-family="sans-serif" font-size="14" lengthAdjust="spacing" textLength="518.2393" x="855" y="444.1895">bool LoadConfigFile(const std::string&amp; inputMsg, const std::string&amp; configFileName)</text></g><!--class CConsole--><g class="entity" data-entity="CConsole" data-source-line="15" data-uid="ent0004" id="entity_CConsole"><rect fill="#F1F1F1" height="646.7188" rx="2.5" ry="2.5" style="stroke:#181818;stroke-width:0.5;" width="778.4863" x="22" y="42"/><ellipse cx="376.2554" cy="58" fill="#ADD1B2" rx="11" ry="11" style="stroke:#181818;stroke-width:1;"/><path d="M379.021,53.875 Q379.1772,53.6563 379.3647,53.5469 Q379.5522,53.4375 379.771,53.4375 Q380.146,53.4375 380.3804,53.6953 Q380.6147,53.9531 380.6147,54.5625 L380.6147,56.0156 Q380.6147,56.625 380.3804,56.8906 Q380.146,57.1563 379.771,57.1563 Q379.4272,57.1563 379.2241,56.9531 Q379.021,56.7656 378.9116,56.25 Q378.8647,55.8906 378.6772,55.7031 Q378.3491,55.3281 377.7397,55.1094 Q377.1304,54.8906 376.5054,54.8906 Q375.7397,54.8906 375.1069,55.2188 Q374.4741,55.5469 373.9819,56.2969 Q373.4897,57.0469 373.4897,58.0781 L373.4897,59.1719 Q373.4897,60.4063 374.3804,61.2266 Q375.271,62.0469 376.8647,62.0469 Q377.8022,62.0469 378.4585,61.7969 Q378.8491,61.6406 379.271,61.2031 Q379.5366,60.9375 379.6851,60.8594 Q379.8335,60.7813 380.0366,60.7813 Q380.3647,60.7813 380.6226,61.0391 Q380.8804,61.2969 380.8804,61.6406 Q380.8804,61.9844 380.5366,62.3906 Q380.0366,62.9688 379.2397,63.2969 Q378.1616,63.75 376.8647,63.75 Q375.3491,63.75 374.146,63.125 Q373.1616,62.625 372.4741,61.5547 Q371.7866,60.4844 371.7866,59.2031 L371.7866,58.0469 Q371.7866,56.7188 372.4038,55.5703 Q373.021,54.4219 374.1147,53.8047 Q375.2085,53.1875 376.4429,53.1875 Q377.1772,53.1875 377.8257,53.3516 Q378.4741,53.5156 379.021,53.875 Z " fill="#000000"/><text fill="#000000" font-family="sans-serif" font-size="14" lengthAdjust="spacing" textLength="61.4756" x="396.7554" y="63.7285">CConsole</text><line style="stroke:#181818;stroke-width:0.5;" x1="23" x2="799.4863" y1="74" y2="74"/><ellipse cx="33" cy="88.3047" fill="none" rx="3" ry="3" style="stroke:#038048;stroke-width:1;"/><text fill="#000000" font-family="sans-serif" font-size="14" lengthAdjust="spacing" textLength="122.9443" x="42" y="92.5332">struct SConsolePos</text><text fill="#000000" font-family="sans-serif" font-size="14" lengthAdjust="spacing" textLength="4.6758" x="42" y="110.1426">{</text><text fill="#000000" font-family="sans-serif" font-size="14" lengthAdjust="spacing" textLength="92.6133" x="42" y="127.752">uint32_t uiRow</text><text fill="#000000" font-family="sans-serif" font-size="14" lengthAdjust="spacing" textLength="85.6133" x="42" y="145.3613">uint32_t uiCol</text><text fill="#000000" font-family="sans-serif" font-size="14" lengthAdjust="spacing" textLength="8.5654" x="42" y="162.9707">};</text><rect fill="none" height="6" style="stroke:#C82930;stroke-width:1;" width="6" x="30" y="173.3516"/><text fill="#000000" font-family="sans-serif" font-size="14" lengthAdjust="spacing" textLength="260.6543" x="42" y="180.5801">mutable std::mutex m_mtxPrintToConsole</text><rect fill="none" height="6" style="stroke:#C82930;stroke-width:1;" width="6" x="30" y="190.9609"/><text fill="#000000" font-family="sans-serif" font-size="14" lengthAdjust="spacing" textLength="109.7441" x="42" y="198.1895">bool m_bRunning</text><rect fill="none" height="6" style="stroke:#C82930;stroke-width:1;" width="6" x="30" y="208.5703"/><text fill="#000000" font-family="sans-serif" font-size="14" lengthAdjust="spacing" textLength="249.7646" x="42" y="215.7988">mutable std::mutex m_mPrintToConsole</text><rect fill="none" height="6" style="stroke:#C82930;stroke-width:1;" width="6" x="30" y="226.1797"/><text fill="#000000" font-family="sans-serif" font-size="14" lengthAdjust="spacing" textLength="216.3438" x="42" y="233.4082">sdv::core::CSignal m_SignalSpeed</text><rect fill="none" height="6" style="stroke:#C82930;stroke-width:1;" width="6" x="30" y="243.7891"/><text fill="#000000" font-family="sans-serif" font-size="14" lengthAdjust="spacing" textLength="108.1787" x="42" y="251.0176">float m_SpeedDL</text><rect fill="none" height="6" style="stroke:#C82930;stroke-width:1;" width="6" x="30" y="261.3984"/><text fill="#000000" font-family="sans-serif" font-size="14" lengthAdjust="spacing" textLength="109.7305" x="42" y="268.627">float m_SpeedVD</text><rect fill="none" height="6" style="stroke:#C82930;stroke-width:1;" width="6" x="30" y="279.0078"/><text fill="#000000" font-family="sans-serif" font-size="14" lengthAdjust="spacing" textLength="108.958" x="42" y="286.2363">float m_SpeedBS</text><rect fill="none" height="6" style="stroke:#C82930;stroke-width:1;" width="6" x="30" y="296.6172"/><text fill="#000000" font-family="sans-serif" font-size="14" lengthAdjust="spacing" textLength="403.0605" x="42" y="303.8457">vss::Vehicle::Body::TrunkService::IVSS_SetOpen* m_pTrunkSvc</text><rect fill="none" height="6" style="stroke:#C82930;stroke-width:1;" width="6" x="30" y="314.2266"/><text fill="#000000" font-family="sans-serif" font-size="14" lengthAdjust="spacing" textLength="280.8682" x="42" y="321.4551">ITrunkKitService* m_pITrunkComplexService</text><rect fill="none" height="6" style="stroke:#C82930;stroke-width:1;" width="6" x="30" y="331.8359"/><text fill="#000000" font-family="sans-serif" font-size="14" lengthAdjust="spacing" textLength="204.6201" x="42" y="339.0645">DWORD m_dwConsoleOutMode</text><rect fill="none" height="6" style="stroke:#C82930;stroke-width:1;" width="6" x="30" y="349.4453"/><text fill="#000000" font-family="sans-serif" font-size="14" lengthAdjust="spacing" textLength="193.7305" x="42" y="356.6738">DWORD m_dwConsoleInMode</text><rect fill="none" height="6" style="stroke:#C82930;stroke-width:1;" width="6" x="30" y="367.0547"/><text fill="#000000" font-family="sans-serif" font-size="14" lengthAdjust="spacing" textLength="178.1445" x="42" y="374.2832">struct termios m_sTermAttr{}</text><rect fill="none" height="6" style="stroke:#C82930;stroke-width:1;" width="6" x="30" y="384.6641"/><text fill="#000000" font-family="sans-serif" font-size="14" lengthAdjust="spacing" textLength="103.4824" x="42" y="391.8926">int m_iFileStatus</text><line style="stroke:#181818;stroke-width:0.5;" x1="23" x2="799.4863" y1="398.9688" y2="398.9688"/><ellipse cx="33" cy="413.2734" fill="#84BE84" rx="3" ry="3" style="stroke:#038048;stroke-width:1;"/><text fill="#000000" font-family="sans-serif" font-size="14" lengthAdjust="spacing" textLength="231.1299" x="42" y="417.502">void PrintHeader(uint32_t uiInstance)</text><ellipse cx="33" cy="430.8828" fill="#84BE84" rx="3" ry="3" style="stroke:#038048;stroke-width:1;"/><text fill="#000000" font-family="sans-serif" font-size="14" lengthAdjust="spacing" textLength="190.6406" x="42" y="435.1113">bool PrepareDataConsumers()</text><ellipse cx="33" cy="448.4922" fill="#84BE84" rx="3" ry="3" style="stroke:#038048;stroke-width:1;"/><text fill="#000000" font-family="sans-serif" font-size="14" lengthAdjust="spacing" textLength="129.1582" x="42" y="452.7207">void RunUntilBreak()</text><ellipse cx="33" cy="466.1016" fill="#84BE84" rx="3" ry="3" style="stroke:#038048;stroke-width:1;"/><text fill="#000000" font-family="sans-serif" font-size="14" font-style="italic" lengthAdjust="spacing" textLength="175.8613" x="42" y="470.3301">void WriteSpeed(float value)</text><ellipse cx="33" cy="483.7109" fill="#84BE84" rx="3" ry="3" style="stroke:#038048;stroke-width:1;"/><text fill="#000000" font-family="sans-serif" font-size="14" font-style="italic" lengthAdjust="spacing" textLength="164.2129" x="42" y="487.9395">void SetSpeed(float value)</text><ellipse cx="33" cy="501.3203" fill="#84BE84" rx="3" ry="3" style="stroke:#038048;stroke-width:1;"/><text fill="#000000" font-family="sans-serif" font-size="14" lengthAdjust="spacing" textLength="121.3857" x="42" y="505.5488">void ResetSignals()</text><rect fill="#F24D5C" height="6" style="stroke:#C82930;stroke-width:1;" width="6" x="30" y="515.9297"/><text fill="#000000" font-family="sans-serif" font-size="14" lengthAdjust="spacing" textLength="234.2402" x="42" y="523.1582">void CallbackSpeed(sdv::any_t value)</text><rect fill="#F24D5C" height="6" style="stroke:#C82930;stroke-width:1;" width="6" x="30" y="533.5391"/><text fill="#000000" font-family="sans-serif" font-size="14" lengthAdjust="spacing" textLength="80.917" x="42" y="540.7676">bool KeyHit()</text><rect fill="#F24D5C" height="6" style="stroke:#C82930;stroke-width:1;" width="6" x="30" y="551.1484"/><text fill="#000000" font-family="sans-serif" font-size="14" lengthAdjust="spacing" textLength="93.3584" x="42" y="558.377">char GetChar()</text><rect fill="#F24D5C" height="6" style="stroke:#C82930;stroke-width:1;" width="6" x="30" y="568.7578"/><text fill="#000000" font-family="sans-serif" font-size="14" lengthAdjust="spacing" textLength="224.0889" x="42" y="575.9863">SConsolePos GetCursorPos() const</text><rect fill="#F24D5C" height="6" style="stroke:#C82930;stroke-width:1;" width="6" x="30" y="586.3672"/><text fill="#000000" font-family="sans-serif" font-size="14" lengthAdjust="spacing" textLength="245.8818" x="42" y="593.5957">void SetCursorPos(SConsolePos sPos)</text><rect fill="#F24D5C" height="6" style="stroke:#C82930;stroke-width:1;" width="6" x="30" y="603.9766"/><text fill="#000000" font-family="sans-serif" font-size="14" lengthAdjust="spacing" textLength="379.6885" x="42" y="611.2051">void PrintText(SConsolePos sPos, const std::string&amp; rssText)</text><rect fill="#F24D5C" height="6" style="stroke:#C82930;stroke-width:1;" width="6" x="30" y="621.5859"/><text fill="#000000" font-family="sans-serif" font-size="14" lengthAdjust="spacing" textLength="671.5078" x="42" y="628.8145">void PrintValue(SConsolePos sPos, const std::string&amp; rssName, TValue tValue, const std::string&amp; rssStatus)</text><rect fill="#F24D5C" height="6" style="stroke:#C82930;stroke-width:1;" width="6" x="30" y="639.1953"/><text fill="#000000" font-family="sans-serif" font-size="14" lengthAdjust="spacing" textLength="459.9082" x="42" y="646.4238">std::string AlignString(const std::string&amp; message, uint32_t desiredLength)</text><rect fill="#F24D5C" height="6" style="stroke:#C82930;stroke-width:1;" width="6" x="30" y="656.8047"/><text fill="#000000" font-family="sans-serif" font-size="14" lengthAdjust="spacing" textLength="715.8662" x="42" y="664.0332">&#171;inline&#187; void PrintValue(SConsolePos sPos, const std::string&amp; rssName, TValue tValue, const std::string&amp; rssUnits)</text><rect fill="#F24D5C" height="6" style="stroke:#C82930;stroke-width:1;" width="6" x="30" y="674.4141"/><text fill="#000000" font-family="sans-serif" font-size="14" lengthAdjust="spacing" textLength="752.4863" x="42" y="681.6426">&#171;inline&#187; void PrintValue&lt;bool&gt;(SConsolePos sPos, const std::string&amp; rssName, bool bValue, const std::string&amp; rssStatus)</text></g><!--class IVSS_WriteSpeed_Event--><g class="entity" data-entity="IVSS_WriteSpeed_Event" data-source-line="54" data-uid="ent0005" id="entity_IVSS_WriteSpeed_Event"><rect fill="#F1F1F1" height="65.6094" rx="2.5" ry="2.5" style="stroke:#181818;stroke-width:0.5;" width="188.4199" x="181" y="879"/><ellipse cx="196" cy="895" fill="#B4A7E5" rx="11" ry="11" style="stroke:#181818;stroke-width:1;"/><path d="M196.9531,891.6406 L196.9531,898.2969 L198.6719,898.2969 Q199.2813,898.2969 199.5469,898.5313 Q199.8125,898.7656 199.8125,899.1563 Q199.8125,899.5313 199.5469,899.7656 Q199.2813,900 198.6719,900 L193.5313,900 Q192.9219,900 192.6563,899.7656 Q192.3906,899.5313 192.3906,899.1406 Q192.3906,898.7656 192.6563,898.5313 Q192.9219,898.2969 193.5313,898.2969 L195.25,898.2969 L195.25,891.6406 L193.5313,891.6406 Q192.9219,891.6406 192.6563,891.4063 Q192.3906,891.1719 192.3906,890.7813 Q192.3906,890.4063 192.6563,890.1719 Q192.9219,889.9375 193.5313,889.9375 L198.6719,889.9375 Q199.2813,889.9375 199.5469,890.1719 Q199.8125,890.4063 199.8125,890.7813 Q199.8125,891.1719 199.5469,891.4063 Q199.2813,891.6406 198.6719,891.6406 L196.9531,891.6406 Z " fill="#000000"/><text fill="#000000" font-family="sans-serif" font-size="14" font-style="italic" lengthAdjust="spacing" textLength="156.4199" x="210" y="900.7285">IVSS_WriteSpeed_Event</text><line style="stroke:#181818;stroke-width:0.5;" x1="182" x2="368.4199" y1="911" y2="911"/><line style="stroke:#181818;stroke-width:0.5;" x1="182" x2="368.4199" y1="919" y2="919"/><text fill="#000000" font-family="sans-serif" font-size="14" font-style="italic" lengthAdjust="spacing" textLength="175.8613" x="187" y="937.5332">void WriteSpeed(float value)</text></g><!--class IVSS_SetSpeed_Event--><g class="entity" data-entity="IVSS_SetSpeed_Event" data-source-line="59" data-uid="ent0009" id="entity_IVSS_SetSpeed_Event"><rect fill="#F1F1F1" height="65.6094" rx="2.5" ry="2.5" style="stroke:#181818;stroke-width:0.5;" width="176.7715" x="425.5" y="879"/><ellipse cx="440.5" cy="895" fill="#B4A7E5" rx="11" ry="11" style="stroke:#181818;stroke-width:1;"/><path d="M441.4531,891.6406 L441.4531,898.2969 L443.1719,898.2969 Q443.7813,898.2969 444.0469,898.5313 Q444.3125,898.7656 444.3125,899.1563 Q444.3125,899.5313 444.0469,899.7656 Q443.7813,900 443.1719,900 L438.0313,900 Q437.4219,900 437.1563,899.7656 Q436.8906,899.5313 436.8906,899.1406 Q436.8906,898.7656 437.1563,898.5313 Q437.4219,898.2969 438.0313,898.2969 L439.75,898.2969 L439.75,891.6406 L438.0313,891.6406 Q437.4219,891.6406 437.1563,891.4063 Q436.8906,891.1719 436.8906,890.7813 Q436.8906,890.4063 437.1563,890.1719 Q437.4219,889.9375 438.0313,889.9375 L443.1719,889.9375 Q443.7813,889.9375 444.0469,890.1719 Q444.3125,890.4063 444.3125,890.7813 Q444.3125,891.1719 444.0469,891.4063 Q443.7813,891.6406 443.1719,891.6406 L441.4531,891.6406 Z " fill="#000000"/><text fill="#000000" font-family="sans-serif" font-size="14" font-style="italic" lengthAdjust="spacing" textLength="144.7715" x="454.5" y="900.7285">IVSS_SetSpeed_Event</text><line style="stroke:#181818;stroke-width:0.5;" x1="426.5" x2="601.2715" y1="911" y2="911"/><line style="stroke:#181818;stroke-width:0.5;" x1="426.5" x2="601.2715" y1="919" y2="919"/><text fill="#000000" font-family="sans-serif" font-size="14" font-style="italic" lengthAdjust="spacing" textLength="164.2129" x="431.5" y="937.5332">void SetSpeed(float value)</text></g><!--link CConsole to IVSS_WriteSpeed_Event--><g class="link" data-entity-1="CConsole" data-entity-2="IVSS_WriteSpeed_Event" data-source-line="64" data-uid="lnk11" id="link_CConsole_IVSS_WriteSpeed_Event"><path codeLine="64" d="M330.41,689.14 C311,766.88 297.3636,821.4669 287.4136,861.2869" fill="none" id="CConsole-to-IVSS_WriteSpeed_Event" style="stroke:#181818;stroke-width:1;stroke-dasharray:7,7;"/><polygon fill="none" points="283.05,878.75,293.2346,862.7414,281.5926,859.8324,283.05,878.75" style="stroke:#181818;stroke-width:1;"/><text fill="#000000" font-family="sans-serif" font-size="13" lengthAdjust="spacing" textLength="67.1899" x="321" y="735.4951">Implements</text></g><!--link CConsole to IVSS_SetSpeed_Event--><g class="link" data-entity-1="CConsole" data-entity-2="IVSS_SetSpeed_Event" data-source-line="65" data-uid="lnk12" id="link_CConsole_IVSS_SetSpeed_Event"><path codeLine="65" d="M472.03,689.14 C486.74,766.88 497.0255,821.2435 504.5555,861.0635" fill="none" id="CConsole-to-IVSS_SetSpeed_Event" style="stroke:#181818;stroke-width:1;stroke-dasharray:7,7;"/><polygon fill="none" points="507.9,878.75,510.451,859.9486,498.6599,862.1783,507.9,878.75" style="stroke:#181818;stroke-width:1;"/><text fill="#000000" font-family="sans-serif" font-size="13" lengthAdjust="spacing" textLength="67.1899" x="481" y="735.4951">Implements</text></g><!--SRC=[lLN1Kjim4BtdApGSEg453ktDPJ832HGFK1WCuPXHv2NHH9OyqZe9fVdthYqxTeB3X4jzIEnzJxkhtQSLSu3CGSejHsDP47HOoiMCJu0TFDfCpzXPcYefE4gZ6In1PCZ72WuwxAt361EAEyVw1RLlD5gZSdE1qVDjR8nYePOekP9_e9j9ZJ- -Zv1bCjGEkHPmM77dHiOi0dp8j9PwScjYw6w1qmnZiz1hyx7txwB1yDBo11R6pYxqN5gZ4z18phQeDuR7bEUBd5nA1LrXA0dcC0u2XvQ2Vc5IfndUkiaHQm75UkblYhPsxU9v4F0q3O8-bQki0qj6P19rKTP99ADnNP8uXrQTHZ5flJCADkf82MG2MLHYzyQLICMWfr7R1xDejVVNcQn-RbJsdlQ7Ly1Zi1_sgCZ_tkQ2WG57dkUJ9M3TLgUeXqyQfJgtm6SrziR7j1CkSCKAshEL254A47TVbE78vbnbi9DE_TnDzd6111t9YUQgJkcuWFfSgJ5fstlmBTEleoqtlaFNy7eb6zeHKsxPBy0-_TVMHZSACBFEMFhe7dhjR8IFceJcIaS_cvaMpNY49RxZjOhIEfUJMtmCyvtjxIINz15xB1OnltONDKAEMPrr0sPdYgeV5Uzjnoi1vsYw7DMgZC592_4Dw0bErouJFsVyOlg09HsR19U-DgPnHfh7gXmT7pjfTr48GXWBT8YzW8ZhNmh5L3mlFO9ou-2crJmSj9hFetMBd0k28KobK1JltCIlGL3Cq0ZiN0goXSCe6f5cxbBGNyb1wk6vg5o4XU5QOhca88Nb84vI1SiIg1OCdkyU1aIA5-NExsZEqOpTYOUw2PSJ2C4caeIKZ4XqDZb3j6-hYaDr9K3cyz4hf09EJwLMKaEln_w3EfzekDRYt1txD9TDxvCP558RxtiwyjBuuHvgAjqB5y0sc-zr18skrqDnT36dMwnv4NnYWEuHzftQzeowSmxxcDKDnavE_lO-lLqMi33NRtw1kxtSVRID3M__0000]--></g></svg>