<svg xmlns="http://www.w3.org/2000/svg" xmlns:xlink="http://www.w3.org/1999/xlink" contentStyleType="text/css" data-diagram-type="CLASS" height="777px" preserveAspectRatio="none" style="width:1370px;height:777px;background:#FFFFFF;" version="1.1" viewBox="0 0 1370 777" width="1370px" zoomAndPan="magnify"><defs/><g><!--cluster sdv--><g class="cluster" data-entity="sdv" data-source-line="16" data-uid="ent0004" id="cluster_sdv"><path d="M8.5,497.5 L33.624,497.5 A3.75,3.75 0 0 1 36.124,500 L43.124,521.1094 L449.5,521.1094 A2.5,2.5 0 0 1 452,523.6094 L452,665 A2.5,2.5 0 0 1 449.5,667.5 L8.5,667.5 A2.5,2.5 0 0 1 6,665 L6,500 A2.5,2.5 0 0 1 8.5,497.5" fill="none" style="stroke:#000000;stroke-width:1.5;"/><line style="stroke:#000000;stroke-width:1.5;" x1="6" x2="43.124" y1="521.1094" y2="521.1094"/><text fill="#000000" font-family="sans-serif" font-size="14" font-weight="bold" lengthAdjust="spacing" textLength="24.124" x="10" y="514.0332">sdv</text></g><!--cluster vss--><g class="cluster" data-entity="vss" data-source-line="24" data-uid="ent0006" id="cluster_vss"><path d="M478.5,295 L502.8584,295 A3.75,3.75 0 0 1 505.3584,297.5 L512.3584,318.6094 L1360.5,318.6094 A2.5,2.5 0 0 1 1363,321.1094 L1363,767.5 A2.5,2.5 0 0 1 1360.5,770 L478.5,770 A2.5,2.5 0 0 1 476,767.5 L476,297.5 A2.5,2.5 0 0 1 478.5,295" fill="none" style="stroke:#000000;stroke-width:1.5;"/><line style="stroke:#000000;stroke-width:1.5;" x1="476" x2="512.3584" y1="318.6094" y2="318.6094"/><text fill="#000000" font-family="sans-serif" font-size="14" font-weight="bold" lengthAdjust="spacing" textLength="23.3584" x="480" y="311.5332">vss</text></g><!--cluster Vehicle--><g class="cluster" data-entity="Vehicle" data-source-line="24" data-uid="ent0007" id="cluster_Vehicle"><path d="M502.5,339 L552.5273,339 A3.75,3.75 0 0 1 555.0273,341.5 L562.0273,362.6094 L1336.5,362.6094 A2.5,2.5 0 0 1 1339,365.1094 L1339,743.5 A2.5,2.5 0 0 1 1336.5,746 L502.5,746 A2.5,2.5 0 0 1 500,743.5 L500,341.5 A2.5,2.5 0 0 1 502.5,339" fill="none" style="stroke:#000000;stroke-width:1.5;"/><line style="stroke:#000000;stroke-width:1.5;" x1="500" x2="562.0273" y1="362.6094" y2="362.6094"/><text fill="#000000" font-family="sans-serif" font-size="14" font-weight="bold" lengthAdjust="spacing" textLength="49.0273" x="504" y="355.5332">Vehicle</text></g><!--cluster Chassis--><g class="cluster" data-entity="Chassis" data-source-line="24" data-uid="ent0008" id="cluster_Chassis"><path d="M526.5,383 L581.1963,383 A3.75,3.75 0 0 1 583.6963,385.5 L590.6963,406.6094 L1312.5,406.6094 A2.5,2.5 0 0 1 1315,409.1094 L1315,719.5 A2.5,2.5 0 0 1 1312.5,722 L526.5,722 A2.5,2.5 0 0 1 524,719.5 L524,385.5 A2.5,2.5 0 0 1 526.5,383" fill="none" style="stroke:#000000;stroke-width:1.5;"/><line style="stroke:#000000;stroke-width:1.5;" x1="524" x2="590.6963" y1="406.6094" y2="406.6094"/><text fill="#000000" font-family="sans-serif" font-size="14" font-weight="bold" lengthAdjust="spacing" textLength="53.6963" x="528" y="399.5332">Chassis</text></g><!--cluster Door--><g class="cluster" data-entity="Door" data-source-line="24" data-uid="ent0009" id="cluster_Door"><path d="M550.5,427 L584.1621,427 A3.75,3.75 0 0 1 586.6621,429.5 L593.6621,450.6094 L1288.5,450.6094 A2.5,2.5 0 0 1 1291,453.1094 L1291,695.5 A2.5,2.5 0 0 1 1288.5,698 L550.5,698 A2.5,2.5 0 0 1 548,695.5 L548,429.5 A2.5,2.5 0 0 1 550.5,427" fill="none" style="stroke:#000000;stroke-width:1.5;"/><line style="stroke:#000000;stroke-width:1.5;" x1="548" x2="593.6621" y1="450.6094" y2="450.6094"/><text fill="#000000" font-family="sans-serif" font-size="14" font-weight="bold" lengthAdjust="spacing" textLength="32.6621" x="552" y="443.5332">Door</text></g><!--cluster Axle02--><g class="cluster" data-entity="Axle02" data-source-line="24" data-uid="ent0010" id="cluster_Axle02"><path d="M574.5,471 L620.6445,471 A3.75,3.75 0 0 1 623.1445,473.5 L630.1445,494.6094 L1264.5,494.6094 A2.5,2.5 0 0 1 1267,497.1094 L1267,671.5 A2.5,2.5 0 0 1 1264.5,674 L574.5,674 A2.5,2.5 0 0 1 572,671.5 L572,473.5 A2.5,2.5 0 0 1 574.5,471" fill="none" style="stroke:#000000;stroke-width:1.5;"/><line style="stroke:#000000;stroke-width:1.5;" x1="572" x2="630.1445" y1="494.6094" y2="494.6094"/><text fill="#000000" font-family="sans-serif" font-size="14" font-weight="bold" lengthAdjust="spacing" textLength="45.1445" x="576" y="487.5332">Axle02</text></g><!--cluster LeftDevice--><g class="cluster" data-entity="LeftDevice" data-source-line="24" data-uid="ent0011" id="cluster_LeftDevice"><path d="M598.5,515 L670.3066,515 A3.75,3.75 0 0 1 672.8066,517.5 L679.8066,538.6094 L1240.5,538.6094 A2.5,2.5 0 0 1 1243,541.1094 L1243,647.5 A2.5,2.5 0 0 1 1240.5,650 L598.5,650 A2.5,2.5 0 0 1 596,647.5 L596,517.5 A2.5,2.5 0 0 1 598.5,515" fill="none" style="stroke:#000000;stroke-width:1.5;"/><line style="stroke:#000000;stroke-width:1.5;" x1="596" x2="679.8066" y1="538.6094" y2="538.6094"/><text fill="#000000" font-family="sans-serif" font-size="14" font-weight="bold" lengthAdjust="spacing" textLength="70.8066" x="600" y="531.5332">LeftDevice</text></g><!--class CSdvObject--><g class="entity" data-entity="CSdvObject" data-source-line="16" data-uid="ent0003" id="entity_CSdvObject"><rect fill="#F1F1F1" height="118.4375" rx="2.5" ry="2.5" style="stroke:#181818;stroke-width:0.5;" width="412.7705" x="22.5" y="533.5"/><ellipse cx="187.2871" cy="549.5" fill="#ADD1B2" rx="11" ry="11" style="stroke:#181818;stroke-width:1;"/><path d="M190.0527,545.375 Q190.209,545.1563 190.3965,545.0469 Q190.584,544.9375 190.8027,544.9375 Q191.1777,544.9375 191.4121,545.1953 Q191.6465,545.4531 191.6465,546.0625 L191.6465,547.5156 Q191.6465,548.125 191.4121,548.3906 Q191.1777,548.6563 190.8027,548.6563 Q190.459,548.6563 190.2559,548.4531 Q190.0527,548.2656 189.9434,547.75 Q189.8965,547.3906 189.709,547.2031 Q189.3809,546.8281 188.7715,546.6094 Q188.1621,546.3906 187.5371,546.3906 Q186.7715,546.3906 186.1387,546.7188 Q185.5059,547.0469 185.0137,547.7969 Q184.5215,548.5469 184.5215,549.5781 L184.5215,550.6719 Q184.5215,551.9063 185.4121,552.7266 Q186.3027,553.5469 187.8965,553.5469 Q188.834,553.5469 189.4902,553.2969 Q189.8809,553.1406 190.3027,552.7031 Q190.5684,552.4375 190.7168,552.3594 Q190.8652,552.2813 191.0684,552.2813 Q191.3965,552.2813 191.6543,552.5391 Q191.9121,552.7969 191.9121,553.1406 Q191.9121,553.4844 191.5684,553.8906 Q191.0684,554.4688 190.2715,554.7969 Q189.1934,555.25 187.8965,555.25 Q186.3809,555.25 185.1777,554.625 Q184.1934,554.125 183.5059,553.0547 Q182.8184,551.9844 182.8184,550.7031 L182.8184,549.5469 Q182.8184,548.2188 183.4355,547.0703 Q184.0527,545.9219 185.1465,545.3047 Q186.2402,544.6875 187.4746,544.6875 Q188.209,544.6875 188.8574,544.8516 Q189.5059,545.0156 190.0527,545.375 Z " fill="#000000"/><text fill="#000000" font-family="sans-serif" font-size="14" lengthAdjust="spacing" textLength="74.6963" x="207.7871" y="555.2285">CSdvObject</text><line style="stroke:#181818;stroke-width:0.5;" x1="23.5" x2="434.2705" y1="565.5" y2="565.5"/><line style="stroke:#181818;stroke-width:0.5;" x1="23.5" x2="434.2705" y1="573.5" y2="573.5"/><ellipse cx="33.5" cy="587.8047" fill="#84BE84" rx="3" ry="3" style="stroke:#038048;stroke-width:1;"/><text fill="#000000" font-family="sans-serif" font-size="14" lengthAdjust="spacing" text-decoration="underline" textLength="336.9365" x="42.5" y="592.0332">sdv::sequence&lt;sdv::u8string&gt; GetClassAliasesStatic()</text><ellipse cx="33.5" cy="605.4141" fill="#84BE84" rx="3" ry="3" style="stroke:#038048;stroke-width:1;"/><text fill="#000000" font-family="sans-serif" font-size="14" lengthAdjust="spacing" text-decoration="underline" textLength="272.3301" x="42.5" y="609.6426">sdv::u8string GetDefaultObjectNameStatic()</text><ellipse cx="33.5" cy="623.0234" fill="#84BE84" rx="3" ry="3" style="stroke:#038048;stroke-width:1;"/><text fill="#000000" font-family="sans-serif" font-size="14" lengthAdjust="spacing" text-decoration="underline" textLength="143.9648" x="42.5" y="627.252">bool IsSingletonStatic()</text><ellipse cx="33.5" cy="640.6328" fill="#84BE84" rx="3" ry="3" style="stroke:#038048;stroke-width:1;"/><text fill="#000000" font-family="sans-serif" font-size="14" lengthAdjust="spacing" text-decoration="underline" textLength="386.7705" x="42.5" y="644.8613">sdv::sequence&lt;sdv::u8string&gt; GetObjectDependenciesStatic()</text></g><!--class IVSS_IsOpen--><g class="entity" data-entity="IVSS_IsOpen" data-source-line="24" data-uid="ent0005" id="entity_IVSS_IsOpen"><rect fill="#F1F1F1" height="83.2188" rx="2.5" ry="2.5" style="stroke:#181818;stroke-width:0.5;" width="401.0742" x="612.5" y="551"/><ellipse cx="766.3735" cy="567" fill="#B4A7E5" rx="11" ry="11" style="stroke:#181818;stroke-width:1;"/><path d="M767.3267,563.6406 L767.3267,570.2969 L769.0454,570.2969 Q769.6548,570.2969 769.9204,570.5313 Q770.186,570.7656 770.186,571.1563 Q770.186,571.5313 769.9204,571.7656 Q769.6548,572 769.0454,572 L763.9048,572 Q763.2954,572 763.0298,571.7656 Q762.7642,571.5313 762.7642,571.1406 Q762.7642,570.7656 763.0298,570.5313 Q763.2954,570.2969 763.9048,570.2969 L765.6235,570.2969 L765.6235,563.6406 L763.9048,563.6406 Q763.2954,563.6406 763.0298,563.4063 Q762.7642,563.1719 762.7642,562.7813 Q762.7642,562.4063 763.0298,562.1719 Q763.2954,561.9375 763.9048,561.9375 L769.0454,561.9375 Q769.6548,561.9375 769.9204,562.1719 Q770.186,562.4063 770.186,562.7813 Q770.186,563.1719 769.9204,563.4063 Q769.6548,563.6406 769.0454,563.6406 L767.3267,563.6406 Z " fill="#000000"/><text fill="#000000" font-family="sans-serif" font-size="14" font-style="italic" lengthAdjust="spacing" textLength="84.8271" x="786.8735" y="572.7285">IVSS_IsOpen</text><line style="stroke:#181818;stroke-width:0.5;" x1="613.5" x2="1012.5742" y1="583" y2="583"/><line style="stroke:#181818;stroke-width:0.5;" x1="613.5" x2="1012.5742" y1="591" y2="591"/><text fill="#000000" font-family="sans-serif" font-size="14" font-style="italic" lengthAdjust="spacing" textLength="376.626" x="618.5" y="609.5332">void RegisterIsOpenEvent(IVSS_WriteIsOpen_Event* event)</text><text fill="#000000" font-family="sans-serif" font-size="14" font-style="italic" lengthAdjust="spacing" textLength="389.0742" x="618.5" y="627.1426">void UnregisterIsOpenEvent(IVSS_WriteIsOpen_Event* event)</text></g><!--class IVSS_WriteLock--><g class="entity" data-entity="IVSS_WriteLock" data-source-line="30" data-uid="ent0012" id="entity_IVSS_WriteLock"><rect fill="#F1F1F1" height="65.6094" rx="2.5" ry="2.5" style="stroke:#181818;stroke-width:0.5;" width="177.7441" x="1049" y="559.5"/><ellipse cx="1083.7191" cy="575.5" fill="#B4A7E5" rx="11" ry="11" style="stroke:#181818;stroke-width:1;"/><path d="M1084.6723,572.1406 L1084.6723,578.7969 L1086.391,578.7969 Q1087.0004,578.7969 1087.266,579.0313 Q1087.5316,579.2656 1087.5316,579.6563 Q1087.5316,580.0313 1087.266,580.2656 Q1087.0004,580.5 1086.391,580.5 L1081.2504,580.5 Q1080.641,580.5 1080.3754,580.2656 Q1080.1098,580.0313 1080.1098,579.6406 Q1080.1098,579.2656 1080.3754,579.0313 Q1080.641,578.7969 1081.2504,578.7969 L1082.9691,578.7969 L1082.9691,572.1406 L1081.2504,572.1406 Q1080.641,572.1406 1080.3754,571.9063 Q1080.1098,571.6719 1080.1098,571.2813 Q1080.1098,570.9063 1080.3754,570.6719 Q1080.641,570.4375 1081.2504,570.4375 L1086.391,570.4375 Q1087.0004,570.4375 1087.266,570.6719 Q1087.5316,570.9063 1087.5316,571.2813 Q1087.5316,571.6719 1087.266,571.9063 Q1087.0004,572.1406 1086.391,572.1406 L1084.6723,572.1406 Z " fill="#000000"/><text fill="#000000" font-family="sans-serif" font-size="14" font-style="italic" lengthAdjust="spacing" textLength="101.9238" x="1102.1012" y="581.2285">IVSS_WriteLock</text><line style="stroke:#181818;stroke-width:0.5;" x1="1050" x2="1225.7441" y1="591.5" y2="591.5"/><line style="stroke:#181818;stroke-width:0.5;" x1="1050" x2="1225.7441" y1="599.5" y2="599.5"/><text fill="#000000" font-family="sans-serif" font-size="14" font-style="italic" lengthAdjust="spacing" textLength="165.7441" x="1055" y="618.0332">bool WriteLock(bool value)</text></g><!--class CVehicleDeviceRearDoorLeft--><g class="entity" data-entity="CVehicleDeviceRearDoorLeft" data-source-line="2" data-uid="ent0002" id="entity_CVehicleDeviceRearDoorLeft"><rect fill="#F1F1F1" height="224.0938" rx="2.5" ry="2.5" style="stroke:#181818;stroke-width:0.5;" width="750.4453" x="438" y="7"/><ellipse cx="717.542" cy="23" fill="#ADD1B2" rx="11" ry="11" style="stroke:#181818;stroke-width:1;"/><path d="M720.3076,18.875 Q720.4639,18.6563 720.6514,18.5469 Q720.8389,18.4375 721.0576,18.4375 Q721.4326,18.4375 721.667,18.6953 Q721.9014,18.9531 721.9014,19.5625 L721.9014,21.0156 Q721.9014,21.625 721.667,21.8906 Q721.4326,22.1563 721.0576,22.1563 Q720.7139,22.1563 720.5107,21.9531 Q720.3076,21.7656 720.1982,21.25 Q720.1514,20.8906 719.9639,20.7031 Q719.6357,20.3281 719.0264,20.1094 Q718.417,19.8906 717.792,19.8906 Q717.0264,19.8906 716.3936,20.2188 Q715.7607,20.5469 715.2686,21.2969 Q714.7764,22.0469 714.7764,23.0781 L714.7764,24.1719 Q714.7764,25.4063 715.667,26.2266 Q716.5576,27.0469 718.1514,27.0469 Q719.0889,27.0469 719.7451,26.7969 Q720.1357,26.6406 720.5576,26.2031 Q720.8232,25.9375 720.9717,25.8594 Q721.1201,25.7813 721.3232,25.7813 Q721.6514,25.7813 721.9092,26.0391 Q722.167,26.2969 722.167,26.6406 Q722.167,26.9844 721.8232,27.3906 Q721.3232,27.9688 720.5264,28.2969 Q719.4482,28.75 718.1514,28.75 Q716.6357,28.75 715.4326,28.125 Q714.4482,27.625 713.7607,26.5547 Q713.0732,25.4844 713.0732,24.2031 L713.0732,23.0469 Q713.0732,21.7188 713.6904,20.5703 Q714.3076,19.4219 715.4014,18.8047 Q716.4951,18.1875 717.7295,18.1875 Q718.4639,18.1875 719.1123,18.3516 Q719.7607,18.5156 720.3076,18.875 Z " fill="#000000"/><text fill="#000000" font-family="sans-serif" font-size="14" lengthAdjust="spacing" textLength="182.8613" x="738.042" y="28.7285">CVehicleDeviceRearDoorLeft</text><line style="stroke:#181818;stroke-width:0.5;" x1="439" x2="1187.4453" y1="39" y2="39"/><rect fill="none" height="6" style="stroke:#C82930;stroke-width:1;" width="6" x="446" y="50.3047"/><text fill="#000000" font-family="sans-serif" font-size="14" lengthAdjust="spacing" textLength="205.4404" x="458" y="57.5332">sdv::core::CSignal m_leftLatch02</text><rect fill="none" height="6" style="stroke:#C82930;stroke-width:1;" width="6" x="446" y="67.9141"/><text fill="#000000" font-family="sans-serif" font-size="14" lengthAdjust="spacing" textLength="285.5918" x="458" y="75.1426">sdv::core::CSignal m_leftDoorIsOpen02Signal</text><rect fill="none" height="6" style="stroke:#C82930;stroke-width:1;" width="6" x="446" y="85.5234"/><text fill="#000000" font-family="sans-serif" font-size="14" lengthAdjust="spacing" textLength="350.1572" x="458" y="92.752">mutable std::mutex m_leftDoorIsOpen02MutexCallbacks</text><rect fill="none" height="6" style="stroke:#C82930;stroke-width:1;" width="6" x="446" y="103.1328"/><text fill="#000000" font-family="sans-serif" font-size="14" lengthAdjust="spacing" textLength="724.4453" x="458" y="110.3613">std::set&lt;vss::Vehicle::Chassis::Door::Axle02::LeftDevice::IVSS_WriteIsOpen_Event*&gt; m_leftDoorIsOpen02Callbacks</text><line style="stroke:#181818;stroke-width:0.5;" x1="439" x2="1187.4453" y1="117.4375" y2="117.4375"/><ellipse cx="449" cy="131.7422" fill="#84BE84" rx="3" ry="3" style="stroke:#038048;stroke-width:1;"/><text fill="#000000" font-family="sans-serif" font-size="14" font-style="italic" lengthAdjust="spacing" textLength="108.9375" x="458" y="135.9707">bool OnInitialize()</text><ellipse cx="449" cy="149.3516" fill="#84BE84" rx="3" ry="3" style="stroke:#038048;stroke-width:1;"/><text fill="#000000" font-family="sans-serif" font-size="14" font-style="italic" lengthAdjust="spacing" textLength="101.165" x="458" y="153.5801">void Shutdown()</text><ellipse cx="449" cy="166.9609" fill="#84BE84" rx="3" ry="3" style="stroke:#038048;stroke-width:1;"/><text fill="#000000" font-family="sans-serif" font-size="14" font-style="italic" lengthAdjust="spacing" textLength="165.7441" x="458" y="171.1895">bool WriteLock(bool value)</text><ellipse cx="449" cy="184.5703" fill="#84BE84" rx="3" ry="3" style="stroke:#038048;stroke-width:1;"/><text fill="#000000" font-family="sans-serif" font-size="14" font-style="italic" lengthAdjust="spacing" textLength="679.3076" x="458" y="188.7988">void RegisterIsOpenEvent(vss::Vehicle::Chassis::Door::Axle02::LeftDevice::IVSS_WriteIsOpen_Event* event)</text><ellipse cx="449" cy="202.1797" fill="#84BE84" rx="3" ry="3" style="stroke:#038048;stroke-width:1;"/><text fill="#000000" font-family="sans-serif" font-size="14" font-style="italic" lengthAdjust="spacing" textLength="691.7559" x="458" y="206.4082">void UnregisterIsOpenEvent(vss::Vehicle::Chassis::Door::Axle02::LeftDevice::IVSS_WriteIsOpen_Event* event)</text><rect fill="#F24D5C" height="6" style="stroke:#C82930;stroke-width:1;" width="6" x="446" y="216.7891"/><text fill="#000000" font-family="sans-serif" font-size="14" lengthAdjust="spacing" textLength="403.8604" x="458" y="224.0176">void ExecuteAllCallBacksForLeftDoorIsOpen02(sdv::any_t value)</text></g><!--link CVehicleDeviceRearDoorLeft to CSdvObject--><g class="link" data-entity-1="CVehicleDeviceRearDoorLeft" data-entity-2="CSdvObject" data-source-line="35" data-uid="lnk13" id="link_CVehicleDeviceRearDoorLeft_CSdvObject"><path codeLine="35" d="M667.1,231.11 C643.23,249.63 618.84,268.75 596,287 C490.58,371.25 384.374,460.0485 311.124,521.8885" fill="none" id="CVehicleDeviceRearDoorLeft-to-CSdvObject" style="stroke:#181818;stroke-width:1;"/><polygon fill="none" points="297.37,533.5,314.9945,526.4731,307.2535,517.3038,297.37,533.5" style="stroke:#181818;stroke-width:1;"/><text fill="#000000" font-family="sans-serif" font-size="13" lengthAdjust="spacing" textLength="42.6309" x="626" y="275.4951">Inherits</text></g><!--link CVehicleDeviceRearDoorLeft to IVSS_IsOpen--><g class="link" data-entity-1="CVehicleDeviceRearDoorLeft" data-entity-2="IVSS_IsOpen" data-source-line="36" data-uid="lnk14" id="link_CVehicleDeviceRearDoorLeft_IVSS_IsOpen"><path codeLine="36" d="M813,231.14 C813,333.78 813,462.65 813,532.96" fill="none" id="CVehicleDeviceRearDoorLeft-to-IVSS_IsOpen" style="stroke:#181818;stroke-width:1;stroke-dasharray:7,7;"/><polygon fill="none" points="813,550.96,819,532.96,807,532.96,813,550.96" style="stroke:#181818;stroke-width:1;"/><text fill="#000000" font-family="sans-serif" font-size="13" lengthAdjust="spacing" textLength="67.1899" x="814" y="275.4951">Implements</text></g><!--link CVehicleDeviceRearDoorLeft to IVSS_WriteLock--><g class="link" data-entity-1="CVehicleDeviceRearDoorLeft" data-entity-2="IVSS_WriteLock" data-source-line="37" data-uid="lnk15" id="link_CVehicleDeviceRearDoorLeft_IVSS_WriteLock"><path codeLine="37" d="M980.21,231.15 C998.98,248.31 1016.51,267.03 1031,287 C1093.84,373.64 1119.3103,482.7795 1129.8003,541.6095" fill="none" id="CVehicleDeviceRearDoorLeft-to-IVSS_WriteLock" style="stroke:#181818;stroke-width:1;stroke-dasharray:7,7;"/><polygon fill="none" points="1132.96,559.33,1135.7071,540.5563,1123.8934,542.6628,1132.96,559.33" style="stroke:#181818;stroke-width:1;"/><text fill="#000000" font-family="sans-serif" font-size="13" lengthAdjust="spacing" textLength="67.1899" x="1023" y="275.4951">Implements</text></g><!--SRC=[lLHTRzem57tFhxYFOHK8ihNhh0gj3MoZ8klKKFQ8Z7CBNXsRsKv6r_M_pquA6nMqrTQDXw1httFE_JGOj61mGJMrIWCX0G0mGOs1U8nppWJsiEGCpv7gdb9wY9VM-zpuZ_ljtT2fiPeoUmjJfGISoO7abbF1lsFOsE9LAfv1EYzifhx9hHuLpsVDBGuLkmehiwIYm9rqvpZZng8UcBC5odw9qeQbCOJSvK18F7SvSNVYao3aU2cm7H7YqwaJ96GmJjD99LlJJ2gU5u3-RwVqXTJ_JRnPAVQNo0gBnqB4L8WJogxCkxendhw6jwFGP2KXL5vFx6RncjK5Kze7blAPf0BoYN3m8RLiteuUzVjTfhvOGVB2qgb0C3OZn1cut099_BaFVUf3NwjvY9l6e-SgNNUBz8RgRV1hsAjSupGhpwPVa6rC-8snr79s2tkLay6l1Kg6HvLL7BfXu7BMXVTeOqzrB3WrQD8Aj1xlUoGhc4Vry98MmjR27scEEw7L8WnCwe02hP8FQpmGQAtLGrUJpBdmpN3hkWoa6-bBoX3-h25roJSA-OIbVT8QF6q57wTwdaJN3zMEN1z-pUeOTh-rq6p-wDuVJo0kwZawJlC8kjLowBzfe9VA5m9pLxH_ABQkZrFOL7phPhJ8HH1y4bJQYsG89Mh3bOHEAsf7-wqtOUAC51VGFeJEQx9_G5uUGjnFH-3l6q6O34PWLA5TYpFkrs1QM4VG24vfIU6ya9RdIC1RuIXfGDfV7K9VbbmhwMC9JiT9xGGVb4qNobRE1w-Q9zmwVUtYWd4ItEspWpALkOqZ42ywqNuK3AcS5NJcb38COkKKz3M1Nlyd]--></g></svg>