<svg xmlns="http://www.w3.org/2000/svg" xmlns:xlink="http://www.w3.org/1999/xlink" contentStyleType="text/css" data-diagram-type="CLASS" height="556px" preserveAspectRatio="none" style="width:1596px;height:556px;background:#FFFFFF;" version="1.1" viewBox="0 0 1596 556" width="1596px" zoomAndPan="magnify"><defs/><g><!--cluster vss--><g class="cluster" data-entity="vss" data-source-line="14" data-uid="ent0004" id="cluster_vss"><path d="M8.5,260 L32.8584,260 A3.75,3.75 0 0 1 35.3584,262.5 L42.3584,283.6094 L1116.5,283.6094 A2.5,2.5 0 0 1 1119,286.1094 L1119,546.5 A2.5,2.5 0 0 1 1116.5,549 L8.5,549 A2.5,2.5 0 0 1 6,546.5 L6,262.5 A2.5,2.5 0 0 1 8.5,260" fill="none" style="stroke:#000000;stroke-width:1.5;"/><line style="stroke:#000000;stroke-width:1.5;" x1="6" x2="42.3584" y1="283.6094" y2="283.6094"/><text fill="#000000" font-family="sans-serif" font-size="14" font-weight="bold" lengthAdjust="spacing" textLength="23.3584" x="10" y="276.5332">vss</text></g><!--cluster Vehicle--><g class="cluster" data-entity="Vehicle" data-source-line="14" data-uid="ent0005" id="cluster_Vehicle"><path d="M32.5,304 L82.5273,304 A3.75,3.75 0 0 1 85.0273,306.5 L92.0273,327.6094 L1092.5,327.6094 A2.5,2.5 0 0 1 1095,330.1094 L1095,522.5 A2.5,2.5 0 0 1 1092.5,525 L32.5,525 A2.5,2.5 0 0 1 30,522.5 L30,306.5 A2.5,2.5 0 0 1 32.5,304" fill="none" style="stroke:#000000;stroke-width:1.5;"/><line style="stroke:#000000;stroke-width:1.5;" x1="30" x2="92.0273" y1="327.6094" y2="327.6094"/><text fill="#000000" font-family="sans-serif" font-size="14" font-weight="bold" lengthAdjust="spacing" textLength="49.0273" x="34" y="320.5332">Vehicle</text></g><!--cluster SpeedService--><g class="cluster" data-entity="SpeedService" data-source-line="14" data-uid="ent0006" id="cluster_SpeedService"><path d="M56.5,348 L149.334,348 A3.75,3.75 0 0 1 151.834,350.5 L158.834,371.6094 L824.5,371.6094 A2.5,2.5 0 0 1 827,374.1094 L827,498.5 A2.5,2.5 0 0 1 824.5,501 L56.5,501 A2.5,2.5 0 0 1 54,498.5 L54,350.5 A2.5,2.5 0 0 1 56.5,348" fill="none" style="stroke:#000000;stroke-width:1.5;"/><line style="stroke:#000000;stroke-width:1.5;" x1="54" x2="158.834" y1="371.6094" y2="371.6094"/><text fill="#000000" font-family="sans-serif" font-size="14" font-weight="bold" lengthAdjust="spacing" textLength="91.834" x="58" y="364.5332">SpeedService</text></g><!--cluster SpeedDevice--><g class="cluster" data-entity="SpeedDevice" data-source-line="26" data-uid="ent0009" id="cluster_SpeedDevice"><path d="M853.5,365.5 L941.6582,365.5 A3.75,3.75 0 0 1 944.1582,368 L951.1582,389.1094 L1068.5,389.1094 A2.5,2.5 0 0 1 1071,391.6094 L1071,481 A2.5,2.5 0 0 1 1068.5,483.5 L853.5,483.5 A2.5,2.5 0 0 1 851,481 L851,368 A2.5,2.5 0 0 1 853.5,365.5" fill="none" style="stroke:#000000;stroke-width:1.5;"/><line style="stroke:#000000;stroke-width:1.5;" x1="851" x2="951.1582" y1="389.1094" y2="389.1094"/><text fill="#000000" font-family="sans-serif" font-size="14" font-weight="bold" lengthAdjust="spacing" textLength="87.1582" x="855" y="382.0332">SpeedDevice</text></g><!--cluster sdv--><g class="cluster" data-entity="sdv" data-source-line="31" data-uid="ent0011" id="cluster_sdv"><path d="M1145.5,339.5 L1170.624,339.5 A3.75,3.75 0 0 1 1173.124,342 L1180.124,363.1094 L1586.5,363.1094 A2.5,2.5 0 0 1 1589,365.6094 L1589,507 A2.5,2.5 0 0 1 1586.5,509.5 L1145.5,509.5 A2.5,2.5 0 0 1 1143,507 L1143,342 A2.5,2.5 0 0 1 1145.5,339.5" fill="none" style="stroke:#000000;stroke-width:1.5;"/><line style="stroke:#000000;stroke-width:1.5;" x1="1143" x2="1180.124" y1="363.1094" y2="363.1094"/><text fill="#000000" font-family="sans-serif" font-size="14" font-weight="bold" lengthAdjust="spacing" textLength="24.124" x="1147" y="356.0332">sdv</text></g><!--class IVSS_GetSpeed--><g class="entity" data-entity="IVSS_GetSpeed" data-source-line="14" data-uid="ent0003" id="entity_IVSS_GetSpeed"><rect fill="#F1F1F1" height="100.8281" rx="2.5" ry="2.5" style="stroke:#181818;stroke-width:0.5;" width="527.9766" x="70" y="384"/><ellipse cx="278.3696" cy="400" fill="#B4A7E5" rx="11" ry="11" style="stroke:#181818;stroke-width:1;"/><path d="M279.3228,396.6406 L279.3228,403.2969 L281.0415,403.2969 Q281.6509,403.2969 281.9165,403.5313 Q282.1821,403.7656 282.1821,404.1563 Q282.1821,404.5313 281.9165,404.7656 Q281.6509,405 281.0415,405 L275.9009,405 Q275.2915,405 275.0259,404.7656 Q274.7603,404.5313 274.7603,404.1406 Q274.7603,403.7656 275.0259,403.5313 Q275.2915,403.2969 275.9009,403.2969 L277.6196,403.2969 L277.6196,396.6406 L275.9009,396.6406 Q275.2915,396.6406 275.0259,396.4063 Q274.7603,396.1719 274.7603,395.7813 Q274.7603,395.4063 275.0259,395.1719 Q275.2915,394.9375 275.9009,394.9375 L281.0415,394.9375 Q281.6509,394.9375 281.9165,395.1719 Q282.1821,395.4063 282.1821,395.7813 Q282.1821,396.1719 281.9165,396.4063 Q281.6509,396.6406 281.0415,396.6406 L279.3228,396.6406 Z " fill="#000000"/><text fill="#000000" font-family="sans-serif" font-size="14" font-style="italic" lengthAdjust="spacing" textLength="102.7373" x="298.8696" y="405.7285">IVSS_GetSpeed</text><line style="stroke:#181818;stroke-width:0.5;" x1="71" x2="596.9766" y1="416" y2="416"/><line style="stroke:#181818;stroke-width:0.5;" x1="71" x2="596.9766" y1="424" y2="424"/><text fill="#000000" font-family="sans-serif" font-size="14" font-style="italic" lengthAdjust="spacing" textLength="140.0752" x="76" y="442.5332">float GetSpeed() const</text><text fill="#000000" font-family="sans-serif" font-size="14" font-style="italic" lengthAdjust="spacing" textLength="503.5283" x="76" y="460.1426">void RegisterOnSignalChangeOfVehicleSpeed(IVSS_SetSpeed_Event* callback)</text><text fill="#000000" font-family="sans-serif" font-size="14" font-style="italic" lengthAdjust="spacing" textLength="515.9766" x="76" y="477.752">void UnregisterOnSignalChangeOfVehicleSpeed(IVSS_SetSpeed_Event* callback)</text></g><!--class IVSS_SetSpeed_Event--><g class="entity" data-entity="IVSS_SetSpeed_Event" data-source-line="21" data-uid="ent0007" id="entity_IVSS_SetSpeed_Event"><rect fill="#F1F1F1" height="65.6094" rx="2.5" ry="2.5" style="stroke:#181818;stroke-width:0.5;" width="176.7715" x="633.5" y="401.5"/><ellipse cx="648.5" cy="417.5" fill="#B4A7E5" rx="11" ry="11" style="stroke:#181818;stroke-width:1;"/><path d="M649.4531,414.1406 L649.4531,420.7969 L651.1719,420.7969 Q651.7813,420.7969 652.0469,421.0313 Q652.3125,421.2656 652.3125,421.6563 Q652.3125,422.0313 652.0469,422.2656 Q651.7813,422.5 651.1719,422.5 L646.0313,422.5 Q645.4219,422.5 645.1563,422.2656 Q644.8906,422.0313 644.8906,421.6406 Q644.8906,421.2656 645.1563,421.0313 Q645.4219,420.7969 646.0313,420.7969 L647.75,420.7969 L647.75,414.1406 L646.0313,414.1406 Q645.4219,414.1406 645.1563,413.9063 Q644.8906,413.6719 644.8906,413.2813 Q644.8906,412.9063 645.1563,412.6719 Q645.4219,412.4375 646.0313,412.4375 L651.1719,412.4375 Q651.7813,412.4375 652.0469,412.6719 Q652.3125,412.9063 652.3125,413.2813 Q652.3125,413.6719 652.0469,413.9063 Q651.7813,414.1406 651.1719,414.1406 L649.4531,414.1406 Z " fill="#000000"/><text fill="#000000" font-family="sans-serif" font-size="14" font-style="italic" lengthAdjust="spacing" textLength="144.7715" x="662.5" y="423.2285">IVSS_SetSpeed_Event</text><line style="stroke:#181818;stroke-width:0.5;" x1="634.5" x2="809.2715" y1="433.5" y2="433.5"/><line style="stroke:#181818;stroke-width:0.5;" x1="634.5" x2="809.2715" y1="441.5" y2="441.5"/><text fill="#000000" font-family="sans-serif" font-size="14" font-style="italic" lengthAdjust="spacing" textLength="164.2129" x="639.5" y="460.0332">void SetSpeed(float value)</text></g><!--class IVSS_WriteSpeed_Event--><g class="entity" data-entity="IVSS_WriteSpeed_Event" data-source-line="26" data-uid="ent0008" id="entity_IVSS_WriteSpeed_Event"><rect fill="#F1F1F1" height="65.6094" rx="2.5" ry="2.5" style="stroke:#181818;stroke-width:0.5;" width="188.4199" x="867" y="401.5"/><ellipse cx="882" cy="417.5" fill="#B4A7E5" rx="11" ry="11" style="stroke:#181818;stroke-width:1;"/><path d="M882.9531,414.1406 L882.9531,420.7969 L884.6719,420.7969 Q885.2813,420.7969 885.5469,421.0313 Q885.8125,421.2656 885.8125,421.6563 Q885.8125,422.0313 885.5469,422.2656 Q885.2813,422.5 884.6719,422.5 L879.5313,422.5 Q878.9219,422.5 878.6563,422.2656 Q878.3906,422.0313 878.3906,421.6406 Q878.3906,421.2656 878.6563,421.0313 Q878.9219,420.7969 879.5313,420.7969 L881.25,420.7969 L881.25,414.1406 L879.5313,414.1406 Q878.9219,414.1406 878.6563,413.9063 Q878.3906,413.6719 878.3906,413.2813 Q878.3906,412.9063 878.6563,412.6719 Q878.9219,412.4375 879.5313,412.4375 L884.6719,412.4375 Q885.2813,412.4375 885.5469,412.6719 Q885.8125,412.9063 885.8125,413.2813 Q885.8125,413.6719 885.5469,413.9063 Q885.2813,414.1406 884.6719,414.1406 L882.9531,414.1406 Z " fill="#000000"/><text fill="#000000" font-family="sans-serif" font-size="14" font-style="italic" lengthAdjust="spacing" textLength="156.4199" x="896" y="423.2285">IVSS_WriteSpeed_Event</text><line style="stroke:#181818;stroke-width:0.5;" x1="868" x2="1054.4199" y1="433.5" y2="433.5"/><line style="stroke:#181818;stroke-width:0.5;" x1="868" x2="1054.4199" y1="441.5" y2="441.5"/><text fill="#000000" font-family="sans-serif" font-size="14" font-style="italic" lengthAdjust="spacing" textLength="175.8613" x="873" y="460.0332">void WriteSpeed(float value)</text></g><!--class CSdvObject--><g class="entity" data-entity="CSdvObject" data-source-line="31" data-uid="ent0010" id="entity_CSdvObject"><rect fill="#F1F1F1" height="118.4375" rx="2.5" ry="2.5" style="stroke:#181818;stroke-width:0.5;" width="412.7705" x="1159.5" y="375.5"/><ellipse cx="1324.2871" cy="391.5" fill="#ADD1B2" rx="11" ry="11" style="stroke:#181818;stroke-width:1;"/><path d="M1327.0527,387.375 Q1327.209,387.1563 1327.3965,387.0469 Q1327.584,386.9375 1327.8027,386.9375 Q1328.1777,386.9375 1328.4121,387.1953 Q1328.6465,387.4531 1328.6465,388.0625 L1328.6465,389.5156 Q1328.6465,390.125 1328.4121,390.3906 Q1328.1777,390.6563 1327.8027,390.6563 Q1327.459,390.6563 1327.2559,390.4531 Q1327.0527,390.2656 1326.9434,389.75 Q1326.8965,389.3906 1326.709,389.2031 Q1326.3809,388.8281 1325.7715,388.6094 Q1325.1621,388.3906 1324.5371,388.3906 Q1323.7715,388.3906 1323.1387,388.7188 Q1322.5059,389.0469 1322.0137,389.7969 Q1321.5215,390.5469 1321.5215,391.5781 L1321.5215,392.6719 Q1321.5215,393.9063 1322.4121,394.7266 Q1323.3027,395.5469 1324.8965,395.5469 Q1325.834,395.5469 1326.4902,395.2969 Q1326.8809,395.1406 1327.3027,394.7031 Q1327.5684,394.4375 1327.7168,394.3594 Q1327.8652,394.2813 1328.0684,394.2813 Q1328.3965,394.2813 1328.6543,394.5391 Q1328.9121,394.7969 1328.9121,395.1406 Q1328.9121,395.4844 1328.5684,395.8906 Q1328.0684,396.4688 1327.2715,396.7969 Q1326.1934,397.25 1324.8965,397.25 Q1323.3809,397.25 1322.1777,396.625 Q1321.1934,396.125 1320.5059,395.0547 Q1319.8184,393.9844 1319.8184,392.7031 L1319.8184,391.5469 Q1319.8184,390.2188 1320.4355,389.0703 Q1321.0527,387.9219 1322.1465,387.3047 Q1323.2402,386.6875 1324.4746,386.6875 Q1325.209,386.6875 1325.8574,386.8516 Q1326.5059,387.0156 1327.0527,387.375 Z " fill="#000000"/><text fill="#000000" font-family="sans-serif" font-size="14" lengthAdjust="spacing" textLength="74.6963" x="1344.7871" y="397.2285">CSdvObject</text><line style="stroke:#181818;stroke-width:0.5;" x1="1160.5" x2="1571.2705" y1="407.5" y2="407.5"/><line style="stroke:#181818;stroke-width:0.5;" x1="1160.5" x2="1571.2705" y1="415.5" y2="415.5"/><ellipse cx="1170.5" cy="429.8047" fill="#84BE84" rx="3" ry="3" style="stroke:#038048;stroke-width:1;"/><text fill="#000000" font-family="sans-serif" font-size="14" lengthAdjust="spacing" text-decoration="underline" textLength="336.9365" x="1179.5" y="434.0332">sdv::sequence&lt;sdv::u8string&gt; GetClassAliasesStatic()</text><ellipse cx="1170.5" cy="447.4141" fill="#84BE84" rx="3" ry="3" style="stroke:#038048;stroke-width:1;"/><text fill="#000000" font-family="sans-serif" font-size="14" lengthAdjust="spacing" text-decoration="underline" textLength="272.3301" x="1179.5" y="451.6426">sdv::u8string GetDefaultObjectNameStatic()</text><ellipse cx="1170.5" cy="465.0234" fill="#84BE84" rx="3" ry="3" style="stroke:#038048;stroke-width:1;"/><text fill="#000000" font-family="sans-serif" font-size="14" lengthAdjust="spacing" text-decoration="underline" textLength="143.9648" x="1179.5" y="469.252">bool IsSingletonStatic()</text><ellipse cx="1170.5" cy="482.6328" fill="#84BE84" rx="3" ry="3" style="stroke:#038048;stroke-width:1;"/><text fill="#000000" font-family="sans-serif" font-size="14" lengthAdjust="spacing" text-decoration="underline" textLength="386.7705" x="1179.5" y="486.8613">sdv::sequence&lt;sdv::u8string&gt; GetObjectDependenciesStatic()</text></g><!--class CBasicServiceVehicleSpeed--><g class="entity" data-entity="CBasicServiceVehicleSpeed" data-source-line="2" data-uid="ent0002" id="entity_CBasicServiceVehicleSpeed"><rect fill="#F1F1F1" height="188.875" rx="2.5" ry="2.5" style="stroke:#181818;stroke-width:0.5;" width="719.3965" x="448.5" y="7"/><ellipse cx="715.2349" cy="23" fill="#ADD1B2" rx="11" ry="11" style="stroke:#181818;stroke-width:1;"/><path d="M718.0005,18.875 Q718.1567,18.6563 718.3442,18.5469 Q718.5317,18.4375 718.7505,18.4375 Q719.1255,18.4375 719.3599,18.6953 Q719.5942,18.9531 719.5942,19.5625 L719.5942,21.0156 Q719.5942,21.625 719.3599,21.8906 Q719.1255,22.1563 718.7505,22.1563 Q718.4067,22.1563 718.2036,21.9531 Q718.0005,21.7656 717.8911,21.25 Q717.8442,20.8906 717.6567,20.7031 Q717.3286,20.3281 716.7192,20.1094 Q716.1099,19.8906 715.4849,19.8906 Q714.7192,19.8906 714.0864,20.2188 Q713.4536,20.5469 712.9614,21.2969 Q712.4692,22.0469 712.4692,23.0781 L712.4692,24.1719 Q712.4692,25.4063 713.3599,26.2266 Q714.2505,27.0469 715.8442,27.0469 Q716.7817,27.0469 717.438,26.7969 Q717.8286,26.6406 718.2505,26.2031 Q718.5161,25.9375 718.6646,25.8594 Q718.813,25.7813 719.0161,25.7813 Q719.3442,25.7813 719.6021,26.0391 Q719.8599,26.2969 719.8599,26.6406 Q719.8599,26.9844 719.5161,27.3906 Q719.0161,27.9688 718.2192,28.2969 Q717.1411,28.75 715.8442,28.75 Q714.3286,28.75 713.1255,28.125 Q712.1411,27.625 711.4536,26.5547 Q710.7661,25.4844 710.7661,24.2031 L710.7661,23.0469 Q710.7661,21.7188 711.3833,20.5703 Q712.0005,19.4219 713.0942,18.8047 Q714.188,18.1875 715.4224,18.1875 Q716.1567,18.1875 716.8052,18.3516 Q717.4536,18.5156 718.0005,18.875 Z " fill="#000000"/><text fill="#000000" font-family="sans-serif" font-size="14" lengthAdjust="spacing" textLength="177.4268" x="735.7349" y="28.7285">CBasicServiceVehicleSpeed</text><line style="stroke:#181818;stroke-width:0.5;" x1="449.5" x2="1166.8965" y1="39" y2="39"/><rect fill="none" height="6" style="stroke:#C82930;stroke-width:1;" width="6" x="456.5" y="50.3047"/><text fill="#000000" font-family="sans-serif" font-size="14" lengthAdjust="spacing" textLength="133.8613" x="468.5" y="57.5332">float m_vehicleSpeed</text><rect fill="none" height="6" style="stroke:#C82930;stroke-width:1;" width="6" x="456.5" y="67.9141"/><text fill="#000000" font-family="sans-serif" font-size="14" lengthAdjust="spacing" textLength="324.4883" x="468.5" y="75.1426">mutable std::mutex m_vehicleSpeedMutexCallbacks</text><rect fill="none" height="6" style="stroke:#C82930;stroke-width:1;" width="6" x="456.5" y="85.5234"/><text fill="#000000" font-family="sans-serif" font-size="14" lengthAdjust="spacing" textLength="557.2109" x="468.5" y="92.752">std::set&lt;vss::Vehicle::SpeedService::IVSS_SetSpeed_Event*&gt; m_vehicleSpeedCallbacks</text><line style="stroke:#181818;stroke-width:0.5;" x1="449.5" x2="1166.8965" y1="99.8281" y2="99.8281"/><ellipse cx="459.5" cy="114.1328" fill="#84BE84" rx="3" ry="3" style="stroke:#038048;stroke-width:1;"/><text fill="#000000" font-family="sans-serif" font-size="14" font-style="italic" lengthAdjust="spacing" textLength="164.2129" x="468.5" y="118.3613">void SetSpeed(float value)</text><ellipse cx="459.5" cy="131.7422" fill="#84BE84" rx="3" ry="3" style="stroke:#038048;stroke-width:1;"/><text fill="#000000" font-family="sans-serif" font-size="14" font-style="italic" lengthAdjust="spacing" textLength="140.0752" x="468.5" y="135.9707">float GetSpeed() const</text><ellipse cx="459.5" cy="149.3516" fill="#84BE84" rx="3" ry="3" style="stroke:#038048;stroke-width:1;"/><text fill="#000000" font-family="sans-serif" font-size="14" font-style="italic" lengthAdjust="spacing" textLength="175.8613" x="468.5" y="153.5801">void WriteSpeed(float value)</text><ellipse cx="459.5" cy="166.9609" fill="#84BE84" rx="3" ry="3" style="stroke:#038048;stroke-width:1;"/><text fill="#000000" font-family="sans-serif" font-size="14" font-style="italic" lengthAdjust="spacing" textLength="651.376" x="468.5" y="171.1895">RegisterOnSignalChangeOfVehicleSpeed(vss::Vehicle::SpeedService::IVSS_SetSpeed_Event* callback)</text><ellipse cx="459.5" cy="184.5703" fill="#84BE84" rx="3" ry="3" style="stroke:#038048;stroke-width:1;"/><text fill="#000000" font-family="sans-serif" font-size="14" font-style="italic" lengthAdjust="spacing" textLength="693.3965" x="468.5" y="188.7988">void UnregisterOnSignalChangeOfVehicleSpeed(vss::Vehicle::SpeedService::IVSS_SetSpeed_Event* callback)</text></g><!--link CBasicServiceVehicleSpeed to CSdvObject--><g class="link" data-entity-1="CBasicServiceVehicleSpeed" data-entity-2="CSdvObject" data-source-line="39" data-uid="lnk12" id="link_CBasicServiceVehicleSpeed_CSdvObject"><path codeLine="39" d="M974.76,196.14 C1006.81,214.46 1040.04,233.68 1071,252 C1139.31,292.42 1200.3293,329.8968 1258.2193,365.9368" fill="none" id="CBasicServiceVehicleSpeed-to-CSdvObject" style="stroke:#181818;stroke-width:1;"/><polygon fill="none" points="1273.5,375.45,1261.3903,360.8433,1255.0482,371.0304,1273.5,375.45" style="stroke:#181818;stroke-width:1;"/><text fill="#000000" font-family="sans-serif" font-size="13" lengthAdjust="spacing" textLength="42.6309" x="1057" y="240.4951">Inherits</text></g><!--link CBasicServiceVehicleSpeed to IVSS_GetSpeed--><g class="link" data-entity-1="CBasicServiceVehicleSpeed" data-entity-2="IVSS_GetSpeed" data-source-line="40" data-uid="lnk13" id="link_CBasicServiceVehicleSpeed_IVSS_GetSpeed"><path codeLine="40" d="M674.07,196.02 C586.6,257.1 490.6272,324.1235 419.7372,373.6335" fill="none" id="CBasicServiceVehicleSpeed-to-IVSS_GetSpeed" style="stroke:#181818;stroke-width:1;stroke-dasharray:7,7;"/><polygon fill="none" points="404.98,383.94,423.1727,378.5525,416.3017,368.7144,404.98,383.94" style="stroke:#181818;stroke-width:1;"/><text fill="#000000" font-family="sans-serif" font-size="13" lengthAdjust="spacing" textLength="67.1899" x="629" y="240.4951">Implements</text></g><!--link CBasicServiceVehicleSpeed to IVSS_SetSpeed_Event--><g class="link" data-entity-1="CBasicServiceVehicleSpeed" data-entity-2="IVSS_SetSpeed_Event" data-source-line="41" data-uid="lnk14" id="link_CBasicServiceVehicleSpeed_IVSS_SetSpeed_Event"><path codeLine="41" d="M783.7,196.02 C765.82,264.85 747.1058,336.8683 734.8858,383.9083" fill="none" id="CBasicServiceVehicleSpeed-to-IVSS_SetSpeed_Event" style="stroke:#181818;stroke-width:1;stroke-dasharray:7,7;"/><polygon fill="none" points="730.36,401.33,740.693,385.4169,729.0786,382.3997,730.36,401.33" style="stroke:#181818;stroke-width:1;"/><text fill="#000000" font-family="sans-serif" font-size="13" lengthAdjust="spacing" textLength="67.1899" x="776" y="240.4951">Implements</text></g><!--link CBasicServiceVehicleSpeed to IVSS_WriteSpeed_Event--><g class="link" data-entity-1="CBasicServiceVehicleSpeed" data-entity-2="IVSS_WriteSpeed_Event" data-source-line="42" data-uid="lnk15" id="link_CBasicServiceVehicleSpeed_IVSS_WriteSpeed_Event"><path codeLine="42" d="M851.23,196.02 C883.04,264.85 916.8386,337.9506 938.5786,384.9906" fill="none" id="CBasicServiceVehicleSpeed-to-IVSS_WriteSpeed_Event" style="stroke:#181818;stroke-width:1;stroke-dasharray:7,7;"/><polygon fill="none" points="946.13,401.33,944.0251,382.4735,933.1321,387.5077,946.13,401.33" style="stroke:#181818;stroke-width:1;"/><text fill="#000000" font-family="sans-serif" font-size="13" lengthAdjust="spacing" textLength="67.1899" x="871" y="240.4951">Implements</text></g><!--SRC=[lLHDQ-Cm4BttLymnsPAUYoY1NMSfERI15TizXh4yIRGhowb7DWjj_dibEsPZ4plkKkg3mDARz-RZIS3aW6cFERei1o6k040PP8Re6x9Mal9IAtgYdLQ6v9ue2P2NiFZl-WLZTZagTu0oqmb8SXLeiZ4PEYZH53Gz0wwFxnlq55HcsVMn_igrer6yFsYhsL6-ib9lBPfeXtPBgyrf0PEIMOZZZX3Lth5E8PPFKgwRAjRVIxBk2oWq9aRrPzgNu4-RVuhmh2u_NPUTWOIpj70O6m9sYH3-X_vsW0zXBpfISXDMmRqFxjwRtRn3ts8-N8LrQNrBDgW8Bf8tNZYrrrZ3TCSnoWMZ6lwVWxxC_Ux-jDbwkZHy1qTeBkX4yj-rkomwS4LhsVfLuQGK8f99kOf_asepiaEdrG6kAn3JSq5MqLtrLznwDMstys21A51zDHgPM5P1a-bvaYOiH2reWuLnjV0ZfjGR6cUPWILB7sZ8PNPOOo3HMcj1UxA9X-XskdLVUjzPcCrUvzs6WV3psv5lDWy7tzpuuD6NBj2cUqEfd_A74BVT-W7qWyPiyRy1]--></g></svg>