<svg xmlns="http://www.w3.org/2000/svg" xmlns:xlink="http://www.w3.org/1999/xlink" contentStyleType="text/css" data-diagram-type="CLASS" height="830px" preserveAspectRatio="none" style="width:1731px;height:830px;background:#FFFFFF;" version="1.1" viewBox="0 0 1731 830" width="1731px" zoomAndPan="magnify"><defs/><g><!--cluster sdv--><g class="cluster" data-entity="sdv" data-source-line="19" data-uid="ent0004" id="cluster_sdv"><path d="M8.5,550.5 L33.624,550.5 A3.75,3.75 0 0 1 36.124,553 L43.124,574.1094 L810.5,574.1094 A2.5,2.5 0 0 1 813,576.6094 L813,718 A2.5,2.5 0 0 1 810.5,720.5 L8.5,720.5 A2.5,2.5 0 0 1 6,718 L6,553 A2.5,2.5 0 0 1 8.5,550.5" fill="none" style="stroke:#000000;stroke-width:1.5;"/><line style="stroke:#000000;stroke-width:1.5;" x1="6" x2="43.124" y1="574.1094" y2="574.1094"/><text fill="#000000" font-family="sans-serif" font-size="14" font-weight="bold" lengthAdjust="spacing" textLength="24.124" x="10" y="567.0332">sdv</text></g><!--cluster vss--><g class="cluster" data-entity="vss" data-source-line="35" data-uid="ent0007" id="cluster_vss"><path d="M839.5,348 L863.8584,348 A3.75,3.75 0 0 1 866.3584,350.5 L873.3584,371.6094 L1721.5,371.6094 A2.5,2.5 0 0 1 1724,374.1094 L1724,820.5 A2.5,2.5 0 0 1 1721.5,823 L839.5,823 A2.5,2.5 0 0 1 837,820.5 L837,350.5 A2.5,2.5 0 0 1 839.5,348" fill="none" style="stroke:#000000;stroke-width:1.5;"/><line style="stroke:#000000;stroke-width:1.5;" x1="837" x2="873.3584" y1="371.6094" y2="371.6094"/><text fill="#000000" font-family="sans-serif" font-size="14" font-weight="bold" lengthAdjust="spacing" textLength="23.3584" x="841" y="364.5332">vss</text></g><!--cluster Vehicle--><g class="cluster" data-entity="Vehicle" data-source-line="35" data-uid="ent0008" id="cluster_Vehicle"><path d="M863.5,392 L913.5273,392 A3.75,3.75 0 0 1 916.0273,394.5 L923.0273,415.6094 L1697.5,415.6094 A2.5,2.5 0 0 1 1700,418.1094 L1700,796.5 A2.5,2.5 0 0 1 1697.5,799 L863.5,799 A2.5,2.5 0 0 1 861,796.5 L861,394.5 A2.5,2.5 0 0 1 863.5,392" fill="none" style="stroke:#000000;stroke-width:1.5;"/><line style="stroke:#000000;stroke-width:1.5;" x1="861" x2="923.0273" y1="415.6094" y2="415.6094"/><text fill="#000000" font-family="sans-serif" font-size="14" font-weight="bold" lengthAdjust="spacing" textLength="49.0273" x="865" y="408.5332">Vehicle</text></g><!--cluster Chassis--><g class="cluster" data-entity="Chassis" data-source-line="35" data-uid="ent0009" id="cluster_Chassis"><path d="M887.5,436 L942.1963,436 A3.75,3.75 0 0 1 944.6963,438.5 L951.6963,459.6094 L1673.5,459.6094 A2.5,2.5 0 0 1 1676,462.1094 L1676,772.5 A2.5,2.5 0 0 1 1673.5,775 L887.5,775 A2.5,2.5 0 0 1 885,772.5 L885,438.5 A2.5,2.5 0 0 1 887.5,436" fill="none" style="stroke:#000000;stroke-width:1.5;"/><line style="stroke:#000000;stroke-width:1.5;" x1="885" x2="951.6963" y1="459.6094" y2="459.6094"/><text fill="#000000" font-family="sans-serif" font-size="14" font-weight="bold" lengthAdjust="spacing" textLength="53.6963" x="889" y="452.5332">Chassis</text></g><!--cluster Door--><g class="cluster" data-entity="Door" data-source-line="35" data-uid="ent0010" id="cluster_Door"><path d="M911.5,480 L945.1621,480 A3.75,3.75 0 0 1 947.6621,482.5 L954.6621,503.6094 L1649.5,503.6094 A2.5,2.5 0 0 1 1652,506.1094 L1652,748.5 A2.5,2.5 0 0 1 1649.5,751 L911.5,751 A2.5,2.5 0 0 1 909,748.5 L909,482.5 A2.5,2.5 0 0 1 911.5,480" fill="none" style="stroke:#000000;stroke-width:1.5;"/><line style="stroke:#000000;stroke-width:1.5;" x1="909" x2="954.6621" y1="503.6094" y2="503.6094"/><text fill="#000000" font-family="sans-serif" font-size="14" font-weight="bold" lengthAdjust="spacing" textLength="32.6621" x="913" y="496.5332">Door</text></g><!--cluster Axle01--><g class="cluster" data-entity="Axle01" data-source-line="35" data-uid="ent0011" id="cluster_Axle01"><path d="M935.5,524 L981.6445,524 A3.75,3.75 0 0 1 984.1445,526.5 L991.1445,547.6094 L1625.5,547.6094 A2.5,2.5 0 0 1 1628,550.1094 L1628,724.5 A2.5,2.5 0 0 1 1625.5,727 L935.5,727 A2.5,2.5 0 0 1 933,724.5 L933,526.5 A2.5,2.5 0 0 1 935.5,524" fill="none" style="stroke:#000000;stroke-width:1.5;"/><line style="stroke:#000000;stroke-width:1.5;" x1="933" x2="991.1445" y1="547.6094" y2="547.6094"/><text fill="#000000" font-family="sans-serif" font-size="14" font-weight="bold" lengthAdjust="spacing" textLength="45.1445" x="937" y="540.5332">Axle01</text></g><!--cluster RightDevice--><g class="cluster" data-entity="RightDevice" data-source-line="35" data-uid="ent0012" id="cluster_RightDevice"><path d="M959.5,568 L1041.4102,568 A3.75,3.75 0 0 1 1043.9102,570.5 L1050.9102,591.6094 L1601.5,591.6094 A2.5,2.5 0 0 1 1604,594.1094 L1604,700.5 A2.5,2.5 0 0 1 1601.5,703 L959.5,703 A2.5,2.5 0 0 1 957,700.5 L957,570.5 A2.5,2.5 0 0 1 959.5,568" fill="none" style="stroke:#000000;stroke-width:1.5;"/><line style="stroke:#000000;stroke-width:1.5;" x1="957" x2="1050.9102" y1="591.6094" y2="591.6094"/><text fill="#000000" font-family="sans-serif" font-size="14" font-weight="bold" lengthAdjust="spacing" textLength="80.9102" x="961" y="584.5332">RightDevice</text></g><!--class CSdvObject--><g class="entity" data-entity="CSdvObject" data-source-line="19" data-uid="ent0003" id="entity_CSdvObject"><rect fill="#F1F1F1" height="118.4375" rx="2.5" ry="2.5" style="stroke:#181818;stroke-width:0.5;" width="412.7705" x="22.5" y="586.5"/><ellipse cx="187.2871" cy="602.5" fill="#ADD1B2" rx="11" ry="11" style="stroke:#181818;stroke-width:1;"/><path d="M190.0527,598.375 Q190.209,598.1563 190.3965,598.0469 Q190.584,597.9375 190.8027,597.9375 Q191.1777,597.9375 191.4121,598.1953 Q191.6465,598.4531 191.6465,599.0625 L191.6465,600.5156 Q191.6465,601.125 191.4121,601.3906 Q191.1777,601.6563 190.8027,601.6563 Q190.459,601.6563 190.2559,601.4531 Q190.0527,601.2656 189.9434,600.75 Q189.8965,600.3906 189.709,600.2031 Q189.3809,599.8281 188.7715,599.6094 Q188.1621,599.3906 187.5371,599.3906 Q186.7715,599.3906 186.1387,599.7188 Q185.5059,600.0469 185.0137,600.7969 Q184.5215,601.5469 184.5215,602.5781 L184.5215,603.6719 Q184.5215,604.9063 185.4121,605.7266 Q186.3027,606.5469 187.8965,606.5469 Q188.834,606.5469 189.4902,606.2969 Q189.8809,606.1406 190.3027,605.7031 Q190.5684,605.4375 190.7168,605.3594 Q190.8652,605.2813 191.0684,605.2813 Q191.3965,605.2813 191.6543,605.5391 Q191.9121,605.7969 191.9121,606.1406 Q191.9121,606.4844 191.5684,606.8906 Q191.0684,607.4688 190.2715,607.7969 Q189.1934,608.25 187.8965,608.25 Q186.3809,608.25 185.1777,607.625 Q184.1934,607.125 183.5059,606.0547 Q182.8184,604.9844 182.8184,603.7031 L182.8184,602.5469 Q182.8184,601.2188 183.4355,600.0703 Q184.0527,598.9219 185.1465,598.3047 Q186.2402,597.6875 187.4746,597.6875 Q188.209,597.6875 188.8574,597.8516 Q189.5059,598.0156 190.0527,598.375 Z " fill="#000000"/><text fill="#000000" font-family="sans-serif" font-size="14" lengthAdjust="spacing" textLength="74.6963" x="207.7871" y="608.2285">CSdvObject</text><line style="stroke:#181818;stroke-width:0.5;" x1="23.5" x2="434.2705" y1="618.5" y2="618.5"/><line style="stroke:#181818;stroke-width:0.5;" x1="23.5" x2="434.2705" y1="626.5" y2="626.5"/><ellipse cx="33.5" cy="640.8047" fill="#84BE84" rx="3" ry="3" style="stroke:#038048;stroke-width:1;"/><text fill="#000000" font-family="sans-serif" font-size="14" lengthAdjust="spacing" text-decoration="underline" textLength="336.9365" x="42.5" y="645.0332">sdv::sequence&lt;sdv::u8string&gt; GetClassAliasesStatic()</text><ellipse cx="33.5" cy="658.4141" fill="#84BE84" rx="3" ry="3" style="stroke:#038048;stroke-width:1;"/><text fill="#000000" font-family="sans-serif" font-size="14" lengthAdjust="spacing" text-decoration="underline" textLength="272.3301" x="42.5" y="662.6426">sdv::u8string GetDefaultObjectNameStatic()</text><ellipse cx="33.5" cy="676.0234" fill="#84BE84" rx="3" ry="3" style="stroke:#038048;stroke-width:1;"/><text fill="#000000" font-family="sans-serif" font-size="14" lengthAdjust="spacing" text-decoration="underline" textLength="143.9648" x="42.5" y="680.252">bool IsSingletonStatic()</text><ellipse cx="33.5" cy="693.6328" fill="#84BE84" rx="3" ry="3" style="stroke:#038048;stroke-width:1;"/><text fill="#000000" font-family="sans-serif" font-size="14" lengthAdjust="spacing" text-decoration="underline" textLength="386.7705" x="42.5" y="697.8613">sdv::sequence&lt;sdv::u8string&gt; GetObjectDependenciesStatic()</text></g><!--class IObjectControl--><g class="entity" data-entity="IObjectControl" data-source-line="27" data-uid="ent0005" id="entity_IObjectControl"><rect fill="#F1F1F1" height="118.4375" rx="2.5" ry="2.5" style="stroke:#181818;stroke-width:0.5;" width="326.3574" x="471" y="586.5"/><ellipse cx="585.1875" cy="602.5" fill="#B4A7E5" rx="11" ry="11" style="stroke:#181818;stroke-width:1;"/><path d="M586.1406,599.1406 L586.1406,605.7969 L587.8594,605.7969 Q588.4688,605.7969 588.7344,606.0313 Q589,606.2656 589,606.6563 Q589,607.0313 588.7344,607.2656 Q588.4688,607.5 587.8594,607.5 L582.7188,607.5 Q582.1094,607.5 581.8438,607.2656 Q581.5781,607.0313 581.5781,606.6406 Q581.5781,606.2656 581.8438,606.0313 Q582.1094,605.7969 582.7188,605.7969 L584.4375,605.7969 L584.4375,599.1406 L582.7188,599.1406 Q582.1094,599.1406 581.8438,598.9063 Q581.5781,598.6719 581.5781,598.2813 Q581.5781,597.9063 581.8438,597.6719 Q582.1094,597.4375 582.7188,597.4375 L587.8594,597.4375 Q588.4688,597.4375 588.7344,597.6719 Q589,597.9063 589,598.2813 Q589,598.6719 588.7344,598.9063 Q588.4688,599.1406 587.8594,599.1406 L586.1406,599.1406 Z " fill="#000000"/><text fill="#000000" font-family="sans-serif" font-size="14" font-style="italic" lengthAdjust="spacing" textLength="89.4824" x="605.6875" y="608.2285">IObjectControl</text><line style="stroke:#181818;stroke-width:0.5;" x1="472" x2="796.3574" y1="618.5" y2="618.5"/><line style="stroke:#181818;stroke-width:0.5;" x1="472" x2="796.3574" y1="626.5" y2="626.5"/><text fill="#000000" font-family="sans-serif" font-size="14" font-style="italic" lengthAdjust="spacing" textLength="314.3574" x="477" y="645.0332">void Initialize(const sdv::u8string&amp; ssObjectConfig)</text><text fill="#000000" font-family="sans-serif" font-size="14" font-style="italic" lengthAdjust="spacing" textLength="202.3096" x="477" y="662.6426">EObjectStatus GetStatus() const</text><text fill="#000000" font-family="sans-serif" font-size="14" font-style="italic" lengthAdjust="spacing" textLength="308.9502" x="477" y="680.252">void SetOperationMode(EOperationMode eMode)</text><text fill="#000000" font-family="sans-serif" font-size="14" font-style="italic" lengthAdjust="spacing" textLength="101.165" x="477" y="697.8613">void Shutdown()</text></g><!--class IVSS_IsOpen--><g class="entity" data-entity="IVSS_IsOpen" data-source-line="35" data-uid="ent0006" id="entity_IVSS_IsOpen"><rect fill="#F1F1F1" height="83.2188" rx="2.5" ry="2.5" style="stroke:#181818;stroke-width:0.5;" width="401.0742" x="973.5" y="604"/><ellipse cx="1127.3735" cy="620" fill="#B4A7E5" rx="11" ry="11" style="stroke:#181818;stroke-width:1;"/><path d="M1128.3267,616.6406 L1128.3267,623.2969 L1130.0454,623.2969 Q1130.6548,623.2969 1130.9204,623.5313 Q1131.186,623.7656 1131.186,624.1563 Q1131.186,624.5313 1130.9204,624.7656 Q1130.6548,625 1130.0454,625 L1124.9048,625 Q1124.2954,625 1124.0298,624.7656 Q1123.7642,624.5313 1123.7642,624.1406 Q1123.7642,623.7656 1124.0298,623.5313 Q1124.2954,623.2969 1124.9048,623.2969 L1126.6235,623.2969 L1126.6235,616.6406 L1124.9048,616.6406 Q1124.2954,616.6406 1124.0298,616.4063 Q1123.7642,616.1719 1123.7642,615.7813 Q1123.7642,615.4063 1124.0298,615.1719 Q1124.2954,614.9375 1124.9048,614.9375 L1130.0454,614.9375 Q1130.6548,614.9375 1130.9204,615.1719 Q1131.186,615.4063 1131.186,615.7813 Q1131.186,616.1719 1130.9204,616.4063 Q1130.6548,616.6406 1130.0454,616.6406 L1128.3267,616.6406 Z " fill="#000000"/><text fill="#000000" font-family="sans-serif" font-size="14" font-style="italic" lengthAdjust="spacing" textLength="84.8271" x="1147.8735" y="625.7285">IVSS_IsOpen</text><line style="stroke:#181818;stroke-width:0.5;" x1="974.5" x2="1373.5742" y1="636" y2="636"/><line style="stroke:#181818;stroke-width:0.5;" x1="974.5" x2="1373.5742" y1="644" y2="644"/><text fill="#000000" font-family="sans-serif" font-size="14" font-style="italic" lengthAdjust="spacing" textLength="376.626" x="979.5" y="662.5332">void RegisterIsOpenEvent(IVSS_WriteIsOpen_Event* event)</text><text fill="#000000" font-family="sans-serif" font-size="14" font-style="italic" lengthAdjust="spacing" textLength="389.0742" x="979.5" y="680.1426">void UnregisterIsOpenEvent(IVSS_WriteIsOpen_Event* event)</text></g><!--class IVSS_WriteLock--><g class="entity" data-entity="IVSS_WriteLock" data-source-line="41" data-uid="ent0013" id="entity_IVSS_WriteLock"><rect fill="#F1F1F1" height="65.6094" rx="2.5" ry="2.5" style="stroke:#181818;stroke-width:0.5;" width="177.7441" x="1410" y="612.5"/><ellipse cx="1444.7191" cy="628.5" fill="#B4A7E5" rx="11" ry="11" style="stroke:#181818;stroke-width:1;"/><path d="M1445.6723,625.1406 L1445.6723,631.7969 L1447.391,631.7969 Q1448.0004,631.7969 1448.266,632.0313 Q1448.5316,632.2656 1448.5316,632.6563 Q1448.5316,633.0313 1448.266,633.2656 Q1448.0004,633.5 1447.391,633.5 L1442.2504,633.5 Q1441.641,633.5 1441.3754,633.2656 Q1441.1098,633.0313 1441.1098,632.6406 Q1441.1098,632.2656 1441.3754,632.0313 Q1441.641,631.7969 1442.2504,631.7969 L1443.9691,631.7969 L1443.9691,625.1406 L1442.2504,625.1406 Q1441.641,625.1406 1441.3754,624.9063 Q1441.1098,624.6719 1441.1098,624.2813 Q1441.1098,623.9063 1441.3754,623.6719 Q1441.641,623.4375 1442.2504,623.4375 L1447.391,623.4375 Q1448.0004,623.4375 1448.266,623.6719 Q1448.5316,623.9063 1448.5316,624.2813 Q1448.5316,624.6719 1448.266,624.9063 Q1448.0004,625.1406 1447.391,625.1406 L1445.6723,625.1406 Z " fill="#000000"/><text fill="#000000" font-family="sans-serif" font-size="14" font-style="italic" lengthAdjust="spacing" textLength="101.9238" x="1463.1012" y="634.2285">IVSS_WriteLock</text><line style="stroke:#181818;stroke-width:0.5;" x1="1411" x2="1586.7441" y1="644.5" y2="644.5"/><line style="stroke:#181818;stroke-width:0.5;" x1="1411" x2="1586.7441" y1="652.5" y2="652.5"/><text fill="#000000" font-family="sans-serif" font-size="14" font-style="italic" lengthAdjust="spacing" textLength="165.7441" x="1416" y="671.0332">bool WriteLock(bool value)</text></g><!--class CVehicleDeviceFrontDoorRight--><g class="entity" data-entity="CVehicleDeviceFrontDoorRight" data-source-line="2" data-uid="ent0002" id="entity_CVehicleDeviceFrontDoorRight"><rect fill="#F1F1F1" height="276.9219" rx="2.5" ry="2.5" style="stroke:#181818;stroke-width:0.5;" width="768.335" x="412" y="7"/><ellipse cx="694.6558" cy="23" fill="#ADD1B2" rx="11" ry="11" style="stroke:#181818;stroke-width:1;"/><path d="M697.4214,18.875 Q697.5776,18.6563 697.7651,18.5469 Q697.9526,18.4375 698.1714,18.4375 Q698.5464,18.4375 698.7808,18.6953 Q699.0151,18.9531 699.0151,19.5625 L699.0151,21.0156 Q699.0151,21.625 698.7808,21.8906 Q698.5464,22.1563 698.1714,22.1563 Q697.8276,22.1563 697.6245,21.9531 Q697.4214,21.7656 697.312,21.25 Q697.2651,20.8906 697.0776,20.7031 Q696.7495,20.3281 696.1401,20.1094 Q695.5308,19.8906 694.9058,19.8906 Q694.1401,19.8906 693.5073,20.2188 Q692.8745,20.5469 692.3823,21.2969 Q691.8901,22.0469 691.8901,23.0781 L691.8901,24.1719 Q691.8901,25.4063 692.7808,26.2266 Q693.6714,27.0469 695.2651,27.0469 Q696.2026,27.0469 696.8589,26.7969 Q697.2495,26.6406 697.6714,26.2031 Q697.937,25.9375 698.0854,25.8594 Q698.2339,25.7813 698.437,25.7813 Q698.7651,25.7813 699.0229,26.0391 Q699.2808,26.2969 699.2808,26.6406 Q699.2808,26.9844 698.937,27.3906 Q698.437,27.9688 697.6401,28.2969 Q696.562,28.75 695.2651,28.75 Q693.7495,28.75 692.5464,28.125 Q691.562,27.625 690.8745,26.5547 Q690.187,25.4844 690.187,24.2031 L690.187,23.0469 Q690.187,21.7188 690.8042,20.5703 Q691.4214,19.4219 692.5151,18.8047 Q693.6089,18.1875 694.8433,18.1875 Q695.5776,18.1875 696.2261,18.3516 Q696.8745,18.5156 697.4214,18.875 Z " fill="#000000"/><text fill="#000000" font-family="sans-serif" font-size="14" lengthAdjust="spacing" textLength="194.5234" x="715.1558" y="28.7285">CVehicleDeviceFrontDoorRight</text><line style="stroke:#181818;stroke-width:0.5;" x1="413" x2="1179.335" y1="39" y2="39"/><rect fill="none" height="6" style="stroke:#C82930;stroke-width:1;" width="6" x="420" y="50.3047"/><text fill="#000000" font-family="sans-serif" font-size="14" lengthAdjust="spacing" textLength="213.999" x="432" y="57.5332">sdv::core::CSignal m_rightLatch01</text><rect fill="none" height="6" style="stroke:#C82930;stroke-width:1;" width="6" x="420" y="67.9141"/><text fill="#000000" font-family="sans-serif" font-size="14" lengthAdjust="spacing" textLength="294.1504" x="432" y="75.1426">sdv::core::CSignal m_rightDoorIsOpen01Signal</text><rect fill="none" height="6" style="stroke:#C82930;stroke-width:1;" width="6" x="420" y="85.5234"/><text fill="#000000" font-family="sans-serif" font-size="14" lengthAdjust="spacing" textLength="358.7158" x="432" y="92.752">mutable std::mutex m_rightDoorIsOpen01MutexCallbacks</text><rect fill="none" height="6" style="stroke:#C82930;stroke-width:1;" width="6" x="420" y="103.1328"/><text fill="#000000" font-family="sans-serif" font-size="14" lengthAdjust="spacing" textLength="742.335" x="432" y="110.3613">std::set&lt;vss::Vehicle::Chassis::Door::Axle01::RightDevice::IVSS_WriteIsOpen_Event*&gt; m_rightDoorIsOpen01Callbacks</text><rect fill="none" height="6" style="stroke:#C82930;stroke-width:1;" width="6" x="420" y="120.7422"/><text fill="#000000" font-family="sans-serif" font-size="14" lengthAdjust="spacing" textLength="263.7852" x="432" y="127.9707">std::atomic&lt;sdv::EObjectStatus&gt; m_status</text><line style="stroke:#181818;stroke-width:0.5;" x1="413" x2="1179.335" y1="135.0469" y2="135.0469"/><ellipse cx="423" cy="149.3516" fill="#84BE84" rx="3" ry="3" style="stroke:#038048;stroke-width:1;"/><text fill="#000000" font-family="sans-serif" font-size="14" font-style="italic" lengthAdjust="spacing" textLength="297.2539" x="432" y="153.5801">void Initialize(const sdv::u8string&amp; objectConfig)</text><ellipse cx="423" cy="166.9609" fill="#84BE84" rx="3" ry="3" style="stroke:#038048;stroke-width:1;"/><text fill="#000000" font-family="sans-serif" font-size="14" font-style="italic" lengthAdjust="spacing" textLength="231.875" x="432" y="171.1895">sdv::EObjectStatus GetStatus() const</text><ellipse cx="423" cy="184.5703" fill="#84BE84" rx="3" ry="3" style="stroke:#038048;stroke-width:1;"/><text fill="#000000" font-family="sans-serif" font-size="14" font-style="italic" lengthAdjust="spacing" textLength="338.5156" x="432" y="188.7988">void SetOperationMode(sdv::EOperationMode eMode)</text><ellipse cx="423" cy="202.1797" fill="#84BE84" rx="3" ry="3" style="stroke:#038048;stroke-width:1;"/><text fill="#000000" font-family="sans-serif" font-size="14" font-style="italic" lengthAdjust="spacing" textLength="101.165" x="432" y="206.4082">void Shutdown()</text><ellipse cx="423" cy="219.7891" fill="#84BE84" rx="3" ry="3" style="stroke:#038048;stroke-width:1;"/><text fill="#000000" font-family="sans-serif" font-size="14" font-style="italic" lengthAdjust="spacing" textLength="165.7441" x="432" y="224.0176">bool WriteLock(bool value)</text><ellipse cx="423" cy="237.3984" fill="#84BE84" rx="3" ry="3" style="stroke:#038048;stroke-width:1;"/><text fill="#000000" font-family="sans-serif" font-size="14" font-style="italic" lengthAdjust="spacing" textLength="688.6387" x="432" y="241.627">void RegisterIsOpenEvent(vss::Vehicle::Chassis::Door::Axle01::RightDevice::IVSS_WriteIsOpen_Event* event)</text><ellipse cx="423" cy="255.0078" fill="#84BE84" rx="3" ry="3" style="stroke:#038048;stroke-width:1;"/><text fill="#000000" font-family="sans-serif" font-size="14" font-style="italic" lengthAdjust="spacing" textLength="701.0869" x="432" y="259.2363">void UnregisterIsOpenEvent(vss::Vehicle::Chassis::Door::Axle01::RightDevice::IVSS_WriteIsOpen_Event* event)</text><rect fill="#F24D5C" height="6" style="stroke:#C82930;stroke-width:1;" width="6" x="420" y="269.6172"/><text fill="#000000" font-family="sans-serif" font-size="14" lengthAdjust="spacing" textLength="413.1914" x="432" y="276.8457">void ExecuteAllCallBacksForRightDoorIsOpen01(sdv::any_t value)</text></g><!--link CVehicleDeviceFrontDoorRight to CSdvObject--><g class="link" data-entity-1="CVehicleDeviceFrontDoorRight" data-entity-2="CSdvObject" data-source-line="46" data-uid="lnk14" id="link_CVehicleDeviceFrontDoorRight_CSdvObject"><path codeLine="46" d="M525.8,284.07 C500.14,301.45 475.39,320.16 453,340 C370.85,412.8 309.5897,504.9449 270.6397,570.8349" fill="none" id="CVehicleDeviceFrontDoorRight-to-CSdvObject" style="stroke:#181818;stroke-width:1;"/><polygon fill="none" points="261.48,586.33,275.8048,573.8881,265.4747,567.7816,261.48,586.33" style="stroke:#181818;stroke-width:1;"/><text fill="#000000" font-family="sans-serif" font-size="13" lengthAdjust="spacing" textLength="42.6309" x="479" y="328.4951">Inherits</text></g><!--link CVehicleDeviceFrontDoorRight to IObjectControl--><g class="link" data-entity-1="CVehicleDeviceFrontDoorRight" data-entity-2="IObjectControl" data-source-line="47" data-uid="lnk15" id="link_CVehicleDeviceFrontDoorRight_IObjectControl"><path codeLine="47" d="M751.2,284.23 C718.89,383.55 682.4785,495.483 658.5285,569.103" fill="none" id="CVehicleDeviceFrontDoorRight-to-IObjectControl" style="stroke:#181818;stroke-width:1;stroke-dasharray:7,7;"/><polygon fill="none" points="652.96,586.22,664.2342,570.9592,652.8228,567.2468,652.96,586.22" style="stroke:#181818;stroke-width:1;"/><text fill="#000000" font-family="sans-serif" font-size="13" lengthAdjust="spacing" textLength="67.1899" x="739" y="328.4951">Implements</text></g><!--link CVehicleDeviceFrontDoorRight to IVSS_IsOpen--><g class="link" data-entity-1="CVehicleDeviceFrontDoorRight" data-entity-2="IVSS_IsOpen" data-source-line="48" data-uid="lnk16" id="link_CVehicleDeviceFrontDoorRight_IVSS_IsOpen"><path codeLine="48" d="M900.54,284.23 C982.37,392.04 1079.918,520.5419 1132.248,589.4919" fill="none" id="CVehicleDeviceFrontDoorRight-to-IVSS_IsOpen" style="stroke:#181818;stroke-width:1;stroke-dasharray:7,7;"/><polygon fill="none" points="1143.13,603.83,1137.0274,585.8645,1127.4686,593.1192,1143.13,603.83" style="stroke:#181818;stroke-width:1;"/><text fill="#000000" font-family="sans-serif" font-size="13" lengthAdjust="spacing" textLength="67.1899" x="930" y="328.4951">Implements</text></g><!--link CVehicleDeviceFrontDoorRight to IVSS_WriteLock--><g class="link" data-entity-1="CVehicleDeviceFrontDoorRight" data-entity-2="IVSS_WriteLock" data-source-line="49" data-uid="lnk17" id="link_CVehicleDeviceFrontDoorRight_IVSS_WriteLock"><path codeLine="49" d="M1180.18,214.14 C1257.79,242.53 1333.42,282.81 1392,340 C1469.58,415.74 1489.3087,533.0306 1495.1487,594.5406" fill="none" id="CVehicleDeviceFrontDoorRight-to-IVSS_WriteLock" style="stroke:#181818;stroke-width:1;stroke-dasharray:7,7;"/><polygon fill="none" points="1496.85,612.46,1501.1218,593.9735,1489.1755,595.1077,1496.85,612.46" style="stroke:#181818;stroke-width:1;"/><text fill="#000000" font-family="sans-serif" font-size="13" lengthAdjust="spacing" textLength="67.1899" x="1380" y="328.4951">Implements</text></g><!--SRC=[lLLTSzem47pthxYdZca71cYJfffCfeaXBHbSEd527naXNq2DB55BTfEc-U-LRA10-MgR2GzWsRUxfqLx1eq6D4veIerAWH0F09YWMaFGnp5d0bkOSuRdgPAcfLHwoKTZuweUt9Vzl7gWGsrIoimZv8h7q97SS2hu3_IPajhonpaXsP4judBq0jJmAp8JA7d3HvKr94LvkrTKHOQQJCC7d5xv5IWuDsb7Q7eJj9lXIeOgHdzAjdWFq7rNDbACCnEhxz9VLp5KIi2Nb1liAdRh5ykSYcmptIMEk3QOThHjGhPpbCRFjIPaQYyXmTZQpUqTPoyXftS2wmr22gDBymdfzADeKEYMF8E2w2MW-zceVItJvrEl5fBjEsIPmLCX0Yh46MMt-dnwQ9n0YQytol-5olk1MVQlMZnWAdMjHNmagO1aa3fybneshZTs5ouAbKzcc2GpT2WGj8a9iGkyMuS9tGFN_j2rFzTp61kNuoVpxsIT-7fTcyw4i-C_e-4uT77bwX-zt_ajQeCepilonSW-E0HdZ_2gADBuBKF9y7Wfg2SkTO6ZEXMSQjHH0Ph7OeLa1dEe5jxGJ9XI-1DDS2Eq2517HnOeq2YvNMDBewLM2ws7iItXo-sMldIaJS8DPLXwq-dD1f59bLZovoydcjQzDJDjWMM_QRPpc6sROzl7sAe1_tY6oqEwpQfruswlyR7VxDfDzKGxdS_u3PlT_Y8eczZs1eLgzUV9QaQ1sCR7Q5drJdojDiCldsF7aKm49jQGFLd-wp0ydzxSxHN9zpRoMI8yxxEWqbo7NSWnrJOaqAWrwys3sZi_j8i89r0_WiPRSd18NXz1q8wkm3slU7xOkGAjijIUbvYxL0ypbxAATq5p2fUPD3n10cxbNuKLYDgpcz2MERTxTBru5_smB8AFoaGJPOhYmpVLCswiVchxWdxeJSUZXJ8Lsm5289WqcWTDhqlbAACZgnIZ5oYhaDuJQBL_0G00]--></g></svg>