<svg xmlns="http://www.w3.org/2000/svg" xmlns:xlink="http://www.w3.org/1999/xlink" contentStyleType="text/css" data-diagram-type="SEQUENCE" height="1018px" preserveAspectRatio="none" style="width:774px;height:1018px;background:#FFFFFF;" version="1.1" viewBox="0 0 774 1018" width="774px" zoomAndPan="magnify"><defs/><g><rect fill="#82B8B8" height="1006.4141" style="stroke:#181818;stroke-width:0.5;" width="153.5303" x="548.5869" y="6"/><text fill="#000000" font-family="sans-serif" font-size="13" font-weight="bold" lengthAdjust="spacing" textLength="85.9727" x="582.3657" y="19.4951">Core Instance</text><g><title>Openxil</title><rect fill="#FFFFFF" height="95.0547" style="stroke:#181818;stroke-width:1;" width="10" x="344.187" y="149.3125"/></g><g><title>Openxil</title><rect fill="#FFFFFF" height="377.5703" style="stroke:#181818;stroke-width:1;" width="10" x="344.187" y="545.2344"/></g><g><title>Headlight Application</title><rect fill="#FFFFFF" height="73.7031" style="stroke:#181818;stroke-width:1;" width="10" x="620.3521" y="789.3984"/></g><g><title>User</title><rect fill="#000000" fill-opacity="0.00000" height="849.1953" width="8" x="48.7793" y="82.6094"/><line style="stroke:#181818;stroke-width:0.5;stroke-dasharray:5,5;" x1="52" x2="52" y1="82.6094" y2="931.8047"/></g><g><title>Openxil</title><rect fill="#000000" fill-opacity="0.00000" height="849.1953" width="8" x="345.187" y="82.6094"/><line style="stroke:#181818;stroke-width:0.5;stroke-dasharray:5,5;" x1="348.4526" x2="348.4526" y1="82.6094" y2="931.8047"/></g><g><title>Headlight Application</title><rect fill="#000000" fill-opacity="0.00000" height="849.1953" width="8" x="621.3521" y="82.6094"/><line style="stroke:#181818;stroke-width:0.5;stroke-dasharray:5,5;" x1="624.5869" x2="624.5869" y1="82.6094" y2="931.8047"/></g><g class="participant participant-head" data-participant="User"><text fill="#000000" font-family="sans-serif" font-size="14" lengthAdjust="spacing" textLength="29.5586" x="35" y="79.5332">User</text><ellipse cx="52.7793" cy="13.5" fill="#E2E2F0" rx="8" ry="8" style="stroke:#181818;stroke-width:0.5;"/><path d="M52.7793,21.5 L52.7793,48.5 M39.7793,29.5 L65.7793,29.5 M52.7793,48.5 L39.7793,63.5 M52.7793,48.5 L65.7793,63.5" fill="none" style="stroke:#181818;stroke-width:0.5;"/></g><g class="participant participant-tail" data-participant="User"><text fill="#000000" font-family="sans-serif" font-size="14" lengthAdjust="spacing" textLength="29.5586" x="35" y="945.3379">User</text><ellipse cx="52.7793" cy="956.9141" fill="#E2E2F0" rx="8" ry="8" style="stroke:#181818;stroke-width:0.5;"/><path d="M52.7793,964.9141 L52.7793,991.9141 M39.7793,972.9141 L65.7793,972.9141 M52.7793,991.9141 L39.7793,1006.9141 M52.7793,991.9141 L65.7793,1006.9141" fill="none" style="stroke:#181818;stroke-width:0.5;"/></g><g class="participant participant-head" data-participant="OX"><rect fill="#E2E2F0" height="31.6094" rx="2.5" ry="2.5" style="stroke:#181818;stroke-width:0.5;" width="61.4688" x="318.4526" y="50"/><text fill="#000000" font-family="sans-serif" font-size="14" lengthAdjust="spacing" textLength="47.4688" x="325.4526" y="71.5332">Openxil</text></g><g class="participant participant-tail" data-participant="OX"><rect fill="#E2E2F0" height="31.6094" rx="2.5" ry="2.5" style="stroke:#181818;stroke-width:0.5;" width="61.4688" x="318.4526" y="930.8047"/><text fill="#000000" font-family="sans-serif" font-size="14" lengthAdjust="spacing" textLength="47.4688" x="325.4526" y="952.3379">Openxil</text></g><g class="participant participant-head" data-participant="HA"><rect fill="#00A7AB" height="31.6094" rx="2.5" ry="2.5" style="stroke:#181818;stroke-width:0.5;" width="145.5303" x="552.5869" y="50"/><text fill="#000000" font-family="sans-serif" font-size="14" lengthAdjust="spacing" textLength="131.5303" x="559.5869" y="71.5332">Headlight Application</text></g><g class="participant participant-tail" data-participant="HA"><rect fill="#00A7AB" height="31.6094" rx="2.5" ry="2.5" style="stroke:#181818;stroke-width:0.5;" width="145.5303" x="552.5869" y="930.8047"/><text fill="#000000" font-family="sans-serif" font-size="14" lengthAdjust="spacing" textLength="131.5303" x="559.5869" y="952.3379">Headlight Application</text></g><g><title>Openxil</title><rect fill="#FFFFFF" height="95.0547" style="stroke:#181818;stroke-width:1;" width="10" x="344.187" y="149.3125"/></g><g><title>Openxil</title><rect fill="#FFFFFF" height="377.5703" style="stroke:#181818;stroke-width:1;" width="10" x="344.187" y="545.2344"/></g><g><title>Headlight Application</title><rect fill="#FFFFFF" height="73.7031" style="stroke:#181818;stroke-width:1;" width="10" x="620.3521" y="789.3984"/></g><rect fill="#FEFFDD" height="24" style="stroke:#181818;stroke-width:0.5;" width="96" x="5" y="97.6094"/><text fill="#000000" font-family="sans-serif" font-size="13" lengthAdjust="spacing" textLength="88.1689" x="9" y="115.1045">Set Python env</text><g class="message" data-participant-1="User" data-participant-2="OX"><polygon fill="#181818" points="332.187,145.3125,342.187,149.3125,332.187,153.3125,336.187,149.3125" style="stroke:#181818;stroke-width:1;"/><line style="stroke:#181818;stroke-width:1;" x1="52.7793" x2="338.187" y1="149.3125" y2="149.3125"/><text fill="#000000" font-family="sans-serif" font-size="13" lengthAdjust="spacing" textLength="96.8271" x="59.7793" y="144.4561">Start the Openxil</text></g><rect fill="#FEFFDD" height="24" style="stroke:#181818;stroke-width:0.5;" width="97" x="300" y="162.3125"/><text fill="#000000" font-family="sans-serif" font-size="13" lengthAdjust="spacing" textLength="89.6035" x="304" y="179.8076">OpenXil started</text><g class="message" data-participant-1="User" data-participant-2="OX"><polygon fill="#181818" points="332.187,210.0156,342.187,214.0156,332.187,218.0156,336.187,214.0156" style="stroke:#181818;stroke-width:1;"/><line style="stroke:#181818;stroke-width:1;" x1="52.7793" x2="338.187" y1="214.0156" y2="214.0156"/><text fill="#000000" font-family="sans-serif" font-size="13" lengthAdjust="spacing" textLength="161.1226" x="59.7793" y="209.1592">Load Headlight FMU (VAPI)</text></g><g class="message" data-participant-1="OX" data-participant-2="HA"><polygon fill="#181818" points="613.3521,240.3672,623.3521,244.3672,613.3521,248.3672,617.3521,244.3672" style="stroke:#181818;stroke-width:1;"/><line style="stroke:#181818;stroke-width:1;" x1="349.187" x2="619.3521" y1="244.3672" y2="244.3672"/><text fill="#000000" font-family="sans-serif" font-size="13" lengthAdjust="spacing" textLength="159.7261" x="356.187" y="239.5107">Loads Headlight application</text></g><g class="message" data-participant-1="HA" data-participant-2="HA"><line style="stroke:#181818;stroke-width:1;" x1="625.3521" x2="667.3521" y1="274.7188" y2="274.7188"/><line style="stroke:#181818;stroke-width:1;" x1="667.3521" x2="667.3521" y1="274.7188" y2="287.7188"/><line style="stroke:#181818;stroke-width:1;" x1="626.3521" x2="667.3521" y1="287.7188" y2="287.7188"/><polygon fill="#181818" points="636.3521,283.7188,626.3521,287.7188,636.3521,291.7188,632.3521,287.7188" style="stroke:#181818;stroke-width:1;"/><text fill="#000000" font-family="sans-serif" font-size="13" lengthAdjust="spacing" textLength="118.498" x="632.3521" y="269.8623">Loads Core services</text></g><rect fill="#FEFFDD" height="122" style="stroke:#181818;stroke-width:0.5;" width="137" x="556" y="300.7188"/><text fill="#000000" font-family="sans-serif" font-size="13" lengthAdjust="spacing" textLength="120.6943" x="560" y="318.2139">Headlight application</text><text fill="#000000" font-family="sans-serif" font-size="13" lengthAdjust="spacing" textLength="31.0781" x="560" y="334.5654">loads</text><text fill="#000000" font-family="sans-serif" font-size="13" font-weight="bold" lengthAdjust="spacing" textLength="85.2808" x="594.6899" y="334.5654">Core services</text><text fill="#000000" font-family="sans-serif" font-size="13" lengthAdjust="spacing" textLength="75.1499" x="560" y="350.917">and registers</text><text fill="#000000" font-family="sans-serif" font-size="13" lengthAdjust="spacing" textLength="98.2744" x="560" y="367.2686">following signals:</text><text fill="#000000" font-family="sans-serif" font-size="13" lengthAdjust="spacing" textLength="107.6753" x="560" y="383.6201">1. Current Latitude</text><text fill="#000000" font-family="sans-serif" font-size="13" lengthAdjust="spacing" textLength="118.5234" x="560" y="399.9717">2. Current Longitude</text><text fill="#000000" font-family="sans-serif" font-size="13" lengthAdjust="spacing" textLength="129.3589" x="560" y="416.3232">3. Headlight Lowbeam</text><g class="message" data-participant-1="HA" data-participant-2="HA"><line style="stroke:#181818;stroke-width:1;" x1="625.3521" x2="667.3521" y1="450.5313" y2="450.5313"/><line style="stroke:#181818;stroke-width:1;" x1="667.3521" x2="667.3521" y1="450.5313" y2="463.5313"/><line style="stroke:#181818;stroke-width:1;" x1="626.3521" x2="667.3521" y1="463.5313" y2="463.5313"/><polygon fill="#181818" points="636.3521,459.5313,626.3521,463.5313,636.3521,467.5313,632.3521,463.5313" style="stroke:#181818;stroke-width:1;"/><text fill="#000000" font-family="sans-serif" font-size="13" lengthAdjust="spacing" textLength="127.188" x="632.3521" y="445.6748">Loads vehicle devices</text></g><g class="message" data-participant-1="HA" data-participant-2="HA"><line style="stroke:#181818;stroke-width:1;" x1="625.3521" x2="667.3521" y1="493.8828" y2="493.8828"/><line style="stroke:#181818;stroke-width:1;" x1="667.3521" x2="667.3521" y1="493.8828" y2="506.8828"/><line style="stroke:#181818;stroke-width:1;" x1="626.3521" x2="667.3521" y1="506.8828" y2="506.8828"/><polygon fill="#181818" points="636.3521,502.8828,626.3521,506.8828,636.3521,510.8828,632.3521,506.8828" style="stroke:#181818;stroke-width:1;"/><text fill="#000000" font-family="sans-serif" font-size="13" lengthAdjust="spacing" textLength="120.6689" x="632.3521" y="489.0264">Loads basic services</text></g><g class="message" data-participant-1="HA" data-participant-2="HA"><line style="stroke:#181818;stroke-width:1;" x1="625.3521" x2="667.3521" y1="537.2344" y2="537.2344"/><line style="stroke:#181818;stroke-width:1;" x1="667.3521" x2="667.3521" y1="537.2344" y2="550.2344"/><line style="stroke:#181818;stroke-width:1;" x1="626.3521" x2="667.3521" y1="550.2344" y2="550.2344"/><polygon fill="#181818" points="636.3521,546.2344,626.3521,550.2344,636.3521,554.2344,632.3521,550.2344" style="stroke:#181818;stroke-width:1;"/><text fill="#000000" font-family="sans-serif" font-size="13" lengthAdjust="spacing" textLength="135.1162" x="632.3521" y="532.3779">Loads Complex service</text></g><g class="message" data-participant-1="HA" data-participant-2="OX"><polygon fill="#181818" points="365.187,576.5859,355.187,580.5859,365.187,584.5859,361.187,580.5859" style="stroke:#181818;stroke-width:1;"/><line style="stroke:#181818;stroke-width:1;stroke-dasharray:2,2;" x1="359.187" x2="624.3521" y1="580.5859" y2="580.5859"/><text fill="#000000" font-family="sans-serif" font-size="13" lengthAdjust="spacing" textLength="145.2471" x="371.187" y="575.7295">Signals value information</text></g><g class="message" data-participant-1="User" data-participant-2="OX"><polygon fill="#181818" points="332.187,606.9375,342.187,610.9375,332.187,614.9375,336.187,610.9375" style="stroke:#181818;stroke-width:1;"/><line style="stroke:#181818;stroke-width:1;" x1="52.7793" x2="338.187" y1="610.9375" y2="610.9375"/><text fill="#000000" font-family="sans-serif" font-size="13" lengthAdjust="spacing" textLength="153.2134" x="59.7793" y="606.0811">Add and configure widgets</text></g><rect fill="#FEFFDD" height="57" style="stroke:#181818;stroke-width:0.5;" width="133" x="282" y="623.9375"/><text fill="#000000" font-family="sans-serif" font-size="13" lengthAdjust="spacing" textLength="114.8989" x="286" y="641.4326">widget is configured</text><text fill="#000000" font-family="sans-serif" font-size="13" lengthAdjust="spacing" textLength="125.0298" x="286" y="657.7842">with latitude,longitude</text><text fill="#000000" font-family="sans-serif" font-size="13" lengthAdjust="spacing" textLength="122.1479" x="286" y="674.1357">and headlight signals</text><rect fill="#FEFFDD" height="40" style="stroke:#181818;stroke-width:0.5;" width="83" x="307" y="690.9922"/><text fill="#000000" font-family="sans-serif" font-size="13" lengthAdjust="spacing" textLength="75.1499" x="311" y="708.4873">Widget value</text><text fill="#000000" font-family="sans-serif" font-size="13" lengthAdjust="spacing" textLength="59.9917" x="311" y="724.8389">is updated</text><g class="message" data-participant-1="User" data-participant-2="OX"><polygon fill="#181818" points="332.187,755.0469,342.187,759.0469,332.187,763.0469,336.187,759.0469" style="stroke:#181818;stroke-width:1;"/><line style="stroke:#181818;stroke-width:1;" x1="52.7793" x2="338.187" y1="759.0469" y2="759.0469"/><text fill="#000000" font-family="sans-serif" font-size="13" lengthAdjust="spacing" textLength="267.4077" x="59.7793" y="754.1904">Modify latitude and longitude to tunnel location</text></g><g class="message" data-participant-1="OX" data-participant-2="HA"><polygon fill="#181818" points="608.3521,785.3984,618.3521,789.3984,608.3521,793.3984,612.3521,789.3984" style="stroke:#181818;stroke-width:1;"/><line style="stroke:#181818;stroke-width:1;" x1="354.187" x2="614.3521" y1="789.3984" y2="789.3984"/><text fill="#000000" font-family="sans-serif" font-size="13" lengthAdjust="spacing" textLength="247.165" x="361.187" y="784.542">Current Latitude and Longitude information</text></g><g class="message" data-participant-1="HA" data-participant-2="HA"><line style="stroke:#181818;stroke-width:1;" x1="630.3521" x2="672.3521" y1="819.75" y2="819.75"/><line style="stroke:#181818;stroke-width:1;" x1="672.3521" x2="672.3521" y1="819.75" y2="832.75"/><line style="stroke:#181818;stroke-width:1;" x1="631.3521" x2="672.3521" y1="832.75" y2="832.75"/><polygon fill="#181818" points="641.3521,828.75,631.3521,832.75,641.3521,836.75,637.3521,832.75" style="stroke:#181818;stroke-width:1;"/><text fill="#000000" font-family="sans-serif" font-size="13" lengthAdjust="spacing" textLength="122.8589" x="637.3521" y="814.8936">Toggles Headlight on</text></g><g class="message" data-participant-1="HA" data-participant-2="OX"><polygon fill="#181818" points="365.187,859.1016,355.187,863.1016,365.187,867.1016,361.187,863.1016" style="stroke:#181818;stroke-width:1;"/><line style="stroke:#181818;stroke-width:1;" x1="359.187" x2="624.3521" y1="863.1016" y2="863.1016"/><text fill="#000000" font-family="sans-serif" font-size="13" lengthAdjust="spacing" textLength="113.4707" x="371.187" y="858.2451">Headlight turned on</text></g><rect fill="#FEFFDD" height="40" style="stroke:#181818;stroke-width:0.5;" width="83" x="307" y="876.1016"/><text fill="#000000" font-family="sans-serif" font-size="13" lengthAdjust="spacing" textLength="75.1499" x="311" y="893.5967">Widget value</text><text fill="#000000" font-family="sans-serif" font-size="13" lengthAdjust="spacing" textLength="59.9917" x="311" y="909.9482">is updated</text><!--SRC=[dLJ1Rk8m4BtxAqRq0cYfADssB8TAAQMY5L7HGhkzEl4aM3LsP3if_VkT91G2xVQmHzjltfltPXBtAdN6BL-3m8JdojyPxST66GkHul4hOy1ZJwVMaqFROa1WBsEPSUsXzPYXtaZL0kxWyOMmaTb0QsmimhrsdkiOMt0o74J3Q9Wa3ERDuYboeMIwyX1acP8nzzBeYceQm4c_7rm5DmnGYvALkAqs7i4KQA7iXS42FSpV_SfeGXKrj08Hk4H0xvgwWX4iFEc2No5i6wvToO8JOTLtWvlE5Un5Ad1b8Oflg6U62zWxkGkVeFqSpEyxh7md57cfKQu1utl3H2Zmi1agEIoi0YNLGiRe3fgT1kmVjA2gqcxteBZR9UUb5qobysY9BJ5AcJUfKt0orLov4OEpKnZdrYADQKPqFXV8OD2uD3hTtfwVDXgOcRS8-VeWho_y5BYIiK8oldNq2H5n9-E6vIyYMMSADn-Geu4IijUxhcTVcuA2gnn1wiJOzJQXHkwKuz5W0o6gf6AZ4vdcbE6R52bwztbRwWUGRWyMvQrVWTgczqFj4ojPLxl8jg4VhjYHm9zQeBB0Ifqy4_pxlGoDaCdxJhyItVK0te3FjKP5TxirREphyV2hyjtG3rDiPjYSqzAagSBcrbSgDQBgSV_YSwjHmEUX_5yIZCqL_MAUmXcjcdNK9ctqe3-uEFtL3kcmm0pwGpYx6brSZiw7C9uibb2-TrWxl5-2CxcDQJtf4x4ooakV7VR02mw_S-tb6aTGdjhBi0EBoSSbJ7GXhT5hIeuzF8Sr2AR6BpBZA_3bpzwDzAHlIqFF8RkjVxfK6jF0T4hHPsU3Ym6RSPtcF2KbMfcn8GNxFeBRoLy0]--></g></svg>