<svg xmlns="http://www.w3.org/2000/svg" xmlns:xlink="http://www.w3.org/1999/xlink" contentStyleType="text/css" data-diagram-type="CLASS" height="234px" preserveAspectRatio="none" style="width:1468px;height:234px;background:#FFFFFF;" version="1.1" viewBox="0 0 1468 234" width="1468px" zoomAndPan="magnify"><defs/><g><!--cluster vss--><g class="cluster" data-entity="vss" data-source-line="2" data-uid="ent0003" id="cluster_vss"><path d="M8.5,6 L32.8584,6 A3.75,3.75 0 0 1 35.3584,8.5 L42.3584,29.6094 L1458.5,29.6094 A2.5,2.5 0 0 1 1461,32.1094 L1461,224.5 A2.5,2.5 0 0 1 1458.5,227 L8.5,227 A2.5,2.5 0 0 1 6,224.5 L6,8.5 A2.5,2.5 0 0 1 8.5,6" fill="none" style="stroke:#000000;stroke-width:1.5;"/><line style="stroke:#000000;stroke-width:1.5;" x1="6" x2="42.3584" y1="29.6094" y2="29.6094"/><text fill="#000000" font-family="sans-serif" font-size="14" font-weight="bold" lengthAdjust="spacing" textLength="23.3584" x="10" y="22.5332">vss</text></g><!--cluster Device--><g class="cluster" data-entity="Device" data-source-line="2" data-uid="ent0004" id="cluster_Device"><path d="M630.5,59 L676.6445,59 A3.75,3.75 0 0 1 679.1445,61.5 L686.1445,82.6094 L1434.5,82.6094 A2.5,2.5 0 0 1 1437,85.1094 L1437,191.5 A2.5,2.5 0 0 1 1434.5,194 L630.5,194 A2.5,2.5 0 0 1 628,191.5 L628,61.5 A2.5,2.5 0 0 1 630.5,59" fill="none" style="stroke:#000000;stroke-width:1.5;"/><line style="stroke:#000000;stroke-width:1.5;" x1="628" x2="686.1445" y1="82.6094" y2="82.6094"/><text fill="#000000" font-family="sans-serif" font-size="14" font-weight="bold" lengthAdjust="spacing" textLength="45.1445" x="632" y="75.5332">Device</text></g><!--cluster Service--><g class="cluster" data-entity="Service" data-source-line="12" data-uid="ent0007" id="cluster_Service"><path d="M32.5,50 L83.3203,50 A3.75,3.75 0 0 1 85.8203,52.5 L92.8203,73.6094 L601.5,73.6094 A2.5,2.5 0 0 1 604,76.1094 L604,200.5 A2.5,2.5 0 0 1 601.5,203 L32.5,203 A2.5,2.5 0 0 1 30,200.5 L30,52.5 A2.5,2.5 0 0 1 32.5,50" fill="none" style="stroke:#000000;stroke-width:1.5;"/><line style="stroke:#000000;stroke-width:1.5;" x1="30" x2="92.8203" y1="73.6094" y2="73.6094"/><text fill="#000000" font-family="sans-serif" font-size="14" font-weight="bold" lengthAdjust="spacing" textLength="49.8203" x="34" y="66.5332">Service</text></g><!--class IReceptionSignalSpeed_Event--><g class="entity" data-entity="IReceptionSignalSpeed_Event" data-source-line="2" data-uid="ent0002" id="entity_IReceptionSignalSpeed_Event"><rect fill="#F1F1F1" height="65.6094" rx="2.5" ry="2.5" style="stroke:#181818;stroke-width:0.5;" width="268.8262" x="1151.5" y="103.5"/><ellipse cx="1187.6096" cy="119.5" fill="#B4A7E5" rx="11" ry="11" style="stroke:#181818;stroke-width:1;"/><path d="M1188.5627,116.1406 L1188.5627,122.7969 L1190.2814,122.7969 Q1190.8908,122.7969 1191.1564,123.0313 Q1191.4221,123.2656 1191.4221,123.6563 Q1191.4221,124.0313 1191.1564,124.2656 Q1190.8908,124.5 1190.2814,124.5 L1185.1408,124.5 Q1184.5314,124.5 1184.2658,124.2656 Q1184.0002,124.0313 1184.0002,123.6406 Q1184.0002,123.2656 1184.2658,123.0313 Q1184.5314,122.7969 1185.1408,122.7969 L1186.8596,122.7969 L1186.8596,116.1406 L1185.1408,116.1406 Q1184.5314,116.1406 1184.2658,115.9063 Q1184.0002,115.6719 1184.0002,115.2813 Q1184.0002,114.9063 1184.2658,114.6719 Q1184.5314,114.4375 1185.1408,114.4375 L1190.2814,114.4375 Q1190.8908,114.4375 1191.1564,114.6719 Q1191.4221,114.9063 1191.4221,115.2813 Q1191.4221,115.6719 1191.1564,115.9063 Q1190.8908,116.1406 1190.2814,116.1406 L1188.5627,116.1406 Z " fill="#000000"/><text fill="#000000" font-family="sans-serif" font-size="14" font-style="italic" lengthAdjust="spacing" textLength="189.916" x="1206.3006" y="125.2285">IReceptionSignalSpeed_Event</text><line style="stroke:#181818;stroke-width:0.5;" x1="1152.5" x2="1419.3262" y1="135.5" y2="135.5"/><line style="stroke:#181818;stroke-width:0.5;" x1="1152.5" x2="1419.3262" y1="143.5" y2="143.5"/><text fill="#000000" font-family="sans-serif" font-size="14" lengthAdjust="spacing" textLength="256.8262" x="1157.5" y="162.0332">virtual void SetSpeedValue(int32_t value)</text></g><!--class IReceptionSignalSpeed--><g class="entity" data-entity="IReceptionSignalSpeed" data-source-line="6" data-uid="ent0005" id="entity_IReceptionSignalSpeed"><rect fill="#F1F1F1" height="83.2188" rx="2.5" ry="2.5" style="stroke:#181818;stroke-width:0.5;" width="471.9424" x="644" y="95"/><ellipse cx="802.5562" cy="111" fill="#B4A7E5" rx="11" ry="11" style="stroke:#181818;stroke-width:1;"/><path d="M803.5093,107.6406 L803.5093,114.2969 L805.228,114.2969 Q805.8374,114.2969 806.103,114.5313 Q806.3687,114.7656 806.3687,115.1563 Q806.3687,115.5313 806.103,115.7656 Q805.8374,116 805.228,116 L800.0874,116 Q799.478,116 799.2124,115.7656 Q798.9468,115.5313 798.9468,115.1406 Q798.9468,114.7656 799.2124,114.5313 Q799.478,114.2969 800.0874,114.2969 L801.8062,114.2969 L801.8062,107.6406 L800.0874,107.6406 Q799.478,107.6406 799.2124,107.4063 Q798.9468,107.1719 798.9468,106.7813 Q798.9468,106.4063 799.2124,106.1719 Q799.478,105.9375 800.0874,105.9375 L805.228,105.9375 Q805.8374,105.9375 806.103,106.1719 Q806.3687,106.4063 806.3687,106.7813 Q806.3687,107.1719 806.103,107.4063 Q805.8374,107.6406 805.228,107.6406 L803.5093,107.6406 Z " fill="#000000"/><text fill="#000000" font-family="sans-serif" font-size="14" font-style="italic" lengthAdjust="spacing" textLength="146.3301" x="823.0562" y="116.7285">IReceptionSignalSpeed</text><line style="stroke:#181818;stroke-width:0.5;" x1="645" x2="1114.9424" y1="127" y2="127"/><line style="stroke:#181818;stroke-width:0.5;" x1="645" x2="1114.9424" y1="135" y2="135"/><text fill="#000000" font-family="sans-serif" font-size="14" lengthAdjust="spacing" textLength="442.0459" x="650" y="153.5332">virtual void RegisterSpeedEvent(IReceptionSignalSpeed_Event* event)</text><text fill="#000000" font-family="sans-serif" font-size="14" lengthAdjust="spacing" textLength="459.9424" x="650" y="171.1426">virtual void UnRegisterSpeedEvent(IReceptionSignalSpeed_Event* event)</text></g><!--class IReceptionSignalSpeed--><g class="entity" data-entity="IReceptionSignalSpeed" data-source-line="12" data-uid="ent0006" id="entity_IReceptionSignalSpeed"><rect fill="#F1F1F1" height="100.8281" rx="2.5" ry="2.5" style="stroke:#181818;stroke-width:0.5;" width="541.1357" x="46.5" y="86"/><ellipse cx="239.6528" cy="102" fill="#B4A7E5" rx="11" ry="11" style="stroke:#181818;stroke-width:1;"/><path d="M240.606,98.6406 L240.606,105.2969 L242.3247,105.2969 Q242.9341,105.2969 243.1997,105.5313 Q243.4653,105.7656 243.4653,106.1563 Q243.4653,106.5313 243.1997,106.7656 Q242.9341,107 242.3247,107 L237.1841,107 Q236.5747,107 236.3091,106.7656 Q236.0435,106.5313 236.0435,106.1406 Q236.0435,105.7656 236.3091,105.5313 Q236.5747,105.2969 237.1841,105.2969 L238.9028,105.2969 L238.9028,98.6406 L237.1841,98.6406 Q236.5747,98.6406 236.3091,98.4063 Q236.0435,98.1719 236.0435,97.7813 Q236.0435,97.4063 236.3091,97.1719 Q236.5747,96.9375 237.1841,96.9375 L242.3247,96.9375 Q242.9341,96.9375 243.1997,97.1719 Q243.4653,97.4063 243.4653,97.7813 Q243.4653,98.1719 243.1997,98.4063 Q242.9341,98.6406 242.3247,98.6406 L240.606,98.6406 Z " fill="#000000"/><text fill="#000000" font-family="sans-serif" font-size="14" font-style="italic" lengthAdjust="spacing" textLength="146.3301" x="260.1528" y="107.7285">IReceptionSignalSpeed</text><line style="stroke:#181818;stroke-width:0.5;" x1="47.5" x2="586.6357" y1="118" y2="118"/><line style="stroke:#181818;stroke-width:0.5;" x1="47.5" x2="586.6357" y1="126" y2="126"/><text fill="#000000" font-family="sans-serif" font-size="14" lengthAdjust="spacing" textLength="195.3369" x="52.5" y="144.5332">virtual int32_t GetSpeedValue()</text><text fill="#000000" font-family="sans-serif" font-size="14" lengthAdjust="spacing" textLength="516.6875" x="52.5" y="162.1426">virtual void RegisterCallBack(vss::Device::IReceptionSignalSpeed_Event* callback)</text><text fill="#000000" font-family="sans-serif" font-size="14" lengthAdjust="spacing" textLength="529.1357" x="52.5" y="179.752">virtual void UnregisterCallBack(vss::Device::IReceptionSignalSpeed_Event* callback)</text></g><!--SRC=[hL4z2uCm4DtxAsvKntRBs0-Agw5TvHgl4XgYn3DByRyt4JeKL6ffu182xxsxzmu0Ek9GBJhane4G6m38BPExeoBmNIV4aRnM94HUaAAMTMEbhYqQsH9LvScJvSXwnYiShnttQC0tkW99FCAkQ7fAjENTjcJmyPT6_B2stsodWchT1PqHDGwLB0oS0SKddLAwsD-rXis48KbkfQDtKEUF-D8btmSqPe_gaNoximnKeDm2PIO5zoVbuGK0]--></g></svg>