<svg xmlns="http://www.w3.org/2000/svg" xmlns:xlink="http://www.w3.org/1999/xlink" contentStyleType="text/css" data-diagram-type="CLASS" height="953px" preserveAspectRatio="none" style="width:2019px;height:953px;background:#F8FAFC;" version="1.1" viewBox="0 0 2019 953" width="2019px" zoomAndPan="magnify"><defs/><g><rect fill="#F8FAFC" height="953" style="stroke:none;stroke-width:1;" width="2019" x="0" y="0"/><!--cluster sdv--><g class="cluster" data-entity="sdv" data-source-line="28" data-uid="ent0002" id="cluster_sdv"><rect fill="#F0F9FF" height="135" rx="2.5" ry="2.5" style="stroke:#2563EB;stroke-width:1.5;" width="172" x="119.5" y="700.5"/><text fill="#111827" font-family="sans-serif" font-size="14" font-weight="bold" lengthAdjust="spacing" textLength="24.124" x="193.438" y="717.0332">sdv</text></g><!--cluster vss--><g class="cluster" data-entity="vss" data-source-line="36" data-uid="ent0006" id="cluster_vss"><rect fill="#F0F9FF" height="458" rx="2.5" ry="2.5" style="stroke:#2563EB;stroke-width:1.5;" width="1402" x="315.5" y="489"/><text fill="#111827" font-family="sans-serif" font-size="14" font-weight="bold" lengthAdjust="spacing" textLength="23.3584" x="1004.8208" y="505.5332">vss</text></g><!--cluster Vehicle--><g class="cluster" data-entity="Vehicle" data-source-line="36" data-uid="ent0007" id="cluster_Vehicle"><rect fill="#F0F9FF" height="390" rx="2.5" ry="2.5" style="stroke:#2563EB;stroke-width:1.5;" width="1354" x="339.5" y="533"/><text fill="#111827" font-family="sans-serif" font-size="14" font-weight="bold" lengthAdjust="spacing" textLength="49.0273" x="991.9863" y="549.5332">Vehicle</text></g><!--cluster Body--><g class="cluster" data-entity="Body" data-source-line="36" data-uid="ent0008" id="cluster_Body"><rect fill="#F0F9FF" height="322" rx="2.5" ry="2.5" style="stroke:#2563EB;stroke-width:1.5;" width="1306" x="363.5" y="577"/><text fill="#111827" font-family="sans-serif" font-size="14" font-weight="bold" lengthAdjust="spacing" textLength="35" x="999" y="593.5332">Body</text></g><!--cluster Weather--><g class="cluster" data-entity="Weather" data-source-line="36" data-uid="ent0009" id="cluster_Weather"><rect fill="#F0F9FF" height="186" rx="2.5" ry="2.5" style="stroke:#2563EB;stroke-width:1.5;" width="280" x="387.5" y="665"/><text fill="#111827" font-family="sans-serif" font-size="14" font-weight="bold" lengthAdjust="spacing" textLength="55.2344" x="499.8828" y="681.5332">Weather</text></g><!--cluster RainService--><g class="cluster" data-entity="RainService" data-source-line="35" data-uid="ent0004" id="cluster_RainService"><rect fill="#F0F9FF" height="118" rx="2.5" ry="2.5" style="stroke:#2563EB;stroke-width:1.5;" width="232" x="411.5" y="709"/><text fill="#111827" font-family="sans-serif" font-size="14" font-weight="bold" lengthAdjust="spacing" textLength="80.1582" x="487.4209" y="725.5332">RainService</text></g><!--cluster Windshield--><g class="cluster" data-entity="Windshield" data-source-line="42" data-uid="ent0012" id="cluster_Windshield"><rect fill="#F0F9FF" height="254" rx="2.5" ry="2.5" style="stroke:#2563EB;stroke-width:1.5;" width="954" x="691.5" y="621"/><text fill="#111827" font-family="sans-serif" font-size="14" font-weight="bold" lengthAdjust="spacing" textLength="74.6621" x="1131.1689" y="637.5332">Windshield</text></g><!--cluster Wiper--><g class="cluster" data-entity="Wiper" data-source-line="42" data-uid="ent0013" id="cluster_Wiper"><rect fill="#F0F9FF" height="186" rx="2.5" ry="2.5" style="stroke:#2563EB;stroke-width:1.5;" width="906" x="715.5" y="665"/><text fill="#111827" font-family="sans-serif" font-size="14" font-weight="bold" lengthAdjust="spacing" textLength="38.8896" x="1149.0552" y="681.5332">Wiper</text></g><!--cluster ModeService--><g class="cluster" data-entity="ModeService" data-source-line="41" data-uid="ent0010" id="cluster_ModeService"><rect fill="#F0F9FF" height="118" rx="2.5" ry="2.5" style="stroke:#2563EB;stroke-width:1.5;" width="296" x="739.5" y="709"/><text fill="#111827" font-family="sans-serif" font-size="14" font-weight="bold" lengthAdjust="spacing" textLength="86.3721" x="844.314" y="725.5332">ModeService</text></g><!--cluster RearService--><g class="cluster" data-entity="RearService" data-source-line="47" data-uid="ent0014" id="cluster_RearService"><rect fill="#F0F9FF" height="118" rx="2.5" ry="2.5" style="stroke:#2563EB;stroke-width:1.5;" width="256" x="1059.5" y="709"/><text fill="#111827" font-family="sans-serif" font-size="14" font-weight="bold" lengthAdjust="spacing" textLength="80.9512" x="1147.0244" y="725.5332">RearService</text></g><!--cluster FrontService--><g class="cluster" data-entity="FrontService" data-source-line="53" data-uid="ent0016" id="cluster_FrontService"><rect fill="#F0F9FF" height="118" rx="2.5" ry="2.5" style="stroke:#2563EB;stroke-width:1.5;" width="258" x="1339.5" y="709"/><text fill="#111827" font-family="sans-serif" font-size="14" font-weight="bold" lengthAdjust="spacing" textLength="85.5859" x="1425.707" y="725.5332">FrontService</text></g><!--cluster WiperComplex--><g class="cluster" data-entity="WiperComplex" data-source-line="59" data-uid="ent0018" id="cluster_WiperComplex"><rect fill="#F0F9FF" height="118" rx="2.5" ry="2.5" style="stroke:#2563EB;stroke-width:1.5;" width="272" x="1741.5" y="709"/><text fill="#111827" font-family="sans-serif" font-size="14" font-weight="bold" lengthAdjust="spacing" textLength="98.0137" x="1828.4932" y="725.5332">WiperComplex</text></g><!--class CSdvObject--><g class="entity" data-entity="CSdvObject" data-source-line="29" data-uid="ent0003" id="entity_CSdvObject"><rect fill="#EFF6FF" height="83.2188" rx="2.5" ry="2.5" style="stroke:#2563EB;stroke-width:0.5;" width="140.0166" x="135.5" y="736.5"/><ellipse cx="165.4941" cy="752.5" fill="#A9DCDF" rx="11" ry="11" style="stroke:#181818;stroke-width:1;"/><path d="M167.6816,754.2656 L163.541,754.2656 L163.1191,755.2969 L163.541,755.2969 Q164.1504,755.2969 164.416,755.5313 Q164.6816,755.7656 164.6816,756.1563 Q164.6816,756.5313 164.416,756.7656 Q164.1504,757 163.541,757 L161.2441,757 Q160.6348,757 160.377,756.7656 Q160.1191,756.5313 160.1191,756.1406 Q160.1191,755.7656 160.3926,755.5234 Q160.666,755.2813 161.291,755.2969 L163.9629,748.6406 L162.8535,748.6406 Q162.2441,748.6406 161.9785,748.4063 Q161.7129,748.1719 161.7129,747.7813 Q161.7129,747.4063 161.9785,747.1719 Q162.2441,746.9375 162.8535,746.9375 L166.5254,746.9375 L169.916,755.2969 Q170.5098,755.2969 170.6973,755.4375 Q171.0879,755.7031 171.0879,756.1563 Q171.0879,756.5313 170.8301,756.7656 Q170.5723,757 169.9629,757 L167.666,757 Q167.0566,757 166.791,756.7656 Q166.5254,756.5313 166.5254,756.1406 Q166.5254,755.7656 166.791,755.5313 Q167.0566,755.2969 167.666,755.2969 L168.0879,755.2969 L167.6816,754.2656 Z M166.9629,752.5625 L165.6035,749.1875 L164.2285,752.5625 L166.9629,752.5625 Z " fill="#000000"/><text fill="#111827" font-family="sans-serif" font-size="14" font-style="italic" lengthAdjust="spacing" textLength="74.6963" x="182.8262" y="758.2285">CSdvObject</text><line style="stroke:#2563EB;stroke-width:0.5;" x1="136.5" x2="274.5166" y1="768.5" y2="768.5"/><line style="stroke:#2563EB;stroke-width:0.5;" x1="136.5" x2="274.5166" y1="776.5" y2="776.5"/><text fill="#000000" font-family="sans-serif" font-size="14" font-style="italic" lengthAdjust="spacing" textLength="117.1133" x="141.5" y="795.0332">+bool OnInitialize()</text><text fill="#000000" font-family="sans-serif" font-size="14" font-style="italic" lengthAdjust="spacing" textLength="128.0166" x="141.5" y="812.6426">+void OnShutdown()</text></g><!--class IVSS_SetDetected_Event--><g class="entity" data-entity="IVSS_SetDetected_Event" data-source-line="36" data-uid="ent0005" id="entity_IVSS_SetDetected_Event"><rect fill="#EFF6FF" height="65.6094" rx="2.5" ry="2.5" style="stroke:#2563EB;stroke-width:0.5;" width="199.9473" x="427.5" y="745"/><ellipse cx="445.9308" cy="761" fill="#B4A7E5" rx="11" ry="11" style="stroke:#181818;stroke-width:1;"/><path d="M446.8839,757.6406 L446.8839,764.2969 L448.6027,764.2969 Q449.2121,764.2969 449.4777,764.5313 Q449.7433,764.7656 449.7433,765.1563 Q449.7433,765.5313 449.4777,765.7656 Q449.2121,766 448.6027,766 L443.4621,766 Q442.8527,766 442.5871,765.7656 Q442.3214,765.5313 442.3214,765.1406 Q442.3214,764.7656 442.5871,764.5313 Q442.8527,764.2969 443.4621,764.2969 L445.1808,764.2969 L445.1808,757.6406 L443.4621,757.6406 Q442.8527,757.6406 442.5871,757.4063 Q442.3214,757.1719 442.3214,756.7813 Q442.3214,756.4063 442.5871,756.1719 Q442.8527,755.9375 443.4621,755.9375 L448.6027,755.9375 Q449.2121,755.9375 449.4777,756.1719 Q449.7433,756.4063 449.7433,756.7813 Q449.7433,757.1719 449.4777,757.4063 Q449.2121,757.6406 448.6027,757.6406 L446.8839,757.6406 Z " fill="#000000"/><text fill="#111827" font-family="sans-serif" font-size="14" font-style="italic" lengthAdjust="spacing" textLength="160.3232" x="460.6932" y="766.7285">IVSS_SetDetected_Event</text><line style="stroke:#2563EB;stroke-width:0.5;" x1="428.5" x2="626.4473" y1="777" y2="777"/><line style="stroke:#2563EB;stroke-width:0.5;" x1="428.5" x2="626.4473" y1="785" y2="785"/><text fill="#000000" font-family="sans-serif" font-size="14" lengthAdjust="spacing" textLength="187.9473" x="433.5" y="803.5332">+void SetDetected(bool value)</text></g><!--class IVSS_SetMode_Event--><g class="entity" data-entity="IVSS_SetMode_Event" data-source-line="42" data-uid="ent0011" id="entity_IVSS_SetMode_Event"><rect fill="#EFF6FF" height="65.6094" rx="2.5" ry="2.5" style="stroke:#2563EB;stroke-width:0.5;" width="262.9541" x="756" y="745"/><ellipse cx="813.5723" cy="761" fill="#B4A7E5" rx="11" ry="11" style="stroke:#181818;stroke-width:1;"/><path d="M814.5254,757.6406 L814.5254,764.2969 L816.2441,764.2969 Q816.8535,764.2969 817.1191,764.5313 Q817.3848,764.7656 817.3848,765.1563 Q817.3848,765.5313 817.1191,765.7656 Q816.8535,766 816.2441,766 L811.1035,766 Q810.4941,766 810.2285,765.7656 Q809.9629,765.5313 809.9629,765.1406 Q809.9629,764.7656 810.2285,764.5313 Q810.4941,764.2969 811.1035,764.2969 L812.8223,764.2969 L812.8223,757.6406 L811.1035,757.6406 Q810.4941,757.6406 810.2285,757.4063 Q809.9629,757.1719 809.9629,756.7813 Q809.9629,756.4063 810.2285,756.1719 Q810.4941,755.9375 811.1035,755.9375 L816.2441,755.9375 Q816.8535,755.9375 817.1191,756.1719 Q817.3848,756.4063 817.3848,756.7813 Q817.3848,757.1719 817.1191,757.4063 Q816.8535,757.6406 816.2441,757.6406 L814.5254,757.6406 Z " fill="#000000"/><text fill="#111827" font-family="sans-serif" font-size="14" font-style="italic" lengthAdjust="spacing" textLength="139.3096" x="834.0723" y="766.7285">IVSS_SetMode_Event</text><line style="stroke:#2563EB;stroke-width:0.5;" x1="757" x2="1017.9541" y1="777" y2="777"/><line style="stroke:#2563EB;stroke-width:0.5;" x1="757" x2="1017.9541" y1="785" y2="785"/><text fill="#000000" font-family="sans-serif" font-size="14" lengthAdjust="spacing" textLength="250.9541" x="762" y="803.5332">+void SetMode(const sdv::string&amp; value)</text></g><!--class IVSS_SetIsRearActive--><g class="entity" data-entity="IVSS_SetIsRearActive" data-source-line="48" data-uid="ent0015" id="entity_IVSS_SetIsRearActive"><rect fill="#EFF6FF" height="65.6094" rx="2.5" ry="2.5" style="stroke:#2563EB;stroke-width:0.5;" width="224.0576" x="1075.5" y="745"/><ellipse cx="1113.8982" cy="761" fill="#B4A7E5" rx="11" ry="11" style="stroke:#181818;stroke-width:1;"/><path d="M1114.8514,757.6406 L1114.8514,764.2969 L1116.5701,764.2969 Q1117.1795,764.2969 1117.4451,764.5313 Q1117.7107,764.7656 1117.7107,765.1563 Q1117.7107,765.5313 1117.4451,765.7656 Q1117.1795,766 1116.5701,766 L1111.4295,766 Q1110.8201,766 1110.5545,765.7656 Q1110.2889,765.5313 1110.2889,765.1406 Q1110.2889,764.7656 1110.5545,764.5313 Q1110.8201,764.2969 1111.4295,764.2969 L1113.1482,764.2969 L1113.1482,757.6406 L1111.4295,757.6406 Q1110.8201,757.6406 1110.5545,757.4063 Q1110.2889,757.1719 1110.2889,756.7813 Q1110.2889,756.4063 1110.5545,756.1719 Q1110.8201,755.9375 1111.4295,755.9375 L1116.5701,755.9375 Q1117.1795,755.9375 1117.4451,756.1719 Q1117.7107,756.4063 1117.7107,756.7813 Q1117.7107,757.1719 1117.4451,757.4063 Q1117.1795,757.6406 1116.5701,757.6406 L1114.8514,757.6406 Z " fill="#000000"/><text fill="#111827" font-family="sans-serif" font-size="14" font-style="italic" lengthAdjust="spacing" textLength="140.0615" x="1133.0979" y="766.7285">IVSS_SetIsRearActive</text><line style="stroke:#2563EB;stroke-width:0.5;" x1="1076.5" x2="1298.5576" y1="777" y2="777"/><line style="stroke:#2563EB;stroke-width:0.5;" x1="1076.5" x2="1298.5576" y1="785" y2="785"/><text fill="#000000" font-family="sans-serif" font-size="14" lengthAdjust="spacing" textLength="212.0576" x="1081.5" y="803.5332">+bool SetIsRearActive(bool value)</text></g><!--class IVSS_SetIsFrontActive--><g class="entity" data-entity="IVSS_SetIsFrontActive" data-source-line="54" data-uid="ent0017" id="entity_IVSS_SetIsFrontActive"><rect fill="#EFF6FF" height="65.6094" rx="2.5" ry="2.5" style="stroke:#2563EB;stroke-width:0.5;" width="226.3887" x="1355.5" y="745"/><ellipse cx="1393.8982" cy="761" fill="#B4A7E5" rx="11" ry="11" style="stroke:#181818;stroke-width:1;"/><path d="M1394.8514,757.6406 L1394.8514,764.2969 L1396.5701,764.2969 Q1397.1795,764.2969 1397.4451,764.5313 Q1397.7107,764.7656 1397.7107,765.1563 Q1397.7107,765.5313 1397.4451,765.7656 Q1397.1795,766 1396.5701,766 L1391.4295,766 Q1390.8201,766 1390.5545,765.7656 Q1390.2889,765.5313 1390.2889,765.1406 Q1390.2889,764.7656 1390.5545,764.5313 Q1390.8201,764.2969 1391.4295,764.2969 L1393.1482,764.2969 L1393.1482,757.6406 L1391.4295,757.6406 Q1390.8201,757.6406 1390.5545,757.4063 Q1390.2889,757.1719 1390.2889,756.7813 Q1390.2889,756.4063 1390.5545,756.1719 Q1390.8201,755.9375 1391.4295,755.9375 L1396.5701,755.9375 Q1397.1795,755.9375 1397.4451,756.1719 Q1397.7107,756.4063 1397.7107,756.7813 Q1397.7107,757.1719 1397.4451,757.4063 Q1397.1795,757.6406 1396.5701,757.6406 L1394.8514,757.6406 Z " fill="#000000"/><text fill="#111827" font-family="sans-serif" font-size="14" font-style="italic" lengthAdjust="spacing" textLength="142.3926" x="1413.0979" y="766.7285">IVSS_SetIsFrontActive</text><line style="stroke:#2563EB;stroke-width:0.5;" x1="1356.5" x2="1580.8887" y1="777" y2="777"/><line style="stroke:#2563EB;stroke-width:0.5;" x1="1356.5" x2="1580.8887" y1="785" y2="785"/><text fill="#000000" font-family="sans-serif" font-size="14" lengthAdjust="spacing" textLength="214.3887" x="1361.5" y="803.5332">+bool SetIsFrontActive(bool value)</text></g><!--class IWiperComplexService--><g class="entity" data-entity="IWiperComplexService" data-source-line="60" data-uid="ent0019" id="entity_IWiperComplexService"><rect fill="#EFF6FF" height="65.6094" rx="2.5" ry="2.5" style="stroke:#2563EB;stroke-width:0.5;" width="239.582" x="1757.5" y="745"/><ellipse cx="1801.855" cy="761" fill="#B4A7E5" rx="11" ry="11" style="stroke:#181818;stroke-width:1;"/><path d="M1802.8081,757.6406 L1802.8081,764.2969 L1804.5269,764.2969 Q1805.1362,764.2969 1805.4019,764.5313 Q1805.6675,764.7656 1805.6675,765.1563 Q1805.6675,765.5313 1805.4019,765.7656 Q1805.1362,766 1804.5269,766 L1799.3862,766 Q1798.7769,766 1798.5112,765.7656 Q1798.2456,765.5313 1798.2456,765.1406 Q1798.2456,764.7656 1798.5112,764.5313 Q1798.7769,764.2969 1799.3862,764.2969 L1801.105,764.2969 L1801.105,757.6406 L1799.3862,757.6406 Q1798.7769,757.6406 1798.5112,757.4063 Q1798.2456,757.1719 1798.2456,756.7813 Q1798.2456,756.4063 1798.5112,756.1719 Q1798.7769,755.9375 1799.3862,755.9375 L1804.5269,755.9375 Q1805.1362,755.9375 1805.4019,756.1719 Q1805.6675,756.4063 1805.6675,756.7813 Q1805.6675,757.1719 1805.4019,757.4063 Q1805.1362,757.6406 1804.5269,757.6406 L1802.8081,757.6406 Z " fill="#000000"/><text fill="#111827" font-family="sans-serif" font-size="14" font-style="italic" lengthAdjust="spacing" textLength="142.3721" x="1822.355" y="766.7285">IWiperComplexService</text><line style="stroke:#2563EB;stroke-width:0.5;" x1="1758.5" x2="1996.082" y1="777" y2="777"/><line style="stroke:#2563EB;stroke-width:0.5;" x1="1758.5" x2="1996.082" y1="785" y2="785"/><text fill="#000000" font-family="sans-serif" font-size="14" lengthAdjust="spacing" textLength="227.582" x="1763.5" y="803.5332">+bool TriggerWipersAfterThreshold()</text></g><!--class CWiperExampleService--><g class="entity" data-entity="CWiperExampleService" data-source-line="65" data-uid="ent0020" id="entity_CWiperExampleService"><rect fill="#EFF6FF" height="417.7969" rx="2.5" ry="2.5" style="stroke:#2563EB;stroke-width:0.5;" width="381.6328" x="696.5" y="7"/><ellipse cx="809.1563" cy="23" fill="#ADD1B2" rx="11" ry="11" style="stroke:#181818;stroke-width:1;"/><path d="M811.9219,18.875 Q812.0781,18.6563 812.2656,18.5469 Q812.4531,18.4375 812.6719,18.4375 Q813.0469,18.4375 813.2813,18.6953 Q813.5156,18.9531 813.5156,19.5625 L813.5156,21.0156 Q813.5156,21.625 813.2813,21.8906 Q813.0469,22.1563 812.6719,22.1563 Q812.3281,22.1563 812.125,21.9531 Q811.9219,21.7656 811.8125,21.25 Q811.7656,20.8906 811.5781,20.7031 Q811.25,20.3281 810.6406,20.1094 Q810.0313,19.8906 809.4063,19.8906 Q808.6406,19.8906 808.0078,20.2188 Q807.375,20.5469 806.8828,21.2969 Q806.3906,22.0469 806.3906,23.0781 L806.3906,24.1719 Q806.3906,25.4063 807.2813,26.2266 Q808.1719,27.0469 809.7656,27.0469 Q810.7031,27.0469 811.3594,26.7969 Q811.75,26.6406 812.1719,26.2031 Q812.4375,25.9375 812.5859,25.8594 Q812.7344,25.7813 812.9375,25.7813 Q813.2656,25.7813 813.5234,26.0391 Q813.7813,26.2969 813.7813,26.6406 Q813.7813,26.9844 813.4375,27.3906 Q812.9375,27.9688 812.1406,28.2969 Q811.0625,28.75 809.7656,28.75 Q808.25,28.75 807.0469,28.125 Q806.0625,27.625 805.375,26.5547 Q804.6875,25.4844 804.6875,24.2031 L804.6875,23.0469 Q804.6875,21.7188 805.3047,20.5703 Q805.9219,19.4219 807.0156,18.8047 Q808.1094,18.1875 809.3438,18.1875 Q810.0781,18.1875 810.7266,18.3516 Q811.375,18.5156 811.9219,18.875 Z " fill="#000000"/><text fill="#111827" font-family="sans-serif" font-size="14" lengthAdjust="spacing" textLength="147.8203" x="829.6563" y="28.7285">CWiperExampleService</text><line style="stroke:#2563EB;stroke-width:0.5;" x1="697.5" x2="1077.1328" y1="39" y2="39"/><text fill="#000000" font-family="sans-serif" font-size="14" lengthAdjust="spacing" textLength="150.1855" x="702.5" y="57.5332">-bool m_IsRainDetected</text><text fill="#000000" font-family="sans-serif" font-size="14" lengthAdjust="spacing" textLength="172.7168" x="702.5" y="75.1426">-bool m_WiperFrontIsActive</text><text fill="#000000" font-family="sans-serif" font-size="14" lengthAdjust="spacing" textLength="170.3857" x="702.5" y="92.752">-bool m_WiperRearIsActive</text><text fill="#000000" font-family="sans-serif" font-size="14" lengthAdjust="spacing" textLength="163.3789" x="702.5" y="110.3613">-sdv::string m_WiperMode</text><text fill="#000000" font-family="sans-serif" font-size="14" lengthAdjust="spacing" textLength="133.0547" x="702.5" y="127.9707">-CConsole mConsole</text><text fill="#000000" font-family="sans-serif" font-size="14" lengthAdjust="spacing" textLength="88.6963" x="702.5" y="145.5801">-int m_Interval</text><text fill="#000000" font-family="sans-serif" font-size="14" lengthAdjust="spacing" textLength="169.668" x="702.5" y="163.1895">-bool m_AutoModeEnabled</text><text fill="#000000" font-family="sans-serif" font-size="14" lengthAdjust="spacing" textLength="234.2266" x="702.5" y="180.7988">-int32_t m_RainPersistenceThreshold</text><text fill="#000000" font-family="sans-serif" font-size="14" lengthAdjust="spacing" textLength="369.6328" x="702.5" y="198.4082">-std::chrono::steady_clock::time_point m_LastRainDetected</text><text fill="#000000" font-family="sans-serif" font-size="14" lengthAdjust="spacing" textLength="365.7568" x="702.5" y="216.0176">-std::chrono::steady_clock::time_point m_LastRainStopped</text><line style="stroke:#2563EB;stroke-width:0.5;" x1="697.5" x2="1077.1328" y1="223.0938" y2="223.0938"/><text fill="#000000" font-family="sans-serif" font-size="14" lengthAdjust="spacing" textLength="165.3203" x="702.5" y="241.627">+CWiperExampleService()</text><text fill="#000000" font-family="sans-serif" font-size="14" lengthAdjust="spacing" textLength="173.4961" x="702.5" y="259.2363">+~CWiperExampleService()</text><text fill="#000000" font-family="sans-serif" font-size="14" lengthAdjust="spacing" textLength="117.1133" x="702.5" y="276.8457">+bool OnInitialize()</text><text fill="#000000" font-family="sans-serif" font-size="14" lengthAdjust="spacing" textLength="128.0166" x="702.5" y="294.4551">+void OnShutdown()</text><text fill="#000000" font-family="sans-serif" font-size="14" lengthAdjust="spacing" textLength="250.9541" x="702.5" y="312.0645">+void SetMode(const sdv::string&amp; value)</text><text fill="#000000" font-family="sans-serif" font-size="14" lengthAdjust="spacing" textLength="187.9473" x="702.5" y="329.6738">+void SetDetected(bool value)</text><text fill="#000000" font-family="sans-serif" font-size="14" lengthAdjust="spacing" textLength="212.0576" x="702.5" y="347.2832">+bool SetIsRearActive(bool value)</text><text fill="#000000" font-family="sans-serif" font-size="14" lengthAdjust="spacing" textLength="214.3887" x="702.5" y="364.8926">+bool SetIsFrontActive(bool value)</text><text fill="#000000" font-family="sans-serif" font-size="14" lengthAdjust="spacing" textLength="3.8896" x="702.5" y="382.502">&#160;</text><text fill="#000000" font-family="sans-serif" font-size="14" lengthAdjust="spacing" textLength="224.0684" x="702.5" y="400.1113">-bool TriggerWipersAfterThreshold()</text><text fill="#000000" font-family="sans-serif" font-size="14" lengthAdjust="spacing" textLength="203.8477" x="702.5" y="417.7207">-void ActivateWipers(bool active)</text></g><!--class CConsole--><g class="entity" data-entity="CConsole" data-source-line="96" data-uid="ent0027" id="entity_CConsole"><rect fill="#EFF6FF" height="48" rx="2.5" ry="2.5" style="stroke:#2563EB;stroke-width:0.5;" width="93.4756" x="7" y="754"/><ellipse cx="22" cy="770" fill="#ADD1B2" rx="11" ry="11" style="stroke:#181818;stroke-width:1;"/><path d="M24.7656,765.875 Q24.9219,765.6563 25.1094,765.5469 Q25.2969,765.4375 25.5156,765.4375 Q25.8906,765.4375 26.125,765.6953 Q26.3594,765.9531 26.3594,766.5625 L26.3594,768.0156 Q26.3594,768.625 26.125,768.8906 Q25.8906,769.1563 25.5156,769.1563 Q25.1719,769.1563 24.9688,768.9531 Q24.7656,768.7656 24.6563,768.25 Q24.6094,767.8906 24.4219,767.7031 Q24.0938,767.3281 23.4844,767.1094 Q22.875,766.8906 22.25,766.8906 Q21.4844,766.8906 20.8516,767.2188 Q20.2188,767.5469 19.7266,768.2969 Q19.2344,769.0469 19.2344,770.0781 L19.2344,771.1719 Q19.2344,772.4063 20.125,773.2266 Q21.0156,774.0469 22.6094,774.0469 Q23.5469,774.0469 24.2031,773.7969 Q24.5938,773.6406 25.0156,773.2031 Q25.2813,772.9375 25.4297,772.8594 Q25.5781,772.7813 25.7813,772.7813 Q26.1094,772.7813 26.3672,773.0391 Q26.625,773.2969 26.625,773.6406 Q26.625,773.9844 26.2813,774.3906 Q25.7813,774.9688 24.9844,775.2969 Q23.9063,775.75 22.6094,775.75 Q21.0938,775.75 19.8906,775.125 Q18.9063,774.625 18.2188,773.5547 Q17.5313,772.4844 17.5313,771.2031 L17.5313,770.0469 Q17.5313,768.7188 18.1484,767.5703 Q18.7656,766.4219 19.8594,765.8047 Q20.9531,765.1875 22.1875,765.1875 Q22.9219,765.1875 23.5703,765.3516 Q24.2188,765.5156 24.7656,765.875 Z " fill="#000000"/><text fill="#111827" font-family="sans-serif" font-size="14" lengthAdjust="spacing" textLength="61.4756" x="36" y="775.7285">CConsole</text><line style="stroke:#2563EB;stroke-width:0.5;" x1="8" x2="99.4756" y1="786" y2="786"/><line style="stroke:#2563EB;stroke-width:0.5;" x1="8" x2="99.4756" y1="794" y2="794"/></g><!--link CWiperExampleService to CSdvObject--><g class="link" data-entity-1="CWiperExampleService" data-entity-2="CSdvObject" data-source-line="90" data-uid="lnk21" id="link_CWiperExampleService_CSdvObject"><path codeLine="90" d="M696.43,298 C603.9,343.15 495.04,405.55 411.5,481 C326.82,557.48 266.7196,659.1753 234.2696,720.5853" fill="none" id="CWiperExampleService-to-CSdvObject" style="stroke:#2563EB;stroke-width:1;stroke-dasharray:7,7;"/><polygon fill="none" points="225.86,736.5,239.5745,723.3885,228.9647,717.7821,225.86,736.5" style="stroke:#2563EB;stroke-width:1;"/></g><!--link CWiperExampleService to IVSS_SetDetected_Event--><g class="link" data-entity-1="CWiperExampleService" data-entity-2="IVSS_SetDetected_Event" data-source-line="91" data-uid="lnk22" id="link_CWiperExampleService_IVSS_SetDetected_Event"><path codeLine="91" d="M753.71,425.13 C676.7,544.91 597.3328,668.3682 557.8728,729.7582" fill="none" id="CWiperExampleService-to-IVSS_SetDetected_Event" style="stroke:#2563EB;stroke-width:1;stroke-dasharray:7,7;"/><polygon fill="none" points="548.14,744.9,562.92,733.0025,552.8255,726.514,548.14,744.9" style="stroke:#2563EB;stroke-width:1;"/></g><!--link CWiperExampleService to IVSS_SetMode_Event--><g class="link" data-entity-1="CWiperExampleService" data-entity-2="IVSS_SetMode_Event" data-source-line="92" data-uid="lnk23" id="link_CWiperExampleService_IVSS_SetMode_Event"><path codeLine="92" d="M887.5,425.13 C887.5,544.91 887.5,665.51 887.5,726.9" fill="none" id="CWiperExampleService-to-IVSS_SetMode_Event" style="stroke:#2563EB;stroke-width:1;stroke-dasharray:7,7;"/><polygon fill="none" points="887.5,744.9,893.5,726.9,881.5,726.9,887.5,744.9" style="stroke:#2563EB;stroke-width:1;"/></g><!--link CWiperExampleService to IVSS_SetIsRearActive--><g class="link" data-entity-1="CWiperExampleService" data-entity-2="IVSS_SetIsRearActive" data-source-line="93" data-uid="lnk24" id="link_CWiperExampleService_IVSS_SetIsRearActive"><path codeLine="93" d="M1005.15,425.21 C1015.5,444.02 1025.75,462.83 1035.5,481 C1086.6,576.18 1136.0943,674.1533 1163.4043,728.7233" fill="none" id="CWiperExampleService-to-IVSS_SetIsRearActive" style="stroke:#2563EB;stroke-width:1;stroke-dasharray:7,7;"/><polygon fill="none" points="1171.46,744.82,1168.7698,726.038,1158.0387,731.4085,1171.46,744.82" style="stroke:#2563EB;stroke-width:1;"/></g><!--link CWiperExampleService to IVSS_SetIsFrontActive--><g class="link" data-entity-1="CWiperExampleService" data-entity-2="IVSS_SetIsFrontActive" data-source-line="94" data-uid="lnk25" id="link_CWiperExampleService_IVSS_SetIsFrontActive"><path codeLine="94" d="M1078.58,305.7 C1158.99,349.93 1249.1,409.37 1315.5,481 C1390.42,561.81 1432.7979,669.2072 1452.5279,727.5972" fill="none" id="CWiperExampleService-to-IVSS_SetIsFrontActive" style="stroke:#2563EB;stroke-width:1;stroke-dasharray:7,7;"/><polygon fill="none" points="1458.29,744.65,1458.2121,725.6765,1446.8436,729.5179,1458.29,744.65" style="stroke:#2563EB;stroke-width:1;"/></g><!--link CWiperExampleService to IWiperComplexService--><g class="link" data-entity-1="CWiperExampleService" data-entity-2="IWiperComplexService" data-source-line="95" data-uid="lnk26" id="link_CWiperExampleService_IWiperComplexService"><path codeLine="95" d="M1078.65,262.44 C1228.25,303.83 1437.11,374.86 1597.5,481 C1710.76,555.95 1801.0661,670.4059 1844.4261,730.2259" fill="none" id="CWiperExampleService-to-IWiperComplexService" style="stroke:#2563EB;stroke-width:1;stroke-dasharray:7,7;"/><polygon fill="none" points="1854.99,744.8,1849.2841,726.7046,1839.5681,733.7472,1854.99,744.8" style="stroke:#2563EB;stroke-width:1;"/></g><!--reverse link CWiperExampleService to CConsole--><g class="link" data-entity-1="CWiperExampleService" data-entity-2="CConsole" data-source-line="96" data-uid="lnk28" id="link_CWiperExampleService_CConsole"><path codeLine="96" d="M684.3851,232.6845 C508.9451,256.0545 266.57,316.51 119.5,481 C48.61,560.29 48.5,698.74 51.61,753.63" fill="none" id="CWiperExampleService-backto-CConsole" style="stroke:#2563EB;stroke-width:1;"/><polygon fill="#2563EB" points="696.28,231.1,689.8044,227.9273,684.3851,232.6845,690.8607,235.8572,696.28,231.1" style="stroke:#2563EB;stroke-width:1;"/><text fill="#000000" font-family="sans-serif" font-size="13" lengthAdjust="spacing" textLength="58.5254" x="134.5" y="469.4951">mConsole</text></g><!--SRC=[hLHHJzim47xFhx0qQMAhYYXiZFbXKbeIgT8c9eBOO-KcH-FXsf5z3J3M_VRPRjfw9PG2UqlyVVVTv_FT6K1Ye6AQeTA4qYWorrow_oaPi_nwejLC5WCbBFecFKdZT10mJCaATSFbX5mnOI10Si6CIPN4ZFy2qliGG9MLPHDe1v6Z2A3ZQ5EJt4U4z3UT9MbwdAOEKRe0tPmUVZm-Ilhsr0asPxrUx-JmKpGFTBb4q5SiXtRjqtuIfyaBjPlBjYkd1-dd5xkEjLOt_uPib2f6r7myGnZcIlfw7Znqbk6T0A8XHoOd0g9ewTWKjNVDnWOrox4f_o0hwhFnJyltA26T-oLZJiPA2N8cXv8ZPy9ct7ltW5ChNbXELixGzexqZBczsIfnRGobbr3oN02bVLNSKVe369QWAJrdN6QWQzwyrlhjXfTPDie0Jm6jEIX6IGroPT9d3T0zRxLcOWQx6U2oC2K7KRZlobdvfWhORiKnscquPC- -Ya5NPqfjSUmKlNsTeNDWUhkXeN6SE4TUmzAIByG6zX-gasetn4-uyQJ7x0JWDZy-tq1DAm6tcub2BFIop7EX-MG2sjDCV6NZBaeDfbIYMFTbq_UUbDmo9nPgTTeG7ztvypZKFYcTjk7OlMcUwl9Ttdg71x2ixaxbwte_Ne4XB6WB9UPL0wdfo7goixrq7W0-pdiPceMRJT1T9iI2wYmfhdOE6Wni_PJTUDFcmntQZd46ND_OAmRgyGoLYqma6uk5ASizEXmvlhFxtTw86mIPm-hgtW7QISXBQrev9y2Akr4kL7vDAV8fZ2groFcL6ToyzdDZCrHLPKDjgxOswVx-xo-BXbdlxYtCNTSlfUqRzxdIMnVhEibwbxu-GR0ermd2cNXzYd3zXJc2cTgI9DnRDhfbZRK7l-zsoQh3wQh7_m80]--></g></svg>