<svg xmlns="http://www.w3.org/2000/svg" xmlns:xlink="http://www.w3.org/1999/xlink" contentStyleType="text/css" data-diagram-type="CLASS" height="518px" preserveAspectRatio="none" style="width:841px;height:518px;background:#FFFFFF;" version="1.1" viewBox="0 0 841 518" width="841px" zoomAndPan="magnify"><defs/><g><!--cluster sdv--><g class="cluster" data-entity="sdv" data-source-line="10" data-uid="ent0004" id="cluster_sdv"><path d="M8.5,295 L33.624,295 A3.75,3.75 0 0 1 36.124,297.5 L43.124,318.6094 L449.5,318.6094 A2.5,2.5 0 0 1 452,321.1094 L452,462.5 A2.5,2.5 0 0 1 449.5,465 L8.5,465 A2.5,2.5 0 0 1 6,462.5 L6,297.5 A2.5,2.5 0 0 1 8.5,295" fill="none" style="stroke:#000000;stroke-width:1.5;"/><line style="stroke:#000000;stroke-width:1.5;" x1="6" x2="43.124" y1="318.6094" y2="318.6094"/><text fill="#000000" font-family="sans-serif" font-size="14" font-weight="bold" lengthAdjust="spacing" textLength="24.124" x="10" y="311.5332">sdv</text></g><!--cluster vss--><g class="cluster" data-entity="vss" data-source-line="18" data-uid="ent0006" id="cluster_vss"><path d="M478.5,189 L502.8584,189 A3.75,3.75 0 0 1 505.3584,191.5 L512.3584,212.6094 L831.5,212.6094 A2.5,2.5 0 0 1 834,215.1094 L834,508.5 A2.5,2.5 0 0 1 831.5,511 L478.5,511 A2.5,2.5 0 0 1 476,508.5 L476,191.5 A2.5,2.5 0 0 1 478.5,189" fill="none" style="stroke:#000000;stroke-width:1.5;"/><line style="stroke:#000000;stroke-width:1.5;" x1="476" x2="512.3584" y1="212.6094" y2="212.6094"/><text fill="#000000" font-family="sans-serif" font-size="14" font-weight="bold" lengthAdjust="spacing" textLength="23.3584" x="480" y="205.5332">vss</text></g><!--cluster Vehicle--><g class="cluster" data-entity="Vehicle" data-source-line="18" data-uid="ent0007" id="cluster_Vehicle"><path d="M502.5,233 L552.5273,233 A3.75,3.75 0 0 1 555.0273,235.5 L562.0273,256.6094 L807.5,256.6094 A2.5,2.5 0 0 1 810,259.1094 L810,484.5 A2.5,2.5 0 0 1 807.5,487 L502.5,487 A2.5,2.5 0 0 1 500,484.5 L500,235.5 A2.5,2.5 0 0 1 502.5,233" fill="none" style="stroke:#000000;stroke-width:1.5;"/><line style="stroke:#000000;stroke-width:1.5;" x1="500" x2="562.0273" y1="256.6094" y2="256.6094"/><text fill="#000000" font-family="sans-serif" font-size="14" font-weight="bold" lengthAdjust="spacing" textLength="49.0273" x="504" y="249.5332">Vehicle</text></g><!--cluster Body--><g class="cluster" data-entity="Body" data-source-line="18" data-uid="ent0008" id="cluster_Body"><path d="M526.5,277 L562.5,277 A3.75,3.75 0 0 1 565,279.5 L572,300.6094 L783.5,300.6094 A2.5,2.5 0 0 1 786,303.1094 L786,460.5 A2.5,2.5 0 0 1 783.5,463 L526.5,463 A2.5,2.5 0 0 1 524,460.5 L524,279.5 A2.5,2.5 0 0 1 526.5,277" fill="none" style="stroke:#000000;stroke-width:1.5;"/><line style="stroke:#000000;stroke-width:1.5;" x1="524" x2="572" y1="300.6094" y2="300.6094"/><text fill="#000000" font-family="sans-serif" font-size="14" font-weight="bold" lengthAdjust="spacing" textLength="35" x="528" y="293.5332">Body</text></g><!--cluster TrunkDevice--><g class="cluster" data-entity="TrunkDevice" data-source-line="18" data-uid="ent0009" id="cluster_TrunkDevice"><path d="M550.5,321 L635.5342,321 A3.75,3.75 0 0 1 638.0342,323.5 L645.0342,344.6094 L759.5,344.6094 A2.5,2.5 0 0 1 762,347.1094 L762,436.5 A2.5,2.5 0 0 1 759.5,439 L550.5,439 A2.5,2.5 0 0 1 548,436.5 L548,323.5 A2.5,2.5 0 0 1 550.5,321" fill="none" style="stroke:#000000;stroke-width:1.5;"/><line style="stroke:#000000;stroke-width:1.5;" x1="548" x2="645.0342" y1="344.6094" y2="344.6094"/><text fill="#000000" font-family="sans-serif" font-size="14" font-weight="bold" lengthAdjust="spacing" textLength="84.0342" x="552" y="337.5332">TrunkDevice</text></g><!--class CSdvObject--><g class="entity" data-entity="CSdvObject" data-source-line="10" data-uid="ent0003" id="entity_CSdvObject"><rect fill="#F1F1F1" height="118.4375" rx="2.5" ry="2.5" style="stroke:#181818;stroke-width:0.5;" width="412.7705" x="22.5" y="331"/><ellipse cx="187.2871" cy="347" fill="#ADD1B2" rx="11" ry="11" style="stroke:#181818;stroke-width:1;"/><path d="M190.0527,342.875 Q190.209,342.6563 190.3965,342.5469 Q190.584,342.4375 190.8027,342.4375 Q191.1777,342.4375 191.4121,342.6953 Q191.6465,342.9531 191.6465,343.5625 L191.6465,345.0156 Q191.6465,345.625 191.4121,345.8906 Q191.1777,346.1563 190.8027,346.1563 Q190.459,346.1563 190.2559,345.9531 Q190.0527,345.7656 189.9434,345.25 Q189.8965,344.8906 189.709,344.7031 Q189.3809,344.3281 188.7715,344.1094 Q188.1621,343.8906 187.5371,343.8906 Q186.7715,343.8906 186.1387,344.2188 Q185.5059,344.5469 185.0137,345.2969 Q184.5215,346.0469 184.5215,347.0781 L184.5215,348.1719 Q184.5215,349.4063 185.4121,350.2266 Q186.3027,351.0469 187.8965,351.0469 Q188.834,351.0469 189.4902,350.7969 Q189.8809,350.6406 190.3027,350.2031 Q190.5684,349.9375 190.7168,349.8594 Q190.8652,349.7813 191.0684,349.7813 Q191.3965,349.7813 191.6543,350.0391 Q191.9121,350.2969 191.9121,350.6406 Q191.9121,350.9844 191.5684,351.3906 Q191.0684,351.9688 190.2715,352.2969 Q189.1934,352.75 187.8965,352.75 Q186.3809,352.75 185.1777,352.125 Q184.1934,351.625 183.5059,350.5547 Q182.8184,349.4844 182.8184,348.2031 L182.8184,347.0469 Q182.8184,345.7188 183.4355,344.5703 Q184.0527,343.4219 185.1465,342.8047 Q186.2402,342.1875 187.4746,342.1875 Q188.209,342.1875 188.8574,342.3516 Q189.5059,342.5156 190.0527,342.875 Z " fill="#000000"/><text fill="#000000" font-family="sans-serif" font-size="14" lengthAdjust="spacing" textLength="74.6963" x="207.7871" y="352.7285">CSdvObject</text><line style="stroke:#181818;stroke-width:0.5;" x1="23.5" x2="434.2705" y1="363" y2="363"/><line style="stroke:#181818;stroke-width:0.5;" x1="23.5" x2="434.2705" y1="371" y2="371"/><ellipse cx="33.5" cy="385.3047" fill="#84BE84" rx="3" ry="3" style="stroke:#038048;stroke-width:1;"/><text fill="#000000" font-family="sans-serif" font-size="14" lengthAdjust="spacing" text-decoration="underline" textLength="336.9365" x="42.5" y="389.5332">sdv::sequence&lt;sdv::u8string&gt; GetClassAliasesStatic()</text><ellipse cx="33.5" cy="402.9141" fill="#84BE84" rx="3" ry="3" style="stroke:#038048;stroke-width:1;"/><text fill="#000000" font-family="sans-serif" font-size="14" lengthAdjust="spacing" text-decoration="underline" textLength="272.3301" x="42.5" y="407.1426">sdv::u8string GetDefaultObjectNameStatic()</text><ellipse cx="33.5" cy="420.5234" fill="#84BE84" rx="3" ry="3" style="stroke:#038048;stroke-width:1;"/><text fill="#000000" font-family="sans-serif" font-size="14" lengthAdjust="spacing" text-decoration="underline" textLength="143.9648" x="42.5" y="424.752">bool IsSingletonStatic()</text><ellipse cx="33.5" cy="438.1328" fill="#84BE84" rx="3" ry="3" style="stroke:#038048;stroke-width:1;"/><text fill="#000000" font-family="sans-serif" font-size="14" lengthAdjust="spacing" text-decoration="underline" textLength="386.7705" x="42.5" y="442.3613">sdv::sequence&lt;sdv::u8string&gt; GetObjectDependenciesStatic()</text></g><!--class IVSS_WriteOpen--><g class="entity" data-entity="IVSS_WriteOpen" data-source-line="18" data-uid="ent0005" id="entity_IVSS_WriteOpen"><rect fill="#F1F1F1" height="65.6094" rx="2.5" ry="2.5" style="stroke:#181818;stroke-width:0.5;" width="182.4199" x="564" y="357"/><ellipse cx="598.7191" cy="373" fill="#B4A7E5" rx="11" ry="11" style="stroke:#181818;stroke-width:1;"/><path d="M599.6723,369.6406 L599.6723,376.2969 L601.391,376.2969 Q602.0004,376.2969 602.266,376.5313 Q602.5316,376.7656 602.5316,377.1563 Q602.5316,377.5313 602.266,377.7656 Q602.0004,378 601.391,378 L596.2504,378 Q595.641,378 595.3754,377.7656 Q595.1098,377.5313 595.1098,377.1406 Q595.1098,376.7656 595.3754,376.5313 Q595.641,376.2969 596.2504,376.2969 L597.9691,376.2969 L597.9691,369.6406 L596.2504,369.6406 Q595.641,369.6406 595.3754,369.4063 Q595.1098,369.1719 595.1098,368.7813 Q595.1098,368.4063 595.3754,368.1719 Q595.641,367.9375 596.2504,367.9375 L601.391,367.9375 Q602.0004,367.9375 602.266,368.1719 Q602.5316,368.4063 602.5316,368.7813 Q602.5316,369.1719 602.266,369.4063 Q602.0004,369.6406 601.391,369.6406 L599.6723,369.6406 Z " fill="#000000"/><text fill="#000000" font-family="sans-serif" font-size="14" font-style="italic" lengthAdjust="spacing" textLength="106.5996" x="617.1012" y="378.7285">IVSS_WriteOpen</text><line style="stroke:#181818;stroke-width:0.5;" x1="565" x2="745.4199" y1="389" y2="389"/><line style="stroke:#181818;stroke-width:0.5;" x1="565" x2="745.4199" y1="397" y2="397"/><text fill="#000000" font-family="sans-serif" font-size="14" font-style="italic" lengthAdjust="spacing" textLength="170.4199" x="570" y="415.5332">bool WriteOpen(bool value)</text></g><!--class CVehicleDeviceVehicleTrunk--><g class="entity" data-entity="CVehicleDeviceVehicleTrunk" data-source-line="2" data-uid="ent0002" id="entity_CVehicleDeviceVehicleTrunk"><rect fill="#F1F1F1" height="118.4375" rx="2.5" ry="2.5" style="stroke:#181818;stroke-width:0.5;" width="212.5234" x="335.5" y="7"/><ellipse cx="350.5" cy="23" fill="#ADD1B2" rx="11" ry="11" style="stroke:#181818;stroke-width:1;"/><path d="M353.2656,18.875 Q353.4219,18.6563 353.6094,18.5469 Q353.7969,18.4375 354.0156,18.4375 Q354.3906,18.4375 354.625,18.6953 Q354.8594,18.9531 354.8594,19.5625 L354.8594,21.0156 Q354.8594,21.625 354.625,21.8906 Q354.3906,22.1563 354.0156,22.1563 Q353.6719,22.1563 353.4688,21.9531 Q353.2656,21.7656 353.1563,21.25 Q353.1094,20.8906 352.9219,20.7031 Q352.5938,20.3281 351.9844,20.1094 Q351.375,19.8906 350.75,19.8906 Q349.9844,19.8906 349.3516,20.2188 Q348.7188,20.5469 348.2266,21.2969 Q347.7344,22.0469 347.7344,23.0781 L347.7344,24.1719 Q347.7344,25.4063 348.625,26.2266 Q349.5156,27.0469 351.1094,27.0469 Q352.0469,27.0469 352.7031,26.7969 Q353.0938,26.6406 353.5156,26.2031 Q353.7813,25.9375 353.9297,25.8594 Q354.0781,25.7813 354.2813,25.7813 Q354.6094,25.7813 354.8672,26.0391 Q355.125,26.2969 355.125,26.6406 Q355.125,26.9844 354.7813,27.3906 Q354.2813,27.9688 353.4844,28.2969 Q352.4063,28.75 351.1094,28.75 Q349.5938,28.75 348.3906,28.125 Q347.4063,27.625 346.7188,26.5547 Q346.0313,25.4844 346.0313,24.2031 L346.0313,23.0469 Q346.0313,21.7188 346.6484,20.5703 Q347.2656,19.4219 348.3594,18.8047 Q349.4531,18.1875 350.6875,18.1875 Q351.4219,18.1875 352.0703,18.3516 Q352.7188,18.5156 353.2656,18.875 Z " fill="#000000"/><text fill="#000000" font-family="sans-serif" font-size="14" lengthAdjust="spacing" textLength="180.5234" x="364.5" y="28.7285">CVehicleDeviceVehicleTrunk</text><line style="stroke:#181818;stroke-width:0.5;" x1="336.5" x2="547.0234" y1="39" y2="39"/><rect fill="none" height="6" style="stroke:#C82930;stroke-width:1;" width="6" x="343.5" y="50.3047"/><text fill="#000000" font-family="sans-serif" font-size="14" lengthAdjust="spacing" textLength="168.0684" x="355.5" y="57.5332">sdv::core::CSignal m_trunk</text><line style="stroke:#181818;stroke-width:0.5;" x1="336.5" x2="547.0234" y1="64.6094" y2="64.6094"/><ellipse cx="346.5" cy="78.9141" fill="#84BE84" rx="3" ry="3" style="stroke:#038048;stroke-width:1;"/><text fill="#000000" font-family="sans-serif" font-size="14" font-style="italic" lengthAdjust="spacing" textLength="108.9375" x="355.5" y="83.1426">bool OnInitialize()</text><ellipse cx="346.5" cy="96.5234" fill="#84BE84" rx="3" ry="3" style="stroke:#038048;stroke-width:1;"/><text fill="#000000" font-family="sans-serif" font-size="14" font-style="italic" lengthAdjust="spacing" textLength="101.165" x="355.5" y="100.752">void Shutdown()</text><ellipse cx="346.5" cy="114.1328" fill="#84BE84" rx="3" ry="3" style="stroke:#038048;stroke-width:1;"/><text fill="#000000" font-family="sans-serif" font-size="14" font-style="italic" lengthAdjust="spacing" textLength="170.4199" x="355.5" y="118.3613">bool WriteOpen(bool value)</text></g><!--link CVehicleDeviceVehicleTrunk to CSdvObject--><g class="link" data-entity-1="CVehicleDeviceVehicleTrunk" data-entity-2="CSdvObject" data-source-line="23" data-uid="lnk10" id="link_CVehicleDeviceVehicleTrunk_CSdvObject"><path codeLine="23" d="M403.43,125.31 C364.88,183.58 315.8998,257.6267 277.3998,315.8367" fill="none" id="CVehicleDeviceVehicleTrunk-to-CSdvObject" style="stroke:#181818;stroke-width:1;"/><polygon fill="none" points="267.47,330.85,282.4042,319.1466,272.3953,312.5268,267.47,330.85" style="stroke:#181818;stroke-width:1;"/><text fill="#000000" font-family="sans-serif" font-size="13" lengthAdjust="spacing" textLength="42.6309" x="380" y="169.4951">Inherits</text></g><!--link CVehicleDeviceVehicleTrunk to IVSS_WriteOpen--><g class="link" data-entity-1="CVehicleDeviceVehicleTrunk" data-entity-2="IVSS_WriteOpen" data-source-line="24" data-uid="lnk11" id="link_CVehicleDeviceVehicleTrunk_IVSS_WriteOpen"><path codeLine="24" d="M480.57,125.31 C525.41,193.09 587.878,287.5382 623.658,341.6182" fill="none" id="CVehicleDeviceVehicleTrunk-to-IVSS_WriteOpen" style="stroke:#181818;stroke-width:1;stroke-dasharray:7,7;"/><polygon fill="none" points="633.59,356.63,628.6619,338.3075,618.654,344.9288,633.59,356.63" style="stroke:#181818;stroke-width:1;"/><text fill="#000000" font-family="sans-serif" font-size="13" lengthAdjust="spacing" textLength="67.1899" x="511" y="169.4951">Implements</text></g><!--SRC=[bL9DJy904BtpA-Q88N0s4qEY9J6zoA46ZsJP3h2wtSNEj4QH_-vs2oW4K7lOP9BtDVCAJ09CArKgyIKWTW10MyKCoOIMHbiQKMqqROV7id8l3MRTFE7hhTMCfLHQDZ3ptiBOfSw8KTPyKFVg1Ahs9eTiMKdktzn9HDHvAetGU4Mk6yTQsOfsu3xdDQBs9I4ccLauPQ6OoYxRflEzHKGcMLwFPy-avMVqDOiIepVGYo2crugSffiuLTSXZN6B8ToJ98tKhJMAYRD8skS-4jdH6jQ8vggoqXe_g8BEKkE6AMU1Q4cyk-nn8MZhDQ9mjZn0p67SzYwf4ohdIXFKp8ZROX7lVFwE60jkAqTC9rastHTnSBk_jjLwdl-NeD__71wt11XIBYbeyY_imI2m_xb7erwiB1NaXBy0]--></g></svg>