<svg xmlns="http://www.w3.org/2000/svg" xmlns:xlink="http://www.w3.org/1999/xlink" contentStyleType="text/css" data-diagram-type="CLASS" height="890px" preserveAspectRatio="none" style="width:1514px;height:890px;background:#FFFFFF;" version="1.1" viewBox="0 0 1514 890" width="1514px" zoomAndPan="magnify"><defs/><g><!--cluster Headlight Application executable--><g class="cluster" data-entity="Headlight Application executable" data-uid="ent0002" id="cluster_Headlight Application executable"><path d="M321.5,6 L542.6514,6 A3.75,3.75 0 0 1 545.1514,8.5 L552.1514,29.6094 L1504.5,29.6094 A2.5,2.5 0 0 1 1507,32.1094 L1507,508.5 A2.5,2.5 0 0 1 1504.5,511 L321.5,511 A2.5,2.5 0 0 1 319,508.5 L319,8.5 A2.5,2.5 0 0 1 321.5,6" fill="none" style="stroke:#000000;stroke-width:1.5;"/><line style="stroke:#000000;stroke-width:1.5;" x1="319" x2="552.1514" y1="29.6094" y2="29.6094"/><text fill="#000000" font-family="sans-serif" font-size="14" font-weight="bold" lengthAdjust="spacing" textLength="220.1514" x="323" y="22.5332">Headlight Application executable</text></g><!--cluster vss--><g class="cluster" data-entity="vss" data-source-line="51" data-uid="ent0006" id="cluster_vss"><path d="M8.5,561 L32.8584,561 A3.75,3.75 0 0 1 35.3584,563.5 L42.3584,584.6094 L1325.5,584.6094 A2.5,2.5 0 0 1 1328,587.1094 L1328,880.5 A2.5,2.5 0 0 1 1325.5,883 L8.5,883 A2.5,2.5 0 0 1 6,880.5 L6,563.5 A2.5,2.5 0 0 1 8.5,561" fill="none" style="stroke:#000000;stroke-width:1.5;"/><line style="stroke:#000000;stroke-width:1.5;" x1="6" x2="42.3584" y1="584.6094" y2="584.6094"/><text fill="#000000" font-family="sans-serif" font-size="14" font-weight="bold" lengthAdjust="spacing" textLength="23.3584" x="10" y="577.5332">vss</text></g><!--cluster Vehicle--><g class="cluster" data-entity="Vehicle" data-source-line="51" data-uid="ent0007" id="cluster_Vehicle"><path d="M32.5,605 L82.5273,605 A3.75,3.75 0 0 1 85.0273,607.5 L92.0273,628.6094 L1301.5,628.6094 A2.5,2.5 0 0 1 1304,631.1094 L1304,856.5 A2.5,2.5 0 0 1 1301.5,859 L32.5,859 A2.5,2.5 0 0 1 30,856.5 L30,607.5 A2.5,2.5 0 0 1 32.5,605" fill="none" style="stroke:#000000;stroke-width:1.5;"/><line style="stroke:#000000;stroke-width:1.5;" x1="30" x2="92.0273" y1="628.6094" y2="628.6094"/><text fill="#000000" font-family="sans-serif" font-size="14" font-weight="bold" lengthAdjust="spacing" textLength="49.0273" x="34" y="621.5332">Vehicle</text></g><!--cluster Position--><g class="cluster" data-entity="Position" data-source-line="51" data-uid="ent0008" id="cluster_Position"><path d="M56.5,649 L112.7207,649 A3.75,3.75 0 0 1 115.2207,651.5 L122.2207,672.6094 L1277.5,672.6094 A2.5,2.5 0 0 1 1280,675.1094 L1280,832.5 A2.5,2.5 0 0 1 1277.5,835 L56.5,835 A2.5,2.5 0 0 1 54,832.5 L54,651.5 A2.5,2.5 0 0 1 56.5,649" fill="none" style="stroke:#000000;stroke-width:1.5;"/><line style="stroke:#000000;stroke-width:1.5;" x1="54" x2="122.2207" y1="672.6094" y2="672.6094"/><text fill="#000000" font-family="sans-serif" font-size="14" font-weight="bold" lengthAdjust="spacing" textLength="55.2207" x="58" y="665.5332">Position</text></g><!--cluster CurrentLatitudeService--><g class="cluster" data-entity="CurrentLatitudeService" data-source-line="51" data-uid="ent0009" id="cluster_CurrentLatitudeService"><path d="M380.5,693 L536.3203,693 A3.75,3.75 0 0 1 538.8203,695.5 L545.8203,716.6094 L641.5,716.6094 A2.5,2.5 0 0 1 644,719.1094 L644,808.5 A2.5,2.5 0 0 1 641.5,811 L380.5,811 A2.5,2.5 0 0 1 378,808.5 L378,695.5 A2.5,2.5 0 0 1 380.5,693" fill="none" style="stroke:#000000;stroke-width:1.5;"/><line style="stroke:#000000;stroke-width:1.5;" x1="378" x2="545.8203" y1="716.6094" y2="716.6094"/><text fill="#000000" font-family="sans-serif" font-size="14" font-weight="bold" lengthAdjust="spacing" textLength="154.8203" x="382" y="709.5332">CurrentLatitudeService</text></g><!--cluster CurrentLongitudeService--><g class="cluster" data-entity="CurrentLongitudeService" data-source-line="55" data-uid="ent0011" id="cluster_CurrentLongitudeService"><path d="M982.5,693 L1151.5273,693 A3.75,3.75 0 0 1 1154.0273,695.5 L1161.0273,716.6094 L1253.5,716.6094 A2.5,2.5 0 0 1 1256,719.1094 L1256,808.5 A2.5,2.5 0 0 1 1253.5,811 L982.5,811 A2.5,2.5 0 0 1 980,808.5 L980,695.5 A2.5,2.5 0 0 1 982.5,693" fill="none" style="stroke:#000000;stroke-width:1.5;"/><line style="stroke:#000000;stroke-width:1.5;" x1="980" x2="1161.0273" y1="716.6094" y2="716.6094"/><text fill="#000000" font-family="sans-serif" font-size="14" font-weight="bold" lengthAdjust="spacing" textLength="168.0273" x="984" y="709.5332">CurrentLongitudeService</text></g><!--cluster CurrentLatitudeDevice--><g class="cluster" data-entity="CurrentLatitudeDevice" data-source-line="62" data-uid="ent0013" id="cluster_CurrentLatitudeDevice"><path d="M80.5,693 L231.6445,693 A3.75,3.75 0 0 1 234.1445,695.5 L241.1445,716.6094 L351.5,716.6094 A2.5,2.5 0 0 1 354,719.1094 L354,808.5 A2.5,2.5 0 0 1 351.5,811 L80.5,811 A2.5,2.5 0 0 1 78,808.5 L78,695.5 A2.5,2.5 0 0 1 80.5,693" fill="none" style="stroke:#000000;stroke-width:1.5;"/><line style="stroke:#000000;stroke-width:1.5;" x1="78" x2="241.1445" y1="716.6094" y2="716.6094"/><text fill="#000000" font-family="sans-serif" font-size="14" font-weight="bold" lengthAdjust="spacing" textLength="150.1445" x="82" y="709.5332">CurrentLatitudeDevice</text></g><!--cluster CurrentLongitudeDevice--><g class="cluster" data-entity="CurrentLongitudeDevice" data-source-line="66" data-uid="ent0015" id="cluster_CurrentLongitudeDevice"><path d="M670.5,693 L834.8516,693 A3.75,3.75 0 0 1 837.3516,695.5 L844.3516,716.6094 L953.5,716.6094 A2.5,2.5 0 0 1 956,719.1094 L956,808.5 A2.5,2.5 0 0 1 953.5,811 L670.5,811 A2.5,2.5 0 0 1 668,808.5 L668,695.5 A2.5,2.5 0 0 1 670.5,693" fill="none" style="stroke:#000000;stroke-width:1.5;"/><line style="stroke:#000000;stroke-width:1.5;" x1="668" x2="844.3516" y1="716.6094" y2="716.6094"/><text fill="#000000" font-family="sans-serif" font-size="14" font-weight="bold" lengthAdjust="spacing" textLength="163.3516" x="672" y="709.5332">CurrentLongitudeDevice</text></g><!--class CAutoHeadlightAppSimulate--><g class="entity" data-entity="CAutoHeadlightAppSimulate" data-source-line="4" data-uid="ent0003" id="entity_CAutoHeadlightAppSimulate"><rect fill="#F1F1F1" height="276.9219" rx="2.5" ry="2.5" style="stroke:#181818;stroke-width:0.5;" width="365.2949" x="335.5" y="130"/><ellipse cx="425.1772" cy="146" fill="#ADD1B2" rx="11" ry="11" style="stroke:#181818;stroke-width:1;"/><path d="M427.9429,141.875 Q428.0991,141.6563 428.2866,141.5469 Q428.4741,141.4375 428.6929,141.4375 Q429.0679,141.4375 429.3022,141.6953 Q429.5366,141.9531 429.5366,142.5625 L429.5366,144.0156 Q429.5366,144.625 429.3022,144.8906 Q429.0679,145.1563 428.6929,145.1563 Q428.3491,145.1563 428.146,144.9531 Q427.9429,144.7656 427.8335,144.25 Q427.7866,143.8906 427.5991,143.7031 Q427.271,143.3281 426.6616,143.1094 Q426.0522,142.8906 425.4272,142.8906 Q424.6616,142.8906 424.0288,143.2188 Q423.396,143.5469 422.9038,144.2969 Q422.4116,145.0469 422.4116,146.0781 L422.4116,147.1719 Q422.4116,148.4063 423.3022,149.2266 Q424.1929,150.0469 425.7866,150.0469 Q426.7241,150.0469 427.3804,149.7969 Q427.771,149.6406 428.1929,149.2031 Q428.4585,148.9375 428.6069,148.8594 Q428.7554,148.7813 428.9585,148.7813 Q429.2866,148.7813 429.5444,149.0391 Q429.8022,149.2969 429.8022,149.6406 Q429.8022,149.9844 429.4585,150.3906 Q428.9585,150.9688 428.1616,151.2969 Q427.0835,151.75 425.7866,151.75 Q424.271,151.75 423.0679,151.125 Q422.0835,150.625 421.396,149.5547 Q420.7085,148.4844 420.7085,147.2031 L420.7085,146.0469 Q420.7085,144.7188 421.3257,143.5703 Q421.9429,142.4219 423.0366,141.8047 Q424.1304,141.1875 425.3647,141.1875 Q426.0991,141.1875 426.7476,141.3516 Q427.396,141.5156 427.9429,141.875 Z " fill="#000000"/><text fill="#000000" font-family="sans-serif" font-size="14" lengthAdjust="spacing" textLength="177.4404" x="445.6772" y="151.7285">CAutoHeadlightAppSimulate</text><line style="stroke:#181818;stroke-width:0.5;" x1="336.5" x2="699.7949" y1="162" y2="162"/><line style="stroke:#181818;stroke-width:0.5;" x1="336.5" x2="699.7949" y1="170" y2="170"/><ellipse cx="346.5" cy="184.3047" fill="#84BE84" rx="3" ry="3" style="stroke:#038048;stroke-width:1;"/><text fill="#000000" font-family="sans-serif" font-size="14" lengthAdjust="spacing" textLength="90.2617" x="355.5" y="188.5332">bool Initialize()</text><ellipse cx="346.5" cy="201.9141" fill="#84BE84" rx="3" ry="3" style="stroke:#038048;stroke-width:1;"/><text fill="#000000" font-family="sans-serif" font-size="14" lengthAdjust="spacing" textLength="101.165" x="355.5" y="206.1426">void Shutdown()</text><ellipse cx="346.5" cy="219.5234" fill="#84BE84" rx="3" ry="3" style="stroke:#038048;stroke-width:1;"/><text fill="#000000" font-family="sans-serif" font-size="14" lengthAdjust="spacing" textLength="142.3926" x="355.5" y="223.752">void ExecuteTestRun()</text><rect fill="#F24D5C" height="6" style="stroke:#C82930;stroke-width:1;" width="6" x="343.5" y="234.1328"/><text fill="#000000" font-family="sans-serif" font-size="14" lengthAdjust="spacing" textLength="80.917" x="355.5" y="241.3613">bool KeyHit()</text><rect fill="#F24D5C" height="6" style="stroke:#C82930;stroke-width:1;" width="6" x="343.5" y="251.7422"/><text fill="#000000" font-family="sans-serif" font-size="14" lengthAdjust="spacing" textLength="93.3584" x="355.5" y="258.9707">char GetChar()</text><rect fill="#F24D5C" height="6" style="stroke:#C82930;stroke-width:1;" width="6" x="343.5" y="269.3516"/><text fill="#000000" font-family="sans-serif" font-size="14" lengthAdjust="spacing" textLength="177.3926" x="355.5" y="276.5801">bool GetAccessToServices()</text><rect fill="#F24D5C" height="6" style="stroke:#C82930;stroke-width:1;" width="6" x="343.5" y="286.9609"/><text fill="#000000" font-family="sans-serif" font-size="14" lengthAdjust="spacing" textLength="212.4199" x="355.5" y="294.1895">bool RegisterSignalsSimDatalink()</text><rect fill="#F24D5C" height="6" style="stroke:#C82930;stroke-width:1;" width="6" x="343.5" y="304.5703"/><text fill="#000000" font-family="sans-serif" font-size="14" lengthAdjust="spacing" textLength="196.0752" x="355.5" y="311.7988">void ResetSignalsSimDatalink()</text><rect fill="#F24D5C" height="6" style="stroke:#C82930;stroke-width:1;" width="6" x="343.5" y="322.1797"/><text fill="#000000" font-family="sans-serif" font-size="14" lengthAdjust="spacing" textLength="248.9717" x="355.5" y="329.4082">bool IsSDVFrameworkEnvironmentSet()</text><rect fill="#F24D5C" height="6" style="stroke:#C82930;stroke-width:1;" width="6" x="343.5" y="339.7891"/><text fill="#000000" font-family="sans-serif" font-size="14" lengthAdjust="spacing" textLength="261.4678" x="355.5" y="347.0176">virtual void SetCurrentLatitude(float value)</text><rect fill="#F24D5C" height="6" style="stroke:#C82930;stroke-width:1;" width="6" x="343.5" y="357.3984"/><text fill="#000000" font-family="sans-serif" font-size="14" lengthAdjust="spacing" textLength="273.1504" x="355.5" y="364.627">virtual void SetCurrentLongitude(float value)</text><rect fill="#F24D5C" height="6" style="stroke:#C82930;stroke-width:1;" width="6" x="343.5" y="375.0078"/><text fill="#000000" font-family="sans-serif" font-size="14" lengthAdjust="spacing" textLength="327.6123" x="355.5" y="382.2363">void CallbackToSetCurrentLatitude(sdv::any_t value)</text><rect fill="#F24D5C" height="6" style="stroke:#C82930;stroke-width:1;" width="6" x="343.5" y="392.6172"/><text fill="#000000" font-family="sans-serif" font-size="14" lengthAdjust="spacing" textLength="339.2949" x="355.5" y="399.8457">void CallbackToSetCurrentLongitude(sdv::any_t value)</text></g><!--class CConsole--><g class="entity" data-entity="CConsole" data-source-line="23" data-uid="ent0004" id="entity_CConsole"><rect fill="#F1F1F1" height="453.0156" rx="2.5" ry="2.5" style="stroke:#181818;stroke-width:0.5;" width="755.1211" x="735.5" y="42"/><ellipse cx="1078.0728" cy="58" fill="#ADD1B2" rx="11" ry="11" style="stroke:#181818;stroke-width:1;"/><path d="M1080.8384,53.875 Q1080.9946,53.6563 1081.1821,53.5469 Q1081.3696,53.4375 1081.5884,53.4375 Q1081.9634,53.4375 1082.1978,53.6953 Q1082.4321,53.9531 1082.4321,54.5625 L1082.4321,56.0156 Q1082.4321,56.625 1082.1978,56.8906 Q1081.9634,57.1563 1081.5884,57.1563 Q1081.2446,57.1563 1081.0415,56.9531 Q1080.8384,56.7656 1080.729,56.25 Q1080.6821,55.8906 1080.4946,55.7031 Q1080.1665,55.3281 1079.5571,55.1094 Q1078.9478,54.8906 1078.3228,54.8906 Q1077.5571,54.8906 1076.9243,55.2188 Q1076.2915,55.5469 1075.7993,56.2969 Q1075.3071,57.0469 1075.3071,58.0781 L1075.3071,59.1719 Q1075.3071,60.4063 1076.1978,61.2266 Q1077.0884,62.0469 1078.6821,62.0469 Q1079.6196,62.0469 1080.2759,61.7969 Q1080.6665,61.6406 1081.0884,61.2031 Q1081.354,60.9375 1081.5024,60.8594 Q1081.6509,60.7813 1081.854,60.7813 Q1082.1821,60.7813 1082.4399,61.0391 Q1082.6978,61.2969 1082.6978,61.6406 Q1082.6978,61.9844 1082.354,62.3906 Q1081.854,62.9688 1081.0571,63.2969 Q1079.979,63.75 1078.6821,63.75 Q1077.1665,63.75 1075.9634,63.125 Q1074.979,62.625 1074.2915,61.5547 Q1073.604,60.4844 1073.604,59.2031 L1073.604,58.0469 Q1073.604,56.7188 1074.2212,55.5703 Q1074.8384,54.4219 1075.9321,53.8047 Q1077.0259,53.1875 1078.2603,53.1875 Q1078.9946,53.1875 1079.6431,53.3516 Q1080.2915,53.5156 1080.8384,53.875 Z " fill="#000000"/><text fill="#000000" font-family="sans-serif" font-size="14" lengthAdjust="spacing" textLength="61.4756" x="1098.5728" y="63.7285">CConsole</text><line style="stroke:#181818;stroke-width:0.5;" x1="736.5" x2="1489.6211" y1="74" y2="74"/><line style="stroke:#181818;stroke-width:0.5;" x1="736.5" x2="1489.6211" y1="82" y2="82"/><ellipse cx="746.5" cy="96.3047" fill="#84BE84" rx="3" ry="3" style="stroke:#038048;stroke-width:1;"/><text fill="#000000" font-family="sans-serif" font-size="14" lengthAdjust="spacing" textLength="113.5996" x="755.5" y="100.5332">void PrintHeader()</text><ellipse cx="746.5" cy="113.9141" fill="#84BE84" rx="3" ry="3" style="stroke:#038048;stroke-width:1;"/><text fill="#000000" font-family="sans-serif" font-size="14" lengthAdjust="spacing" textLength="190.6406" x="755.5" y="118.1426">bool PrepareDataConsumers()</text><ellipse cx="746.5" cy="131.5234" fill="#84BE84" rx="3" ry="3" style="stroke:#038048;stroke-width:1;"/><text fill="#000000" font-family="sans-serif" font-size="14" lengthAdjust="spacing" textLength="121.3857" x="755.5" y="135.752">void ResetSignals()</text><ellipse cx="746.5" cy="149.1328" fill="#84BE84" rx="3" ry="3" style="stroke:#038048;stroke-width:1;"/><text fill="#000000" font-family="sans-serif" font-size="14" lengthAdjust="spacing" textLength="187.5371" x="755.5" y="153.3613">void StartUpdateDataThread()</text><ellipse cx="746.5" cy="166.7422" fill="#84BE84" rx="3" ry="3" style="stroke:#038048;stroke-width:1;"/><text fill="#000000" font-family="sans-serif" font-size="14" lengthAdjust="spacing" textLength="186.7715" x="755.5" y="170.9707">void StopUpdateDataThread()</text><rect fill="#F24D5C" height="6" style="stroke:#C82930;stroke-width:1;" width="6" x="743.5" y="181.3516"/><text fill="#000000" font-family="sans-serif" font-size="14" lengthAdjust="spacing" textLength="231.8818" x="755.5" y="188.5801">void WriteCurrentLatitude(float value)</text><rect fill="#F24D5C" height="6" style="stroke:#C82930;stroke-width:1;" width="6" x="743.5" y="198.9609"/><text fill="#000000" font-family="sans-serif" font-size="14" lengthAdjust="spacing" textLength="243.5645" x="755.5" y="206.1895">void WriteCurrentLongitude(float value)</text><rect fill="#F24D5C" height="6" style="stroke:#C82930;stroke-width:1;" width="6" x="743.5" y="216.5703"/><text fill="#000000" font-family="sans-serif" font-size="14" lengthAdjust="spacing" textLength="220.2334" x="755.5" y="223.7988">void SetCurrentLatitude(float value)</text><rect fill="#F24D5C" height="6" style="stroke:#C82930;stroke-width:1;" width="6" x="743.5" y="234.1797"/><text fill="#000000" font-family="sans-serif" font-size="14" lengthAdjust="spacing" textLength="231.916" x="755.5" y="241.4082">void SetCurrentLongitude(float value)</text><rect fill="#F24D5C" height="6" style="stroke:#C82930;stroke-width:1;" width="6" x="743.5" y="251.7891"/><text fill="#000000" font-family="sans-serif" font-size="14" lengthAdjust="spacing" textLength="137.7305" x="755.5" y="259.0176">bool RegisterSignals()</text><rect fill="#F24D5C" height="6" style="stroke:#C82930;stroke-width:1;" width="6" x="743.5" y="269.3984"/><text fill="#000000" font-family="sans-serif" font-size="14" lengthAdjust="spacing" textLength="290.2607" x="755.5" y="276.627">void CallbackCurrentLatitude(sdv::any_t value)</text><rect fill="#F24D5C" height="6" style="stroke:#C82930;stroke-width:1;" width="6" x="743.5" y="287.0078"/><text fill="#000000" font-family="sans-serif" font-size="14" lengthAdjust="spacing" textLength="301.9434" x="755.5" y="294.2363">void CallbackCurrentLongitude(sdv::any_t value)</text><rect fill="#F24D5C" height="6" style="stroke:#C82930;stroke-width:1;" width="6" x="743.5" y="304.6172"/><text fill="#000000" font-family="sans-serif" font-size="14" lengthAdjust="spacing" textLength="327.6123" x="755.5" y="311.8457">void CallbackToSetCurrentLatitude(sdv::any_t value)</text><rect fill="#F24D5C" height="6" style="stroke:#C82930;stroke-width:1;" width="6" x="743.5" y="322.2266"/><text fill="#000000" font-family="sans-serif" font-size="14" lengthAdjust="spacing" textLength="339.2949" x="755.5" y="329.4551">void CallbackToSetCurrentLongitude(sdv::any_t value)</text><rect fill="#F24D5C" height="6" style="stroke:#C82930;stroke-width:1;" width="6" x="743.5" y="339.8359"/><text fill="#000000" font-family="sans-serif" font-size="14" lengthAdjust="spacing" textLength="189.0957" x="755.5" y="347.0645">void UpdateDataThreadFunc()</text><rect fill="#F24D5C" height="6" style="stroke:#C82930;stroke-width:1;" width="6" x="743.5" y="357.4453"/><text fill="#000000" font-family="sans-serif" font-size="14" lengthAdjust="spacing" textLength="661.4521" x="755.5" y="364.6738">void UpdateTXSignal(SConsolePos sPos, const std::string&amp; label, sdv::core::CSignal&amp; signal, bool&amp; value)</text><rect fill="#F24D5C" height="6" style="stroke:#C82930;stroke-width:1;" width="6" x="743.5" y="375.0547"/><text fill="#000000" font-family="sans-serif" font-size="14" lengthAdjust="spacing" textLength="224.0889" x="755.5" y="382.2832">SConsolePos GetCursorPos() const</text><rect fill="#F24D5C" height="6" style="stroke:#C82930;stroke-width:1;" width="6" x="743.5" y="392.6641"/><text fill="#000000" font-family="sans-serif" font-size="14" lengthAdjust="spacing" textLength="249.7715" x="755.5" y="399.8926">void SetCursorPos(SConsolePos sPos);</text><rect fill="#F24D5C" height="6" style="stroke:#C82930;stroke-width:1;" width="6" x="743.5" y="410.2734"/><text fill="#000000" font-family="sans-serif" font-size="14" lengthAdjust="spacing" textLength="383.5781" x="755.5" y="417.502">void PrintText(SConsolePos sPos, const std::string&amp; rssText);</text><rect fill="#F24D5C" height="6" style="stroke:#C82930;stroke-width:1;" width="6" x="743.5" y="427.8828"/><text fill="#000000" font-family="sans-serif" font-size="14" lengthAdjust="spacing" textLength="675.3975" x="755.5" y="435.1113">void PrintValue(SConsolePos sPos, const std::string&amp; rssName, TValue tValue, const std::string&amp; rssStatus);</text><rect fill="#F24D5C" height="6" style="stroke:#C82930;stroke-width:1;" width="6" x="743.5" y="445.4922"/><text fill="#000000" font-family="sans-serif" font-size="14" lengthAdjust="spacing" textLength="487.5391" x="755.5" y="452.7207">std::string AlignString(const std::string&amp; message, uint32_t desiredLength = 0);</text><rect fill="#F24D5C" height="6" style="stroke:#C82930;stroke-width:1;" width="6" x="743.5" y="463.1016"/><text fill="#000000" font-family="sans-serif" font-size="14" lengthAdjust="spacing" textLength="700.2939" x="755.5" y="470.3301">inline void PrintValue(SConsolePos sPos, const std::string&amp; rssName, TValue tValue, const std::string&amp; rssUnits)</text><rect fill="#F24D5C" height="6" style="stroke:#C82930;stroke-width:1;" width="6" x="743.5" y="480.7109"/><text fill="#000000" font-family="sans-serif" font-size="14" lengthAdjust="spacing" textLength="729.1211" x="755.5" y="487.9395">inline void PrintValue&lt;bool&gt;(SConsolePos sPos, const std::string&amp; rssName, bool bValue, const std::string&amp; rssUnits)</text></g><!--class IVSS_SetCurrentLatitude_Event--><g class="entity" data-entity="IVSS_SetCurrentLatitude_Event" data-source-line="51" data-uid="ent0005" id="entity_IVSS_SetCurrentLatitude_Event"><rect fill="#F1F1F1" height="65.6094" rx="2.5" ry="2.5" style="stroke:#181818;stroke-width:0.5;" width="232.792" x="394.5" y="729"/><ellipse cx="409.5" cy="745" fill="#B4A7E5" rx="11" ry="11" style="stroke:#181818;stroke-width:1;"/><path d="M410.4531,741.6406 L410.4531,748.2969 L412.1719,748.2969 Q412.7813,748.2969 413.0469,748.5313 Q413.3125,748.7656 413.3125,749.1563 Q413.3125,749.5313 413.0469,749.7656 Q412.7813,750 412.1719,750 L407.0313,750 Q406.4219,750 406.1563,749.7656 Q405.8906,749.5313 405.8906,749.1406 Q405.8906,748.7656 406.1563,748.5313 Q406.4219,748.2969 407.0313,748.2969 L408.75,748.2969 L408.75,741.6406 L407.0313,741.6406 Q406.4219,741.6406 406.1563,741.4063 Q405.8906,741.1719 405.8906,740.7813 Q405.8906,740.4063 406.1563,740.1719 Q406.4219,739.9375 407.0313,739.9375 L412.1719,739.9375 Q412.7813,739.9375 413.0469,740.1719 Q413.3125,740.4063 413.3125,740.7813 Q413.3125,741.1719 413.0469,741.4063 Q412.7813,741.6406 412.1719,741.6406 L410.4531,741.6406 Z " fill="#000000"/><text fill="#000000" font-family="sans-serif" font-size="14" font-style="italic" lengthAdjust="spacing" textLength="200.792" x="423.5" y="750.7285">IVSS_SetCurrentLatitude_Event</text><line style="stroke:#181818;stroke-width:0.5;" x1="395.5" x2="626.292" y1="761" y2="761"/><line style="stroke:#181818;stroke-width:0.5;" x1="395.5" x2="626.292" y1="769" y2="769"/><text fill="#000000" font-family="sans-serif" font-size="14" font-style="italic" lengthAdjust="spacing" textLength="220.2334" x="400.5" y="787.5332">void SetCurrentLatitude(float value)</text></g><!--class IVSS_SetCurrentLongitude_Event--><g class="entity" data-entity="IVSS_SetCurrentLongitude_Event" data-source-line="55" data-uid="ent0010" id="entity_IVSS_SetCurrentLongitude_Event"><rect fill="#F1F1F1" height="65.6094" rx="2.5" ry="2.5" style="stroke:#181818;stroke-width:0.5;" width="244.4746" x="996" y="729"/><ellipse cx="1011" cy="745" fill="#B4A7E5" rx="11" ry="11" style="stroke:#181818;stroke-width:1;"/><path d="M1011.9531,741.6406 L1011.9531,748.2969 L1013.6719,748.2969 Q1014.2813,748.2969 1014.5469,748.5313 Q1014.8125,748.7656 1014.8125,749.1563 Q1014.8125,749.5313 1014.5469,749.7656 Q1014.2813,750 1013.6719,750 L1008.5313,750 Q1007.9219,750 1007.6563,749.7656 Q1007.3906,749.5313 1007.3906,749.1406 Q1007.3906,748.7656 1007.6563,748.5313 Q1007.9219,748.2969 1008.5313,748.2969 L1010.25,748.2969 L1010.25,741.6406 L1008.5313,741.6406 Q1007.9219,741.6406 1007.6563,741.4063 Q1007.3906,741.1719 1007.3906,740.7813 Q1007.3906,740.4063 1007.6563,740.1719 Q1007.9219,739.9375 1008.5313,739.9375 L1013.6719,739.9375 Q1014.2813,739.9375 1014.5469,740.1719 Q1014.8125,740.4063 1014.8125,740.7813 Q1014.8125,741.1719 1014.5469,741.4063 Q1014.2813,741.6406 1013.6719,741.6406 L1011.9531,741.6406 Z " fill="#000000"/><text fill="#000000" font-family="sans-serif" font-size="14" font-style="italic" lengthAdjust="spacing" textLength="212.4746" x="1025" y="750.7285">IVSS_SetCurrentLongitude_Event</text><line style="stroke:#181818;stroke-width:0.5;" x1="997" x2="1239.4746" y1="761" y2="761"/><line style="stroke:#181818;stroke-width:0.5;" x1="997" x2="1239.4746" y1="769" y2="769"/><text fill="#000000" font-family="sans-serif" font-size="14" font-style="italic" lengthAdjust="spacing" textLength="231.916" x="1002" y="787.5332">void SetCurrentLongitude(float value)</text></g><!--class IVSS_WriteCurrentLatitude_Event--><g class="entity" data-entity="IVSS_WriteCurrentLatitude_Event" data-source-line="62" data-uid="ent0012" id="entity_IVSS_WriteCurrentLatitude_Event"><rect fill="#F1F1F1" height="65.6094" rx="2.5" ry="2.5" style="stroke:#181818;stroke-width:0.5;" width="244.4404" x="94" y="729"/><ellipse cx="109" cy="745" fill="#B4A7E5" rx="11" ry="11" style="stroke:#181818;stroke-width:1;"/><path d="M109.9531,741.6406 L109.9531,748.2969 L111.6719,748.2969 Q112.2813,748.2969 112.5469,748.5313 Q112.8125,748.7656 112.8125,749.1563 Q112.8125,749.5313 112.5469,749.7656 Q112.2813,750 111.6719,750 L106.5313,750 Q105.9219,750 105.6563,749.7656 Q105.3906,749.5313 105.3906,749.1406 Q105.3906,748.7656 105.6563,748.5313 Q105.9219,748.2969 106.5313,748.2969 L108.25,748.2969 L108.25,741.6406 L106.5313,741.6406 Q105.9219,741.6406 105.6563,741.4063 Q105.3906,741.1719 105.3906,740.7813 Q105.3906,740.4063 105.6563,740.1719 Q105.9219,739.9375 106.5313,739.9375 L111.6719,739.9375 Q112.2813,739.9375 112.5469,740.1719 Q112.8125,740.4063 112.8125,740.7813 Q112.8125,741.1719 112.5469,741.4063 Q112.2813,741.6406 111.6719,741.6406 L109.9531,741.6406 Z " fill="#000000"/><text fill="#000000" font-family="sans-serif" font-size="14" font-style="italic" lengthAdjust="spacing" textLength="212.4404" x="123" y="750.7285">IVSS_WriteCurrentLatitude_Event</text><line style="stroke:#181818;stroke-width:0.5;" x1="95" x2="337.4404" y1="761" y2="761"/><line style="stroke:#181818;stroke-width:0.5;" x1="95" x2="337.4404" y1="769" y2="769"/><text fill="#000000" font-family="sans-serif" font-size="14" font-style="italic" lengthAdjust="spacing" textLength="231.8818" x="100" y="787.5332">void WriteCurrentLatitude(float value)</text></g><!--class IVSS_WriteCurrentLongitude_Event--><g class="entity" data-entity="IVSS_WriteCurrentLongitude_Event" data-source-line="66" data-uid="ent0014" id="entity_IVSS_WriteCurrentLongitude_Event"><rect fill="#F1F1F1" height="65.6094" rx="2.5" ry="2.5" style="stroke:#181818;stroke-width:0.5;" width="256.123" x="684" y="729"/><ellipse cx="699" cy="745" fill="#B4A7E5" rx="11" ry="11" style="stroke:#181818;stroke-width:1;"/><path d="M699.9531,741.6406 L699.9531,748.2969 L701.6719,748.2969 Q702.2813,748.2969 702.5469,748.5313 Q702.8125,748.7656 702.8125,749.1563 Q702.8125,749.5313 702.5469,749.7656 Q702.2813,750 701.6719,750 L696.5313,750 Q695.9219,750 695.6563,749.7656 Q695.3906,749.5313 695.3906,749.1406 Q695.3906,748.7656 695.6563,748.5313 Q695.9219,748.2969 696.5313,748.2969 L698.25,748.2969 L698.25,741.6406 L696.5313,741.6406 Q695.9219,741.6406 695.6563,741.4063 Q695.3906,741.1719 695.3906,740.7813 Q695.3906,740.4063 695.6563,740.1719 Q695.9219,739.9375 696.5313,739.9375 L701.6719,739.9375 Q702.2813,739.9375 702.5469,740.1719 Q702.8125,740.4063 702.8125,740.7813 Q702.8125,741.1719 702.5469,741.4063 Q702.2813,741.6406 701.6719,741.6406 L699.9531,741.6406 Z " fill="#000000"/><text fill="#000000" font-family="sans-serif" font-size="14" font-style="italic" lengthAdjust="spacing" textLength="224.123" x="713" y="750.7285">IVSS_WriteCurrentLongitude_Event</text><line style="stroke:#181818;stroke-width:0.5;" x1="685" x2="939.123" y1="761" y2="761"/><line style="stroke:#181818;stroke-width:0.5;" x1="685" x2="939.123" y1="769" y2="769"/><text fill="#000000" font-family="sans-serif" font-size="14" font-style="italic" lengthAdjust="spacing" textLength="243.5645" x="690" y="787.5332">void WriteCurrentLongitude(float value)</text></g><!--link CAutoHeadlightAppSimulate to IVSS_SetCurrentLatitude_Event--><g class="link" data-entity-1="CAutoHeadlightAppSimulate" data-entity-2="IVSS_SetCurrentLatitude_Event" data-source-line="71" data-uid="lnk16" id="link_CAutoHeadlightAppSimulate_IVSS_SetCurrentLatitude_Event"><path codeLine="71" d="M516.04,407.06 C514.47,517.54 512.6379,646.4518 511.7179,710.6618" fill="none" id="CAutoHeadlightAppSimulate-to-IVSS_SetCurrentLatitude_Event" style="stroke:#181818;stroke-width:1;stroke-dasharray:7,7;"/><polygon fill="none" points="511.46,728.66,517.7173,710.7478,505.7185,710.5759,511.46,728.66" style="stroke:#181818;stroke-width:1;"/><text fill="#000000" font-family="sans-serif" font-size="13" lengthAdjust="spacing" textLength="67.1899" x="516" y="541.4951">Implements</text></g><!--link CAutoHeadlightAppSimulate to IVSS_SetCurrentLongitude_Event--><g class="link" data-entity-1="CAutoHeadlightAppSimulate" data-entity-2="IVSS_SetCurrentLongitude_Event" data-source-line="72" data-uid="lnk17" id="link_CAutoHeadlightAppSimulate_IVSS_SetCurrentLongitude_Event"><path codeLine="72" d="M599.84,407.2 C631.56,449.39 671.53,491.8 718,519 C721.81,521.23 870.62,544.42 875,545 C892.93,547.37 940.16,544.27 956,553 C1028.96,593.21 1072.1094,665.2311 1095.5494,712.8411" fill="none" id="CAutoHeadlightAppSimulate-to-IVSS_SetCurrentLongitude_Event" style="stroke:#181818;stroke-width:1;stroke-dasharray:7,7;"/><polygon fill="none" points="1103.5,728.99,1100.9323,710.1909,1090.1664,715.4913,1103.5,728.99" style="stroke:#181818;stroke-width:1;"/><text fill="#000000" font-family="sans-serif" font-size="13" lengthAdjust="spacing" textLength="67.1899" x="876" y="541.4951">Implements</text></g><!--link CAutoHeadlightAppSimulate to IVSS_WriteCurrentLatitude_Event--><g class="link" data-entity-1="CAutoHeadlightAppSimulate" data-entity-2="IVSS_WriteCurrentLatitude_Event" data-source-line="73" data-uid="lnk18" id="link_CAutoHeadlightAppSimulate_IVSS_WriteCurrentLatitude_Event"><path codeLine="73" d="M433.47,407.06 C365.6,517.54 284.7427,649.1133 245.2927,713.3233" fill="none" id="CAutoHeadlightAppSimulate-to-IVSS_WriteCurrentLatitude_Event" style="stroke:#181818;stroke-width:1;stroke-dasharray:7,7;"/><polygon fill="none" points="235.87,728.66,250.4049,716.4642,240.1805,710.1825,235.87,728.66" style="stroke:#181818;stroke-width:1;"/><text fill="#000000" font-family="sans-serif" font-size="13" lengthAdjust="spacing" textLength="67.1899" x="359" y="541.4951">Implements</text></g><!--link CAutoHeadlightAppSimulate to IVSS_WriteCurrentLongitude_Event--><g class="link" data-entity-1="CAutoHeadlightAppSimulate" data-entity-2="IVSS_WriteCurrentLongitude_Event" data-source-line="74" data-uid="lnk19" id="link_CAutoHeadlightAppSimulate_IVSS_WriteCurrentLongitude_Event"><path codeLine="74" d="M600.29,407.06 C666.37,517.54 745.0096,649.0028 783.4196,713.2128" fill="none" id="CAutoHeadlightAppSimulate-to-IVSS_WriteCurrentLongitude_Event" style="stroke:#181818;stroke-width:1;stroke-dasharray:7,7;"/><polygon fill="none" points="792.66,728.66,788.5687,710.1327,778.2705,716.293,792.66,728.66" style="stroke:#181818;stroke-width:1;"/><text fill="#000000" font-family="sans-serif" font-size="13" lengthAdjust="spacing" textLength="67.1899" x="684" y="541.4951">Implements</text></g><!--link CConsole to IVSS_SetCurrentLatitude_Event--><g class="link" data-entity-1="CConsole" data-entity-2="IVSS_SetCurrentLatitude_Event" data-source-line="75" data-uid="lnk20" id="link_CConsole_IVSS_SetCurrentLatitude_Event"><path codeLine="75" d="M1007.02,495.03 C989.84,514.65 970.25,531.97 948,545 C921.14,560.73 695.66,538.73 668,553 C594.62,590.86 553.4908,664.0464 531.6608,712.3664" fill="none" id="CConsole-to-IVSS_SetCurrentLatitude_Event" style="stroke:#181818;stroke-width:1;stroke-dasharray:7,7;"/><polygon fill="none" points="524.25,728.77,537.1287,714.8366,526.193,709.8961,524.25,728.77" style="stroke:#181818;stroke-width:1;"/><text fill="#000000" font-family="sans-serif" font-size="13" lengthAdjust="spacing" textLength="67.1899" x="970" y="541.4951">Implements</text></g><!--link CConsole to IVSS_SetCurrentLongitude_Event--><g class="link" data-entity-1="CConsole" data-entity-2="IVSS_SetCurrentLongitude_Event" data-source-line="76" data-uid="lnk21" id="link_CConsole_IVSS_SetCurrentLongitude_Event"><path codeLine="76" d="M1115.3,495.11 C1116.22,585.96 1116.9968,662.5009 1117.4868,710.6309" fill="none" id="CConsole-to-IVSS_SetCurrentLongitude_Event" style="stroke:#181818;stroke-width:1;stroke-dasharray:7,7;"/><polygon fill="none" points="1117.67,728.63,1123.4864,710.5699,1111.4871,710.692,1117.67,728.63" style="stroke:#181818;stroke-width:1;"/><text fill="#000000" font-family="sans-serif" font-size="13" lengthAdjust="spacing" textLength="67.1899" x="1116" y="541.4951">Implements</text></g><!--SRC=[nLR9Rjim4BtxAmOv13Bg1aLxOzi0XhEYGH54ZjjRG4iJcGXD2YJb94tpxnrAYYBPbYExG7lHGitoEEznHc3HWSMK6-wq0SPwaFBeZYS8UsV8OocIcODXcaeHSIUq0dp0A7DyAd6l1qyz08WajnP6mypfoeKyGZ7F97VeJPvw_WhmRggrX7CbdE1I_CAWNwulj8WXd6KkrlUgkNgS9yGnMdULLT_Uvv6-uUEPSDLQDEC6Jj6DwDuqfCLX5A6rOnsYMGXwR1fSOIAiGnEAH75f2VmHTuHHtLLsEPehf8fjC2esQCEZoOdXSxpNvkvOBOJHQexAXVWAbXPTnYKKMoVGcJ5aSa5bTbcCmQtKtC62ompVSj4gQVVnjYCkvPHuzRjVIMJZ1MDSFTvqzgpohRfwt-TUJHOZhQoMfGfgj5uQePpN2rPK5UguD5wEw2lhVRCv6jjKH9s39GKvRjnr6fFilFzuPYZ1iebEsooABVymmc4NDbQCt-IX8yrRqBjElC5Q1dUYlGFZ_qLcDTTbCayo5GLhBCO_Y_84OId9Ist1qcK04IrG6tGnOzQHBfDza7oASW1vvaWRP6nKkE-3pUy3yANVRmAgXpxDDsArePUWN-HO9RZyleof_xbkcf-LCJwuRjWDjJaoNXDZui5s3lAT6jW0nhaJ5BvjfdJmNFQAklOPXZGGL9W_1skSvzIKQTmC82DydpuInJ5QOJ2-G9Mu6No53rLOeQZN8lo3_LpJYBBzZMc_UFuFjqoU7zTfnzI-ZpxtQ5pIqRxb4I6mbh49paGaIP2KJFYHJD9i7hLomZ5sFWd3czMZU7EyeBToUZ_nAINdaNlkE8csGlHoX5iXlHXqnTJI2wbKlHqgTOGrLElw_aPO7GR5JiLgHzMfMbr6afTMwnyR71pyFWJOg1vWS3vF9Vg_6hjzhEP6TWdMpXQmlmksZAqHhJpjkvHei-kcYlm1]--></g></svg>