<svg xmlns="http://www.w3.org/2000/svg" xmlns:xlink="http://www.w3.org/1999/xlink" contentStyleType="text/css" data-diagram-type="CLASS" height="830px" preserveAspectRatio="none" style="width:1731px;height:830px;background:#FFFFFF;" version="1.1" viewBox="0 0 1731 830" width="1731px" zoomAndPan="magnify"><defs/><g><!--cluster sdv--><g class="cluster" data-entity="sdv" data-source-line="19" data-uid="ent0004" id="cluster_sdv"><path d="M8.5,550.5 L33.624,550.5 A3.75,3.75 0 0 1 36.124,553 L43.124,574.1094 L810.5,574.1094 A2.5,2.5 0 0 1 813,576.6094 L813,718 A2.5,2.5 0 0 1 810.5,720.5 L8.5,720.5 A2.5,2.5 0 0 1 6,718 L6,553 A2.5,2.5 0 0 1 8.5,550.5" fill="none" style="stroke:#000000;stroke-width:1.5;"/><line style="stroke:#000000;stroke-width:1.5;" x1="6" x2="43.124" y1="574.1094" y2="574.1094"/><text fill="#000000" font-family="sans-serif" font-size="14" font-weight="bold" lengthAdjust="spacing" textLength="24.124" x="10" y="567.0332">sdv</text></g><!--cluster vss--><g class="cluster" data-entity="vss" data-source-line="35" data-uid="ent0007" id="cluster_vss"><path d="M839.5,348 L863.8584,348 A3.75,3.75 0 0 1 866.3584,350.5 L873.3584,371.6094 L1721.5,371.6094 A2.5,2.5 0 0 1 1724,374.1094 L1724,820.5 A2.5,2.5 0 0 1 1721.5,823 L839.5,823 A2.5,2.5 0 0 1 837,820.5 L837,350.5 A2.5,2.5 0 0 1 839.5,348" fill="none" style="stroke:#000000;stroke-width:1.5;"/><line style="stroke:#000000;stroke-width:1.5;" x1="837" x2="873.3584" y1="371.6094" y2="371.6094"/><text fill="#000000" font-family="sans-serif" font-size="14" font-weight="bold" lengthAdjust="spacing" textLength="23.3584" x="841" y="364.5332">vss</text></g><!--cluster Vehicle--><g class="cluster" data-entity="Vehicle" data-source-line="35" data-uid="ent0008" id="cluster_Vehicle"><path d="M863.5,392 L913.5273,392 A3.75,3.75 0 0 1 916.0273,394.5 L923.0273,415.6094 L1697.5,415.6094 A2.5,2.5 0 0 1 1700,418.1094 L1700,796.5 A2.5,2.5 0 0 1 1697.5,799 L863.5,799 A2.5,2.5 0 0 1 861,796.5 L861,394.5 A2.5,2.5 0 0 1 863.5,392" fill="none" style="stroke:#000000;stroke-width:1.5;"/><line style="stroke:#000000;stroke-width:1.5;" x1="861" x2="923.0273" y1="415.6094" y2="415.6094"/><text fill="#000000" font-family="sans-serif" font-size="14" font-weight="bold" lengthAdjust="spacing" textLength="49.0273" x="865" y="408.5332">Vehicle</text></g><!--cluster Chassis--><g class="cluster" data-entity="Chassis" data-source-line="35" data-uid="ent0009" id="cluster_Chassis"><path d="M887.5,436 L942.1963,436 A3.75,3.75 0 0 1 944.6963,438.5 L951.6963,459.6094 L1673.5,459.6094 A2.5,2.5 0 0 1 1676,462.1094 L1676,772.5 A2.5,2.5 0 0 1 1673.5,775 L887.5,775 A2.5,2.5 0 0 1 885,772.5 L885,438.5 A2.5,2.5 0 0 1 887.5,436" fill="none" style="stroke:#000000;stroke-width:1.5;"/><line style="stroke:#000000;stroke-width:1.5;" x1="885" x2="951.6963" y1="459.6094" y2="459.6094"/><text fill="#000000" font-family="sans-serif" font-size="14" font-weight="bold" lengthAdjust="spacing" textLength="53.6963" x="889" y="452.5332">Chassis</text></g><!--cluster Door--><g class="cluster" data-entity="Door" data-source-line="35" data-uid="ent0010" id="cluster_Door"><path d="M911.5,480 L945.1621,480 A3.75,3.75 0 0 1 947.6621,482.5 L954.6621,503.6094 L1649.5,503.6094 A2.5,2.5 0 0 1 1652,506.1094 L1652,748.5 A2.5,2.5 0 0 1 1649.5,751 L911.5,751 A2.5,2.5 0 0 1 909,748.5 L909,482.5 A2.5,2.5 0 0 1 911.5,480" fill="none" style="stroke:#000000;stroke-width:1.5;"/><line style="stroke:#000000;stroke-width:1.5;" x1="909" x2="954.6621" y1="503.6094" y2="503.6094"/><text fill="#000000" font-family="sans-serif" font-size="14" font-weight="bold" lengthAdjust="spacing" textLength="32.6621" x="913" y="496.5332">Door</text></g><!--cluster Axle02--><g class="cluster" data-entity="Axle02" data-source-line="35" data-uid="ent0011" id="cluster_Axle02"><path d="M935.5,524 L981.6445,524 A3.75,3.75 0 0 1 984.1445,526.5 L991.1445,547.6094 L1625.5,547.6094 A2.5,2.5 0 0 1 1628,550.1094 L1628,724.5 A2.5,2.5 0 0 1 1625.5,727 L935.5,727 A2.5,2.5 0 0 1 933,724.5 L933,526.5 A2.5,2.5 0 0 1 935.5,524" fill="none" style="stroke:#000000;stroke-width:1.5;"/><line style="stroke:#000000;stroke-width:1.5;" x1="933" x2="991.1445" y1="547.6094" y2="547.6094"/><text fill="#000000" font-family="sans-serif" font-size="14" font-weight="bold" lengthAdjust="spacing" textLength="45.1445" x="937" y="540.5332">Axle02</text></g><!--cluster RightDevice--><g class="cluster" data-entity="RightDevice" data-source-line="35" data-uid="ent0012" id="cluster_RightDevice"><path d="M959.5,568 L1041.4102,568 A3.75,3.75 0 0 1 1043.9102,570.5 L1050.9102,591.6094 L1601.5,591.6094 A2.5,2.5 0 0 1 1604,594.1094 L1604,700.5 A2.5,2.5 0 0 1 1601.5,703 L959.5,703 A2.5,2.5 0 0 1 957,700.5 L957,570.5 A2.5,2.5 0 0 1 959.5,568" fill="none" style="stroke:#000000;stroke-width:1.5;"/><line style="stroke:#000000;stroke-width:1.5;" x1="957" x2="1050.9102" y1="591.6094" y2="591.6094"/><text fill="#000000" font-family="sans-serif" font-size="14" font-weight="bold" lengthAdjust="spacing" textLength="80.9102" x="961" y="584.5332">RightDevice</text></g><!--class CSdvObject--><g class="entity" data-entity="CSdvObject" data-source-line="19" data-uid="ent0003" id="entity_CSdvObject"><rect fill="#F1F1F1" height="118.4375" rx="2.5" ry="2.5" style="stroke:#181818;stroke-width:0.5;" width="412.7705" x="22.5" y="586.5"/><ellipse cx="187.2871" cy="602.5" fill="#ADD1B2" rx="11" ry="11" style="stroke:#181818;stroke-width:1;"/><path d="M190.0527,598.375 Q190.209,598.1563 190.3965,598.0469 Q190.584,597.9375 190.8027,597.9375 Q191.1777,597.9375 191.4121,598.1953 Q191.6465,598.4531 191.6465,599.0625 L191.6465,600.5156 Q191.6465,601.125 191.4121,601.3906 Q191.1777,601.6563 190.8027,601.6563 Q190.459,601.6563 190.2559,601.4531 Q190.0527,601.2656 189.9434,600.75 Q189.8965,600.3906 189.709,600.2031 Q189.3809,599.8281 188.7715,599.6094 Q188.1621,599.3906 187.5371,599.3906 Q186.7715,599.3906 186.1387,599.7188 Q185.5059,600.0469 185.0137,600.7969 Q184.5215,601.5469 184.5215,602.5781 L184.5215,603.6719 Q184.5215,604.9063 185.4121,605.7266 Q186.3027,606.5469 187.8965,606.5469 Q188.834,606.5469 189.4902,606.2969 Q189.8809,606.1406 190.3027,605.7031 Q190.5684,605.4375 190.7168,605.3594 Q190.8652,605.2813 191.0684,605.2813 Q191.3965,605.2813 191.6543,605.5391 Q191.9121,605.7969 191.9121,606.1406 Q191.9121,606.4844 191.5684,606.8906 Q191.0684,607.4688 190.2715,607.7969 Q189.1934,608.25 187.8965,608.25 Q186.3809,608.25 185.1777,607.625 Q184.1934,607.125 183.5059,606.0547 Q182.8184,604.9844 182.8184,603.7031 L182.8184,602.5469 Q182.8184,601.2188 183.4355,600.0703 Q184.0527,598.9219 185.1465,598.3047 Q186.2402,597.6875 187.4746,597.6875 Q188.209,597.6875 188.8574,597.8516 Q189.5059,598.0156 190.0527,598.375 Z " fill="#000000"/><text fill="#000000" font-family="sans-serif" font-size="14" lengthAdjust="spacing" textLength="74.6963" x="207.7871" y="608.2285">CSdvObject</text><line style="stroke:#181818;stroke-width:0.5;" x1="23.5" x2="434.2705" y1="618.5" y2="618.5"/><line style="stroke:#181818;stroke-width:0.5;" x1="23.5" x2="434.2705" y1="626.5" y2="626.5"/><ellipse cx="33.5" cy="640.8047" fill="#84BE84" rx="3" ry="3" style="stroke:#038048;stroke-width:1;"/><text fill="#000000" font-family="sans-serif" font-size="14" lengthAdjust="spacing" text-decoration="underline" textLength="336.9365" x="42.5" y="645.0332">sdv::sequence&lt;sdv::u8string&gt; GetClassAliasesStatic()</text><ellipse cx="33.5" cy="658.4141" fill="#84BE84" rx="3" ry="3" style="stroke:#038048;stroke-width:1;"/><text fill="#000000" font-family="sans-serif" font-size="14" lengthAdjust="spacing" text-decoration="underline" textLength="272.3301" x="42.5" y="662.6426">sdv::u8string GetDefaultObjectNameStatic()</text><ellipse cx="33.5" cy="676.0234" fill="#84BE84" rx="3" ry="3" style="stroke:#038048;stroke-width:1;"/><text fill="#000000" font-family="sans-serif" font-size="14" lengthAdjust="spacing" text-decoration="underline" textLength="143.9648" x="42.5" y="680.252">bool IsSingletonStatic()</text><ellipse cx="33.5" cy="693.6328" fill="#84BE84" rx="3" ry="3" style="stroke:#038048;stroke-width:1;"/><text fill="#000000" font-family="sans-serif" font-size="14" lengthAdjust="spacing" text-decoration="underline" textLength="386.7705" x="42.5" y="697.8613">sdv::sequence&lt;sdv::u8string&gt; GetObjectDependenciesStatic()</text></g><!--class IObjectControl--><g class="entity" data-entity="IObjectControl" data-source-line="27" data-uid="ent0005" id="entity_IObjectControl"><rect fill="#F1F1F1" height="118.4375" rx="2.5" ry="2.5" style="stroke:#181818;stroke-width:0.5;" width="326.3574" x="471" y="586.5"/><ellipse cx="585.1875" cy="602.5" fill="#B4A7E5" rx="11" ry="11" style="stroke:#181818;stroke-width:1;"/><path d="M586.1406,599.1406 L586.1406,605.7969 L587.8594,605.7969 Q588.4688,605.7969 588.7344,606.0313 Q589,606.2656 589,606.6563 Q589,607.0313 588.7344,607.2656 Q588.4688,607.5 587.8594,607.5 L582.7188,607.5 Q582.1094,607.5 581.8438,607.2656 Q581.5781,607.0313 581.5781,606.6406 Q581.5781,606.2656 581.8438,606.0313 Q582.1094,605.7969 582.7188,605.7969 L584.4375,605.7969 L584.4375,599.1406 L582.7188,599.1406 Q582.1094,599.1406 581.8438,598.9063 Q581.5781,598.6719 581.5781,598.2813 Q581.5781,597.9063 581.8438,597.6719 Q582.1094,597.4375 582.7188,597.4375 L587.8594,597.4375 Q588.4688,597.4375 588.7344,597.6719 Q589,597.9063 589,598.2813 Q589,598.6719 588.7344,598.9063 Q588.4688,599.1406 587.8594,599.1406 L586.1406,599.1406 Z " fill="#000000"/><text fill="#000000" font-family="sans-serif" font-size="14" font-style="italic" lengthAdjust="spacing" textLength="89.4824" x="605.6875" y="608.2285">IObjectControl</text><line style="stroke:#181818;stroke-width:0.5;" x1="472" x2="796.3574" y1="618.5" y2="618.5"/><line style="stroke:#181818;stroke-width:0.5;" x1="472" x2="796.3574" y1="626.5" y2="626.5"/><text fill="#000000" font-family="sans-serif" font-size="14" font-style="italic" lengthAdjust="spacing" textLength="314.3574" x="477" y="645.0332">void Initialize(const sdv::u8string&amp; ssObjectConfig)</text><text fill="#000000" font-family="sans-serif" font-size="14" font-style="italic" lengthAdjust="spacing" textLength="202.3096" x="477" y="662.6426">EObjectStatus GetStatus() const</text><text fill="#000000" font-family="sans-serif" font-size="14" font-style="italic" lengthAdjust="spacing" textLength="308.9502" x="477" y="680.252">void SetOperationMode(EOperationMode eMode)</text><text fill="#000000" font-family="sans-serif" font-size="14" font-style="italic" lengthAdjust="spacing" textLength="101.165" x="477" y="697.8613">void Shutdown()</text></g><!--class IVSS_IsOpen--><g class="entity" data-entity="IVSS_IsOpen" data-source-line="35" data-uid="ent0006" id="entity_IVSS_IsOpen"><rect fill="#F1F1F1" height="83.2188" rx="2.5" ry="2.5" style="stroke:#181818;stroke-width:0.5;" width="401.0742" x="973.5" y="604"/><ellipse cx="1127.3735" cy="620" fill="#B4A7E5" rx="11" ry="11" style="stroke:#181818;stroke-width:1;"/><path d="M1128.3267,616.6406 L1128.3267,623.2969 L1130.0454,623.2969 Q1130.6548,623.2969 1130.9204,623.5313 Q1131.186,623.7656 1131.186,624.1563 Q1131.186,624.5313 1130.9204,624.7656 Q1130.6548,625 1130.0454,625 L1124.9048,625 Q1124.2954,625 1124.0298,624.7656 Q1123.7642,624.5313 1123.7642,624.1406 Q1123.7642,623.7656 1124.0298,623.5313 Q1124.2954,623.2969 1124.9048,623.2969 L1126.6235,623.2969 L1126.6235,616.6406 L1124.9048,616.6406 Q1124.2954,616.6406 1124.0298,616.4063 Q1123.7642,616.1719 1123.7642,615.7813 Q1123.7642,615.4063 1124.0298,615.1719 Q1124.2954,614.9375 1124.9048,614.9375 L1130.0454,614.9375 Q1130.6548,614.9375 1130.9204,615.1719 Q1131.186,615.4063 1131.186,615.7813 Q1131.186,616.1719 1130.9204,616.4063 Q1130.6548,616.6406 1130.0454,616.6406 L1128.3267,616.6406 Z " fill="#000000"/><text fill="#000000" font-family="sans-serif" font-size="14" font-style="italic" lengthAdjust="spacing" textLength="84.8271" x="1147.8735" y="625.7285">IVSS_IsOpen</text><line style="stroke:#181818;stroke-width:0.5;" x1="974.5" x2="1373.5742" y1="636" y2="636"/><line style="stroke:#181818;stroke-width:0.5;" x1="974.5" x2="1373.5742" y1="644" y2="644"/><text fill="#000000" font-family="sans-serif" font-size="14" font-style="italic" lengthAdjust="spacing" textLength="376.626" x="979.5" y="662.5332">void RegisterIsOpenEvent(IVSS_WriteIsOpen_Event* event)</text><text fill="#000000" font-family="sans-serif" font-size="14" font-style="italic" lengthAdjust="spacing" textLength="389.0742" x="979.5" y="680.1426">void UnregisterIsOpenEvent(IVSS_WriteIsOpen_Event* event)</text></g><!--class IVSS_WriteLock--><g class="entity" data-entity="IVSS_WriteLock" data-source-line="41" data-uid="ent0013" id="entity_IVSS_WriteLock"><rect fill="#F1F1F1" height="65.6094" rx="2.5" ry="2.5" style="stroke:#181818;stroke-width:0.5;" width="177.7441" x="1410" y="612.5"/><ellipse cx="1444.7191" cy="628.5" fill="#B4A7E5" rx="11" ry="11" style="stroke:#181818;stroke-width:1;"/><path d="M1445.6723,625.1406 L1445.6723,631.7969 L1447.391,631.7969 Q1448.0004,631.7969 1448.266,632.0313 Q1448.5316,632.2656 1448.5316,632.6563 Q1448.5316,633.0313 1448.266,633.2656 Q1448.0004,633.5 1447.391,633.5 L1442.2504,633.5 Q1441.641,633.5 1441.3754,633.2656 Q1441.1098,633.0313 1441.1098,632.6406 Q1441.1098,632.2656 1441.3754,632.0313 Q1441.641,631.7969 1442.2504,631.7969 L1443.9691,631.7969 L1443.9691,625.1406 L1442.2504,625.1406 Q1441.641,625.1406 1441.3754,624.9063 Q1441.1098,624.6719 1441.1098,624.2813 Q1441.1098,623.9063 1441.3754,623.6719 Q1441.641,623.4375 1442.2504,623.4375 L1447.391,623.4375 Q1448.0004,623.4375 1448.266,623.6719 Q1448.5316,623.9063 1448.5316,624.2813 Q1448.5316,624.6719 1448.266,624.9063 Q1448.0004,625.1406 1447.391,625.1406 L1445.6723,625.1406 Z " fill="#000000"/><text fill="#000000" font-family="sans-serif" font-size="14" font-style="italic" lengthAdjust="spacing" textLength="101.9238" x="1463.1012" y="634.2285">IVSS_WriteLock</text><line style="stroke:#181818;stroke-width:0.5;" x1="1411" x2="1586.7441" y1="644.5" y2="644.5"/><line style="stroke:#181818;stroke-width:0.5;" x1="1411" x2="1586.7441" y1="652.5" y2="652.5"/><text fill="#000000" font-family="sans-serif" font-size="14" font-style="italic" lengthAdjust="spacing" textLength="165.7441" x="1416" y="671.0332">bool WriteLock(bool value)</text></g><!--class CVehicleDeviceRearDoorRight--><g class="entity" data-entity="CVehicleDeviceRearDoorRight" data-source-line="2" data-uid="ent0002" id="entity_CVehicleDeviceRearDoorRight"><rect fill="#F1F1F1" height="276.9219" rx="2.5" ry="2.5" style="stroke:#181818;stroke-width:0.5;" width="768.335" x="412" y="7"/><ellipse cx="695.8213" cy="23" fill="#ADD1B2" rx="11" ry="11" style="stroke:#181818;stroke-width:1;"/><path d="M698.5869,18.875 Q698.7432,18.6563 698.9307,18.5469 Q699.1182,18.4375 699.3369,18.4375 Q699.7119,18.4375 699.9463,18.6953 Q700.1807,18.9531 700.1807,19.5625 L700.1807,21.0156 Q700.1807,21.625 699.9463,21.8906 Q699.7119,22.1563 699.3369,22.1563 Q698.9932,22.1563 698.79,21.9531 Q698.5869,21.7656 698.4775,21.25 Q698.4307,20.8906 698.2432,20.7031 Q697.915,20.3281 697.3057,20.1094 Q696.6963,19.8906 696.0713,19.8906 Q695.3057,19.8906 694.6729,20.2188 Q694.04,20.5469 693.5479,21.2969 Q693.0557,22.0469 693.0557,23.0781 L693.0557,24.1719 Q693.0557,25.4063 693.9463,26.2266 Q694.8369,27.0469 696.4307,27.0469 Q697.3682,27.0469 698.0244,26.7969 Q698.415,26.6406 698.8369,26.2031 Q699.1025,25.9375 699.251,25.8594 Q699.3994,25.7813 699.6025,25.7813 Q699.9307,25.7813 700.1885,26.0391 Q700.4463,26.2969 700.4463,26.6406 Q700.4463,26.9844 700.1025,27.3906 Q699.6025,27.9688 698.8057,28.2969 Q697.7275,28.75 696.4307,28.75 Q694.915,28.75 693.7119,28.125 Q692.7275,27.625 692.04,26.5547 Q691.3525,25.4844 691.3525,24.2031 L691.3525,23.0469 Q691.3525,21.7188 691.9697,20.5703 Q692.5869,19.4219 693.6807,18.8047 Q694.7744,18.1875 696.0088,18.1875 Q696.7432,18.1875 697.3916,18.3516 Q698.04,18.5156 698.5869,18.875 Z " fill="#000000"/><text fill="#000000" font-family="sans-serif" font-size="14" lengthAdjust="spacing" textLength="192.1924" x="716.3213" y="28.7285">CVehicleDeviceRearDoorRight</text><line style="stroke:#181818;stroke-width:0.5;" x1="413" x2="1179.335" y1="39" y2="39"/><rect fill="none" height="6" style="stroke:#C82930;stroke-width:1;" width="6" x="420" y="50.3047"/><text fill="#000000" font-family="sans-serif" font-size="14" lengthAdjust="spacing" textLength="213.999" x="432" y="57.5332">sdv::core::CSignal m_rightLatch02</text><rect fill="none" height="6" style="stroke:#C82930;stroke-width:1;" width="6" x="420" y="67.9141"/><text fill="#000000" font-family="sans-serif" font-size="14" lengthAdjust="spacing" textLength="294.1504" x="432" y="75.1426">sdv::core::CSignal m_rightDoorIsOpen02Signal</text><rect fill="none" height="6" style="stroke:#C82930;stroke-width:1;" width="6" x="420" y="85.5234"/><text fill="#000000" font-family="sans-serif" font-size="14" lengthAdjust="spacing" textLength="358.7158" x="432" y="92.752">mutable std::mutex m_rightDoorIsOpen02MutexCallbacks</text><rect fill="none" height="6" style="stroke:#C82930;stroke-width:1;" width="6" x="420" y="103.1328"/><text fill="#000000" font-family="sans-serif" font-size="14" lengthAdjust="spacing" textLength="742.335" x="432" y="110.3613">std::set&lt;vss::Vehicle::Chassis::Door::Axle02::RightDevice::IVSS_WriteIsOpen_Event*&gt; m_rightDoorIsOpen02Callbacks</text><rect fill="none" height="6" style="stroke:#C82930;stroke-width:1;" width="6" x="420" y="120.7422"/><text fill="#000000" font-family="sans-serif" font-size="14" lengthAdjust="spacing" textLength="263.7852" x="432" y="127.9707">std::atomic&lt;sdv::EObjectStatus&gt; m_status</text><line style="stroke:#181818;stroke-width:0.5;" x1="413" x2="1179.335" y1="135.0469" y2="135.0469"/><ellipse cx="423" cy="149.3516" fill="#84BE84" rx="3" ry="3" style="stroke:#038048;stroke-width:1;"/><text fill="#000000" font-family="sans-serif" font-size="14" font-style="italic" lengthAdjust="spacing" textLength="297.2539" x="432" y="153.5801">void Initialize(const sdv::u8string&amp; objectConfig)</text><ellipse cx="423" cy="166.9609" fill="#84BE84" rx="3" ry="3" style="stroke:#038048;stroke-width:1;"/><text fill="#000000" font-family="sans-serif" font-size="14" font-style="italic" lengthAdjust="spacing" textLength="231.875" x="432" y="171.1895">sdv::EObjectStatus GetStatus() const</text><ellipse cx="423" cy="184.5703" fill="#84BE84" rx="3" ry="3" style="stroke:#038048;stroke-width:1;"/><text fill="#000000" font-family="sans-serif" font-size="14" font-style="italic" lengthAdjust="spacing" textLength="338.5156" x="432" y="188.7988">void SetOperationMode(sdv::EOperationMode eMode)</text><ellipse cx="423" cy="202.1797" fill="#84BE84" rx="3" ry="3" style="stroke:#038048;stroke-width:1;"/><text fill="#000000" font-family="sans-serif" font-size="14" font-style="italic" lengthAdjust="spacing" textLength="101.165" x="432" y="206.4082">void Shutdown()</text><ellipse cx="423" cy="219.7891" fill="#84BE84" rx="3" ry="3" style="stroke:#038048;stroke-width:1;"/><text fill="#000000" font-family="sans-serif" font-size="14" font-style="italic" lengthAdjust="spacing" textLength="165.7441" x="432" y="224.0176">bool WriteLock(bool value)</text><ellipse cx="423" cy="237.3984" fill="#84BE84" rx="3" ry="3" style="stroke:#038048;stroke-width:1;"/><text fill="#000000" font-family="sans-serif" font-size="14" font-style="italic" lengthAdjust="spacing" textLength="688.6387" x="432" y="241.627">void RegisterIsOpenEvent(vss::Vehicle::Chassis::Door::Axle02::RightDevice::IVSS_WriteIsOpen_Event* event)</text><ellipse cx="423" cy="255.0078" fill="#84BE84" rx="3" ry="3" style="stroke:#038048;stroke-width:1;"/><text fill="#000000" font-family="sans-serif" font-size="14" font-style="italic" lengthAdjust="spacing" textLength="701.0869" x="432" y="259.2363">void UnregisterIsOpenEvent(vss::Vehicle::Chassis::Door::Axle02::RightDevice::IVSS_WriteIsOpen_Event* event)</text><rect fill="#F24D5C" height="6" style="stroke:#C82930;stroke-width:1;" width="6" x="420" y="269.6172"/><text fill="#000000" font-family="sans-serif" font-size="14" lengthAdjust="spacing" textLength="413.1914" x="432" y="276.8457">void ExecuteAllCallBacksForRightDoorIsOpen02(sdv::any_t value)</text></g><!--link CVehicleDeviceRearDoorRight to CSdvObject--><g class="link" data-entity-1="CVehicleDeviceRearDoorRight" data-entity-2="CSdvObject" data-source-line="46" data-uid="lnk14" id="link_CVehicleDeviceRearDoorRight_CSdvObject"><path codeLine="46" d="M525.8,284.07 C500.14,301.45 475.39,320.16 453,340 C370.85,412.8 309.5897,504.9449 270.6397,570.8349" fill="none" id="CVehicleDeviceRearDoorRight-to-CSdvObject" style="stroke:#181818;stroke-width:1;"/><polygon fill="none" points="261.48,586.33,275.8048,573.8881,265.4747,567.7816,261.48,586.33" style="stroke:#181818;stroke-width:1;"/><text fill="#000000" font-family="sans-serif" font-size="13" lengthAdjust="spacing" textLength="42.6309" x="479" y="328.4951">Inherits</text></g><!--link CVehicleDeviceRearDoorRight to IObjectControl--><g class="link" data-entity-1="CVehicleDeviceRearDoorRight" data-entity-2="IObjectControl" data-source-line="47" data-uid="lnk15" id="link_CVehicleDeviceRearDoorRight_IObjectControl"><path codeLine="47" d="M751.2,284.23 C718.89,383.55 682.4785,495.483 658.5285,569.103" fill="none" id="CVehicleDeviceRearDoorRight-to-IObjectControl" style="stroke:#181818;stroke-width:1;stroke-dasharray:7,7;"/><polygon fill="none" points="652.96,586.22,664.2342,570.9592,652.8228,567.2468,652.96,586.22" style="stroke:#181818;stroke-width:1;"/><text fill="#000000" font-family="sans-serif" font-size="13" lengthAdjust="spacing" textLength="67.1899" x="739" y="328.4951">Implements</text></g><!--link CVehicleDeviceRearDoorRight to IVSS_IsOpen--><g class="link" data-entity-1="CVehicleDeviceRearDoorRight" data-entity-2="IVSS_IsOpen" data-source-line="48" data-uid="lnk16" id="link_CVehicleDeviceRearDoorRight_IVSS_IsOpen"><path codeLine="48" d="M900.54,284.23 C982.37,392.04 1079.918,520.5419 1132.248,589.4919" fill="none" id="CVehicleDeviceRearDoorRight-to-IVSS_IsOpen" style="stroke:#181818;stroke-width:1;stroke-dasharray:7,7;"/><polygon fill="none" points="1143.13,603.83,1137.0274,585.8645,1127.4686,593.1192,1143.13,603.83" style="stroke:#181818;stroke-width:1;"/><text fill="#000000" font-family="sans-serif" font-size="13" lengthAdjust="spacing" textLength="67.1899" x="930" y="328.4951">Implements</text></g><!--link CVehicleDeviceRearDoorRight to IVSS_WriteLock--><g class="link" data-entity-1="CVehicleDeviceRearDoorRight" data-entity-2="IVSS_WriteLock" data-source-line="49" data-uid="lnk17" id="link_CVehicleDeviceRearDoorRight_IVSS_WriteLock"><path codeLine="49" d="M1180.18,214.14 C1257.79,242.53 1333.42,282.81 1392,340 C1469.58,415.74 1489.3087,533.0306 1495.1487,594.5406" fill="none" id="CVehicleDeviceRearDoorRight-to-IVSS_WriteLock" style="stroke:#181818;stroke-width:1;stroke-dasharray:7,7;"/><polygon fill="none" points="1496.85,612.46,1501.1218,593.9735,1489.1755,595.1077,1496.85,612.46" style="stroke:#181818;stroke-width:1;"/><text fill="#000000" font-family="sans-serif" font-size="13" lengthAdjust="spacing" textLength="67.1899" x="1380" y="328.4951">Implements</text></g><!--SRC=[lLLTSzem47pthxYdZca6Xj0cJJMPJ1D3MpAuT7127nbXNq2DB559TfEc-U-LRA10-MgR2GzWMRUxvqLx1eq6D4weeaOg8CG3W9XJhI7euvZ579kOinXxI5LJIjLZex5nHG_kotuE7kXG6qLZymYvP0cq1JECSlO3_LWARUcJd93in1OnCNe1SlWLOnD8SSD6bJKaHNchMrH5XffCmmUSNlaLA3WtQKTekXEqpyAa26M2_fHiyHwW-wvif1Xd9f7VXR-kOYWbXo-A6Up8-DOlbZdbsMQw7ewODgZQsZOXMZaAu-TQ4p9rbv1WRDrczewpbv3pEuxr1Y65qQNtXBJxKJGeT4kUGK7q4j3zRDI-5khvrAk5PEiEuypWEUS1vVo2nhVw_VJGE84INs-K_miLzmEpx5-rs8YbSgr5R2GeXtIW7Bv3JJokDtONBWgLEpDCcXawv0ZQ98JO1TwjmuHkmxK_TEtFzHp6fkNqoVmxMoU-NjU6CsNnwP_HS1owk7BrZzxl-1QrGPJaPVbYP1ySWiMFS50KQVoMeOZnT2cePovrWQCwvungr541ciTYXMG6SwWctj2CcrBu4qrn8xG8K5j75iZHIB5TOqkZfLOJhOU9BM7BxPQ-j8LDmWsDiVIctPqD8gCaN_BdBoUQrjqrCss1PRzfjdEORPjZsyVOgW7_U8RBGxhDgdNZRg_niT_isatrH4ywd_4R7dRxYw1iOiiB5AhLdsUh4GLY-nwZ9TMxuBNQ3BvyYXr5Ek6OMZls8_cla_1iSdEdLnJVsRXdAVUypvmASnrs84UbRK3WiDQeDuvgR_tGBYASGFq43j-GesFowWI2LdG5Rh_Y-M7x2hJCb3qh2NE97cOkOHNlakOKUfamB4K2RkLVXHM8MhERq18vKrAuNhpBVbWMmKTfeeaqHV7nw-e5CrPVsRwW7thJqMYXiKpiy20GJ0uRHmslGyKeeoEhbA0NIAkWxWaqMxy0]--></g></svg>