<svg xmlns="http://www.w3.org/2000/svg" xmlns:xlink="http://www.w3.org/1999/xlink" contentStyleType="text/css" data-diagram-type="CLASS" height="86px" preserveAspectRatio="none" style="width:127px;height:86px;background:#FFFFFF;" version="1.1" viewBox="0 0 127 86" width="127px" zoomAndPan="magnify"><defs/><g><!--class ISayHello--><g class="entity" data-entity="ISayHello" data-source-line="1" data-uid="ent0002" id="entity_ISayHello"><rect fill="#F1F1F1" height="65.6094" rx="2.5" ry="2.5" style="stroke:#181818;stroke-width:0.5;" width="106.9238" x="7" y="7"/><ellipse cx="28.7531" cy="23" fill="#B4A7E5" rx="11" ry="11" style="stroke:#181818;stroke-width:1;"/><path d="M29.7062,19.6406 L29.7062,26.2969 L31.425,26.2969 Q32.0343,26.2969 32.3,26.5313 Q32.5656,26.7656 32.5656,27.1563 Q32.5656,27.5313 32.3,27.7656 Q32.0343,28 31.425,28 L26.2843,28 Q25.675,28 25.4093,27.7656 Q25.1437,27.5313 25.1437,27.1406 Q25.1437,26.7656 25.4093,26.5313 Q25.675,26.2969 26.2843,26.2969 L28.0031,26.2969 L28.0031,19.6406 L26.2843,19.6406 Q25.675,19.6406 25.4093,19.4063 Q25.1437,19.1719 25.1437,18.7813 Q25.1437,18.4063 25.4093,18.1719 Q25.675,17.9375 26.2843,17.9375 L31.425,17.9375 Q32.0343,17.9375 32.3,18.1719 Q32.5656,18.4063 32.5656,18.7813 Q32.5656,19.1719 32.3,19.4063 Q32.0343,19.6406 31.425,19.6406 L29.7062,19.6406 Z " fill="#000000"/><text fill="#000000" font-family="sans-serif" font-size="14" font-style="italic" lengthAdjust="spacing" textLength="59.917" x="44.2538" y="28.7285">ISayHello</text><line style="stroke:#181818;stroke-width:0.5;" x1="8" x2="112.9238" y1="39" y2="39"/><line style="stroke:#181818;stroke-width:0.5;" x1="8" x2="112.9238" y1="47" y2="47"/><text fill="#000000" font-family="sans-serif" font-size="14" font-style="italic" lengthAdjust="spacing" textLength="94.9238" x="13" y="65.5332">void SayHello()</text></g><!--SRC=[yymhIIrAIqnELV0CJgpqICt9oUUgvb9GKAXEJ2ekAKfCBgbLAClFJ560oMfeSjK20000]--></g></svg>