<svg xmlns="http://www.w3.org/2000/svg" xmlns:xlink="http://www.w3.org/1999/xlink" contentStyleType="text/css" data-diagram-type="CLASS" height="571px" preserveAspectRatio="none" style="width:1202px;height:571px;background:#FFFFFF;" version="1.1" viewBox="0 0 1202 571" width="1202px" zoomAndPan="magnify"><defs/><g><!--cluster sdv--><g class="cluster" data-entity="sdv" data-source-line="13" data-uid="ent0004" id="cluster_sdv"><path d="M8.5,348 L33.624,348 A3.75,3.75 0 0 1 36.124,350.5 L43.124,371.6094 L810.5,371.6094 A2.5,2.5 0 0 1 813,374.1094 L813,515.5 A2.5,2.5 0 0 1 810.5,518 L8.5,518 A2.5,2.5 0 0 1 6,515.5 L6,350.5 A2.5,2.5 0 0 1 8.5,348" fill="none" style="stroke:#000000;stroke-width:1.5;"/><line style="stroke:#000000;stroke-width:1.5;" x1="6" x2="43.124" y1="371.6094" y2="371.6094"/><text fill="#000000" font-family="sans-serif" font-size="14" font-weight="bold" lengthAdjust="spacing" textLength="24.124" x="10" y="364.5332">sdv</text></g><!--cluster vss--><g class="cluster" data-entity="vss" data-source-line="29" data-uid="ent0007" id="cluster_vss"><path d="M839.5,242 L863.8584,242 A3.75,3.75 0 0 1 866.3584,244.5 L873.3584,265.6094 L1192.5,265.6094 A2.5,2.5 0 0 1 1195,268.1094 L1195,561.5 A2.5,2.5 0 0 1 1192.5,564 L839.5,564 A2.5,2.5 0 0 1 837,561.5 L837,244.5 A2.5,2.5 0 0 1 839.5,242" fill="none" style="stroke:#000000;stroke-width:1.5;"/><line style="stroke:#000000;stroke-width:1.5;" x1="837" x2="873.3584" y1="265.6094" y2="265.6094"/><text fill="#000000" font-family="sans-serif" font-size="14" font-weight="bold" lengthAdjust="spacing" textLength="23.3584" x="841" y="258.5332">vss</text></g><!--cluster Vehicle--><g class="cluster" data-entity="Vehicle" data-source-line="29" data-uid="ent0008" id="cluster_Vehicle"><path d="M863.5,286 L913.5273,286 A3.75,3.75 0 0 1 916.0273,288.5 L923.0273,309.6094 L1168.5,309.6094 A2.5,2.5 0 0 1 1171,312.1094 L1171,537.5 A2.5,2.5 0 0 1 1168.5,540 L863.5,540 A2.5,2.5 0 0 1 861,537.5 L861,288.5 A2.5,2.5 0 0 1 863.5,286" fill="none" style="stroke:#000000;stroke-width:1.5;"/><line style="stroke:#000000;stroke-width:1.5;" x1="861" x2="923.0273" y1="309.6094" y2="309.6094"/><text fill="#000000" font-family="sans-serif" font-size="14" font-weight="bold" lengthAdjust="spacing" textLength="49.0273" x="865" y="302.5332">Vehicle</text></g><!--cluster Body--><g class="cluster" data-entity="Body" data-source-line="29" data-uid="ent0009" id="cluster_Body"><path d="M887.5,330 L923.5,330 A3.75,3.75 0 0 1 926,332.5 L933,353.6094 L1144.5,353.6094 A2.5,2.5 0 0 1 1147,356.1094 L1147,513.5 A2.5,2.5 0 0 1 1144.5,516 L887.5,516 A2.5,2.5 0 0 1 885,513.5 L885,332.5 A2.5,2.5 0 0 1 887.5,330" fill="none" style="stroke:#000000;stroke-width:1.5;"/><line style="stroke:#000000;stroke-width:1.5;" x1="885" x2="933" y1="353.6094" y2="353.6094"/><text fill="#000000" font-family="sans-serif" font-size="14" font-weight="bold" lengthAdjust="spacing" textLength="35" x="889" y="346.5332">Body</text></g><!--cluster TrunkDevice--><g class="cluster" data-entity="TrunkDevice" data-source-line="29" data-uid="ent0010" id="cluster_TrunkDevice"><path d="M911.5,374 L996.5342,374 A3.75,3.75 0 0 1 999.0342,376.5 L1006.0342,397.6094 L1120.5,397.6094 A2.5,2.5 0 0 1 1123,400.1094 L1123,489.5 A2.5,2.5 0 0 1 1120.5,492 L911.5,492 A2.5,2.5 0 0 1 909,489.5 L909,376.5 A2.5,2.5 0 0 1 911.5,374" fill="none" style="stroke:#000000;stroke-width:1.5;"/><line style="stroke:#000000;stroke-width:1.5;" x1="909" x2="1006.0342" y1="397.6094" y2="397.6094"/><text fill="#000000" font-family="sans-serif" font-size="14" font-weight="bold" lengthAdjust="spacing" textLength="84.0342" x="913" y="390.5332">TrunkDevice</text></g><!--class CSdvObject--><g class="entity" data-entity="CSdvObject" data-source-line="13" data-uid="ent0003" id="entity_CSdvObject"><rect fill="#F1F1F1" height="118.4375" rx="2.5" ry="2.5" style="stroke:#181818;stroke-width:0.5;" width="412.7705" x="22.5" y="384"/><ellipse cx="187.2871" cy="400" fill="#ADD1B2" rx="11" ry="11" style="stroke:#181818;stroke-width:1;"/><path d="M190.0527,395.875 Q190.209,395.6563 190.3965,395.5469 Q190.584,395.4375 190.8027,395.4375 Q191.1777,395.4375 191.4121,395.6953 Q191.6465,395.9531 191.6465,396.5625 L191.6465,398.0156 Q191.6465,398.625 191.4121,398.8906 Q191.1777,399.1563 190.8027,399.1563 Q190.459,399.1563 190.2559,398.9531 Q190.0527,398.7656 189.9434,398.25 Q189.8965,397.8906 189.709,397.7031 Q189.3809,397.3281 188.7715,397.1094 Q188.1621,396.8906 187.5371,396.8906 Q186.7715,396.8906 186.1387,397.2188 Q185.5059,397.5469 185.0137,398.2969 Q184.5215,399.0469 184.5215,400.0781 L184.5215,401.1719 Q184.5215,402.4063 185.4121,403.2266 Q186.3027,404.0469 187.8965,404.0469 Q188.834,404.0469 189.4902,403.7969 Q189.8809,403.6406 190.3027,403.2031 Q190.5684,402.9375 190.7168,402.8594 Q190.8652,402.7813 191.0684,402.7813 Q191.3965,402.7813 191.6543,403.0391 Q191.9121,403.2969 191.9121,403.6406 Q191.9121,403.9844 191.5684,404.3906 Q191.0684,404.9688 190.2715,405.2969 Q189.1934,405.75 187.8965,405.75 Q186.3809,405.75 185.1777,405.125 Q184.1934,404.625 183.5059,403.5547 Q182.8184,402.4844 182.8184,401.2031 L182.8184,400.0469 Q182.8184,398.7188 183.4355,397.5703 Q184.0527,396.4219 185.1465,395.8047 Q186.2402,395.1875 187.4746,395.1875 Q188.209,395.1875 188.8574,395.3516 Q189.5059,395.5156 190.0527,395.875 Z " fill="#000000"/><text fill="#000000" font-family="sans-serif" font-size="14" lengthAdjust="spacing" textLength="74.6963" x="207.7871" y="405.7285">CSdvObject</text><line style="stroke:#181818;stroke-width:0.5;" x1="23.5" x2="434.2705" y1="416" y2="416"/><line style="stroke:#181818;stroke-width:0.5;" x1="23.5" x2="434.2705" y1="424" y2="424"/><ellipse cx="33.5" cy="438.3047" fill="#84BE84" rx="3" ry="3" style="stroke:#038048;stroke-width:1;"/><text fill="#000000" font-family="sans-serif" font-size="14" lengthAdjust="spacing" text-decoration="underline" textLength="336.9365" x="42.5" y="442.5332">sdv::sequence&lt;sdv::u8string&gt; GetClassAliasesStatic()</text><ellipse cx="33.5" cy="455.9141" fill="#84BE84" rx="3" ry="3" style="stroke:#038048;stroke-width:1;"/><text fill="#000000" font-family="sans-serif" font-size="14" lengthAdjust="spacing" text-decoration="underline" textLength="272.3301" x="42.5" y="460.1426">sdv::u8string GetDefaultObjectNameStatic()</text><ellipse cx="33.5" cy="473.5234" fill="#84BE84" rx="3" ry="3" style="stroke:#038048;stroke-width:1;"/><text fill="#000000" font-family="sans-serif" font-size="14" lengthAdjust="spacing" text-decoration="underline" textLength="143.9648" x="42.5" y="477.752">bool IsSingletonStatic()</text><ellipse cx="33.5" cy="491.1328" fill="#84BE84" rx="3" ry="3" style="stroke:#038048;stroke-width:1;"/><text fill="#000000" font-family="sans-serif" font-size="14" lengthAdjust="spacing" text-decoration="underline" textLength="386.7705" x="42.5" y="495.3613">sdv::sequence&lt;sdv::u8string&gt; GetObjectDependenciesStatic()</text></g><!--class IObjectControl--><g class="entity" data-entity="IObjectControl" data-source-line="21" data-uid="ent0005" id="entity_IObjectControl"><rect fill="#F1F1F1" height="118.4375" rx="2.5" ry="2.5" style="stroke:#181818;stroke-width:0.5;" width="326.3574" x="471" y="384"/><ellipse cx="585.1875" cy="400" fill="#B4A7E5" rx="11" ry="11" style="stroke:#181818;stroke-width:1;"/><path d="M586.1406,396.6406 L586.1406,403.2969 L587.8594,403.2969 Q588.4688,403.2969 588.7344,403.5313 Q589,403.7656 589,404.1563 Q589,404.5313 588.7344,404.7656 Q588.4688,405 587.8594,405 L582.7188,405 Q582.1094,405 581.8438,404.7656 Q581.5781,404.5313 581.5781,404.1406 Q581.5781,403.7656 581.8438,403.5313 Q582.1094,403.2969 582.7188,403.2969 L584.4375,403.2969 L584.4375,396.6406 L582.7188,396.6406 Q582.1094,396.6406 581.8438,396.4063 Q581.5781,396.1719 581.5781,395.7813 Q581.5781,395.4063 581.8438,395.1719 Q582.1094,394.9375 582.7188,394.9375 L587.8594,394.9375 Q588.4688,394.9375 588.7344,395.1719 Q589,395.4063 589,395.7813 Q589,396.1719 588.7344,396.4063 Q588.4688,396.6406 587.8594,396.6406 L586.1406,396.6406 Z " fill="#000000"/><text fill="#000000" font-family="sans-serif" font-size="14" font-style="italic" lengthAdjust="spacing" textLength="89.4824" x="605.6875" y="405.7285">IObjectControl</text><line style="stroke:#181818;stroke-width:0.5;" x1="472" x2="796.3574" y1="416" y2="416"/><line style="stroke:#181818;stroke-width:0.5;" x1="472" x2="796.3574" y1="424" y2="424"/><text fill="#000000" font-family="sans-serif" font-size="14" font-style="italic" lengthAdjust="spacing" textLength="314.3574" x="477" y="442.5332">void Initialize(const sdv::u8string&amp; ssObjectConfig)</text><text fill="#000000" font-family="sans-serif" font-size="14" font-style="italic" lengthAdjust="spacing" textLength="202.3096" x="477" y="460.1426">EObjectStatus GetStatus() const</text><text fill="#000000" font-family="sans-serif" font-size="14" font-style="italic" lengthAdjust="spacing" textLength="308.9502" x="477" y="477.752">void SetOperationMode(EOperationMode eMode)</text><text fill="#000000" font-family="sans-serif" font-size="14" font-style="italic" lengthAdjust="spacing" textLength="101.165" x="477" y="495.3613">void Shutdown()</text></g><!--class IVSS_WriteOpen--><g class="entity" data-entity="IVSS_WriteOpen" data-source-line="29" data-uid="ent0006" id="entity_IVSS_WriteOpen"><rect fill="#F1F1F1" height="65.6094" rx="2.5" ry="2.5" style="stroke:#181818;stroke-width:0.5;" width="182.4199" x="925" y="410"/><ellipse cx="959.7191" cy="426" fill="#B4A7E5" rx="11" ry="11" style="stroke:#181818;stroke-width:1;"/><path d="M960.6723,422.6406 L960.6723,429.2969 L962.391,429.2969 Q963.0004,429.2969 963.266,429.5313 Q963.5316,429.7656 963.5316,430.1563 Q963.5316,430.5313 963.266,430.7656 Q963.0004,431 962.391,431 L957.2504,431 Q956.641,431 956.3754,430.7656 Q956.1098,430.5313 956.1098,430.1406 Q956.1098,429.7656 956.3754,429.5313 Q956.641,429.2969 957.2504,429.2969 L958.9691,429.2969 L958.9691,422.6406 L957.2504,422.6406 Q956.641,422.6406 956.3754,422.4063 Q956.1098,422.1719 956.1098,421.7813 Q956.1098,421.4063 956.3754,421.1719 Q956.641,420.9375 957.2504,420.9375 L962.391,420.9375 Q963.0004,420.9375 963.266,421.1719 Q963.5316,421.4063 963.5316,421.7813 Q963.5316,422.1719 963.266,422.4063 Q963.0004,422.6406 962.391,422.6406 L960.6723,422.6406 Z " fill="#000000"/><text fill="#000000" font-family="sans-serif" font-size="14" font-style="italic" lengthAdjust="spacing" textLength="106.5996" x="978.1012" y="431.7285">IVSS_WriteOpen</text><line style="stroke:#181818;stroke-width:0.5;" x1="926" x2="1106.4199" y1="442" y2="442"/><line style="stroke:#181818;stroke-width:0.5;" x1="926" x2="1106.4199" y1="450" y2="450"/><text fill="#000000" font-family="sans-serif" font-size="14" font-style="italic" lengthAdjust="spacing" textLength="170.4199" x="931" y="468.5332">bool WriteOpen(bool value)</text></g><!--class CVehicleDeviceVehicleTrunk--><g class="entity" data-entity="CVehicleDeviceVehicleTrunk" data-source-line="2" data-uid="ent0002" id="entity_CVehicleDeviceVehicleTrunk"><rect fill="#F1F1F1" height="171.2656" rx="2.5" ry="2.5" style="stroke:#181818;stroke-width:0.5;" width="364.5156" x="451.5" y="7"/><ellipse cx="539.2461" cy="23" fill="#ADD1B2" rx="11" ry="11" style="stroke:#181818;stroke-width:1;"/><path d="M542.0117,18.875 Q542.168,18.6563 542.3555,18.5469 Q542.543,18.4375 542.7617,18.4375 Q543.1367,18.4375 543.3711,18.6953 Q543.6055,18.9531 543.6055,19.5625 L543.6055,21.0156 Q543.6055,21.625 543.3711,21.8906 Q543.1367,22.1563 542.7617,22.1563 Q542.418,22.1563 542.2148,21.9531 Q542.0117,21.7656 541.9023,21.25 Q541.8555,20.8906 541.668,20.7031 Q541.3398,20.3281 540.7305,20.1094 Q540.1211,19.8906 539.4961,19.8906 Q538.7305,19.8906 538.0977,20.2188 Q537.4648,20.5469 536.9727,21.2969 Q536.4805,22.0469 536.4805,23.0781 L536.4805,24.1719 Q536.4805,25.4063 537.3711,26.2266 Q538.2617,27.0469 539.8555,27.0469 Q540.793,27.0469 541.4492,26.7969 Q541.8398,26.6406 542.2617,26.2031 Q542.5273,25.9375 542.6758,25.8594 Q542.8242,25.7813 543.0273,25.7813 Q543.3555,25.7813 543.6133,26.0391 Q543.8711,26.2969 543.8711,26.6406 Q543.8711,26.9844 543.5273,27.3906 Q543.0273,27.9688 542.2305,28.2969 Q541.1523,28.75 539.8555,28.75 Q538.3398,28.75 537.1367,28.125 Q536.1523,27.625 535.4648,26.5547 Q534.7773,25.4844 534.7773,24.2031 L534.7773,23.0469 Q534.7773,21.7188 535.3945,20.5703 Q536.0117,19.4219 537.1055,18.8047 Q538.1992,18.1875 539.4336,18.1875 Q540.168,18.1875 540.8164,18.3516 Q541.4648,18.5156 542.0117,18.875 Z " fill="#000000"/><text fill="#000000" font-family="sans-serif" font-size="14" lengthAdjust="spacing" textLength="180.5234" x="559.7461" y="28.7285">CVehicleDeviceVehicleTrunk</text><line style="stroke:#181818;stroke-width:0.5;" x1="452.5" x2="815.0156" y1="39" y2="39"/><rect fill="none" height="6" style="stroke:#C82930;stroke-width:1;" width="6" x="459.5" y="50.3047"/><text fill="#000000" font-family="sans-serif" font-size="14" lengthAdjust="spacing" textLength="168.0684" x="471.5" y="57.5332">sdv::core::CSignal m_trunk</text><rect fill="none" height="6" style="stroke:#C82930;stroke-width:1;" width="6" x="459.5" y="67.9141"/><text fill="#000000" font-family="sans-serif" font-size="14" lengthAdjust="spacing" textLength="263.7852" x="471.5" y="75.1426">std::atomic&lt;sdv::EObjectStatus&gt; m_status</text><line style="stroke:#181818;stroke-width:0.5;" x1="452.5" x2="815.0156" y1="82.2188" y2="82.2188"/><ellipse cx="462.5" cy="96.5234" fill="#84BE84" rx="3" ry="3" style="stroke:#038048;stroke-width:1;"/><text fill="#000000" font-family="sans-serif" font-size="14" font-style="italic" lengthAdjust="spacing" textLength="297.2539" x="471.5" y="100.752">void Initialize(const sdv::u8string&amp; objectConfig)</text><ellipse cx="462.5" cy="114.1328" fill="#84BE84" rx="3" ry="3" style="stroke:#038048;stroke-width:1;"/><text fill="#000000" font-family="sans-serif" font-size="14" font-style="italic" lengthAdjust="spacing" textLength="231.875" x="471.5" y="118.3613">sdv::EObjectStatus GetStatus() const</text><ellipse cx="462.5" cy="131.7422" fill="#84BE84" rx="3" ry="3" style="stroke:#038048;stroke-width:1;"/><text fill="#000000" font-family="sans-serif" font-size="14" font-style="italic" lengthAdjust="spacing" textLength="338.5156" x="471.5" y="135.9707">void SetOperationMode(sdv::EOperationMode eMode)</text><ellipse cx="462.5" cy="149.3516" fill="#84BE84" rx="3" ry="3" style="stroke:#038048;stroke-width:1;"/><text fill="#000000" font-family="sans-serif" font-size="14" font-style="italic" lengthAdjust="spacing" textLength="101.165" x="471.5" y="153.5801">void Shutdown()</text><ellipse cx="462.5" cy="166.9609" fill="#84BE84" rx="3" ry="3" style="stroke:#038048;stroke-width:1;"/><text fill="#000000" font-family="sans-serif" font-size="14" font-style="italic" lengthAdjust="spacing" textLength="170.4199" x="471.5" y="171.1895">bool WriteOpen(bool value)</text></g><!--link CVehicleDeviceVehicleTrunk to CSdvObject--><g class="link" data-entity-1="CVehicleDeviceVehicleTrunk" data-entity-2="CSdvObject" data-source-line="34" data-uid="lnk11" id="link_CVehicleDeviceVehicleTrunk_CSdvObject"><path codeLine="34" d="M522.41,178.26 C499.5,196.31 475.75,215.51 454,234 C396.64,282.75 346.981,328.7326 302.381,371.2326" fill="none" id="CVehicleDeviceVehicleTrunk-to-CSdvObject" style="stroke:#181818;stroke-width:1;"/><polygon fill="none" points="289.35,383.65,306.5202,375.5762,298.2419,366.8889,289.35,383.65" style="stroke:#181818;stroke-width:1;"/><text fill="#000000" font-family="sans-serif" font-size="13" lengthAdjust="spacing" textLength="42.6309" x="483" y="222.4951">Inherits</text></g><!--link CVehicleDeviceVehicleTrunk to IObjectControl--><g class="link" data-entity-1="CVehicleDeviceVehicleTrunk" data-entity-2="IObjectControl" data-source-line="35" data-uid="lnk12" id="link_CVehicleDeviceVehicleTrunk_IObjectControl"><path codeLine="35" d="M634,178.31 C634,242.07 634,309.77 634,365.91" fill="none" id="CVehicleDeviceVehicleTrunk-to-IObjectControl" style="stroke:#181818;stroke-width:1;stroke-dasharray:7,7;"/><polygon fill="none" points="634,383.91,640,365.91,628,365.91,634,383.91" style="stroke:#181818;stroke-width:1;"/><text fill="#000000" font-family="sans-serif" font-size="13" lengthAdjust="spacing" textLength="67.1899" x="635" y="222.4951">Implements</text></g><!--link CVehicleDeviceVehicleTrunk to IVSS_WriteOpen--><g class="link" data-entity-1="CVehicleDeviceVehicleTrunk" data-entity-2="IVSS_WriteOpen" data-source-line="36" data-uid="lnk13" id="link_CVehicleDeviceVehicleTrunk_IVSS_WriteOpen"><path codeLine="36" d="M746.63,178.22 C769.06,196.11 792.13,215.26 813,234 C878.34,292.65 936.5125,354.3587 974.8425,396.3987" fill="none" id="CVehicleDeviceVehicleTrunk-to-IVSS_WriteOpen" style="stroke:#181818;stroke-width:1;stroke-dasharray:7,7;"/><polygon fill="none" points="986.97,409.7,979.2763,392.3562,970.4088,400.4412,986.97,409.7" style="stroke:#181818;stroke-width:1;"/><text fill="#000000" font-family="sans-serif" font-size="13" lengthAdjust="spacing" textLength="67.1899" x="804" y="222.4951">Implements</text></g><!--SRC=[bLJ1JkCm4Btp5NDQfKBjUMMXIcoAK0-xFGInH-GwqzRWsDtC90Yw_NTiforDQGBaODdHUs_6pyy6GWR2jImbknA4k000PIGHfFUuqihW16kjSBUuAolx532RCFZlSYFdnALKl8NQwHocLhEMHhzYefmbhvxNGbG_FKZRvGzmyqTKd3gxqCl16P48lvb5LCQIAu9RtCsI0KJDhjePycoDVYlQsTyknsGdTlmFC8o3JebLnRbxjiavnDmv0tzBpUWbRHANjJJLGMuO2ofNeX1fffTM6YWUU6zQH70kX3UxqEhgurx77avn5l3RY_VZYDWqo-i6Vdm6cy3GQWkN4KJuhqAhyAhb_3ZOc0QfQwCb8MMHTDZdYSYU5bWJNCZAS5FuZoomaneTcLBcYGRPsVuQFOqsjIReRSuzHBVRRNoPMiPo8HKstand-sHnwKpBdsz6b6Xs9gH7Ab-BvwVfx0jcVovF3QY9XDXTKI5-kVn5Y7XLcylhpRdFieT3SZlCwOztKxFxLO3XyF_uDAOWV9Shz9hq2NiqshFR1naKYhN10ktNDBxfHKl_3G00]--></g></svg>