<svg xmlns="http://www.w3.org/2000/svg" xmlns:xlink="http://www.w3.org/1999/xlink" contentStyleType="text/css" data-diagram-type="CLASS" height="199px" preserveAspectRatio="none" style="width:697px;height:199px;background:#FFFFFF;" version="1.1" viewBox="0 0 697 199" width="697px" zoomAndPan="magnify"><defs/><g><!--cluster vss--><g class="cluster" data-entity="vss" data-source-line="2" data-uid="ent0003" id="cluster_vss"><path d="M8.5,6 L32.8584,6 A3.75,3.75 0 0 1 35.3584,8.5 L42.3584,29.6094 L687.5,29.6094 A2.5,2.5 0 0 1 690,32.1094 L690,189.5 A2.5,2.5 0 0 1 687.5,192 L8.5,192 A2.5,2.5 0 0 1 6,189.5 L6,8.5 A2.5,2.5 0 0 1 8.5,6" fill="none" style="stroke:#000000;stroke-width:1.5;"/><line style="stroke:#000000;stroke-width:1.5;" x1="6" x2="42.3584" y1="29.6094" y2="29.6094"/><text fill="#000000" font-family="sans-serif" font-size="14" font-weight="bold" lengthAdjust="spacing" textLength="23.3584" x="10" y="22.5332">vss</text></g><!--cluster Device--><g class="cluster" data-entity="Device" data-source-line="2" data-uid="ent0004" id="cluster_Device"><path d="M362.5,50 L408.6445,50 A3.75,3.75 0 0 1 411.1445,52.5 L418.1445,73.6094 L663.5,73.6094 A2.5,2.5 0 0 1 666,76.1094 L666,165.5 A2.5,2.5 0 0 1 663.5,168 L362.5,168 A2.5,2.5 0 0 1 360,165.5 L360,52.5 A2.5,2.5 0 0 1 362.5,50" fill="none" style="stroke:#000000;stroke-width:1.5;"/><line style="stroke:#000000;stroke-width:1.5;" x1="360" x2="418.1445" y1="73.6094" y2="73.6094"/><text fill="#000000" font-family="sans-serif" font-size="14" font-weight="bold" lengthAdjust="spacing" textLength="45.1445" x="364" y="66.5332">Device</text></g><!--cluster Service--><g class="cluster" data-entity="Service" data-source-line="6" data-uid="ent0006" id="cluster_Service"><path d="M32.5,50 L83.3203,50 A3.75,3.75 0 0 1 85.8203,52.5 L92.8203,73.6094 L333.5,73.6094 A2.5,2.5 0 0 1 336,76.1094 L336,165.5 A2.5,2.5 0 0 1 333.5,168 L32.5,168 A2.5,2.5 0 0 1 30,165.5 L30,52.5 A2.5,2.5 0 0 1 32.5,50" fill="none" style="stroke:#000000;stroke-width:1.5;"/><line style="stroke:#000000;stroke-width:1.5;" x1="30" x2="92.8203" y1="73.6094" y2="73.6094"/><text fill="#000000" font-family="sans-serif" font-size="14" font-weight="bold" lengthAdjust="spacing" textLength="49.8203" x="34" y="66.5332">Service</text></g><!--class ITransferSignalBrakeForce--><g class="entity" data-entity="ITransferSignalBrakeForce" data-source-line="2" data-uid="ent0002" id="entity_ITransferSignalBrakeForce"><rect fill="#F1F1F1" height="65.6094" rx="2.5" ry="2.5" style="stroke:#181818;stroke-width:0.5;" width="273.4678" x="376.5" y="86"/><ellipse cx="425.3394" cy="102" fill="#B4A7E5" rx="11" ry="11" style="stroke:#181818;stroke-width:1;"/><path d="M426.2925,98.6406 L426.2925,105.2969 L428.0112,105.2969 Q428.6206,105.2969 428.8862,105.5313 Q429.1519,105.7656 429.1519,106.1563 Q429.1519,106.5313 428.8862,106.7656 Q428.6206,107 428.0112,107 L422.8706,107 Q422.2612,107 421.9956,106.7656 Q421.73,106.5313 421.73,106.1406 Q421.73,105.7656 421.9956,105.5313 Q422.2612,105.2969 422.8706,105.2969 L424.5894,105.2969 L424.5894,98.6406 L422.8706,98.6406 Q422.2612,98.6406 421.9956,98.4063 Q421.73,98.1719 421.73,97.7813 Q421.73,97.4063 421.9956,97.1719 Q422.2612,96.9375 422.8706,96.9375 L428.0112,96.9375 Q428.6206,96.9375 428.8862,97.1719 Q429.1519,97.4063 429.1519,97.7813 Q429.1519,98.1719 428.8862,98.4063 Q428.6206,98.6406 428.0112,98.6406 L426.2925,98.6406 Z " fill="#000000"/><text fill="#000000" font-family="sans-serif" font-size="14" font-style="italic" lengthAdjust="spacing" textLength="167.2891" x="445.8394" y="107.7285">ITransferSignalBrakeForce</text><line style="stroke:#181818;stroke-width:0.5;" x1="377.5" x2="648.9678" y1="118" y2="118"/><line style="stroke:#181818;stroke-width:0.5;" x1="377.5" x2="648.9678" y1="126" y2="126"/><text fill="#000000" font-family="sans-serif" font-size="14" lengthAdjust="spacing" textLength="261.4678" x="382.5" y="144.5332">virtual bool SetBrakeForce(uint32_t value)</text></g><!--class ITransferSignalBrakeForce--><g class="entity" data-entity="ITransferSignalBrakeForce" data-source-line="6" data-uid="ent0005" id="entity_ITransferSignalBrakeForce"><rect fill="#F1F1F1" height="65.6094" rx="2.5" ry="2.5" style="stroke:#181818;stroke-width:0.5;" width="273.4678" x="46.5" y="86"/><ellipse cx="95.3394" cy="102" fill="#B4A7E5" rx="11" ry="11" style="stroke:#181818;stroke-width:1;"/><path d="M96.2925,98.6406 L96.2925,105.2969 L98.0112,105.2969 Q98.6206,105.2969 98.8862,105.5313 Q99.1519,105.7656 99.1519,106.1563 Q99.1519,106.5313 98.8862,106.7656 Q98.6206,107 98.0112,107 L92.8706,107 Q92.2612,107 91.9956,106.7656 Q91.73,106.5313 91.73,106.1406 Q91.73,105.7656 91.9956,105.5313 Q92.2612,105.2969 92.8706,105.2969 L94.5894,105.2969 L94.5894,98.6406 L92.8706,98.6406 Q92.2612,98.6406 91.9956,98.4063 Q91.73,98.1719 91.73,97.7813 Q91.73,97.4063 91.9956,97.1719 Q92.2612,96.9375 92.8706,96.9375 L98.0112,96.9375 Q98.6206,96.9375 98.8862,97.1719 Q99.1519,97.4063 99.1519,97.7813 Q99.1519,98.1719 98.8862,98.4063 Q98.6206,98.6406 98.0112,98.6406 L96.2925,98.6406 Z " fill="#000000"/><text fill="#000000" font-family="sans-serif" font-size="14" font-style="italic" lengthAdjust="spacing" textLength="167.2891" x="115.8394" y="107.7285">ITransferSignalBrakeForce</text><line style="stroke:#181818;stroke-width:0.5;" x1="47.5" x2="318.9678" y1="118" y2="118"/><line style="stroke:#181818;stroke-width:0.5;" x1="47.5" x2="318.9678" y1="126" y2="126"/><text fill="#000000" font-family="sans-serif" font-size="14" lengthAdjust="spacing" textLength="261.4678" x="52.5" y="144.5332">virtual bool SetBrakeForce(uint32_t value)</text></g><!--SRC=[hSsn2i8m40RWFKznewvrkr54w1ntkOQ_4XeIkRjaaRvxHy7P-Hi-WvFXBIhUb9Z3N1swIW8DC-ORHavWdXygrLPepAygvQgouTuq8Nm24OsitgNGqbgX2F_wgUVgb-dfDAHqdCF-MqJetuy3]--></g></svg>