<svg xmlns="http://www.w3.org/2000/svg" xmlns:xlink="http://www.w3.org/1999/xlink" contentStyleType="text/css" data-diagram-type="CLASS" height="1211px" preserveAspectRatio="none" style="width:1789px;height:1211px;background:#F8FAFC;" version="1.1" viewBox="0 0 1789 1211" width="1789px" zoomAndPan="magnify"><defs/><g><rect fill="#F8FAFC" height="1211" style="stroke:none;stroke-width:1;" width="1789" x="0" y="0"/><!--cluster vss--><g class="cluster" data-entity="vss" data-source-line="29" data-uid="ent0004" id="cluster_vss"><rect fill="#F0F9FF" height="458" rx="2.5" ry="2.5" style="stroke:#2563EB;stroke-width:1.5;" width="840" x="7" y="577"/><text fill="#111827" font-family="sans-serif" font-size="14" font-weight="bold" lengthAdjust="spacing" textLength="23.3584" x="415.3208" y="593.5332">vss</text></g><!--cluster Vehicle--><g class="cluster" data-entity="Vehicle" data-source-line="29" data-uid="ent0005" id="cluster_Vehicle"><rect fill="#F0F9FF" height="390" rx="2.5" ry="2.5" style="stroke:#2563EB;stroke-width:1.5;" width="792" x="31" y="621"/><text fill="#111827" font-family="sans-serif" font-size="14" font-weight="bold" lengthAdjust="spacing" textLength="49.0273" x="402.4863" y="637.5332">Vehicle</text></g><!--cluster Body--><g class="cluster" data-entity="Body" data-source-line="29" data-uid="ent0006" id="cluster_Body"><rect fill="#F0F9FF" height="322" rx="2.5" ry="2.5" style="stroke:#2563EB;stroke-width:1.5;" width="744" x="55" y="665"/><text fill="#111827" font-family="sans-serif" font-size="14" font-weight="bold" lengthAdjust="spacing" textLength="35" x="409.5" y="681.5332">Body</text></g><!--cluster Weather--><g class="cluster" data-entity="Weather" data-source-line="29" data-uid="ent0007" id="cluster_Weather"><rect fill="#F0F9FF" height="186" rx="2.5" ry="2.5" style="stroke:#2563EB;stroke-width:1.5;" width="280" x="79" y="753"/><text fill="#111827" font-family="sans-serif" font-size="14" font-weight="bold" lengthAdjust="spacing" textLength="55.2344" x="191.3828" y="769.5332">Weather</text></g><!--cluster RainService--><g class="cluster" data-entity="RainService" data-source-line="28" data-uid="ent0002" id="cluster_RainService"><rect fill="#F0F9FF" height="118" rx="2.5" ry="2.5" style="stroke:#2563EB;stroke-width:1.5;" width="232" x="103" y="797"/><text fill="#111827" font-family="sans-serif" font-size="14" font-weight="bold" lengthAdjust="spacing" textLength="80.1582" x="178.9209" y="813.5332">RainService</text></g><!--cluster Windshield--><g class="cluster" data-entity="Windshield" data-source-line="35" data-uid="ent0010" id="cluster_Windshield"><rect fill="#F0F9FF" height="254" rx="2.5" ry="2.5" style="stroke:#2563EB;stroke-width:1.5;" width="392" x="383" y="709"/><text fill="#111827" font-family="sans-serif" font-size="14" font-weight="bold" lengthAdjust="spacing" textLength="74.6621" x="541.6689" y="725.5332">Windshield</text></g><!--cluster Wiper--><g class="cluster" data-entity="Wiper" data-source-line="35" data-uid="ent0011" id="cluster_Wiper"><rect fill="#F0F9FF" height="186" rx="2.5" ry="2.5" style="stroke:#2563EB;stroke-width:1.5;" width="344" x="407" y="753"/><text fill="#111827" font-family="sans-serif" font-size="14" font-weight="bold" lengthAdjust="spacing" textLength="38.8896" x="559.5552" y="769.5332">Wiper</text></g><!--cluster ModeService--><g class="cluster" data-entity="ModeService" data-source-line="34" data-uid="ent0008" id="cluster_ModeService"><rect fill="#F0F9FF" height="118" rx="2.5" ry="2.5" style="stroke:#2563EB;stroke-width:1.5;" width="296" x="431" y="797"/><text fill="#111827" font-family="sans-serif" font-size="14" font-weight="bold" lengthAdjust="spacing" textLength="86.3721" x="535.814" y="813.5332">ModeService</text></g><!--cluster sdv--><g class="cluster" data-entity="sdv" data-source-line="41" data-uid="ent0014" id="cluster_sdv"><rect fill="#F0F9FF" height="478" rx="2.5" ry="2.5" style="stroke:#2563EB;stroke-width:1.5;" width="788" x="871" y="727"/><text fill="#111827" font-family="sans-serif" font-size="14" font-weight="bold" lengthAdjust="spacing" textLength="24.124" x="1252.938" y="743.5332">sdv</text></g><!--cluster core--><g class="cluster" data-entity="core" data-source-line="40" data-uid="ent0012" id="cluster_core"><rect fill="#F0F9FF" height="410" rx="2.5" ry="2.5" style="stroke:#2563EB;stroke-width:1.5;" width="572" x="895" y="771"/><text fill="#111827" font-family="sans-serif" font-size="14" font-weight="bold" lengthAdjust="spacing" textLength="29.5723" x="1166.2139" y="787.5332">core</text></g><!--cluster app--><g class="cluster" data-entity="app" data-source-line="54" data-uid="ent0016" id="cluster_app"><rect fill="#F0F9FF" height="100" rx="2.5" ry="2.5" style="stroke:#2563EB;stroke-width:1.5;" width="144" x="1491" y="806"/><text fill="#111827" font-family="sans-serif" font-size="14" font-weight="bold" lengthAdjust="spacing" textLength="24.8896" x="1550.5552" y="822.5332">app</text></g><!--class IVSS_SetDetected_Event--><g class="entity" data-entity="IVSS_SetDetected_Event" data-source-line="29" data-uid="ent0003" id="entity_IVSS_SetDetected_Event"><rect fill="#EFF6FF" height="65.6094" rx="2.5" ry="2.5" style="stroke:#2563EB;stroke-width:0.5;" width="199.9473" x="119" y="833"/><ellipse cx="137.4308" cy="849" fill="#B4A7E5" rx="11" ry="11" style="stroke:#181818;stroke-width:1;"/><path d="M138.3839,845.6406 L138.3839,852.2969 L140.1027,852.2969 Q140.7121,852.2969 140.9777,852.5313 Q141.2433,852.7656 141.2433,853.1563 Q141.2433,853.5313 140.9777,853.7656 Q140.7121,854 140.1027,854 L134.9621,854 Q134.3527,854 134.0871,853.7656 Q133.8214,853.5313 133.8214,853.1406 Q133.8214,852.7656 134.0871,852.5313 Q134.3527,852.2969 134.9621,852.2969 L136.6808,852.2969 L136.6808,845.6406 L134.9621,845.6406 Q134.3527,845.6406 134.0871,845.4063 Q133.8214,845.1719 133.8214,844.7813 Q133.8214,844.4063 134.0871,844.1719 Q134.3527,843.9375 134.9621,843.9375 L140.1027,843.9375 Q140.7121,843.9375 140.9777,844.1719 Q141.2433,844.4063 141.2433,844.7813 Q141.2433,845.1719 140.9777,845.4063 Q140.7121,845.6406 140.1027,845.6406 L138.3839,845.6406 Z " fill="#000000"/><text fill="#111827" font-family="sans-serif" font-size="14" font-style="italic" lengthAdjust="spacing" textLength="160.3232" x="152.1932" y="854.7285">IVSS_SetDetected_Event</text><line style="stroke:#2563EB;stroke-width:0.5;" x1="120" x2="317.9473" y1="865" y2="865"/><line style="stroke:#2563EB;stroke-width:0.5;" x1="120" x2="317.9473" y1="873" y2="873"/><text fill="#000000" font-family="sans-serif" font-size="14" lengthAdjust="spacing" textLength="187.9473" x="125" y="891.5332">+void SetDetected(bool value)</text></g><!--class IVSS_SetMode_Event--><g class="entity" data-entity="IVSS_SetMode_Event" data-source-line="35" data-uid="ent0009" id="entity_IVSS_SetMode_Event"><rect fill="#EFF6FF" height="65.6094" rx="2.5" ry="2.5" style="stroke:#2563EB;stroke-width:0.5;" width="262.9541" x="447.5" y="833"/><ellipse cx="505.0723" cy="849" fill="#B4A7E5" rx="11" ry="11" style="stroke:#181818;stroke-width:1;"/><path d="M506.0254,845.6406 L506.0254,852.2969 L507.7441,852.2969 Q508.3535,852.2969 508.6191,852.5313 Q508.8848,852.7656 508.8848,853.1563 Q508.8848,853.5313 508.6191,853.7656 Q508.3535,854 507.7441,854 L502.6035,854 Q501.9941,854 501.7285,853.7656 Q501.4629,853.5313 501.4629,853.1406 Q501.4629,852.7656 501.7285,852.5313 Q501.9941,852.2969 502.6035,852.2969 L504.3223,852.2969 L504.3223,845.6406 L502.6035,845.6406 Q501.9941,845.6406 501.7285,845.4063 Q501.4629,845.1719 501.4629,844.7813 Q501.4629,844.4063 501.7285,844.1719 Q501.9941,843.9375 502.6035,843.9375 L507.7441,843.9375 Q508.3535,843.9375 508.6191,844.1719 Q508.8848,844.4063 508.8848,844.7813 Q508.8848,845.1719 508.6191,845.4063 Q508.3535,845.6406 507.7441,845.6406 L506.0254,845.6406 Z " fill="#000000"/><text fill="#111827" font-family="sans-serif" font-size="14" font-style="italic" lengthAdjust="spacing" textLength="139.3096" x="525.5723" y="854.7285">IVSS_SetMode_Event</text><line style="stroke:#2563EB;stroke-width:0.5;" x1="448.5" x2="709.4541" y1="865" y2="865"/><line style="stroke:#2563EB;stroke-width:0.5;" x1="448.5" x2="709.4541" y1="873" y2="873"/><text fill="#000000" font-family="sans-serif" font-size="14" lengthAdjust="spacing" textLength="250.9541" x="453.5" y="891.5332">+void SetMode(const sdv::string&amp; value)</text></g><!--class CDispatchService--><g class="entity" data-entity="CDispatchService" data-source-line="41" data-uid="ent0013" id="entity_CDispatchService"><rect fill="#EFF6FF" height="118.4375" rx="2.5" ry="2.5" style="stroke:#2563EB;stroke-width:0.5;" width="539.208" x="911.5" y="807"/><ellipse cx="1121.2231" cy="823" fill="#ADD1B2" rx="11" ry="11" style="stroke:#181818;stroke-width:1;"/><path d="M1123.9888,818.875 Q1124.145,818.6563 1124.3325,818.5469 Q1124.52,818.4375 1124.7388,818.4375 Q1125.1138,818.4375 1125.3481,818.6953 Q1125.5825,818.9531 1125.5825,819.5625 L1125.5825,821.0156 Q1125.5825,821.625 1125.3481,821.8906 Q1125.1138,822.1563 1124.7388,822.1563 Q1124.395,822.1563 1124.1919,821.9531 Q1123.9888,821.7656 1123.8794,821.25 Q1123.8325,820.8906 1123.645,820.7031 Q1123.3169,820.3281 1122.7075,820.1094 Q1122.0981,819.8906 1121.4731,819.8906 Q1120.7075,819.8906 1120.0747,820.2188 Q1119.4419,820.5469 1118.9497,821.2969 Q1118.4575,822.0469 1118.4575,823.0781 L1118.4575,824.1719 Q1118.4575,825.4063 1119.3481,826.2266 Q1120.2388,827.0469 1121.8325,827.0469 Q1122.77,827.0469 1123.4263,826.7969 Q1123.8169,826.6406 1124.2388,826.2031 Q1124.5044,825.9375 1124.6528,825.8594 Q1124.8013,825.7813 1125.0044,825.7813 Q1125.3325,825.7813 1125.5903,826.0391 Q1125.8481,826.2969 1125.8481,826.6406 Q1125.8481,826.9844 1125.5044,827.3906 Q1125.0044,827.9688 1124.2075,828.2969 Q1123.1294,828.75 1121.8325,828.75 Q1120.3169,828.75 1119.1138,828.125 Q1118.1294,827.625 1117.4419,826.5547 Q1116.7544,825.4844 1116.7544,824.2031 L1116.7544,823.0469 Q1116.7544,821.7188 1117.3716,820.5703 Q1117.9888,819.4219 1119.0825,818.8047 Q1120.1763,818.1875 1121.4106,818.1875 Q1122.145,818.1875 1122.7935,818.3516 Q1123.4419,818.5156 1123.9888,818.875 Z " fill="#000000"/><text fill="#111827" font-family="sans-serif" font-size="14" lengthAdjust="spacing" textLength="111.2617" x="1141.7231" y="828.7285">CDispatchService</text><line style="stroke:#2563EB;stroke-width:0.5;" x1="912.5" x2="1449.708" y1="839" y2="839"/><line style="stroke:#2563EB;stroke-width:0.5;" x1="912.5" x2="1449.708" y1="847" y2="847"/><text fill="#000000" font-family="sans-serif" font-size="14" lengthAdjust="spacing" textLength="373.8848" x="917.5" y="865.5332">+CSignal RegisterRxSignal(const u8string&amp; rssSignalName)</text><text fill="#000000" font-family="sans-serif" font-size="14" lengthAdjust="spacing" textLength="469.5811" x="917.5" y="883.1426">+CSignal RegisterTxSignal(const u8string&amp; rssSignalName, TType tDefVal)</text><text fill="#000000" font-family="sans-serif" font-size="14" lengthAdjust="spacing" textLength="527.208" x="917.5" y="900.752">+CSignal Subscribe(const u8string&amp; rssSignalName, std::function&lt;void(any_t)&gt; func)</text><text fill="#000000" font-family="sans-serif" font-size="14" lengthAdjust="spacing" textLength="349.002" x="917.5" y="918.3613">+CSignal AddPublisher(const u8string&amp; rssSignalName)</text></g><!--class CSignal--><g class="entity" data-entity="CSignal" data-source-line="48" data-uid="ent0015" id="entity_CSignal"><rect fill="#EFF6FF" height="83.2188" rx="2.5" ry="2.5" style="stroke:#2563EB;stroke-width:0.5;" width="479.5986" x="956" y="1082"/><ellipse cx="1167.0356" cy="1098" fill="#ADD1B2" rx="11" ry="11" style="stroke:#181818;stroke-width:1;"/><path d="M1169.8013,1093.875 Q1169.9575,1093.6563 1170.145,1093.5469 Q1170.3325,1093.4375 1170.5513,1093.4375 Q1170.9263,1093.4375 1171.1606,1093.6953 Q1171.395,1093.9531 1171.395,1094.5625 L1171.395,1096.0156 Q1171.395,1096.625 1171.1606,1096.8906 Q1170.9263,1097.1563 1170.5513,1097.1563 Q1170.2075,1097.1563 1170.0044,1096.9531 Q1169.8013,1096.7656 1169.6919,1096.25 Q1169.645,1095.8906 1169.4575,1095.7031 Q1169.1294,1095.3281 1168.52,1095.1094 Q1167.9106,1094.8906 1167.2856,1094.8906 Q1166.52,1094.8906 1165.8872,1095.2188 Q1165.2544,1095.5469 1164.7622,1096.2969 Q1164.27,1097.0469 1164.27,1098.0781 L1164.27,1099.1719 Q1164.27,1100.4063 1165.1606,1101.2266 Q1166.0513,1102.0469 1167.645,1102.0469 Q1168.5825,1102.0469 1169.2388,1101.7969 Q1169.6294,1101.6406 1170.0513,1101.2031 Q1170.3169,1100.9375 1170.4653,1100.8594 Q1170.6138,1100.7813 1170.8169,1100.7813 Q1171.145,1100.7813 1171.4028,1101.0391 Q1171.6606,1101.2969 1171.6606,1101.6406 Q1171.6606,1101.9844 1171.3169,1102.3906 Q1170.8169,1102.9688 1170.02,1103.2969 Q1168.9419,1103.75 1167.645,1103.75 Q1166.1294,1103.75 1164.9263,1103.125 Q1163.9419,1102.625 1163.2544,1101.5547 Q1162.5669,1100.4844 1162.5669,1099.2031 L1162.5669,1098.0469 Q1162.5669,1096.7188 1163.1841,1095.5703 Q1163.8013,1094.4219 1164.895,1093.8047 Q1165.9888,1093.1875 1167.2231,1093.1875 Q1167.9575,1093.1875 1168.606,1093.3516 Q1169.2544,1093.5156 1169.8013,1093.875 Z " fill="#000000"/><text fill="#111827" font-family="sans-serif" font-size="14" lengthAdjust="spacing" textLength="49.0273" x="1187.5356" y="1103.7285">CSignal</text><line style="stroke:#2563EB;stroke-width:0.5;" x1="957" x2="1434.5986" y1="1114" y2="1114"/><line style="stroke:#2563EB;stroke-width:0.5;" x1="957" x2="1434.5986" y1="1122" y2="1122"/><text fill="#000000" font-family="sans-serif" font-size="14" lengthAdjust="spacing" textLength="467.5986" x="962" y="1140.5332">+void Write(TType tVal, const CTransaction&amp; rTransaction=CTransaction())</text><text fill="#000000" font-family="sans-serif" font-size="14" lengthAdjust="spacing" textLength="83.6445" x="962" y="1158.1426">+void Reset()</text></g><!--class CAppControl--><g class="entity" data-entity="CAppControl" data-source-line="55" data-uid="ent0017" id="entity_CAppControl"><rect fill="#EFF6FF" height="48" rx="2.5" ry="2.5" style="stroke:#2563EB;stroke-width:0.5;" width="112.1514" x="1507" y="842"/><ellipse cx="1522" cy="858" fill="#ADD1B2" rx="11" ry="11" style="stroke:#181818;stroke-width:1;"/><path d="M1524.7656,853.875 Q1524.9219,853.6563 1525.1094,853.5469 Q1525.2969,853.4375 1525.5156,853.4375 Q1525.8906,853.4375 1526.125,853.6953 Q1526.3594,853.9531 1526.3594,854.5625 L1526.3594,856.0156 Q1526.3594,856.625 1526.125,856.8906 Q1525.8906,857.1563 1525.5156,857.1563 Q1525.1719,857.1563 1524.9688,856.9531 Q1524.7656,856.7656 1524.6563,856.25 Q1524.6094,855.8906 1524.4219,855.7031 Q1524.0938,855.3281 1523.4844,855.1094 Q1522.875,854.8906 1522.25,854.8906 Q1521.4844,854.8906 1520.8516,855.2188 Q1520.2188,855.5469 1519.7266,856.2969 Q1519.2344,857.0469 1519.2344,858.0781 L1519.2344,859.1719 Q1519.2344,860.4063 1520.125,861.2266 Q1521.0156,862.0469 1522.6094,862.0469 Q1523.5469,862.0469 1524.2031,861.7969 Q1524.5938,861.6406 1525.0156,861.2031 Q1525.2813,860.9375 1525.4297,860.8594 Q1525.5781,860.7813 1525.7813,860.7813 Q1526.1094,860.7813 1526.3672,861.0391 Q1526.625,861.2969 1526.625,861.6406 Q1526.625,861.9844 1526.2813,862.3906 Q1525.7813,862.9688 1524.9844,863.2969 Q1523.9063,863.75 1522.6094,863.75 Q1521.0938,863.75 1519.8906,863.125 Q1518.9063,862.625 1518.2188,861.5547 Q1517.5313,860.4844 1517.5313,859.2031 L1517.5313,858.0469 Q1517.5313,856.7188 1518.1484,855.5703 Q1518.7656,854.4219 1519.8594,853.8047 Q1520.9531,853.1875 1522.1875,853.1875 Q1522.9219,853.1875 1523.5703,853.3516 Q1524.2188,853.5156 1524.7656,853.875 Z " fill="#000000"/><text fill="#111827" font-family="sans-serif" font-size="14" lengthAdjust="spacing" textLength="80.1514" x="1536" y="863.7285">CAppControl</text><line style="stroke:#2563EB;stroke-width:0.5;" x1="1508" x2="1618.1514" y1="874" y2="874"/><line style="stroke:#2563EB;stroke-width:0.5;" x1="1508" x2="1618.1514" y1="882" y2="882"/></g><!--class CConsole--><g class="entity" data-entity="CConsole" data-source-line="58" data-uid="ent0018" id="entity_CConsole"><rect fill="#EFF6FF" height="505.8438" rx="2.5" ry="2.5" style="stroke:#2563EB;stroke-width:0.5;" width="352.4639" x="1005" y="7"/><ellipse cx="1146.2441" cy="23" fill="#ADD1B2" rx="11" ry="11" style="stroke:#181818;stroke-width:1;"/><path d="M1149.0098,18.875 Q1149.166,18.6563 1149.3535,18.5469 Q1149.541,18.4375 1149.7598,18.4375 Q1150.1348,18.4375 1150.3691,18.6953 Q1150.6035,18.9531 1150.6035,19.5625 L1150.6035,21.0156 Q1150.6035,21.625 1150.3691,21.8906 Q1150.1348,22.1563 1149.7598,22.1563 Q1149.416,22.1563 1149.2129,21.9531 Q1149.0098,21.7656 1148.9004,21.25 Q1148.8535,20.8906 1148.666,20.7031 Q1148.3379,20.3281 1147.7285,20.1094 Q1147.1191,19.8906 1146.4941,19.8906 Q1145.7285,19.8906 1145.0957,20.2188 Q1144.4629,20.5469 1143.9707,21.2969 Q1143.4785,22.0469 1143.4785,23.0781 L1143.4785,24.1719 Q1143.4785,25.4063 1144.3691,26.2266 Q1145.2598,27.0469 1146.8535,27.0469 Q1147.791,27.0469 1148.4473,26.7969 Q1148.8379,26.6406 1149.2598,26.2031 Q1149.5254,25.9375 1149.6738,25.8594 Q1149.8223,25.7813 1150.0254,25.7813 Q1150.3535,25.7813 1150.6113,26.0391 Q1150.8691,26.2969 1150.8691,26.6406 Q1150.8691,26.9844 1150.5254,27.3906 Q1150.0254,27.9688 1149.2285,28.2969 Q1148.1504,28.75 1146.8535,28.75 Q1145.3379,28.75 1144.1348,28.125 Q1143.1504,27.625 1142.4629,26.5547 Q1141.7754,25.4844 1141.7754,24.2031 L1141.7754,23.0469 Q1141.7754,21.7188 1142.3926,20.5703 Q1143.0098,19.4219 1144.1035,18.8047 Q1145.1973,18.1875 1146.4316,18.1875 Q1147.166,18.1875 1147.8145,18.3516 Q1148.4629,18.5156 1149.0098,18.875 Z " fill="#000000"/><text fill="#111827" font-family="sans-serif" font-size="14" lengthAdjust="spacing" textLength="61.4756" x="1166.7441" y="28.7285">CConsole</text><line style="stroke:#2563EB;stroke-width:0.5;" x1="1006" x2="1356.4639" y1="39" y2="39"/><text fill="#000000" font-family="sans-serif" font-size="14" lengthAdjust="spacing" textLength="234.2334" x="1011" y="57.5332">-sdv::app::CAppControl m_appcontrol</text><text fill="#000000" font-family="sans-serif" font-size="14" lengthAdjust="spacing" textLength="262.9854" x="1011" y="75.1426">-sdv::core::CDispatchService m_cdispatch</text><text fill="#000000" font-family="sans-serif" font-size="14" lengthAdjust="spacing" textLength="263.0127" x="1011" y="92.752">-sdv::core::CSignal m_signalRainDetected</text><text fill="#000000" font-family="sans-serif" font-size="14" lengthAdjust="spacing" textLength="285.5439" x="1011" y="110.3613">-sdv::core::CSignal m_signalFrontWiperActive</text><text fill="#000000" font-family="sans-serif" font-size="14" lengthAdjust="spacing" textLength="283.2129" x="1011" y="127.9707">-sdv::core::CSignal m_signalRearWiperActive</text><text fill="#000000" font-family="sans-serif" font-size="14" lengthAdjust="spacing" textLength="249.7646" x="1011" y="145.5801">-sdv::core::CSignal m_signalWiperMode</text><text fill="#000000" font-family="sans-serif" font-size="14" lengthAdjust="spacing" textLength="312.0195" x="1011" y="163.1895">-sdv::core::CSignal m_signalSubscribeWiperMode</text><text fill="#000000" font-family="sans-serif" font-size="14" lengthAdjust="spacing" textLength="325.2676" x="1011" y="180.7988">-sdv::core::CSignal m_signalSubscribeRainDetected</text><line style="stroke:#2563EB;stroke-width:0.5;" x1="1006" x2="1356.4639" y1="187.875" y2="187.875"/><text fill="#000000" font-family="sans-serif" font-size="14" lengthAdjust="spacing" textLength="78.9756" x="1011" y="206.4082">+CConsole()</text><text fill="#000000" font-family="sans-serif" font-size="14" lengthAdjust="spacing" textLength="87.1514" x="1011" y="224.0176">+~CConsole()</text><text fill="#000000" font-family="sans-serif" font-size="14" lengthAdjust="spacing" textLength="263.4229" x="1011" y="241.627">+void PrintHeader(uint32_t exampleMode)</text><text fill="#000000" font-family="sans-serif" font-size="14" lengthAdjust="spacing" textLength="340.4639" x="1011" y="259.2363">+bool PrepareDataConsumers(uint32_t exampleMode)</text><text fill="#000000" font-family="sans-serif" font-size="14" lengthAdjust="spacing" textLength="129.5615" x="1011" y="276.8457">+void ResetSignals()</text><text fill="#000000" font-family="sans-serif" font-size="14" lengthAdjust="spacing" textLength="208.1611" x="1011" y="294.4551">+bool RegisterSubscribeSignals()</text><text fill="#000000" font-family="sans-serif" font-size="14" lengthAdjust="spacing" textLength="156.0303" x="1011" y="312.0645">+bool SubscribeSignals()</text><text fill="#000000" font-family="sans-serif" font-size="14" lengthAdjust="spacing" textLength="286.7607" x="1011" y="329.6738">+void CallbackRainDetected(sdv::any_t value)</text><text fill="#000000" font-family="sans-serif" font-size="14" lengthAdjust="spacing" textLength="273.5127" x="1011" y="347.2832">+void CallbackWiperMode(sdv::any_t value)</text><text fill="#000000" font-family="sans-serif" font-size="14" lengthAdjust="spacing" textLength="95.3203" x="1011" y="364.8926">+void InitData()</text><text fill="#000000" font-family="sans-serif" font-size="14" lengthAdjust="spacing" textLength="246.2988" x="1011" y="382.502">+void SetManualRearActive(bool value)</text><text fill="#000000" font-family="sans-serif" font-size="14" lengthAdjust="spacing" textLength="248.6299" x="1011" y="400.1113">+void SetManualFrontActive(bool value)</text><text fill="#000000" font-family="sans-serif" font-size="14" lengthAdjust="spacing" textLength="137.3408" x="1011" y="417.7207">+void UpdateTxData()</text><text fill="#000000" font-family="sans-serif" font-size="14" lengthAdjust="spacing" textLength="278.9814" x="1011" y="435.3301">+void RunUntilBreak(uint32_t exampleMode)</text><text fill="#000000" font-family="sans-serif" font-size="14" lengthAdjust="spacing" textLength="85.5791" x="1011" y="452.9395">-bool KeyHit()</text><text fill="#000000" font-family="sans-serif" font-size="14" lengthAdjust="spacing" textLength="98.0205" x="1011" y="470.5488">-char GetChar()</text><text fill="#000000" font-family="sans-serif" font-size="14" lengthAdjust="spacing" textLength="187.9473" x="1011" y="488.1582">+void SetDetected(bool value)</text><text fill="#000000" font-family="sans-serif" font-size="14" lengthAdjust="spacing" textLength="250.9541" x="1011" y="505.7676">+void SetMode(const sdv::string&amp; value)</text></g><!--link CConsole to IVSS_SetDetected_Event--><g class="link" data-entity-1="CConsole" data-entity-2="IVSS_SetDetected_Event" data-source-line="87" data-uid="lnk19" id="link_CConsole_IVSS_SetDetected_Event"><path codeLine="87" d="M1004.74,303.22 C842.87,348.58 602.77,433.06 431,569 C335.83,644.31 272.2274,757.0641 242.3374,816.7741" fill="none" id="CConsole-to-IVSS_SetDetected_Event" style="stroke:#2563EB;stroke-width:1;stroke-dasharray:7,7;"/><polygon fill="none" points="234.28,832.87,247.7027,819.4599,236.9721,814.0883,234.28,832.87" style="stroke:#2563EB;stroke-width:1;"/></g><!--link CConsole to IVSS_SetMode_Event--><g class="link" data-entity-1="CConsole" data-entity-2="IVSS_SetMode_Event" data-source-line="88" data-uid="lnk20" id="link_CConsole_IVSS_SetMode_Event"><path codeLine="88" d="M1004.85,437.73 C865.88,577.16 696.4569,747.1511 623.7269,820.1211" fill="none" id="CConsole-to-IVSS_SetMode_Event" style="stroke:#2563EB;stroke-width:1;stroke-dasharray:7,7;"/><polygon fill="none" points="611.02,832.87,627.9766,824.3568,619.4773,815.8855,611.02,832.87" style="stroke:#2563EB;stroke-width:1;"/></g><!--reverse link CConsole to CAppControl--><g class="link" data-entity-1="CConsole" data-entity-2="CAppControl" data-source-line="89" data-uid="lnk21" id="link_CConsole_CAppControl"><path codeLine="89" d="M1365.361,433.4129 C1405.551,477.3329 1437.07,518.03 1467,569 C1521.58,661.94 1549.39,789.78 1559.01,841.69" fill="none" id="CConsole-backto-CAppControl" style="stroke:#2563EB;stroke-width:1;"/><polygon fill="#2563EB" points="1357.26,424.56,1358.3596,431.6868,1365.361,433.4129,1364.2615,426.2861,1357.26,424.56" style="stroke:#2563EB;stroke-width:1;"/><text fill="#000000" font-family="sans-serif" font-size="13" lengthAdjust="spacing" textLength="78.7681" x="1462" y="557.4951">m_appcontrol</text></g><!--reverse link CConsole to CDispatchService--><g class="link" data-entity-1="CConsole" data-entity-2="CDispatchService" data-source-line="90" data-uid="lnk22" id="link_CConsole_CDispatchService"><path codeLine="90" d="M1181,525.21 C1181,633.58 1181,738.74 1181,806.79" fill="none" id="CConsole-backto-CDispatchService" style="stroke:#2563EB;stroke-width:1;"/><polygon fill="#2563EB" points="1181,513.21,1177,519.21,1181,525.21,1185,519.21,1181,513.21" style="stroke:#2563EB;stroke-width:1;"/><text fill="#000000" font-family="sans-serif" font-size="13" lengthAdjust="spacing" textLength="72.979" x="1182" y="557.4951">m_cdispatch</text></g><!--reverse link CConsole to CSignal--><g class="link" data-entity-1="CConsole" data-entity-2="CSignal" data-source-line="91" data-uid="lnk23" id="link_CConsole_CSignal"><path codeLine="91" d="M1367.839,335.4746 C1468.919,385.4046 1576.35,458.33 1635,569 C1733.65,755.14 1770.04,881.31 1635,1043 C1607.82,1075.55 1523.57,1094.8 1436.05,1106.17" fill="none" id="CConsole-backto-CSignal" style="stroke:#2563EB;stroke-width:1;"/><polygon fill="none" points="1357.08,330.16,1360.688,336.4036,1367.839,335.4746,1364.231,329.231,1357.08,330.16" style="stroke:#2563EB;stroke-width:1;"/><text fill="#000000" font-family="sans-serif" font-size="13" lengthAdjust="spacing" textLength="57.0845" x="1724" y="871.4951">m_signal*</text></g><!--reverse link CDispatchService to CSignal--><g class="link" data-entity-1="CDispatchService" data-entity-2="CSignal" data-source-line="92" data-uid="lnk24" id="link_CDispatchService_CSignal"><path codeLine="92" d="M1185.1233,937.2794 C1187.9333,985.1394 1191.14,1039.72 1193.62,1081.95" fill="none" id="CDispatchService-backto-CSignal" style="stroke:#2563EB;stroke-width:1;"/><polygon fill="#2563EB" points="1184.42,925.3,1180.7785,931.5241,1185.1233,937.2794,1188.7648,931.0552,1184.42,925.3" style="stroke:#2563EB;stroke-width:1;"/></g><!--SRC=[dLLjJzim4FwUNs5fqfG2HHGsngmDgGtDGDCcr1JuMBd9jRLmxSXs2jt6Vlji9stJaBwCJqdkddjyzzoTeq0Z1IcHH0k9CFOyzKYv_PwY8OaVnr9aF0a4CzvtuKNO3eCIGar88fue7wCHOGfAdfWHfKB1TKH_0MfzABbIGql6KE_KLBEIwzohSgBV7aATQcRTC3mFG-iHCW5PM4y_dfzrEyPg2GjRgzMwEFtalPHuATSWHoI6UkwhJhSTTj_8NHHRpnoUX9_Vd7LRIl6q7bAHggsrfCDCmqqikDFpv7LcaPupG19YJVYOWUSjCfufXV4zJ6ZC0EEEIEOOFm3H4v0OzmZb4SWPBKHRINXp7qM32FGLQCC9oQ0x0wuT2A73cQ09AddzeH0CpGZBe64GBwR2xGbGdgW91PROzzIcyaCai3qLYwXFmtfy8uuoIv3CC5P6C3v-lo4X1uc5pC_9fp6ueYebEfwKKp0d114TSy9G3yPKcOHwpxcXE2sxM1mbbSezFydK7LaJtDyh-0Zr-_CKa15tT4zOXIlAXYesum2xI9Gsseuo7cig-1Uhb4_uVA0RbyXQAxJj9BdDXemgCnQxQpDYBeKh2CeTUP1KWrzKOKeuGZbZq9U4A-8oCgobhwzbbzzebCXwe43xzKqaQLhkOJjD0xDhKZ2BB8p6eWJB6tgu-79yXt_NFzrnjwPaVGt4xB6VcTUpqu56y4ocAGCxPWxfflrMsliMheWcbYQRWbIRGrQrv88fVyMqc8zbRrz3wbsED22CsIlUxl9o7tDvRBzNIx0ETsld5cSpzePJRUihdMQtZV2Ci1uGsJRzca5b-IkuK9gMR07UfGdHq7-kdDFB-1tNb7KaaCUDiZOTutUONzDyHfhnX4Zq3NHWdkjfRxYhzhz4cekPmxWqQcWwCAQucBi5obul1bQzLQQ3E2bCLMYnHzE1SY_bRkw0EeLTEtEPTp6RnksFNex93jnoGFyxOArIixVBZJq-_dEvz-yBu_e_rZvqMtz6A-BL_sT5Uj1ielgnmEk3yJfYmuZWjI5PXebAMA4cNkfvu6rZFQWD_mS0]--></g></svg>